G04 #@! TF.GenerationSoftware,KiCad,Pcbnew,(5.0.0-rc2-dev-596-gcfd2f1d00)*
G04 #@! TF.CreationDate,2018-08-25T14:54:55+02:00*
G04 #@! TF.ProjectId,MP2637,4D50323633372E6B696361645F706362,rev?*
G04 #@! TF.SameCoordinates,Original*
G04 #@! TF.FileFunction,Copper,L1,Top,Signal*
G04 #@! TF.FilePolarity,Positive*
%FSLAX45Y45*%
G04 Gerber Fmt 4.5, Leading zero omitted, Abs format (unit mm)*
G04 Created by KiCad (PCBNEW (5.0.0-rc2-dev-596-gcfd2f1d00)) date 08/25/18 14:54:55*
%MOMM*%
%LPD*%
G01*
G04 APERTURE LIST*
%ADD10C,0.900000*%
%ADD11R,2.500000X2.000000*%
%ADD12R,2.500000X0.500000*%
%ADD13C,0.400000*%
%ADD14R,1.400000X1.600000*%
%ADD15R,1.900000X1.900000*%
%ADD16R,1.350000X0.400000*%
%ADD17R,1.016000X0.889000*%
%ADD18C,1.500000*%
%ADD19R,1.400000X1.100000*%
%ADD20R,1.000000X0.900000*%
%ADD21R,0.900000X1.000000*%
%ADD22R,1.100000X1.400000*%
%ADD23O,0.250000X1.700000*%
%ADD24O,0.250000X1.000000*%
%ADD25O,1.000000X0.250000*%
%ADD26R,1.000000X0.250000*%
%ADD27C,5.000000*%
%ADD28R,6.300000X2.000000*%
%ADD29R,1.500000X1.500000*%
%ADD30R,1.400000X1.400000*%
%ADD31C,1.400000*%
%ADD32C,1.000000*%
%ADD33C,0.700000*%
%ADD34C,0.500000*%
%ADD35C,0.200000*%
%ADD36C,1.000000*%
%ADD37C,0.700000*%
%ADD38C,0.400000*%
%ADD39C,0.300000*%
G04 APERTURE END LIST*
D10*
X10525000Y-6095000D03*
D11*
X10225000Y-5430000D03*
X10225000Y-6320000D03*
X10775000Y-5430000D03*
X10775000Y-6320000D03*
D12*
X10775000Y-5715000D03*
X10775000Y-5795000D03*
X10775000Y-5875000D03*
X10775000Y-5955000D03*
X10775000Y-6035000D03*
D10*
X10525000Y-5655000D03*
D13*
X10365000Y-5680000D03*
D14*
X10385000Y-5555000D03*
X10385000Y-6195000D03*
D15*
X10150000Y-5470000D03*
X10150000Y-5730000D03*
X10150000Y-6020000D03*
X10150000Y-6280000D03*
D16*
X10419000Y-5745000D03*
X10419000Y-5810000D03*
X10419000Y-5875000D03*
X10419000Y-5940000D03*
X10419000Y-6005000D03*
D13*
X10365000Y-6070000D03*
D17*
X11175000Y-5951200D03*
X11175000Y-5798800D03*
D18*
X10150000Y-6600000D03*
D19*
X11375000Y-5980000D03*
X11375000Y-5770000D03*
D20*
X12650000Y-6300000D03*
X12650000Y-6450000D03*
D21*
X12375000Y-5850000D03*
X12225000Y-5850000D03*
X13525000Y-6650000D03*
X13375000Y-6650000D03*
D20*
X12550000Y-5325000D03*
X12550000Y-5175000D03*
X12825000Y-6300000D03*
X12825000Y-6450000D03*
D22*
X13720000Y-6625000D03*
X13930000Y-6625000D03*
D23*
X12875000Y-5975000D03*
X12925000Y-5975000D03*
D24*
X12975000Y-6010000D03*
D23*
X12825000Y-5975000D03*
X12775000Y-5975000D03*
D24*
X12725000Y-6010000D03*
D25*
X12640000Y-5775000D03*
X12640000Y-5825000D03*
X12640000Y-5875000D03*
X12640000Y-5925000D03*
X12640000Y-5725000D03*
X12640000Y-5675000D03*
D24*
X12725000Y-5590000D03*
X12775000Y-5590000D03*
X12825000Y-5590000D03*
D25*
X13060000Y-5675000D03*
X13060000Y-5725000D03*
D26*
X13060000Y-5925000D03*
D25*
X13060000Y-5875000D03*
X13060000Y-5825000D03*
X13060000Y-5775000D03*
D24*
X12975000Y-5590000D03*
X12925000Y-5590000D03*
X12875000Y-5590000D03*
D22*
X11695000Y-5350000D03*
X11905000Y-5350000D03*
X11695000Y-5750000D03*
X11905000Y-5750000D03*
X11695000Y-6300000D03*
X11905000Y-6300000D03*
D27*
X11250000Y-5275000D03*
X11250000Y-6475000D03*
D28*
X13625000Y-6307500D03*
X13625000Y-5892500D03*
D21*
X12225000Y-6300000D03*
X12375000Y-6300000D03*
X12222700Y-6048390D03*
X12372700Y-6048390D03*
X12225000Y-6475000D03*
X12375000Y-6475000D03*
D20*
X12725000Y-5175000D03*
X12725000Y-5325000D03*
X12900000Y-5325000D03*
X12900000Y-5175000D03*
D21*
X12225000Y-5500000D03*
X12375000Y-5500000D03*
X12375000Y-5325000D03*
X12225000Y-5325000D03*
X12375000Y-5675000D03*
X12225000Y-5675000D03*
D20*
X14075000Y-6100000D03*
X14075000Y-5950000D03*
X14076600Y-5793780D03*
X14076600Y-5643780D03*
D21*
X11850000Y-5550000D03*
X11700000Y-5550000D03*
X11850000Y-5950000D03*
X11700000Y-5950000D03*
X11850000Y-6500000D03*
X11700000Y-6500000D03*
D20*
X13200000Y-6450000D03*
X13200000Y-6600000D03*
X13025000Y-6450000D03*
X13025000Y-6600000D03*
D21*
X13075000Y-5325000D03*
X13225000Y-5325000D03*
D22*
X13880000Y-5625000D03*
X13670000Y-5625000D03*
D29*
X10150000Y-5150000D03*
D30*
X12400000Y-6650000D03*
D31*
X12600000Y-6650000D03*
D29*
X14525000Y-6258000D03*
D18*
X14525000Y-6512000D03*
D22*
X13070000Y-5125000D03*
X13280000Y-5125000D03*
D32*
X12125000Y-6650000D03*
D20*
X13375000Y-5650000D03*
X13375000Y-5500000D03*
D22*
X13880000Y-5225000D03*
X13670000Y-5225000D03*
D29*
X14525000Y-5238000D03*
D18*
X14525000Y-5492000D03*
D29*
X14525000Y-5748000D03*
D18*
X14525000Y-6002000D03*
D33*
X12049100Y-5256010D03*
X12460000Y-5210000D03*
X12830000Y-5227170D03*
X13410000Y-5250000D03*
X13148200Y-5574580D03*
X13165300Y-5511470D03*
X13953300Y-5491320D03*
X12132300Y-5946770D03*
X12139700Y-6388360D03*
X12891600Y-5444720D03*
X14075300Y-5875510D03*
X10990000Y-5790000D03*
X11040000Y-5860000D03*
X12294700Y-5951910D03*
X12149800Y-6249230D03*
X11929600Y-6431070D03*
X11929200Y-5880000D03*
X12909200Y-6306440D03*
X13288800Y-6607080D03*
X12812900Y-5495980D03*
X12602000Y-6110480D03*
X12547400Y-6376550D03*
X12564000Y-6001270D03*
X12446300Y-6368350D03*
X12776400Y-5675400D03*
X12013200Y-5680870D03*
X12956600Y-5700890D03*
X11960000Y-5480000D03*
X13170000Y-5950000D03*
X11770000Y-6600000D03*
X10390000Y-6680000D03*
X10810000Y-6680000D03*
X10380000Y-5070000D03*
X10790000Y-5070000D03*
X12909700Y-5834520D03*
X12831800Y-5834590D03*
X12749700Y-5836110D03*
X12747600Y-5762480D03*
X12827600Y-5760760D03*
X11335200Y-5623290D03*
X11426100Y-5620950D03*
X12735700Y-6450000D03*
X13230000Y-6120000D03*
X13810000Y-5070000D03*
X14120000Y-5070000D03*
X14380000Y-5070000D03*
X13490000Y-5070000D03*
X12810000Y-5070000D03*
X12340000Y-5070000D03*
X11990000Y-5070000D03*
X11640000Y-5070000D03*
X11600000Y-6680000D03*
X11990000Y-6680000D03*
X14140000Y-6680000D03*
X14375000Y-6125000D03*
X13621400Y-6496560D03*
X13446200Y-5403460D03*
X12462200Y-5413270D03*
X13060800Y-5543330D03*
X14212200Y-5859320D03*
X14343400Y-5384830D03*
X14007000Y-5387290D03*
X14386600Y-5629470D03*
X13910800Y-6096730D03*
X13456200Y-6100000D03*
X14410000Y-6680000D03*
X14121900Y-6423710D03*
X12018300Y-5801930D03*
X12042900Y-5578160D03*
X12022400Y-6031710D03*
X11546200Y-6154860D03*
X10986000Y-6119970D03*
X11022900Y-5606890D03*
X10503700Y-6399080D03*
X10070000Y-5600000D03*
X10070000Y-5880000D03*
X10070000Y-6150000D03*
X10550000Y-5300000D03*
D34*
X12074980Y-5418500D02*
X12049100Y-5256010D01*
X12128950Y-5542520D02*
X12074980Y-5418500D01*
X12128950Y-5571150D02*
X12128950Y-5542520D01*
X12155000Y-5635360D02*
X12128950Y-5571150D01*
X12169640Y-5650000D02*
X12155000Y-5635360D01*
X12180000Y-5650000D02*
X12169640Y-5650000D01*
X12205000Y-5650000D02*
X12180000Y-5650000D01*
X12225000Y-5675000D02*
X12205000Y-5650000D01*
X12245000Y-5300000D02*
X12225000Y-5325000D01*
X12245000Y-5275000D02*
X12245000Y-5300000D01*
X12245000Y-5264640D02*
X12245000Y-5275000D01*
X12259640Y-5250000D02*
X12245000Y-5264640D01*
X12307210Y-5219990D02*
X12259640Y-5250000D01*
X12460000Y-5210000D02*
X12307210Y-5219990D01*
X13000000Y-6620000D02*
X13025000Y-6600000D01*
X12975000Y-6620000D02*
X13000000Y-6620000D01*
X12964640Y-6620000D02*
X12975000Y-6620000D01*
X12600000Y-6650000D02*
X12964640Y-6620000D01*
X12225000Y-5700000D02*
X12225000Y-5675000D01*
X12225000Y-5725000D02*
X12225000Y-5700000D01*
X12225000Y-5800000D02*
X12225000Y-5725000D01*
X12225000Y-5825000D02*
X12225000Y-5800000D01*
X12225000Y-5850000D02*
X12225000Y-5825000D01*
X12155000Y-6435360D02*
X12139700Y-6388360D01*
X12169640Y-6450000D02*
X12155000Y-6435360D01*
X12180000Y-6450000D02*
X12169640Y-6450000D01*
X12205000Y-6450000D02*
X12180000Y-6450000D01*
X12225000Y-6475000D02*
X12205000Y-6450000D01*
X13205000Y-5350000D02*
X13225000Y-5325000D01*
X13205000Y-5375000D02*
X13205000Y-5350000D01*
X13205000Y-5385360D02*
X13205000Y-5375000D01*
X13165300Y-5511470D02*
X13205000Y-5385360D01*
X12525000Y-5195000D02*
X12550000Y-5175000D01*
X12500000Y-5195000D02*
X12525000Y-5195000D01*
X12489640Y-5195000D02*
X12500000Y-5195000D01*
X12460000Y-5210000D02*
X12489640Y-5195000D01*
X12205000Y-5875000D02*
X12225000Y-5850000D01*
X12180000Y-5875000D02*
X12205000Y-5875000D01*
X12169640Y-5875000D02*
X12180000Y-5875000D01*
X12155000Y-5889640D02*
X12169640Y-5875000D01*
X12132680Y-5944400D02*
X12155000Y-5889640D01*
X12132300Y-5946770D02*
X12132680Y-5944400D01*
X14051600Y-5623780D02*
X14076600Y-5643780D01*
X14051600Y-5598780D02*
X14051600Y-5623780D01*
X14051600Y-5588420D02*
X14051600Y-5598780D01*
X14036960Y-5573780D02*
X14051600Y-5588420D01*
X13953300Y-5491320D02*
X14036960Y-5573780D01*
D35*
X13097500Y-5675000D02*
X13115000Y-5619160D01*
X13060000Y-5675000D02*
X13097500Y-5675000D01*
D34*
X13245000Y-5300000D02*
X13225000Y-5325000D01*
X13270000Y-5300000D02*
X13245000Y-5300000D01*
X13280360Y-5300000D02*
X13270000Y-5300000D01*
X13295000Y-5285360D02*
X13280360Y-5300000D01*
X13310000Y-5250000D02*
X13295000Y-5285360D01*
X12875000Y-5195000D02*
X12900000Y-5175000D01*
X12850000Y-5195000D02*
X12875000Y-5195000D01*
X12841720Y-5200000D02*
X12850000Y-5195000D01*
X12830000Y-5211720D02*
X12841720Y-5200000D01*
X12830000Y-5227170D02*
X12830000Y-5211720D01*
X13165300Y-5511470D02*
X13148200Y-5574580D01*
X13310000Y-5170000D02*
X13280000Y-5125000D01*
X13310000Y-5195000D02*
X13310000Y-5170000D01*
X13310000Y-5250000D02*
X13310000Y-5195000D01*
X13115000Y-5619160D02*
X13148200Y-5574580D01*
X13410000Y-5250000D02*
X13310000Y-5250000D01*
D35*
X12885770Y-5481390D02*
X12891600Y-5444720D01*
X12882770Y-5514300D02*
X12885770Y-5481390D01*
X12882770Y-5524920D02*
X12882770Y-5514300D01*
X12876630Y-5532460D02*
X12882770Y-5524920D01*
X12875000Y-5552500D02*
X12876630Y-5532460D01*
X12875000Y-5590000D02*
X12875000Y-5552500D01*
X14075300Y-5828780D02*
X14076600Y-5793780D01*
X14075300Y-5838780D02*
X14075300Y-5828780D01*
X14075300Y-5875510D02*
X14075300Y-5838780D01*
X14075300Y-5915000D02*
X14075000Y-5950000D01*
X14075300Y-5905000D02*
X14075300Y-5915000D01*
X14075300Y-5875510D02*
X14075300Y-5905000D01*
X14460000Y-5770890D02*
X14525000Y-5748000D01*
X14450000Y-5770890D02*
X14460000Y-5770890D01*
X14126600Y-5770890D02*
X14450000Y-5770890D01*
X14116600Y-5770890D02*
X14126600Y-5770890D01*
X14076600Y-5793780D02*
X14116600Y-5770890D01*
D36*
X13875010Y-5645000D02*
X13880000Y-5625000D01*
X13875010Y-5695000D02*
X13875010Y-5645000D01*
X13875010Y-5792500D02*
X13875010Y-5695000D01*
X13875010Y-5842500D02*
X13875010Y-5792500D01*
X13625000Y-5892500D02*
X13875010Y-5842500D01*
D35*
X13138920Y-5775000D02*
X13216500Y-5801950D01*
X13097500Y-5775000D02*
X13138920Y-5775000D01*
X13060000Y-5775000D02*
X13097500Y-5775000D01*
D36*
X13289290Y-5842500D02*
X13216500Y-5801950D01*
X13310000Y-5842500D02*
X13289290Y-5842500D01*
X13360000Y-5842500D02*
X13310000Y-5842500D01*
X13625000Y-5892500D02*
X13360000Y-5842500D01*
X13360000Y-6257500D02*
X13625000Y-6307500D01*
X13310000Y-6257500D02*
X13360000Y-6257500D01*
X13289290Y-6257500D02*
X13310000Y-6257500D01*
X13211610Y-6231670D02*
X13289290Y-6257500D01*
X13183740Y-6231670D02*
X13211610Y-6231670D01*
X12926600Y-6144550D02*
X13183740Y-6231670D01*
D35*
X12875000Y-6068210D02*
X12926600Y-6144550D01*
X12875000Y-6047500D02*
X12875000Y-6068210D01*
X12875000Y-5975000D02*
X12875000Y-6047500D01*
X11697500Y-5810000D02*
X11695000Y-5750000D01*
X11697500Y-5820000D02*
X11697500Y-5810000D01*
X11697500Y-5900000D02*
X11697500Y-5820000D01*
X11697500Y-5910000D02*
X11697500Y-5900000D01*
X11700000Y-5950000D02*
X11697500Y-5910000D01*
X11697500Y-5410000D02*
X11695000Y-5350000D01*
X11697500Y-5420000D02*
X11697500Y-5410000D01*
X11697500Y-5500000D02*
X11697500Y-5420000D01*
X11697500Y-5510000D02*
X11697500Y-5500000D01*
X11700000Y-5550000D02*
X11697500Y-5510000D01*
X11697500Y-6360000D02*
X11695000Y-6300000D01*
X11697500Y-6370000D02*
X11697500Y-6360000D01*
X11697500Y-6450000D02*
X11697500Y-6370000D01*
X11697500Y-6460000D02*
X11697500Y-6450000D01*
X11700000Y-6500000D02*
X11697500Y-6460000D01*
D37*
X12635000Y-6290000D02*
X12650000Y-6300000D01*
X12600000Y-6290000D02*
X12635000Y-6290000D01*
X12585500Y-6290000D02*
X12600000Y-6290000D01*
X12446930Y-6184990D02*
X12585500Y-6290000D01*
X12215770Y-6163400D02*
X12446930Y-6184990D01*
X12188290Y-6156310D02*
X12215770Y-6163400D01*
X12153710Y-6156310D02*
X12188290Y-6156310D01*
X11980970Y-6131720D02*
X12153710Y-6156310D01*
X11628070Y-6065010D02*
X11980970Y-6131720D01*
X11459500Y-6000000D02*
X11628070Y-6065010D01*
X11445000Y-6000000D02*
X11459500Y-6000000D01*
X11410000Y-6000000D02*
X11445000Y-6000000D01*
X11375000Y-5980000D02*
X11410000Y-6000000D01*
D35*
X10486500Y-5735400D02*
X10489900Y-5735400D01*
X10476500Y-5735400D02*
X10486500Y-5735400D01*
X10419000Y-5745000D02*
X10476500Y-5735400D01*
X12190000Y-5460000D02*
X12225000Y-5500000D01*
X12190000Y-5450000D02*
X12190000Y-5460000D01*
X12190000Y-5445860D02*
X12190000Y-5450000D01*
X12142500Y-5390530D02*
X12190000Y-5445860D01*
X12139990Y-5366570D02*
X12142500Y-5390530D01*
X12122300Y-5167490D02*
X12139990Y-5366570D01*
X12775000Y-6068210D02*
X12708800Y-6136390D01*
X12775000Y-6047500D02*
X12775000Y-6068210D01*
X12775000Y-5975000D02*
X12775000Y-6047500D01*
D37*
X10926920Y-5707580D02*
X10910080Y-5707580D01*
X10964980Y-5745640D02*
X10926920Y-5707580D01*
X10990000Y-5790000D02*
X10964980Y-5745640D01*
D35*
X12220290Y-5154980D02*
X12122300Y-5167490D01*
X12371070Y-5145010D02*
X12220290Y-5154980D01*
X12452360Y-5104990D02*
X12371070Y-5145010D01*
X12483430Y-5089990D02*
X12452360Y-5104990D01*
X12516570Y-5089990D02*
X12483430Y-5089990D01*
X12616570Y-5089990D02*
X12516570Y-5089990D01*
X12679140Y-5120000D02*
X12616570Y-5089990D01*
X12685000Y-5125860D02*
X12679140Y-5120000D01*
X12685000Y-5130000D02*
X12685000Y-5125860D01*
X12685000Y-5140000D02*
X12685000Y-5130000D01*
X12725000Y-5175000D02*
X12685000Y-5140000D01*
X12018030Y-5181000D02*
X12122300Y-5167490D01*
X11623430Y-5239990D02*
X12018030Y-5181000D01*
X11599990Y-5263430D02*
X11623430Y-5239990D01*
X11480000Y-5939500D02*
X11599990Y-5263430D01*
X11459500Y-5960000D02*
X11480000Y-5939500D01*
X11445000Y-5960000D02*
X11459500Y-5960000D01*
X11435000Y-5960000D02*
X11445000Y-5960000D01*
X11375000Y-5980000D02*
X11435000Y-5960000D01*
D34*
X10900000Y-5715000D02*
X10910080Y-5707580D01*
X10875000Y-5715000D02*
X10900000Y-5715000D01*
X10775000Y-5715000D02*
X10875000Y-5715000D01*
D37*
X11340000Y-5960650D02*
X11375000Y-5980000D01*
X11305000Y-5960650D02*
X11340000Y-5960650D01*
X11225800Y-5960650D02*
X11305000Y-5960650D01*
X11190800Y-5960650D02*
X11225800Y-5960650D01*
X11175000Y-5951200D02*
X11190800Y-5960650D01*
X11159200Y-5941750D02*
X11175000Y-5951200D01*
X11124200Y-5941750D02*
X11159200Y-5941750D01*
X11109700Y-5941750D02*
X11124200Y-5941750D01*
X11089200Y-5921250D02*
X11109700Y-5941750D01*
X11040000Y-5860000D02*
X11089200Y-5921250D01*
D34*
X10490810Y-5735400D02*
X10489900Y-5735400D01*
X10627210Y-5714990D02*
X10490810Y-5735400D01*
X10650000Y-5715000D02*
X10627210Y-5714990D01*
X10675000Y-5715000D02*
X10650000Y-5715000D01*
X10775000Y-5715000D02*
X10675000Y-5715000D01*
D37*
X11040000Y-5860000D02*
X10990000Y-5790000D01*
X12665000Y-6240500D02*
X12708800Y-6136390D01*
X12665000Y-6255000D02*
X12665000Y-6240500D01*
X12665000Y-6290000D02*
X12665000Y-6255000D01*
X12650000Y-6300000D02*
X12665000Y-6290000D01*
D34*
X12242700Y-6023390D02*
X12222700Y-6048390D01*
X12242700Y-5998390D02*
X12242700Y-6023390D01*
X12242700Y-5988030D02*
X12242700Y-5998390D01*
X12257340Y-5973390D02*
X12242700Y-5988030D01*
X12292440Y-5954170D02*
X12257340Y-5973390D01*
X12294700Y-5951910D02*
X12292440Y-5954170D01*
X12205000Y-6275000D02*
X12225000Y-6300000D01*
X12180000Y-6275000D02*
X12205000Y-6275000D01*
X12169640Y-6275000D02*
X12180000Y-6275000D01*
X12155000Y-6260360D02*
X12169640Y-6275000D01*
X12149800Y-6249230D02*
X12155000Y-6260360D01*
X12046350Y-6482300D02*
X12125000Y-6650000D01*
X12044980Y-6478990D02*
X12046350Y-6482300D01*
X12044980Y-6371010D02*
X12044980Y-6478990D01*
X12049690Y-6351080D02*
X12044980Y-6371010D01*
X12149800Y-6249230D02*
X12049690Y-6351080D01*
X12420000Y-5834170D02*
X12535600Y-5834170D01*
X12395000Y-5834170D02*
X12420000Y-5834170D01*
X12375000Y-5850000D02*
X12395000Y-5834170D01*
X12304910Y-5943380D02*
X12294700Y-5951910D01*
X12340360Y-5925000D02*
X12304910Y-5943380D01*
X12355000Y-5910360D02*
X12340360Y-5925000D01*
X12355000Y-5900000D02*
X12355000Y-5910360D01*
X12355000Y-5875000D02*
X12355000Y-5900000D01*
X12375000Y-5850000D02*
X12355000Y-5875000D01*
D35*
X12561080Y-5825000D02*
X12535600Y-5834170D01*
X12602500Y-5825000D02*
X12561080Y-5825000D01*
X12640000Y-5825000D02*
X12602500Y-5825000D01*
D37*
X13215000Y-6460000D02*
X13200000Y-6450000D01*
X13250000Y-6460000D02*
X13215000Y-6460000D01*
X13264500Y-6460000D02*
X13250000Y-6460000D01*
X13446930Y-6534990D02*
X13264500Y-6460000D01*
X13494500Y-6565000D02*
X13446930Y-6534990D01*
X13515000Y-6585500D02*
X13494500Y-6565000D01*
X13515000Y-6600000D02*
X13515000Y-6585500D01*
X13515000Y-6635000D02*
X13515000Y-6600000D01*
X13525000Y-6650000D02*
X13515000Y-6635000D01*
D35*
X12825000Y-6088920D02*
X12821300Y-6144550D01*
X12825000Y-6047500D02*
X12825000Y-6088920D01*
X12825000Y-5975000D02*
X12825000Y-6047500D01*
D37*
X13700000Y-6637500D02*
X13720000Y-6625000D01*
X13665000Y-6637500D02*
X13700000Y-6637500D01*
X13570000Y-6637500D02*
X13665000Y-6637500D01*
X13535000Y-6637500D02*
X13570000Y-6637500D01*
X13525000Y-6650000D02*
X13535000Y-6637500D01*
D35*
X11815000Y-5910000D02*
X11850000Y-5950000D01*
X11815000Y-5900000D02*
X11815000Y-5910000D01*
X11815000Y-5895860D02*
X11815000Y-5900000D01*
X11809990Y-5836570D02*
X11815000Y-5895860D01*
X11809990Y-5803430D02*
X11809990Y-5836570D01*
X11809990Y-5663430D02*
X11809990Y-5803430D01*
X11815000Y-5604140D02*
X11809990Y-5663430D01*
X11815000Y-5600000D02*
X11815000Y-5604140D01*
X11815000Y-5590000D02*
X11815000Y-5600000D01*
X11850000Y-5550000D02*
X11815000Y-5590000D01*
D37*
X14077400Y-6110000D02*
X14075000Y-6100000D01*
X14077400Y-6145000D02*
X14077400Y-6110000D01*
X14077400Y-6292260D02*
X14077400Y-6145000D01*
X12840000Y-6306440D02*
X12825000Y-6300000D01*
X12875000Y-6306440D02*
X12840000Y-6306440D01*
X12909200Y-6306440D02*
X12875000Y-6306440D01*
X14485000Y-6292260D02*
X14525000Y-6258000D01*
X14450000Y-6292260D02*
X14485000Y-6292260D01*
X14077400Y-6292260D02*
X14450000Y-6292260D01*
D35*
X11885000Y-5910000D02*
X11850000Y-5950000D01*
X11895000Y-5910000D02*
X11885000Y-5910000D01*
X11899140Y-5910000D02*
X11895000Y-5910000D01*
X11929200Y-5880000D02*
X11899140Y-5910000D01*
D37*
X14021890Y-6382280D02*
X14077400Y-6292260D01*
X14005010Y-6434430D02*
X14021890Y-6382280D01*
X13966930Y-6472510D02*
X14005010Y-6434430D01*
X13848070Y-6489990D02*
X13966930Y-6472510D01*
X13760500Y-6520000D02*
X13848070Y-6489990D01*
X13740000Y-6540500D02*
X13760500Y-6520000D01*
X13740000Y-6555000D02*
X13740000Y-6540500D01*
X13740000Y-6590000D02*
X13740000Y-6555000D01*
X13720000Y-6625000D02*
X13740000Y-6590000D01*
X13101930Y-6339990D02*
X12909200Y-6306440D01*
X13164500Y-6370000D02*
X13101930Y-6339990D01*
X13185000Y-6390500D02*
X13164500Y-6370000D01*
X13185000Y-6405000D02*
X13185000Y-6390500D01*
X13185000Y-6440000D02*
X13185000Y-6405000D01*
X13200000Y-6450000D02*
X13185000Y-6440000D01*
X12821300Y-6255000D02*
X12821300Y-6144550D01*
X12821300Y-6290000D02*
X12821300Y-6255000D01*
X12825000Y-6300000D02*
X12821300Y-6290000D01*
D35*
X11899140Y-6460000D02*
X11929600Y-6431070D01*
X11895000Y-6460000D02*
X11899140Y-6460000D01*
X11885000Y-6460000D02*
X11895000Y-6460000D01*
X11850000Y-6500000D02*
X11885000Y-6460000D01*
X13340000Y-6610000D02*
X13375000Y-6650000D01*
X13330000Y-6610000D02*
X13340000Y-6610000D01*
X13325860Y-6610000D02*
X13330000Y-6610000D01*
X13288800Y-6607080D02*
X13325860Y-6610000D01*
X12825000Y-5552500D02*
X12825000Y-5590000D01*
X12825000Y-5531790D02*
X12825000Y-5552500D01*
X12812900Y-5495980D02*
X12825000Y-5531790D01*
X13065000Y-6485000D02*
X13025000Y-6450000D01*
X13075000Y-6485000D02*
X13065000Y-6485000D01*
X13079140Y-6485000D02*
X13075000Y-6485000D01*
X13085000Y-6490860D02*
X13079140Y-6485000D01*
X13140000Y-6559140D02*
X13085000Y-6490860D01*
X13145860Y-6565000D02*
X13140000Y-6559140D01*
X13150000Y-6565000D02*
X13145860Y-6565000D01*
X13160000Y-6565000D02*
X13150000Y-6565000D01*
X13200000Y-6600000D02*
X13160000Y-6565000D01*
X13240000Y-6607080D02*
X13200000Y-6600000D01*
X13250000Y-6607080D02*
X13240000Y-6607080D01*
X13288800Y-6607080D02*
X13250000Y-6607080D01*
X12602500Y-5675000D02*
X12640000Y-5675000D01*
X12590000Y-5374140D02*
X12602500Y-5675000D01*
X12590000Y-5370000D02*
X12590000Y-5374140D01*
X12590000Y-5360000D02*
X12590000Y-5370000D01*
X12550000Y-5325000D02*
X12590000Y-5360000D01*
X13118210Y-5725000D02*
X13177100Y-5677980D01*
X13097500Y-5725000D02*
X13118210Y-5725000D01*
X13060000Y-5725000D02*
X13097500Y-5725000D01*
D37*
X13860000Y-5260000D02*
X13880000Y-5225000D01*
X13860000Y-5295000D02*
X13860000Y-5260000D01*
X13860000Y-5309500D02*
X13860000Y-5295000D01*
X13690000Y-5540500D02*
X13860000Y-5309500D01*
X13690000Y-5555000D02*
X13690000Y-5540500D01*
X13690000Y-5590000D02*
X13690000Y-5555000D01*
X13670000Y-5625000D02*
X13690000Y-5590000D01*
X14485000Y-5231500D02*
X14525000Y-5238000D01*
X14450000Y-5231500D02*
X14485000Y-5231500D01*
X13935000Y-5231500D02*
X14450000Y-5231500D01*
X13900000Y-5231500D02*
X13935000Y-5231500D01*
X13880000Y-5225000D02*
X13900000Y-5231500D01*
X13650000Y-5640000D02*
X13670000Y-5625000D01*
X13615000Y-5640000D02*
X13650000Y-5640000D01*
X13425000Y-5640000D02*
X13615000Y-5640000D01*
X13390000Y-5640000D02*
X13425000Y-5640000D01*
X13375000Y-5650000D02*
X13390000Y-5640000D01*
X13360000Y-5660000D02*
X13375000Y-5650000D01*
X13325000Y-5660000D02*
X13360000Y-5660000D01*
X13310500Y-5660000D02*
X13325000Y-5660000D01*
X13177100Y-5677980D02*
X13310500Y-5660000D01*
D35*
X12387500Y-6515000D02*
X12375000Y-6475000D01*
X12387500Y-6525000D02*
X12387500Y-6515000D01*
X12387500Y-6580000D02*
X12387500Y-6525000D01*
X12387500Y-6590000D02*
X12387500Y-6580000D01*
X12400000Y-6650000D02*
X12387500Y-6590000D01*
X12725000Y-6047500D02*
X12725000Y-6010000D01*
X12677730Y-6061380D02*
X12725000Y-6047500D01*
X12602000Y-6110480D02*
X12677730Y-6061380D01*
X12477370Y-6443360D02*
X12547400Y-6376550D01*
X12420000Y-6443360D02*
X12477370Y-6443360D01*
X12410000Y-6443360D02*
X12420000Y-6443360D01*
X12375000Y-6475000D02*
X12410000Y-6443360D01*
X12602500Y-5775000D02*
X12640000Y-5775000D01*
X12581790Y-5775000D02*
X12602500Y-5775000D01*
X12562160Y-5772400D02*
X12581790Y-5775000D01*
X12561470Y-5771720D02*
X12562160Y-5772400D01*
X12424140Y-5715000D02*
X12561470Y-5771720D01*
X12420000Y-5715000D02*
X12424140Y-5715000D01*
X12410000Y-5715000D02*
X12420000Y-5715000D01*
X12375000Y-5675000D02*
X12410000Y-5715000D01*
X12407700Y-6008390D02*
X12372700Y-6048390D01*
X12417700Y-6008390D02*
X12407700Y-6008390D01*
X12421840Y-6008390D02*
X12417700Y-6008390D01*
X12561290Y-5896190D02*
X12421840Y-6008390D01*
X12581990Y-5875480D02*
X12561290Y-5896190D01*
X12602500Y-5875000D02*
X12581990Y-5875480D01*
X12640000Y-5875000D02*
X12602500Y-5875000D01*
X12602500Y-5925000D02*
X12564000Y-6001270D01*
X12640000Y-5925000D02*
X12602500Y-5925000D01*
X12410000Y-6340000D02*
X12375000Y-6300000D01*
X12420000Y-6340000D02*
X12410000Y-6340000D01*
X12424140Y-6340000D02*
X12420000Y-6340000D01*
X12430000Y-6345860D02*
X12424140Y-6340000D01*
X12446300Y-6368350D02*
X12430000Y-6345860D01*
X12375000Y-5365000D02*
X12375000Y-5325000D01*
X12375000Y-5375000D02*
X12375000Y-5365000D01*
X12375000Y-5450000D02*
X12375000Y-5375000D01*
X12375000Y-5460000D02*
X12375000Y-5450000D01*
X12375000Y-5500000D02*
X12375000Y-5460000D01*
X12602500Y-5725000D02*
X12640000Y-5725000D01*
X12581810Y-5724950D02*
X12602500Y-5725000D01*
X12552550Y-5695690D02*
X12581810Y-5724950D01*
X12430000Y-5545860D02*
X12552550Y-5695690D01*
X12424140Y-5540000D02*
X12430000Y-5545860D01*
X12420000Y-5540000D02*
X12424140Y-5540000D01*
X12410000Y-5540000D02*
X12420000Y-5540000D01*
X12375000Y-5500000D02*
X12410000Y-5540000D01*
X12725000Y-5552500D02*
X12725000Y-5590000D01*
X12725000Y-5370000D02*
X12725000Y-5552500D01*
X12725000Y-5360000D02*
X12725000Y-5370000D01*
X12725000Y-5325000D02*
X12725000Y-5360000D01*
X12765000Y-5325000D02*
X12725000Y-5325000D01*
X12775000Y-5325000D02*
X12765000Y-5325000D01*
X12850000Y-5325000D02*
X12775000Y-5325000D01*
X12860000Y-5325000D02*
X12850000Y-5325000D01*
X12900000Y-5325000D02*
X12860000Y-5325000D01*
X12775000Y-5648210D02*
X12776400Y-5675400D01*
X12775000Y-5627500D02*
X12775000Y-5648210D01*
X12775000Y-5590000D02*
X12775000Y-5627500D01*
X11950000Y-5690000D02*
X11905000Y-5750000D01*
X11960000Y-5690000D02*
X11950000Y-5690000D01*
X11964140Y-5690000D02*
X11960000Y-5690000D01*
X12013200Y-5680870D02*
X11964140Y-5690000D01*
X12972830Y-5795570D02*
X12956600Y-5700890D01*
X12977350Y-5806500D02*
X12972830Y-5795570D01*
X12977350Y-5843700D02*
X12977350Y-5806500D01*
X13003800Y-5870150D02*
X12977350Y-5843700D01*
X13022500Y-5875000D02*
X13003800Y-5870150D01*
X13060000Y-5875000D02*
X13022500Y-5875000D01*
X11950000Y-5410000D02*
X11905000Y-5350000D01*
X11950000Y-5420000D02*
X11950000Y-5410000D01*
X11950000Y-5424140D02*
X11950000Y-5420000D01*
X11960000Y-5480000D02*
X11950000Y-5424140D01*
X13146650Y-5854640D02*
X13170000Y-5950000D01*
X13117860Y-5825850D02*
X13146650Y-5854640D01*
X13097500Y-5825000D02*
X13117860Y-5825850D01*
X13060000Y-5825000D02*
X13097500Y-5825000D01*
X11860000Y-6360000D02*
X11905000Y-6300000D01*
X11850000Y-6360000D02*
X11860000Y-6360000D01*
X11845860Y-6360000D02*
X11850000Y-6360000D01*
X11840000Y-6365860D02*
X11845860Y-6360000D01*
X11775000Y-6433430D02*
X11840000Y-6365860D01*
X11775000Y-6562430D02*
X11775000Y-6433430D01*
X11770000Y-6600000D02*
X11775000Y-6562430D01*
X12975000Y-5552500D02*
X12975000Y-5590000D01*
X12989340Y-5513730D02*
X12975000Y-5552500D01*
X13009510Y-5493560D02*
X12989340Y-5513730D01*
X13040000Y-5407280D02*
X13009510Y-5493560D01*
X13040000Y-5375000D02*
X13040000Y-5407280D01*
X13040000Y-5365000D02*
X13040000Y-5375000D01*
X13075000Y-5325000D02*
X13040000Y-5365000D01*
X12925000Y-5552500D02*
X12925000Y-5590000D01*
X12927630Y-5543500D02*
X12925000Y-5552500D01*
X12927630Y-5532880D02*
X12927630Y-5543500D01*
X12942890Y-5494490D02*
X12927630Y-5532880D01*
X12963060Y-5474320D02*
X12942890Y-5494490D01*
X12990000Y-5386570D02*
X12963060Y-5474320D01*
X12990000Y-5258430D02*
X12990000Y-5386570D01*
X13025000Y-5199140D02*
X12990000Y-5258430D01*
X13025000Y-5195000D02*
X13025000Y-5199140D01*
X13025000Y-5185000D02*
X13025000Y-5195000D01*
X13070000Y-5125000D02*
X13025000Y-5185000D01*
D34*
X11425210Y-5660570D02*
X11426100Y-5620950D01*
X11420000Y-5704640D02*
X11425210Y-5660570D01*
X11420000Y-5715000D02*
X11420000Y-5704640D01*
X11420000Y-5740000D02*
X11420000Y-5715000D01*
X11375000Y-5770000D02*
X11420000Y-5740000D01*
X10495870Y-6002380D02*
X10488510Y-6002380D01*
X10627210Y-6035010D02*
X10495870Y-6002380D01*
X10629770Y-6035010D02*
X10627210Y-6035010D01*
X10650000Y-6035000D02*
X10629770Y-6035010D01*
X10675000Y-6035000D02*
X10650000Y-6035000D01*
X10775000Y-6035000D02*
X10675000Y-6035000D01*
X11335200Y-5715000D02*
X11335200Y-5623290D01*
X11335200Y-5740000D02*
X11335200Y-5715000D01*
X11375000Y-5770000D02*
X11335200Y-5740000D01*
X13960000Y-6580000D02*
X13930000Y-6625000D01*
X13985000Y-6580000D02*
X13960000Y-6580000D01*
X13995360Y-6580000D02*
X13985000Y-6580000D01*
X14525000Y-6512000D02*
X13995360Y-6580000D01*
X13640000Y-5270000D02*
X13670000Y-5225000D01*
X13615000Y-5270000D02*
X13640000Y-5270000D01*
X13604640Y-5270000D02*
X13615000Y-5270000D01*
X13446200Y-5403460D02*
X13604640Y-5270000D01*
X14343400Y-5384830D02*
X14007000Y-5387290D01*
X12775000Y-6450000D02*
X12735700Y-6450000D01*
X12800000Y-6450000D02*
X12775000Y-6450000D01*
X12825000Y-6450000D02*
X12800000Y-6450000D01*
X12797040Y-5834990D02*
X12749700Y-5836110D01*
X12831800Y-5834590D02*
X12797040Y-5834990D01*
X13810000Y-5070000D02*
X14120000Y-5070000D01*
X10385000Y-6185000D02*
X10429240Y-6142210D01*
X10385000Y-6195000D02*
X10385000Y-6185000D01*
D38*
X10442500Y-6120180D02*
X10429240Y-6142210D01*
X10442500Y-6025000D02*
X10442500Y-6120180D01*
X10442500Y-6005000D02*
X10442500Y-6025000D01*
X10419000Y-6005000D02*
X10442500Y-6005000D01*
D34*
X10340000Y-5500000D02*
X10385000Y-5555000D01*
X10315000Y-5500000D02*
X10340000Y-5500000D01*
X10304640Y-5500000D02*
X10315000Y-5500000D01*
X10294610Y-5495190D02*
X10304640Y-5500000D01*
X10245000Y-5495190D02*
X10294610Y-5495190D01*
X10270000Y-5495190D02*
X10245000Y-5495190D01*
X10150000Y-5470000D02*
X10270000Y-5495190D01*
X10790000Y-5070000D02*
X11250000Y-5275000D01*
X13414640Y-5430000D02*
X13446200Y-5403460D01*
X13400000Y-5444640D02*
X13414640Y-5430000D01*
X13400000Y-5455000D02*
X13400000Y-5444640D01*
X13400000Y-5480000D02*
X13400000Y-5455000D01*
X13375000Y-5500000D02*
X13400000Y-5480000D01*
X10080000Y-5660000D02*
X10150000Y-5730000D01*
X10080000Y-5635000D02*
X10080000Y-5660000D01*
X10080000Y-5624640D02*
X10080000Y-5635000D01*
X10070000Y-5600000D02*
X10080000Y-5624640D01*
X10430000Y-6250000D02*
X10385000Y-6195000D01*
X10455000Y-6250000D02*
X10430000Y-6250000D01*
X10650000Y-6250000D02*
X10455000Y-6250000D01*
X10675000Y-6250000D02*
X10650000Y-6250000D01*
X10775000Y-6320000D02*
X10675000Y-6250000D01*
X10910360Y-5355000D02*
X11250000Y-5275000D01*
X10900000Y-5355000D02*
X10910360Y-5355000D01*
X10875000Y-5355000D02*
X10900000Y-5355000D01*
X10775000Y-5430000D02*
X10875000Y-5355000D01*
X10810000Y-6680000D02*
X11250000Y-6475000D01*
D35*
X12975000Y-5972500D02*
X12975000Y-6010000D01*
X12973750Y-5952520D02*
X12975000Y-5972500D01*
X12973750Y-5930350D02*
X12973750Y-5952520D01*
X12972500Y-5928030D02*
X12973750Y-5930350D01*
X12972500Y-5926530D02*
X12972500Y-5928030D01*
D34*
X10675000Y-5500000D02*
X10775000Y-5430000D01*
X10650000Y-5500000D02*
X10675000Y-5500000D01*
X10455000Y-5500000D02*
X10650000Y-5500000D01*
X10430000Y-5500000D02*
X10455000Y-5500000D01*
X10385000Y-5555000D02*
X10430000Y-5500000D01*
X10775000Y-6245000D02*
X10775000Y-6320000D01*
X10775000Y-6220000D02*
X10775000Y-6245000D01*
X10775000Y-6060000D02*
X10775000Y-6220000D01*
X10775000Y-6035000D02*
X10775000Y-6060000D01*
X13910800Y-6096730D02*
X13456200Y-6100000D01*
X11250000Y-6475000D02*
X11546200Y-6154860D01*
X13714640Y-5130000D02*
X13810000Y-5070000D01*
X13700000Y-5144640D02*
X13714640Y-5130000D01*
X13700000Y-5155000D02*
X13700000Y-5144640D01*
X13700000Y-5180000D02*
X13700000Y-5155000D01*
X13670000Y-5225000D02*
X13700000Y-5180000D01*
D39*
X10466500Y-6005000D02*
X10488510Y-6002380D01*
X10419000Y-6005000D02*
X10466500Y-6005000D01*
D34*
X12675000Y-6450000D02*
X12650000Y-6450000D01*
X12700000Y-6450000D02*
X12675000Y-6450000D01*
X12735700Y-6450000D02*
X12700000Y-6450000D01*
X14375000Y-6125000D02*
X14212200Y-5859320D01*
X10340000Y-6250000D02*
X10385000Y-6195000D01*
X10315000Y-6250000D02*
X10340000Y-6250000D01*
X10304640Y-6250000D02*
X10315000Y-6250000D01*
X10294610Y-6254810D02*
X10304640Y-6250000D01*
X10245000Y-6254810D02*
X10294610Y-6254810D01*
X10270000Y-6254810D02*
X10245000Y-6254810D01*
X10150000Y-6280000D02*
X10270000Y-6254810D01*
X11200800Y-5743990D02*
X11250000Y-5275000D01*
X11200800Y-5754350D02*
X11200800Y-5743990D01*
X11200800Y-5779350D02*
X11200800Y-5754350D01*
X11175000Y-5798800D02*
X11200800Y-5779350D01*
D35*
X12925000Y-5926530D02*
X12972500Y-5926530D01*
X12925000Y-5975000D02*
X12925000Y-5926530D01*
D34*
X11200800Y-5784400D02*
X11175000Y-5798800D01*
X11225800Y-5784400D02*
X11200800Y-5784400D01*
X11305000Y-5784400D02*
X11225800Y-5784400D01*
X11330000Y-5784400D02*
X11305000Y-5784400D01*
X11375000Y-5770000D02*
X11330000Y-5784400D01*
X10080000Y-6090000D02*
X10150000Y-6020000D01*
X10080000Y-6115000D02*
X10080000Y-6090000D01*
X10080000Y-6125360D02*
X10080000Y-6115000D01*
X10070000Y-6150000D02*
X10080000Y-6125360D01*
D35*
X13070600Y-5937500D02*
X13070600Y-5990030D01*
X13070600Y-5927500D02*
X13070600Y-5937500D01*
X13060000Y-5925000D02*
X13070600Y-5927500D01*
D34*
X10925000Y-6049640D02*
X10986000Y-6119970D01*
X10910360Y-6035000D02*
X10925000Y-6049640D01*
X10900000Y-6035000D02*
X10910360Y-6035000D01*
X10875000Y-6035000D02*
X10900000Y-6035000D01*
X10775000Y-6035000D02*
X10875000Y-6035000D01*
X12019210Y-5842720D02*
X12022400Y-6031710D01*
X12018300Y-5801930D02*
X12019210Y-5842720D01*
D35*
X13020000Y-5926530D02*
X13060000Y-5925000D01*
X13010000Y-5926530D02*
X13020000Y-5926530D01*
X12972500Y-5926530D02*
X13010000Y-5926530D01*
D38*
X10225000Y-6005000D02*
X10150000Y-6020000D01*
X10245000Y-6005000D02*
X10225000Y-6005000D01*
X10351500Y-6005000D02*
X10245000Y-6005000D01*
X10371500Y-6005000D02*
X10351500Y-6005000D01*
X10419000Y-6005000D02*
X10371500Y-6005000D01*
D34*
X11250000Y-6475000D02*
X11600000Y-6680000D01*
X13230000Y-6120000D02*
X13070600Y-5990030D01*
X12812470Y-5762480D02*
X12827600Y-5760760D01*
X12747600Y-5762480D02*
X12812470Y-5762480D01*
D35*
X12925000Y-5881790D02*
X12909700Y-5834520D01*
X12925000Y-5902500D02*
X12925000Y-5881790D01*
X12925000Y-5975000D02*
X12925000Y-5902500D01*
D34*
X10080000Y-5565000D02*
X10070000Y-5600000D01*
X10080000Y-5540000D02*
X10080000Y-5565000D01*
X10150000Y-5470000D02*
X10080000Y-5540000D01*
X10150000Y-6395000D02*
X10225000Y-6320000D01*
X10150000Y-6420000D02*
X10150000Y-6395000D01*
X10150000Y-6600000D02*
X10150000Y-6420000D01*
D35*
G36*
X12160000Y-5764988D02*
X12157342Y-5766090D01*
X12146090Y-5777342D01*
X12140000Y-5792043D01*
X12140000Y-5807956D01*
X12140000Y-5818132D01*
X12123678Y-5829038D01*
X12109038Y-5843678D01*
X12108934Y-5843834D01*
X12108779Y-5843939D01*
X12101893Y-5854370D01*
X12094948Y-5864765D01*
X12094911Y-5864949D01*
X12094808Y-5865106D01*
X12085794Y-5887222D01*
X12068755Y-5904230D01*
X12057313Y-5931786D01*
X12057287Y-5961623D01*
X12068681Y-5989199D01*
X12089760Y-6010315D01*
X12117316Y-6021757D01*
X12137700Y-6021775D01*
X12137700Y-6078275D01*
X11993228Y-6057709D01*
X11899547Y-6040000D01*
X11902956Y-6040000D01*
X11917658Y-6033910D01*
X11928910Y-6022658D01*
X11935000Y-6007956D01*
X11935000Y-5992043D01*
X11935000Y-5955005D01*
X11944053Y-5955013D01*
X11971629Y-5943619D01*
X11992745Y-5922539D01*
X12004187Y-5894984D01*
X12004213Y-5865147D01*
X11994416Y-5841437D01*
X12000000Y-5827956D01*
X12000000Y-5812043D01*
X12000000Y-5755858D01*
X12028053Y-5755883D01*
X12055629Y-5744489D01*
X12076745Y-5723409D01*
X12088187Y-5695854D01*
X12088213Y-5666017D01*
X12076819Y-5638441D01*
X12055739Y-5617325D01*
X12028184Y-5605883D01*
X11998347Y-5605857D01*
X11970771Y-5617251D01*
X11949655Y-5638330D01*
X11948962Y-5640000D01*
X11902956Y-5640000D01*
X11917658Y-5633910D01*
X11928910Y-5622658D01*
X11935000Y-5607956D01*
X11935000Y-5592044D01*
X11935000Y-5550828D01*
X11945016Y-5554987D01*
X11974853Y-5555013D01*
X12002429Y-5543619D01*
X12023545Y-5522540D01*
X12034987Y-5494984D01*
X12034992Y-5489506D01*
X12063950Y-5556050D01*
X12063950Y-5571150D01*
X12066378Y-5583356D01*
X12068718Y-5595586D01*
X12094768Y-5659796D01*
X12094901Y-5659997D01*
X12094948Y-5660234D01*
X12101863Y-5670583D01*
X12108704Y-5680986D01*
X12108904Y-5681121D01*
X12109038Y-5681322D01*
X12123678Y-5695962D01*
X12140000Y-5706868D01*
X12140000Y-5732956D01*
X12146090Y-5747658D01*
X12157342Y-5758910D01*
X12160000Y-5760011D01*
X12160000Y-5764988D01*
X12160000Y-5764988D01*
G37*
X12160000Y-5764988D02*
X12157342Y-5766090D01*
X12146090Y-5777342D01*
X12140000Y-5792043D01*
X12140000Y-5807956D01*
X12140000Y-5818132D01*
X12123678Y-5829038D01*
X12109038Y-5843678D01*
X12108934Y-5843834D01*
X12108779Y-5843939D01*
X12101893Y-5854370D01*
X12094948Y-5864765D01*
X12094911Y-5864949D01*
X12094808Y-5865106D01*
X12085794Y-5887222D01*
X12068755Y-5904230D01*
X12057313Y-5931786D01*
X12057287Y-5961623D01*
X12068681Y-5989199D01*
X12089760Y-6010315D01*
X12117316Y-6021757D01*
X12137700Y-6021775D01*
X12137700Y-6078275D01*
X11993228Y-6057709D01*
X11899547Y-6040000D01*
X11902956Y-6040000D01*
X11917658Y-6033910D01*
X11928910Y-6022658D01*
X11935000Y-6007956D01*
X11935000Y-5992043D01*
X11935000Y-5955005D01*
X11944053Y-5955013D01*
X11971629Y-5943619D01*
X11992745Y-5922539D01*
X12004187Y-5894984D01*
X12004213Y-5865147D01*
X11994416Y-5841437D01*
X12000000Y-5827956D01*
X12000000Y-5812043D01*
X12000000Y-5755858D01*
X12028053Y-5755883D01*
X12055629Y-5744489D01*
X12076745Y-5723409D01*
X12088187Y-5695854D01*
X12088213Y-5666017D01*
X12076819Y-5638441D01*
X12055739Y-5617325D01*
X12028184Y-5605883D01*
X11998347Y-5605857D01*
X11970771Y-5617251D01*
X11949655Y-5638330D01*
X11948962Y-5640000D01*
X11902956Y-5640000D01*
X11917658Y-5633910D01*
X11928910Y-5622658D01*
X11935000Y-5607956D01*
X11935000Y-5592044D01*
X11935000Y-5550828D01*
X11945016Y-5554987D01*
X11974853Y-5555013D01*
X12002429Y-5543619D01*
X12023545Y-5522540D01*
X12034987Y-5494984D01*
X12034992Y-5489506D01*
X12063950Y-5556050D01*
X12063950Y-5571150D01*
X12066378Y-5583356D01*
X12068718Y-5595586D01*
X12094768Y-5659796D01*
X12094901Y-5659997D01*
X12094948Y-5660234D01*
X12101863Y-5670583D01*
X12108704Y-5680986D01*
X12108904Y-5681121D01*
X12109038Y-5681322D01*
X12123678Y-5695962D01*
X12140000Y-5706868D01*
X12140000Y-5732956D01*
X12146090Y-5747658D01*
X12157342Y-5758910D01*
X12160000Y-5760011D01*
X12160000Y-5764988D01*
G36*
X12456436Y-5047500D02*
X12430622Y-5059963D01*
X12430465Y-5060081D01*
X12430276Y-5060132D01*
X12357879Y-5095773D01*
X12216991Y-5105089D01*
X12215499Y-5105490D01*
X12213958Y-5105383D01*
X12115968Y-5117893D01*
X12115923Y-5117908D01*
X12115875Y-5117905D01*
X12011605Y-5131415D01*
X12011134Y-5131573D01*
X12010637Y-5131550D01*
X11616037Y-5190540D01*
X11610288Y-5192604D01*
X11604296Y-5193796D01*
X11601191Y-5195871D01*
X11597676Y-5197133D01*
X11593154Y-5201240D01*
X11588075Y-5204635D01*
X11564635Y-5228075D01*
X11561615Y-5232594D01*
X11557850Y-5236518D01*
X11556247Y-5240628D01*
X11553796Y-5244296D01*
X11552735Y-5249628D01*
X11550759Y-5254692D01*
X11478152Y-5663789D01*
X11456935Y-5655000D01*
X11433065Y-5655000D01*
X11405000Y-5655000D01*
X11390000Y-5670000D01*
X11390000Y-5755000D01*
X11392000Y-5755000D01*
X11392000Y-5785000D01*
X11390000Y-5785000D01*
X11390000Y-5787000D01*
X11360000Y-5787000D01*
X11360000Y-5785000D01*
X11358000Y-5785000D01*
X11358000Y-5755000D01*
X11360000Y-5755000D01*
X11360000Y-5670000D01*
X11345000Y-5655000D01*
X11316935Y-5655000D01*
X11293065Y-5655000D01*
X11271013Y-5664134D01*
X11254134Y-5681013D01*
X11247017Y-5698195D01*
X11237735Y-5694350D01*
X11213865Y-5694350D01*
X11205000Y-5694350D01*
X11190000Y-5709350D01*
X11190000Y-5783800D01*
X11192000Y-5783800D01*
X11192000Y-5813800D01*
X11190000Y-5813800D01*
X11190000Y-5815800D01*
X11160000Y-5815800D01*
X11160000Y-5813800D01*
X11158000Y-5813800D01*
X11158000Y-5783800D01*
X11160000Y-5783800D01*
X11160000Y-5709350D01*
X11145000Y-5694350D01*
X11136135Y-5694350D01*
X11112265Y-5694350D01*
X11090213Y-5703484D01*
X11073334Y-5720363D01*
X11064200Y-5742415D01*
X11064200Y-5764845D01*
X11056030Y-5753408D01*
X11053619Y-5747571D01*
X11050303Y-5744249D01*
X11030306Y-5708795D01*
X11023670Y-5701073D01*
X11018013Y-5692607D01*
X10979953Y-5654547D01*
X10955621Y-5638289D01*
X10926920Y-5632580D01*
X10910080Y-5632580D01*
X10881379Y-5638289D01*
X10863852Y-5650000D01*
X10775000Y-5650000D01*
X10675000Y-5650000D01*
X10650029Y-5650000D01*
X10627239Y-5649990D01*
X10622459Y-5650939D01*
X10617591Y-5650706D01*
X10610003Y-5651841D01*
X10610015Y-5638167D01*
X10597102Y-5606914D01*
X10573212Y-5582983D01*
X10541982Y-5570015D01*
X10508167Y-5569985D01*
X10476914Y-5582899D01*
X10452983Y-5606788D01*
X10440015Y-5638018D01*
X10439985Y-5671833D01*
X10445426Y-5685000D01*
X10424996Y-5685000D01*
X10425010Y-5668118D01*
X10415895Y-5646057D01*
X10399032Y-5629164D01*
X10376987Y-5620010D01*
X10353118Y-5619990D01*
X10331057Y-5629105D01*
X10314164Y-5645968D01*
X10305010Y-5668013D01*
X10304990Y-5691882D01*
X10313445Y-5712347D01*
X10311500Y-5717043D01*
X10311500Y-5732956D01*
X10311500Y-5772956D01*
X10313382Y-5777500D01*
X10311500Y-5782043D01*
X10311500Y-5797956D01*
X10311500Y-5837956D01*
X10313382Y-5842500D01*
X10311500Y-5847043D01*
X10311500Y-5862956D01*
X10311500Y-5902956D01*
X10313382Y-5907500D01*
X10311500Y-5912043D01*
X10311500Y-5927956D01*
X10311500Y-5940147D01*
X10300635Y-5951013D01*
X10291500Y-5973065D01*
X10291500Y-5980000D01*
X10306500Y-5995000D01*
X10331472Y-5995000D01*
X10343544Y-6000000D01*
X10359457Y-6000000D01*
X10494457Y-6000000D01*
X10506528Y-5995000D01*
X10531500Y-5995000D01*
X10546500Y-5980000D01*
X10546500Y-5973065D01*
X10537366Y-5951013D01*
X10526500Y-5940147D01*
X10526500Y-5912043D01*
X10524618Y-5907500D01*
X10526500Y-5902956D01*
X10526500Y-5887043D01*
X10526500Y-5847043D01*
X10524618Y-5842500D01*
X10526500Y-5837956D01*
X10526500Y-5822043D01*
X10526500Y-5795783D01*
X10610000Y-5783289D01*
X10610000Y-5827956D01*
X10612917Y-5835000D01*
X10610000Y-5842043D01*
X10610000Y-5857956D01*
X10610000Y-5907956D01*
X10612917Y-5915000D01*
X10610000Y-5922043D01*
X10610000Y-5937956D01*
X10610000Y-5965147D01*
X10599135Y-5976013D01*
X10590000Y-5998065D01*
X10590000Y-6007500D01*
X10605000Y-6022500D01*
X10760000Y-6022500D01*
X10760000Y-6020000D01*
X10790000Y-6020000D01*
X10790000Y-6022500D01*
X10945000Y-6022500D01*
X10960000Y-6007500D01*
X10960000Y-5998065D01*
X10950866Y-5976013D01*
X10940000Y-5965147D01*
X10940000Y-5922043D01*
X10937083Y-5915000D01*
X10940000Y-5907956D01*
X10940000Y-5892043D01*
X10940000Y-5849035D01*
X10973970Y-5896592D01*
X10976381Y-5902429D01*
X10984062Y-5910122D01*
X11030728Y-5968218D01*
X11033881Y-5970862D01*
X11036167Y-5974283D01*
X11056667Y-5994783D01*
X11080999Y-6011041D01*
X11080999Y-6011041D01*
X11087843Y-6012402D01*
X11090290Y-6018308D01*
X11101542Y-6029560D01*
X11116244Y-6035650D01*
X11132157Y-6035650D01*
X11190800Y-6035650D01*
X11225800Y-6035650D01*
X11233756Y-6035650D01*
X11265000Y-6035650D01*
X11265000Y-6042956D01*
X11271090Y-6057658D01*
X11282342Y-6068910D01*
X11297043Y-6075000D01*
X11312956Y-6075000D01*
X11410000Y-6075000D01*
X11445000Y-6075000D01*
X11445539Y-6075000D01*
X11601083Y-6134986D01*
X11607808Y-6136153D01*
X11614139Y-6138705D01*
X11885493Y-6190000D01*
X11842043Y-6190000D01*
X11827342Y-6196090D01*
X11816090Y-6207342D01*
X11810000Y-6222043D01*
X11810000Y-6237956D01*
X11810000Y-6325149D01*
X11804645Y-6330505D01*
X11804371Y-6330914D01*
X11803966Y-6331196D01*
X11790000Y-6345715D01*
X11790000Y-6222043D01*
X11783910Y-6207342D01*
X11772658Y-6196090D01*
X11757956Y-6190000D01*
X11742043Y-6190000D01*
X11632043Y-6190000D01*
X11617342Y-6196090D01*
X11606090Y-6207342D01*
X11600000Y-6222043D01*
X11600000Y-6237956D01*
X11600000Y-6377956D01*
X11606090Y-6392658D01*
X11617342Y-6403910D01*
X11632043Y-6410000D01*
X11647043Y-6410000D01*
X11632342Y-6416090D01*
X11621090Y-6427342D01*
X11615000Y-6442043D01*
X11615000Y-6457956D01*
X11615000Y-6557956D01*
X11621090Y-6572658D01*
X11632342Y-6583910D01*
X11647043Y-6590000D01*
X11662956Y-6590000D01*
X11695009Y-6590000D01*
X11694987Y-6614853D01*
X11706381Y-6642429D01*
X11727460Y-6663545D01*
X11755016Y-6674987D01*
X11784853Y-6675013D01*
X11812429Y-6663619D01*
X11833545Y-6642539D01*
X11844987Y-6614984D01*
X11845009Y-6590000D01*
X11902956Y-6590000D01*
X11917658Y-6583910D01*
X11928910Y-6572658D01*
X11935000Y-6557956D01*
X11935000Y-6542043D01*
X11935000Y-6506075D01*
X11944453Y-6506083D01*
X11972029Y-6494689D01*
X11981268Y-6485465D01*
X11982452Y-6491416D01*
X11984921Y-6503848D01*
X11984928Y-6503864D01*
X11984928Y-6503864D01*
X11986291Y-6507158D01*
X11987136Y-6508423D01*
X11987501Y-6509900D01*
X12039598Y-6620984D01*
X12035016Y-6632019D01*
X12034984Y-6667824D01*
X12048657Y-6700914D01*
X12050240Y-6702500D01*
X10960000Y-6702500D01*
X10960000Y-6071935D01*
X10960000Y-6062500D01*
X10945000Y-6047500D01*
X10790000Y-6047500D01*
X10790000Y-6105000D01*
X10805000Y-6120000D01*
X10911935Y-6120000D01*
X10933987Y-6110866D01*
X10950866Y-6093987D01*
X10960000Y-6071935D01*
X10960000Y-6702500D01*
X10760000Y-6702500D01*
X10760000Y-6105000D01*
X10760000Y-6047500D01*
X10605000Y-6047500D01*
X10599582Y-6052918D01*
X10597102Y-6046914D01*
X10573212Y-6022983D01*
X10541982Y-6010015D01*
X10508167Y-6009985D01*
X10496030Y-6015000D01*
X10434000Y-6015000D01*
X10434000Y-6022000D01*
X10404000Y-6022000D01*
X10404000Y-6015000D01*
X10389003Y-6015000D01*
X10376987Y-6010010D01*
X10353118Y-6009990D01*
X10340991Y-6015000D01*
X10306500Y-6015000D01*
X10291500Y-6030000D01*
X10291500Y-6036935D01*
X10300635Y-6058987D01*
X10305006Y-6063358D01*
X10304990Y-6081882D01*
X10314105Y-6103943D01*
X10330968Y-6120836D01*
X10353013Y-6129990D01*
X10376882Y-6130010D01*
X10398943Y-6120895D01*
X10415836Y-6104032D01*
X10423739Y-6085000D01*
X10425010Y-6085000D01*
X10434000Y-6085000D01*
X10434000Y-6070000D01*
X10440603Y-6076603D01*
X10440015Y-6078018D01*
X10439985Y-6111833D01*
X10452899Y-6143086D01*
X10476789Y-6167017D01*
X10508018Y-6179985D01*
X10541833Y-6180015D01*
X10573086Y-6167101D01*
X10597017Y-6143211D01*
X10609985Y-6111982D01*
X10609991Y-6104844D01*
X10616013Y-6110866D01*
X10638065Y-6120000D01*
X10745000Y-6120000D01*
X10760000Y-6105000D01*
X10760000Y-6702500D01*
X10425010Y-6702500D01*
X10286546Y-6702500D01*
X10286546Y-6617356D01*
X10282794Y-6563780D01*
X10269511Y-6531712D01*
X10246679Y-6524535D01*
X10225465Y-6545748D01*
X10225465Y-6503321D01*
X10218288Y-6480489D01*
X10167356Y-6463454D01*
X10113780Y-6467206D01*
X10081712Y-6480489D01*
X10074535Y-6503321D01*
X10150000Y-6578787D01*
X10225465Y-6503321D01*
X10225465Y-6545748D01*
X10171213Y-6600000D01*
X10246679Y-6675465D01*
X10269511Y-6668288D01*
X10286546Y-6617356D01*
X10286546Y-6702500D01*
X10223635Y-6702500D01*
X10225465Y-6696678D01*
X10150000Y-6621213D01*
X10074535Y-6696678D01*
X10076365Y-6702500D01*
X10047500Y-6702500D01*
X10047500Y-6673635D01*
X10053322Y-6675465D01*
X10128787Y-6600000D01*
X10053322Y-6524535D01*
X10047500Y-6526365D01*
X10047500Y-5254069D01*
X10052342Y-5258910D01*
X10067044Y-5265000D01*
X10082957Y-5265000D01*
X10232957Y-5265000D01*
X10247658Y-5258910D01*
X10258910Y-5247658D01*
X10265000Y-5232957D01*
X10265000Y-5217044D01*
X10265000Y-5067044D01*
X10258910Y-5052342D01*
X10254069Y-5047500D01*
X12456436Y-5047500D01*
X12456436Y-5047500D01*
G37*
X12456436Y-5047500D02*
X12430622Y-5059963D01*
X12430465Y-5060081D01*
X12430276Y-5060132D01*
X12357879Y-5095773D01*
X12216991Y-5105089D01*
X12215499Y-5105490D01*
X12213958Y-5105383D01*
X12115968Y-5117893D01*
X12115923Y-5117908D01*
X12115875Y-5117905D01*
X12011605Y-5131415D01*
X12011134Y-5131573D01*
X12010637Y-5131550D01*
X11616037Y-5190540D01*
X11610288Y-5192604D01*
X11604296Y-5193796D01*
X11601191Y-5195871D01*
X11597676Y-5197133D01*
X11593154Y-5201240D01*
X11588075Y-5204635D01*
X11564635Y-5228075D01*
X11561615Y-5232594D01*
X11557850Y-5236518D01*
X11556247Y-5240628D01*
X11553796Y-5244296D01*
X11552735Y-5249628D01*
X11550759Y-5254692D01*
X11478152Y-5663789D01*
X11456935Y-5655000D01*
X11433065Y-5655000D01*
X11405000Y-5655000D01*
X11390000Y-5670000D01*
X11390000Y-5755000D01*
X11392000Y-5755000D01*
X11392000Y-5785000D01*
X11390000Y-5785000D01*
X11390000Y-5787000D01*
X11360000Y-5787000D01*
X11360000Y-5785000D01*
X11358000Y-5785000D01*
X11358000Y-5755000D01*
X11360000Y-5755000D01*
X11360000Y-5670000D01*
X11345000Y-5655000D01*
X11316935Y-5655000D01*
X11293065Y-5655000D01*
X11271013Y-5664134D01*
X11254134Y-5681013D01*
X11247017Y-5698195D01*
X11237735Y-5694350D01*
X11213865Y-5694350D01*
X11205000Y-5694350D01*
X11190000Y-5709350D01*
X11190000Y-5783800D01*
X11192000Y-5783800D01*
X11192000Y-5813800D01*
X11190000Y-5813800D01*
X11190000Y-5815800D01*
X11160000Y-5815800D01*
X11160000Y-5813800D01*
X11158000Y-5813800D01*
X11158000Y-5783800D01*
X11160000Y-5783800D01*
X11160000Y-5709350D01*
X11145000Y-5694350D01*
X11136135Y-5694350D01*
X11112265Y-5694350D01*
X11090213Y-5703484D01*
X11073334Y-5720363D01*
X11064200Y-5742415D01*
X11064200Y-5764845D01*
X11056030Y-5753408D01*
X11053619Y-5747571D01*
X11050303Y-5744249D01*
X11030306Y-5708795D01*
X11023670Y-5701073D01*
X11018013Y-5692607D01*
X10979953Y-5654547D01*
X10955621Y-5638289D01*
X10926920Y-5632580D01*
X10910080Y-5632580D01*
X10881379Y-5638289D01*
X10863852Y-5650000D01*
X10775000Y-5650000D01*
X10675000Y-5650000D01*
X10650029Y-5650000D01*
X10627239Y-5649990D01*
X10622459Y-5650939D01*
X10617591Y-5650706D01*
X10610003Y-5651841D01*
X10610015Y-5638167D01*
X10597102Y-5606914D01*
X10573212Y-5582983D01*
X10541982Y-5570015D01*
X10508167Y-5569985D01*
X10476914Y-5582899D01*
X10452983Y-5606788D01*
X10440015Y-5638018D01*
X10439985Y-5671833D01*
X10445426Y-5685000D01*
X10424996Y-5685000D01*
X10425010Y-5668118D01*
X10415895Y-5646057D01*
X10399032Y-5629164D01*
X10376987Y-5620010D01*
X10353118Y-5619990D01*
X10331057Y-5629105D01*
X10314164Y-5645968D01*
X10305010Y-5668013D01*
X10304990Y-5691882D01*
X10313445Y-5712347D01*
X10311500Y-5717043D01*
X10311500Y-5732956D01*
X10311500Y-5772956D01*
X10313382Y-5777500D01*
X10311500Y-5782043D01*
X10311500Y-5797956D01*
X10311500Y-5837956D01*
X10313382Y-5842500D01*
X10311500Y-5847043D01*
X10311500Y-5862956D01*
X10311500Y-5902956D01*
X10313382Y-5907500D01*
X10311500Y-5912043D01*
X10311500Y-5927956D01*
X10311500Y-5940147D01*
X10300635Y-5951013D01*
X10291500Y-5973065D01*
X10291500Y-5980000D01*
X10306500Y-5995000D01*
X10331472Y-5995000D01*
X10343544Y-6000000D01*
X10359457Y-6000000D01*
X10494457Y-6000000D01*
X10506528Y-5995000D01*
X10531500Y-5995000D01*
X10546500Y-5980000D01*
X10546500Y-5973065D01*
X10537366Y-5951013D01*
X10526500Y-5940147D01*
X10526500Y-5912043D01*
X10524618Y-5907500D01*
X10526500Y-5902956D01*
X10526500Y-5887043D01*
X10526500Y-5847043D01*
X10524618Y-5842500D01*
X10526500Y-5837956D01*
X10526500Y-5822043D01*
X10526500Y-5795783D01*
X10610000Y-5783289D01*
X10610000Y-5827956D01*
X10612917Y-5835000D01*
X10610000Y-5842043D01*
X10610000Y-5857956D01*
X10610000Y-5907956D01*
X10612917Y-5915000D01*
X10610000Y-5922043D01*
X10610000Y-5937956D01*
X10610000Y-5965147D01*
X10599135Y-5976013D01*
X10590000Y-5998065D01*
X10590000Y-6007500D01*
X10605000Y-6022500D01*
X10760000Y-6022500D01*
X10760000Y-6020000D01*
X10790000Y-6020000D01*
X10790000Y-6022500D01*
X10945000Y-6022500D01*
X10960000Y-6007500D01*
X10960000Y-5998065D01*
X10950866Y-5976013D01*
X10940000Y-5965147D01*
X10940000Y-5922043D01*
X10937083Y-5915000D01*
X10940000Y-5907956D01*
X10940000Y-5892043D01*
X10940000Y-5849035D01*
X10973970Y-5896592D01*
X10976381Y-5902429D01*
X10984062Y-5910122D01*
X11030728Y-5968218D01*
X11033881Y-5970862D01*
X11036167Y-5974283D01*
X11056667Y-5994783D01*
X11080999Y-6011041D01*
X11080999Y-6011041D01*
X11087843Y-6012402D01*
X11090290Y-6018308D01*
X11101542Y-6029560D01*
X11116244Y-6035650D01*
X11132157Y-6035650D01*
X11190800Y-6035650D01*
X11225800Y-6035650D01*
X11233756Y-6035650D01*
X11265000Y-6035650D01*
X11265000Y-6042956D01*
X11271090Y-6057658D01*
X11282342Y-6068910D01*
X11297043Y-6075000D01*
X11312956Y-6075000D01*
X11410000Y-6075000D01*
X11445000Y-6075000D01*
X11445539Y-6075000D01*
X11601083Y-6134986D01*
X11607808Y-6136153D01*
X11614139Y-6138705D01*
X11885493Y-6190000D01*
X11842043Y-6190000D01*
X11827342Y-6196090D01*
X11816090Y-6207342D01*
X11810000Y-6222043D01*
X11810000Y-6237956D01*
X11810000Y-6325149D01*
X11804645Y-6330505D01*
X11804371Y-6330914D01*
X11803966Y-6331196D01*
X11790000Y-6345715D01*
X11790000Y-6222043D01*
X11783910Y-6207342D01*
X11772658Y-6196090D01*
X11757956Y-6190000D01*
X11742043Y-6190000D01*
X11632043Y-6190000D01*
X11617342Y-6196090D01*
X11606090Y-6207342D01*
X11600000Y-6222043D01*
X11600000Y-6237956D01*
X11600000Y-6377956D01*
X11606090Y-6392658D01*
X11617342Y-6403910D01*
X11632043Y-6410000D01*
X11647043Y-6410000D01*
X11632342Y-6416090D01*
X11621090Y-6427342D01*
X11615000Y-6442043D01*
X11615000Y-6457956D01*
X11615000Y-6557956D01*
X11621090Y-6572658D01*
X11632342Y-6583910D01*
X11647043Y-6590000D01*
X11662956Y-6590000D01*
X11695009Y-6590000D01*
X11694987Y-6614853D01*
X11706381Y-6642429D01*
X11727460Y-6663545D01*
X11755016Y-6674987D01*
X11784853Y-6675013D01*
X11812429Y-6663619D01*
X11833545Y-6642539D01*
X11844987Y-6614984D01*
X11845009Y-6590000D01*
X11902956Y-6590000D01*
X11917658Y-6583910D01*
X11928910Y-6572658D01*
X11935000Y-6557956D01*
X11935000Y-6542043D01*
X11935000Y-6506075D01*
X11944453Y-6506083D01*
X11972029Y-6494689D01*
X11981268Y-6485465D01*
X11982452Y-6491416D01*
X11984921Y-6503848D01*
X11984928Y-6503864D01*
X11984928Y-6503864D01*
X11986291Y-6507158D01*
X11987136Y-6508423D01*
X11987501Y-6509900D01*
X12039598Y-6620984D01*
X12035016Y-6632019D01*
X12034984Y-6667824D01*
X12048657Y-6700914D01*
X12050240Y-6702500D01*
X10960000Y-6702500D01*
X10960000Y-6071935D01*
X10960000Y-6062500D01*
X10945000Y-6047500D01*
X10790000Y-6047500D01*
X10790000Y-6105000D01*
X10805000Y-6120000D01*
X10911935Y-6120000D01*
X10933987Y-6110866D01*
X10950866Y-6093987D01*
X10960000Y-6071935D01*
X10960000Y-6702500D01*
X10760000Y-6702500D01*
X10760000Y-6105000D01*
X10760000Y-6047500D01*
X10605000Y-6047500D01*
X10599582Y-6052918D01*
X10597102Y-6046914D01*
X10573212Y-6022983D01*
X10541982Y-6010015D01*
X10508167Y-6009985D01*
X10496030Y-6015000D01*
X10434000Y-6015000D01*
X10434000Y-6022000D01*
X10404000Y-6022000D01*
X10404000Y-6015000D01*
X10389003Y-6015000D01*
X10376987Y-6010010D01*
X10353118Y-6009990D01*
X10340991Y-6015000D01*
X10306500Y-6015000D01*
X10291500Y-6030000D01*
X10291500Y-6036935D01*
X10300635Y-6058987D01*
X10305006Y-6063358D01*
X10304990Y-6081882D01*
X10314105Y-6103943D01*
X10330968Y-6120836D01*
X10353013Y-6129990D01*
X10376882Y-6130010D01*
X10398943Y-6120895D01*
X10415836Y-6104032D01*
X10423739Y-6085000D01*
X10425010Y-6085000D01*
X10434000Y-6085000D01*
X10434000Y-6070000D01*
X10440603Y-6076603D01*
X10440015Y-6078018D01*
X10439985Y-6111833D01*
X10452899Y-6143086D01*
X10476789Y-6167017D01*
X10508018Y-6179985D01*
X10541833Y-6180015D01*
X10573086Y-6167101D01*
X10597017Y-6143211D01*
X10609985Y-6111982D01*
X10609991Y-6104844D01*
X10616013Y-6110866D01*
X10638065Y-6120000D01*
X10745000Y-6120000D01*
X10760000Y-6105000D01*
X10760000Y-6702500D01*
X10425010Y-6702500D01*
X10286546Y-6702500D01*
X10286546Y-6617356D01*
X10282794Y-6563780D01*
X10269511Y-6531712D01*
X10246679Y-6524535D01*
X10225465Y-6545748D01*
X10225465Y-6503321D01*
X10218288Y-6480489D01*
X10167356Y-6463454D01*
X10113780Y-6467206D01*
X10081712Y-6480489D01*
X10074535Y-6503321D01*
X10150000Y-6578787D01*
X10225465Y-6503321D01*
X10225465Y-6545748D01*
X10171213Y-6600000D01*
X10246679Y-6675465D01*
X10269511Y-6668288D01*
X10286546Y-6617356D01*
X10286546Y-6702500D01*
X10223635Y-6702500D01*
X10225465Y-6696678D01*
X10150000Y-6621213D01*
X10074535Y-6696678D01*
X10076365Y-6702500D01*
X10047500Y-6702500D01*
X10047500Y-6673635D01*
X10053322Y-6675465D01*
X10128787Y-6600000D01*
X10053322Y-6524535D01*
X10047500Y-6526365D01*
X10047500Y-5254069D01*
X10052342Y-5258910D01*
X10067044Y-5265000D01*
X10082957Y-5265000D01*
X10232957Y-5265000D01*
X10247658Y-5258910D01*
X10258910Y-5247658D01*
X10265000Y-5232957D01*
X10265000Y-5217044D01*
X10265000Y-5067044D01*
X10258910Y-5052342D01*
X10254069Y-5047500D01*
X12456436Y-5047500D01*
G36*
X12549901Y-5613477D02*
X12468703Y-5514204D01*
X12466756Y-5512601D01*
X12465355Y-5510505D01*
X12460000Y-5505149D01*
X12460000Y-5442044D01*
X12453910Y-5427342D01*
X12442658Y-5416090D01*
X12433992Y-5412500D01*
X12442658Y-5408910D01*
X12453910Y-5397658D01*
X12460000Y-5382957D01*
X12460000Y-5377957D01*
X12466090Y-5392658D01*
X12477342Y-5403910D01*
X12492043Y-5410000D01*
X12507956Y-5410000D01*
X12541447Y-5410000D01*
X12549901Y-5613477D01*
X12549901Y-5613477D01*
G37*
X12549901Y-5613477D02*
X12468703Y-5514204D01*
X12466756Y-5512601D01*
X12465355Y-5510505D01*
X12460000Y-5505149D01*
X12460000Y-5442044D01*
X12453910Y-5427342D01*
X12442658Y-5416090D01*
X12433992Y-5412500D01*
X12442658Y-5408910D01*
X12453910Y-5397658D01*
X12460000Y-5382957D01*
X12460000Y-5377957D01*
X12466090Y-5392658D01*
X12477342Y-5403910D01*
X12492043Y-5410000D01*
X12507956Y-5410000D01*
X12541447Y-5410000D01*
X12549901Y-5613477D01*
G36*
X12948431Y-6525000D02*
X12941090Y-6532342D01*
X12935000Y-6547043D01*
X12935000Y-6557219D01*
X12810000Y-6567503D01*
X12683467Y-6577913D01*
X12662391Y-6556801D01*
X12658054Y-6555000D01*
X12665000Y-6555000D01*
X12665000Y-6540000D01*
X12680000Y-6555000D01*
X12688065Y-6555000D01*
X12711935Y-6555000D01*
X12733987Y-6545865D01*
X12737500Y-6542353D01*
X12741013Y-6545865D01*
X12763065Y-6555000D01*
X12786935Y-6555000D01*
X12795000Y-6555000D01*
X12810000Y-6540000D01*
X12810000Y-6465000D01*
X12745000Y-6465000D01*
X12730000Y-6465000D01*
X12665000Y-6465000D01*
X12665000Y-6467000D01*
X12635000Y-6467000D01*
X12635000Y-6465000D01*
X12633000Y-6465000D01*
X12633000Y-6435000D01*
X12635000Y-6435000D01*
X12635000Y-6433000D01*
X12665000Y-6433000D01*
X12665000Y-6435000D01*
X12730000Y-6435000D01*
X12745000Y-6435000D01*
X12810000Y-6435000D01*
X12810000Y-6433000D01*
X12840000Y-6433000D01*
X12840000Y-6435000D01*
X12842000Y-6435000D01*
X12842000Y-6465000D01*
X12840000Y-6465000D01*
X12840000Y-6540000D01*
X12855000Y-6555000D01*
X12863065Y-6555000D01*
X12886935Y-6555000D01*
X12908987Y-6545865D01*
X12925866Y-6528987D01*
X12935000Y-6506935D01*
X12935000Y-6502956D01*
X12941090Y-6517658D01*
X12948431Y-6525000D01*
X12948431Y-6525000D01*
G37*
X12948431Y-6525000D02*
X12941090Y-6532342D01*
X12935000Y-6547043D01*
X12935000Y-6557219D01*
X12810000Y-6567503D01*
X12683467Y-6577913D01*
X12662391Y-6556801D01*
X12658054Y-6555000D01*
X12665000Y-6555000D01*
X12665000Y-6540000D01*
X12680000Y-6555000D01*
X12688065Y-6555000D01*
X12711935Y-6555000D01*
X12733987Y-6545865D01*
X12737500Y-6542353D01*
X12741013Y-6545865D01*
X12763065Y-6555000D01*
X12786935Y-6555000D01*
X12795000Y-6555000D01*
X12810000Y-6540000D01*
X12810000Y-6465000D01*
X12745000Y-6465000D01*
X12730000Y-6465000D01*
X12665000Y-6465000D01*
X12665000Y-6467000D01*
X12635000Y-6467000D01*
X12635000Y-6465000D01*
X12633000Y-6465000D01*
X12633000Y-6435000D01*
X12635000Y-6435000D01*
X12635000Y-6433000D01*
X12665000Y-6433000D01*
X12665000Y-6435000D01*
X12730000Y-6435000D01*
X12745000Y-6435000D01*
X12810000Y-6435000D01*
X12810000Y-6433000D01*
X12840000Y-6433000D01*
X12840000Y-6435000D01*
X12842000Y-6435000D01*
X12842000Y-6465000D01*
X12840000Y-6465000D01*
X12840000Y-6540000D01*
X12855000Y-6555000D01*
X12863065Y-6555000D01*
X12886935Y-6555000D01*
X12908987Y-6545865D01*
X12925866Y-6528987D01*
X12935000Y-6506935D01*
X12935000Y-6502956D01*
X12941090Y-6517658D01*
X12948431Y-6525000D01*
G36*
X12975000Y-5098431D02*
X12972658Y-5096090D01*
X12957956Y-5090000D01*
X12942043Y-5090000D01*
X12842043Y-5090000D01*
X12827342Y-5096090D01*
X12816090Y-5107342D01*
X12812500Y-5116008D01*
X12808910Y-5107342D01*
X12797658Y-5096090D01*
X12782956Y-5090000D01*
X12767043Y-5090000D01*
X12719851Y-5090000D01*
X12714495Y-5084645D01*
X12707497Y-5079969D01*
X12700763Y-5074917D01*
X12643599Y-5047500D01*
X12975000Y-5047500D01*
X12975000Y-5062957D01*
X12975000Y-5098431D01*
X12975000Y-5098431D01*
G37*
X12975000Y-5098431D02*
X12972658Y-5096090D01*
X12957956Y-5090000D01*
X12942043Y-5090000D01*
X12842043Y-5090000D01*
X12827342Y-5096090D01*
X12816090Y-5107342D01*
X12812500Y-5116008D01*
X12808910Y-5107342D01*
X12797658Y-5096090D01*
X12782956Y-5090000D01*
X12767043Y-5090000D01*
X12719851Y-5090000D01*
X12714495Y-5084645D01*
X12707497Y-5079969D01*
X12700763Y-5074917D01*
X12643599Y-5047500D01*
X12975000Y-5047500D01*
X12975000Y-5062957D01*
X12975000Y-5098431D01*
G36*
X13127524Y-5415000D02*
X13114576Y-5456132D01*
X13101755Y-5468931D01*
X13090313Y-5496486D01*
X13090287Y-5526323D01*
X13090315Y-5526391D01*
X13084655Y-5532041D01*
X13073213Y-5559596D01*
X13073207Y-5566454D01*
X13062868Y-5580336D01*
X13051979Y-5603241D01*
X13050995Y-5622500D01*
X13027500Y-5622500D01*
X13027500Y-5554691D01*
X13032437Y-5541344D01*
X13044865Y-5528915D01*
X13045612Y-5527798D01*
X13046689Y-5526992D01*
X13051007Y-5519723D01*
X13055704Y-5512694D01*
X13055966Y-5511376D01*
X13056653Y-5510220D01*
X13087143Y-5423940D01*
X13088351Y-5415571D01*
X13088464Y-5415000D01*
X13127524Y-5415000D01*
X13127524Y-5415000D01*
G37*
X13127524Y-5415000D02*
X13114576Y-5456132D01*
X13101755Y-5468931D01*
X13090313Y-5496486D01*
X13090287Y-5526323D01*
X13090315Y-5526391D01*
X13084655Y-5532041D01*
X13073213Y-5559596D01*
X13073207Y-5566454D01*
X13062868Y-5580336D01*
X13051979Y-5603241D01*
X13050995Y-5622500D01*
X13027500Y-5622500D01*
X13027500Y-5554691D01*
X13032437Y-5541344D01*
X13044865Y-5528915D01*
X13045612Y-5527798D01*
X13046689Y-5526992D01*
X13051007Y-5519723D01*
X13055704Y-5512694D01*
X13055966Y-5511376D01*
X13056653Y-5510220D01*
X13087143Y-5423940D01*
X13088351Y-5415571D01*
X13088464Y-5415000D01*
X13127524Y-5415000D01*
G36*
X13740710Y-6447500D02*
X13736186Y-6449051D01*
X13734130Y-6450245D01*
X13731799Y-6450709D01*
X13721546Y-6457559D01*
X13710885Y-6463756D01*
X13709443Y-6465646D01*
X13707467Y-6466967D01*
X13686967Y-6487467D01*
X13670709Y-6511799D01*
X13670072Y-6515000D01*
X13657043Y-6515000D01*
X13642342Y-6521090D01*
X13631090Y-6532342D01*
X13625000Y-6547043D01*
X13625000Y-6562500D01*
X13585425Y-6562500D01*
X13584291Y-6556799D01*
X13584291Y-6556799D01*
X13568033Y-6532467D01*
X13547533Y-6511967D01*
X13540581Y-6507322D01*
X13534517Y-6501568D01*
X13486947Y-6471558D01*
X13480868Y-6469225D01*
X13475444Y-6465622D01*
X13431359Y-6447500D01*
X13740710Y-6447500D01*
X13740710Y-6447500D01*
G37*
X13740710Y-6447500D02*
X13736186Y-6449051D01*
X13734130Y-6450245D01*
X13731799Y-6450709D01*
X13721546Y-6457559D01*
X13710885Y-6463756D01*
X13709443Y-6465646D01*
X13707467Y-6466967D01*
X13686967Y-6487467D01*
X13670709Y-6511799D01*
X13670072Y-6515000D01*
X13657043Y-6515000D01*
X13642342Y-6521090D01*
X13631090Y-6532342D01*
X13625000Y-6547043D01*
X13625000Y-6562500D01*
X13585425Y-6562500D01*
X13584291Y-6556799D01*
X13584291Y-6556799D01*
X13568033Y-6532467D01*
X13547533Y-6511967D01*
X13540581Y-6507322D01*
X13534517Y-6501568D01*
X13486947Y-6471558D01*
X13480868Y-6469225D01*
X13475444Y-6465622D01*
X13431359Y-6447500D01*
X13740710Y-6447500D01*
G36*
X14002400Y-6270995D02*
X13980000Y-6307321D01*
X13980000Y-6199543D01*
X13973910Y-6184842D01*
X13962658Y-6173590D01*
X13947956Y-6167500D01*
X13932043Y-6167500D01*
X13360000Y-6167500D01*
X13310000Y-6167500D01*
X13303861Y-6167500D01*
X13240008Y-6146268D01*
X13225726Y-6144478D01*
X13211610Y-6141670D01*
X13198572Y-6141670D01*
X12955480Y-6059309D01*
X12926793Y-6055550D01*
X12926478Y-6055084D01*
X12927500Y-6049949D01*
X12927500Y-5900051D01*
X12923504Y-5879960D01*
X12912123Y-5862928D01*
X12895091Y-5851547D01*
X12875000Y-5847551D01*
X12854909Y-5851547D01*
X12850000Y-5854827D01*
X12845091Y-5851547D01*
X12825000Y-5847551D01*
X12804909Y-5851547D01*
X12800000Y-5854827D01*
X12795091Y-5851547D01*
X12775000Y-5847551D01*
X12754909Y-5851547D01*
X12737877Y-5862928D01*
X12731315Y-5872748D01*
X12727767Y-5854909D01*
X12724487Y-5850000D01*
X12727767Y-5845091D01*
X12731763Y-5825000D01*
X12727767Y-5804909D01*
X12724487Y-5800000D01*
X12727767Y-5795091D01*
X12731763Y-5775000D01*
X12727767Y-5754909D01*
X12724487Y-5750000D01*
X12727767Y-5745091D01*
X12729799Y-5734876D01*
X12733860Y-5738945D01*
X12761416Y-5750387D01*
X12791253Y-5750413D01*
X12818829Y-5739019D01*
X12839945Y-5717939D01*
X12851387Y-5690384D01*
X12851400Y-5675422D01*
X12854909Y-5677767D01*
X12875000Y-5681763D01*
X12884084Y-5679956D01*
X12881613Y-5685906D01*
X12881587Y-5715743D01*
X12892981Y-5743319D01*
X12914060Y-5764435D01*
X12916971Y-5765643D01*
X12923549Y-5804018D01*
X12925542Y-5809216D01*
X12926625Y-5814678D01*
X12927350Y-5816431D01*
X12927350Y-5843700D01*
X12931156Y-5862834D01*
X12941995Y-5879055D01*
X12968445Y-5905505D01*
X12971354Y-5907449D01*
X12973681Y-5910061D01*
X12979392Y-5912820D01*
X12984666Y-5916344D01*
X12988097Y-5917026D01*
X12991247Y-5918549D01*
X12994488Y-5919389D01*
X13000646Y-5923504D01*
X13020737Y-5927500D01*
X13098134Y-5927500D01*
X13095013Y-5935016D01*
X13094987Y-5964853D01*
X13106381Y-5992429D01*
X13127460Y-6013545D01*
X13155016Y-6024987D01*
X13184853Y-6025013D01*
X13212429Y-6013619D01*
X13233545Y-5992539D01*
X13244987Y-5964984D01*
X13245013Y-5935147D01*
X13237343Y-5916584D01*
X13245490Y-5921123D01*
X13250485Y-5922734D01*
X13254848Y-5925649D01*
X13267061Y-5928078D01*
X13270000Y-5929026D01*
X13270000Y-6000456D01*
X13276090Y-6015158D01*
X13287342Y-6026410D01*
X13302043Y-6032500D01*
X13317956Y-6032500D01*
X13947956Y-6032500D01*
X13962658Y-6026410D01*
X13973910Y-6015158D01*
X13980000Y-6000456D01*
X13980000Y-5984543D01*
X13980000Y-5784543D01*
X13973910Y-5769842D01*
X13965010Y-5760941D01*
X13965010Y-5721559D01*
X13968910Y-5717658D01*
X13975000Y-5702956D01*
X13975000Y-5687043D01*
X13975000Y-5603976D01*
X13986600Y-5615409D01*
X13986600Y-5623780D01*
X13986600Y-5696736D01*
X13992690Y-5711438D01*
X14000031Y-5718780D01*
X13992690Y-5726122D01*
X13986600Y-5740823D01*
X13986600Y-5756736D01*
X13986600Y-5846736D01*
X13992690Y-5861438D01*
X14000306Y-5869054D01*
X14000302Y-5873129D01*
X13991090Y-5882342D01*
X13985000Y-5897043D01*
X13985000Y-5912956D01*
X13985000Y-6002956D01*
X13991090Y-6017658D01*
X13998431Y-6025000D01*
X13991090Y-6032342D01*
X13985000Y-6047043D01*
X13985000Y-6062956D01*
X13985000Y-6152956D01*
X13991090Y-6167658D01*
X14002342Y-6178910D01*
X14002400Y-6178934D01*
X14002400Y-6270995D01*
X14002400Y-6270995D01*
G37*
X14002400Y-6270995D02*
X13980000Y-6307321D01*
X13980000Y-6199543D01*
X13973910Y-6184842D01*
X13962658Y-6173590D01*
X13947956Y-6167500D01*
X13932043Y-6167500D01*
X13360000Y-6167500D01*
X13310000Y-6167500D01*
X13303861Y-6167500D01*
X13240008Y-6146268D01*
X13225726Y-6144478D01*
X13211610Y-6141670D01*
X13198572Y-6141670D01*
X12955480Y-6059309D01*
X12926793Y-6055550D01*
X12926478Y-6055084D01*
X12927500Y-6049949D01*
X12927500Y-5900051D01*
X12923504Y-5879960D01*
X12912123Y-5862928D01*
X12895091Y-5851547D01*
X12875000Y-5847551D01*
X12854909Y-5851547D01*
X12850000Y-5854827D01*
X12845091Y-5851547D01*
X12825000Y-5847551D01*
X12804909Y-5851547D01*
X12800000Y-5854827D01*
X12795091Y-5851547D01*
X12775000Y-5847551D01*
X12754909Y-5851547D01*
X12737877Y-5862928D01*
X12731315Y-5872748D01*
X12727767Y-5854909D01*
X12724487Y-5850000D01*
X12727767Y-5845091D01*
X12731763Y-5825000D01*
X12727767Y-5804909D01*
X12724487Y-5800000D01*
X12727767Y-5795091D01*
X12731763Y-5775000D01*
X12727767Y-5754909D01*
X12724487Y-5750000D01*
X12727767Y-5745091D01*
X12729799Y-5734876D01*
X12733860Y-5738945D01*
X12761416Y-5750387D01*
X12791253Y-5750413D01*
X12818829Y-5739019D01*
X12839945Y-5717939D01*
X12851387Y-5690384D01*
X12851400Y-5675422D01*
X12854909Y-5677767D01*
X12875000Y-5681763D01*
X12884084Y-5679956D01*
X12881613Y-5685906D01*
X12881587Y-5715743D01*
X12892981Y-5743319D01*
X12914060Y-5764435D01*
X12916971Y-5765643D01*
X12923549Y-5804018D01*
X12925542Y-5809216D01*
X12926625Y-5814678D01*
X12927350Y-5816431D01*
X12927350Y-5843700D01*
X12931156Y-5862834D01*
X12941995Y-5879055D01*
X12968445Y-5905505D01*
X12971354Y-5907449D01*
X12973681Y-5910061D01*
X12979392Y-5912820D01*
X12984666Y-5916344D01*
X12988097Y-5917026D01*
X12991247Y-5918549D01*
X12994488Y-5919389D01*
X13000646Y-5923504D01*
X13020737Y-5927500D01*
X13098134Y-5927500D01*
X13095013Y-5935016D01*
X13094987Y-5964853D01*
X13106381Y-5992429D01*
X13127460Y-6013545D01*
X13155016Y-6024987D01*
X13184853Y-6025013D01*
X13212429Y-6013619D01*
X13233545Y-5992539D01*
X13244987Y-5964984D01*
X13245013Y-5935147D01*
X13237343Y-5916584D01*
X13245490Y-5921123D01*
X13250485Y-5922734D01*
X13254848Y-5925649D01*
X13267061Y-5928078D01*
X13270000Y-5929026D01*
X13270000Y-6000456D01*
X13276090Y-6015158D01*
X13287342Y-6026410D01*
X13302043Y-6032500D01*
X13317956Y-6032500D01*
X13947956Y-6032500D01*
X13962658Y-6026410D01*
X13973910Y-6015158D01*
X13980000Y-6000456D01*
X13980000Y-5984543D01*
X13980000Y-5784543D01*
X13973910Y-5769842D01*
X13965010Y-5760941D01*
X13965010Y-5721559D01*
X13968910Y-5717658D01*
X13975000Y-5702956D01*
X13975000Y-5687043D01*
X13975000Y-5603976D01*
X13986600Y-5615409D01*
X13986600Y-5623780D01*
X13986600Y-5696736D01*
X13992690Y-5711438D01*
X14000031Y-5718780D01*
X13992690Y-5726122D01*
X13986600Y-5740823D01*
X13986600Y-5756736D01*
X13986600Y-5846736D01*
X13992690Y-5861438D01*
X14000306Y-5869054D01*
X14000302Y-5873129D01*
X13991090Y-5882342D01*
X13985000Y-5897043D01*
X13985000Y-5912956D01*
X13985000Y-6002956D01*
X13991090Y-6017658D01*
X13998431Y-6025000D01*
X13991090Y-6032342D01*
X13985000Y-6047043D01*
X13985000Y-6062956D01*
X13985000Y-6152956D01*
X13991090Y-6167658D01*
X14002342Y-6178910D01*
X14002400Y-6178934D01*
X14002400Y-6270995D01*
G36*
X14602500Y-5123000D02*
X14592043Y-5123000D01*
X14442043Y-5123000D01*
X14427342Y-5129090D01*
X14416090Y-5140342D01*
X14410000Y-5155044D01*
X14410000Y-5156500D01*
X13975000Y-5156500D01*
X13975000Y-5147044D01*
X13968910Y-5132342D01*
X13957658Y-5121090D01*
X13942956Y-5115000D01*
X13927043Y-5115000D01*
X13817043Y-5115000D01*
X13802342Y-5121090D01*
X13791090Y-5132342D01*
X13785000Y-5147044D01*
X13785000Y-5143065D01*
X13775865Y-5121013D01*
X13758987Y-5104134D01*
X13736935Y-5095000D01*
X13700000Y-5095000D01*
X13685000Y-5110000D01*
X13685000Y-5210000D01*
X13687000Y-5210000D01*
X13687000Y-5240000D01*
X13685000Y-5240000D01*
X13685000Y-5340000D01*
X13700000Y-5355000D01*
X13733394Y-5355000D01*
X13655000Y-5461524D01*
X13655000Y-5340000D01*
X13655000Y-5240000D01*
X13655000Y-5210000D01*
X13655000Y-5110000D01*
X13640000Y-5095000D01*
X13603065Y-5095000D01*
X13581013Y-5104134D01*
X13564134Y-5121013D01*
X13555000Y-5143065D01*
X13555000Y-5166935D01*
X13555000Y-5195000D01*
X13570000Y-5210000D01*
X13655000Y-5210000D01*
X13655000Y-5240000D01*
X13570000Y-5240000D01*
X13555000Y-5255000D01*
X13555000Y-5283065D01*
X13555000Y-5306935D01*
X13564134Y-5328987D01*
X13581013Y-5345866D01*
X13603065Y-5355000D01*
X13640000Y-5355000D01*
X13655000Y-5340000D01*
X13655000Y-5461524D01*
X13629594Y-5496046D01*
X13625747Y-5504258D01*
X13620709Y-5511799D01*
X13620072Y-5515000D01*
X13607043Y-5515000D01*
X13592342Y-5521090D01*
X13581090Y-5532342D01*
X13575000Y-5547044D01*
X13575000Y-5562957D01*
X13575000Y-5565000D01*
X13481659Y-5565000D01*
X13485000Y-5556935D01*
X13485000Y-5530000D01*
X13485000Y-5470000D01*
X13485000Y-5443065D01*
X13475866Y-5421013D01*
X13458987Y-5404135D01*
X13436935Y-5395000D01*
X13413065Y-5395000D01*
X13405000Y-5395000D01*
X13390000Y-5410000D01*
X13390000Y-5485000D01*
X13470000Y-5485000D01*
X13485000Y-5470000D01*
X13485000Y-5530000D01*
X13470000Y-5515000D01*
X13390000Y-5515000D01*
X13390000Y-5517000D01*
X13360000Y-5517000D01*
X13360000Y-5515000D01*
X13280000Y-5515000D01*
X13265000Y-5530000D01*
X13265000Y-5556935D01*
X13274134Y-5578987D01*
X13283155Y-5588007D01*
X13220316Y-5596477D01*
X13223187Y-5589564D01*
X13223213Y-5559727D01*
X13223185Y-5559659D01*
X13228845Y-5554010D01*
X13240287Y-5526454D01*
X13240313Y-5496617D01*
X13239069Y-5493605D01*
X13263814Y-5415000D01*
X13277956Y-5415000D01*
X13281696Y-5413451D01*
X13274134Y-5421013D01*
X13265000Y-5443065D01*
X13265000Y-5470000D01*
X13280000Y-5485000D01*
X13360000Y-5485000D01*
X13360000Y-5410000D01*
X13345000Y-5395000D01*
X13336935Y-5395000D01*
X13313065Y-5395000D01*
X13301975Y-5399594D01*
X13303910Y-5397658D01*
X13310000Y-5382957D01*
X13310000Y-5367044D01*
X13310000Y-5356868D01*
X13326322Y-5345962D01*
X13340962Y-5331322D01*
X13347857Y-5321002D01*
X13351942Y-5315000D01*
X13370965Y-5315000D01*
X13395016Y-5324987D01*
X13424853Y-5325013D01*
X13452429Y-5313619D01*
X13473545Y-5292540D01*
X13484987Y-5264984D01*
X13485013Y-5235147D01*
X13473619Y-5207571D01*
X13452539Y-5186455D01*
X13424984Y-5175013D01*
X13395147Y-5174987D01*
X13375000Y-5183312D01*
X13375000Y-5170000D01*
X13375000Y-5047500D01*
X14602500Y-5047500D01*
X14602500Y-5123000D01*
X14602500Y-5123000D01*
G37*
X14602500Y-5123000D02*
X14592043Y-5123000D01*
X14442043Y-5123000D01*
X14427342Y-5129090D01*
X14416090Y-5140342D01*
X14410000Y-5155044D01*
X14410000Y-5156500D01*
X13975000Y-5156500D01*
X13975000Y-5147044D01*
X13968910Y-5132342D01*
X13957658Y-5121090D01*
X13942956Y-5115000D01*
X13927043Y-5115000D01*
X13817043Y-5115000D01*
X13802342Y-5121090D01*
X13791090Y-5132342D01*
X13785000Y-5147044D01*
X13785000Y-5143065D01*
X13775865Y-5121013D01*
X13758987Y-5104134D01*
X13736935Y-5095000D01*
X13700000Y-5095000D01*
X13685000Y-5110000D01*
X13685000Y-5210000D01*
X13687000Y-5210000D01*
X13687000Y-5240000D01*
X13685000Y-5240000D01*
X13685000Y-5340000D01*
X13700000Y-5355000D01*
X13733394Y-5355000D01*
X13655000Y-5461524D01*
X13655000Y-5340000D01*
X13655000Y-5240000D01*
X13655000Y-5210000D01*
X13655000Y-5110000D01*
X13640000Y-5095000D01*
X13603065Y-5095000D01*
X13581013Y-5104134D01*
X13564134Y-5121013D01*
X13555000Y-5143065D01*
X13555000Y-5166935D01*
X13555000Y-5195000D01*
X13570000Y-5210000D01*
X13655000Y-5210000D01*
X13655000Y-5240000D01*
X13570000Y-5240000D01*
X13555000Y-5255000D01*
X13555000Y-5283065D01*
X13555000Y-5306935D01*
X13564134Y-5328987D01*
X13581013Y-5345866D01*
X13603065Y-5355000D01*
X13640000Y-5355000D01*
X13655000Y-5340000D01*
X13655000Y-5461524D01*
X13629594Y-5496046D01*
X13625747Y-5504258D01*
X13620709Y-5511799D01*
X13620072Y-5515000D01*
X13607043Y-5515000D01*
X13592342Y-5521090D01*
X13581090Y-5532342D01*
X13575000Y-5547044D01*
X13575000Y-5562957D01*
X13575000Y-5565000D01*
X13481659Y-5565000D01*
X13485000Y-5556935D01*
X13485000Y-5530000D01*
X13485000Y-5470000D01*
X13485000Y-5443065D01*
X13475866Y-5421013D01*
X13458987Y-5404135D01*
X13436935Y-5395000D01*
X13413065Y-5395000D01*
X13405000Y-5395000D01*
X13390000Y-5410000D01*
X13390000Y-5485000D01*
X13470000Y-5485000D01*
X13485000Y-5470000D01*
X13485000Y-5530000D01*
X13470000Y-5515000D01*
X13390000Y-5515000D01*
X13390000Y-5517000D01*
X13360000Y-5517000D01*
X13360000Y-5515000D01*
X13280000Y-5515000D01*
X13265000Y-5530000D01*
X13265000Y-5556935D01*
X13274134Y-5578987D01*
X13283155Y-5588007D01*
X13220316Y-5596477D01*
X13223187Y-5589564D01*
X13223213Y-5559727D01*
X13223185Y-5559659D01*
X13228845Y-5554010D01*
X13240287Y-5526454D01*
X13240313Y-5496617D01*
X13239069Y-5493605D01*
X13263814Y-5415000D01*
X13277956Y-5415000D01*
X13281696Y-5413451D01*
X13274134Y-5421013D01*
X13265000Y-5443065D01*
X13265000Y-5470000D01*
X13280000Y-5485000D01*
X13360000Y-5485000D01*
X13360000Y-5410000D01*
X13345000Y-5395000D01*
X13336935Y-5395000D01*
X13313065Y-5395000D01*
X13301975Y-5399594D01*
X13303910Y-5397658D01*
X13310000Y-5382957D01*
X13310000Y-5367044D01*
X13310000Y-5356868D01*
X13326322Y-5345962D01*
X13340962Y-5331322D01*
X13347857Y-5321002D01*
X13351942Y-5315000D01*
X13370965Y-5315000D01*
X13395016Y-5324987D01*
X13424853Y-5325013D01*
X13452429Y-5313619D01*
X13473545Y-5292540D01*
X13484987Y-5264984D01*
X13485013Y-5235147D01*
X13473619Y-5207571D01*
X13452539Y-5186455D01*
X13424984Y-5175013D01*
X13395147Y-5174987D01*
X13375000Y-5183312D01*
X13375000Y-5170000D01*
X13375000Y-5047500D01*
X14602500Y-5047500D01*
X14602500Y-5123000D01*
G36*
X14602500Y-5633000D02*
X14600465Y-5633000D01*
X14592043Y-5633000D01*
X14442043Y-5633000D01*
X14427342Y-5639090D01*
X14416090Y-5650342D01*
X14410000Y-5665043D01*
X14410000Y-5680956D01*
X14410000Y-5720890D01*
X14155279Y-5720890D01*
X14153169Y-5718780D01*
X14160510Y-5711438D01*
X14166600Y-5696736D01*
X14166600Y-5680823D01*
X14166600Y-5590824D01*
X14160510Y-5576122D01*
X14149258Y-5564870D01*
X14134556Y-5558780D01*
X14118643Y-5558780D01*
X14108468Y-5558780D01*
X14097562Y-5542458D01*
X14082922Y-5527818D01*
X14082723Y-5527685D01*
X14082589Y-5527487D01*
X14026586Y-5472288D01*
X14016919Y-5448891D01*
X13995839Y-5427775D01*
X13968284Y-5416333D01*
X13938447Y-5416307D01*
X13910871Y-5427701D01*
X13889755Y-5448781D01*
X13878313Y-5476336D01*
X13878287Y-5506173D01*
X13881934Y-5515000D01*
X13817043Y-5515000D01*
X13802342Y-5521090D01*
X13791090Y-5532342D01*
X13785000Y-5547044D01*
X13785000Y-5562957D01*
X13785000Y-5702956D01*
X13785010Y-5702981D01*
X13785010Y-5752500D01*
X13360000Y-5752500D01*
X13312667Y-5752500D01*
X13287931Y-5738720D01*
X13315531Y-5735000D01*
X13317043Y-5735000D01*
X13325000Y-5735000D01*
X13332956Y-5735000D01*
X13360000Y-5735000D01*
X13432956Y-5735000D01*
X13447658Y-5728910D01*
X13458910Y-5717658D01*
X13460011Y-5715000D01*
X13579988Y-5715000D01*
X13581090Y-5717658D01*
X13592342Y-5728910D01*
X13607043Y-5735000D01*
X13622956Y-5735000D01*
X13732956Y-5735000D01*
X13747658Y-5728910D01*
X13758910Y-5717658D01*
X13765000Y-5702956D01*
X13765000Y-5687043D01*
X13765000Y-5590000D01*
X13765000Y-5565123D01*
X13920405Y-5353954D01*
X13924252Y-5345742D01*
X13929291Y-5338201D01*
X13929928Y-5335000D01*
X13942956Y-5335000D01*
X13957658Y-5328910D01*
X13968910Y-5317658D01*
X13973532Y-5306500D01*
X14410000Y-5306500D01*
X14410000Y-5320957D01*
X14416090Y-5335658D01*
X14427342Y-5346910D01*
X14442043Y-5353000D01*
X14457956Y-5353000D01*
X14602500Y-5353000D01*
X14602500Y-5393287D01*
X14600465Y-5395321D01*
X14593288Y-5372490D01*
X14542356Y-5355454D01*
X14488780Y-5359206D01*
X14456712Y-5372490D01*
X14449535Y-5395322D01*
X14525000Y-5470787D01*
X14526414Y-5469373D01*
X14547627Y-5490586D01*
X14546213Y-5492000D01*
X14547627Y-5493414D01*
X14526414Y-5514627D01*
X14525000Y-5513213D01*
X14503787Y-5534426D01*
X14503787Y-5492000D01*
X14428321Y-5416535D01*
X14405489Y-5423712D01*
X14388454Y-5474644D01*
X14392206Y-5528220D01*
X14405489Y-5560288D01*
X14428321Y-5567465D01*
X14503787Y-5492000D01*
X14503787Y-5534426D01*
X14449535Y-5588679D01*
X14456712Y-5611510D01*
X14507644Y-5628546D01*
X14561220Y-5624794D01*
X14593288Y-5611510D01*
X14600465Y-5588679D01*
X14600465Y-5588679D01*
X14602500Y-5590714D01*
X14602500Y-5633000D01*
X14602500Y-5633000D01*
G37*
X14602500Y-5633000D02*
X14600465Y-5633000D01*
X14592043Y-5633000D01*
X14442043Y-5633000D01*
X14427342Y-5639090D01*
X14416090Y-5650342D01*
X14410000Y-5665043D01*
X14410000Y-5680956D01*
X14410000Y-5720890D01*
X14155279Y-5720890D01*
X14153169Y-5718780D01*
X14160510Y-5711438D01*
X14166600Y-5696736D01*
X14166600Y-5680823D01*
X14166600Y-5590824D01*
X14160510Y-5576122D01*
X14149258Y-5564870D01*
X14134556Y-5558780D01*
X14118643Y-5558780D01*
X14108468Y-5558780D01*
X14097562Y-5542458D01*
X14082922Y-5527818D01*
X14082723Y-5527685D01*
X14082589Y-5527487D01*
X14026586Y-5472288D01*
X14016919Y-5448891D01*
X13995839Y-5427775D01*
X13968284Y-5416333D01*
X13938447Y-5416307D01*
X13910871Y-5427701D01*
X13889755Y-5448781D01*
X13878313Y-5476336D01*
X13878287Y-5506173D01*
X13881934Y-5515000D01*
X13817043Y-5515000D01*
X13802342Y-5521090D01*
X13791090Y-5532342D01*
X13785000Y-5547044D01*
X13785000Y-5562957D01*
X13785000Y-5702956D01*
X13785010Y-5702981D01*
X13785010Y-5752500D01*
X13360000Y-5752500D01*
X13312667Y-5752500D01*
X13287931Y-5738720D01*
X13315531Y-5735000D01*
X13317043Y-5735000D01*
X13325000Y-5735000D01*
X13332956Y-5735000D01*
X13360000Y-5735000D01*
X13432956Y-5735000D01*
X13447658Y-5728910D01*
X13458910Y-5717658D01*
X13460011Y-5715000D01*
X13579988Y-5715000D01*
X13581090Y-5717658D01*
X13592342Y-5728910D01*
X13607043Y-5735000D01*
X13622956Y-5735000D01*
X13732956Y-5735000D01*
X13747658Y-5728910D01*
X13758910Y-5717658D01*
X13765000Y-5702956D01*
X13765000Y-5687043D01*
X13765000Y-5590000D01*
X13765000Y-5565123D01*
X13920405Y-5353954D01*
X13924252Y-5345742D01*
X13929291Y-5338201D01*
X13929928Y-5335000D01*
X13942956Y-5335000D01*
X13957658Y-5328910D01*
X13968910Y-5317658D01*
X13973532Y-5306500D01*
X14410000Y-5306500D01*
X14410000Y-5320957D01*
X14416090Y-5335658D01*
X14427342Y-5346910D01*
X14442043Y-5353000D01*
X14457956Y-5353000D01*
X14602500Y-5353000D01*
X14602500Y-5393287D01*
X14600465Y-5395321D01*
X14593288Y-5372490D01*
X14542356Y-5355454D01*
X14488780Y-5359206D01*
X14456712Y-5372490D01*
X14449535Y-5395322D01*
X14525000Y-5470787D01*
X14526414Y-5469373D01*
X14547627Y-5490586D01*
X14546213Y-5492000D01*
X14547627Y-5493414D01*
X14526414Y-5514627D01*
X14525000Y-5513213D01*
X14503787Y-5534426D01*
X14503787Y-5492000D01*
X14428321Y-5416535D01*
X14405489Y-5423712D01*
X14388454Y-5474644D01*
X14392206Y-5528220D01*
X14405489Y-5560288D01*
X14428321Y-5567465D01*
X14503787Y-5492000D01*
X14503787Y-5534426D01*
X14449535Y-5588679D01*
X14456712Y-5611510D01*
X14507644Y-5628546D01*
X14561220Y-5624794D01*
X14593288Y-5611510D01*
X14600465Y-5588679D01*
X14600465Y-5588679D01*
X14602500Y-5590714D01*
X14602500Y-5633000D01*
G36*
X14602500Y-6143000D02*
X14592043Y-6143000D01*
X14442043Y-6143000D01*
X14427342Y-6149090D01*
X14416090Y-6160342D01*
X14410000Y-6175043D01*
X14410000Y-6190956D01*
X14410000Y-6217260D01*
X14152400Y-6217260D01*
X14152400Y-6174169D01*
X14158910Y-6167658D01*
X14165000Y-6152956D01*
X14165000Y-6137043D01*
X14165000Y-6047043D01*
X14158910Y-6032342D01*
X14151569Y-6025000D01*
X14158910Y-6017658D01*
X14165000Y-6002956D01*
X14165000Y-5987043D01*
X14165000Y-5897043D01*
X14158910Y-5882342D01*
X14150301Y-5873733D01*
X14150303Y-5871645D01*
X14160510Y-5861438D01*
X14166600Y-5846736D01*
X14166600Y-5830823D01*
X14166600Y-5820890D01*
X14410000Y-5820890D01*
X14410000Y-5830956D01*
X14416090Y-5845658D01*
X14427342Y-5856910D01*
X14442043Y-5863000D01*
X14457956Y-5863000D01*
X14602500Y-5863000D01*
X14602500Y-5916859D01*
X14590227Y-5904565D01*
X14547975Y-5887020D01*
X14502225Y-5886980D01*
X14459943Y-5904451D01*
X14427565Y-5936773D01*
X14410020Y-5979025D01*
X14409980Y-6024775D01*
X14427451Y-6067057D01*
X14459773Y-6099435D01*
X14502025Y-6116980D01*
X14547775Y-6117020D01*
X14590057Y-6099549D01*
X14602500Y-6087128D01*
X14602500Y-6143000D01*
X14602500Y-6143000D01*
G37*
X14602500Y-6143000D02*
X14592043Y-6143000D01*
X14442043Y-6143000D01*
X14427342Y-6149090D01*
X14416090Y-6160342D01*
X14410000Y-6175043D01*
X14410000Y-6190956D01*
X14410000Y-6217260D01*
X14152400Y-6217260D01*
X14152400Y-6174169D01*
X14158910Y-6167658D01*
X14165000Y-6152956D01*
X14165000Y-6137043D01*
X14165000Y-6047043D01*
X14158910Y-6032342D01*
X14151569Y-6025000D01*
X14158910Y-6017658D01*
X14165000Y-6002956D01*
X14165000Y-5987043D01*
X14165000Y-5897043D01*
X14158910Y-5882342D01*
X14150301Y-5873733D01*
X14150303Y-5871645D01*
X14160510Y-5861438D01*
X14166600Y-5846736D01*
X14166600Y-5830823D01*
X14166600Y-5820890D01*
X14410000Y-5820890D01*
X14410000Y-5830956D01*
X14416090Y-5845658D01*
X14427342Y-5856910D01*
X14442043Y-5863000D01*
X14457956Y-5863000D01*
X14602500Y-5863000D01*
X14602500Y-5916859D01*
X14590227Y-5904565D01*
X14547975Y-5887020D01*
X14502225Y-5886980D01*
X14459943Y-5904451D01*
X14427565Y-5936773D01*
X14410020Y-5979025D01*
X14409980Y-6024775D01*
X14427451Y-6067057D01*
X14459773Y-6099435D01*
X14502025Y-6116980D01*
X14547775Y-6117020D01*
X14590057Y-6099549D01*
X14602500Y-6087128D01*
X14602500Y-6143000D01*
G36*
X14602500Y-6702500D02*
X14600465Y-6702500D01*
X14045000Y-6702500D01*
X14045000Y-6683065D01*
X14045000Y-6655000D01*
X14030000Y-6640000D01*
X13945000Y-6640000D01*
X13945000Y-6642000D01*
X13915000Y-6642000D01*
X13915000Y-6640000D01*
X13830000Y-6640000D01*
X13815000Y-6655000D01*
X13815000Y-6595000D01*
X13830000Y-6610000D01*
X13915000Y-6610000D01*
X13915000Y-6608000D01*
X13945000Y-6608000D01*
X13945000Y-6610000D01*
X14030000Y-6610000D01*
X14045000Y-6595000D01*
X14045000Y-6566935D01*
X14045000Y-6543065D01*
X14035865Y-6521013D01*
X14030179Y-6515327D01*
X14058043Y-6487463D01*
X14059723Y-6484949D01*
X14062095Y-6483075D01*
X14067801Y-6472860D01*
X14074301Y-6463131D01*
X14074891Y-6460166D01*
X14076365Y-6457526D01*
X14090466Y-6413963D01*
X14119265Y-6367260D01*
X14428186Y-6367260D01*
X14442043Y-6373000D01*
X14457956Y-6373000D01*
X14602500Y-6373000D01*
X14602500Y-6413286D01*
X14600465Y-6415321D01*
X14593288Y-6392489D01*
X14542356Y-6375454D01*
X14488780Y-6379206D01*
X14456712Y-6392489D01*
X14449535Y-6415321D01*
X14525000Y-6490787D01*
X14526414Y-6489372D01*
X14547627Y-6510586D01*
X14546213Y-6512000D01*
X14547627Y-6513414D01*
X14526414Y-6534627D01*
X14525000Y-6533213D01*
X14503787Y-6554426D01*
X14503787Y-6512000D01*
X14428321Y-6436535D01*
X14405489Y-6443712D01*
X14388454Y-6494644D01*
X14392206Y-6548220D01*
X14405489Y-6580288D01*
X14428321Y-6587465D01*
X14503787Y-6512000D01*
X14503787Y-6554426D01*
X14449535Y-6608678D01*
X14456712Y-6631510D01*
X14507644Y-6648546D01*
X14561220Y-6644794D01*
X14593288Y-6631510D01*
X14600465Y-6608679D01*
X14600465Y-6608679D01*
X14602500Y-6610713D01*
X14602500Y-6702500D01*
X14602500Y-6702500D01*
G37*
X14602500Y-6702500D02*
X14600465Y-6702500D01*
X14045000Y-6702500D01*
X14045000Y-6683065D01*
X14045000Y-6655000D01*
X14030000Y-6640000D01*
X13945000Y-6640000D01*
X13945000Y-6642000D01*
X13915000Y-6642000D01*
X13915000Y-6640000D01*
X13830000Y-6640000D01*
X13815000Y-6655000D01*
X13815000Y-6595000D01*
X13830000Y-6610000D01*
X13915000Y-6610000D01*
X13915000Y-6608000D01*
X13945000Y-6608000D01*
X13945000Y-6610000D01*
X14030000Y-6610000D01*
X14045000Y-6595000D01*
X14045000Y-6566935D01*
X14045000Y-6543065D01*
X14035865Y-6521013D01*
X14030179Y-6515327D01*
X14058043Y-6487463D01*
X14059723Y-6484949D01*
X14062095Y-6483075D01*
X14067801Y-6472860D01*
X14074301Y-6463131D01*
X14074891Y-6460166D01*
X14076365Y-6457526D01*
X14090466Y-6413963D01*
X14119265Y-6367260D01*
X14428186Y-6367260D01*
X14442043Y-6373000D01*
X14457956Y-6373000D01*
X14602500Y-6373000D01*
X14602500Y-6413286D01*
X14600465Y-6415321D01*
X14593288Y-6392489D01*
X14542356Y-6375454D01*
X14488780Y-6379206D01*
X14456712Y-6392489D01*
X14449535Y-6415321D01*
X14525000Y-6490787D01*
X14526414Y-6489372D01*
X14547627Y-6510586D01*
X14546213Y-6512000D01*
X14547627Y-6513414D01*
X14526414Y-6534627D01*
X14525000Y-6533213D01*
X14503787Y-6554426D01*
X14503787Y-6512000D01*
X14428321Y-6436535D01*
X14405489Y-6443712D01*
X14388454Y-6494644D01*
X14392206Y-6548220D01*
X14405489Y-6580288D01*
X14428321Y-6587465D01*
X14503787Y-6512000D01*
X14503787Y-6554426D01*
X14449535Y-6608678D01*
X14456712Y-6631510D01*
X14507644Y-6648546D01*
X14561220Y-6644794D01*
X14593288Y-6631510D01*
X14600465Y-6608679D01*
X14600465Y-6608679D01*
X14602500Y-6610713D01*
X14602500Y-6702500D01*
M02*
