G04 #@! TF.GenerationSoftware,KiCad,Pcbnew,(5.0.0-rc2-dev-596-gcfd2f1d00)*
G04 #@! TF.CreationDate,2018-08-25T14:54:55+02:00*
G04 #@! TF.ProjectId,MP2637,4D50323633372E6B696361645F706362,rev?*
G04 #@! TF.SameCoordinates,Original*
G04 #@! TF.FileFunction,Legend,Top*
G04 #@! TF.FilePolarity,Positive*
%FSLAX45Y45*%
G04 Gerber Fmt 4.5, Leading zero omitted, Abs format (unit mm)*
G04 Created by KiCad (PCBNEW (5.0.0-rc2-dev-596-gcfd2f1d00)) date 08/25/18 14:54:55*
%MOMM*%
%LPD*%
G01*
G04 APERTURE LIST*
%ADD10C,0.200000*%
%ADD11C,0.150000*%
%ADD12C,0.100000*%
%ADD13C,0.300000*%
G04 APERTURE END LIST*
D10*
X12020000Y-6620000D02*
X12050000Y-6640000D01*
X12020000Y-6660000D02*
X12020000Y-6620000D01*
X12050000Y-6640000D02*
X12020000Y-6660000D01*
X12040000Y-6640000D02*
X11790000Y-6640000D01*
D11*
X10000000Y-5430000D02*
X10775000Y-5430000D01*
X10775000Y-5430000D02*
X10775000Y-6320000D01*
X10775000Y-6320000D02*
X10000000Y-6320000D01*
X10000000Y-5430000D02*
X10000000Y-6320000D01*
X10435000Y-6250000D02*
X10435000Y-5500000D01*
D12*
X10005000Y-6250000D02*
X10005000Y-5500000D01*
D11*
X9935000Y-5500000D02*
X10435000Y-5500000D01*
X10435000Y-6250000D02*
X9935000Y-6250000D01*
X9935000Y-6250000D02*
X9935000Y-5500000D01*
X11175000Y-6025000D02*
X11095000Y-6025000D01*
X11095000Y-6025000D02*
X11095000Y-5725000D01*
X11095000Y-5725000D02*
X11255000Y-5725000D01*
X11255000Y-5725000D02*
X11255000Y-6025000D01*
X11255000Y-6025000D02*
X11175000Y-6025000D01*
X10023000Y-6663500D02*
X10086500Y-6727000D01*
X10086500Y-6473000D02*
X10023000Y-6536500D01*
X10277000Y-6536500D02*
X10213500Y-6473000D01*
X10277000Y-6663500D02*
X10213500Y-6727000D01*
X10213500Y-6727000D02*
X10086500Y-6727000D01*
X10213500Y-6473000D02*
X10086500Y-6473000D01*
X10277000Y-6536500D02*
X10277000Y-6663500D01*
X10023000Y-6536500D02*
X10023000Y-6663500D01*
X11275000Y-6065000D02*
X11275000Y-5685000D01*
X11275000Y-5685000D02*
X11475000Y-5685000D01*
X11475000Y-5685000D02*
X11475000Y-6065000D01*
X11475000Y-6065000D02*
X11275000Y-6065000D01*
X12730000Y-6225000D02*
X12730000Y-6525000D01*
X12730000Y-6525000D02*
X12570000Y-6525000D01*
X12570000Y-6525000D02*
X12570000Y-6225000D01*
X12570000Y-6225000D02*
X12730000Y-6225000D01*
X12450000Y-5930000D02*
X12150000Y-5930000D01*
X12150000Y-5930000D02*
X12150000Y-5770000D01*
X12150000Y-5770000D02*
X12450000Y-5770000D01*
X12450000Y-5770000D02*
X12450000Y-5930000D01*
X13600000Y-6730000D02*
X13300000Y-6730000D01*
X13300000Y-6730000D02*
X13300000Y-6570000D01*
X13300000Y-6570000D02*
X13600000Y-6570000D01*
X13600000Y-6570000D02*
X13600000Y-6730000D01*
X12470000Y-5400000D02*
X12470000Y-5100000D01*
X12470000Y-5100000D02*
X12630000Y-5100000D01*
X12630000Y-5100000D02*
X12630000Y-5400000D01*
X12630000Y-5400000D02*
X12470000Y-5400000D01*
X12905000Y-6225000D02*
X12905000Y-6525000D01*
X12905000Y-6525000D02*
X12745000Y-6525000D01*
X12745000Y-6525000D02*
X12745000Y-6225000D01*
X12745000Y-6225000D02*
X12905000Y-6225000D01*
X13635000Y-6525000D02*
X14015000Y-6525000D01*
X14015000Y-6525000D02*
X14015000Y-6725000D01*
X14015000Y-6725000D02*
X13635000Y-6725000D01*
X13635000Y-6725000D02*
X13635000Y-6525000D01*
X13050000Y-5960000D02*
X13010000Y-6000000D01*
X13030000Y-6000000D02*
X13050000Y-5980000D01*
X13050000Y-6100000D02*
X13150000Y-6000000D01*
X13150000Y-6100000D02*
X12550000Y-6100000D01*
X12550000Y-6100000D02*
X12550000Y-5500000D01*
X12550000Y-5500000D02*
X13150000Y-5500000D01*
X13150000Y-5500000D02*
X13150000Y-6100000D01*
X13150000Y-6100000D02*
X13150000Y-6100000D01*
X12990000Y-6000000D02*
X13050000Y-5940000D01*
X12650000Y-6000000D02*
X12650000Y-5600000D01*
X12650000Y-5600000D02*
X13050000Y-5600000D01*
X13050000Y-5600000D02*
X13050000Y-6000000D01*
X13050000Y-6000000D02*
X12650000Y-6000000D01*
X12035000Y-5450000D02*
X12035000Y-5250000D01*
X12025000Y-5250000D02*
X12025000Y-5450000D01*
X12010820Y-5250940D02*
X12010820Y-5443980D01*
X12010820Y-5443980D02*
X12010820Y-5446520D01*
X12000660Y-5253480D02*
X12000660Y-5446520D01*
X11610000Y-5250000D02*
X12035000Y-5250000D01*
X11990000Y-5250000D02*
X11990000Y-5450000D01*
X12035000Y-5450000D02*
X11610000Y-5450000D01*
X11610000Y-5450000D02*
X11610000Y-5250000D01*
X12035000Y-5850000D02*
X12035000Y-5650000D01*
X12025000Y-5650000D02*
X12025000Y-5850000D01*
X12010820Y-5650940D02*
X12010820Y-5843980D01*
X12010820Y-5843980D02*
X12010820Y-5846520D01*
X12000660Y-5653480D02*
X12000660Y-5846520D01*
X11610000Y-5650000D02*
X12035000Y-5650000D01*
X11990000Y-5650000D02*
X11990000Y-5850000D01*
X12035000Y-5850000D02*
X11610000Y-5850000D01*
X11610000Y-5850000D02*
X11610000Y-5650000D01*
X12035000Y-6400000D02*
X12035000Y-6200000D01*
X12025000Y-6200000D02*
X12025000Y-6400000D01*
X12010820Y-6200940D02*
X12010820Y-6393980D01*
X12010820Y-6393980D02*
X12010820Y-6396520D01*
X12000660Y-6203480D02*
X12000660Y-6396520D01*
X11610000Y-6200000D02*
X12035000Y-6200000D01*
X11990000Y-6200000D02*
X11990000Y-6400000D01*
X12035000Y-6400000D02*
X11610000Y-6400000D01*
X11610000Y-6400000D02*
X11610000Y-6200000D01*
X13285000Y-5760000D02*
X13965000Y-5760000D01*
X13965000Y-5760000D02*
X13965000Y-6440000D01*
X13965000Y-6440000D02*
X13285000Y-6440000D01*
X13285000Y-6440000D02*
X13285000Y-5760000D01*
X12150000Y-6300000D02*
X12150000Y-6220000D01*
X12150000Y-6220000D02*
X12450000Y-6220000D01*
X12450000Y-6220000D02*
X12450000Y-6380000D01*
X12450000Y-6380000D02*
X12150000Y-6380000D01*
X12150000Y-6380000D02*
X12150000Y-6300000D01*
X12147700Y-6048390D02*
X12147700Y-5968390D01*
X12147700Y-5968390D02*
X12447700Y-5968390D01*
X12447700Y-5968390D02*
X12447700Y-6128390D01*
X12447700Y-6128390D02*
X12147700Y-6128390D01*
X12147700Y-6128390D02*
X12147700Y-6048390D01*
X12150000Y-6475000D02*
X12150000Y-6395000D01*
X12150000Y-6395000D02*
X12450000Y-6395000D01*
X12450000Y-6395000D02*
X12450000Y-6555000D01*
X12450000Y-6555000D02*
X12150000Y-6555000D01*
X12150000Y-6555000D02*
X12150000Y-6475000D01*
X12725000Y-5100000D02*
X12805000Y-5100000D01*
X12805000Y-5100000D02*
X12805000Y-5400000D01*
X12805000Y-5400000D02*
X12645000Y-5400000D01*
X12645000Y-5400000D02*
X12645000Y-5100000D01*
X12645000Y-5100000D02*
X12725000Y-5100000D01*
X12900000Y-5400000D02*
X12820000Y-5400000D01*
X12820000Y-5400000D02*
X12820000Y-5100000D01*
X12820000Y-5100000D02*
X12980000Y-5100000D01*
X12980000Y-5100000D02*
X12980000Y-5400000D01*
X12980000Y-5400000D02*
X12900000Y-5400000D01*
X12150000Y-5500000D02*
X12150000Y-5420000D01*
X12150000Y-5420000D02*
X12450000Y-5420000D01*
X12450000Y-5420000D02*
X12450000Y-5580000D01*
X12450000Y-5580000D02*
X12150000Y-5580000D01*
X12150000Y-5580000D02*
X12150000Y-5500000D01*
X12450000Y-5325000D02*
X12450000Y-5405000D01*
X12450000Y-5405000D02*
X12150000Y-5405000D01*
X12150000Y-5405000D02*
X12150000Y-5245000D01*
X12150000Y-5245000D02*
X12450000Y-5245000D01*
X12450000Y-5245000D02*
X12450000Y-5325000D01*
X12450000Y-5675000D02*
X12450000Y-5755000D01*
X12450000Y-5755000D02*
X12150000Y-5755000D01*
X12150000Y-5755000D02*
X12150000Y-5595000D01*
X12150000Y-5595000D02*
X12450000Y-5595000D01*
X12450000Y-5595000D02*
X12450000Y-5675000D01*
X14075000Y-6175000D02*
X13995000Y-6175000D01*
X13995000Y-6175000D02*
X13995000Y-5875000D01*
X13995000Y-5875000D02*
X14155000Y-5875000D01*
X14155000Y-5875000D02*
X14155000Y-6175000D01*
X14155000Y-6175000D02*
X14075000Y-6175000D01*
X14076600Y-5868780D02*
X13996600Y-5868780D01*
X13996600Y-5868780D02*
X13996600Y-5568780D01*
X13996600Y-5568780D02*
X14156600Y-5568780D01*
X14156600Y-5568780D02*
X14156600Y-5868780D01*
X14156600Y-5868780D02*
X14076600Y-5868780D01*
X11925000Y-5550000D02*
X11925000Y-5630000D01*
X11925000Y-5630000D02*
X11625000Y-5630000D01*
X11625000Y-5630000D02*
X11625000Y-5470000D01*
X11625000Y-5470000D02*
X11925000Y-5470000D01*
X11925000Y-5470000D02*
X11925000Y-5550000D01*
X11925000Y-5950000D02*
X11925000Y-6030000D01*
X11925000Y-6030000D02*
X11625000Y-6030000D01*
X11625000Y-6030000D02*
X11625000Y-5870000D01*
X11625000Y-5870000D02*
X11925000Y-5870000D01*
X11925000Y-5870000D02*
X11925000Y-5950000D01*
X11925000Y-6500000D02*
X11925000Y-6580000D01*
X11925000Y-6580000D02*
X11625000Y-6580000D01*
X11625000Y-6580000D02*
X11625000Y-6420000D01*
X11625000Y-6420000D02*
X11925000Y-6420000D01*
X11925000Y-6420000D02*
X11925000Y-6500000D01*
X13200000Y-6375000D02*
X13280000Y-6375000D01*
X13280000Y-6375000D02*
X13280000Y-6675000D01*
X13280000Y-6675000D02*
X13120000Y-6675000D01*
X13120000Y-6675000D02*
X13120000Y-6375000D01*
X13120000Y-6375000D02*
X13200000Y-6375000D01*
X13025000Y-6375000D02*
X13105000Y-6375000D01*
X13105000Y-6375000D02*
X13105000Y-6675000D01*
X13105000Y-6675000D02*
X12945000Y-6675000D01*
X12945000Y-6675000D02*
X12945000Y-6375000D01*
X12945000Y-6375000D02*
X13025000Y-6375000D01*
X13000000Y-5325000D02*
X13000000Y-5245000D01*
X13000000Y-5245000D02*
X13300000Y-5245000D01*
X13300000Y-5245000D02*
X13300000Y-5405000D01*
X13300000Y-5405000D02*
X13000000Y-5405000D01*
X13000000Y-5405000D02*
X13000000Y-5325000D01*
X13965000Y-5625000D02*
X13965000Y-5725000D01*
X13965000Y-5725000D02*
X13585000Y-5725000D01*
X13585000Y-5725000D02*
X13585000Y-5525000D01*
X13585000Y-5525000D02*
X13965000Y-5525000D01*
X13965000Y-5525000D02*
X13965000Y-5645000D01*
X10023000Y-5213500D02*
X10086500Y-5277000D01*
X10086500Y-5023000D02*
X10023000Y-5086500D01*
X10277000Y-5086500D02*
X10213500Y-5023000D01*
X10277000Y-5213500D02*
X10213500Y-5277000D01*
X10213500Y-5277000D02*
X10086500Y-5277000D01*
X10213500Y-5023000D02*
X10086500Y-5023000D01*
X10277000Y-5086500D02*
X10277000Y-5213500D01*
X10023000Y-5086500D02*
X10023000Y-5213500D01*
X12300000Y-6710000D02*
X12300000Y-6590000D01*
X12300000Y-6590000D02*
X12340000Y-6550000D01*
X12340000Y-6550000D02*
X12460000Y-6550000D01*
X12460000Y-6750000D02*
X12340000Y-6750000D01*
X12340000Y-6750000D02*
X12300000Y-6710000D01*
X12500000Y-6710000D02*
X12460000Y-6750000D01*
X12500000Y-6590000D02*
X12460000Y-6550000D01*
X12500000Y-6710000D02*
X12500000Y-6590000D01*
X12500000Y-6590000D02*
X12540000Y-6550000D01*
X12540000Y-6550000D02*
X12660000Y-6550000D01*
X12660000Y-6550000D02*
X12700000Y-6590000D01*
X12700000Y-6590000D02*
X12700000Y-6710000D01*
X12660000Y-6750000D02*
X12540000Y-6750000D01*
X12540000Y-6750000D02*
X12500000Y-6710000D01*
X12700000Y-6710000D02*
X12660000Y-6750000D01*
X14461500Y-6639000D02*
X14398000Y-6575500D01*
X14588500Y-6639000D02*
X14461500Y-6639000D01*
X14652000Y-6575500D02*
X14652000Y-6448500D01*
X14398000Y-6575500D02*
X14398000Y-6448500D01*
X14652000Y-6448500D02*
X14588500Y-6385000D01*
X14588500Y-6639000D02*
X14652000Y-6575500D01*
X14398000Y-6448500D02*
X14461500Y-6385000D01*
X14398000Y-6194500D02*
X14461500Y-6131000D01*
X14588500Y-6385000D02*
X14652000Y-6321500D01*
X14652000Y-6194500D02*
X14588500Y-6131000D01*
X14461500Y-6131000D02*
X14588500Y-6131000D01*
X14398000Y-6321500D02*
X14398000Y-6194500D01*
X14652000Y-6321500D02*
X14652000Y-6194500D01*
X14588500Y-6385000D02*
X14461500Y-6385000D01*
X14461500Y-6385000D02*
X14398000Y-6321500D01*
X12985000Y-5125000D02*
X12985000Y-5025000D01*
X12985000Y-5025000D02*
X13365000Y-5025000D01*
X13365000Y-5025000D02*
X13365000Y-5225000D01*
X13365000Y-5225000D02*
X12985000Y-5225000D01*
X12985000Y-5225000D02*
X12985000Y-5105000D01*
X13295000Y-5725000D02*
X13295000Y-5425000D01*
X13295000Y-5425000D02*
X13455000Y-5425000D01*
X13455000Y-5425000D02*
X13455000Y-5725000D01*
X13455000Y-5725000D02*
X13295000Y-5725000D01*
X13965000Y-5325000D02*
X13585000Y-5325000D01*
X13585000Y-5325000D02*
X13585000Y-5125000D01*
X13585000Y-5125000D02*
X13965000Y-5125000D01*
X13965000Y-5125000D02*
X13965000Y-5325000D01*
X14461500Y-5619000D02*
X14398000Y-5555500D01*
X14588500Y-5619000D02*
X14461500Y-5619000D01*
X14652000Y-5555500D02*
X14652000Y-5428500D01*
X14398000Y-5555500D02*
X14398000Y-5428500D01*
X14652000Y-5428500D02*
X14588500Y-5365000D01*
X14588500Y-5619000D02*
X14652000Y-5555500D01*
X14398000Y-5428500D02*
X14461500Y-5365000D01*
X14398000Y-5174500D02*
X14461500Y-5111000D01*
X14588500Y-5365000D02*
X14652000Y-5301500D01*
X14652000Y-5174500D02*
X14588500Y-5111000D01*
X14461500Y-5111000D02*
X14588500Y-5111000D01*
X14398000Y-5301500D02*
X14398000Y-5174500D01*
X14652000Y-5301500D02*
X14652000Y-5174500D01*
X14588500Y-5365000D02*
X14461500Y-5365000D01*
X14461500Y-5365000D02*
X14398000Y-5301500D01*
X14461500Y-6129000D02*
X14398000Y-6065500D01*
X14588500Y-6129000D02*
X14461500Y-6129000D01*
X14652000Y-6065500D02*
X14652000Y-5938500D01*
X14398000Y-6065500D02*
X14398000Y-5938500D01*
X14652000Y-5938500D02*
X14588500Y-5875000D01*
X14588500Y-6129000D02*
X14652000Y-6065500D01*
X14398000Y-5938500D02*
X14461500Y-5875000D01*
X14398000Y-5684500D02*
X14461500Y-5621000D01*
X14588500Y-5875000D02*
X14652000Y-5811500D01*
X14652000Y-5684500D02*
X14588500Y-5621000D01*
X14461500Y-5621000D02*
X14588500Y-5621000D01*
X14398000Y-5811500D02*
X14398000Y-5684500D01*
X14652000Y-5811500D02*
X14652000Y-5684500D01*
X14588500Y-5875000D02*
X14461500Y-5875000D01*
X14461500Y-5875000D02*
X14398000Y-5811500D01*
X11165000Y-5693228D02*
X11162143Y-5696086D01*
X11153571Y-5698943D01*
X11147857Y-5698943D01*
X11139286Y-5696086D01*
X11133571Y-5690371D01*
X11130714Y-5684657D01*
X11127857Y-5673228D01*
X11127857Y-5664657D01*
X11130714Y-5653228D01*
X11133571Y-5647514D01*
X11139286Y-5641800D01*
X11147857Y-5638943D01*
X11153571Y-5638943D01*
X11162143Y-5641800D01*
X11165000Y-5644657D01*
X11222143Y-5698943D02*
X11187857Y-5698943D01*
X11205000Y-5698943D02*
X11205000Y-5638943D01*
X11199286Y-5647514D01*
X11193571Y-5653228D01*
X11187857Y-5656086D01*
X11025629Y-6070743D02*
X11031343Y-6070743D01*
X11037057Y-6073600D01*
X11039914Y-6076457D01*
X11042771Y-6082171D01*
X11045629Y-6093600D01*
X11045629Y-6107886D01*
X11042771Y-6119314D01*
X11039914Y-6125028D01*
X11037057Y-6127886D01*
X11031343Y-6130743D01*
X11025629Y-6130743D01*
X11019914Y-6127886D01*
X11017057Y-6125028D01*
X11014200Y-6119314D01*
X11011343Y-6107886D01*
X11011343Y-6093600D01*
X11014200Y-6082171D01*
X11017057Y-6076457D01*
X11019914Y-6073600D01*
X11025629Y-6070743D01*
X11071343Y-6125028D02*
X11074200Y-6127886D01*
X11071343Y-6130743D01*
X11068486Y-6127886D01*
X11071343Y-6125028D01*
X11071343Y-6130743D01*
X11131343Y-6130743D02*
X11097057Y-6130743D01*
X11114200Y-6130743D02*
X11114200Y-6070743D01*
X11108486Y-6079314D01*
X11102771Y-6085028D01*
X11097057Y-6087886D01*
X11182771Y-6090743D02*
X11182771Y-6130743D01*
X11157057Y-6090743D02*
X11157057Y-6122171D01*
X11159914Y-6127886D01*
X11165629Y-6130743D01*
X11174200Y-6130743D01*
X11179914Y-6127886D01*
X11182771Y-6125028D01*
X11231343Y-6099314D02*
X11211343Y-6099314D01*
X11211343Y-6130743D02*
X11211343Y-6070743D01*
X11239914Y-6070743D01*
X10320000Y-6608571D02*
X10411429Y-6608571D01*
X10451429Y-6534286D02*
X10491429Y-6654286D01*
X10531429Y-6534286D01*
X10571429Y-6654286D02*
X10571429Y-6574286D01*
X10571429Y-6534286D02*
X10565714Y-6540000D01*
X10571429Y-6545714D01*
X10577143Y-6540000D01*
X10571429Y-6534286D01*
X10571429Y-6545714D01*
X10628571Y-6574286D02*
X10628571Y-6654286D01*
X10628571Y-6585714D02*
X10634286Y-6580000D01*
X10645714Y-6574286D01*
X10662857Y-6574286D01*
X10674286Y-6580000D01*
X10680000Y-6591428D01*
X10680000Y-6654286D01*
X11365000Y-5896428D02*
X11362143Y-5899286D01*
X11353571Y-5902143D01*
X11347857Y-5902143D01*
X11339286Y-5899286D01*
X11333571Y-5893571D01*
X11330714Y-5887857D01*
X11327857Y-5876428D01*
X11327857Y-5867857D01*
X11330714Y-5856428D01*
X11333571Y-5850714D01*
X11339286Y-5845000D01*
X11347857Y-5842143D01*
X11353571Y-5842143D01*
X11362143Y-5845000D01*
X11365000Y-5847857D01*
X11387857Y-5847857D02*
X11390714Y-5845000D01*
X11396428Y-5842143D01*
X11410714Y-5842143D01*
X11416428Y-5845000D01*
X11419286Y-5847857D01*
X11422143Y-5853571D01*
X11422143Y-5859286D01*
X11419286Y-5867857D01*
X11385000Y-5902143D01*
X11422143Y-5902143D01*
X11276428Y-6097857D02*
X11279286Y-6095000D01*
X11285000Y-6092143D01*
X11299286Y-6092143D01*
X11305000Y-6095000D01*
X11307857Y-6097857D01*
X11310714Y-6103571D01*
X11310714Y-6109286D01*
X11307857Y-6117857D01*
X11273571Y-6152143D01*
X11310714Y-6152143D01*
X11333571Y-6097857D02*
X11336428Y-6095000D01*
X11342143Y-6092143D01*
X11356428Y-6092143D01*
X11362143Y-6095000D01*
X11365000Y-6097857D01*
X11367857Y-6103571D01*
X11367857Y-6109286D01*
X11365000Y-6117857D01*
X11330714Y-6152143D01*
X11367857Y-6152143D01*
X11419286Y-6112143D02*
X11419286Y-6152143D01*
X11393571Y-6112143D02*
X11393571Y-6143571D01*
X11396428Y-6149286D01*
X11402143Y-6152143D01*
X11410714Y-6152143D01*
X11416428Y-6149286D01*
X11419286Y-6146428D01*
X11467857Y-6120714D02*
X11447857Y-6120714D01*
X11447857Y-6152143D02*
X11447857Y-6092143D01*
X11476428Y-6092143D01*
X12610000Y-6071428D02*
X12607143Y-6074286D01*
X12598571Y-6077143D01*
X12592857Y-6077143D01*
X12584286Y-6074286D01*
X12578571Y-6068571D01*
X12575714Y-6062857D01*
X12572857Y-6051428D01*
X12572857Y-6042857D01*
X12575714Y-6031428D01*
X12578571Y-6025714D01*
X12584286Y-6020000D01*
X12592857Y-6017143D01*
X12598571Y-6017143D01*
X12607143Y-6020000D01*
X12610000Y-6022857D01*
X12630000Y-6017143D02*
X12667143Y-6017143D01*
X12647143Y-6040000D01*
X12655714Y-6040000D01*
X12661428Y-6042857D01*
X12664286Y-6045714D01*
X12667143Y-6051428D01*
X12667143Y-6065714D01*
X12664286Y-6071428D01*
X12661428Y-6074286D01*
X12655714Y-6077143D01*
X12638571Y-6077143D01*
X12632857Y-6074286D01*
X12630000Y-6071428D01*
X12614286Y-6202143D02*
X12580000Y-6202143D01*
X12597143Y-6202143D02*
X12597143Y-6142143D01*
X12591428Y-6150714D01*
X12585714Y-6156428D01*
X12580000Y-6159286D01*
X12665714Y-6162143D02*
X12665714Y-6202143D01*
X12640000Y-6162143D02*
X12640000Y-6193571D01*
X12642857Y-6199286D01*
X12648571Y-6202143D01*
X12657143Y-6202143D01*
X12662857Y-6199286D01*
X12665714Y-6196428D01*
X12714286Y-6170714D02*
X12694286Y-6170714D01*
X12694286Y-6202143D02*
X12694286Y-6142143D01*
X12722857Y-6142143D01*
X12121428Y-5860000D02*
X12124286Y-5862857D01*
X12127143Y-5871428D01*
X12127143Y-5877143D01*
X12124286Y-5885714D01*
X12118571Y-5891428D01*
X12112857Y-5894286D01*
X12101428Y-5897143D01*
X12092857Y-5897143D01*
X12081428Y-5894286D01*
X12075714Y-5891428D01*
X12070000Y-5885714D01*
X12067143Y-5877143D01*
X12067143Y-5871428D01*
X12070000Y-5862857D01*
X12072857Y-5860000D01*
X12087143Y-5808571D02*
X12127143Y-5808571D01*
X12064286Y-5822857D02*
X12107143Y-5837143D01*
X12107143Y-5800000D01*
X12467143Y-6073571D02*
X12467143Y-6067857D01*
X12470000Y-6062143D01*
X12472857Y-6059286D01*
X12478571Y-6056428D01*
X12490000Y-6053571D01*
X12504286Y-6053571D01*
X12515714Y-6056428D01*
X12521428Y-6059286D01*
X12524286Y-6062143D01*
X12527143Y-6067857D01*
X12527143Y-6073571D01*
X12524286Y-6079286D01*
X12521428Y-6082143D01*
X12515714Y-6085000D01*
X12504286Y-6087857D01*
X12490000Y-6087857D01*
X12478571Y-6085000D01*
X12472857Y-6082143D01*
X12470000Y-6079286D01*
X12467143Y-6073571D01*
X12521428Y-6027857D02*
X12524286Y-6025000D01*
X12527143Y-6027857D01*
X12524286Y-6030714D01*
X12521428Y-6027857D01*
X12527143Y-6027857D01*
X12527143Y-5967857D02*
X12527143Y-6002143D01*
X12527143Y-5985000D02*
X12467143Y-5985000D01*
X12475714Y-5990714D01*
X12481428Y-5996428D01*
X12484286Y-6002143D01*
X12487143Y-5916428D02*
X12527143Y-5916428D01*
X12487143Y-5942143D02*
X12518571Y-5942143D01*
X12524286Y-5939286D01*
X12527143Y-5933571D01*
X12527143Y-5925000D01*
X12524286Y-5919286D01*
X12521428Y-5916428D01*
X12495714Y-5867857D02*
X12495714Y-5887857D01*
X12527143Y-5887857D02*
X12467143Y-5887857D01*
X12467143Y-5859286D01*
X13215000Y-6721428D02*
X13212143Y-6724286D01*
X13203571Y-6727143D01*
X13197857Y-6727143D01*
X13189286Y-6724286D01*
X13183571Y-6718571D01*
X13180714Y-6712857D01*
X13177857Y-6701428D01*
X13177857Y-6692857D01*
X13180714Y-6681428D01*
X13183571Y-6675714D01*
X13189286Y-6670000D01*
X13197857Y-6667143D01*
X13203571Y-6667143D01*
X13212143Y-6670000D01*
X13215000Y-6672857D01*
X13269286Y-6667143D02*
X13240714Y-6667143D01*
X13237857Y-6695714D01*
X13240714Y-6692857D01*
X13246428Y-6690000D01*
X13260714Y-6690000D01*
X13266428Y-6692857D01*
X13269286Y-6695714D01*
X13272143Y-6701428D01*
X13272143Y-6715714D01*
X13269286Y-6721428D01*
X13266428Y-6724286D01*
X13260714Y-6727143D01*
X13246428Y-6727143D01*
X13240714Y-6724286D01*
X13237857Y-6721428D01*
X13357143Y-6527143D02*
X13322857Y-6527143D01*
X13340000Y-6527143D02*
X13340000Y-6467143D01*
X13334286Y-6475714D01*
X13328571Y-6481428D01*
X13322857Y-6484286D01*
X13380000Y-6472857D02*
X13382857Y-6470000D01*
X13388571Y-6467143D01*
X13402857Y-6467143D01*
X13408571Y-6470000D01*
X13411428Y-6472857D01*
X13414286Y-6478571D01*
X13414286Y-6484286D01*
X13411428Y-6492857D01*
X13377143Y-6527143D01*
X13414286Y-6527143D01*
X13451428Y-6467143D02*
X13457143Y-6467143D01*
X13462857Y-6470000D01*
X13465714Y-6472857D01*
X13468571Y-6478571D01*
X13471428Y-6490000D01*
X13471428Y-6504286D01*
X13468571Y-6515714D01*
X13465714Y-6521428D01*
X13462857Y-6524286D01*
X13457143Y-6527143D01*
X13451428Y-6527143D01*
X13445714Y-6524286D01*
X13442857Y-6521428D01*
X13440000Y-6515714D01*
X13437143Y-6504286D01*
X13437143Y-6490000D01*
X13440000Y-6478571D01*
X13442857Y-6472857D01*
X13445714Y-6470000D01*
X13451428Y-6467143D01*
X13497143Y-6487143D02*
X13497143Y-6547143D01*
X13497143Y-6490000D02*
X13502857Y-6487143D01*
X13514286Y-6487143D01*
X13520000Y-6490000D01*
X13522857Y-6492857D01*
X13525714Y-6498571D01*
X13525714Y-6515714D01*
X13522857Y-6521428D01*
X13520000Y-6524286D01*
X13514286Y-6527143D01*
X13502857Y-6527143D01*
X13497143Y-6524286D01*
X13571428Y-6495714D02*
X13551428Y-6495714D01*
X13551428Y-6527143D02*
X13551428Y-6467143D01*
X13580000Y-6467143D01*
X12540000Y-5071429D02*
X12537143Y-5074286D01*
X12528571Y-5077143D01*
X12522857Y-5077143D01*
X12514286Y-5074286D01*
X12508571Y-5068571D01*
X12505714Y-5062857D01*
X12502857Y-5051429D01*
X12502857Y-5042857D01*
X12505714Y-5031429D01*
X12508571Y-5025714D01*
X12514286Y-5020000D01*
X12522857Y-5017143D01*
X12528571Y-5017143D01*
X12537143Y-5020000D01*
X12540000Y-5022857D01*
X12591428Y-5017143D02*
X12580000Y-5017143D01*
X12574286Y-5020000D01*
X12571428Y-5022857D01*
X12565714Y-5031429D01*
X12562857Y-5042857D01*
X12562857Y-5065714D01*
X12565714Y-5071429D01*
X12568571Y-5074286D01*
X12574286Y-5077143D01*
X12585714Y-5077143D01*
X12591428Y-5074286D01*
X12594286Y-5071429D01*
X12597143Y-5065714D01*
X12597143Y-5051429D01*
X12594286Y-5045714D01*
X12591428Y-5042857D01*
X12585714Y-5040000D01*
X12574286Y-5040000D01*
X12568571Y-5042857D01*
X12565714Y-5045714D01*
X12562857Y-5051429D01*
X12481428Y-5417143D02*
X12487143Y-5417143D01*
X12492857Y-5420000D01*
X12495714Y-5422857D01*
X12498571Y-5428571D01*
X12501428Y-5440000D01*
X12501428Y-5454286D01*
X12498571Y-5465714D01*
X12495714Y-5471429D01*
X12492857Y-5474286D01*
X12487143Y-5477143D01*
X12481428Y-5477143D01*
X12475714Y-5474286D01*
X12472857Y-5471429D01*
X12470000Y-5465714D01*
X12467143Y-5454286D01*
X12467143Y-5440000D01*
X12470000Y-5428571D01*
X12472857Y-5422857D01*
X12475714Y-5420000D01*
X12481428Y-5417143D01*
X12527143Y-5471429D02*
X12530000Y-5474286D01*
X12527143Y-5477143D01*
X12524286Y-5474286D01*
X12527143Y-5471429D01*
X12527143Y-5477143D01*
X12587143Y-5477143D02*
X12552857Y-5477143D01*
X12570000Y-5477143D02*
X12570000Y-5417143D01*
X12564286Y-5425714D01*
X12558571Y-5431429D01*
X12552857Y-5434286D01*
X12638571Y-5437143D02*
X12638571Y-5477143D01*
X12612857Y-5437143D02*
X12612857Y-5468571D01*
X12615714Y-5474286D01*
X12621428Y-5477143D01*
X12630000Y-5477143D01*
X12635714Y-5474286D01*
X12638571Y-5471429D01*
X12687143Y-5445714D02*
X12667143Y-5445714D01*
X12667143Y-5477143D02*
X12667143Y-5417143D01*
X12695714Y-5417143D01*
X12815000Y-6196428D02*
X12812143Y-6199286D01*
X12803571Y-6202143D01*
X12797857Y-6202143D01*
X12789286Y-6199286D01*
X12783571Y-6193571D01*
X12780714Y-6187857D01*
X12777857Y-6176428D01*
X12777857Y-6167857D01*
X12780714Y-6156428D01*
X12783571Y-6150714D01*
X12789286Y-6145000D01*
X12797857Y-6142143D01*
X12803571Y-6142143D01*
X12812143Y-6145000D01*
X12815000Y-6147857D01*
X12835000Y-6142143D02*
X12875000Y-6142143D01*
X12849286Y-6202143D01*
X12726428Y-6547857D02*
X12729286Y-6545000D01*
X12735000Y-6542143D01*
X12749286Y-6542143D01*
X12755000Y-6545000D01*
X12757857Y-6547857D01*
X12760714Y-6553571D01*
X12760714Y-6559286D01*
X12757857Y-6567857D01*
X12723571Y-6602143D01*
X12760714Y-6602143D01*
X12783571Y-6547857D02*
X12786428Y-6545000D01*
X12792143Y-6542143D01*
X12806428Y-6542143D01*
X12812143Y-6545000D01*
X12815000Y-6547857D01*
X12817857Y-6553571D01*
X12817857Y-6559286D01*
X12815000Y-6567857D01*
X12780714Y-6602143D01*
X12817857Y-6602143D01*
X12869286Y-6562143D02*
X12869286Y-6602143D01*
X12843571Y-6562143D02*
X12843571Y-6593571D01*
X12846428Y-6599286D01*
X12852143Y-6602143D01*
X12860714Y-6602143D01*
X12866428Y-6599286D01*
X12869286Y-6596428D01*
X12917857Y-6570714D02*
X12897857Y-6570714D01*
X12897857Y-6602143D02*
X12897857Y-6542143D01*
X12926428Y-6542143D01*
X13846428Y-6663571D02*
X13849286Y-6666428D01*
X13852143Y-6675000D01*
X13852143Y-6680714D01*
X13849286Y-6689286D01*
X13843571Y-6695000D01*
X13837857Y-6697857D01*
X13826428Y-6700714D01*
X13817857Y-6700714D01*
X13806428Y-6697857D01*
X13800714Y-6695000D01*
X13795000Y-6689286D01*
X13792143Y-6680714D01*
X13792143Y-6675000D01*
X13795000Y-6666428D01*
X13797857Y-6663571D01*
X13852143Y-6606428D02*
X13852143Y-6640714D01*
X13852143Y-6623571D02*
X13792143Y-6623571D01*
X13800714Y-6629286D01*
X13806428Y-6635000D01*
X13809286Y-6640714D01*
X13792143Y-6569286D02*
X13792143Y-6563571D01*
X13795000Y-6557857D01*
X13797857Y-6555000D01*
X13803571Y-6552143D01*
X13815000Y-6549286D01*
X13829286Y-6549286D01*
X13840714Y-6552143D01*
X13846428Y-6555000D01*
X13849286Y-6557857D01*
X13852143Y-6563571D01*
X13852143Y-6569286D01*
X13849286Y-6575000D01*
X13846428Y-6577857D01*
X13840714Y-6580714D01*
X13829286Y-6583571D01*
X13815000Y-6583571D01*
X13803571Y-6580714D01*
X13797857Y-6577857D01*
X13795000Y-6575000D01*
X13792143Y-6569286D01*
X14047857Y-6723571D02*
X14045000Y-6720714D01*
X14042143Y-6715000D01*
X14042143Y-6700714D01*
X14045000Y-6695000D01*
X14047857Y-6692143D01*
X14053571Y-6689286D01*
X14059286Y-6689286D01*
X14067857Y-6692143D01*
X14102143Y-6726428D01*
X14102143Y-6689286D01*
X14047857Y-6666428D02*
X14045000Y-6663571D01*
X14042143Y-6657857D01*
X14042143Y-6643571D01*
X14045000Y-6637857D01*
X14047857Y-6635000D01*
X14053571Y-6632143D01*
X14059286Y-6632143D01*
X14067857Y-6635000D01*
X14102143Y-6669286D01*
X14102143Y-6632143D01*
X14062143Y-6580714D02*
X14102143Y-6580714D01*
X14062143Y-6606428D02*
X14093571Y-6606428D01*
X14099286Y-6603571D01*
X14102143Y-6597857D01*
X14102143Y-6589286D01*
X14099286Y-6583571D01*
X14096428Y-6580714D01*
X14070714Y-6532143D02*
X14070714Y-6552143D01*
X14102143Y-6552143D02*
X14042143Y-6552143D01*
X14042143Y-6523571D01*
X12860000Y-5797143D02*
X12860000Y-5737143D01*
X12874286Y-5737143D01*
X12882857Y-5740000D01*
X12888571Y-5745714D01*
X12891428Y-5751428D01*
X12894286Y-5762857D01*
X12894286Y-5771428D01*
X12891428Y-5782857D01*
X12888571Y-5788571D01*
X12882857Y-5794286D01*
X12874286Y-5797143D01*
X12860000Y-5797143D01*
X12917143Y-5780000D02*
X12945714Y-5780000D01*
X12911428Y-5797143D02*
X12931428Y-5737143D01*
X12951428Y-5797143D01*
X13002857Y-5797143D02*
X12968571Y-5797143D01*
X12985714Y-5797143D02*
X12985714Y-5737143D01*
X12980000Y-5745714D01*
X12974286Y-5751428D01*
X12968571Y-5754286D01*
X13252143Y-6089286D02*
X13192143Y-6089286D01*
X13235000Y-6069286D01*
X13192143Y-6049286D01*
X13252143Y-6049286D01*
X13252143Y-6020714D02*
X13192143Y-6020714D01*
X13192143Y-5997857D01*
X13195000Y-5992143D01*
X13197857Y-5989286D01*
X13203571Y-5986428D01*
X13212143Y-5986428D01*
X13217857Y-5989286D01*
X13220714Y-5992143D01*
X13223571Y-5997857D01*
X13223571Y-6020714D01*
X13197857Y-5963571D02*
X13195000Y-5960714D01*
X13192143Y-5955000D01*
X13192143Y-5940714D01*
X13195000Y-5935000D01*
X13197857Y-5932143D01*
X13203571Y-5929286D01*
X13209286Y-5929286D01*
X13217857Y-5932143D01*
X13252143Y-5966428D01*
X13252143Y-5929286D01*
X13192143Y-5877857D02*
X13192143Y-5889286D01*
X13195000Y-5895000D01*
X13197857Y-5897857D01*
X13206428Y-5903571D01*
X13217857Y-5906428D01*
X13240714Y-5906428D01*
X13246428Y-5903571D01*
X13249286Y-5900714D01*
X13252143Y-5895000D01*
X13252143Y-5883571D01*
X13249286Y-5877857D01*
X13246428Y-5875000D01*
X13240714Y-5872143D01*
X13226428Y-5872143D01*
X13220714Y-5875000D01*
X13217857Y-5877857D01*
X13215000Y-5883571D01*
X13215000Y-5895000D01*
X13217857Y-5900714D01*
X13220714Y-5903571D01*
X13226428Y-5906428D01*
X13192143Y-5852143D02*
X13192143Y-5815000D01*
X13215000Y-5835000D01*
X13215000Y-5826428D01*
X13217857Y-5820714D01*
X13220714Y-5817857D01*
X13226428Y-5815000D01*
X13240714Y-5815000D01*
X13246428Y-5817857D01*
X13249286Y-5820714D01*
X13252143Y-5826428D01*
X13252143Y-5843571D01*
X13249286Y-5849286D01*
X13246428Y-5852143D01*
X13192143Y-5795000D02*
X13192143Y-5755000D01*
X13252143Y-5780714D01*
X11827143Y-5420000D02*
X11767143Y-5420000D01*
X11795714Y-5420000D02*
X11795714Y-5385714D01*
X11827143Y-5385714D02*
X11767143Y-5385714D01*
X11827143Y-5328571D02*
X11827143Y-5357143D01*
X11767143Y-5357143D01*
X11827143Y-5277143D02*
X11827143Y-5311429D01*
X11827143Y-5294286D02*
X11767143Y-5294286D01*
X11775714Y-5300000D01*
X11781428Y-5305714D01*
X11784286Y-5311429D01*
X11577143Y-5409286D02*
X11548571Y-5429286D01*
X11577143Y-5443571D02*
X11517143Y-5443571D01*
X11517143Y-5420714D01*
X11520000Y-5415000D01*
X11522857Y-5412143D01*
X11528571Y-5409286D01*
X11537143Y-5409286D01*
X11542857Y-5412143D01*
X11545714Y-5415000D01*
X11548571Y-5420714D01*
X11548571Y-5443571D01*
X11574286Y-5360714D02*
X11577143Y-5366429D01*
X11577143Y-5377857D01*
X11574286Y-5383571D01*
X11568571Y-5386429D01*
X11545714Y-5386429D01*
X11540000Y-5383571D01*
X11537143Y-5377857D01*
X11537143Y-5366429D01*
X11540000Y-5360714D01*
X11545714Y-5357857D01*
X11551428Y-5357857D01*
X11557143Y-5386429D01*
X11577143Y-5306429D02*
X11517143Y-5306429D01*
X11574286Y-5306429D02*
X11577143Y-5312143D01*
X11577143Y-5323571D01*
X11574286Y-5329286D01*
X11571428Y-5332143D01*
X11565714Y-5335000D01*
X11548571Y-5335000D01*
X11542857Y-5332143D01*
X11540000Y-5329286D01*
X11537143Y-5323571D01*
X11537143Y-5312143D01*
X11540000Y-5306429D01*
X11827143Y-5820000D02*
X11767143Y-5820000D01*
X11795714Y-5820000D02*
X11795714Y-5785714D01*
X11827143Y-5785714D02*
X11767143Y-5785714D01*
X11827143Y-5728571D02*
X11827143Y-5757143D01*
X11767143Y-5757143D01*
X11772857Y-5711428D02*
X11770000Y-5708571D01*
X11767143Y-5702857D01*
X11767143Y-5688571D01*
X11770000Y-5682857D01*
X11772857Y-5680000D01*
X11778571Y-5677143D01*
X11784286Y-5677143D01*
X11792857Y-5680000D01*
X11827143Y-5714286D01*
X11827143Y-5677143D01*
X11520000Y-5856428D02*
X11517143Y-5862143D01*
X11517143Y-5870714D01*
X11520000Y-5879286D01*
X11525714Y-5885000D01*
X11531428Y-5887857D01*
X11542857Y-5890714D01*
X11551428Y-5890714D01*
X11562857Y-5887857D01*
X11568571Y-5885000D01*
X11574286Y-5879286D01*
X11577143Y-5870714D01*
X11577143Y-5865000D01*
X11574286Y-5856428D01*
X11571428Y-5853571D01*
X11551428Y-5853571D01*
X11551428Y-5865000D01*
X11577143Y-5827857D02*
X11537143Y-5827857D01*
X11548571Y-5827857D02*
X11542857Y-5825000D01*
X11540000Y-5822143D01*
X11537143Y-5816428D01*
X11537143Y-5810714D01*
X11574286Y-5767857D02*
X11577143Y-5773571D01*
X11577143Y-5785000D01*
X11574286Y-5790714D01*
X11568571Y-5793571D01*
X11545714Y-5793571D01*
X11540000Y-5790714D01*
X11537143Y-5785000D01*
X11537143Y-5773571D01*
X11540000Y-5767857D01*
X11545714Y-5765000D01*
X11551428Y-5765000D01*
X11557143Y-5793571D01*
X11574286Y-5716428D02*
X11577143Y-5722143D01*
X11577143Y-5733571D01*
X11574286Y-5739286D01*
X11568571Y-5742143D01*
X11545714Y-5742143D01*
X11540000Y-5739286D01*
X11537143Y-5733571D01*
X11537143Y-5722143D01*
X11540000Y-5716428D01*
X11545714Y-5713571D01*
X11551428Y-5713571D01*
X11557143Y-5742143D01*
X11537143Y-5687857D02*
X11577143Y-5687857D01*
X11542857Y-5687857D02*
X11540000Y-5685000D01*
X11537143Y-5679286D01*
X11537143Y-5670714D01*
X11540000Y-5665000D01*
X11545714Y-5662143D01*
X11577143Y-5662143D01*
X11827143Y-6370000D02*
X11767143Y-6370000D01*
X11795714Y-6370000D02*
X11795714Y-6335714D01*
X11827143Y-6335714D02*
X11767143Y-6335714D01*
X11827143Y-6278571D02*
X11827143Y-6307143D01*
X11767143Y-6307143D01*
X11767143Y-6264286D02*
X11767143Y-6227143D01*
X11790000Y-6247143D01*
X11790000Y-6238571D01*
X11792857Y-6232857D01*
X11795714Y-6230000D01*
X11801428Y-6227143D01*
X11815714Y-6227143D01*
X11821428Y-6230000D01*
X11824286Y-6232857D01*
X11827143Y-6238571D01*
X11827143Y-6255714D01*
X11824286Y-6261428D01*
X11821428Y-6264286D01*
X11545714Y-6339286D02*
X11548571Y-6330714D01*
X11551428Y-6327857D01*
X11557143Y-6325000D01*
X11565714Y-6325000D01*
X11571428Y-6327857D01*
X11574286Y-6330714D01*
X11577143Y-6336428D01*
X11577143Y-6359286D01*
X11517143Y-6359286D01*
X11517143Y-6339286D01*
X11520000Y-6333571D01*
X11522857Y-6330714D01*
X11528571Y-6327857D01*
X11534286Y-6327857D01*
X11540000Y-6330714D01*
X11542857Y-6333571D01*
X11545714Y-6339286D01*
X11545714Y-6359286D01*
X11577143Y-6290714D02*
X11574286Y-6296428D01*
X11568571Y-6299286D01*
X11517143Y-6299286D01*
X11537143Y-6242143D02*
X11577143Y-6242143D01*
X11537143Y-6267857D02*
X11568571Y-6267857D01*
X11574286Y-6265000D01*
X11577143Y-6259286D01*
X11577143Y-6250714D01*
X11574286Y-6245000D01*
X11571428Y-6242143D01*
X11574286Y-6190714D02*
X11577143Y-6196428D01*
X11577143Y-6207857D01*
X11574286Y-6213571D01*
X11568571Y-6216428D01*
X11545714Y-6216428D01*
X11540000Y-6213571D01*
X11537143Y-6207857D01*
X11537143Y-6196428D01*
X11540000Y-6190714D01*
X11545714Y-6187857D01*
X11551428Y-6187857D01*
X11557143Y-6216428D01*
X13402143Y-6110000D02*
X13402143Y-6138571D01*
X13342143Y-6138571D01*
X13402143Y-6058571D02*
X13402143Y-6092857D01*
X13402143Y-6075714D02*
X13342143Y-6075714D01*
X13350714Y-6081428D01*
X13356428Y-6087143D01*
X13359286Y-6092857D01*
X13606428Y-6072857D02*
X13609286Y-6070000D01*
X13615000Y-6067143D01*
X13629286Y-6067143D01*
X13635000Y-6070000D01*
X13637857Y-6072857D01*
X13640714Y-6078571D01*
X13640714Y-6084286D01*
X13637857Y-6092857D01*
X13603571Y-6127143D01*
X13640714Y-6127143D01*
X13666428Y-6121428D02*
X13669286Y-6124286D01*
X13666428Y-6127143D01*
X13663571Y-6124286D01*
X13666428Y-6121428D01*
X13666428Y-6127143D01*
X13692143Y-6072857D02*
X13695000Y-6070000D01*
X13700714Y-6067143D01*
X13715000Y-6067143D01*
X13720714Y-6070000D01*
X13723571Y-6072857D01*
X13726428Y-6078571D01*
X13726428Y-6084286D01*
X13723571Y-6092857D01*
X13689286Y-6127143D01*
X13726428Y-6127143D01*
X13777857Y-6087143D02*
X13777857Y-6127143D01*
X13752143Y-6087143D02*
X13752143Y-6118571D01*
X13755000Y-6124286D01*
X13760714Y-6127143D01*
X13769286Y-6127143D01*
X13775000Y-6124286D01*
X13777857Y-6121428D01*
X13806428Y-6127143D02*
X13806428Y-6067143D01*
X13806428Y-6095714D02*
X13840714Y-6095714D01*
X13840714Y-6127143D02*
X13840714Y-6067143D01*
X12127143Y-6310000D02*
X12098571Y-6330000D01*
X12127143Y-6344286D02*
X12067143Y-6344286D01*
X12067143Y-6321428D01*
X12070000Y-6315714D01*
X12072857Y-6312857D01*
X12078571Y-6310000D01*
X12087143Y-6310000D01*
X12092857Y-6312857D01*
X12095714Y-6315714D01*
X12098571Y-6321428D01*
X12098571Y-6344286D01*
X12127143Y-6252857D02*
X12127143Y-6287143D01*
X12127143Y-6270000D02*
X12067143Y-6270000D01*
X12075714Y-6275714D01*
X12081428Y-6281428D01*
X12084286Y-6287143D01*
X12527143Y-6310714D02*
X12527143Y-6345000D01*
X12527143Y-6327857D02*
X12467143Y-6327857D01*
X12475714Y-6333571D01*
X12481428Y-6339286D01*
X12484286Y-6345000D01*
X12467143Y-6273571D02*
X12467143Y-6267857D01*
X12470000Y-6262143D01*
X12472857Y-6259286D01*
X12478571Y-6256428D01*
X12490000Y-6253571D01*
X12504286Y-6253571D01*
X12515714Y-6256428D01*
X12521428Y-6259286D01*
X12524286Y-6262143D01*
X12527143Y-6267857D01*
X12527143Y-6273571D01*
X12524286Y-6279286D01*
X12521428Y-6282143D01*
X12515714Y-6285000D01*
X12504286Y-6287857D01*
X12490000Y-6287857D01*
X12478571Y-6285000D01*
X12472857Y-6282143D01*
X12470000Y-6279286D01*
X12467143Y-6273571D01*
X12527143Y-6227857D02*
X12467143Y-6227857D01*
X12504286Y-6222143D02*
X12527143Y-6205000D01*
X12487143Y-6205000D02*
X12510000Y-6227857D01*
X12124843Y-6058390D02*
X12096271Y-6078390D01*
X12124843Y-6092676D02*
X12064843Y-6092676D01*
X12064843Y-6069818D01*
X12067700Y-6064104D01*
X12070557Y-6061247D01*
X12076271Y-6058390D01*
X12084843Y-6058390D01*
X12090557Y-6061247D01*
X12093414Y-6064104D01*
X12096271Y-6069818D01*
X12096271Y-6092676D01*
X12070557Y-6035533D02*
X12067700Y-6032676D01*
X12064843Y-6026961D01*
X12064843Y-6012676D01*
X12067700Y-6006961D01*
X12070557Y-6004104D01*
X12076271Y-6001247D01*
X12081986Y-6001247D01*
X12090557Y-6004104D01*
X12124843Y-6038390D01*
X12124843Y-6001247D01*
X12271986Y-6210533D02*
X12237700Y-6210533D01*
X12254843Y-6210533D02*
X12254843Y-6150533D01*
X12249128Y-6159104D01*
X12243414Y-6164818D01*
X12237700Y-6167676D01*
X12309128Y-6150533D02*
X12314843Y-6150533D01*
X12320557Y-6153390D01*
X12323414Y-6156247D01*
X12326271Y-6161961D01*
X12329128Y-6173390D01*
X12329128Y-6187676D01*
X12326271Y-6199104D01*
X12323414Y-6204818D01*
X12320557Y-6207676D01*
X12314843Y-6210533D01*
X12309128Y-6210533D01*
X12303414Y-6207676D01*
X12300557Y-6204818D01*
X12297700Y-6199104D01*
X12294843Y-6187676D01*
X12294843Y-6173390D01*
X12297700Y-6161961D01*
X12300557Y-6156247D01*
X12303414Y-6153390D01*
X12309128Y-6150533D01*
X12354843Y-6210533D02*
X12354843Y-6150533D01*
X12360557Y-6187676D02*
X12377700Y-6210533D01*
X12377700Y-6170533D02*
X12354843Y-6193390D01*
X12127143Y-6485000D02*
X12098571Y-6505000D01*
X12127143Y-6519286D02*
X12067143Y-6519286D01*
X12067143Y-6496428D01*
X12070000Y-6490714D01*
X12072857Y-6487857D01*
X12078571Y-6485000D01*
X12087143Y-6485000D01*
X12092857Y-6487857D01*
X12095714Y-6490714D01*
X12098571Y-6496428D01*
X12098571Y-6519286D01*
X12067143Y-6465000D02*
X12067143Y-6427857D01*
X12090000Y-6447857D01*
X12090000Y-6439286D01*
X12092857Y-6433571D01*
X12095714Y-6430714D01*
X12101428Y-6427857D01*
X12115714Y-6427857D01*
X12121428Y-6430714D01*
X12124286Y-6433571D01*
X12127143Y-6439286D01*
X12127143Y-6456428D01*
X12124286Y-6462143D01*
X12121428Y-6465000D01*
X12527143Y-6510714D02*
X12527143Y-6545000D01*
X12527143Y-6527857D02*
X12467143Y-6527857D01*
X12475714Y-6533571D01*
X12481428Y-6539286D01*
X12484286Y-6545000D01*
X12467143Y-6473571D02*
X12467143Y-6467857D01*
X12470000Y-6462143D01*
X12472857Y-6459286D01*
X12478571Y-6456428D01*
X12490000Y-6453571D01*
X12504286Y-6453571D01*
X12515714Y-6456428D01*
X12521428Y-6459286D01*
X12524286Y-6462143D01*
X12527143Y-6467857D01*
X12527143Y-6473571D01*
X12524286Y-6479286D01*
X12521428Y-6482143D01*
X12515714Y-6485000D01*
X12504286Y-6487857D01*
X12490000Y-6487857D01*
X12478571Y-6485000D01*
X12472857Y-6482143D01*
X12470000Y-6479286D01*
X12467143Y-6473571D01*
X12527143Y-6427857D02*
X12467143Y-6427857D01*
X12504286Y-6422143D02*
X12527143Y-6405000D01*
X12487143Y-6405000D02*
X12510000Y-6427857D01*
X12715000Y-5077143D02*
X12695000Y-5048571D01*
X12680714Y-5077143D02*
X12680714Y-5017143D01*
X12703571Y-5017143D01*
X12709286Y-5020000D01*
X12712143Y-5022857D01*
X12715000Y-5028571D01*
X12715000Y-5037143D01*
X12712143Y-5042857D01*
X12709286Y-5045714D01*
X12703571Y-5048571D01*
X12680714Y-5048571D01*
X12766428Y-5037143D02*
X12766428Y-5077143D01*
X12752143Y-5014286D02*
X12737857Y-5057143D01*
X12775000Y-5057143D01*
X12754286Y-5477143D02*
X12720000Y-5477143D01*
X12737143Y-5477143D02*
X12737143Y-5417143D01*
X12731428Y-5425714D01*
X12725714Y-5431429D01*
X12720000Y-5434286D01*
X12774286Y-5417143D02*
X12811428Y-5417143D01*
X12791428Y-5440000D01*
X12800000Y-5440000D01*
X12805714Y-5442857D01*
X12808571Y-5445714D01*
X12811428Y-5451429D01*
X12811428Y-5465714D01*
X12808571Y-5471429D01*
X12805714Y-5474286D01*
X12800000Y-5477143D01*
X12782857Y-5477143D01*
X12777143Y-5474286D01*
X12774286Y-5471429D01*
X12837143Y-5477143D02*
X12837143Y-5417143D01*
X12842857Y-5454286D02*
X12860000Y-5477143D01*
X12860000Y-5437143D02*
X12837143Y-5460000D01*
X12890000Y-5077143D02*
X12870000Y-5048571D01*
X12855714Y-5077143D02*
X12855714Y-5017143D01*
X12878571Y-5017143D01*
X12884286Y-5020000D01*
X12887143Y-5022857D01*
X12890000Y-5028571D01*
X12890000Y-5037143D01*
X12887143Y-5042857D01*
X12884286Y-5045714D01*
X12878571Y-5048571D01*
X12855714Y-5048571D01*
X12944286Y-5017143D02*
X12915714Y-5017143D01*
X12912857Y-5045714D01*
X12915714Y-5042857D01*
X12921428Y-5040000D01*
X12935714Y-5040000D01*
X12941428Y-5042857D01*
X12944286Y-5045714D01*
X12947143Y-5051429D01*
X12947143Y-5065714D01*
X12944286Y-5071429D01*
X12941428Y-5074286D01*
X12935714Y-5077143D01*
X12921428Y-5077143D01*
X12915714Y-5074286D01*
X12912857Y-5071429D01*
X12944286Y-5437143D02*
X12944286Y-5477143D01*
X12930000Y-5414286D02*
X12915714Y-5457143D01*
X12952857Y-5457143D01*
X12975714Y-5471429D02*
X12978571Y-5474286D01*
X12975714Y-5477143D01*
X12972857Y-5474286D01*
X12975714Y-5471429D01*
X12975714Y-5477143D01*
X12998571Y-5417143D02*
X13038571Y-5417143D01*
X13012857Y-5477143D01*
X13061428Y-5477143D02*
X13061428Y-5417143D01*
X13067143Y-5454286D02*
X13084286Y-5477143D01*
X13084286Y-5437143D02*
X13061428Y-5460000D01*
X12127143Y-5510000D02*
X12098571Y-5530000D01*
X12127143Y-5544286D02*
X12067143Y-5544286D01*
X12067143Y-5521429D01*
X12070000Y-5515714D01*
X12072857Y-5512857D01*
X12078571Y-5510000D01*
X12087143Y-5510000D01*
X12092857Y-5512857D01*
X12095714Y-5515714D01*
X12098571Y-5521429D01*
X12098571Y-5544286D01*
X12067143Y-5458571D02*
X12067143Y-5470000D01*
X12070000Y-5475714D01*
X12072857Y-5478571D01*
X12081428Y-5484286D01*
X12092857Y-5487143D01*
X12115714Y-5487143D01*
X12121428Y-5484286D01*
X12124286Y-5481429D01*
X12127143Y-5475714D01*
X12127143Y-5464286D01*
X12124286Y-5458571D01*
X12121428Y-5455714D01*
X12115714Y-5452857D01*
X12101428Y-5452857D01*
X12095714Y-5455714D01*
X12092857Y-5458571D01*
X12090000Y-5464286D01*
X12090000Y-5475714D01*
X12092857Y-5481429D01*
X12095714Y-5484286D01*
X12101428Y-5487143D01*
X12472857Y-5645000D02*
X12470000Y-5642143D01*
X12467143Y-5636428D01*
X12467143Y-5622143D01*
X12470000Y-5616428D01*
X12472857Y-5613571D01*
X12478571Y-5610714D01*
X12484286Y-5610714D01*
X12492857Y-5613571D01*
X12527143Y-5647857D01*
X12527143Y-5610714D01*
X12472857Y-5587857D02*
X12470000Y-5585000D01*
X12467143Y-5579286D01*
X12467143Y-5565000D01*
X12470000Y-5559286D01*
X12472857Y-5556429D01*
X12478571Y-5553571D01*
X12484286Y-5553571D01*
X12492857Y-5556429D01*
X12527143Y-5590714D01*
X12527143Y-5553571D01*
X12527143Y-5527857D02*
X12467143Y-5527857D01*
X12504286Y-5522143D02*
X12527143Y-5505000D01*
X12487143Y-5505000D02*
X12510000Y-5527857D01*
X12127143Y-5335000D02*
X12098571Y-5355000D01*
X12127143Y-5369286D02*
X12067143Y-5369286D01*
X12067143Y-5346429D01*
X12070000Y-5340714D01*
X12072857Y-5337857D01*
X12078571Y-5335000D01*
X12087143Y-5335000D01*
X12092857Y-5337857D01*
X12095714Y-5340714D01*
X12098571Y-5346429D01*
X12098571Y-5369286D01*
X12067143Y-5315000D02*
X12067143Y-5275000D01*
X12127143Y-5300714D01*
X12247143Y-5167143D02*
X12218571Y-5167143D01*
X12215714Y-5195714D01*
X12218571Y-5192857D01*
X12224286Y-5190000D01*
X12238571Y-5190000D01*
X12244286Y-5192857D01*
X12247143Y-5195714D01*
X12250000Y-5201429D01*
X12250000Y-5215714D01*
X12247143Y-5221429D01*
X12244286Y-5224286D01*
X12238571Y-5227143D01*
X12224286Y-5227143D01*
X12218571Y-5224286D01*
X12215714Y-5221429D01*
X12275714Y-5221429D02*
X12278571Y-5224286D01*
X12275714Y-5227143D01*
X12272857Y-5224286D01*
X12275714Y-5221429D01*
X12275714Y-5227143D01*
X12335714Y-5227143D02*
X12301428Y-5227143D01*
X12318571Y-5227143D02*
X12318571Y-5167143D01*
X12312857Y-5175714D01*
X12307143Y-5181429D01*
X12301428Y-5184286D01*
X12361428Y-5227143D02*
X12361428Y-5167143D01*
X12367143Y-5204286D02*
X12384286Y-5227143D01*
X12384286Y-5187143D02*
X12361428Y-5210000D01*
X12127143Y-5685000D02*
X12098571Y-5705000D01*
X12127143Y-5719286D02*
X12067143Y-5719286D01*
X12067143Y-5696428D01*
X12070000Y-5690714D01*
X12072857Y-5687857D01*
X12078571Y-5685000D01*
X12087143Y-5685000D01*
X12092857Y-5687857D01*
X12095714Y-5690714D01*
X12098571Y-5696428D01*
X12098571Y-5719286D01*
X12092857Y-5650714D02*
X12090000Y-5656428D01*
X12087143Y-5659286D01*
X12081428Y-5662143D01*
X12078571Y-5662143D01*
X12072857Y-5659286D01*
X12070000Y-5656428D01*
X12067143Y-5650714D01*
X12067143Y-5639286D01*
X12070000Y-5633571D01*
X12072857Y-5630714D01*
X12078571Y-5627857D01*
X12081428Y-5627857D01*
X12087143Y-5630714D01*
X12090000Y-5633571D01*
X12092857Y-5639286D01*
X12092857Y-5650714D01*
X12095714Y-5656428D01*
X12098571Y-5659286D01*
X12104286Y-5662143D01*
X12115714Y-5662143D01*
X12121428Y-5659286D01*
X12124286Y-5656428D01*
X12127143Y-5650714D01*
X12127143Y-5639286D01*
X12124286Y-5633571D01*
X12121428Y-5630714D01*
X12115714Y-5627857D01*
X12104286Y-5627857D01*
X12098571Y-5630714D01*
X12095714Y-5633571D01*
X12092857Y-5639286D01*
X12527143Y-5785714D02*
X12527143Y-5820000D01*
X12527143Y-5802857D02*
X12467143Y-5802857D01*
X12475714Y-5808571D01*
X12481428Y-5814286D01*
X12484286Y-5820000D01*
X12492857Y-5751428D02*
X12490000Y-5757143D01*
X12487143Y-5760000D01*
X12481428Y-5762857D01*
X12478571Y-5762857D01*
X12472857Y-5760000D01*
X12470000Y-5757143D01*
X12467143Y-5751428D01*
X12467143Y-5740000D01*
X12470000Y-5734286D01*
X12472857Y-5731428D01*
X12478571Y-5728571D01*
X12481428Y-5728571D01*
X12487143Y-5731428D01*
X12490000Y-5734286D01*
X12492857Y-5740000D01*
X12492857Y-5751428D01*
X12495714Y-5757143D01*
X12498571Y-5760000D01*
X12504286Y-5762857D01*
X12515714Y-5762857D01*
X12521428Y-5760000D01*
X12524286Y-5757143D01*
X12527143Y-5751428D01*
X12527143Y-5740000D01*
X12524286Y-5734286D01*
X12521428Y-5731428D01*
X12515714Y-5728571D01*
X12504286Y-5728571D01*
X12498571Y-5731428D01*
X12495714Y-5734286D01*
X12492857Y-5740000D01*
X12527143Y-5702857D02*
X12467143Y-5702857D01*
X12504286Y-5697143D02*
X12527143Y-5680000D01*
X12487143Y-5680000D02*
X12510000Y-5702857D01*
X14065000Y-6252143D02*
X14045000Y-6223571D01*
X14030714Y-6252143D02*
X14030714Y-6192143D01*
X14053571Y-6192143D01*
X14059286Y-6195000D01*
X14062143Y-6197857D01*
X14065000Y-6203571D01*
X14065000Y-6212143D01*
X14062143Y-6217857D01*
X14059286Y-6220714D01*
X14053571Y-6223571D01*
X14030714Y-6223571D01*
X14093571Y-6252143D02*
X14105000Y-6252143D01*
X14110714Y-6249286D01*
X14113571Y-6246428D01*
X14119286Y-6237857D01*
X14122143Y-6226428D01*
X14122143Y-6203571D01*
X14119286Y-6197857D01*
X14116428Y-6195000D01*
X14110714Y-6192143D01*
X14099286Y-6192143D01*
X14093571Y-6195000D01*
X14090714Y-6197857D01*
X14087857Y-6203571D01*
X14087857Y-6217857D01*
X14090714Y-6223571D01*
X14093571Y-6226428D01*
X14099286Y-6229286D01*
X14110714Y-6229286D01*
X14116428Y-6226428D01*
X14119286Y-6223571D01*
X14122143Y-6217857D01*
X14237143Y-6055714D02*
X14237143Y-6090000D01*
X14237143Y-6072857D02*
X14177143Y-6072857D01*
X14185714Y-6078571D01*
X14191428Y-6084286D01*
X14194286Y-6090000D01*
X14177143Y-6018571D02*
X14177143Y-6012857D01*
X14180000Y-6007143D01*
X14182857Y-6004286D01*
X14188571Y-6001428D01*
X14200000Y-5998571D01*
X14214286Y-5998571D01*
X14225714Y-6001428D01*
X14231428Y-6004286D01*
X14234286Y-6007143D01*
X14237143Y-6012857D01*
X14237143Y-6018571D01*
X14234286Y-6024286D01*
X14231428Y-6027143D01*
X14225714Y-6030000D01*
X14214286Y-6032857D01*
X14200000Y-6032857D01*
X14188571Y-6030000D01*
X14182857Y-6027143D01*
X14180000Y-6024286D01*
X14177143Y-6018571D01*
X14237143Y-5972857D02*
X14177143Y-5972857D01*
X14214286Y-5967143D02*
X14237143Y-5950000D01*
X14197143Y-5950000D02*
X14220000Y-5972857D01*
X14038028Y-5545923D02*
X14018028Y-5517351D01*
X14003743Y-5545923D02*
X14003743Y-5485923D01*
X14026600Y-5485923D01*
X14032314Y-5488780D01*
X14035171Y-5491637D01*
X14038028Y-5497351D01*
X14038028Y-5505923D01*
X14035171Y-5511637D01*
X14032314Y-5514494D01*
X14026600Y-5517351D01*
X14003743Y-5517351D01*
X14095171Y-5545923D02*
X14060886Y-5545923D01*
X14078028Y-5545923D02*
X14078028Y-5485923D01*
X14072314Y-5494494D01*
X14066600Y-5500209D01*
X14060886Y-5503066D01*
X14132314Y-5485923D02*
X14138028Y-5485923D01*
X14143743Y-5488780D01*
X14146600Y-5491637D01*
X14149457Y-5497351D01*
X14152314Y-5508780D01*
X14152314Y-5523066D01*
X14149457Y-5534494D01*
X14146600Y-5540209D01*
X14143743Y-5543066D01*
X14138028Y-5545923D01*
X14132314Y-5545923D01*
X14126600Y-5543066D01*
X14123743Y-5540209D01*
X14120886Y-5534494D01*
X14118028Y-5523066D01*
X14118028Y-5508780D01*
X14120886Y-5497351D01*
X14123743Y-5491637D01*
X14126600Y-5488780D01*
X14132314Y-5485923D01*
X14237183Y-5755714D02*
X14237183Y-5790000D01*
X14237183Y-5772857D02*
X14177183Y-5772857D01*
X14185754Y-5778571D01*
X14191468Y-5784286D01*
X14194326Y-5790000D01*
X14177183Y-5718571D02*
X14177183Y-5712857D01*
X14180040Y-5707143D01*
X14182897Y-5704286D01*
X14188611Y-5701428D01*
X14200040Y-5698571D01*
X14214326Y-5698571D01*
X14225754Y-5701428D01*
X14231468Y-5704286D01*
X14234326Y-5707143D01*
X14237183Y-5712857D01*
X14237183Y-5718571D01*
X14234326Y-5724286D01*
X14231468Y-5727143D01*
X14225754Y-5730000D01*
X14214326Y-5732857D01*
X14200040Y-5732857D01*
X14188611Y-5730000D01*
X14182897Y-5727143D01*
X14180040Y-5724286D01*
X14177183Y-5718571D01*
X14237183Y-5672857D02*
X14177183Y-5672857D01*
X14214326Y-5667143D02*
X14237183Y-5650000D01*
X14197183Y-5650000D02*
X14220040Y-5672857D01*
X11602143Y-5588571D02*
X11573571Y-5608571D01*
X11602143Y-5622857D02*
X11542143Y-5622857D01*
X11542143Y-5600000D01*
X11545000Y-5594286D01*
X11547857Y-5591429D01*
X11553571Y-5588571D01*
X11562143Y-5588571D01*
X11567857Y-5591429D01*
X11570714Y-5594286D01*
X11573571Y-5600000D01*
X11573571Y-5622857D01*
X11602143Y-5531429D02*
X11602143Y-5565714D01*
X11602143Y-5548571D02*
X11542143Y-5548571D01*
X11550714Y-5554286D01*
X11556428Y-5560000D01*
X11559286Y-5565714D01*
X11602143Y-5474286D02*
X11602143Y-5508571D01*
X11602143Y-5491429D02*
X11542143Y-5491429D01*
X11550714Y-5497143D01*
X11556428Y-5502857D01*
X11559286Y-5508571D01*
X11947857Y-5591429D02*
X11945000Y-5588571D01*
X11942143Y-5582857D01*
X11942143Y-5568571D01*
X11945000Y-5562857D01*
X11947857Y-5560000D01*
X11953571Y-5557143D01*
X11959286Y-5557143D01*
X11967857Y-5560000D01*
X12002143Y-5594286D01*
X12002143Y-5557143D01*
X12002143Y-5531429D02*
X11942143Y-5531429D01*
X11979286Y-5525714D02*
X12002143Y-5508571D01*
X11962143Y-5508571D02*
X11985000Y-5531429D01*
X11602143Y-6038571D02*
X11573571Y-6058571D01*
X11602143Y-6072857D02*
X11542143Y-6072857D01*
X11542143Y-6050000D01*
X11545000Y-6044286D01*
X11547857Y-6041428D01*
X11553571Y-6038571D01*
X11562143Y-6038571D01*
X11567857Y-6041428D01*
X11570714Y-6044286D01*
X11573571Y-6050000D01*
X11573571Y-6072857D01*
X11602143Y-5981428D02*
X11602143Y-6015714D01*
X11602143Y-5998571D02*
X11542143Y-5998571D01*
X11550714Y-6004286D01*
X11556428Y-6010000D01*
X11559286Y-6015714D01*
X11547857Y-5958571D02*
X11545000Y-5955714D01*
X11542143Y-5950000D01*
X11542143Y-5935714D01*
X11545000Y-5930000D01*
X11547857Y-5927143D01*
X11553571Y-5924286D01*
X11559286Y-5924286D01*
X11567857Y-5927143D01*
X11602143Y-5961428D01*
X11602143Y-5924286D01*
X11947857Y-5991428D02*
X11945000Y-5988571D01*
X11942143Y-5982857D01*
X11942143Y-5968571D01*
X11945000Y-5962857D01*
X11947857Y-5960000D01*
X11953571Y-5957143D01*
X11959286Y-5957143D01*
X11967857Y-5960000D01*
X12002143Y-5994286D01*
X12002143Y-5957143D01*
X12002143Y-5931428D02*
X11942143Y-5931428D01*
X11979286Y-5925714D02*
X12002143Y-5908571D01*
X11962143Y-5908571D02*
X11985000Y-5931428D01*
X11602143Y-6538571D02*
X11573571Y-6558571D01*
X11602143Y-6572857D02*
X11542143Y-6572857D01*
X11542143Y-6550000D01*
X11545000Y-6544286D01*
X11547857Y-6541428D01*
X11553571Y-6538571D01*
X11562143Y-6538571D01*
X11567857Y-6541428D01*
X11570714Y-6544286D01*
X11573571Y-6550000D01*
X11573571Y-6572857D01*
X11602143Y-6481428D02*
X11602143Y-6515714D01*
X11602143Y-6498571D02*
X11542143Y-6498571D01*
X11550714Y-6504286D01*
X11556428Y-6510000D01*
X11559286Y-6515714D01*
X11542143Y-6461428D02*
X11542143Y-6424286D01*
X11565000Y-6444286D01*
X11565000Y-6435714D01*
X11567857Y-6430000D01*
X11570714Y-6427143D01*
X11576428Y-6424286D01*
X11590714Y-6424286D01*
X11596428Y-6427143D01*
X11599286Y-6430000D01*
X11602143Y-6435714D01*
X11602143Y-6452857D01*
X11599286Y-6458571D01*
X11596428Y-6461428D01*
X11947857Y-6541428D02*
X11945000Y-6538571D01*
X11942143Y-6532857D01*
X11942143Y-6518571D01*
X11945000Y-6512857D01*
X11947857Y-6510000D01*
X11953571Y-6507143D01*
X11959286Y-6507143D01*
X11967857Y-6510000D01*
X12002143Y-6544286D01*
X12002143Y-6507143D01*
X12002143Y-6481428D02*
X11942143Y-6481428D01*
X11979286Y-6475714D02*
X12002143Y-6458571D01*
X11962143Y-6458571D02*
X11985000Y-6481428D01*
X13161428Y-6252143D02*
X13141428Y-6223571D01*
X13127143Y-6252143D02*
X13127143Y-6192143D01*
X13150000Y-6192143D01*
X13155714Y-6195000D01*
X13158571Y-6197857D01*
X13161428Y-6203571D01*
X13161428Y-6212143D01*
X13158571Y-6217857D01*
X13155714Y-6220714D01*
X13150000Y-6223571D01*
X13127143Y-6223571D01*
X13218571Y-6252143D02*
X13184286Y-6252143D01*
X13201428Y-6252143D02*
X13201428Y-6192143D01*
X13195714Y-6200714D01*
X13190000Y-6206428D01*
X13184286Y-6209286D01*
X13270000Y-6212143D02*
X13270000Y-6252143D01*
X13255714Y-6189286D02*
X13241428Y-6232143D01*
X13278571Y-6232143D01*
X13164286Y-6352143D02*
X13130000Y-6352143D01*
X13147143Y-6352143D02*
X13147143Y-6292143D01*
X13141428Y-6300714D01*
X13135714Y-6306428D01*
X13130000Y-6309286D01*
X13218571Y-6292143D02*
X13190000Y-6292143D01*
X13187143Y-6320714D01*
X13190000Y-6317857D01*
X13195714Y-6315000D01*
X13210000Y-6315000D01*
X13215714Y-6317857D01*
X13218571Y-6320714D01*
X13221428Y-6326428D01*
X13221428Y-6340714D01*
X13218571Y-6346428D01*
X13215714Y-6349286D01*
X13210000Y-6352143D01*
X13195714Y-6352143D01*
X13190000Y-6349286D01*
X13187143Y-6346428D01*
X13247143Y-6352143D02*
X13247143Y-6292143D01*
X13252857Y-6329286D02*
X13270000Y-6352143D01*
X13270000Y-6312143D02*
X13247143Y-6335000D01*
X12986428Y-6252143D02*
X12966428Y-6223571D01*
X12952143Y-6252143D02*
X12952143Y-6192143D01*
X12975000Y-6192143D01*
X12980714Y-6195000D01*
X12983571Y-6197857D01*
X12986428Y-6203571D01*
X12986428Y-6212143D01*
X12983571Y-6217857D01*
X12980714Y-6220714D01*
X12975000Y-6223571D01*
X12952143Y-6223571D01*
X13043571Y-6252143D02*
X13009286Y-6252143D01*
X13026428Y-6252143D02*
X13026428Y-6192143D01*
X13020714Y-6200714D01*
X13015000Y-6206428D01*
X13009286Y-6209286D01*
X13097857Y-6192143D02*
X13069286Y-6192143D01*
X13066428Y-6220714D01*
X13069286Y-6217857D01*
X13075000Y-6215000D01*
X13089286Y-6215000D01*
X13095000Y-6217857D01*
X13097857Y-6220714D01*
X13100714Y-6226428D01*
X13100714Y-6240714D01*
X13097857Y-6246428D01*
X13095000Y-6249286D01*
X13089286Y-6252143D01*
X13075000Y-6252143D01*
X13069286Y-6249286D01*
X13066428Y-6246428D01*
X12969286Y-6312143D02*
X12969286Y-6352143D01*
X12955000Y-6289286D02*
X12940714Y-6332143D01*
X12977857Y-6332143D01*
X13000714Y-6346428D02*
X13003571Y-6349286D01*
X13000714Y-6352143D01*
X12997857Y-6349286D01*
X13000714Y-6346428D01*
X13000714Y-6352143D01*
X13023571Y-6292143D02*
X13063571Y-6292143D01*
X13037857Y-6352143D01*
X13086428Y-6352143D02*
X13086428Y-6292143D01*
X13092143Y-6329286D02*
X13109286Y-6352143D01*
X13109286Y-6312143D02*
X13086428Y-6335000D01*
X13377143Y-5363571D02*
X13348571Y-5383571D01*
X13377143Y-5397857D02*
X13317143Y-5397857D01*
X13317143Y-5375000D01*
X13320000Y-5369286D01*
X13322857Y-5366429D01*
X13328571Y-5363571D01*
X13337143Y-5363571D01*
X13342857Y-5366429D01*
X13345714Y-5369286D01*
X13348571Y-5375000D01*
X13348571Y-5397857D01*
X13377143Y-5306429D02*
X13377143Y-5340714D01*
X13377143Y-5323571D02*
X13317143Y-5323571D01*
X13325714Y-5329286D01*
X13331428Y-5335000D01*
X13334286Y-5340714D01*
X13317143Y-5255000D02*
X13317143Y-5266429D01*
X13320000Y-5272143D01*
X13322857Y-5275000D01*
X13331428Y-5280714D01*
X13342857Y-5283571D01*
X13365714Y-5283571D01*
X13371428Y-5280714D01*
X13374286Y-5277857D01*
X13377143Y-5272143D01*
X13377143Y-5260714D01*
X13374286Y-5255000D01*
X13371428Y-5252143D01*
X13365714Y-5249286D01*
X13351428Y-5249286D01*
X13345714Y-5252143D01*
X13342857Y-5255000D01*
X13340000Y-5260714D01*
X13340000Y-5272143D01*
X13342857Y-5277857D01*
X13345714Y-5280714D01*
X13351428Y-5283571D01*
X13161428Y-5417143D02*
X13132857Y-5417143D01*
X13130000Y-5445714D01*
X13132857Y-5442857D01*
X13138571Y-5440000D01*
X13152857Y-5440000D01*
X13158571Y-5442857D01*
X13161428Y-5445714D01*
X13164286Y-5451429D01*
X13164286Y-5465714D01*
X13161428Y-5471429D01*
X13158571Y-5474286D01*
X13152857Y-5477143D01*
X13138571Y-5477143D01*
X13132857Y-5474286D01*
X13130000Y-5471429D01*
X13221428Y-5477143D02*
X13187143Y-5477143D01*
X13204286Y-5477143D02*
X13204286Y-5417143D01*
X13198571Y-5425714D01*
X13192857Y-5431429D01*
X13187143Y-5434286D01*
X13247143Y-5477143D02*
X13247143Y-5417143D01*
X13252857Y-5454286D02*
X13270000Y-5477143D01*
X13270000Y-5437143D02*
X13247143Y-5460000D01*
X13802143Y-5663571D02*
X13773571Y-5683571D01*
X13802143Y-5697857D02*
X13742143Y-5697857D01*
X13742143Y-5675000D01*
X13745000Y-5669286D01*
X13747857Y-5666428D01*
X13753571Y-5663571D01*
X13762143Y-5663571D01*
X13767857Y-5666428D01*
X13770714Y-5669286D01*
X13773571Y-5675000D01*
X13773571Y-5697857D01*
X13802143Y-5606428D02*
X13802143Y-5640714D01*
X13802143Y-5623571D02*
X13742143Y-5623571D01*
X13750714Y-5629286D01*
X13756428Y-5635000D01*
X13759286Y-5640714D01*
X13767857Y-5572143D02*
X13765000Y-5577857D01*
X13762143Y-5580714D01*
X13756428Y-5583571D01*
X13753571Y-5583571D01*
X13747857Y-5580714D01*
X13745000Y-5577857D01*
X13742143Y-5572143D01*
X13742143Y-5560714D01*
X13745000Y-5555000D01*
X13747857Y-5552143D01*
X13753571Y-5549286D01*
X13756428Y-5549286D01*
X13762143Y-5552143D01*
X13765000Y-5555000D01*
X13767857Y-5560714D01*
X13767857Y-5572143D01*
X13770714Y-5577857D01*
X13773571Y-5580714D01*
X13779286Y-5583571D01*
X13790714Y-5583571D01*
X13796428Y-5580714D01*
X13799286Y-5577857D01*
X13802143Y-5572143D01*
X13802143Y-5560714D01*
X13799286Y-5555000D01*
X13796428Y-5552143D01*
X13790714Y-5549286D01*
X13779286Y-5549286D01*
X13773571Y-5552143D01*
X13770714Y-5555000D01*
X13767857Y-5560714D01*
X13682143Y-5432143D02*
X13687857Y-5432143D01*
X13693571Y-5435000D01*
X13696428Y-5437857D01*
X13699286Y-5443571D01*
X13702143Y-5455000D01*
X13702143Y-5469286D01*
X13699286Y-5480714D01*
X13696428Y-5486429D01*
X13693571Y-5489286D01*
X13687857Y-5492143D01*
X13682143Y-5492143D01*
X13676428Y-5489286D01*
X13673571Y-5486429D01*
X13670714Y-5480714D01*
X13667857Y-5469286D01*
X13667857Y-5455000D01*
X13670714Y-5443571D01*
X13673571Y-5437857D01*
X13676428Y-5435000D01*
X13682143Y-5432143D01*
X13727857Y-5486429D02*
X13730714Y-5489286D01*
X13727857Y-5492143D01*
X13725000Y-5489286D01*
X13727857Y-5486429D01*
X13727857Y-5492143D01*
X13767857Y-5432143D02*
X13773571Y-5432143D01*
X13779286Y-5435000D01*
X13782143Y-5437857D01*
X13785000Y-5443571D01*
X13787857Y-5455000D01*
X13787857Y-5469286D01*
X13785000Y-5480714D01*
X13782143Y-5486429D01*
X13779286Y-5489286D01*
X13773571Y-5492143D01*
X13767857Y-5492143D01*
X13762143Y-5489286D01*
X13759286Y-5486429D01*
X13756428Y-5480714D01*
X13753571Y-5469286D01*
X13753571Y-5455000D01*
X13756428Y-5443571D01*
X13759286Y-5437857D01*
X13762143Y-5435000D01*
X13767857Y-5432143D01*
X13810714Y-5437857D02*
X13813571Y-5435000D01*
X13819286Y-5432143D01*
X13833571Y-5432143D01*
X13839286Y-5435000D01*
X13842143Y-5437857D01*
X13845000Y-5443571D01*
X13845000Y-5449286D01*
X13842143Y-5457857D01*
X13807857Y-5492143D01*
X13845000Y-5492143D01*
X13870714Y-5492143D02*
X13870714Y-5452143D01*
X13870714Y-5463571D02*
X13873571Y-5457857D01*
X13876428Y-5455000D01*
X13882143Y-5452143D01*
X13887857Y-5452143D01*
X10320000Y-5158571D02*
X10411429Y-5158571D01*
X10365714Y-5204286D02*
X10365714Y-5112857D01*
X10451429Y-5084286D02*
X10491429Y-5204286D01*
X10531429Y-5084286D01*
X10571429Y-5204286D02*
X10571429Y-5124286D01*
X10571429Y-5084286D02*
X10565714Y-5090000D01*
X10571429Y-5095714D01*
X10577143Y-5090000D01*
X10571429Y-5084286D01*
X10571429Y-5095714D01*
X10628571Y-5124286D02*
X10628571Y-5204286D01*
X10628571Y-5135714D02*
X10634286Y-5130000D01*
X10645714Y-5124286D01*
X10662857Y-5124286D01*
X10674286Y-5130000D01*
X10680000Y-5141429D01*
X10680000Y-5204286D01*
X12217143Y-6728571D02*
X12277143Y-6688571D01*
X12217143Y-6688571D02*
X12277143Y-6728571D01*
X12277143Y-6665714D02*
X12217143Y-6665714D01*
X12217143Y-6642857D01*
X12220000Y-6637143D01*
X12222857Y-6634286D01*
X12228571Y-6631428D01*
X12237143Y-6631428D01*
X12242857Y-6634286D01*
X12245714Y-6637143D01*
X12248571Y-6642857D01*
X12248571Y-6665714D01*
X12237143Y-6580000D02*
X12277143Y-6580000D01*
X12214286Y-6594286D02*
X12257143Y-6608571D01*
X12257143Y-6571428D01*
X12752143Y-6695714D02*
X12760714Y-6698571D01*
X12763571Y-6701428D01*
X12766428Y-6707143D01*
X12766428Y-6715714D01*
X12763571Y-6721428D01*
X12760714Y-6724286D01*
X12755000Y-6727143D01*
X12732143Y-6727143D01*
X12732143Y-6667143D01*
X12752143Y-6667143D01*
X12757857Y-6670000D01*
X12760714Y-6672857D01*
X12763571Y-6678571D01*
X12763571Y-6684286D01*
X12760714Y-6690000D01*
X12757857Y-6692857D01*
X12752143Y-6695714D01*
X12732143Y-6695714D01*
X12800714Y-6727143D02*
X12795000Y-6724286D01*
X12792143Y-6721428D01*
X12789286Y-6715714D01*
X12789286Y-6698571D01*
X12792143Y-6692857D01*
X12795000Y-6690000D01*
X12800714Y-6687143D01*
X12809286Y-6687143D01*
X12815000Y-6690000D01*
X12817857Y-6692857D01*
X12820714Y-6698571D01*
X12820714Y-6715714D01*
X12817857Y-6721428D01*
X12815000Y-6724286D01*
X12809286Y-6727143D01*
X12800714Y-6727143D01*
X12855000Y-6727143D02*
X12849286Y-6724286D01*
X12846428Y-6721428D01*
X12843571Y-6715714D01*
X12843571Y-6698571D01*
X12846428Y-6692857D01*
X12849286Y-6690000D01*
X12855000Y-6687143D01*
X12863571Y-6687143D01*
X12869286Y-6690000D01*
X12872143Y-6692857D01*
X12875000Y-6698571D01*
X12875000Y-6715714D01*
X12872143Y-6721428D01*
X12869286Y-6724286D01*
X12863571Y-6727143D01*
X12855000Y-6727143D01*
X12897857Y-6724286D02*
X12903571Y-6727143D01*
X12915000Y-6727143D01*
X12920714Y-6724286D01*
X12923571Y-6718571D01*
X12923571Y-6715714D01*
X12920714Y-6710000D01*
X12915000Y-6707143D01*
X12906428Y-6707143D01*
X12900714Y-6704286D01*
X12897857Y-6698571D01*
X12897857Y-6695714D01*
X12900714Y-6690000D01*
X12906428Y-6687143D01*
X12915000Y-6687143D01*
X12920714Y-6690000D01*
X12940714Y-6687143D02*
X12963571Y-6687143D01*
X12949286Y-6667143D02*
X12949286Y-6718571D01*
X12952143Y-6724286D01*
X12957857Y-6727143D01*
X12963571Y-6727143D01*
X13029286Y-6695714D02*
X13049286Y-6695714D01*
X13057857Y-6727143D02*
X13029286Y-6727143D01*
X13029286Y-6667143D01*
X13057857Y-6667143D01*
X13083571Y-6727143D02*
X13083571Y-6667143D01*
X13117857Y-6727143D01*
X13117857Y-6667143D01*
X14446428Y-6667143D02*
X14486428Y-6727143D01*
X14486428Y-6667143D02*
X14446428Y-6727143D01*
X14509286Y-6727143D02*
X14509286Y-6667143D01*
X14532143Y-6667143D01*
X14537857Y-6670000D01*
X14540714Y-6672857D01*
X14543571Y-6678571D01*
X14543571Y-6687143D01*
X14540714Y-6692857D01*
X14537857Y-6695714D01*
X14532143Y-6698571D01*
X14509286Y-6698571D01*
X14597857Y-6667143D02*
X14569286Y-6667143D01*
X14566428Y-6695714D01*
X14569286Y-6692857D01*
X14575000Y-6690000D01*
X14589286Y-6690000D01*
X14595000Y-6692857D01*
X14597857Y-6695714D01*
X14600714Y-6701428D01*
X14600714Y-6715714D01*
X14597857Y-6721428D01*
X14595000Y-6724286D01*
X14589286Y-6727143D01*
X14575000Y-6727143D01*
X14569286Y-6724286D01*
X14566428Y-6721428D01*
X14167143Y-6580714D02*
X14167143Y-6609286D01*
X14195714Y-6612143D01*
X14192857Y-6609286D01*
X14190000Y-6603571D01*
X14190000Y-6589286D01*
X14192857Y-6583571D01*
X14195714Y-6580714D01*
X14201428Y-6577857D01*
X14215714Y-6577857D01*
X14221428Y-6580714D01*
X14224286Y-6583571D01*
X14227143Y-6589286D01*
X14227143Y-6603571D01*
X14224286Y-6609286D01*
X14221428Y-6612143D01*
X14167143Y-6560714D02*
X14227143Y-6540714D01*
X14167143Y-6520714D01*
X14227143Y-6446428D02*
X14224286Y-6452143D01*
X14221428Y-6455000D01*
X14215714Y-6457857D01*
X14198571Y-6457857D01*
X14192857Y-6455000D01*
X14190000Y-6452143D01*
X14187143Y-6446428D01*
X14187143Y-6437857D01*
X14190000Y-6432143D01*
X14192857Y-6429286D01*
X14198571Y-6426428D01*
X14215714Y-6426428D01*
X14221428Y-6429286D01*
X14224286Y-6432143D01*
X14227143Y-6437857D01*
X14227143Y-6446428D01*
X14187143Y-6375000D02*
X14227143Y-6375000D01*
X14187143Y-6400714D02*
X14218571Y-6400714D01*
X14224286Y-6397857D01*
X14227143Y-6392143D01*
X14227143Y-6383571D01*
X14224286Y-6377857D01*
X14221428Y-6375000D01*
X14187143Y-6355000D02*
X14187143Y-6332143D01*
X14167143Y-6346428D02*
X14218571Y-6346428D01*
X14224286Y-6343571D01*
X14227143Y-6337857D01*
X14227143Y-6332143D01*
D13*
X14310714Y-6557143D02*
X14310714Y-6442857D01*
X14310714Y-6307143D02*
X14310714Y-6192857D01*
X14367857Y-6250000D02*
X14253571Y-6250000D01*
D11*
X13202143Y-5163571D02*
X13173571Y-5183571D01*
X13202143Y-5197857D02*
X13142143Y-5197857D01*
X13142143Y-5175000D01*
X13145000Y-5169286D01*
X13147857Y-5166429D01*
X13153571Y-5163571D01*
X13162143Y-5163571D01*
X13167857Y-5166429D01*
X13170714Y-5169286D01*
X13173571Y-5175000D01*
X13173571Y-5197857D01*
X13202143Y-5106429D02*
X13202143Y-5140714D01*
X13202143Y-5123571D02*
X13142143Y-5123571D01*
X13150714Y-5129286D01*
X13156428Y-5135000D01*
X13159286Y-5140714D01*
X13142143Y-5086429D02*
X13142143Y-5046429D01*
X13202143Y-5072143D01*
X13392143Y-5163571D02*
X13392143Y-5192143D01*
X13420714Y-5195000D01*
X13417857Y-5192143D01*
X13415000Y-5186429D01*
X13415000Y-5172143D01*
X13417857Y-5166429D01*
X13420714Y-5163571D01*
X13426428Y-5160714D01*
X13440714Y-5160714D01*
X13446428Y-5163571D01*
X13449286Y-5166429D01*
X13452143Y-5172143D01*
X13452143Y-5186429D01*
X13449286Y-5192143D01*
X13446428Y-5195000D01*
X13452143Y-5103571D02*
X13452143Y-5137857D01*
X13452143Y-5120714D02*
X13392143Y-5120714D01*
X13400714Y-5126429D01*
X13406428Y-5132143D01*
X13409286Y-5137857D01*
X13452143Y-5077857D02*
X13392143Y-5077857D01*
X13429286Y-5072143D02*
X13452143Y-5055000D01*
X13412143Y-5055000D02*
X13435000Y-5077857D01*
X11790000Y-6667143D02*
X11810000Y-6727143D01*
X11830000Y-6667143D01*
X11884286Y-6721428D02*
X11881428Y-6724286D01*
X11872857Y-6727143D01*
X11867143Y-6727143D01*
X11858571Y-6724286D01*
X11852857Y-6718571D01*
X11850000Y-6712857D01*
X11847143Y-6701428D01*
X11847143Y-6692857D01*
X11850000Y-6681428D01*
X11852857Y-6675714D01*
X11858571Y-6670000D01*
X11867143Y-6667143D01*
X11872857Y-6667143D01*
X11881428Y-6670000D01*
X11884286Y-6672857D01*
X11944286Y-6721428D02*
X11941428Y-6724286D01*
X11932857Y-6727143D01*
X11927143Y-6727143D01*
X11918571Y-6724286D01*
X11912857Y-6718571D01*
X11910000Y-6712857D01*
X11907143Y-6701428D01*
X11907143Y-6692857D01*
X11910000Y-6681428D01*
X11912857Y-6675714D01*
X11918571Y-6670000D01*
X11927143Y-6667143D01*
X11932857Y-6667143D01*
X11941428Y-6670000D01*
X11944286Y-6672857D01*
X13261428Y-5640000D02*
X13264286Y-5642857D01*
X13267143Y-5651428D01*
X13267143Y-5657143D01*
X13264286Y-5665714D01*
X13258571Y-5671428D01*
X13252857Y-5674286D01*
X13241428Y-5677143D01*
X13232857Y-5677143D01*
X13221428Y-5674286D01*
X13215714Y-5671428D01*
X13210000Y-5665714D01*
X13207143Y-5657143D01*
X13207143Y-5651428D01*
X13210000Y-5642857D01*
X13212857Y-5640000D01*
X13232857Y-5605714D02*
X13230000Y-5611428D01*
X13227143Y-5614286D01*
X13221428Y-5617143D01*
X13218571Y-5617143D01*
X13212857Y-5614286D01*
X13210000Y-5611428D01*
X13207143Y-5605714D01*
X13207143Y-5594286D01*
X13210000Y-5588571D01*
X13212857Y-5585714D01*
X13218571Y-5582857D01*
X13221428Y-5582857D01*
X13227143Y-5585714D01*
X13230000Y-5588571D01*
X13232857Y-5594286D01*
X13232857Y-5605714D01*
X13235714Y-5611428D01*
X13238571Y-5614286D01*
X13244286Y-5617143D01*
X13255714Y-5617143D01*
X13261428Y-5614286D01*
X13264286Y-5611428D01*
X13267143Y-5605714D01*
X13267143Y-5594286D01*
X13264286Y-5588571D01*
X13261428Y-5585714D01*
X13255714Y-5582857D01*
X13244286Y-5582857D01*
X13238571Y-5585714D01*
X13235714Y-5588571D01*
X13232857Y-5594286D01*
X13487857Y-5673571D02*
X13485000Y-5670714D01*
X13482143Y-5665000D01*
X13482143Y-5650714D01*
X13485000Y-5645000D01*
X13487857Y-5642143D01*
X13493571Y-5639286D01*
X13499286Y-5639286D01*
X13507857Y-5642143D01*
X13542143Y-5676428D01*
X13542143Y-5639286D01*
X13487857Y-5616428D02*
X13485000Y-5613571D01*
X13482143Y-5607857D01*
X13482143Y-5593571D01*
X13485000Y-5587857D01*
X13487857Y-5585000D01*
X13493571Y-5582143D01*
X13499286Y-5582143D01*
X13507857Y-5585000D01*
X13542143Y-5619286D01*
X13542143Y-5582143D01*
X13502143Y-5530714D02*
X13542143Y-5530714D01*
X13502143Y-5556429D02*
X13533571Y-5556429D01*
X13539286Y-5553571D01*
X13542143Y-5547857D01*
X13542143Y-5539286D01*
X13539286Y-5533571D01*
X13536428Y-5530714D01*
X13510714Y-5482143D02*
X13510714Y-5502143D01*
X13542143Y-5502143D02*
X13482143Y-5502143D01*
X13482143Y-5473571D01*
X13796428Y-5235000D02*
X13799286Y-5237857D01*
X13802143Y-5246429D01*
X13802143Y-5252143D01*
X13799286Y-5260714D01*
X13793571Y-5266429D01*
X13787857Y-5269286D01*
X13776428Y-5272143D01*
X13767857Y-5272143D01*
X13756428Y-5269286D01*
X13750714Y-5266429D01*
X13745000Y-5260714D01*
X13742143Y-5252143D01*
X13742143Y-5246429D01*
X13745000Y-5237857D01*
X13747857Y-5235000D01*
X13802143Y-5206429D02*
X13802143Y-5195000D01*
X13799286Y-5189286D01*
X13796428Y-5186429D01*
X13787857Y-5180714D01*
X13776428Y-5177857D01*
X13753571Y-5177857D01*
X13747857Y-5180714D01*
X13745000Y-5183571D01*
X13742143Y-5189286D01*
X13742143Y-5200714D01*
X13745000Y-5206429D01*
X13747857Y-5209286D01*
X13753571Y-5212143D01*
X13767857Y-5212143D01*
X13773571Y-5209286D01*
X13776428Y-5206429D01*
X13779286Y-5200714D01*
X13779286Y-5189286D01*
X13776428Y-5183571D01*
X13773571Y-5180714D01*
X13767857Y-5177857D01*
X13992857Y-5318571D02*
X13990000Y-5315714D01*
X13987143Y-5310000D01*
X13987143Y-5295714D01*
X13990000Y-5290000D01*
X13992857Y-5287143D01*
X13998571Y-5284286D01*
X14004286Y-5284286D01*
X14012857Y-5287143D01*
X14047143Y-5321429D01*
X14047143Y-5284286D01*
X13992857Y-5261429D02*
X13990000Y-5258571D01*
X13987143Y-5252857D01*
X13987143Y-5238571D01*
X13990000Y-5232857D01*
X13992857Y-5230000D01*
X13998571Y-5227143D01*
X14004286Y-5227143D01*
X14012857Y-5230000D01*
X14047143Y-5264286D01*
X14047143Y-5227143D01*
X14007143Y-5175714D02*
X14047143Y-5175714D01*
X14007143Y-5201429D02*
X14038571Y-5201429D01*
X14044286Y-5198571D01*
X14047143Y-5192857D01*
X14047143Y-5184286D01*
X14044286Y-5178571D01*
X14041428Y-5175714D01*
X14015714Y-5127143D02*
X14015714Y-5147143D01*
X14047143Y-5147143D02*
X13987143Y-5147143D01*
X13987143Y-5118571D01*
X14207143Y-5070000D02*
X14201428Y-5067143D01*
X14192857Y-5067143D01*
X14184286Y-5070000D01*
X14178571Y-5075714D01*
X14175714Y-5081429D01*
X14172857Y-5092857D01*
X14172857Y-5101429D01*
X14175714Y-5112857D01*
X14178571Y-5118571D01*
X14184286Y-5124286D01*
X14192857Y-5127143D01*
X14198571Y-5127143D01*
X14207143Y-5124286D01*
X14210000Y-5121429D01*
X14210000Y-5101429D01*
X14198571Y-5101429D01*
X14255714Y-5095714D02*
X14264286Y-5098571D01*
X14267143Y-5101429D01*
X14270000Y-5107143D01*
X14270000Y-5115714D01*
X14267143Y-5121429D01*
X14264286Y-5124286D01*
X14258571Y-5127143D01*
X14235714Y-5127143D01*
X14235714Y-5067143D01*
X14255714Y-5067143D01*
X14261428Y-5070000D01*
X14264286Y-5072857D01*
X14267143Y-5078571D01*
X14267143Y-5084286D01*
X14264286Y-5090000D01*
X14261428Y-5092857D01*
X14255714Y-5095714D01*
X14235714Y-5095714D01*
X14327143Y-5127143D02*
X14292857Y-5127143D01*
X14310000Y-5127143D02*
X14310000Y-5067143D01*
X14304286Y-5075714D01*
X14298571Y-5081429D01*
X14292857Y-5084286D01*
X14177143Y-5401429D02*
X14177143Y-5430000D01*
X14117143Y-5430000D01*
X14177143Y-5381429D02*
X14137143Y-5381429D01*
X14117143Y-5381429D02*
X14120000Y-5384286D01*
X14122857Y-5381429D01*
X14120000Y-5378571D01*
X14117143Y-5381429D01*
X14122857Y-5381429D01*
X14154286Y-5352857D02*
X14154286Y-5307143D01*
X14177143Y-5278571D02*
X14137143Y-5278571D01*
X14117143Y-5278571D02*
X14120000Y-5281429D01*
X14122857Y-5278571D01*
X14120000Y-5275714D01*
X14117143Y-5278571D01*
X14122857Y-5278571D01*
X14177143Y-5241429D02*
X14174286Y-5247143D01*
X14171428Y-5250000D01*
X14165714Y-5252857D01*
X14148571Y-5252857D01*
X14142857Y-5250000D01*
X14140000Y-5247143D01*
X14137143Y-5241429D01*
X14137143Y-5232857D01*
X14140000Y-5227143D01*
X14142857Y-5224286D01*
X14148571Y-5221429D01*
X14165714Y-5221429D01*
X14171428Y-5224286D01*
X14174286Y-5227143D01*
X14177143Y-5232857D01*
X14177143Y-5241429D01*
X14137143Y-5195714D02*
X14177143Y-5195714D01*
X14142857Y-5195714D02*
X14140000Y-5192857D01*
X14137143Y-5187143D01*
X14137143Y-5178571D01*
X14140000Y-5172857D01*
X14145714Y-5170000D01*
X14177143Y-5170000D01*
D13*
X14310714Y-5532143D02*
X14310714Y-5417857D01*
X14310714Y-5282143D02*
X14310714Y-5167857D01*
X14367857Y-5225000D02*
X14253571Y-5225000D01*
D11*
X14292143Y-6053571D02*
X14352143Y-6013571D01*
X14292143Y-6013571D02*
X14352143Y-6053571D01*
X14352143Y-5990714D02*
X14292143Y-5990714D01*
X14292143Y-5967857D01*
X14295000Y-5962143D01*
X14297857Y-5959286D01*
X14303571Y-5956428D01*
X14312143Y-5956428D01*
X14317857Y-5959286D01*
X14320714Y-5962143D01*
X14323571Y-5967857D01*
X14323571Y-5990714D01*
X14292143Y-5936428D02*
X14292143Y-5899286D01*
X14315000Y-5919286D01*
X14315000Y-5910714D01*
X14317857Y-5905000D01*
X14320714Y-5902143D01*
X14326428Y-5899286D01*
X14340714Y-5899286D01*
X14346428Y-5902143D01*
X14349286Y-5905000D01*
X14352143Y-5910714D01*
X14352143Y-5927857D01*
X14349286Y-5933571D01*
X14346428Y-5936428D01*
X14352143Y-5820000D02*
X14292143Y-5820000D01*
X14352143Y-5785714D01*
X14292143Y-5785714D01*
X14292143Y-5765714D02*
X14292143Y-5731428D01*
X14352143Y-5748571D02*
X14292143Y-5748571D01*
X14346428Y-5677143D02*
X14349286Y-5680000D01*
X14352143Y-5688571D01*
X14352143Y-5694286D01*
X14349286Y-5702857D01*
X14343571Y-5708571D01*
X14337857Y-5711428D01*
X14326428Y-5714286D01*
X14317857Y-5714286D01*
X14306428Y-5711428D01*
X14300714Y-5708571D01*
X14295000Y-5702857D01*
X14292143Y-5694286D01*
X14292143Y-5688571D01*
X14295000Y-5680000D01*
X14297857Y-5677143D01*
M02*
