G04 #@! TF.GenerationSoftware,KiCad,Pcbnew,(5.0.0-rc2-dev-596-gcfd2f1d00)*
G04 #@! TF.CreationDate,2018-08-25T14:54:55+02:00*
G04 #@! TF.ProjectId,MP2637,4D50323633372E6B696361645F706362,rev?*
G04 #@! TF.SameCoordinates,Original*
G04 #@! TF.FileFunction,Copper,L2,Bot,Signal*
G04 #@! TF.FilePolarity,Positive*
%FSLAX45Y45*%
G04 Gerber Fmt 4.5, Leading zero omitted, Abs format (unit mm)*
G04 Created by KiCad (PCBNEW (5.0.0-rc2-dev-596-gcfd2f1d00)) date 08/25/18 14:54:55*
%MOMM*%
%LPD*%
G01*
G04 APERTURE LIST*
%ADD10C,0.500000*%
%ADD11C,0.900000*%
%ADD12C,0.400000*%
%ADD13C,1.500000*%
%ADD14C,5.000000*%
%ADD15R,1.500000X1.500000*%
%ADD16R,1.400000X1.400000*%
%ADD17C,1.400000*%
%ADD18C,0.500000*%
%ADD19C,0.700000*%
%ADD20C,0.200000*%
%ADD21C,0.700000*%
%ADD22C,0.300000*%
G04 APERTURE END LIST*
D10*
X13075000Y-5800000D02*
X13075000Y-5700000D01*
D11*
X10525000Y-6095000D03*
X10525000Y-5655000D03*
D12*
X10365000Y-5680000D03*
X10365000Y-6070000D03*
D13*
X10150000Y-6600000D03*
D14*
X11250000Y-5275000D03*
X11250000Y-6475000D03*
D15*
X10150000Y-5150000D03*
D16*
X12400000Y-6650000D03*
D17*
X12600000Y-6650000D03*
D15*
X14525000Y-6258000D03*
D13*
X14525000Y-6512000D03*
D15*
X14525000Y-5238000D03*
D13*
X14525000Y-5492000D03*
D15*
X14525000Y-5748000D03*
D13*
X14525000Y-6002000D03*
D18*
X13075000Y-5700000D03*
X13075000Y-5800000D03*
D19*
X12049100Y-5256010D03*
X12460000Y-5210000D03*
X12830000Y-5227170D03*
X13410000Y-5250000D03*
X13148200Y-5574580D03*
X13165300Y-5511470D03*
X13953300Y-5491320D03*
X12132300Y-5946770D03*
X12139700Y-6388360D03*
X12891600Y-5444720D03*
X14075300Y-5875510D03*
X10990000Y-5790000D03*
X11040000Y-5860000D03*
X12294700Y-5951910D03*
X12149800Y-6249230D03*
X11929600Y-6431070D03*
X11929200Y-5880000D03*
X12909200Y-6306440D03*
X13288800Y-6607080D03*
X12812900Y-5495980D03*
X12602000Y-6110480D03*
X12547400Y-6376550D03*
X12564000Y-6001270D03*
X12446300Y-6368350D03*
X12776400Y-5675400D03*
X12013200Y-5680870D03*
X12956600Y-5700890D03*
X11960000Y-5480000D03*
X13170000Y-5950000D03*
X11770000Y-6600000D03*
X10390000Y-6680000D03*
X10810000Y-6680000D03*
X10380000Y-5070000D03*
X10790000Y-5070000D03*
X12909700Y-5834520D03*
X12831800Y-5834590D03*
X12749700Y-5836110D03*
X12747600Y-5762480D03*
X12827600Y-5760760D03*
X11335200Y-5623290D03*
X11426100Y-5620950D03*
X12735700Y-6450000D03*
X13230000Y-6120000D03*
X13810000Y-5070000D03*
X14120000Y-5070000D03*
X14380000Y-5070000D03*
X13490000Y-5070000D03*
X12810000Y-5070000D03*
X12340000Y-5070000D03*
X11990000Y-5070000D03*
X11640000Y-5070000D03*
X11600000Y-6680000D03*
X11990000Y-6680000D03*
X14140000Y-6680000D03*
X14375000Y-6125000D03*
X13621400Y-6496560D03*
X13446200Y-5403460D03*
X12462200Y-5413270D03*
X13060800Y-5543330D03*
X14212200Y-5859320D03*
X14343400Y-5384830D03*
X14007000Y-5387290D03*
X14386600Y-5629470D03*
X13910800Y-6096730D03*
X13456200Y-6100000D03*
X14410000Y-6680000D03*
X14121900Y-6423710D03*
X12018300Y-5801930D03*
X12042900Y-5578160D03*
X12022400Y-6031710D03*
X11546200Y-6154860D03*
X10986000Y-6119970D03*
X11022900Y-5606890D03*
X10503700Y-6399080D03*
X10070000Y-5600000D03*
X10070000Y-5880000D03*
X10070000Y-6150000D03*
X10550000Y-5300000D03*
D10*
X13148200Y-5579530D02*
X13148200Y-5574580D01*
X13075000Y-5700000D02*
X13148200Y-5579530D01*
X13255000Y-5914790D02*
X13148200Y-5574580D01*
X13255000Y-5985210D02*
X13255000Y-5914790D01*
X13205210Y-6035000D02*
X13255000Y-5985210D01*
X13194790Y-6035000D02*
X13205210Y-6035000D01*
X13145000Y-6084790D02*
X13194790Y-6035000D01*
X13129230Y-6377330D02*
X13145000Y-6084790D01*
X13114910Y-6411890D02*
X13129230Y-6377330D01*
X13014650Y-6512150D02*
X13114910Y-6411890D01*
X12980090Y-6526470D02*
X13014650Y-6512150D01*
X12790680Y-6590020D02*
X12980090Y-6526470D01*
X12600000Y-6650000D02*
X12790680Y-6590020D01*
X12460000Y-5210000D02*
X12830000Y-5227170D01*
X12112410Y-6068990D02*
X12132300Y-5946770D01*
X12059790Y-6211950D02*
X12112410Y-6068990D01*
X12059790Y-6286510D02*
X12059790Y-6211950D01*
X12139700Y-6388360D02*
X12059790Y-6286510D01*
X13148200Y-5574580D02*
X13165300Y-5511470D01*
X13246140Y-5241430D02*
X13410000Y-5250000D01*
X12830000Y-5227170D02*
X13246140Y-5241430D01*
X12049100Y-5256010D02*
X12460000Y-5210000D01*
X14525000Y-6002000D02*
X13953300Y-5491320D01*
X13953300Y-5491320D02*
X13410000Y-5250000D01*
D20*
X13217080Y-5386450D02*
X14075300Y-5875510D01*
X13113520Y-5386450D02*
X13217080Y-5386450D01*
X12891600Y-5444720D02*
X13113520Y-5386450D01*
D21*
X10990000Y-5790000D02*
X11040000Y-5860000D01*
D10*
X10200000Y-5200000D02*
X10150000Y-5150000D01*
X10225000Y-5200000D02*
X10200000Y-5200000D01*
X10235360Y-5200000D02*
X10225000Y-5200000D01*
X10990000Y-5790000D02*
X10235360Y-5200000D01*
X12294700Y-5951910D02*
X12149800Y-6249230D01*
D20*
X12049370Y-5876940D02*
X11929200Y-5880000D01*
X12101230Y-5871760D02*
X12049370Y-5876940D01*
X12163370Y-5871760D02*
X12101230Y-5871760D01*
X12325770Y-5876900D02*
X12163370Y-5871760D01*
X12595070Y-5926260D02*
X12325770Y-5876900D01*
X12639010Y-5970200D02*
X12595070Y-5926260D01*
X12909200Y-6306440D02*
X12639010Y-5970200D01*
X11929600Y-6431070D02*
X11929200Y-5880000D01*
X12838030Y-5501970D02*
X12812900Y-5495980D01*
X12855460Y-5509190D02*
X12838030Y-5501970D01*
X12862130Y-5515860D02*
X12855460Y-5509190D01*
X12921070Y-5515860D02*
X12862130Y-5515860D01*
X13029730Y-5468320D02*
X12921070Y-5515860D01*
X13134230Y-5436460D02*
X13029730Y-5468320D01*
X13196370Y-5436460D02*
X13134230Y-5436460D01*
X13240310Y-5480400D02*
X13196370Y-5436460D01*
X13325020Y-5892040D02*
X13240310Y-5480400D01*
X13325020Y-6007960D02*
X13325020Y-5892040D01*
X13288800Y-6607080D02*
X13325020Y-6007960D01*
X12547400Y-6376550D02*
X12602000Y-6110480D01*
X12526990Y-6079410D02*
X12446300Y-6368350D01*
X12564000Y-6001270D02*
X12526990Y-6079410D01*
X12776400Y-5675400D02*
X12013200Y-5680870D01*
X12765420Y-5610610D02*
X11960000Y-5480000D01*
X12803240Y-5610610D02*
X12765420Y-5610610D01*
X12956600Y-5700890D02*
X12803240Y-5610610D01*
X11987560Y-6586090D02*
X11770000Y-6600000D01*
X12313430Y-6539990D02*
X11987560Y-6586090D01*
X12605360Y-6531570D02*
X12313430Y-6539990D01*
X12766770Y-6525010D02*
X12605360Y-6531570D01*
X12967160Y-6461460D02*
X12766770Y-6525010D01*
X12977830Y-6457040D02*
X12967160Y-6461460D01*
X13059800Y-6375070D02*
X12977830Y-6457040D01*
X13064220Y-6364400D02*
X13059800Y-6375070D01*
X13074980Y-6062040D02*
X13064220Y-6364400D01*
X13079400Y-6051370D02*
X13074980Y-6062040D01*
X13170000Y-5950000D02*
X13079400Y-6051370D01*
D10*
X11807280Y-6509990D02*
X11250000Y-6475000D01*
X11892320Y-6521080D02*
X11807280Y-6509990D01*
X11966880Y-6521080D02*
X11892320Y-6521080D01*
X12286500Y-6474980D02*
X11966880Y-6521080D01*
X12584680Y-6466560D02*
X12286500Y-6474980D01*
X12735700Y-6450000D02*
X12584680Y-6466560D01*
X12462200Y-5413270D02*
X11856200Y-5366770D01*
X11922720Y-5570010D02*
X12042900Y-5578160D01*
X11869990Y-5517280D02*
X11922720Y-5570010D01*
X11856200Y-5366770D02*
X11869990Y-5517280D01*
X12854320Y-5354710D02*
X12462200Y-5413270D01*
X13100370Y-5321440D02*
X12854320Y-5354710D01*
X13230230Y-5321440D02*
X13100370Y-5321440D01*
X13446200Y-5403460D02*
X13230230Y-5321440D01*
X10390000Y-6680000D02*
X10810000Y-6680000D01*
X14525000Y-6512000D02*
X14410000Y-6680000D01*
X12909700Y-5834520D02*
X12831800Y-5834590D01*
X14394990Y-6564990D02*
X14410000Y-6680000D01*
X14375000Y-6125000D02*
X14394990Y-6564990D01*
X13810000Y-5070000D02*
X13490000Y-5070000D01*
X13200920Y-6570680D02*
X13230000Y-6120000D01*
X13200920Y-6643480D02*
X13200920Y-6570680D01*
X13252400Y-6694960D02*
X13200920Y-6643480D01*
X13325200Y-6694960D02*
X13252400Y-6694960D01*
X14140000Y-6680000D02*
X13325200Y-6694960D01*
D22*
X12942250Y-5567010D02*
X13060800Y-5543330D01*
X12840950Y-5567010D02*
X12942250Y-5567010D01*
X12821820Y-5565750D02*
X12840950Y-5567010D01*
X12784000Y-5565750D02*
X12821820Y-5565750D01*
X12462200Y-5413270D02*
X12784000Y-5565750D01*
D10*
X11807280Y-6690010D02*
X11990000Y-6680000D01*
X11732720Y-6690010D02*
X11807280Y-6690010D01*
X11600000Y-6680000D02*
X11732720Y-6690010D01*
X13490000Y-5070000D02*
X12810000Y-5070000D01*
X14047430Y-6614940D02*
X13621400Y-6496560D01*
X14050760Y-6616320D02*
X14047430Y-6614940D01*
X14140000Y-6680000D02*
X14050760Y-6616320D01*
X10790000Y-5070000D02*
X10380000Y-5070000D01*
X10390000Y-6680000D02*
X10150000Y-6600000D01*
X13075000Y-5800000D02*
X12909700Y-5834520D01*
X11335200Y-5623290D02*
X11250000Y-5275000D01*
X14120000Y-5070000D02*
X14380000Y-5070000D01*
X12719200Y-5762480D02*
X12018300Y-5801930D01*
X12747600Y-5762480D02*
X12719200Y-5762480D01*
X10810000Y-6680000D02*
X10503700Y-6399080D01*
X11990000Y-5070000D02*
X11640000Y-5070000D01*
X12018300Y-5801930D02*
X11426100Y-5620950D01*
X12340000Y-5070000D02*
X11990000Y-5070000D01*
X14007000Y-5387290D02*
X14386600Y-5629470D01*
X12747600Y-5793900D02*
X12747600Y-5762480D01*
X12749700Y-5836110D02*
X12747600Y-5793900D01*
X12999210Y-6269160D02*
X12909700Y-5834520D01*
X12999210Y-6343720D02*
X12999210Y-6269160D01*
X12946480Y-6396450D02*
X12999210Y-6343720D01*
X12735700Y-6450000D02*
X12946480Y-6396450D01*
X10070000Y-5600000D02*
X10070000Y-5880000D01*
X11546200Y-6154860D02*
X10986000Y-6119970D01*
X11640000Y-5070000D02*
X11250000Y-5275000D01*
X10380000Y-5070000D02*
X10550000Y-5300000D01*
X14140000Y-6680000D02*
X14121900Y-6423710D01*
X11856200Y-5366770D02*
X11250000Y-5275000D01*
X14375000Y-6125000D02*
X13910800Y-6096730D01*
X14112580Y-5785500D02*
X14212200Y-5859320D01*
X13446200Y-5403460D02*
X14112580Y-5785500D01*
X12810000Y-5070000D02*
X12340000Y-5070000D01*
X10070000Y-5880000D02*
X10070000Y-6150000D01*
X14343400Y-5384830D02*
X14525000Y-5492000D01*
X11250000Y-5275000D02*
X11022900Y-5606890D01*
X13810000Y-5070000D02*
X14343400Y-5384830D01*
X14410000Y-6680000D02*
X14140000Y-6680000D01*
D20*
G36*
X13090315Y-5526391D02*
X13084655Y-5532041D01*
X13073213Y-5559596D01*
X13073197Y-5577793D01*
X13023525Y-5659541D01*
X13021500Y-5661563D01*
X13020219Y-5658461D01*
X12999139Y-5637345D01*
X12971584Y-5625903D01*
X12941747Y-5625877D01*
X12933513Y-5629279D01*
X12831718Y-5569354D01*
X12847310Y-5562912D01*
X12862130Y-5565860D01*
X12921070Y-5565860D01*
X12921562Y-5565762D01*
X12922056Y-5565850D01*
X12931112Y-5563863D01*
X12940204Y-5562054D01*
X12940621Y-5561775D01*
X12941111Y-5561668D01*
X13047100Y-5515296D01*
X13090308Y-5502123D01*
X13090287Y-5526323D01*
X13090315Y-5526391D01*
X13090315Y-5526391D01*
G37*
X13090315Y-5526391D02*
X13084655Y-5532041D01*
X13073213Y-5559596D01*
X13073197Y-5577793D01*
X13023525Y-5659541D01*
X13021500Y-5661563D01*
X13020219Y-5658461D01*
X12999139Y-5637345D01*
X12971584Y-5625903D01*
X12941747Y-5625877D01*
X12933513Y-5629279D01*
X12831718Y-5569354D01*
X12847310Y-5562912D01*
X12862130Y-5565860D01*
X12921070Y-5565860D01*
X12921562Y-5565762D01*
X12922056Y-5565850D01*
X12931112Y-5563863D01*
X12940204Y-5562054D01*
X12940621Y-5561775D01*
X12941111Y-5561668D01*
X13047100Y-5515296D01*
X13090308Y-5502123D01*
X13090287Y-5526323D01*
X13090315Y-5526391D01*
G36*
X14602500Y-6702500D02*
X14600465Y-6702500D01*
X12697306Y-6702500D01*
X12704455Y-6685283D01*
X12810184Y-6652025D01*
X12810734Y-6651724D01*
X12811356Y-6651644D01*
X13000766Y-6588094D01*
X13002740Y-6586963D01*
X13004971Y-6586519D01*
X13039524Y-6572202D01*
X13039524Y-6572202D01*
X13039525Y-6572202D01*
X13039531Y-6572199D01*
X13050241Y-6565041D01*
X13060612Y-6558112D01*
X13060617Y-6558107D01*
X13060617Y-6558107D01*
X13060618Y-6558106D01*
X13160866Y-6457858D01*
X13160867Y-6457857D01*
X13160867Y-6457857D01*
X13160872Y-6457852D01*
X13167874Y-6447372D01*
X13174959Y-6436771D01*
X13174962Y-6436765D01*
X13174962Y-6436764D01*
X13174962Y-6436764D01*
X13189279Y-6402211D01*
X13191420Y-6391456D01*
X13194136Y-6380829D01*
X13208566Y-6113148D01*
X13225812Y-6095902D01*
X13225957Y-6095873D01*
X13230084Y-6095052D01*
X13230084Y-6095052D01*
X13251172Y-6080962D01*
X13271760Y-6060374D01*
X13242310Y-6547516D01*
X13225255Y-6564540D01*
X13213813Y-6592096D01*
X13213787Y-6621933D01*
X13225181Y-6649509D01*
X13246260Y-6670625D01*
X13273816Y-6682067D01*
X13303653Y-6682093D01*
X13331229Y-6670699D01*
X13352345Y-6649619D01*
X13363787Y-6622064D01*
X13363813Y-6592227D01*
X13352419Y-6564651D01*
X13342082Y-6554297D01*
X13374929Y-6010977D01*
X13374721Y-6009461D01*
X13375020Y-6007960D01*
X13375020Y-5892040D01*
X13374027Y-5887050D01*
X13373994Y-5881962D01*
X13292739Y-5487113D01*
X14000287Y-5890312D01*
X14000287Y-5890363D01*
X14011681Y-5917939D01*
X14032760Y-5939055D01*
X14060316Y-5950497D01*
X14090153Y-5950523D01*
X14117729Y-5939129D01*
X14138845Y-5918049D01*
X14150287Y-5890494D01*
X14150313Y-5860657D01*
X14138919Y-5833081D01*
X14117839Y-5811965D01*
X14090284Y-5800523D01*
X14060447Y-5800497D01*
X14051291Y-5804280D01*
X13241835Y-5343008D01*
X13238840Y-5342010D01*
X13236214Y-5340256D01*
X13229663Y-5338953D01*
X13223327Y-5336842D01*
X13220177Y-5337066D01*
X13217080Y-5336450D01*
X13113520Y-5336450D01*
X13107227Y-5337702D01*
X13100822Y-5338089D01*
X12934677Y-5381714D01*
X12934139Y-5381175D01*
X12906584Y-5369733D01*
X12876747Y-5369707D01*
X12849171Y-5381101D01*
X12828055Y-5402181D01*
X12820246Y-5420986D01*
X12798047Y-5420967D01*
X12770471Y-5432361D01*
X12749355Y-5453441D01*
X12737913Y-5480996D01*
X12737887Y-5510833D01*
X12749281Y-5538409D01*
X12770360Y-5559525D01*
X12772974Y-5560610D01*
X12769448Y-5560610D01*
X12024545Y-5439814D01*
X12023619Y-5437571D01*
X12002539Y-5416455D01*
X11974984Y-5405013D01*
X11945147Y-5404987D01*
X11917571Y-5416381D01*
X11896455Y-5437461D01*
X11885013Y-5465016D01*
X11884987Y-5494853D01*
X11896381Y-5522429D01*
X11917460Y-5543545D01*
X11945016Y-5554987D01*
X11974853Y-5555013D01*
X12002429Y-5543619D01*
X12007673Y-5538384D01*
X12554084Y-5626992D01*
X12068861Y-5630470D01*
X12055739Y-5617325D01*
X12028184Y-5605883D01*
X11998347Y-5605857D01*
X11970771Y-5617251D01*
X11949655Y-5638330D01*
X11938213Y-5665886D01*
X11938187Y-5695723D01*
X11949581Y-5723299D01*
X11970660Y-5744415D01*
X11998216Y-5755857D01*
X12028053Y-5755883D01*
X12055629Y-5744489D01*
X12069675Y-5730466D01*
X12720739Y-5725800D01*
X12733860Y-5738945D01*
X12761416Y-5750387D01*
X12791253Y-5750413D01*
X12818829Y-5739019D01*
X12839945Y-5717939D01*
X12849188Y-5695679D01*
X12881588Y-5714752D01*
X12881587Y-5715743D01*
X12892981Y-5743319D01*
X12914060Y-5764435D01*
X12941616Y-5775877D01*
X12971453Y-5775903D01*
X12999029Y-5764509D01*
X13010000Y-5753557D01*
X13010000Y-5800000D01*
X13014948Y-5824874D01*
X13029038Y-5845962D01*
X13050126Y-5860052D01*
X13075000Y-5865000D01*
X13099874Y-5860052D01*
X13120962Y-5845962D01*
X13135052Y-5824874D01*
X13140000Y-5800000D01*
X13140000Y-5765478D01*
X13174383Y-5875004D01*
X13155147Y-5874987D01*
X13127571Y-5886381D01*
X13106455Y-5907460D01*
X13095013Y-5935016D01*
X13094992Y-5958893D01*
X13042120Y-6018051D01*
X13037862Y-6025267D01*
X13033207Y-6032234D01*
X13028786Y-6042905D01*
X13027053Y-6051616D01*
X13025012Y-6060262D01*
X13014721Y-6349439D01*
X12984213Y-6379946D01*
X12984213Y-6291587D01*
X12972819Y-6264011D01*
X12951739Y-6242895D01*
X12924184Y-6231453D01*
X12913078Y-6231443D01*
X12677986Y-5938881D01*
X12675887Y-5937121D01*
X12674365Y-5934845D01*
X12630425Y-5890905D01*
X12626021Y-5887961D01*
X12622219Y-5884273D01*
X12617988Y-5882594D01*
X12614204Y-5880066D01*
X12609008Y-5879032D01*
X12604084Y-5877079D01*
X12334784Y-5827719D01*
X12331020Y-5827776D01*
X12327352Y-5826925D01*
X12164952Y-5821785D01*
X12164158Y-5821917D01*
X12163370Y-5821760D01*
X12101230Y-5821760D01*
X12098763Y-5822251D01*
X12096261Y-5822008D01*
X12046245Y-5827003D01*
X11983855Y-5828592D01*
X11971739Y-5816455D01*
X11944184Y-5805013D01*
X11914347Y-5804987D01*
X11886771Y-5816381D01*
X11865655Y-5837460D01*
X11854213Y-5865016D01*
X11854187Y-5894853D01*
X11865581Y-5922429D01*
X11879241Y-5936112D01*
X11879559Y-6375050D01*
X11866055Y-6388530D01*
X11854613Y-6416086D01*
X11854587Y-6445923D01*
X11865981Y-6473499D01*
X11887060Y-6494615D01*
X11914616Y-6506057D01*
X11944453Y-6506083D01*
X11972029Y-6494689D01*
X11993145Y-6473609D01*
X12004587Y-6446054D01*
X12004613Y-6416217D01*
X11993219Y-6388641D01*
X11979559Y-6374958D01*
X11979241Y-5936020D01*
X11986722Y-5928551D01*
X12050643Y-5926924D01*
X12052473Y-5926511D01*
X12054339Y-5926692D01*
X12059648Y-5926162D01*
X12057313Y-5931786D01*
X12057287Y-5961623D01*
X12062123Y-5973327D01*
X12049256Y-6052392D01*
X11998791Y-6189498D01*
X11997015Y-6200763D01*
X11994790Y-6211950D01*
X11994790Y-6286510D01*
X11996516Y-6295187D01*
X11997190Y-6304009D01*
X11998969Y-6307522D01*
X11999738Y-6311384D01*
X12004653Y-6318740D01*
X12008651Y-6326633D01*
X12064691Y-6398059D01*
X12064687Y-6403213D01*
X12076081Y-6430789D01*
X12097160Y-6451905D01*
X12124716Y-6463347D01*
X12154553Y-6463373D01*
X12182129Y-6451979D01*
X12203245Y-6430899D01*
X12214687Y-6403344D01*
X12214713Y-6373507D01*
X12203319Y-6345931D01*
X12182239Y-6324815D01*
X12172777Y-6320886D01*
X12192229Y-6312849D01*
X12213345Y-6291769D01*
X12224787Y-6264214D01*
X12224805Y-6243697D01*
X12335720Y-6016111D01*
X12337129Y-6015529D01*
X12358245Y-5994449D01*
X12369687Y-5966894D01*
X12369713Y-5937057D01*
X12369145Y-5935683D01*
X12500061Y-5959679D01*
X12489013Y-5986286D01*
X12488987Y-6016123D01*
X12494882Y-6030391D01*
X12481802Y-6058007D01*
X12480762Y-6062151D01*
X12478833Y-6065961D01*
X12413233Y-6300863D01*
X12403871Y-6304731D01*
X12382755Y-6325810D01*
X12371313Y-6353366D01*
X12371287Y-6383203D01*
X12382681Y-6410779D01*
X12403760Y-6431895D01*
X12431316Y-6443337D01*
X12461153Y-6443363D01*
X12488729Y-6431969D01*
X12492746Y-6427959D01*
X12504860Y-6440095D01*
X12532416Y-6451537D01*
X12562253Y-6451563D01*
X12589829Y-6440169D01*
X12610945Y-6419089D01*
X12622387Y-6391534D01*
X12622413Y-6361697D01*
X12611019Y-6334121D01*
X12607809Y-6330905D01*
X12639575Y-6176104D01*
X12644429Y-6174099D01*
X12665545Y-6153019D01*
X12676987Y-6125464D01*
X12677011Y-6097314D01*
X12834212Y-6292943D01*
X12834187Y-6321293D01*
X12845581Y-6348869D01*
X12866660Y-6369985D01*
X12894216Y-6381427D01*
X12924053Y-6381453D01*
X12951629Y-6370059D01*
X12972745Y-6348979D01*
X12984187Y-6321424D01*
X12984213Y-6291587D01*
X12984213Y-6379946D01*
X12949577Y-6414582D01*
X12758044Y-6475323D01*
X12603619Y-6481599D01*
X12311988Y-6490011D01*
X12309241Y-6490640D01*
X12306426Y-6490483D01*
X11982455Y-6536314D01*
X11822601Y-6546535D01*
X11812539Y-6536455D01*
X11784984Y-6525013D01*
X11755147Y-6524987D01*
X11727571Y-6536381D01*
X11706455Y-6557460D01*
X11695013Y-6585016D01*
X11694987Y-6614853D01*
X11706381Y-6642429D01*
X11727460Y-6663545D01*
X11755016Y-6674987D01*
X11784853Y-6675013D01*
X11812429Y-6663619D01*
X11829799Y-6646279D01*
X11990750Y-6635988D01*
X11992626Y-6635489D01*
X11994564Y-6635597D01*
X12290000Y-6593802D01*
X12290000Y-6702500D01*
X10610015Y-6702500D01*
X10610015Y-6078167D01*
X10610015Y-5638167D01*
X10597102Y-5606914D01*
X10573212Y-5582983D01*
X10541982Y-5570015D01*
X10508167Y-5569985D01*
X10476914Y-5582899D01*
X10452983Y-5606788D01*
X10440015Y-5638018D01*
X10439985Y-5671833D01*
X10452899Y-5703086D01*
X10476789Y-5727017D01*
X10508018Y-5739985D01*
X10541833Y-5740015D01*
X10573086Y-5727101D01*
X10597017Y-5703211D01*
X10609985Y-5671982D01*
X10610015Y-5638167D01*
X10610015Y-6078167D01*
X10597102Y-6046914D01*
X10573212Y-6022983D01*
X10541982Y-6010015D01*
X10508167Y-6009985D01*
X10476914Y-6022898D01*
X10452983Y-6046788D01*
X10440015Y-6078018D01*
X10439985Y-6111833D01*
X10452899Y-6143086D01*
X10476789Y-6167017D01*
X10508018Y-6179985D01*
X10541833Y-6180015D01*
X10573086Y-6167101D01*
X10597017Y-6143211D01*
X10609985Y-6111982D01*
X10610015Y-6078167D01*
X10610015Y-6702500D01*
X10425010Y-6702500D01*
X10425010Y-6058118D01*
X10425010Y-5668118D01*
X10415895Y-5646057D01*
X10399032Y-5629164D01*
X10376987Y-5620010D01*
X10353118Y-5619990D01*
X10331057Y-5629105D01*
X10314164Y-5645968D01*
X10305010Y-5668013D01*
X10304990Y-5691882D01*
X10314105Y-5713943D01*
X10330968Y-5730836D01*
X10353013Y-5739990D01*
X10376882Y-5740010D01*
X10398943Y-5730895D01*
X10415836Y-5714032D01*
X10424990Y-5691987D01*
X10425010Y-5668118D01*
X10425010Y-6058118D01*
X10415895Y-6036057D01*
X10399032Y-6019164D01*
X10376987Y-6010010D01*
X10353118Y-6009990D01*
X10331057Y-6019105D01*
X10314164Y-6035968D01*
X10305010Y-6058013D01*
X10304990Y-6081882D01*
X10314105Y-6103943D01*
X10330968Y-6120836D01*
X10353013Y-6129990D01*
X10376882Y-6130010D01*
X10398943Y-6120895D01*
X10415836Y-6104032D01*
X10424990Y-6081987D01*
X10425010Y-6058118D01*
X10425010Y-6702500D01*
X10286546Y-6702500D01*
X10286546Y-6617356D01*
X10282794Y-6563780D01*
X10269511Y-6531712D01*
X10246679Y-6524535D01*
X10225465Y-6545748D01*
X10225465Y-6503321D01*
X10218288Y-6480489D01*
X10167356Y-6463454D01*
X10113780Y-6467206D01*
X10081712Y-6480489D01*
X10074535Y-6503321D01*
X10150000Y-6578787D01*
X10225465Y-6503321D01*
X10225465Y-6545748D01*
X10171213Y-6600000D01*
X10246679Y-6675465D01*
X10269511Y-6668288D01*
X10286546Y-6617356D01*
X10286546Y-6702500D01*
X10223635Y-6702500D01*
X10225465Y-6696678D01*
X10150000Y-6621213D01*
X10074535Y-6696678D01*
X10076365Y-6702500D01*
X10047500Y-6702500D01*
X10047500Y-6673635D01*
X10053322Y-6675465D01*
X10128787Y-6600000D01*
X10053322Y-6524535D01*
X10047500Y-6526365D01*
X10047500Y-5254069D01*
X10052342Y-5258910D01*
X10067044Y-5265000D01*
X10082957Y-5265000D01*
X10200000Y-5265000D01*
X10212966Y-5265000D01*
X10920485Y-5818159D01*
X10926381Y-5832429D01*
X10932558Y-5838617D01*
X10973970Y-5896592D01*
X10976381Y-5902429D01*
X10997461Y-5923545D01*
X11025016Y-5934987D01*
X11054853Y-5935013D01*
X11082429Y-5923619D01*
X11103545Y-5902539D01*
X11114987Y-5874984D01*
X11115013Y-5845147D01*
X11103619Y-5817571D01*
X11097441Y-5811383D01*
X11056030Y-5753408D01*
X11053619Y-5747571D01*
X11032540Y-5726455D01*
X11004984Y-5715013D01*
X10999614Y-5715008D01*
X10275395Y-5148793D01*
X10267545Y-5144833D01*
X10265000Y-5143132D01*
X10265000Y-5067044D01*
X10258910Y-5052342D01*
X10254069Y-5047500D01*
X14602500Y-5047500D01*
X14602500Y-5123000D01*
X14592043Y-5123000D01*
X14442043Y-5123000D01*
X14427342Y-5129090D01*
X14416090Y-5140342D01*
X14410000Y-5155044D01*
X14410000Y-5170957D01*
X14410000Y-5320957D01*
X14416090Y-5335658D01*
X14427342Y-5346910D01*
X14442043Y-5353000D01*
X14457956Y-5353000D01*
X14602500Y-5353000D01*
X14602500Y-5393287D01*
X14600465Y-5395321D01*
X14593288Y-5372490D01*
X14542356Y-5355454D01*
X14488780Y-5359206D01*
X14456712Y-5372490D01*
X14449535Y-5395322D01*
X14525000Y-5470787D01*
X14526414Y-5469373D01*
X14547627Y-5490586D01*
X14546213Y-5492000D01*
X14547627Y-5493414D01*
X14526414Y-5514627D01*
X14525000Y-5513213D01*
X14503787Y-5534426D01*
X14503787Y-5492000D01*
X14428321Y-5416535D01*
X14405489Y-5423712D01*
X14388454Y-5474644D01*
X14392206Y-5528220D01*
X14405489Y-5560288D01*
X14428321Y-5567465D01*
X14503787Y-5492000D01*
X14503787Y-5534426D01*
X14449535Y-5588679D01*
X14456712Y-5611510D01*
X14507644Y-5628546D01*
X14561220Y-5624794D01*
X14593288Y-5611510D01*
X14600465Y-5588679D01*
X14600465Y-5588679D01*
X14602500Y-5590714D01*
X14602500Y-5633000D01*
X14600465Y-5633000D01*
X14592043Y-5633000D01*
X14442043Y-5633000D01*
X14427342Y-5639090D01*
X14416090Y-5650342D01*
X14410000Y-5665043D01*
X14410000Y-5680956D01*
X14410000Y-5812118D01*
X14024844Y-5468072D01*
X14016919Y-5448891D01*
X13995839Y-5427775D01*
X13968284Y-5416333D01*
X13944555Y-5416312D01*
X13472835Y-5206786D01*
X13452539Y-5186455D01*
X13424984Y-5175013D01*
X13395147Y-5174987D01*
X13375496Y-5183107D01*
X13249535Y-5176519D01*
X13248946Y-5176604D01*
X13248366Y-5176468D01*
X12872446Y-5163586D01*
X12844984Y-5152183D01*
X12815147Y-5152157D01*
X12795012Y-5160476D01*
X12503009Y-5146926D01*
X12502539Y-5146455D01*
X12474984Y-5135013D01*
X12445147Y-5134987D01*
X12417571Y-5146381D01*
X12414227Y-5149719D01*
X12079074Y-5187247D01*
X12064084Y-5181023D01*
X12034247Y-5180997D01*
X12006671Y-5192391D01*
X11985555Y-5213471D01*
X11974113Y-5241026D01*
X11974087Y-5270863D01*
X11985481Y-5298439D01*
X12006560Y-5319555D01*
X12034116Y-5330997D01*
X12063953Y-5331023D01*
X12091529Y-5319629D01*
X12094872Y-5316291D01*
X12430026Y-5278763D01*
X12445016Y-5284987D01*
X12474853Y-5285013D01*
X12494987Y-5276694D01*
X12786990Y-5290244D01*
X12787460Y-5290715D01*
X12815016Y-5302157D01*
X12844853Y-5302183D01*
X12866007Y-5293442D01*
X13243330Y-5306372D01*
X13366743Y-5312827D01*
X13367460Y-5313545D01*
X13395016Y-5324987D01*
X13418745Y-5325008D01*
X13890465Y-5534534D01*
X13910760Y-5554865D01*
X13938316Y-5566307D01*
X13939678Y-5566308D01*
X14410013Y-5986443D01*
X14409980Y-6024775D01*
X14427451Y-6067057D01*
X14459773Y-6099435D01*
X14502025Y-6116980D01*
X14547775Y-6117020D01*
X14590057Y-6099549D01*
X14602500Y-6087128D01*
X14602500Y-6143000D01*
X14592043Y-6143000D01*
X14442043Y-6143000D01*
X14427342Y-6149090D01*
X14416090Y-6160342D01*
X14410000Y-6175043D01*
X14410000Y-6190956D01*
X14410000Y-6340956D01*
X14416090Y-6355658D01*
X14427342Y-6366910D01*
X14442043Y-6373000D01*
X14457956Y-6373000D01*
X14602500Y-6373000D01*
X14602500Y-6413286D01*
X14600465Y-6415321D01*
X14593288Y-6392489D01*
X14542356Y-6375454D01*
X14488780Y-6379206D01*
X14456712Y-6392489D01*
X14449535Y-6415321D01*
X14525000Y-6490787D01*
X14526414Y-6489372D01*
X14547627Y-6510586D01*
X14546213Y-6512000D01*
X14547627Y-6513414D01*
X14526414Y-6534627D01*
X14525000Y-6533213D01*
X14503787Y-6554426D01*
X14503787Y-6512000D01*
X14428321Y-6436535D01*
X14405489Y-6443712D01*
X14388454Y-6494644D01*
X14392206Y-6548220D01*
X14405489Y-6580288D01*
X14428321Y-6587465D01*
X14503787Y-6512000D01*
X14503787Y-6554426D01*
X14449535Y-6608678D01*
X14456712Y-6631510D01*
X14507644Y-6648546D01*
X14561220Y-6644794D01*
X14593288Y-6631510D01*
X14600465Y-6608679D01*
X14600465Y-6608679D01*
X14602500Y-6610713D01*
X14602500Y-6702500D01*
X14602500Y-6702500D01*
G37*
X14602500Y-6702500D02*
X14600465Y-6702500D01*
X12697306Y-6702500D01*
X12704455Y-6685283D01*
X12810184Y-6652025D01*
X12810734Y-6651724D01*
X12811356Y-6651644D01*
X13000766Y-6588094D01*
X13002740Y-6586963D01*
X13004971Y-6586519D01*
X13039524Y-6572202D01*
X13039524Y-6572202D01*
X13039525Y-6572202D01*
X13039531Y-6572199D01*
X13050241Y-6565041D01*
X13060612Y-6558112D01*
X13060617Y-6558107D01*
X13060617Y-6558107D01*
X13060618Y-6558106D01*
X13160866Y-6457858D01*
X13160867Y-6457857D01*
X13160867Y-6457857D01*
X13160872Y-6457852D01*
X13167874Y-6447372D01*
X13174959Y-6436771D01*
X13174962Y-6436765D01*
X13174962Y-6436764D01*
X13174962Y-6436764D01*
X13189279Y-6402211D01*
X13191420Y-6391456D01*
X13194136Y-6380829D01*
X13208566Y-6113148D01*
X13225812Y-6095902D01*
X13225957Y-6095873D01*
X13230084Y-6095052D01*
X13230084Y-6095052D01*
X13251172Y-6080962D01*
X13271760Y-6060374D01*
X13242310Y-6547516D01*
X13225255Y-6564540D01*
X13213813Y-6592096D01*
X13213787Y-6621933D01*
X13225181Y-6649509D01*
X13246260Y-6670625D01*
X13273816Y-6682067D01*
X13303653Y-6682093D01*
X13331229Y-6670699D01*
X13352345Y-6649619D01*
X13363787Y-6622064D01*
X13363813Y-6592227D01*
X13352419Y-6564651D01*
X13342082Y-6554297D01*
X13374929Y-6010977D01*
X13374721Y-6009461D01*
X13375020Y-6007960D01*
X13375020Y-5892040D01*
X13374027Y-5887050D01*
X13373994Y-5881962D01*
X13292739Y-5487113D01*
X14000287Y-5890312D01*
X14000287Y-5890363D01*
X14011681Y-5917939D01*
X14032760Y-5939055D01*
X14060316Y-5950497D01*
X14090153Y-5950523D01*
X14117729Y-5939129D01*
X14138845Y-5918049D01*
X14150287Y-5890494D01*
X14150313Y-5860657D01*
X14138919Y-5833081D01*
X14117839Y-5811965D01*
X14090284Y-5800523D01*
X14060447Y-5800497D01*
X14051291Y-5804280D01*
X13241835Y-5343008D01*
X13238840Y-5342010D01*
X13236214Y-5340256D01*
X13229663Y-5338953D01*
X13223327Y-5336842D01*
X13220177Y-5337066D01*
X13217080Y-5336450D01*
X13113520Y-5336450D01*
X13107227Y-5337702D01*
X13100822Y-5338089D01*
X12934677Y-5381714D01*
X12934139Y-5381175D01*
X12906584Y-5369733D01*
X12876747Y-5369707D01*
X12849171Y-5381101D01*
X12828055Y-5402181D01*
X12820246Y-5420986D01*
X12798047Y-5420967D01*
X12770471Y-5432361D01*
X12749355Y-5453441D01*
X12737913Y-5480996D01*
X12737887Y-5510833D01*
X12749281Y-5538409D01*
X12770360Y-5559525D01*
X12772974Y-5560610D01*
X12769448Y-5560610D01*
X12024545Y-5439814D01*
X12023619Y-5437571D01*
X12002539Y-5416455D01*
X11974984Y-5405013D01*
X11945147Y-5404987D01*
X11917571Y-5416381D01*
X11896455Y-5437461D01*
X11885013Y-5465016D01*
X11884987Y-5494853D01*
X11896381Y-5522429D01*
X11917460Y-5543545D01*
X11945016Y-5554987D01*
X11974853Y-5555013D01*
X12002429Y-5543619D01*
X12007673Y-5538384D01*
X12554084Y-5626992D01*
X12068861Y-5630470D01*
X12055739Y-5617325D01*
X12028184Y-5605883D01*
X11998347Y-5605857D01*
X11970771Y-5617251D01*
X11949655Y-5638330D01*
X11938213Y-5665886D01*
X11938187Y-5695723D01*
X11949581Y-5723299D01*
X11970660Y-5744415D01*
X11998216Y-5755857D01*
X12028053Y-5755883D01*
X12055629Y-5744489D01*
X12069675Y-5730466D01*
X12720739Y-5725800D01*
X12733860Y-5738945D01*
X12761416Y-5750387D01*
X12791253Y-5750413D01*
X12818829Y-5739019D01*
X12839945Y-5717939D01*
X12849188Y-5695679D01*
X12881588Y-5714752D01*
X12881587Y-5715743D01*
X12892981Y-5743319D01*
X12914060Y-5764435D01*
X12941616Y-5775877D01*
X12971453Y-5775903D01*
X12999029Y-5764509D01*
X13010000Y-5753557D01*
X13010000Y-5800000D01*
X13014948Y-5824874D01*
X13029038Y-5845962D01*
X13050126Y-5860052D01*
X13075000Y-5865000D01*
X13099874Y-5860052D01*
X13120962Y-5845962D01*
X13135052Y-5824874D01*
X13140000Y-5800000D01*
X13140000Y-5765478D01*
X13174383Y-5875004D01*
X13155147Y-5874987D01*
X13127571Y-5886381D01*
X13106455Y-5907460D01*
X13095013Y-5935016D01*
X13094992Y-5958893D01*
X13042120Y-6018051D01*
X13037862Y-6025267D01*
X13033207Y-6032234D01*
X13028786Y-6042905D01*
X13027053Y-6051616D01*
X13025012Y-6060262D01*
X13014721Y-6349439D01*
X12984213Y-6379946D01*
X12984213Y-6291587D01*
X12972819Y-6264011D01*
X12951739Y-6242895D01*
X12924184Y-6231453D01*
X12913078Y-6231443D01*
X12677986Y-5938881D01*
X12675887Y-5937121D01*
X12674365Y-5934845D01*
X12630425Y-5890905D01*
X12626021Y-5887961D01*
X12622219Y-5884273D01*
X12617988Y-5882594D01*
X12614204Y-5880066D01*
X12609008Y-5879032D01*
X12604084Y-5877079D01*
X12334784Y-5827719D01*
X12331020Y-5827776D01*
X12327352Y-5826925D01*
X12164952Y-5821785D01*
X12164158Y-5821917D01*
X12163370Y-5821760D01*
X12101230Y-5821760D01*
X12098763Y-5822251D01*
X12096261Y-5822008D01*
X12046245Y-5827003D01*
X11983855Y-5828592D01*
X11971739Y-5816455D01*
X11944184Y-5805013D01*
X11914347Y-5804987D01*
X11886771Y-5816381D01*
X11865655Y-5837460D01*
X11854213Y-5865016D01*
X11854187Y-5894853D01*
X11865581Y-5922429D01*
X11879241Y-5936112D01*
X11879559Y-6375050D01*
X11866055Y-6388530D01*
X11854613Y-6416086D01*
X11854587Y-6445923D01*
X11865981Y-6473499D01*
X11887060Y-6494615D01*
X11914616Y-6506057D01*
X11944453Y-6506083D01*
X11972029Y-6494689D01*
X11993145Y-6473609D01*
X12004587Y-6446054D01*
X12004613Y-6416217D01*
X11993219Y-6388641D01*
X11979559Y-6374958D01*
X11979241Y-5936020D01*
X11986722Y-5928551D01*
X12050643Y-5926924D01*
X12052473Y-5926511D01*
X12054339Y-5926692D01*
X12059648Y-5926162D01*
X12057313Y-5931786D01*
X12057287Y-5961623D01*
X12062123Y-5973327D01*
X12049256Y-6052392D01*
X11998791Y-6189498D01*
X11997015Y-6200763D01*
X11994790Y-6211950D01*
X11994790Y-6286510D01*
X11996516Y-6295187D01*
X11997190Y-6304009D01*
X11998969Y-6307522D01*
X11999738Y-6311384D01*
X12004653Y-6318740D01*
X12008651Y-6326633D01*
X12064691Y-6398059D01*
X12064687Y-6403213D01*
X12076081Y-6430789D01*
X12097160Y-6451905D01*
X12124716Y-6463347D01*
X12154553Y-6463373D01*
X12182129Y-6451979D01*
X12203245Y-6430899D01*
X12214687Y-6403344D01*
X12214713Y-6373507D01*
X12203319Y-6345931D01*
X12182239Y-6324815D01*
X12172777Y-6320886D01*
X12192229Y-6312849D01*
X12213345Y-6291769D01*
X12224787Y-6264214D01*
X12224805Y-6243697D01*
X12335720Y-6016111D01*
X12337129Y-6015529D01*
X12358245Y-5994449D01*
X12369687Y-5966894D01*
X12369713Y-5937057D01*
X12369145Y-5935683D01*
X12500061Y-5959679D01*
X12489013Y-5986286D01*
X12488987Y-6016123D01*
X12494882Y-6030391D01*
X12481802Y-6058007D01*
X12480762Y-6062151D01*
X12478833Y-6065961D01*
X12413233Y-6300863D01*
X12403871Y-6304731D01*
X12382755Y-6325810D01*
X12371313Y-6353366D01*
X12371287Y-6383203D01*
X12382681Y-6410779D01*
X12403760Y-6431895D01*
X12431316Y-6443337D01*
X12461153Y-6443363D01*
X12488729Y-6431969D01*
X12492746Y-6427959D01*
X12504860Y-6440095D01*
X12532416Y-6451537D01*
X12562253Y-6451563D01*
X12589829Y-6440169D01*
X12610945Y-6419089D01*
X12622387Y-6391534D01*
X12622413Y-6361697D01*
X12611019Y-6334121D01*
X12607809Y-6330905D01*
X12639575Y-6176104D01*
X12644429Y-6174099D01*
X12665545Y-6153019D01*
X12676987Y-6125464D01*
X12677011Y-6097314D01*
X12834212Y-6292943D01*
X12834187Y-6321293D01*
X12845581Y-6348869D01*
X12866660Y-6369985D01*
X12894216Y-6381427D01*
X12924053Y-6381453D01*
X12951629Y-6370059D01*
X12972745Y-6348979D01*
X12984187Y-6321424D01*
X12984213Y-6291587D01*
X12984213Y-6379946D01*
X12949577Y-6414582D01*
X12758044Y-6475323D01*
X12603619Y-6481599D01*
X12311988Y-6490011D01*
X12309241Y-6490640D01*
X12306426Y-6490483D01*
X11982455Y-6536314D01*
X11822601Y-6546535D01*
X11812539Y-6536455D01*
X11784984Y-6525013D01*
X11755147Y-6524987D01*
X11727571Y-6536381D01*
X11706455Y-6557460D01*
X11695013Y-6585016D01*
X11694987Y-6614853D01*
X11706381Y-6642429D01*
X11727460Y-6663545D01*
X11755016Y-6674987D01*
X11784853Y-6675013D01*
X11812429Y-6663619D01*
X11829799Y-6646279D01*
X11990750Y-6635988D01*
X11992626Y-6635489D01*
X11994564Y-6635597D01*
X12290000Y-6593802D01*
X12290000Y-6702500D01*
X10610015Y-6702500D01*
X10610015Y-6078167D01*
X10610015Y-5638167D01*
X10597102Y-5606914D01*
X10573212Y-5582983D01*
X10541982Y-5570015D01*
X10508167Y-5569985D01*
X10476914Y-5582899D01*
X10452983Y-5606788D01*
X10440015Y-5638018D01*
X10439985Y-5671833D01*
X10452899Y-5703086D01*
X10476789Y-5727017D01*
X10508018Y-5739985D01*
X10541833Y-5740015D01*
X10573086Y-5727101D01*
X10597017Y-5703211D01*
X10609985Y-5671982D01*
X10610015Y-5638167D01*
X10610015Y-6078167D01*
X10597102Y-6046914D01*
X10573212Y-6022983D01*
X10541982Y-6010015D01*
X10508167Y-6009985D01*
X10476914Y-6022898D01*
X10452983Y-6046788D01*
X10440015Y-6078018D01*
X10439985Y-6111833D01*
X10452899Y-6143086D01*
X10476789Y-6167017D01*
X10508018Y-6179985D01*
X10541833Y-6180015D01*
X10573086Y-6167101D01*
X10597017Y-6143211D01*
X10609985Y-6111982D01*
X10610015Y-6078167D01*
X10610015Y-6702500D01*
X10425010Y-6702500D01*
X10425010Y-6058118D01*
X10425010Y-5668118D01*
X10415895Y-5646057D01*
X10399032Y-5629164D01*
X10376987Y-5620010D01*
X10353118Y-5619990D01*
X10331057Y-5629105D01*
X10314164Y-5645968D01*
X10305010Y-5668013D01*
X10304990Y-5691882D01*
X10314105Y-5713943D01*
X10330968Y-5730836D01*
X10353013Y-5739990D01*
X10376882Y-5740010D01*
X10398943Y-5730895D01*
X10415836Y-5714032D01*
X10424990Y-5691987D01*
X10425010Y-5668118D01*
X10425010Y-6058118D01*
X10415895Y-6036057D01*
X10399032Y-6019164D01*
X10376987Y-6010010D01*
X10353118Y-6009990D01*
X10331057Y-6019105D01*
X10314164Y-6035968D01*
X10305010Y-6058013D01*
X10304990Y-6081882D01*
X10314105Y-6103943D01*
X10330968Y-6120836D01*
X10353013Y-6129990D01*
X10376882Y-6130010D01*
X10398943Y-6120895D01*
X10415836Y-6104032D01*
X10424990Y-6081987D01*
X10425010Y-6058118D01*
X10425010Y-6702500D01*
X10286546Y-6702500D01*
X10286546Y-6617356D01*
X10282794Y-6563780D01*
X10269511Y-6531712D01*
X10246679Y-6524535D01*
X10225465Y-6545748D01*
X10225465Y-6503321D01*
X10218288Y-6480489D01*
X10167356Y-6463454D01*
X10113780Y-6467206D01*
X10081712Y-6480489D01*
X10074535Y-6503321D01*
X10150000Y-6578787D01*
X10225465Y-6503321D01*
X10225465Y-6545748D01*
X10171213Y-6600000D01*
X10246679Y-6675465D01*
X10269511Y-6668288D01*
X10286546Y-6617356D01*
X10286546Y-6702500D01*
X10223635Y-6702500D01*
X10225465Y-6696678D01*
X10150000Y-6621213D01*
X10074535Y-6696678D01*
X10076365Y-6702500D01*
X10047500Y-6702500D01*
X10047500Y-6673635D01*
X10053322Y-6675465D01*
X10128787Y-6600000D01*
X10053322Y-6524535D01*
X10047500Y-6526365D01*
X10047500Y-5254069D01*
X10052342Y-5258910D01*
X10067044Y-5265000D01*
X10082957Y-5265000D01*
X10200000Y-5265000D01*
X10212966Y-5265000D01*
X10920485Y-5818159D01*
X10926381Y-5832429D01*
X10932558Y-5838617D01*
X10973970Y-5896592D01*
X10976381Y-5902429D01*
X10997461Y-5923545D01*
X11025016Y-5934987D01*
X11054853Y-5935013D01*
X11082429Y-5923619D01*
X11103545Y-5902539D01*
X11114987Y-5874984D01*
X11115013Y-5845147D01*
X11103619Y-5817571D01*
X11097441Y-5811383D01*
X11056030Y-5753408D01*
X11053619Y-5747571D01*
X11032540Y-5726455D01*
X11004984Y-5715013D01*
X10999614Y-5715008D01*
X10275395Y-5148793D01*
X10267545Y-5144833D01*
X10265000Y-5143132D01*
X10265000Y-5067044D01*
X10258910Y-5052342D01*
X10254069Y-5047500D01*
X14602500Y-5047500D01*
X14602500Y-5123000D01*
X14592043Y-5123000D01*
X14442043Y-5123000D01*
X14427342Y-5129090D01*
X14416090Y-5140342D01*
X14410000Y-5155044D01*
X14410000Y-5170957D01*
X14410000Y-5320957D01*
X14416090Y-5335658D01*
X14427342Y-5346910D01*
X14442043Y-5353000D01*
X14457956Y-5353000D01*
X14602500Y-5353000D01*
X14602500Y-5393287D01*
X14600465Y-5395321D01*
X14593288Y-5372490D01*
X14542356Y-5355454D01*
X14488780Y-5359206D01*
X14456712Y-5372490D01*
X14449535Y-5395322D01*
X14525000Y-5470787D01*
X14526414Y-5469373D01*
X14547627Y-5490586D01*
X14546213Y-5492000D01*
X14547627Y-5493414D01*
X14526414Y-5514627D01*
X14525000Y-5513213D01*
X14503787Y-5534426D01*
X14503787Y-5492000D01*
X14428321Y-5416535D01*
X14405489Y-5423712D01*
X14388454Y-5474644D01*
X14392206Y-5528220D01*
X14405489Y-5560288D01*
X14428321Y-5567465D01*
X14503787Y-5492000D01*
X14503787Y-5534426D01*
X14449535Y-5588679D01*
X14456712Y-5611510D01*
X14507644Y-5628546D01*
X14561220Y-5624794D01*
X14593288Y-5611510D01*
X14600465Y-5588679D01*
X14600465Y-5588679D01*
X14602500Y-5590714D01*
X14602500Y-5633000D01*
X14600465Y-5633000D01*
X14592043Y-5633000D01*
X14442043Y-5633000D01*
X14427342Y-5639090D01*
X14416090Y-5650342D01*
X14410000Y-5665043D01*
X14410000Y-5680956D01*
X14410000Y-5812118D01*
X14024844Y-5468072D01*
X14016919Y-5448891D01*
X13995839Y-5427775D01*
X13968284Y-5416333D01*
X13944555Y-5416312D01*
X13472835Y-5206786D01*
X13452539Y-5186455D01*
X13424984Y-5175013D01*
X13395147Y-5174987D01*
X13375496Y-5183107D01*
X13249535Y-5176519D01*
X13248946Y-5176604D01*
X13248366Y-5176468D01*
X12872446Y-5163586D01*
X12844984Y-5152183D01*
X12815147Y-5152157D01*
X12795012Y-5160476D01*
X12503009Y-5146926D01*
X12502539Y-5146455D01*
X12474984Y-5135013D01*
X12445147Y-5134987D01*
X12417571Y-5146381D01*
X12414227Y-5149719D01*
X12079074Y-5187247D01*
X12064084Y-5181023D01*
X12034247Y-5180997D01*
X12006671Y-5192391D01*
X11985555Y-5213471D01*
X11974113Y-5241026D01*
X11974087Y-5270863D01*
X11985481Y-5298439D01*
X12006560Y-5319555D01*
X12034116Y-5330997D01*
X12063953Y-5331023D01*
X12091529Y-5319629D01*
X12094872Y-5316291D01*
X12430026Y-5278763D01*
X12445016Y-5284987D01*
X12474853Y-5285013D01*
X12494987Y-5276694D01*
X12786990Y-5290244D01*
X12787460Y-5290715D01*
X12815016Y-5302157D01*
X12844853Y-5302183D01*
X12866007Y-5293442D01*
X13243330Y-5306372D01*
X13366743Y-5312827D01*
X13367460Y-5313545D01*
X13395016Y-5324987D01*
X13418745Y-5325008D01*
X13890465Y-5534534D01*
X13910760Y-5554865D01*
X13938316Y-5566307D01*
X13939678Y-5566308D01*
X14410013Y-5986443D01*
X14409980Y-6024775D01*
X14427451Y-6067057D01*
X14459773Y-6099435D01*
X14502025Y-6116980D01*
X14547775Y-6117020D01*
X14590057Y-6099549D01*
X14602500Y-6087128D01*
X14602500Y-6143000D01*
X14592043Y-6143000D01*
X14442043Y-6143000D01*
X14427342Y-6149090D01*
X14416090Y-6160342D01*
X14410000Y-6175043D01*
X14410000Y-6190956D01*
X14410000Y-6340956D01*
X14416090Y-6355658D01*
X14427342Y-6366910D01*
X14442043Y-6373000D01*
X14457956Y-6373000D01*
X14602500Y-6373000D01*
X14602500Y-6413286D01*
X14600465Y-6415321D01*
X14593288Y-6392489D01*
X14542356Y-6375454D01*
X14488780Y-6379206D01*
X14456712Y-6392489D01*
X14449535Y-6415321D01*
X14525000Y-6490787D01*
X14526414Y-6489372D01*
X14547627Y-6510586D01*
X14546213Y-6512000D01*
X14547627Y-6513414D01*
X14526414Y-6534627D01*
X14525000Y-6533213D01*
X14503787Y-6554426D01*
X14503787Y-6512000D01*
X14428321Y-6436535D01*
X14405489Y-6443712D01*
X14388454Y-6494644D01*
X14392206Y-6548220D01*
X14405489Y-6580288D01*
X14428321Y-6587465D01*
X14503787Y-6512000D01*
X14503787Y-6554426D01*
X14449535Y-6608678D01*
X14456712Y-6631510D01*
X14507644Y-6648546D01*
X14561220Y-6644794D01*
X14593288Y-6631510D01*
X14600465Y-6608679D01*
X14600465Y-6608679D01*
X14602500Y-6610713D01*
X14602500Y-6702500D01*
M02*
