G04 #@! TF.GenerationSoftware,KiCad,Pcbnew,(5.0.0-rc2-dev-596-gcfd2f1d00)*
G04 #@! TF.CreationDate,2018-08-25T14:54:55+02:00*
G04 #@! TF.ProjectId,MP2637,4D50323633372E6B696361645F706362,rev?*
G04 #@! TF.SameCoordinates,Original*
G04 #@! TF.FileFunction,Soldermask,Top*
G04 #@! TF.FilePolarity,Negative*
%FSLAX45Y45*%
G04 Gerber Fmt 4.5, Leading zero omitted, Abs format (unit mm)*
G04 Created by KiCad (PCBNEW (5.0.0-rc2-dev-596-gcfd2f1d00)) date 08/25/18 14:54:55*
%MOMM*%
%LPD*%
G01*
G04 APERTURE LIST*
%ADD10C,1.300000*%
%ADD11R,2.900000X2.400000*%
%ADD12R,2.900000X0.900000*%
%ADD13C,0.800000*%
%ADD14R,1.800000X2.000000*%
%ADD15R,2.300000X2.300000*%
%ADD16R,1.750000X0.800000*%
%ADD17R,1.416000X1.289000*%
%ADD18C,1.900000*%
%ADD19R,1.800000X1.500000*%
%ADD20R,1.400000X1.300000*%
%ADD21R,1.300000X1.400000*%
%ADD22R,1.500000X1.800000*%
%ADD23O,0.650000X2.100000*%
%ADD24O,0.650000X1.400000*%
%ADD25O,1.400000X0.650000*%
%ADD26R,1.400000X0.650000*%
%ADD27C,5.400000*%
%ADD28R,6.700000X2.400000*%
%ADD29R,1.900000X1.900000*%
%ADD30R,1.800000X1.800000*%
%ADD31C,1.800000*%
%ADD32C,1.400000*%
G04 APERTURE END LIST*
D10*
X10525000Y-6095000D03*
D11*
X10225000Y-5430000D03*
X10225000Y-6320000D03*
X10775000Y-5430000D03*
X10775000Y-6320000D03*
D12*
X10775000Y-5715000D03*
X10775000Y-5795000D03*
X10775000Y-5875000D03*
X10775000Y-5955000D03*
X10775000Y-6035000D03*
D10*
X10525000Y-5655000D03*
D13*
X10365000Y-5680000D03*
D14*
X10385000Y-5555000D03*
X10385000Y-6195000D03*
D15*
X10150000Y-5470000D03*
X10150000Y-5730000D03*
X10150000Y-6020000D03*
X10150000Y-6280000D03*
D16*
X10419000Y-5745000D03*
X10419000Y-5810000D03*
X10419000Y-5875000D03*
X10419000Y-5940000D03*
X10419000Y-6005000D03*
D13*
X10365000Y-6070000D03*
D17*
X11175000Y-5951200D03*
X11175000Y-5798800D03*
D18*
X10150000Y-6600000D03*
D19*
X11375000Y-5980000D03*
X11375000Y-5770000D03*
D20*
X12650000Y-6300000D03*
X12650000Y-6450000D03*
D21*
X12375000Y-5850000D03*
X12225000Y-5850000D03*
X13525000Y-6650000D03*
X13375000Y-6650000D03*
D20*
X12550000Y-5325000D03*
X12550000Y-5175000D03*
X12825000Y-6300000D03*
X12825000Y-6450000D03*
D22*
X13720000Y-6625000D03*
X13930000Y-6625000D03*
D23*
X12875000Y-5975000D03*
X12925000Y-5975000D03*
D24*
X12975000Y-6010000D03*
D23*
X12825000Y-5975000D03*
X12775000Y-5975000D03*
D24*
X12725000Y-6010000D03*
D25*
X12640000Y-5775000D03*
X12640000Y-5825000D03*
X12640000Y-5875000D03*
X12640000Y-5925000D03*
X12640000Y-5725000D03*
X12640000Y-5675000D03*
D24*
X12725000Y-5590000D03*
X12775000Y-5590000D03*
X12825000Y-5590000D03*
D25*
X13060000Y-5675000D03*
X13060000Y-5725000D03*
D26*
X13060000Y-5925000D03*
D25*
X13060000Y-5875000D03*
X13060000Y-5825000D03*
X13060000Y-5775000D03*
D24*
X12975000Y-5590000D03*
X12925000Y-5590000D03*
X12875000Y-5590000D03*
D22*
X11695000Y-5350000D03*
X11905000Y-5350000D03*
X11695000Y-5750000D03*
X11905000Y-5750000D03*
X11695000Y-6300000D03*
X11905000Y-6300000D03*
D27*
X11250000Y-5275000D03*
X11250000Y-6475000D03*
D28*
X13625000Y-6307500D03*
X13625000Y-5892500D03*
D21*
X12225000Y-6300000D03*
X12375000Y-6300000D03*
X12222700Y-6048390D03*
X12372700Y-6048390D03*
X12225000Y-6475000D03*
X12375000Y-6475000D03*
D20*
X12725000Y-5175000D03*
X12725000Y-5325000D03*
X12900000Y-5325000D03*
X12900000Y-5175000D03*
D21*
X12225000Y-5500000D03*
X12375000Y-5500000D03*
X12375000Y-5325000D03*
X12225000Y-5325000D03*
X12375000Y-5675000D03*
X12225000Y-5675000D03*
D20*
X14075000Y-6100000D03*
X14075000Y-5950000D03*
X14076600Y-5793780D03*
X14076600Y-5643780D03*
D21*
X11850000Y-5550000D03*
X11700000Y-5550000D03*
X11850000Y-5950000D03*
X11700000Y-5950000D03*
X11850000Y-6500000D03*
X11700000Y-6500000D03*
D20*
X13200000Y-6450000D03*
X13200000Y-6600000D03*
X13025000Y-6450000D03*
X13025000Y-6600000D03*
D21*
X13075000Y-5325000D03*
X13225000Y-5325000D03*
D22*
X13880000Y-5625000D03*
X13670000Y-5625000D03*
D29*
X10150000Y-5150000D03*
D30*
X12400000Y-6650000D03*
D31*
X12600000Y-6650000D03*
D29*
X14525000Y-6258000D03*
D18*
X14525000Y-6512000D03*
D22*
X13070000Y-5125000D03*
X13280000Y-5125000D03*
D32*
X12125000Y-6650000D03*
D20*
X13375000Y-5650000D03*
X13375000Y-5500000D03*
D22*
X13880000Y-5225000D03*
X13670000Y-5225000D03*
D29*
X14525000Y-5238000D03*
D18*
X14525000Y-5492000D03*
D29*
X14525000Y-5748000D03*
D18*
X14525000Y-6002000D03*
M02*
