M48
;DRILL file {KiCad (5.0.0-rc2-dev-596-gcfd2f1d00)} date 08/25/18 14:54:58
;FORMAT={-:-/ absolute / inch / decimal}
FMAT,2
INCH,TZ
T1C0.0118
T2C0.0157
T3C0.0315
T4C0.0354
T5C0.1260
%
G90
G05
M72
T1
X3.9646Y-2.2047
X3.9646Y-2.315
X3.9646Y-2.4213
X4.0866Y-1.9961
X4.0906Y-2.6299
X4.1353Y-2.5193
X4.1535Y-2.0866
X4.248Y-1.9961
X4.2559Y-2.6299
X4.3252Y-2.4094
X4.3268Y-2.2795
X4.3397Y-2.2074
X4.3465Y-2.3071
X4.4627Y-2.2139
X4.4985Y-2.213
X4.5457Y-2.4232
X4.5669Y-2.6299
X4.5827Y-1.9961
X4.6339Y-2.5984
X4.6965Y-2.315
X4.6967Y-2.5319
X4.7087Y-2.1575
X4.7205Y-1.9961
X4.7205Y-2.6299
X4.7296Y-2.2366
X4.7316Y-2.2842
X4.7332Y-2.3747
X4.7413Y-2.1961
X4.7437Y-2.0693
X4.7765Y-2.3412
X4.7794Y-2.5151
X4.7834Y-2.4603
X4.8404Y-2.3433
X4.8583Y-1.9961
X4.9001Y-2.5072
X4.9055Y-2.0512
X4.9064Y-2.1312
X4.9399Y-2.5105
X4.9465Y-2.3627
X4.9614Y-2.4057
X5.0141Y-2.5394
X5.0187Y-2.2687
X5.0196Y-2.2977
X5.0301Y-2.2344
X5.0433Y-1.9961
X5.0444Y-2.1638
X5.0502Y-2.268
X5.0512Y-2.0579
X5.0519Y-2.2971
X5.0754Y-2.1436
X5.0824Y-2.4829
X5.0826Y-2.2971
X5.101Y-2.2444
X5.142Y-2.1824
X5.1765Y-2.1947
X5.1832Y-2.1699
X5.185Y-2.3425
X5.2087Y-2.4094
X5.2318Y-2.6012
X5.2795Y-2.0669
X5.2938Y-2.1273
X5.2977Y-2.4016
X5.311Y-1.9961
X5.3628Y-2.5577
X5.437Y-1.9961
X5.4767Y-2.4003
X5.4934Y-2.1619
X5.5146Y-2.121
X5.5415Y-2.3132
X5.5591Y-1.9961
X5.5598Y-2.529
X5.5669Y-2.6299
X5.5954Y-2.3068
X5.647Y-2.12
X5.6594Y-2.4114
X5.6614Y-1.9961
X5.664Y-2.2163
X5.6732Y-2.6299
T2
X4.0807Y-2.2362
X4.0807Y-2.3898
T3
X4.8819Y-2.6181
X4.9606Y-2.6181
T4
X5.7185Y-2.0622
X5.7185Y-2.1622
X3.9961Y-2.5984
X4.1437Y-2.2264
X4.1437Y-2.3996
X3.9961Y-2.0276
X5.7185Y-2.4638
X5.7185Y-2.5638
X5.7185Y-2.263
X5.7185Y-2.363
T5
X4.4291Y-2.5492
X4.4291Y-2.0768
T0
M30
