G04 #@! TF.GenerationSoftware,KiCad,Pcbnew,(5.1.5)-1*
G04 #@! TF.CreationDate,2020-06-06T10:03:48+02:00*
G04 #@! TF.ProjectId,MP8765,4d503837-3635-42e6-9b69-6361645f7063,rev?*
G04 #@! TF.SameCoordinates,PXe9a6740PY8f0d180*
G04 #@! TF.FileFunction,Soldermask,Top*
G04 #@! TF.FilePolarity,Negative*
%FSLAX45Y45*%
G04 Gerber Fmt 4.5, Leading zero omitted, Abs format (unit mm)*
G04 Created by KiCad (PCBNEW (5.1.5)-1) date 2020-06-06 10:03:48*
%MOMM*%
%LPD*%
G04 APERTURE LIST*
%ADD10R,1.300000X1.400000*%
%ADD11R,1.800000X1.500000*%
%ADD12C,5.400000*%
%ADD13R,6.700000X2.400000*%
%ADD14R,1.400000X1.300000*%
%ADD15R,2.200000X1.500000*%
%ADD16R,3.400000X2.300000*%
%ADD17R,1.400000X1.400000*%
%ADD18C,1.700000*%
%ADD19C,2.400000*%
%ADD20R,2.400000X2.400000*%
%ADD21R,1.900000X1.900000*%
%ADD22C,1.900000*%
%ADD23R,1.050000X0.700000*%
%ADD24O,1.700000X0.700000*%
%ADD25O,0.600000X1.300000*%
%ADD26R,1.700000X0.700000*%
G04 APERTURE END LIST*
D10*
X-13037500Y8537500D03*
X-12887500Y8537500D03*
D11*
X-13587500Y9367500D03*
X-13587500Y9157500D03*
X-11400000Y8370000D03*
X-11400000Y8580000D03*
D12*
X-14200000Y9700000D03*
X-10800000Y9700000D03*
D13*
X-12087500Y8605000D03*
X-12087500Y9020000D03*
D11*
X-13587500Y8967500D03*
X-13587500Y8757500D03*
D14*
X-13387500Y9062500D03*
X-13387500Y8912500D03*
D10*
X-12912500Y9412500D03*
X-13062500Y9412500D03*
X-12412500Y9587500D03*
X-12562500Y9587500D03*
X-13537500Y9587500D03*
X-13387500Y9587500D03*
D15*
X-11375000Y8885000D03*
X-11375000Y9215000D03*
D16*
X-12087500Y9282500D03*
X-12087500Y8342500D03*
D10*
X-13237500Y8537500D03*
X-13387500Y8537500D03*
X-12737500Y9412500D03*
X-12587500Y9412500D03*
X-12887500Y9587500D03*
X-12737500Y9587500D03*
X-13212500Y9587500D03*
X-13062500Y9587500D03*
X-13387500Y9762500D03*
X-13537500Y9762500D03*
X-13062500Y9762500D03*
X-13212500Y9762500D03*
D17*
X-13257500Y8362500D03*
X-13517500Y8362500D03*
D18*
X-14054000Y8300000D03*
D19*
X-14250000Y8600000D03*
D20*
X-14250000Y8900000D03*
D18*
X-14054000Y9200000D03*
X-10946000Y8250000D03*
D20*
X-10750000Y8550000D03*
D19*
X-10750000Y8850000D03*
D18*
X-10946000Y9150000D03*
D21*
X-11927000Y9850000D03*
D22*
X-11673000Y9850000D03*
D14*
X-11200000Y8500000D03*
X-11200000Y8350000D03*
D23*
X-12962500Y8979000D03*
X-12962500Y8919000D03*
D24*
X-12827500Y8980000D03*
X-12827500Y8910000D03*
D25*
X-12962500Y8807500D03*
D24*
X-13097500Y8945000D03*
D26*
X-13097500Y9015000D03*
D25*
X-13002500Y8807500D03*
X-13042500Y8807500D03*
X-12922500Y8807500D03*
X-12882500Y8807500D03*
X-12882500Y9112500D03*
X-12922500Y9112500D03*
X-13042500Y9112500D03*
X-13002500Y9112500D03*
X-12962500Y9112500D03*
M02*
