M48
; DRILL file {KiCad (5.1.5)-1} date 06.06.2020 10:00:58
; FORMAT={2:4/ absolute / inch / keep zeros}
; #@! TF.CreationDate,2020-06-06T10:00:58+02:00
; #@! TF.GenerationSoftware,Kicad,Pcbnew,(5.1.5)-1
; #@! TF.FileFunction,Plated,1,2,PTH
FMAT,2
INCH
T1C0.0118
T2C0.0354
T3C0.0433
T4C0.1260
%
G90
G05
T1
X-056791Y037008
X-056791Y035433
X-056791Y033661
X-056791Y031791
X-054528Y031791
X-054232Y039075
X-053419Y033942
X-052854Y036614
X-052805Y033159
X-052756Y034449
X-052366Y038095
X-052343Y037708
X-052264Y039075
X-051821Y036929
X-051772Y031791
X-051659Y036102
X-051525Y034296
X-050875Y034273
X-050689Y032776
X-049902Y039075
X-049902Y036220
X-049606Y031791
X-049311Y034547
X-049213Y032972
X-048836Y036903
X-047736Y039075
X-047047Y031791
X-046752Y034744
X-046139Y033026
X-045925Y036964
X-045177Y039075
X-044685Y037992
X-044193Y031791
X-041634Y036909
X-041634Y034843
X-041634Y033071
X-041634Y031791
T2
X-046957Y038780
X-045957Y038780
T3
X-042323Y034843
X-042323Y033661
X-056102Y035039
X-056102Y033858
T4
X-055906Y038189
X-042520Y038189
T0
M30
