G04 #@! TF.GenerationSoftware,KiCad,Pcbnew,(5.1.5)-1*
G04 #@! TF.CreationDate,2020-06-06T10:03:48+02:00*
G04 #@! TF.ProjectId,MP8765,4d503837-3635-42e6-9b69-6361645f7063,rev?*
G04 #@! TF.SameCoordinates,PXe9a6740PY8f0d180*
G04 #@! TF.FileFunction,Copper,L2,Bot*
G04 #@! TF.FilePolarity,Positive*
%FSLAX45Y45*%
G04 Gerber Fmt 4.5, Leading zero omitted, Abs format (unit mm)*
G04 Created by KiCad (PCBNEW (5.1.5)-1) date 2020-06-06 10:03:48*
%MOMM*%
%LPD*%
G04 APERTURE LIST*
%ADD10C,5.000000*%
%ADD11C,2.000000*%
%ADD12R,2.000000X2.000000*%
%ADD13R,1.500000X1.500000*%
%ADD14C,1.500000*%
%ADD15C,0.700000*%
%ADD16C,0.500000*%
%ADD17C,0.200000*%
G04 APERTURE END LIST*
D10*
X-14200000Y9700000D03*
X-10800000Y9700000D03*
D11*
X-14250000Y8600000D03*
D12*
X-14250000Y8900000D03*
X-10750000Y8550000D03*
D11*
X-10750000Y8850000D03*
D13*
X-11927000Y9850000D03*
D14*
X-11673000Y9850000D03*
D15*
X-13400000Y8750000D03*
X-13425000Y9300000D03*
X-12675000Y9200000D03*
X-12525000Y8775000D03*
X-11875000Y8825000D03*
X-11350000Y9650000D03*
X-11665050Y9388970D03*
X-12500000Y8375000D03*
X-12875000Y8325000D03*
X-14425000Y9000000D03*
X-14425000Y9400000D03*
X-13775000Y9925000D03*
X-12125000Y9925000D03*
X-12675000Y9925000D03*
X-13275000Y9925000D03*
X-11475000Y9925000D03*
X-10575000Y9375000D03*
X-10575000Y8850000D03*
X-10575000Y8400000D03*
X-10575000Y8075000D03*
X-11225000Y8075000D03*
X-11950000Y8075000D03*
X-12600000Y8075000D03*
X-13150000Y8075000D03*
X-13850000Y8075000D03*
X-14425000Y8075000D03*
X-14425000Y8550000D03*
X-13568350Y8621220D03*
X-12404370Y9373330D03*
X-13300960Y9676130D03*
X-11719350Y8388490D03*
X-13162510Y9380030D03*
X-12922350Y8705330D03*
X-13295040Y9577830D03*
X-13087330Y8711150D03*
X-13412490Y8422460D03*
X-13121390Y9169990D03*
D16*
X-10575000Y8850000D02*
X-10750000Y8850000D01*
X-11225000Y8075000D02*
X-10575000Y8075000D01*
X-13850000Y8075000D02*
X-13150000Y8075000D01*
X-12600000Y8075000D02*
X-11950000Y8075000D01*
X-14425000Y8550000D02*
X-14425000Y8075000D01*
X-12525000Y8775000D02*
X-12675000Y9200000D01*
X-13275000Y9925000D02*
X-12675000Y9925000D01*
X-12875000Y8325000D02*
X-12500000Y8375000D01*
X-11665050Y9388970D02*
X-11350000Y9650000D01*
X-10575000Y8850000D02*
X-10575000Y9375000D01*
X-11225000Y8075000D02*
X-11875000Y8825000D01*
X-11875000Y8825000D02*
X-12525000Y8775000D01*
D17*
X-13568350Y8621220D02*
X-14145860Y8810000D01*
X-14145860Y8810000D02*
X-14150000Y8810000D01*
X-14150000Y8810000D02*
X-14160000Y8810000D01*
X-14160000Y8810000D02*
X-14250000Y8900000D01*
X-13300960Y9676130D02*
X-12404370Y9373330D01*
D16*
X-13162510Y9380030D02*
X-13061270Y9308060D01*
X-13061270Y9308060D02*
X-12983320Y9230110D01*
X-12983320Y9230110D02*
X-12981370Y9225400D01*
X-12981370Y9225400D02*
X-12922350Y8705330D01*
X-12922350Y8705330D02*
X-11719350Y8388490D01*
D17*
X-13295040Y9577830D02*
X-10854140Y8640000D01*
X-10854140Y8640000D02*
X-10850000Y8640000D01*
X-10850000Y8640000D02*
X-10840000Y8640000D01*
X-10840000Y8640000D02*
X-10750000Y8550000D01*
X-11673000Y9850000D02*
X-11835430Y9734990D01*
X-11835430Y9734990D02*
X-11868570Y9734990D01*
X-11868570Y9734990D02*
X-12018570Y9734990D01*
X-12018570Y9734990D02*
X-13269890Y9751140D01*
X-13269890Y9751140D02*
X-13332030Y9751140D01*
X-13332030Y9751140D02*
X-13375970Y9707200D01*
X-13375970Y9707200D02*
X-13375970Y9645060D01*
X-13375970Y9645060D02*
X-13370050Y9546760D01*
X-13370050Y9546760D02*
X-13237520Y9348960D01*
X-13237520Y9348960D02*
X-13193580Y9305020D01*
X-13193580Y9305020D02*
X-13090320Y9245000D01*
X-13090320Y9245000D02*
X-13046380Y9201060D01*
X-13046380Y9201060D02*
X-13046380Y9138920D01*
X-13046380Y9138920D02*
X-13087330Y8711150D01*
X-11927000Y9850000D02*
X-11992000Y9801150D01*
X-11992000Y9801150D02*
X-12002000Y9801150D01*
X-12002000Y9801150D02*
X-13352740Y9801150D01*
X-13352740Y9801150D02*
X-13425980Y9727910D01*
X-13425980Y9727910D02*
X-13425980Y9624350D01*
X-13425980Y9624350D02*
X-13420060Y9526050D01*
X-13420060Y9526050D02*
X-13287530Y9328250D01*
X-13287530Y9328250D02*
X-13214290Y9255010D01*
X-13214290Y9255010D02*
X-13121390Y9169990D01*
X-13121390Y9169990D02*
X-13412490Y8422460D01*
G36*
X-12035420Y9947330D02*
G01*
X-12039134Y9940381D01*
X-12041421Y9932841D01*
X-12042193Y9925000D01*
X-12042193Y9851150D01*
X-13350284Y9851150D01*
X-13352740Y9851392D01*
X-13362542Y9850427D01*
X-13365401Y9849559D01*
X-13371967Y9847568D01*
X-13380653Y9842925D01*
X-13388266Y9836676D01*
X-13389832Y9834768D01*
X-13459598Y9765003D01*
X-13461506Y9763436D01*
X-13467755Y9755823D01*
X-13472397Y9747137D01*
X-13474156Y9741338D01*
X-13475256Y9737712D01*
X-13476222Y9727910D01*
X-13475980Y9725454D01*
X-13475980Y9625302D01*
X-13476037Y9623796D01*
X-13475980Y9622845D01*
X-13475980Y9621894D01*
X-13475833Y9620398D01*
X-13470206Y9526971D01*
X-13470302Y9525986D01*
X-13469910Y9522064D01*
X-13469822Y9520593D01*
X-13469667Y9519621D01*
X-13469324Y9516186D01*
X-13468892Y9514767D01*
X-13468658Y9513304D01*
X-13467459Y9510067D01*
X-13466453Y9506764D01*
X-13465753Y9505458D01*
X-13465238Y9504068D01*
X-13463430Y9501126D01*
X-13462965Y9500259D01*
X-13462144Y9499034D01*
X-13460081Y9495676D01*
X-13459408Y9494950D01*
X-13330452Y9302484D01*
X-13329304Y9300337D01*
X-13327720Y9298406D01*
X-13327701Y9298378D01*
X-13326083Y9296412D01*
X-13324622Y9294631D01*
X-13324600Y9294610D01*
X-13323011Y9292679D01*
X-13321125Y9291135D01*
X-13250598Y9220607D01*
X-13249858Y9219783D01*
X-13248863Y9218873D01*
X-13247909Y9217918D01*
X-13247052Y9217215D01*
X-13196390Y9170850D01*
X-13196390Y9162603D01*
X-13193508Y9148113D01*
X-13188384Y9135743D01*
X-13438774Y8492752D01*
X-13448016Y8488924D01*
X-13460300Y8480716D01*
X-13470746Y8470270D01*
X-13478954Y8457986D01*
X-13484608Y8444337D01*
X-13487490Y8429847D01*
X-13487490Y8415073D01*
X-13484608Y8400583D01*
X-13478954Y8386934D01*
X-13470746Y8374650D01*
X-13460300Y8364204D01*
X-13448016Y8355996D01*
X-13434367Y8350342D01*
X-13419877Y8347460D01*
X-13405103Y8347460D01*
X-13390613Y8350342D01*
X-13376964Y8355996D01*
X-13364680Y8364204D01*
X-13354234Y8374650D01*
X-13346026Y8386934D01*
X-13340372Y8400583D01*
X-13337490Y8415073D01*
X-13337490Y8429847D01*
X-13340372Y8444337D01*
X-13345496Y8456707D01*
X-13102077Y9081795D01*
X-13131766Y8771661D01*
X-13135140Y8769406D01*
X-13145586Y8758960D01*
X-13153794Y8746676D01*
X-13159448Y8733027D01*
X-13162330Y8718537D01*
X-13162330Y8703763D01*
X-13159448Y8689273D01*
X-13153794Y8675624D01*
X-13145586Y8663340D01*
X-13135140Y8652894D01*
X-13122856Y8644686D01*
X-13109207Y8639032D01*
X-13094717Y8636150D01*
X-13079943Y8636150D01*
X-13065453Y8639032D01*
X-13051804Y8644686D01*
X-13039520Y8652894D01*
X-13029074Y8663340D01*
X-13020866Y8675624D01*
X-13015212Y8689273D01*
X-13012330Y8703763D01*
X-13012330Y8718537D01*
X-13015212Y8733027D01*
X-13020866Y8746676D01*
X-13029074Y8758960D01*
X-13032223Y8762109D01*
X-13014830Y8943801D01*
X-12991157Y8735200D01*
X-12994468Y8727207D01*
X-12997350Y8712717D01*
X-12997350Y8697943D01*
X-12994468Y8683453D01*
X-12988814Y8669804D01*
X-12980606Y8657520D01*
X-12970160Y8647074D01*
X-12957876Y8638866D01*
X-12944227Y8633212D01*
X-12929737Y8630330D01*
X-12914963Y8630330D01*
X-12902335Y8632842D01*
X-11772090Y8335164D01*
X-11767160Y8330234D01*
X-11754876Y8322026D01*
X-11741227Y8316372D01*
X-11726737Y8313490D01*
X-11711963Y8313490D01*
X-11697473Y8316372D01*
X-11683824Y8322026D01*
X-11671540Y8330234D01*
X-11661094Y8340680D01*
X-11652886Y8352964D01*
X-11647232Y8366613D01*
X-11644350Y8381103D01*
X-11644350Y8395877D01*
X-11647232Y8410367D01*
X-11652886Y8424016D01*
X-11661094Y8436300D01*
X-11671540Y8446746D01*
X-11683824Y8454954D01*
X-11697473Y8460608D01*
X-11711963Y8463490D01*
X-11726737Y8463490D01*
X-11739365Y8460978D01*
X-12862780Y8756857D01*
X-12916730Y9232246D01*
X-12917308Y9238131D01*
X-12918381Y9241669D01*
X-12919156Y9245284D01*
X-12921500Y9250714D01*
X-12922044Y9252029D01*
X-12922977Y9255105D01*
X-12925983Y9260729D01*
X-12929007Y9266387D01*
X-12929010Y9266392D01*
X-12929013Y9266397D01*
X-12933274Y9271589D01*
X-12937128Y9276286D01*
X-12939611Y9278325D01*
X-13012383Y9351097D01*
X-13013768Y9352888D01*
X-13016900Y9355614D01*
X-13017566Y9356280D01*
X-13019306Y9357708D01*
X-13021006Y9359188D01*
X-13021775Y9359734D01*
X-13024983Y9362367D01*
X-13026980Y9363435D01*
X-13094271Y9411270D01*
X-13096046Y9415556D01*
X-13104254Y9427840D01*
X-13114700Y9438286D01*
X-13126984Y9446494D01*
X-13140633Y9452148D01*
X-13155123Y9455030D01*
X-13169897Y9455030D01*
X-13184387Y9452148D01*
X-13198036Y9446494D01*
X-13210320Y9438286D01*
X-13220766Y9427840D01*
X-13225469Y9420801D01*
X-13281280Y9504098D01*
X-13273163Y9505712D01*
X-13260452Y9510977D01*
X-10890194Y8600289D01*
X-10890194Y8450000D01*
X-10889421Y8442159D01*
X-10887134Y8434619D01*
X-10883420Y8427670D01*
X-10878421Y8421579D01*
X-10872330Y8416580D01*
X-10865381Y8412866D01*
X-10857841Y8410579D01*
X-10850000Y8409807D01*
X-10650000Y8409807D01*
X-10642159Y8410579D01*
X-10634619Y8412866D01*
X-10627670Y8416580D01*
X-10621579Y8421579D01*
X-10616580Y8427670D01*
X-10612866Y8434619D01*
X-10610579Y8442159D01*
X-10609807Y8450000D01*
X-10609807Y8650000D01*
X-10610579Y8657841D01*
X-10612866Y8665381D01*
X-10616580Y8672330D01*
X-10621579Y8678421D01*
X-10627670Y8683420D01*
X-10634619Y8687134D01*
X-10642159Y8689421D01*
X-10650000Y8690194D01*
X-10736530Y8690194D01*
X-10710144Y8694245D01*
X-10680523Y8705013D01*
X-10668047Y8711682D01*
X-10658076Y8736863D01*
X-10750000Y8828787D01*
X-10841924Y8736863D01*
X-10831953Y8711682D01*
X-10803394Y8698351D01*
X-10772783Y8690848D01*
X-10757914Y8690194D01*
X-10839509Y8690194D01*
X-10840000Y8690242D01*
X-10840491Y8690194D01*
X-10845369Y8690194D01*
X-11238645Y8841296D01*
X-10910538Y8841296D01*
X-10905756Y8810144D01*
X-10894987Y8780523D01*
X-10888318Y8768047D01*
X-10863137Y8758076D01*
X-10771213Y8850000D01*
X-10728787Y8850000D01*
X-10636863Y8758076D01*
X-10611682Y8768047D01*
X-10598351Y8796606D01*
X-10590848Y8827217D01*
X-10589462Y8858704D01*
X-10594245Y8889856D01*
X-10605013Y8919477D01*
X-10611682Y8931953D01*
X-10636863Y8941924D01*
X-10728787Y8850000D01*
X-10771213Y8850000D01*
X-10863137Y8941924D01*
X-10888318Y8931953D01*
X-10901649Y8903394D01*
X-10909152Y8872783D01*
X-10910538Y8841296D01*
X-11238645Y8841296D01*
X-11555763Y8963137D01*
X-10841924Y8963137D01*
X-10750000Y8871213D01*
X-10658076Y8963137D01*
X-10668047Y8988318D01*
X-10696606Y9001649D01*
X-10727217Y9009152D01*
X-10758704Y9010538D01*
X-10789856Y9005756D01*
X-10819477Y8994987D01*
X-10831953Y8988318D01*
X-10841924Y8963137D01*
X-11555763Y8963137D01*
X-12069028Y9160342D01*
X-11051000Y9160342D01*
X-11051000Y9139658D01*
X-11046965Y9119373D01*
X-11039050Y9100264D01*
X-11027559Y9083066D01*
X-11012934Y9068441D01*
X-10995736Y9056950D01*
X-10976627Y9049035D01*
X-10956342Y9045000D01*
X-10935658Y9045000D01*
X-10915373Y9049035D01*
X-10896264Y9056950D01*
X-10879066Y9068441D01*
X-10864441Y9083066D01*
X-10852950Y9100264D01*
X-10845035Y9119373D01*
X-10841000Y9139658D01*
X-10841000Y9160342D01*
X-10845035Y9180627D01*
X-10852950Y9199736D01*
X-10864441Y9216934D01*
X-10879066Y9231559D01*
X-10896264Y9243050D01*
X-10915373Y9250965D01*
X-10935658Y9255000D01*
X-10956342Y9255000D01*
X-10976627Y9250965D01*
X-10995736Y9243050D01*
X-11012934Y9231559D01*
X-11027559Y9216934D01*
X-11039050Y9199736D01*
X-11046965Y9180627D01*
X-11051000Y9160342D01*
X-12069028Y9160342D01*
X-13079144Y9548443D01*
X-12473337Y9343848D01*
X-12470834Y9337804D01*
X-12462626Y9325520D01*
X-12452180Y9315074D01*
X-12439896Y9306866D01*
X-12426247Y9301212D01*
X-12411757Y9298330D01*
X-12396983Y9298330D01*
X-12382493Y9301212D01*
X-12368844Y9306866D01*
X-12356560Y9315074D01*
X-12346114Y9325520D01*
X-12337906Y9337804D01*
X-12332252Y9351453D01*
X-12329370Y9365943D01*
X-12329370Y9380717D01*
X-12332252Y9395207D01*
X-12337906Y9408856D01*
X-12346114Y9421140D01*
X-12356560Y9431586D01*
X-12368844Y9439794D01*
X-12382493Y9445448D01*
X-12396983Y9448330D01*
X-12411757Y9448330D01*
X-12426247Y9445448D01*
X-12439896Y9439794D01*
X-12441578Y9438670D01*
X-13216705Y9700450D01*
X-12021348Y9685022D01*
X-12021026Y9684990D01*
X-12018890Y9684990D01*
X-12016759Y9684963D01*
X-12016438Y9684990D01*
X-11837207Y9684990D01*
X-11834070Y9684767D01*
X-11829858Y9685297D01*
X-11825628Y9685714D01*
X-11824975Y9685912D01*
X-11824298Y9685997D01*
X-11820269Y9687339D01*
X-11816203Y9688573D01*
X-11815601Y9688894D01*
X-11814954Y9689110D01*
X-11811266Y9691212D01*
X-11807517Y9693215D01*
X-11805084Y9695212D01*
X-11728982Y9749097D01*
X-11727473Y9748088D01*
X-11706544Y9739419D01*
X-11684326Y9735000D01*
X-11661673Y9735000D01*
X-11639456Y9739419D01*
X-11618527Y9748088D01*
X-11599692Y9760674D01*
X-11583674Y9776692D01*
X-11571088Y9795527D01*
X-11562419Y9816456D01*
X-11558000Y9838674D01*
X-11558000Y9861327D01*
X-11562419Y9883544D01*
X-11571088Y9904473D01*
X-11583674Y9923308D01*
X-11599692Y9939326D01*
X-11618527Y9951912D01*
X-11619948Y9952500D01*
X-10547500Y9952500D01*
X-10547500Y8047500D01*
X-14452500Y8047500D01*
X-14452500Y8310342D01*
X-14159000Y8310342D01*
X-14159000Y8289658D01*
X-14154965Y8269373D01*
X-14147050Y8250264D01*
X-14135559Y8233066D01*
X-14120934Y8218441D01*
X-14103736Y8206950D01*
X-14084627Y8199035D01*
X-14064342Y8195000D01*
X-14043658Y8195000D01*
X-14023373Y8199035D01*
X-14004264Y8206950D01*
X-13987066Y8218441D01*
X-13972441Y8233066D01*
X-13960950Y8250264D01*
X-13956776Y8260342D01*
X-11051000Y8260342D01*
X-11051000Y8239658D01*
X-11046965Y8219373D01*
X-11039050Y8200264D01*
X-11027559Y8183066D01*
X-11012934Y8168441D01*
X-10995736Y8156950D01*
X-10976627Y8149035D01*
X-10956342Y8145000D01*
X-10935658Y8145000D01*
X-10915373Y8149035D01*
X-10896264Y8156950D01*
X-10879066Y8168441D01*
X-10864441Y8183066D01*
X-10852950Y8200264D01*
X-10845035Y8219373D01*
X-10841000Y8239658D01*
X-10841000Y8260342D01*
X-10845035Y8280627D01*
X-10852950Y8299736D01*
X-10864441Y8316934D01*
X-10879066Y8331559D01*
X-10896264Y8343050D01*
X-10915373Y8350965D01*
X-10935658Y8355000D01*
X-10956342Y8355000D01*
X-10976627Y8350965D01*
X-10995736Y8343050D01*
X-11012934Y8331559D01*
X-11027559Y8316934D01*
X-11039050Y8299736D01*
X-11046965Y8280627D01*
X-11051000Y8260342D01*
X-13956776Y8260342D01*
X-13953035Y8269373D01*
X-13949000Y8289658D01*
X-13949000Y8310342D01*
X-13953035Y8330627D01*
X-13960950Y8349736D01*
X-13972441Y8366934D01*
X-13987066Y8381559D01*
X-14004264Y8393050D01*
X-14023373Y8400965D01*
X-14043658Y8405000D01*
X-14064342Y8405000D01*
X-14084627Y8400965D01*
X-14103736Y8393050D01*
X-14120934Y8381559D01*
X-14135559Y8366934D01*
X-14147050Y8349736D01*
X-14154965Y8330627D01*
X-14159000Y8310342D01*
X-14452500Y8310342D01*
X-14452500Y8486863D01*
X-14341924Y8486863D01*
X-14331953Y8461682D01*
X-14303394Y8448351D01*
X-14272783Y8440848D01*
X-14241296Y8439462D01*
X-14210144Y8444245D01*
X-14180523Y8455013D01*
X-14168047Y8461682D01*
X-14158076Y8486863D01*
X-14250000Y8578787D01*
X-14341924Y8486863D01*
X-14452500Y8486863D01*
X-14452500Y8591296D01*
X-14410538Y8591296D01*
X-14405755Y8560144D01*
X-14394987Y8530523D01*
X-14388318Y8518047D01*
X-14363137Y8508076D01*
X-14271213Y8600000D01*
X-14228787Y8600000D01*
X-14136863Y8508076D01*
X-14111682Y8518047D01*
X-14098351Y8546606D01*
X-14090848Y8577217D01*
X-14089462Y8608704D01*
X-14094244Y8639856D01*
X-14105013Y8669477D01*
X-14111682Y8681953D01*
X-14136863Y8691924D01*
X-14228787Y8600000D01*
X-14271213Y8600000D01*
X-14363137Y8691924D01*
X-14388318Y8681953D01*
X-14401649Y8653394D01*
X-14409152Y8622783D01*
X-14410538Y8591296D01*
X-14452500Y8591296D01*
X-14452500Y9000000D01*
X-14390193Y9000000D01*
X-14390193Y8800000D01*
X-14389421Y8792159D01*
X-14387134Y8784619D01*
X-14383420Y8777670D01*
X-14378421Y8771579D01*
X-14372330Y8766580D01*
X-14365381Y8762866D01*
X-14357841Y8760579D01*
X-14350000Y8759807D01*
X-14263470Y8759807D01*
X-14289856Y8755756D01*
X-14319477Y8744987D01*
X-14331953Y8738318D01*
X-14341924Y8713137D01*
X-14250000Y8621213D01*
X-14158076Y8713137D01*
X-14168047Y8738318D01*
X-14196606Y8751649D01*
X-14227217Y8759152D01*
X-14242086Y8759807D01*
X-14160491Y8759807D01*
X-14160000Y8759758D01*
X-14159509Y8759807D01*
X-14153232Y8759807D01*
X-13637041Y8591071D01*
X-13634814Y8585694D01*
X-13626606Y8573410D01*
X-13616160Y8562964D01*
X-13603876Y8554756D01*
X-13590227Y8549102D01*
X-13575737Y8546220D01*
X-13560963Y8546220D01*
X-13546473Y8549102D01*
X-13532824Y8554756D01*
X-13520540Y8562964D01*
X-13510094Y8573410D01*
X-13501886Y8585694D01*
X-13496232Y8599343D01*
X-13493350Y8613833D01*
X-13493350Y8628607D01*
X-13496232Y8643097D01*
X-13501886Y8656746D01*
X-13510094Y8669030D01*
X-13520540Y8679476D01*
X-13532824Y8687684D01*
X-13546473Y8693338D01*
X-13560963Y8696220D01*
X-13575737Y8696220D01*
X-13590227Y8693338D01*
X-13603876Y8687684D01*
X-13606135Y8686175D01*
X-14109806Y8850818D01*
X-14109806Y9000000D01*
X-14110579Y9007841D01*
X-14112866Y9015381D01*
X-14116580Y9022330D01*
X-14121579Y9028421D01*
X-14127670Y9033420D01*
X-14134619Y9037134D01*
X-14142159Y9039421D01*
X-14150000Y9040194D01*
X-14350000Y9040194D01*
X-14357841Y9039421D01*
X-14365381Y9037134D01*
X-14372330Y9033420D01*
X-14378421Y9028421D01*
X-14383420Y9022330D01*
X-14387134Y9015381D01*
X-14389421Y9007841D01*
X-14390193Y9000000D01*
X-14452500Y9000000D01*
X-14452500Y9210342D01*
X-14159000Y9210342D01*
X-14159000Y9189658D01*
X-14154965Y9169373D01*
X-14147050Y9150264D01*
X-14135559Y9133066D01*
X-14120934Y9118441D01*
X-14103736Y9106950D01*
X-14084627Y9099035D01*
X-14064342Y9095000D01*
X-14043658Y9095000D01*
X-14023373Y9099035D01*
X-14004264Y9106950D01*
X-13987066Y9118441D01*
X-13972441Y9133066D01*
X-13960950Y9150264D01*
X-13953035Y9169373D01*
X-13949000Y9189658D01*
X-13949000Y9210342D01*
X-13953035Y9230627D01*
X-13960950Y9249736D01*
X-13972441Y9266934D01*
X-13987066Y9281559D01*
X-14004264Y9293050D01*
X-14023373Y9300965D01*
X-14043658Y9305000D01*
X-14064342Y9305000D01*
X-14084627Y9300965D01*
X-14103736Y9293050D01*
X-14120934Y9281559D01*
X-14135559Y9266934D01*
X-14147050Y9249736D01*
X-14154965Y9230627D01*
X-14159000Y9210342D01*
X-14452500Y9210342D01*
X-14452500Y9952500D01*
X-12031177Y9952500D01*
X-12035420Y9947330D01*
G37*
X-12035420Y9947330D02*
X-12039134Y9940381D01*
X-12041421Y9932841D01*
X-12042193Y9925000D01*
X-12042193Y9851150D01*
X-13350284Y9851150D01*
X-13352740Y9851392D01*
X-13362542Y9850427D01*
X-13365401Y9849559D01*
X-13371967Y9847568D01*
X-13380653Y9842925D01*
X-13388266Y9836676D01*
X-13389832Y9834768D01*
X-13459598Y9765003D01*
X-13461506Y9763436D01*
X-13467755Y9755823D01*
X-13472397Y9747137D01*
X-13474156Y9741338D01*
X-13475256Y9737712D01*
X-13476222Y9727910D01*
X-13475980Y9725454D01*
X-13475980Y9625302D01*
X-13476037Y9623796D01*
X-13475980Y9622845D01*
X-13475980Y9621894D01*
X-13475833Y9620398D01*
X-13470206Y9526971D01*
X-13470302Y9525986D01*
X-13469910Y9522064D01*
X-13469822Y9520593D01*
X-13469667Y9519621D01*
X-13469324Y9516186D01*
X-13468892Y9514767D01*
X-13468658Y9513304D01*
X-13467459Y9510067D01*
X-13466453Y9506764D01*
X-13465753Y9505458D01*
X-13465238Y9504068D01*
X-13463430Y9501126D01*
X-13462965Y9500259D01*
X-13462144Y9499034D01*
X-13460081Y9495676D01*
X-13459408Y9494950D01*
X-13330452Y9302484D01*
X-13329304Y9300337D01*
X-13327720Y9298406D01*
X-13327701Y9298378D01*
X-13326083Y9296412D01*
X-13324622Y9294631D01*
X-13324600Y9294610D01*
X-13323011Y9292679D01*
X-13321125Y9291135D01*
X-13250598Y9220607D01*
X-13249858Y9219783D01*
X-13248863Y9218873D01*
X-13247909Y9217918D01*
X-13247052Y9217215D01*
X-13196390Y9170850D01*
X-13196390Y9162603D01*
X-13193508Y9148113D01*
X-13188384Y9135743D01*
X-13438774Y8492752D01*
X-13448016Y8488924D01*
X-13460300Y8480716D01*
X-13470746Y8470270D01*
X-13478954Y8457986D01*
X-13484608Y8444337D01*
X-13487490Y8429847D01*
X-13487490Y8415073D01*
X-13484608Y8400583D01*
X-13478954Y8386934D01*
X-13470746Y8374650D01*
X-13460300Y8364204D01*
X-13448016Y8355996D01*
X-13434367Y8350342D01*
X-13419877Y8347460D01*
X-13405103Y8347460D01*
X-13390613Y8350342D01*
X-13376964Y8355996D01*
X-13364680Y8364204D01*
X-13354234Y8374650D01*
X-13346026Y8386934D01*
X-13340372Y8400583D01*
X-13337490Y8415073D01*
X-13337490Y8429847D01*
X-13340372Y8444337D01*
X-13345496Y8456707D01*
X-13102077Y9081795D01*
X-13131766Y8771661D01*
X-13135140Y8769406D01*
X-13145586Y8758960D01*
X-13153794Y8746676D01*
X-13159448Y8733027D01*
X-13162330Y8718537D01*
X-13162330Y8703763D01*
X-13159448Y8689273D01*
X-13153794Y8675624D01*
X-13145586Y8663340D01*
X-13135140Y8652894D01*
X-13122856Y8644686D01*
X-13109207Y8639032D01*
X-13094717Y8636150D01*
X-13079943Y8636150D01*
X-13065453Y8639032D01*
X-13051804Y8644686D01*
X-13039520Y8652894D01*
X-13029074Y8663340D01*
X-13020866Y8675624D01*
X-13015212Y8689273D01*
X-13012330Y8703763D01*
X-13012330Y8718537D01*
X-13015212Y8733027D01*
X-13020866Y8746676D01*
X-13029074Y8758960D01*
X-13032223Y8762109D01*
X-13014830Y8943801D01*
X-12991157Y8735200D01*
X-12994468Y8727207D01*
X-12997350Y8712717D01*
X-12997350Y8697943D01*
X-12994468Y8683453D01*
X-12988814Y8669804D01*
X-12980606Y8657520D01*
X-12970160Y8647074D01*
X-12957876Y8638866D01*
X-12944227Y8633212D01*
X-12929737Y8630330D01*
X-12914963Y8630330D01*
X-12902335Y8632842D01*
X-11772090Y8335164D01*
X-11767160Y8330234D01*
X-11754876Y8322026D01*
X-11741227Y8316372D01*
X-11726737Y8313490D01*
X-11711963Y8313490D01*
X-11697473Y8316372D01*
X-11683824Y8322026D01*
X-11671540Y8330234D01*
X-11661094Y8340680D01*
X-11652886Y8352964D01*
X-11647232Y8366613D01*
X-11644350Y8381103D01*
X-11644350Y8395877D01*
X-11647232Y8410367D01*
X-11652886Y8424016D01*
X-11661094Y8436300D01*
X-11671540Y8446746D01*
X-11683824Y8454954D01*
X-11697473Y8460608D01*
X-11711963Y8463490D01*
X-11726737Y8463490D01*
X-11739365Y8460978D01*
X-12862780Y8756857D01*
X-12916730Y9232246D01*
X-12917308Y9238131D01*
X-12918381Y9241669D01*
X-12919156Y9245284D01*
X-12921500Y9250714D01*
X-12922044Y9252029D01*
X-12922977Y9255105D01*
X-12925983Y9260729D01*
X-12929007Y9266387D01*
X-12929010Y9266392D01*
X-12929013Y9266397D01*
X-12933274Y9271589D01*
X-12937128Y9276286D01*
X-12939611Y9278325D01*
X-13012383Y9351097D01*
X-13013768Y9352888D01*
X-13016900Y9355614D01*
X-13017566Y9356280D01*
X-13019306Y9357708D01*
X-13021006Y9359188D01*
X-13021775Y9359734D01*
X-13024983Y9362367D01*
X-13026980Y9363435D01*
X-13094271Y9411270D01*
X-13096046Y9415556D01*
X-13104254Y9427840D01*
X-13114700Y9438286D01*
X-13126984Y9446494D01*
X-13140633Y9452148D01*
X-13155123Y9455030D01*
X-13169897Y9455030D01*
X-13184387Y9452148D01*
X-13198036Y9446494D01*
X-13210320Y9438286D01*
X-13220766Y9427840D01*
X-13225469Y9420801D01*
X-13281280Y9504098D01*
X-13273163Y9505712D01*
X-13260452Y9510977D01*
X-10890194Y8600289D01*
X-10890194Y8450000D01*
X-10889421Y8442159D01*
X-10887134Y8434619D01*
X-10883420Y8427670D01*
X-10878421Y8421579D01*
X-10872330Y8416580D01*
X-10865381Y8412866D01*
X-10857841Y8410579D01*
X-10850000Y8409807D01*
X-10650000Y8409807D01*
X-10642159Y8410579D01*
X-10634619Y8412866D01*
X-10627670Y8416580D01*
X-10621579Y8421579D01*
X-10616580Y8427670D01*
X-10612866Y8434619D01*
X-10610579Y8442159D01*
X-10609807Y8450000D01*
X-10609807Y8650000D01*
X-10610579Y8657841D01*
X-10612866Y8665381D01*
X-10616580Y8672330D01*
X-10621579Y8678421D01*
X-10627670Y8683420D01*
X-10634619Y8687134D01*
X-10642159Y8689421D01*
X-10650000Y8690194D01*
X-10736530Y8690194D01*
X-10710144Y8694245D01*
X-10680523Y8705013D01*
X-10668047Y8711682D01*
X-10658076Y8736863D01*
X-10750000Y8828787D01*
X-10841924Y8736863D01*
X-10831953Y8711682D01*
X-10803394Y8698351D01*
X-10772783Y8690848D01*
X-10757914Y8690194D01*
X-10839509Y8690194D01*
X-10840000Y8690242D01*
X-10840491Y8690194D01*
X-10845369Y8690194D01*
X-11238645Y8841296D01*
X-10910538Y8841296D01*
X-10905756Y8810144D01*
X-10894987Y8780523D01*
X-10888318Y8768047D01*
X-10863137Y8758076D01*
X-10771213Y8850000D01*
X-10728787Y8850000D01*
X-10636863Y8758076D01*
X-10611682Y8768047D01*
X-10598351Y8796606D01*
X-10590848Y8827217D01*
X-10589462Y8858704D01*
X-10594245Y8889856D01*
X-10605013Y8919477D01*
X-10611682Y8931953D01*
X-10636863Y8941924D01*
X-10728787Y8850000D01*
X-10771213Y8850000D01*
X-10863137Y8941924D01*
X-10888318Y8931953D01*
X-10901649Y8903394D01*
X-10909152Y8872783D01*
X-10910538Y8841296D01*
X-11238645Y8841296D01*
X-11555763Y8963137D01*
X-10841924Y8963137D01*
X-10750000Y8871213D01*
X-10658076Y8963137D01*
X-10668047Y8988318D01*
X-10696606Y9001649D01*
X-10727217Y9009152D01*
X-10758704Y9010538D01*
X-10789856Y9005756D01*
X-10819477Y8994987D01*
X-10831953Y8988318D01*
X-10841924Y8963137D01*
X-11555763Y8963137D01*
X-12069028Y9160342D01*
X-11051000Y9160342D01*
X-11051000Y9139658D01*
X-11046965Y9119373D01*
X-11039050Y9100264D01*
X-11027559Y9083066D01*
X-11012934Y9068441D01*
X-10995736Y9056950D01*
X-10976627Y9049035D01*
X-10956342Y9045000D01*
X-10935658Y9045000D01*
X-10915373Y9049035D01*
X-10896264Y9056950D01*
X-10879066Y9068441D01*
X-10864441Y9083066D01*
X-10852950Y9100264D01*
X-10845035Y9119373D01*
X-10841000Y9139658D01*
X-10841000Y9160342D01*
X-10845035Y9180627D01*
X-10852950Y9199736D01*
X-10864441Y9216934D01*
X-10879066Y9231559D01*
X-10896264Y9243050D01*
X-10915373Y9250965D01*
X-10935658Y9255000D01*
X-10956342Y9255000D01*
X-10976627Y9250965D01*
X-10995736Y9243050D01*
X-11012934Y9231559D01*
X-11027559Y9216934D01*
X-11039050Y9199736D01*
X-11046965Y9180627D01*
X-11051000Y9160342D01*
X-12069028Y9160342D01*
X-13079144Y9548443D01*
X-12473337Y9343848D01*
X-12470834Y9337804D01*
X-12462626Y9325520D01*
X-12452180Y9315074D01*
X-12439896Y9306866D01*
X-12426247Y9301212D01*
X-12411757Y9298330D01*
X-12396983Y9298330D01*
X-12382493Y9301212D01*
X-12368844Y9306866D01*
X-12356560Y9315074D01*
X-12346114Y9325520D01*
X-12337906Y9337804D01*
X-12332252Y9351453D01*
X-12329370Y9365943D01*
X-12329370Y9380717D01*
X-12332252Y9395207D01*
X-12337906Y9408856D01*
X-12346114Y9421140D01*
X-12356560Y9431586D01*
X-12368844Y9439794D01*
X-12382493Y9445448D01*
X-12396983Y9448330D01*
X-12411757Y9448330D01*
X-12426247Y9445448D01*
X-12439896Y9439794D01*
X-12441578Y9438670D01*
X-13216705Y9700450D01*
X-12021348Y9685022D01*
X-12021026Y9684990D01*
X-12018890Y9684990D01*
X-12016759Y9684963D01*
X-12016438Y9684990D01*
X-11837207Y9684990D01*
X-11834070Y9684767D01*
X-11829858Y9685297D01*
X-11825628Y9685714D01*
X-11824975Y9685912D01*
X-11824298Y9685997D01*
X-11820269Y9687339D01*
X-11816203Y9688573D01*
X-11815601Y9688894D01*
X-11814954Y9689110D01*
X-11811266Y9691212D01*
X-11807517Y9693215D01*
X-11805084Y9695212D01*
X-11728982Y9749097D01*
X-11727473Y9748088D01*
X-11706544Y9739419D01*
X-11684326Y9735000D01*
X-11661673Y9735000D01*
X-11639456Y9739419D01*
X-11618527Y9748088D01*
X-11599692Y9760674D01*
X-11583674Y9776692D01*
X-11571088Y9795527D01*
X-11562419Y9816456D01*
X-11558000Y9838674D01*
X-11558000Y9861327D01*
X-11562419Y9883544D01*
X-11571088Y9904473D01*
X-11583674Y9923308D01*
X-11599692Y9939326D01*
X-11618527Y9951912D01*
X-11619948Y9952500D01*
X-10547500Y9952500D01*
X-10547500Y8047500D01*
X-14452500Y8047500D01*
X-14452500Y8310342D01*
X-14159000Y8310342D01*
X-14159000Y8289658D01*
X-14154965Y8269373D01*
X-14147050Y8250264D01*
X-14135559Y8233066D01*
X-14120934Y8218441D01*
X-14103736Y8206950D01*
X-14084627Y8199035D01*
X-14064342Y8195000D01*
X-14043658Y8195000D01*
X-14023373Y8199035D01*
X-14004264Y8206950D01*
X-13987066Y8218441D01*
X-13972441Y8233066D01*
X-13960950Y8250264D01*
X-13956776Y8260342D01*
X-11051000Y8260342D01*
X-11051000Y8239658D01*
X-11046965Y8219373D01*
X-11039050Y8200264D01*
X-11027559Y8183066D01*
X-11012934Y8168441D01*
X-10995736Y8156950D01*
X-10976627Y8149035D01*
X-10956342Y8145000D01*
X-10935658Y8145000D01*
X-10915373Y8149035D01*
X-10896264Y8156950D01*
X-10879066Y8168441D01*
X-10864441Y8183066D01*
X-10852950Y8200264D01*
X-10845035Y8219373D01*
X-10841000Y8239658D01*
X-10841000Y8260342D01*
X-10845035Y8280627D01*
X-10852950Y8299736D01*
X-10864441Y8316934D01*
X-10879066Y8331559D01*
X-10896264Y8343050D01*
X-10915373Y8350965D01*
X-10935658Y8355000D01*
X-10956342Y8355000D01*
X-10976627Y8350965D01*
X-10995736Y8343050D01*
X-11012934Y8331559D01*
X-11027559Y8316934D01*
X-11039050Y8299736D01*
X-11046965Y8280627D01*
X-11051000Y8260342D01*
X-13956776Y8260342D01*
X-13953035Y8269373D01*
X-13949000Y8289658D01*
X-13949000Y8310342D01*
X-13953035Y8330627D01*
X-13960950Y8349736D01*
X-13972441Y8366934D01*
X-13987066Y8381559D01*
X-14004264Y8393050D01*
X-14023373Y8400965D01*
X-14043658Y8405000D01*
X-14064342Y8405000D01*
X-14084627Y8400965D01*
X-14103736Y8393050D01*
X-14120934Y8381559D01*
X-14135559Y8366934D01*
X-14147050Y8349736D01*
X-14154965Y8330627D01*
X-14159000Y8310342D01*
X-14452500Y8310342D01*
X-14452500Y8486863D01*
X-14341924Y8486863D01*
X-14331953Y8461682D01*
X-14303394Y8448351D01*
X-14272783Y8440848D01*
X-14241296Y8439462D01*
X-14210144Y8444245D01*
X-14180523Y8455013D01*
X-14168047Y8461682D01*
X-14158076Y8486863D01*
X-14250000Y8578787D01*
X-14341924Y8486863D01*
X-14452500Y8486863D01*
X-14452500Y8591296D01*
X-14410538Y8591296D01*
X-14405755Y8560144D01*
X-14394987Y8530523D01*
X-14388318Y8518047D01*
X-14363137Y8508076D01*
X-14271213Y8600000D01*
X-14228787Y8600000D01*
X-14136863Y8508076D01*
X-14111682Y8518047D01*
X-14098351Y8546606D01*
X-14090848Y8577217D01*
X-14089462Y8608704D01*
X-14094244Y8639856D01*
X-14105013Y8669477D01*
X-14111682Y8681953D01*
X-14136863Y8691924D01*
X-14228787Y8600000D01*
X-14271213Y8600000D01*
X-14363137Y8691924D01*
X-14388318Y8681953D01*
X-14401649Y8653394D01*
X-14409152Y8622783D01*
X-14410538Y8591296D01*
X-14452500Y8591296D01*
X-14452500Y9000000D01*
X-14390193Y9000000D01*
X-14390193Y8800000D01*
X-14389421Y8792159D01*
X-14387134Y8784619D01*
X-14383420Y8777670D01*
X-14378421Y8771579D01*
X-14372330Y8766580D01*
X-14365381Y8762866D01*
X-14357841Y8760579D01*
X-14350000Y8759807D01*
X-14263470Y8759807D01*
X-14289856Y8755756D01*
X-14319477Y8744987D01*
X-14331953Y8738318D01*
X-14341924Y8713137D01*
X-14250000Y8621213D01*
X-14158076Y8713137D01*
X-14168047Y8738318D01*
X-14196606Y8751649D01*
X-14227217Y8759152D01*
X-14242086Y8759807D01*
X-14160491Y8759807D01*
X-14160000Y8759758D01*
X-14159509Y8759807D01*
X-14153232Y8759807D01*
X-13637041Y8591071D01*
X-13634814Y8585694D01*
X-13626606Y8573410D01*
X-13616160Y8562964D01*
X-13603876Y8554756D01*
X-13590227Y8549102D01*
X-13575737Y8546220D01*
X-13560963Y8546220D01*
X-13546473Y8549102D01*
X-13532824Y8554756D01*
X-13520540Y8562964D01*
X-13510094Y8573410D01*
X-13501886Y8585694D01*
X-13496232Y8599343D01*
X-13493350Y8613833D01*
X-13493350Y8628607D01*
X-13496232Y8643097D01*
X-13501886Y8656746D01*
X-13510094Y8669030D01*
X-13520540Y8679476D01*
X-13532824Y8687684D01*
X-13546473Y8693338D01*
X-13560963Y8696220D01*
X-13575737Y8696220D01*
X-13590227Y8693338D01*
X-13603876Y8687684D01*
X-13606135Y8686175D01*
X-14109806Y8850818D01*
X-14109806Y9000000D01*
X-14110579Y9007841D01*
X-14112866Y9015381D01*
X-14116580Y9022330D01*
X-14121579Y9028421D01*
X-14127670Y9033420D01*
X-14134619Y9037134D01*
X-14142159Y9039421D01*
X-14150000Y9040194D01*
X-14350000Y9040194D01*
X-14357841Y9039421D01*
X-14365381Y9037134D01*
X-14372330Y9033420D01*
X-14378421Y9028421D01*
X-14383420Y9022330D01*
X-14387134Y9015381D01*
X-14389421Y9007841D01*
X-14390193Y9000000D01*
X-14452500Y9000000D01*
X-14452500Y9210342D01*
X-14159000Y9210342D01*
X-14159000Y9189658D01*
X-14154965Y9169373D01*
X-14147050Y9150264D01*
X-14135559Y9133066D01*
X-14120934Y9118441D01*
X-14103736Y9106950D01*
X-14084627Y9099035D01*
X-14064342Y9095000D01*
X-14043658Y9095000D01*
X-14023373Y9099035D01*
X-14004264Y9106950D01*
X-13987066Y9118441D01*
X-13972441Y9133066D01*
X-13960950Y9150264D01*
X-13953035Y9169373D01*
X-13949000Y9189658D01*
X-13949000Y9210342D01*
X-13953035Y9230627D01*
X-13960950Y9249736D01*
X-13972441Y9266934D01*
X-13987066Y9281559D01*
X-14004264Y9293050D01*
X-14023373Y9300965D01*
X-14043658Y9305000D01*
X-14064342Y9305000D01*
X-14084627Y9300965D01*
X-14103736Y9293050D01*
X-14120934Y9281559D01*
X-14135559Y9266934D01*
X-14147050Y9249736D01*
X-14154965Y9230627D01*
X-14159000Y9210342D01*
X-14452500Y9210342D01*
X-14452500Y9952500D01*
X-12031177Y9952500D01*
X-12035420Y9947330D01*
M02*
