G04 #@! TF.GenerationSoftware,KiCad,Pcbnew,(5.1.5)-1*
G04 #@! TF.CreationDate,2020-06-06T10:03:48+02:00*
G04 #@! TF.ProjectId,MP8765,4d503837-3635-42e6-9b69-6361645f7063,rev?*
G04 #@! TF.SameCoordinates,PXe9a6740PY8f0d180*
G04 #@! TF.FileFunction,Copper,L1,Top*
G04 #@! TF.FilePolarity,Positive*
%FSLAX45Y45*%
G04 Gerber Fmt 4.5, Leading zero omitted, Abs format (unit mm)*
G04 Created by KiCad (PCBNEW (5.1.5)-1) date 2020-06-06 10:03:48*
%MOMM*%
%LPD*%
G04 APERTURE LIST*
%ADD10C,0.500000*%
%ADD11R,0.900000X1.000000*%
%ADD12R,1.400000X1.100000*%
%ADD13C,5.000000*%
%ADD14C,0.500000*%
%ADD15R,6.300000X2.000000*%
%ADD16R,1.000000X0.900000*%
%ADD17R,1.800000X1.100000*%
%ADD18R,3.000000X1.900000*%
%ADD19R,1.000000X1.000000*%
%ADD20C,2.000000*%
%ADD21R,2.000000X2.000000*%
%ADD22R,1.500000X1.500000*%
%ADD23C,1.500000*%
%ADD24R,0.650000X0.300000*%
%ADD25O,1.300000X0.300000*%
%ADD26O,0.200000X0.900000*%
%ADD27R,1.300000X0.300000*%
%ADD28R,2.400000X1.600000*%
%ADD29C,0.700000*%
%ADD30C,0.200000*%
%ADD31C,1.200000*%
%ADD32C,2.500000*%
G04 APERTURE END LIST*
D10*
X-11525000Y8350000D02*
X-11575000Y8350000D01*
D11*
X-13037500Y8537500D03*
X-12887500Y8537500D03*
D12*
X-13587500Y9367500D03*
X-13587500Y9157500D03*
X-11400000Y8370000D03*
X-11400000Y8580000D03*
D13*
X-14200000Y9700000D03*
X-10800000Y9700000D03*
D14*
X-11525000Y8350000D03*
X-11575000Y8350000D03*
D15*
X-12087500Y8605000D03*
X-12087500Y9020000D03*
D12*
X-13587500Y8967500D03*
X-13587500Y8757500D03*
D16*
X-13387500Y9062500D03*
X-13387500Y8912500D03*
D11*
X-12912500Y9412500D03*
X-13062500Y9412500D03*
X-12412500Y9587500D03*
X-12562500Y9587500D03*
X-13537500Y9587500D03*
X-13387500Y9587500D03*
D17*
X-11375000Y8885000D03*
X-11375000Y9215000D03*
D18*
X-12087500Y9282500D03*
X-12087500Y8342500D03*
D11*
X-13237500Y8537500D03*
X-13387500Y8537500D03*
X-12737500Y9412500D03*
X-12587500Y9412500D03*
X-12887500Y9587500D03*
X-12737500Y9587500D03*
X-13212500Y9587500D03*
X-13062500Y9587500D03*
X-13387500Y9762500D03*
X-13537500Y9762500D03*
X-13062500Y9762500D03*
X-13212500Y9762500D03*
D19*
X-13257500Y8362500D03*
X-13517500Y8362500D03*
D20*
X-14250000Y8600000D03*
D21*
X-14250000Y8900000D03*
X-10750000Y8550000D03*
D20*
X-10750000Y8850000D03*
D22*
X-11927000Y9850000D03*
D23*
X-11673000Y9850000D03*
D16*
X-11200000Y8500000D03*
X-11200000Y8350000D03*
D24*
X-12962500Y8979000D03*
X-12962500Y8919000D03*
D25*
X-12827500Y8980000D03*
X-12827500Y8910000D03*
D26*
X-12962500Y8807500D03*
D25*
X-13097500Y8945000D03*
D27*
X-13097500Y9015000D03*
D26*
X-13002500Y8807500D03*
X-13042500Y8807500D03*
X-12922500Y8807500D03*
X-12882500Y8807500D03*
X-12882500Y9112500D03*
X-12922500Y9112500D03*
X-13042500Y9112500D03*
X-13002500Y9112500D03*
X-12962500Y9112500D03*
D28*
X-12882500Y8962500D03*
D29*
X-13400000Y8750000D03*
X-13425000Y9300000D03*
X-12675000Y9200000D03*
X-12525000Y8775000D03*
X-11875000Y8825000D03*
X-11350000Y9650000D03*
X-11665050Y9388970D03*
X-12500000Y8375000D03*
X-12875000Y8325000D03*
X-14425000Y9000000D03*
X-14425000Y9400000D03*
X-13775000Y9925000D03*
X-12125000Y9925000D03*
X-12675000Y9925000D03*
X-13275000Y9925000D03*
X-11475000Y9925000D03*
X-10575000Y9375000D03*
X-10575000Y8850000D03*
X-10575000Y8400000D03*
X-10575000Y8075000D03*
X-11225000Y8075000D03*
X-11950000Y8075000D03*
X-12600000Y8075000D03*
X-13150000Y8075000D03*
X-13850000Y8075000D03*
X-14425000Y8075000D03*
X-14425000Y8550000D03*
X-13568350Y8621220D03*
X-12404370Y9373330D03*
X-13300960Y9676130D03*
X-11719350Y8388490D03*
X-13162510Y9380030D03*
X-12922350Y8705330D03*
X-13295040Y9577830D03*
X-13087330Y8711150D03*
X-13412490Y8422460D03*
X-13121390Y9169990D03*
D30*
X-13163700Y8933580D02*
X-13195870Y8927580D01*
X-13163700Y8933580D02*
X-13180150Y8905300D01*
D10*
X-14200000Y9700000D02*
X-13775000Y9925000D01*
X-11525000Y8350000D02*
X-11470000Y8350000D01*
X-11470000Y8350000D02*
X-11445000Y8350000D01*
X-11445000Y8350000D02*
X-11400000Y8370000D01*
X-14200000Y9700000D02*
X-14425000Y9400000D01*
X-13587500Y8757500D02*
X-13542500Y8750000D01*
X-13542500Y8750000D02*
X-13517500Y8750000D01*
X-13517500Y8750000D02*
X-13400000Y8750000D01*
X-13150000Y8075000D02*
X-12600000Y8075000D01*
X-11225000Y8075000D02*
X-11355000Y8304640D01*
X-11355000Y8304640D02*
X-11355000Y8315000D01*
X-11355000Y8315000D02*
X-11355000Y8340000D01*
X-11355000Y8340000D02*
X-11400000Y8370000D01*
D30*
X-13097500Y8945000D02*
X-13147500Y8945000D01*
X-13147500Y8945000D02*
X-13193120Y8912840D01*
D10*
X-10575000Y9375000D02*
X-10800000Y9700000D01*
X-13587500Y9367500D02*
X-13542500Y9337500D01*
X-13542500Y9337500D02*
X-13517500Y9337500D01*
X-13517500Y9337500D02*
X-13507140Y9337500D01*
X-13507140Y9337500D02*
X-13425000Y9300000D01*
X-10800000Y9700000D02*
X-11475000Y9925000D01*
X-13400000Y8750000D02*
X-13400000Y8867500D01*
X-13400000Y8867500D02*
X-13400000Y8892500D01*
X-13400000Y8892500D02*
X-13387500Y8912500D01*
X-14425000Y9000000D02*
X-14405010Y8777210D01*
X-14405010Y8777210D02*
X-14250000Y8600000D01*
X-10575000Y8400000D02*
X-10575000Y8850000D01*
X-11375000Y9215000D02*
X-11310000Y9245000D01*
X-11310000Y9245000D02*
X-11285000Y9245000D01*
X-11285000Y9245000D02*
X-11274640Y9245000D01*
X-11274640Y9245000D02*
X-10800000Y9700000D01*
X-12675000Y9925000D02*
X-12125000Y9925000D01*
X-10750000Y8850000D02*
X-11274640Y9185000D01*
X-11274640Y9185000D02*
X-11285000Y9185000D01*
X-11285000Y9185000D02*
X-11310000Y9185000D01*
X-11310000Y9185000D02*
X-11375000Y9215000D01*
X-14250000Y8600000D02*
X-14425000Y8550000D01*
X-14425000Y9400000D02*
X-14425000Y9000000D01*
X-11950000Y8075000D02*
X-11225000Y8075000D01*
X-14425000Y8075000D02*
X-13850000Y8075000D01*
X-12737500Y9587500D02*
X-12717500Y9612500D01*
X-12717500Y9612500D02*
X-12717500Y9637500D01*
X-12717500Y9637500D02*
X-12717500Y9647860D01*
X-12717500Y9647860D02*
X-12702860Y9662500D01*
X-12702860Y9662500D02*
X-12630290Y9692510D01*
X-12630290Y9692510D02*
X-12584710Y9692510D01*
X-12584710Y9692510D02*
X-12344710Y9692510D01*
X-12344710Y9692510D02*
X-11665050Y9388970D01*
X-12737500Y9587500D02*
X-12757500Y9612500D01*
X-12757500Y9612500D02*
X-12757500Y9637500D01*
X-12757500Y9637500D02*
X-12757500Y9647860D01*
X-12757500Y9647860D02*
X-12772140Y9662500D01*
X-12772140Y9662500D02*
X-12994710Y9867510D01*
X-12994710Y9867510D02*
X-13275000Y9925000D01*
X-13275000Y9925000D02*
X-13775000Y9925000D01*
X-11400000Y8370000D02*
X-11355000Y8360000D01*
X-11355000Y8360000D02*
X-11330000Y8360000D01*
X-11330000Y8360000D02*
X-11250000Y8360000D01*
X-11250000Y8360000D02*
X-11225000Y8360000D01*
X-11225000Y8360000D02*
X-11200000Y8350000D01*
X-13037500Y8537500D02*
X-13057500Y8512500D01*
X-13057500Y8512500D02*
X-13057500Y8487500D01*
X-13057500Y8487500D02*
X-13057500Y8477140D01*
X-13057500Y8477140D02*
X-13152490Y8289710D01*
X-13152490Y8289710D02*
X-13184710Y8257490D01*
X-13184710Y8257490D02*
X-13230290Y8257490D01*
X-13230290Y8257490D02*
X-13590290Y8257490D01*
X-13590290Y8257490D02*
X-13622510Y8289710D01*
X-13622510Y8289710D02*
X-13766940Y8577900D01*
X-14250000Y8600000D02*
X-13766940Y8577900D01*
X-10575000Y8075000D02*
X-10575000Y8400000D01*
X-13587500Y9367500D02*
X-13632500Y9397500D01*
X-13632500Y9397500D02*
X-13657500Y9397500D01*
X-13657500Y9397500D02*
X-13667860Y9397500D01*
X-13667860Y9397500D02*
X-14200000Y9700000D01*
X-13387500Y8912500D02*
X-13362500Y8912840D01*
X-13362500Y8912840D02*
X-13337500Y8912840D01*
X-13337500Y8912840D02*
X-13193120Y8912840D01*
X-13766940Y8577900D02*
X-13682500Y8712860D01*
X-13682500Y8712860D02*
X-13667860Y8727500D01*
X-13667860Y8727500D02*
X-13657500Y8727500D01*
X-13657500Y8727500D02*
X-13632500Y8727500D01*
X-13632500Y8727500D02*
X-13587500Y8757500D01*
X-12600000Y8075000D02*
X-12875000Y8325000D01*
X-11665050Y9388970D02*
X-11475360Y9245000D01*
X-11475360Y9245000D02*
X-11465000Y9245000D01*
X-11465000Y9245000D02*
X-11440000Y9245000D01*
X-11440000Y9245000D02*
X-11375000Y9215000D01*
X-13168710Y9015000D02*
X-13214770Y9054450D01*
X-13168710Y9015000D02*
X-13225910Y8994850D01*
D31*
X-14250000Y8900000D02*
X-14210000Y8940000D01*
X-14210000Y8940000D02*
X-14150000Y8940000D01*
X-14150000Y8940000D02*
X-14125150Y8940000D01*
X-14125150Y8940000D02*
X-13680280Y8967500D01*
X-13680280Y8967500D02*
X-13657500Y8967500D01*
X-13657500Y8967500D02*
X-13587500Y8967500D01*
X-13387500Y9062500D02*
X-13337500Y9062500D01*
X-13337500Y9062500D02*
X-13318860Y9062500D01*
X-13318860Y9062500D02*
X-13237540Y9027870D01*
X-13587500Y9157500D02*
X-13587500Y9162500D01*
X-13587500Y9162500D02*
X-13587500Y9102500D01*
X-13587500Y9102500D02*
X-13587500Y9022500D01*
X-13587500Y9022500D02*
X-13587500Y8962500D01*
X-13587500Y8962500D02*
X-13587500Y8967500D01*
X-13587500Y9157500D02*
X-13517500Y9157500D01*
X-13517500Y9157500D02*
X-13416790Y9157500D01*
X-13416790Y9157500D02*
X-13387500Y9128210D01*
X-13387500Y9128210D02*
X-13387500Y9107500D01*
X-13387500Y9107500D02*
X-13387500Y9062500D01*
D10*
X-13237540Y9027870D02*
X-13168710Y9015000D01*
X-13168710Y9015000D02*
X-13162500Y9015000D01*
X-13162500Y9015000D02*
X-13097500Y9015000D01*
D30*
X-13387500Y8537500D02*
X-13422500Y8577500D01*
X-13422500Y8577500D02*
X-13432500Y8577500D01*
X-13432500Y8577500D02*
X-13436640Y8577500D01*
X-13436640Y8577500D02*
X-13568350Y8621220D01*
X-12922500Y9112500D02*
X-12922500Y9147500D01*
X-12922500Y9147500D02*
X-12922500Y9362500D01*
X-12922500Y9362500D02*
X-12922500Y9372500D01*
X-12922500Y9372500D02*
X-12912500Y9412500D01*
X-12587500Y9412500D02*
X-12575000Y9452500D01*
X-12575000Y9452500D02*
X-12575000Y9462500D01*
X-12575000Y9462500D02*
X-12575000Y9537500D01*
X-12575000Y9537500D02*
X-12575000Y9547500D01*
X-12575000Y9547500D02*
X-12562500Y9587500D01*
X-12829000Y8971010D02*
X-12860540Y8993410D01*
X-12829000Y8971010D02*
X-12852040Y8939930D01*
D31*
X-12823530Y8964490D02*
X-12694140Y8906450D01*
X-12823530Y8964490D02*
X-12695100Y9024630D01*
D10*
X-12338670Y9546170D02*
X-12307730Y9476360D01*
X-12338670Y9546170D02*
X-12265590Y9524040D01*
D30*
X-12882500Y8962500D02*
X-12829000Y8971010D01*
D32*
X-12087500Y9020000D02*
X-12377070Y9013250D01*
X-12377070Y9013250D02*
X-12667540Y8965760D01*
X-12087500Y9282500D02*
X-12087500Y9247500D01*
X-12087500Y9247500D02*
X-12087500Y9187500D01*
X-12087500Y9187500D02*
X-12087500Y9120000D01*
X-12087500Y9120000D02*
X-12087500Y9060000D01*
X-12087500Y9060000D02*
X-12087500Y9020000D01*
D31*
X-12667540Y8965760D02*
X-12837910Y8964370D01*
X-12837910Y8964370D02*
X-12882500Y8962500D01*
D30*
X-12829000Y8971010D02*
X-12772500Y8980000D01*
X-12772500Y8980000D02*
X-12762500Y8980000D01*
X-12762500Y8980000D02*
X-12777500Y8980000D01*
X-12777500Y8980000D02*
X-12827500Y8980000D01*
X-12827500Y8980000D02*
X-12877500Y8980000D01*
X-12877500Y8980000D02*
X-12882500Y8962500D01*
D10*
X-12275730Y9490540D02*
X-12357140Y9562500D01*
X-12357140Y9562500D02*
X-12367500Y9562500D01*
X-12367500Y9562500D02*
X-12392500Y9562500D01*
X-12392500Y9562500D02*
X-12412500Y9587500D01*
D31*
X-12087500Y9282500D02*
X-12177500Y9317500D01*
X-12177500Y9317500D02*
X-12177500Y9377500D01*
X-12177500Y9377500D02*
X-12177500Y9402350D01*
X-12177500Y9402350D02*
X-12212650Y9437500D01*
X-12212650Y9437500D02*
X-12275730Y9490540D01*
D30*
X-12827500Y8910000D02*
X-12827960Y8910000D01*
X-12827960Y8910000D02*
X-12827960Y8964450D01*
X-13387500Y9762500D02*
X-13352500Y9722500D01*
X-13352500Y9722500D02*
X-13342500Y9722500D01*
X-13342500Y9722500D02*
X-13338360Y9722500D01*
X-13338360Y9722500D02*
X-13332500Y9716640D01*
X-13332500Y9716640D02*
X-13300960Y9676130D01*
X-12404370Y9373330D02*
X-12237500Y9317500D01*
X-12237500Y9317500D02*
X-12227500Y9317500D01*
X-12227500Y9317500D02*
X-12087500Y9282500D01*
X-13175630Y9230570D02*
X-13147360Y9247050D01*
X-13175630Y9230570D02*
X-13169660Y9262750D01*
D10*
X-13062500Y9412500D02*
X-13082500Y9387500D01*
X-13082500Y9387500D02*
X-13107500Y9387500D01*
X-13107500Y9387500D02*
X-13117860Y9387500D01*
X-13117860Y9387500D02*
X-13162510Y9380030D01*
X-11719350Y8388490D02*
X-11575000Y8350000D01*
X-13062500Y9412500D02*
X-13082500Y9387500D01*
X-13082500Y9387500D02*
X-13082500Y9362500D01*
X-13082500Y9362500D02*
X-13082500Y9346890D01*
X-13082500Y9346890D02*
X-13154910Y9260010D01*
D30*
X-12922500Y8807500D02*
X-12922500Y8772500D01*
X-12922500Y8772500D02*
X-12922500Y8745420D01*
X-12922500Y8745420D02*
X-12922350Y8705330D01*
X-13154910Y9260010D02*
X-13196400Y9201060D01*
X-13196400Y9201060D02*
X-13196400Y9138920D01*
X-13196400Y9138920D02*
X-13152460Y9094980D01*
X-13152460Y9094980D02*
X-13042500Y9094980D01*
X-13042500Y9094980D02*
X-13042500Y9112500D01*
D31*
X-11400000Y8830000D02*
X-11451050Y8765240D01*
X-11400000Y8830000D02*
X-11348950Y8765240D01*
X-11400000Y8635000D02*
X-11355010Y8680900D01*
X-11400000Y8635000D02*
X-11444990Y8680900D01*
D10*
X-11175000Y8545000D02*
X-11098600Y8635480D01*
X-11175000Y8545000D02*
X-11251400Y8635480D01*
D32*
X-12087500Y8342500D02*
X-12087500Y8312500D01*
X-12087500Y8312500D02*
X-12087500Y8437500D01*
X-12087500Y8437500D02*
X-12087500Y8505000D01*
X-12087500Y8505000D02*
X-12087500Y8630000D01*
X-12087500Y8630000D02*
X-12087500Y8605000D01*
X-12087500Y8605000D02*
X-11772500Y8605000D01*
X-11772500Y8605000D02*
X-11731080Y8605000D01*
X-11731080Y8605000D02*
X-11537190Y8728650D01*
X-11537190Y8728650D02*
X-11527890Y8732500D01*
X-11527890Y8732500D02*
X-11510390Y8732500D01*
X-11510390Y8732500D02*
X-11429610Y8732500D01*
X-11429610Y8732500D02*
X-11400000Y8725000D01*
D31*
X-11375000Y8885000D02*
X-11400000Y8890000D01*
X-11400000Y8890000D02*
X-11400000Y8830000D01*
X-11400000Y8830000D02*
X-11400000Y8725000D01*
X-11400000Y8725000D02*
X-11400000Y8635000D01*
X-11400000Y8635000D02*
X-11400000Y8575000D01*
X-11400000Y8575000D02*
X-11400000Y8580000D01*
D32*
X-11400000Y8725000D02*
X-11370390Y8732500D01*
X-11370390Y8732500D02*
X-11289610Y8732500D01*
X-11289610Y8732500D02*
X-11272110Y8732500D01*
X-11272110Y8732500D02*
X-11175000Y8700000D01*
D10*
X-12887500Y8537500D02*
X-12867500Y8562500D01*
X-12867500Y8562500D02*
X-12842500Y8562500D01*
X-12842500Y8562500D02*
X-12832140Y8562500D01*
X-12832140Y8562500D02*
X-12402500Y8605000D01*
X-12402500Y8605000D02*
X-12087500Y8605000D01*
D30*
X-12882500Y8807500D02*
X-12882500Y8772500D01*
X-12882500Y8772500D02*
X-12847490Y8737350D01*
X-12847490Y8737350D02*
X-12847490Y8675210D01*
X-12847490Y8675210D02*
X-12867500Y8587500D01*
X-12867500Y8587500D02*
X-12867500Y8577500D01*
X-12867500Y8577500D02*
X-12887500Y8537500D01*
D32*
X-11175000Y8700000D02*
X-11116610Y8700010D01*
X-11116610Y8700010D02*
X-11091610Y8700010D01*
X-11091610Y8700010D02*
X-11081390Y8695780D01*
X-11081390Y8695780D02*
X-10891420Y8550000D01*
X-10891420Y8550000D02*
X-10850000Y8550000D01*
X-10850000Y8550000D02*
X-10750000Y8550000D01*
D10*
X-11175000Y8700000D02*
X-11175000Y8545000D01*
X-11175000Y8545000D02*
X-11175000Y8520000D01*
X-11175000Y8520000D02*
X-11200000Y8500000D01*
D30*
X-13295040Y9577830D02*
X-13257500Y9577830D01*
X-13257500Y9577830D02*
X-13247500Y9577830D01*
X-13247500Y9577830D02*
X-13212500Y9587500D01*
X-13387500Y9587500D02*
X-13352500Y9577830D01*
X-13352500Y9577830D02*
X-13342500Y9577830D01*
X-13342500Y9577830D02*
X-13295040Y9577830D01*
X-13257500Y8362500D02*
X-13247500Y8402500D01*
X-13247500Y8402500D02*
X-13247500Y8412500D01*
X-13247500Y8412500D02*
X-13247500Y8487500D01*
X-13247500Y8487500D02*
X-13247500Y8497500D01*
X-13247500Y8497500D02*
X-13237500Y8537500D01*
X-13087330Y8711150D02*
X-13025930Y8732500D01*
X-13025930Y8732500D02*
X-13002500Y8755930D01*
X-13002500Y8755930D02*
X-13002500Y8772500D01*
X-13002500Y8772500D02*
X-13002500Y8807500D01*
X-13237500Y8537500D02*
X-13202500Y8577500D01*
X-13202500Y8577500D02*
X-13202500Y8587500D01*
X-13202500Y8587500D02*
X-13202500Y8591640D01*
X-13202500Y8591640D02*
X-13087330Y8711150D01*
X-13537500Y9762500D02*
X-13502500Y9802500D01*
X-13502500Y9802500D02*
X-13502500Y9812500D01*
X-13502500Y9812500D02*
X-13502500Y9816640D01*
X-13502500Y9816640D02*
X-13496640Y9822500D01*
X-13496640Y9822500D02*
X-13449070Y9852510D01*
X-13449070Y9852510D02*
X-13415930Y9852510D01*
X-13415930Y9852510D02*
X-13325930Y9852510D01*
X-13325930Y9852510D02*
X-13253360Y9822500D01*
X-13253360Y9822500D02*
X-13247500Y9816640D01*
X-13247500Y9816640D02*
X-13247500Y9812500D01*
X-13247500Y9812500D02*
X-13247500Y9802500D01*
X-13247500Y9802500D02*
X-13212500Y9762500D01*
X-13537500Y9587500D02*
X-13537500Y9627500D01*
X-13537500Y9627500D02*
X-13537500Y9637500D01*
X-13537500Y9637500D02*
X-13537500Y9712500D01*
X-13537500Y9712500D02*
X-13537500Y9722500D01*
X-13537500Y9722500D02*
X-13537500Y9762500D01*
X-12882500Y9112500D02*
X-12882500Y9147500D01*
X-12882500Y9147500D02*
X-12792500Y9366640D01*
X-12792500Y9366640D02*
X-12786640Y9372500D01*
X-12786640Y9372500D02*
X-12782500Y9372500D01*
X-12782500Y9372500D02*
X-12772500Y9372500D01*
X-12772500Y9372500D02*
X-12737500Y9412500D01*
X-12962500Y9112500D02*
X-12962500Y9147500D01*
X-12962500Y9147500D02*
X-12962500Y9180640D01*
X-12962500Y9180640D02*
X-12987510Y9345930D01*
X-12987510Y9345930D02*
X-12987510Y9379070D01*
X-12987510Y9379070D02*
X-12987510Y9479070D01*
X-12987510Y9479070D02*
X-12982330Y9522930D01*
X-12982330Y9522930D02*
X-12982330Y9525170D01*
X-13062500Y9587500D02*
X-13062500Y9627500D01*
X-13062500Y9627500D02*
X-13062500Y9637500D01*
X-13062500Y9637500D02*
X-13062500Y9712500D01*
X-13062500Y9712500D02*
X-13062500Y9722500D01*
X-13062500Y9722500D02*
X-13062500Y9762500D01*
X-12982330Y9525170D02*
X-12936640Y9547500D01*
X-12936640Y9547500D02*
X-12932500Y9547500D01*
X-12932500Y9547500D02*
X-12922500Y9547500D01*
X-12922500Y9547500D02*
X-12887500Y9587500D01*
X-12982330Y9525170D02*
X-13013360Y9547500D01*
X-13013360Y9547500D02*
X-13017500Y9547500D01*
X-13017500Y9547500D02*
X-13027500Y9547500D01*
X-13027500Y9547500D02*
X-13062500Y9587500D01*
X-13002500Y9112500D02*
X-13002500Y9147500D01*
X-13002500Y9147500D02*
X-13002500Y9164070D01*
X-13002500Y9164070D02*
X-13025930Y9187500D01*
X-13025930Y9187500D02*
X-13059070Y9187500D01*
X-13059070Y9187500D02*
X-13121390Y9169990D01*
X-13517500Y8362500D02*
X-13477500Y8402500D01*
X-13477500Y8402500D02*
X-13467500Y8402500D01*
X-13467500Y8402500D02*
X-13463360Y8402500D01*
X-13463360Y8402500D02*
X-13412490Y8422460D01*
G36*
X-12035420Y9947330D02*
G01*
X-12039134Y9940381D01*
X-12041421Y9932841D01*
X-12042193Y9925000D01*
X-12042193Y9775000D01*
X-12041421Y9767159D01*
X-12039134Y9759619D01*
X-12035420Y9752670D01*
X-12030421Y9746579D01*
X-12024330Y9741580D01*
X-12017381Y9737866D01*
X-12009841Y9735579D01*
X-12002000Y9734807D01*
X-11852000Y9734807D01*
X-11844159Y9735579D01*
X-11836619Y9737866D01*
X-11829670Y9741580D01*
X-11823579Y9746579D01*
X-11818580Y9752670D01*
X-11814866Y9759619D01*
X-11812579Y9767159D01*
X-11811806Y9775000D01*
X-11811806Y9925000D01*
X-11812579Y9932841D01*
X-11814866Y9940381D01*
X-11818580Y9947330D01*
X-11822823Y9952500D01*
X-11726052Y9952500D01*
X-11727473Y9951912D01*
X-11746308Y9939326D01*
X-11762326Y9923308D01*
X-11774912Y9904473D01*
X-11783581Y9883544D01*
X-11788000Y9861327D01*
X-11788000Y9838674D01*
X-11783581Y9816456D01*
X-11774912Y9795527D01*
X-11762326Y9776692D01*
X-11746308Y9760674D01*
X-11727473Y9748088D01*
X-11706544Y9739419D01*
X-11684326Y9735000D01*
X-11661673Y9735000D01*
X-11639456Y9739419D01*
X-11618527Y9748088D01*
X-11599692Y9760674D01*
X-11583674Y9776692D01*
X-11571088Y9795527D01*
X-11562419Y9816456D01*
X-11558000Y9838674D01*
X-11558000Y9861327D01*
X-11562419Y9883544D01*
X-11571088Y9904473D01*
X-11583674Y9923308D01*
X-11599692Y9939326D01*
X-11618527Y9951912D01*
X-11619948Y9952500D01*
X-10547500Y9952500D01*
X-10547500Y8047500D01*
X-14452500Y8047500D01*
X-14452500Y8310342D01*
X-14159000Y8310342D01*
X-14159000Y8289658D01*
X-14154965Y8269373D01*
X-14147050Y8250264D01*
X-14135559Y8233066D01*
X-14120934Y8218441D01*
X-14103736Y8206950D01*
X-14084627Y8199035D01*
X-14064342Y8195000D01*
X-14043658Y8195000D01*
X-14023373Y8199035D01*
X-14004264Y8206950D01*
X-13987066Y8218441D01*
X-13972441Y8233066D01*
X-13960950Y8250264D01*
X-13953035Y8269373D01*
X-13949000Y8289658D01*
X-13949000Y8310342D01*
X-13953035Y8330627D01*
X-13960950Y8349736D01*
X-13972441Y8366934D01*
X-13987066Y8381559D01*
X-14004264Y8393050D01*
X-14023373Y8400965D01*
X-14043658Y8405000D01*
X-14064342Y8405000D01*
X-14084627Y8400965D01*
X-14103736Y8393050D01*
X-14120934Y8381559D01*
X-14135559Y8366934D01*
X-14147050Y8349736D01*
X-14154965Y8330627D01*
X-14159000Y8310342D01*
X-14452500Y8310342D01*
X-14452500Y8486863D01*
X-14341924Y8486863D01*
X-14331953Y8461682D01*
X-14303394Y8448351D01*
X-14272783Y8440848D01*
X-14241296Y8439462D01*
X-14210144Y8444245D01*
X-14180523Y8455013D01*
X-14168047Y8461682D01*
X-14158076Y8486863D01*
X-14250000Y8578787D01*
X-14341924Y8486863D01*
X-14452500Y8486863D01*
X-14452500Y8591296D01*
X-14410538Y8591296D01*
X-14405755Y8560144D01*
X-14394987Y8530523D01*
X-14388318Y8518047D01*
X-14363137Y8508076D01*
X-14271213Y8600000D01*
X-14228787Y8600000D01*
X-14136863Y8508076D01*
X-14111682Y8518047D01*
X-14098351Y8546606D01*
X-14090848Y8577217D01*
X-14089462Y8608704D01*
X-14094244Y8639856D01*
X-14105013Y8669477D01*
X-14111682Y8681953D01*
X-14136863Y8691924D01*
X-14228787Y8600000D01*
X-14271213Y8600000D01*
X-14363137Y8691924D01*
X-14388318Y8681953D01*
X-14401649Y8653394D01*
X-14409152Y8622783D01*
X-14410538Y8591296D01*
X-14452500Y8591296D01*
X-14452500Y9000000D01*
X-14390193Y9000000D01*
X-14390193Y8800000D01*
X-14389421Y8792159D01*
X-14387134Y8784619D01*
X-14383420Y8777670D01*
X-14378421Y8771579D01*
X-14372330Y8766580D01*
X-14365381Y8762866D01*
X-14357841Y8760579D01*
X-14350000Y8759807D01*
X-14263470Y8759807D01*
X-14289856Y8755756D01*
X-14319477Y8744987D01*
X-14331953Y8738318D01*
X-14341924Y8713137D01*
X-14250000Y8621213D01*
X-14158076Y8713137D01*
X-14168047Y8738318D01*
X-14196606Y8751649D01*
X-14227217Y8759152D01*
X-14242086Y8759807D01*
X-14150000Y8759807D01*
X-14142159Y8760579D01*
X-14134619Y8762866D01*
X-14127670Y8766580D01*
X-14121579Y8771579D01*
X-14116580Y8777670D01*
X-14112866Y8784619D01*
X-14110579Y8792159D01*
X-14109806Y8800000D01*
X-14109806Y8840758D01*
X-13677193Y8867500D01*
X-13618816Y8867500D01*
X-13607103Y8863947D01*
X-13587500Y8862016D01*
X-13567897Y8863947D01*
X-13549046Y8869665D01*
X-13544105Y8872307D01*
X-13517500Y8872307D01*
X-13509659Y8873079D01*
X-13502119Y8875366D01*
X-13495170Y8879080D01*
X-13489079Y8884079D01*
X-13484080Y8890170D01*
X-13480366Y8897119D01*
X-13478079Y8904659D01*
X-13477306Y8912500D01*
X-13477306Y9013571D01*
X-13476921Y9009659D01*
X-13474634Y9002119D01*
X-13470920Y8995170D01*
X-13465921Y8989079D01*
X-13459830Y8984080D01*
X-13452881Y8980366D01*
X-13445341Y8978079D01*
X-13440871Y8977639D01*
X-13425953Y8969665D01*
X-13407103Y8963947D01*
X-13392412Y8962500D01*
X-13387500Y8962016D01*
X-13382588Y8962500D01*
X-13339266Y8962500D01*
X-13272201Y8933941D01*
X-13258117Y8929516D01*
X-13238534Y8927391D01*
X-13218912Y8929128D01*
X-13208091Y8932294D01*
X-13207325Y8932482D01*
X-13206718Y8932696D01*
X-13200007Y8934659D01*
X-13197644Y8935892D01*
X-13157596Y8950000D01*
X-13094307Y8950000D01*
X-13084758Y8950941D01*
X-13072505Y8954657D01*
X-13062872Y8959807D01*
X-13042693Y8959807D01*
X-13042693Y8892723D01*
X-13052302Y8891777D01*
X-13061727Y8888918D01*
X-13070413Y8884275D01*
X-13078026Y8878026D01*
X-13084274Y8870413D01*
X-13088917Y8861727D01*
X-13091776Y8852302D01*
X-13092500Y8844956D01*
X-13092500Y8786150D01*
X-13094717Y8786150D01*
X-13109207Y8783268D01*
X-13122856Y8777614D01*
X-13135140Y8769406D01*
X-13145586Y8758960D01*
X-13153794Y8746676D01*
X-13159448Y8733027D01*
X-13162330Y8718537D01*
X-13162330Y8705379D01*
X-13236477Y8628438D01*
X-13237384Y8627694D01*
X-13282500Y8627694D01*
X-13290341Y8626921D01*
X-13297881Y8624634D01*
X-13304830Y8620920D01*
X-13310921Y8615921D01*
X-13312500Y8613997D01*
X-13314079Y8615921D01*
X-13320170Y8620920D01*
X-13327119Y8624634D01*
X-13334659Y8626921D01*
X-13342500Y8627694D01*
X-13429142Y8627694D01*
X-13499530Y8651058D01*
X-13501886Y8656746D01*
X-13510094Y8669030D01*
X-13520540Y8679476D01*
X-13532824Y8687684D01*
X-13546473Y8693338D01*
X-13560963Y8696220D01*
X-13575737Y8696220D01*
X-13590227Y8693338D01*
X-13603876Y8687684D01*
X-13616160Y8679476D01*
X-13626606Y8669030D01*
X-13634814Y8656746D01*
X-13640468Y8643097D01*
X-13643350Y8628607D01*
X-13643350Y8613833D01*
X-13640468Y8599343D01*
X-13634814Y8585694D01*
X-13626606Y8573410D01*
X-13616160Y8562964D01*
X-13603876Y8554756D01*
X-13590227Y8549102D01*
X-13575737Y8546220D01*
X-13560963Y8546220D01*
X-13546473Y8549102D01*
X-13532824Y8554756D01*
X-13530835Y8556085D01*
X-13472693Y8536785D01*
X-13472693Y8487500D01*
X-13471921Y8479659D01*
X-13469634Y8472119D01*
X-13469377Y8471639D01*
X-13470746Y8470270D01*
X-13478954Y8457986D01*
X-13481146Y8452694D01*
X-13567500Y8452694D01*
X-13575341Y8451921D01*
X-13582881Y8449634D01*
X-13589830Y8445920D01*
X-13595921Y8440921D01*
X-13600920Y8434830D01*
X-13604634Y8427881D01*
X-13606921Y8420341D01*
X-13607693Y8412500D01*
X-13607693Y8312500D01*
X-13606921Y8304659D01*
X-13604634Y8297119D01*
X-13600920Y8290170D01*
X-13595921Y8284079D01*
X-13589830Y8279080D01*
X-13582881Y8275366D01*
X-13575341Y8273079D01*
X-13567500Y8272306D01*
X-13467500Y8272306D01*
X-13459659Y8273079D01*
X-13452119Y8275366D01*
X-13445170Y8279080D01*
X-13439079Y8284079D01*
X-13434080Y8290170D01*
X-13430366Y8297119D01*
X-13428079Y8304659D01*
X-13427306Y8312500D01*
X-13427306Y8348938D01*
X-13419877Y8347460D01*
X-13405103Y8347460D01*
X-13390613Y8350342D01*
X-13376964Y8355996D01*
X-13364680Y8364204D01*
X-13354234Y8374650D01*
X-13347693Y8384438D01*
X-13347693Y8312500D01*
X-13346921Y8304659D01*
X-13344634Y8297119D01*
X-13340920Y8290170D01*
X-13335921Y8284079D01*
X-13329830Y8279080D01*
X-13322881Y8275366D01*
X-13315341Y8273079D01*
X-13307500Y8272306D01*
X-13207500Y8272306D01*
X-13199659Y8273079D01*
X-13192119Y8275366D01*
X-13185170Y8279080D01*
X-13179079Y8284079D01*
X-13174080Y8290170D01*
X-13170366Y8297119D01*
X-13168079Y8304659D01*
X-13167306Y8312500D01*
X-13167306Y8412500D01*
X-13168079Y8420341D01*
X-13170366Y8427881D01*
X-13174080Y8434830D01*
X-13179079Y8440921D01*
X-13185170Y8445920D01*
X-13188501Y8447700D01*
X-13184659Y8448079D01*
X-13177119Y8450366D01*
X-13170170Y8454080D01*
X-13164079Y8459079D01*
X-13159080Y8465170D01*
X-13155366Y8472119D01*
X-13153079Y8479659D01*
X-13152306Y8487500D01*
X-13152306Y8571670D01*
X-13090168Y8636150D01*
X-13079943Y8636150D01*
X-13065453Y8639032D01*
X-13051804Y8644686D01*
X-13039520Y8652894D01*
X-13029074Y8663340D01*
X-13020866Y8675624D01*
X-13018107Y8682284D01*
X-13010456Y8684944D01*
X-13006703Y8686083D01*
X-13003640Y8687720D01*
X-13000488Y8689176D01*
X-12999306Y8690037D01*
X-12998017Y8690726D01*
X-12996209Y8692209D01*
X-12994468Y8683453D01*
X-12988814Y8669804D01*
X-12980606Y8657520D01*
X-12970160Y8647074D01*
X-12957876Y8638866D01*
X-12944227Y8633212D01*
X-12929737Y8630330D01*
X-12914963Y8630330D01*
X-12908731Y8631570D01*
X-12909615Y8627694D01*
X-12932500Y8627694D01*
X-12940341Y8626921D01*
X-12947881Y8624634D01*
X-12954830Y8620920D01*
X-12960921Y8615921D01*
X-12965920Y8609830D01*
X-12969634Y8602881D01*
X-12971921Y8595341D01*
X-12972693Y8587500D01*
X-12972693Y8487500D01*
X-12971921Y8479659D01*
X-12969634Y8472119D01*
X-12965920Y8465170D01*
X-12960921Y8459079D01*
X-12954830Y8454080D01*
X-12947881Y8450366D01*
X-12940341Y8448079D01*
X-12932500Y8447307D01*
X-12842500Y8447307D01*
X-12834659Y8448079D01*
X-12827119Y8450366D01*
X-12820170Y8454080D01*
X-12814079Y8459079D01*
X-12809080Y8465170D01*
X-12805366Y8472119D01*
X-12803079Y8479659D01*
X-12802306Y8487500D01*
X-12802306Y8500134D01*
X-12442693Y8535707D01*
X-12442693Y8505000D01*
X-12441921Y8497159D01*
X-12439634Y8489619D01*
X-12435920Y8482670D01*
X-12430921Y8476579D01*
X-12424830Y8471580D01*
X-12417881Y8467866D01*
X-12410341Y8465579D01*
X-12402500Y8464807D01*
X-12266836Y8464807D01*
X-12270920Y8459830D01*
X-12274634Y8452881D01*
X-12276921Y8445341D01*
X-12277693Y8437500D01*
X-12277693Y8247500D01*
X-12276921Y8239659D01*
X-12274634Y8232119D01*
X-12270920Y8225170D01*
X-12265921Y8219079D01*
X-12259830Y8214080D01*
X-12252881Y8210366D01*
X-12245341Y8208079D01*
X-12237500Y8207306D01*
X-12214621Y8207306D01*
X-12204737Y8195263D01*
X-12179613Y8174644D01*
X-12150948Y8159322D01*
X-12119846Y8149887D01*
X-12087500Y8146702D01*
X-12055154Y8149887D01*
X-12024052Y8159322D01*
X-11995387Y8174644D01*
X-11970263Y8195263D01*
X-11960379Y8207306D01*
X-11937500Y8207306D01*
X-11929659Y8208079D01*
X-11922119Y8210366D01*
X-11915170Y8214080D01*
X-11909079Y8219079D01*
X-11904080Y8225170D01*
X-11900366Y8232119D01*
X-11898079Y8239659D01*
X-11897306Y8247500D01*
X-11897306Y8260342D01*
X-11051000Y8260342D01*
X-11051000Y8239658D01*
X-11046965Y8219373D01*
X-11039050Y8200264D01*
X-11027559Y8183066D01*
X-11012934Y8168441D01*
X-10995736Y8156950D01*
X-10976627Y8149035D01*
X-10956342Y8145000D01*
X-10935658Y8145000D01*
X-10915373Y8149035D01*
X-10896264Y8156950D01*
X-10879066Y8168441D01*
X-10864441Y8183066D01*
X-10852950Y8200264D01*
X-10845035Y8219373D01*
X-10841000Y8239658D01*
X-10841000Y8260342D01*
X-10845035Y8280627D01*
X-10852950Y8299736D01*
X-10864441Y8316934D01*
X-10879066Y8331559D01*
X-10896264Y8343050D01*
X-10915373Y8350965D01*
X-10935658Y8355000D01*
X-10956342Y8355000D01*
X-10976627Y8350965D01*
X-10995736Y8343050D01*
X-11012934Y8331559D01*
X-11027559Y8316934D01*
X-11039050Y8299736D01*
X-11046965Y8280627D01*
X-11051000Y8260342D01*
X-11897306Y8260342D01*
X-11897306Y8437500D01*
X-11897553Y8440000D01*
X-11773906Y8440000D01*
X-11777606Y8436300D01*
X-11785814Y8424016D01*
X-11791468Y8410367D01*
X-11794350Y8395877D01*
X-11794350Y8381103D01*
X-11791468Y8366613D01*
X-11785814Y8352964D01*
X-11777606Y8340680D01*
X-11767160Y8330234D01*
X-11754876Y8322026D01*
X-11741227Y8316372D01*
X-11726737Y8313490D01*
X-11711963Y8313490D01*
X-11699592Y8315951D01*
X-11595902Y8288302D01*
X-11593960Y8287498D01*
X-11590812Y8286872D01*
X-11587742Y8285940D01*
X-11584549Y8285626D01*
X-11581402Y8285000D01*
X-11580289Y8285000D01*
X-11579192Y8284820D01*
X-11573900Y8285000D01*
X-11521807Y8285000D01*
X-11512258Y8285940D01*
X-11500005Y8289657D01*
X-11488713Y8295693D01*
X-11478816Y8303816D01*
X-11470693Y8313713D01*
X-11464657Y8325005D01*
X-11460940Y8337258D01*
X-11459685Y8350000D01*
X-11460940Y8362742D01*
X-11464657Y8374995D01*
X-11470693Y8386287D01*
X-11478816Y8396184D01*
X-11488713Y8404307D01*
X-11500005Y8410343D01*
X-11512258Y8414060D01*
X-11521807Y8415000D01*
X-11566483Y8415000D01*
X-11666449Y8441655D01*
X-11671540Y8446746D01*
X-11675317Y8449270D01*
X-11670916Y8450503D01*
X-11669332Y8451307D01*
X-11667632Y8451822D01*
X-11654849Y8458655D01*
X-11649194Y8461524D01*
X-11647707Y8462472D01*
X-11638967Y8467144D01*
X-11634036Y8471191D01*
X-11510193Y8550169D01*
X-11510193Y8525000D01*
X-11509421Y8517159D01*
X-11507134Y8509619D01*
X-11503420Y8502670D01*
X-11498421Y8496579D01*
X-11492330Y8491580D01*
X-11485381Y8487866D01*
X-11477841Y8485579D01*
X-11470000Y8484807D01*
X-11443395Y8484807D01*
X-11438453Y8482165D01*
X-11419603Y8476447D01*
X-11400000Y8474516D01*
X-11380397Y8476447D01*
X-11361546Y8482165D01*
X-11356605Y8484807D01*
X-11330000Y8484807D01*
X-11322159Y8485579D01*
X-11314619Y8487866D01*
X-11307670Y8491580D01*
X-11301579Y8496579D01*
X-11296580Y8502670D01*
X-11292866Y8509619D01*
X-11290579Y8517159D01*
X-11290193Y8521071D01*
X-11290193Y8455000D01*
X-11289421Y8447159D01*
X-11287134Y8439619D01*
X-11283420Y8432670D01*
X-11278421Y8426579D01*
X-11272330Y8421580D01*
X-11265381Y8417866D01*
X-11257841Y8415579D01*
X-11250000Y8414807D01*
X-11150000Y8414807D01*
X-11142159Y8415579D01*
X-11134619Y8417866D01*
X-11127670Y8421580D01*
X-11121579Y8426579D01*
X-11116580Y8432670D01*
X-11112866Y8439619D01*
X-11110579Y8447159D01*
X-11109807Y8455000D01*
X-11109807Y8509603D01*
X-10994008Y8420741D01*
X-10983533Y8412144D01*
X-10973966Y8407030D01*
X-10964756Y8401303D01*
X-10959666Y8399387D01*
X-10954868Y8396822D01*
X-10944488Y8393674D01*
X-10934338Y8389853D01*
X-10928971Y8388967D01*
X-10923766Y8387387D01*
X-10912971Y8386324D01*
X-10902270Y8384557D01*
X-10888728Y8385000D01*
X-10741895Y8385000D01*
X-10717654Y8387387D01*
X-10686552Y8396822D01*
X-10662260Y8409807D01*
X-10650000Y8409807D01*
X-10642159Y8410579D01*
X-10634619Y8412866D01*
X-10627670Y8416580D01*
X-10621579Y8421579D01*
X-10616580Y8427670D01*
X-10612866Y8434619D01*
X-10610579Y8442159D01*
X-10609807Y8450000D01*
X-10609807Y8462260D01*
X-10596822Y8486552D01*
X-10587388Y8517654D01*
X-10584202Y8550000D01*
X-10587388Y8582346D01*
X-10596822Y8613448D01*
X-10609807Y8637740D01*
X-10609807Y8650000D01*
X-10610579Y8657841D01*
X-10612866Y8665381D01*
X-10616580Y8672330D01*
X-10621579Y8678421D01*
X-10627670Y8683420D01*
X-10634619Y8687134D01*
X-10642159Y8689421D01*
X-10650000Y8690194D01*
X-10662260Y8690194D01*
X-10686155Y8702966D01*
X-10680523Y8705013D01*
X-10668047Y8711682D01*
X-10658076Y8736863D01*
X-10750000Y8828787D01*
X-10751414Y8827373D01*
X-10772627Y8848586D01*
X-10771213Y8850000D01*
X-10728787Y8850000D01*
X-10636863Y8758076D01*
X-10611682Y8768047D01*
X-10598351Y8796606D01*
X-10590848Y8827217D01*
X-10589462Y8858704D01*
X-10594245Y8889856D01*
X-10605013Y8919477D01*
X-10611682Y8931953D01*
X-10636863Y8941924D01*
X-10728787Y8850000D01*
X-10771213Y8850000D01*
X-10863137Y8941924D01*
X-10888318Y8931953D01*
X-10901649Y8903394D01*
X-10909152Y8872783D01*
X-10910538Y8841296D01*
X-10905756Y8810144D01*
X-10894987Y8780523D01*
X-10888318Y8768047D01*
X-10863138Y8758076D01*
X-10874257Y8746956D01*
X-10865043Y8737742D01*
X-10978820Y8825053D01*
X-10989315Y8833661D01*
X-10998863Y8838761D01*
X-11008054Y8844477D01*
X-11020757Y8849259D01*
X-11020998Y8849359D01*
X-11028162Y8853188D01*
X-11035978Y8855559D01*
X-11035998Y8855567D01*
X-11043481Y8857835D01*
X-11059264Y8862623D01*
X-11059288Y8862625D01*
X-11059309Y8862631D01*
X-11075266Y8864199D01*
X-11083505Y8865010D01*
X-11083528Y8865010D01*
X-11091655Y8865808D01*
X-11099738Y8865010D01*
X-11108520Y8865010D01*
X-11108533Y8865011D01*
X-11116169Y8865010D01*
X-11124715Y8865010D01*
X-11124730Y8865009D01*
X-11148136Y8865005D01*
X-11206576Y8884563D01*
X-11208662Y8885678D01*
X-11221969Y8889714D01*
X-11227430Y8891542D01*
X-11229721Y8892066D01*
X-11239764Y8895113D01*
X-11244806Y8895609D01*
X-11244806Y8940000D01*
X-11245579Y8947841D01*
X-11247866Y8955381D01*
X-11251580Y8962330D01*
X-11252243Y8963137D01*
X-10841924Y8963137D01*
X-10750000Y8871213D01*
X-10658076Y8963137D01*
X-10668047Y8988318D01*
X-10696606Y9001649D01*
X-10727217Y9009152D01*
X-10758704Y9010538D01*
X-10789856Y9005756D01*
X-10819477Y8994987D01*
X-10831953Y8988318D01*
X-10841924Y8963137D01*
X-11252243Y8963137D01*
X-11256579Y8968421D01*
X-11262670Y8973420D01*
X-11269619Y8977134D01*
X-11277159Y8979421D01*
X-11285000Y8980194D01*
X-11344328Y8980194D01*
X-11350572Y8982095D01*
X-11375623Y8987105D01*
X-11380397Y8988553D01*
X-11390203Y8989519D01*
X-11399895Y8990484D01*
X-11399947Y8990479D01*
X-11400000Y8990484D01*
X-11409795Y8989519D01*
X-11419500Y8988573D01*
X-11419551Y8988558D01*
X-11419603Y8988553D01*
X-11429042Y8985690D01*
X-11438356Y8982875D01*
X-11438402Y8982850D01*
X-11438453Y8982835D01*
X-11443395Y8980194D01*
X-11465000Y8980194D01*
X-11472841Y8979421D01*
X-11480381Y8977134D01*
X-11487330Y8973420D01*
X-11493421Y8968421D01*
X-11498420Y8962330D01*
X-11502134Y8955381D01*
X-11504421Y8947841D01*
X-11505193Y8940000D01*
X-11505193Y8897500D01*
X-11519768Y8897500D01*
X-11527857Y8898298D01*
X-11535978Y8897500D01*
X-11535995Y8897500D01*
X-11544238Y8896688D01*
X-11560203Y8895119D01*
X-11560219Y8895114D01*
X-11560236Y8895113D01*
X-11576067Y8890310D01*
X-11583513Y8888053D01*
X-11583528Y8888047D01*
X-11591338Y8885678D01*
X-11594661Y8883902D01*
X-11597354Y8883147D01*
X-11606176Y8878671D01*
X-11607791Y8878003D01*
X-11613401Y8875005D01*
X-11619076Y8872126D01*
X-11620550Y8871186D01*
X-11629275Y8866525D01*
X-11634219Y8862469D01*
X-11779215Y8770000D01*
X-11999398Y8770000D01*
X-12024052Y8783178D01*
X-12055154Y8792613D01*
X-12087500Y8795798D01*
X-12119846Y8792613D01*
X-12150948Y8783178D01*
X-12179613Y8767856D01*
X-12204737Y8747237D01*
X-12206414Y8745194D01*
X-12402500Y8745194D01*
X-12410341Y8744421D01*
X-12417881Y8742134D01*
X-12424830Y8738420D01*
X-12430921Y8733421D01*
X-12435920Y8727330D01*
X-12439634Y8720381D01*
X-12441921Y8712841D01*
X-12442693Y8705000D01*
X-12442693Y8666341D01*
X-12806437Y8630360D01*
X-12799133Y8662376D01*
X-12798213Y8665408D01*
X-12797799Y8669616D01*
X-12797268Y8673806D01*
X-12797490Y8676965D01*
X-12797490Y8734844D01*
X-12797248Y8737250D01*
X-12797490Y8739756D01*
X-12797490Y8739806D01*
X-12797727Y8742214D01*
X-12798194Y8747053D01*
X-12798208Y8747101D01*
X-12798213Y8747152D01*
X-12799633Y8751833D01*
X-12801034Y8756484D01*
X-12801058Y8756529D01*
X-12801072Y8756577D01*
X-12803370Y8760875D01*
X-12805660Y8765180D01*
X-12805692Y8765219D01*
X-12805715Y8765263D01*
X-12808815Y8769040D01*
X-12810331Y8770895D01*
X-12810366Y8770930D01*
X-12811964Y8772876D01*
X-12813833Y8774410D01*
X-12832500Y8793152D01*
X-12832500Y8842307D01*
X-12795477Y8842307D01*
X-12742852Y8818701D01*
X-12736202Y8814848D01*
X-12705441Y8804352D01*
X-12673224Y8800059D01*
X-12648916Y8801614D01*
X-12361762Y8848562D01*
X-12093686Y8854811D01*
X-12087500Y8854202D01*
X-12077478Y8855189D01*
X-12075552Y8855234D01*
X-12069414Y8855983D01*
X-12055154Y8857388D01*
X-12053298Y8857951D01*
X-12051374Y8858186D01*
X-12037767Y8862662D01*
X-12024052Y8866822D01*
X-12022341Y8867737D01*
X-12020499Y8868343D01*
X-12008026Y8875388D01*
X-11999760Y8879807D01*
X-11772500Y8879807D01*
X-11764659Y8880579D01*
X-11757119Y8882866D01*
X-11750170Y8886580D01*
X-11744079Y8891579D01*
X-11739080Y8897670D01*
X-11735366Y8904619D01*
X-11733079Y8912159D01*
X-11732306Y8920000D01*
X-11732306Y9120000D01*
X-11733079Y9127841D01*
X-11735366Y9135381D01*
X-11739080Y9142330D01*
X-11744079Y9148421D01*
X-11750170Y9153420D01*
X-11757119Y9157134D01*
X-11764659Y9159421D01*
X-11772500Y9160194D01*
X-11908164Y9160194D01*
X-11908043Y9160342D01*
X-11051000Y9160342D01*
X-11051000Y9139658D01*
X-11046965Y9119373D01*
X-11039050Y9100264D01*
X-11027559Y9083066D01*
X-11012934Y9068441D01*
X-10995736Y9056950D01*
X-10976627Y9049035D01*
X-10956342Y9045000D01*
X-10935658Y9045000D01*
X-10915373Y9049035D01*
X-10896264Y9056950D01*
X-10879066Y9068441D01*
X-10864441Y9083066D01*
X-10852950Y9100264D01*
X-10845035Y9119373D01*
X-10841000Y9139658D01*
X-10841000Y9160342D01*
X-10845035Y9180627D01*
X-10852950Y9199736D01*
X-10864441Y9216934D01*
X-10879066Y9231559D01*
X-10896264Y9243050D01*
X-10915373Y9250965D01*
X-10935658Y9255000D01*
X-10956342Y9255000D01*
X-10976627Y9250965D01*
X-10995736Y9243050D01*
X-11012934Y9231559D01*
X-11027559Y9216934D01*
X-11039050Y9199736D01*
X-11046965Y9180627D01*
X-11051000Y9160342D01*
X-11908043Y9160342D01*
X-11904080Y9165170D01*
X-11900366Y9172119D01*
X-11898079Y9179659D01*
X-11897306Y9187500D01*
X-11897306Y9377500D01*
X-11898079Y9385341D01*
X-11900366Y9392881D01*
X-11904080Y9399830D01*
X-11909079Y9405921D01*
X-11915170Y9410920D01*
X-11922119Y9414634D01*
X-11929659Y9416921D01*
X-11937500Y9417694D01*
X-11992143Y9417694D01*
X-11995387Y9420356D01*
X-12024052Y9435678D01*
X-12055154Y9445113D01*
X-12087500Y9448298D01*
X-12088613Y9448189D01*
X-12093951Y9458176D01*
X-12106447Y9473403D01*
X-12110264Y9476535D01*
X-12141520Y9507791D01*
X-12144534Y9510878D01*
X-12144991Y9511262D01*
X-12145413Y9511684D01*
X-12148741Y9514415D01*
X-12215133Y9570240D01*
X-12227309Y9578588D01*
X-12245416Y9586342D01*
X-12250843Y9587489D01*
X-12306245Y9604266D01*
X-12310194Y9607757D01*
X-12310956Y9608684D01*
X-12314984Y9611990D01*
X-12316484Y9613316D01*
X-12317451Y9614015D01*
X-12320853Y9616807D01*
X-12322630Y9617757D01*
X-12324262Y9618936D01*
X-12327306Y9620330D01*
X-12327306Y9637500D01*
X-12328079Y9645341D01*
X-12330366Y9652881D01*
X-12334080Y9659830D01*
X-12339079Y9665921D01*
X-12345170Y9670920D01*
X-12352119Y9674634D01*
X-12359659Y9676921D01*
X-12367500Y9677694D01*
X-12457500Y9677694D01*
X-12465341Y9676921D01*
X-12472881Y9674634D01*
X-12479830Y9670920D01*
X-12485921Y9665921D01*
X-12487500Y9663997D01*
X-12489079Y9665921D01*
X-12495170Y9670920D01*
X-12502119Y9674634D01*
X-12509659Y9676921D01*
X-12517500Y9677694D01*
X-12607500Y9677694D01*
X-12615341Y9676921D01*
X-12622881Y9674634D01*
X-12629830Y9670920D01*
X-12635921Y9665921D01*
X-12640920Y9659830D01*
X-12644634Y9652881D01*
X-12646921Y9645341D01*
X-12647693Y9637500D01*
X-12647693Y9537500D01*
X-12646921Y9529659D01*
X-12644634Y9522119D01*
X-12640920Y9515170D01*
X-12635921Y9509079D01*
X-12629830Y9504080D01*
X-12627236Y9502694D01*
X-12632500Y9502694D01*
X-12640341Y9501921D01*
X-12647881Y9499634D01*
X-12654830Y9495920D01*
X-12660921Y9490921D01*
X-12662500Y9488997D01*
X-12664079Y9490921D01*
X-12670170Y9495920D01*
X-12677119Y9499634D01*
X-12684659Y9501921D01*
X-12692500Y9502694D01*
X-12782500Y9502694D01*
X-12790341Y9501921D01*
X-12797881Y9499634D01*
X-12804830Y9495920D01*
X-12810921Y9490921D01*
X-12815920Y9484830D01*
X-12819634Y9477881D01*
X-12821921Y9470341D01*
X-12822693Y9462500D01*
X-12822693Y9407384D01*
X-12823733Y9406118D01*
X-12826171Y9403679D01*
X-12827306Y9402742D01*
X-12827306Y9462500D01*
X-12828079Y9470341D01*
X-12830366Y9477881D01*
X-12834080Y9484830D01*
X-12839079Y9490921D01*
X-12845170Y9495920D01*
X-12847764Y9497307D01*
X-12842500Y9497307D01*
X-12834659Y9498079D01*
X-12827119Y9500366D01*
X-12820170Y9504080D01*
X-12814079Y9509079D01*
X-12809080Y9515170D01*
X-12805366Y9522119D01*
X-12803079Y9529659D01*
X-12802306Y9537500D01*
X-12802306Y9637500D01*
X-12803079Y9645341D01*
X-12805366Y9652881D01*
X-12809080Y9659830D01*
X-12814079Y9665921D01*
X-12820170Y9670920D01*
X-12827119Y9674634D01*
X-12834659Y9676921D01*
X-12842500Y9677694D01*
X-12932500Y9677694D01*
X-12940341Y9676921D01*
X-12947881Y9674634D01*
X-12954830Y9670920D01*
X-12960921Y9665921D01*
X-12965920Y9659830D01*
X-12969634Y9652881D01*
X-12971921Y9645341D01*
X-12972693Y9637500D01*
X-12972693Y9585532D01*
X-12977306Y9583277D01*
X-12977306Y9637500D01*
X-12978079Y9645341D01*
X-12980366Y9652881D01*
X-12984080Y9659830D01*
X-12989079Y9665921D01*
X-12995170Y9670920D01*
X-13002119Y9674634D01*
X-13003325Y9675000D01*
X-13002119Y9675366D01*
X-12995170Y9679080D01*
X-12989079Y9684079D01*
X-12984080Y9690170D01*
X-12980366Y9697119D01*
X-12978079Y9704659D01*
X-12977306Y9712500D01*
X-12977306Y9812500D01*
X-12978079Y9820341D01*
X-12980366Y9827881D01*
X-12984080Y9834830D01*
X-12989079Y9840921D01*
X-12995170Y9845920D01*
X-13002119Y9849634D01*
X-13009659Y9851921D01*
X-13017500Y9852694D01*
X-13107500Y9852694D01*
X-13115341Y9851921D01*
X-13122881Y9849634D01*
X-13129830Y9845920D01*
X-13135921Y9840921D01*
X-13137500Y9838997D01*
X-13139079Y9840921D01*
X-13145170Y9845920D01*
X-13152119Y9849634D01*
X-13159659Y9851921D01*
X-13167500Y9852694D01*
X-13212616Y9852694D01*
X-13213882Y9853733D01*
X-13216278Y9856128D01*
X-13217854Y9858047D01*
X-13221749Y9861240D01*
X-13225447Y9864275D01*
X-13225460Y9864281D01*
X-13225471Y9864291D01*
X-13229838Y9866621D01*
X-13234133Y9868917D01*
X-13236509Y9869638D01*
X-13304539Y9897771D01*
X-13306703Y9898928D01*
X-13309080Y9899648D01*
X-13309092Y9899654D01*
X-13311271Y9900313D01*
X-13316128Y9901787D01*
X-13316143Y9901788D01*
X-13316157Y9901792D01*
X-13320978Y9902264D01*
X-13323474Y9902510D01*
X-13323489Y9902510D01*
X-13325959Y9902752D01*
X-13328400Y9902510D01*
X-13445956Y9902510D01*
X-13447752Y9902735D01*
X-13450867Y9902510D01*
X-13451526Y9902510D01*
X-13453320Y9902333D01*
X-13457575Y9902027D01*
X-13458213Y9901851D01*
X-13458872Y9901787D01*
X-13462958Y9900547D01*
X-13467072Y9899416D01*
X-13467663Y9899120D01*
X-13468297Y9898928D01*
X-13472062Y9896915D01*
X-13473671Y9896109D01*
X-13474226Y9895758D01*
X-13476983Y9894285D01*
X-13478382Y9893136D01*
X-13521797Y9865748D01*
X-13524553Y9864275D01*
X-13527852Y9861567D01*
X-13531222Y9858946D01*
X-13533267Y9856583D01*
X-13536118Y9853733D01*
X-13537384Y9852694D01*
X-13582500Y9852694D01*
X-13590341Y9851921D01*
X-13597881Y9849634D01*
X-13604830Y9845920D01*
X-13610921Y9840921D01*
X-13615920Y9834830D01*
X-13619634Y9827881D01*
X-13621921Y9820341D01*
X-13622693Y9812500D01*
X-13622693Y9712500D01*
X-13621921Y9704659D01*
X-13619634Y9697119D01*
X-13615920Y9690170D01*
X-13610921Y9684079D01*
X-13604830Y9679080D01*
X-13597881Y9675366D01*
X-13596675Y9675000D01*
X-13597881Y9674634D01*
X-13604830Y9670920D01*
X-13610921Y9665921D01*
X-13615920Y9659830D01*
X-13619634Y9652881D01*
X-13621921Y9645341D01*
X-13622693Y9637500D01*
X-13622693Y9537500D01*
X-13621921Y9529659D01*
X-13619634Y9522119D01*
X-13615920Y9515170D01*
X-13610921Y9509079D01*
X-13604830Y9504080D01*
X-13597881Y9500366D01*
X-13590341Y9498079D01*
X-13582500Y9497307D01*
X-13492500Y9497307D01*
X-13484659Y9498079D01*
X-13477119Y9500366D01*
X-13470170Y9504080D01*
X-13464079Y9509079D01*
X-13462500Y9511003D01*
X-13460921Y9509079D01*
X-13454830Y9504080D01*
X-13447881Y9500366D01*
X-13440341Y9498079D01*
X-13432500Y9497307D01*
X-13342500Y9497307D01*
X-13334659Y9498079D01*
X-13327119Y9500366D01*
X-13320170Y9504080D01*
X-13317757Y9506060D01*
X-13316917Y9505712D01*
X-13302427Y9502830D01*
X-13287653Y9502830D01*
X-13280130Y9504326D01*
X-13279830Y9504080D01*
X-13272881Y9500366D01*
X-13265341Y9498079D01*
X-13257500Y9497307D01*
X-13167500Y9497307D01*
X-13159659Y9498079D01*
X-13152119Y9500366D01*
X-13145170Y9504080D01*
X-13139079Y9509079D01*
X-13137500Y9511003D01*
X-13135921Y9509079D01*
X-13129830Y9504080D01*
X-13122881Y9500366D01*
X-13121675Y9500000D01*
X-13122881Y9499634D01*
X-13129830Y9495920D01*
X-13135921Y9490921D01*
X-13140920Y9484830D01*
X-13144634Y9477881D01*
X-13146921Y9470341D01*
X-13147693Y9462500D01*
X-13147693Y9453552D01*
X-13155123Y9455030D01*
X-13169897Y9455030D01*
X-13184387Y9452148D01*
X-13198036Y9446494D01*
X-13210320Y9438286D01*
X-13220766Y9427840D01*
X-13228974Y9415556D01*
X-13234628Y9401907D01*
X-13237510Y9387417D01*
X-13237510Y9372643D01*
X-13234628Y9358153D01*
X-13228974Y9344504D01*
X-13220766Y9332220D01*
X-13210320Y9321774D01*
X-13198036Y9313566D01*
X-13195697Y9312597D01*
X-13206886Y9299172D01*
X-13212277Y9291235D01*
X-13217266Y9279443D01*
X-13218233Y9274769D01*
X-13218373Y9274285D01*
X-13218721Y9272410D01*
X-13219859Y9266905D01*
X-13219864Y9266246D01*
X-13222800Y9250423D01*
X-13236224Y9231350D01*
X-13238175Y9228973D01*
X-13240211Y9225163D01*
X-13242338Y9221406D01*
X-13242529Y9220826D01*
X-13242817Y9220287D01*
X-13244071Y9216153D01*
X-13245424Y9212053D01*
X-13245499Y9211446D01*
X-13245676Y9210862D01*
X-13246100Y9206563D01*
X-13246627Y9202277D01*
X-13246400Y9199212D01*
X-13246400Y9141377D01*
X-13246499Y9140375D01*
X-13275615Y9152774D01*
X-13280406Y9155335D01*
X-13289365Y9158053D01*
X-13292336Y9158986D01*
X-13294665Y9166664D01*
X-13303951Y9184036D01*
X-13316447Y9199263D01*
X-13320264Y9202395D01*
X-13342605Y9224736D01*
X-13345737Y9228553D01*
X-13360964Y9241049D01*
X-13378336Y9250335D01*
X-13397187Y9256053D01*
X-13411878Y9257500D01*
X-13416790Y9257984D01*
X-13421702Y9257500D01*
X-13556184Y9257500D01*
X-13567897Y9261053D01*
X-13587500Y9262984D01*
X-13607103Y9261053D01*
X-13625953Y9255335D01*
X-13630895Y9252694D01*
X-13657500Y9252694D01*
X-13665341Y9251921D01*
X-13672881Y9249634D01*
X-13679830Y9245920D01*
X-13685921Y9240921D01*
X-13690920Y9234830D01*
X-13694634Y9227881D01*
X-13696921Y9220341D01*
X-13697693Y9212500D01*
X-13697693Y9102500D01*
X-13696921Y9094659D01*
X-13694634Y9087119D01*
X-13690920Y9080170D01*
X-13687500Y9076003D01*
X-13687500Y9067273D01*
X-13688268Y9067197D01*
X-14128237Y9040000D01*
X-14148035Y9040000D01*
X-14150000Y9040194D01*
X-14207053Y9040194D01*
X-14210000Y9040484D01*
X-14212947Y9040194D01*
X-14350000Y9040194D01*
X-14357841Y9039421D01*
X-14365381Y9037134D01*
X-14372330Y9033420D01*
X-14378421Y9028421D01*
X-14383420Y9022330D01*
X-14387134Y9015381D01*
X-14389421Y9007841D01*
X-14390193Y9000000D01*
X-14452500Y9000000D01*
X-14452500Y9210342D01*
X-14159000Y9210342D01*
X-14159000Y9189658D01*
X-14154965Y9169373D01*
X-14147050Y9150264D01*
X-14135559Y9133066D01*
X-14120934Y9118441D01*
X-14103736Y9106950D01*
X-14084627Y9099035D01*
X-14064342Y9095000D01*
X-14043658Y9095000D01*
X-14023373Y9099035D01*
X-14004264Y9106950D01*
X-13987066Y9118441D01*
X-13972441Y9133066D01*
X-13960950Y9150264D01*
X-13953035Y9169373D01*
X-13949000Y9189658D01*
X-13949000Y9210342D01*
X-13953035Y9230627D01*
X-13960950Y9249736D01*
X-13972441Y9266934D01*
X-13987066Y9281559D01*
X-14004264Y9293050D01*
X-14023373Y9300965D01*
X-14043658Y9305000D01*
X-14064342Y9305000D01*
X-14084627Y9300965D01*
X-14103736Y9293050D01*
X-14120934Y9281559D01*
X-14135559Y9266934D01*
X-14147050Y9249736D01*
X-14154965Y9230627D01*
X-14159000Y9210342D01*
X-14452500Y9210342D01*
X-14452500Y9952500D01*
X-12031177Y9952500D01*
X-12035420Y9947330D01*
G37*
X-12035420Y9947330D02*
X-12039134Y9940381D01*
X-12041421Y9932841D01*
X-12042193Y9925000D01*
X-12042193Y9775000D01*
X-12041421Y9767159D01*
X-12039134Y9759619D01*
X-12035420Y9752670D01*
X-12030421Y9746579D01*
X-12024330Y9741580D01*
X-12017381Y9737866D01*
X-12009841Y9735579D01*
X-12002000Y9734807D01*
X-11852000Y9734807D01*
X-11844159Y9735579D01*
X-11836619Y9737866D01*
X-11829670Y9741580D01*
X-11823579Y9746579D01*
X-11818580Y9752670D01*
X-11814866Y9759619D01*
X-11812579Y9767159D01*
X-11811806Y9775000D01*
X-11811806Y9925000D01*
X-11812579Y9932841D01*
X-11814866Y9940381D01*
X-11818580Y9947330D01*
X-11822823Y9952500D01*
X-11726052Y9952500D01*
X-11727473Y9951912D01*
X-11746308Y9939326D01*
X-11762326Y9923308D01*
X-11774912Y9904473D01*
X-11783581Y9883544D01*
X-11788000Y9861327D01*
X-11788000Y9838674D01*
X-11783581Y9816456D01*
X-11774912Y9795527D01*
X-11762326Y9776692D01*
X-11746308Y9760674D01*
X-11727473Y9748088D01*
X-11706544Y9739419D01*
X-11684326Y9735000D01*
X-11661673Y9735000D01*
X-11639456Y9739419D01*
X-11618527Y9748088D01*
X-11599692Y9760674D01*
X-11583674Y9776692D01*
X-11571088Y9795527D01*
X-11562419Y9816456D01*
X-11558000Y9838674D01*
X-11558000Y9861327D01*
X-11562419Y9883544D01*
X-11571088Y9904473D01*
X-11583674Y9923308D01*
X-11599692Y9939326D01*
X-11618527Y9951912D01*
X-11619948Y9952500D01*
X-10547500Y9952500D01*
X-10547500Y8047500D01*
X-14452500Y8047500D01*
X-14452500Y8310342D01*
X-14159000Y8310342D01*
X-14159000Y8289658D01*
X-14154965Y8269373D01*
X-14147050Y8250264D01*
X-14135559Y8233066D01*
X-14120934Y8218441D01*
X-14103736Y8206950D01*
X-14084627Y8199035D01*
X-14064342Y8195000D01*
X-14043658Y8195000D01*
X-14023373Y8199035D01*
X-14004264Y8206950D01*
X-13987066Y8218441D01*
X-13972441Y8233066D01*
X-13960950Y8250264D01*
X-13953035Y8269373D01*
X-13949000Y8289658D01*
X-13949000Y8310342D01*
X-13953035Y8330627D01*
X-13960950Y8349736D01*
X-13972441Y8366934D01*
X-13987066Y8381559D01*
X-14004264Y8393050D01*
X-14023373Y8400965D01*
X-14043658Y8405000D01*
X-14064342Y8405000D01*
X-14084627Y8400965D01*
X-14103736Y8393050D01*
X-14120934Y8381559D01*
X-14135559Y8366934D01*
X-14147050Y8349736D01*
X-14154965Y8330627D01*
X-14159000Y8310342D01*
X-14452500Y8310342D01*
X-14452500Y8486863D01*
X-14341924Y8486863D01*
X-14331953Y8461682D01*
X-14303394Y8448351D01*
X-14272783Y8440848D01*
X-14241296Y8439462D01*
X-14210144Y8444245D01*
X-14180523Y8455013D01*
X-14168047Y8461682D01*
X-14158076Y8486863D01*
X-14250000Y8578787D01*
X-14341924Y8486863D01*
X-14452500Y8486863D01*
X-14452500Y8591296D01*
X-14410538Y8591296D01*
X-14405755Y8560144D01*
X-14394987Y8530523D01*
X-14388318Y8518047D01*
X-14363137Y8508076D01*
X-14271213Y8600000D01*
X-14228787Y8600000D01*
X-14136863Y8508076D01*
X-14111682Y8518047D01*
X-14098351Y8546606D01*
X-14090848Y8577217D01*
X-14089462Y8608704D01*
X-14094244Y8639856D01*
X-14105013Y8669477D01*
X-14111682Y8681953D01*
X-14136863Y8691924D01*
X-14228787Y8600000D01*
X-14271213Y8600000D01*
X-14363137Y8691924D01*
X-14388318Y8681953D01*
X-14401649Y8653394D01*
X-14409152Y8622783D01*
X-14410538Y8591296D01*
X-14452500Y8591296D01*
X-14452500Y9000000D01*
X-14390193Y9000000D01*
X-14390193Y8800000D01*
X-14389421Y8792159D01*
X-14387134Y8784619D01*
X-14383420Y8777670D01*
X-14378421Y8771579D01*
X-14372330Y8766580D01*
X-14365381Y8762866D01*
X-14357841Y8760579D01*
X-14350000Y8759807D01*
X-14263470Y8759807D01*
X-14289856Y8755756D01*
X-14319477Y8744987D01*
X-14331953Y8738318D01*
X-14341924Y8713137D01*
X-14250000Y8621213D01*
X-14158076Y8713137D01*
X-14168047Y8738318D01*
X-14196606Y8751649D01*
X-14227217Y8759152D01*
X-14242086Y8759807D01*
X-14150000Y8759807D01*
X-14142159Y8760579D01*
X-14134619Y8762866D01*
X-14127670Y8766580D01*
X-14121579Y8771579D01*
X-14116580Y8777670D01*
X-14112866Y8784619D01*
X-14110579Y8792159D01*
X-14109806Y8800000D01*
X-14109806Y8840758D01*
X-13677193Y8867500D01*
X-13618816Y8867500D01*
X-13607103Y8863947D01*
X-13587500Y8862016D01*
X-13567897Y8863947D01*
X-13549046Y8869665D01*
X-13544105Y8872307D01*
X-13517500Y8872307D01*
X-13509659Y8873079D01*
X-13502119Y8875366D01*
X-13495170Y8879080D01*
X-13489079Y8884079D01*
X-13484080Y8890170D01*
X-13480366Y8897119D01*
X-13478079Y8904659D01*
X-13477306Y8912500D01*
X-13477306Y9013571D01*
X-13476921Y9009659D01*
X-13474634Y9002119D01*
X-13470920Y8995170D01*
X-13465921Y8989079D01*
X-13459830Y8984080D01*
X-13452881Y8980366D01*
X-13445341Y8978079D01*
X-13440871Y8977639D01*
X-13425953Y8969665D01*
X-13407103Y8963947D01*
X-13392412Y8962500D01*
X-13387500Y8962016D01*
X-13382588Y8962500D01*
X-13339266Y8962500D01*
X-13272201Y8933941D01*
X-13258117Y8929516D01*
X-13238534Y8927391D01*
X-13218912Y8929128D01*
X-13208091Y8932294D01*
X-13207325Y8932482D01*
X-13206718Y8932696D01*
X-13200007Y8934659D01*
X-13197644Y8935892D01*
X-13157596Y8950000D01*
X-13094307Y8950000D01*
X-13084758Y8950941D01*
X-13072505Y8954657D01*
X-13062872Y8959807D01*
X-13042693Y8959807D01*
X-13042693Y8892723D01*
X-13052302Y8891777D01*
X-13061727Y8888918D01*
X-13070413Y8884275D01*
X-13078026Y8878026D01*
X-13084274Y8870413D01*
X-13088917Y8861727D01*
X-13091776Y8852302D01*
X-13092500Y8844956D01*
X-13092500Y8786150D01*
X-13094717Y8786150D01*
X-13109207Y8783268D01*
X-13122856Y8777614D01*
X-13135140Y8769406D01*
X-13145586Y8758960D01*
X-13153794Y8746676D01*
X-13159448Y8733027D01*
X-13162330Y8718537D01*
X-13162330Y8705379D01*
X-13236477Y8628438D01*
X-13237384Y8627694D01*
X-13282500Y8627694D01*
X-13290341Y8626921D01*
X-13297881Y8624634D01*
X-13304830Y8620920D01*
X-13310921Y8615921D01*
X-13312500Y8613997D01*
X-13314079Y8615921D01*
X-13320170Y8620920D01*
X-13327119Y8624634D01*
X-13334659Y8626921D01*
X-13342500Y8627694D01*
X-13429142Y8627694D01*
X-13499530Y8651058D01*
X-13501886Y8656746D01*
X-13510094Y8669030D01*
X-13520540Y8679476D01*
X-13532824Y8687684D01*
X-13546473Y8693338D01*
X-13560963Y8696220D01*
X-13575737Y8696220D01*
X-13590227Y8693338D01*
X-13603876Y8687684D01*
X-13616160Y8679476D01*
X-13626606Y8669030D01*
X-13634814Y8656746D01*
X-13640468Y8643097D01*
X-13643350Y8628607D01*
X-13643350Y8613833D01*
X-13640468Y8599343D01*
X-13634814Y8585694D01*
X-13626606Y8573410D01*
X-13616160Y8562964D01*
X-13603876Y8554756D01*
X-13590227Y8549102D01*
X-13575737Y8546220D01*
X-13560963Y8546220D01*
X-13546473Y8549102D01*
X-13532824Y8554756D01*
X-13530835Y8556085D01*
X-13472693Y8536785D01*
X-13472693Y8487500D01*
X-13471921Y8479659D01*
X-13469634Y8472119D01*
X-13469377Y8471639D01*
X-13470746Y8470270D01*
X-13478954Y8457986D01*
X-13481146Y8452694D01*
X-13567500Y8452694D01*
X-13575341Y8451921D01*
X-13582881Y8449634D01*
X-13589830Y8445920D01*
X-13595921Y8440921D01*
X-13600920Y8434830D01*
X-13604634Y8427881D01*
X-13606921Y8420341D01*
X-13607693Y8412500D01*
X-13607693Y8312500D01*
X-13606921Y8304659D01*
X-13604634Y8297119D01*
X-13600920Y8290170D01*
X-13595921Y8284079D01*
X-13589830Y8279080D01*
X-13582881Y8275366D01*
X-13575341Y8273079D01*
X-13567500Y8272306D01*
X-13467500Y8272306D01*
X-13459659Y8273079D01*
X-13452119Y8275366D01*
X-13445170Y8279080D01*
X-13439079Y8284079D01*
X-13434080Y8290170D01*
X-13430366Y8297119D01*
X-13428079Y8304659D01*
X-13427306Y8312500D01*
X-13427306Y8348938D01*
X-13419877Y8347460D01*
X-13405103Y8347460D01*
X-13390613Y8350342D01*
X-13376964Y8355996D01*
X-13364680Y8364204D01*
X-13354234Y8374650D01*
X-13347693Y8384438D01*
X-13347693Y8312500D01*
X-13346921Y8304659D01*
X-13344634Y8297119D01*
X-13340920Y8290170D01*
X-13335921Y8284079D01*
X-13329830Y8279080D01*
X-13322881Y8275366D01*
X-13315341Y8273079D01*
X-13307500Y8272306D01*
X-13207500Y8272306D01*
X-13199659Y8273079D01*
X-13192119Y8275366D01*
X-13185170Y8279080D01*
X-13179079Y8284079D01*
X-13174080Y8290170D01*
X-13170366Y8297119D01*
X-13168079Y8304659D01*
X-13167306Y8312500D01*
X-13167306Y8412500D01*
X-13168079Y8420341D01*
X-13170366Y8427881D01*
X-13174080Y8434830D01*
X-13179079Y8440921D01*
X-13185170Y8445920D01*
X-13188501Y8447700D01*
X-13184659Y8448079D01*
X-13177119Y8450366D01*
X-13170170Y8454080D01*
X-13164079Y8459079D01*
X-13159080Y8465170D01*
X-13155366Y8472119D01*
X-13153079Y8479659D01*
X-13152306Y8487500D01*
X-13152306Y8571670D01*
X-13090168Y8636150D01*
X-13079943Y8636150D01*
X-13065453Y8639032D01*
X-13051804Y8644686D01*
X-13039520Y8652894D01*
X-13029074Y8663340D01*
X-13020866Y8675624D01*
X-13018107Y8682284D01*
X-13010456Y8684944D01*
X-13006703Y8686083D01*
X-13003640Y8687720D01*
X-13000488Y8689176D01*
X-12999306Y8690037D01*
X-12998017Y8690726D01*
X-12996209Y8692209D01*
X-12994468Y8683453D01*
X-12988814Y8669804D01*
X-12980606Y8657520D01*
X-12970160Y8647074D01*
X-12957876Y8638866D01*
X-12944227Y8633212D01*
X-12929737Y8630330D01*
X-12914963Y8630330D01*
X-12908731Y8631570D01*
X-12909615Y8627694D01*
X-12932500Y8627694D01*
X-12940341Y8626921D01*
X-12947881Y8624634D01*
X-12954830Y8620920D01*
X-12960921Y8615921D01*
X-12965920Y8609830D01*
X-12969634Y8602881D01*
X-12971921Y8595341D01*
X-12972693Y8587500D01*
X-12972693Y8487500D01*
X-12971921Y8479659D01*
X-12969634Y8472119D01*
X-12965920Y8465170D01*
X-12960921Y8459079D01*
X-12954830Y8454080D01*
X-12947881Y8450366D01*
X-12940341Y8448079D01*
X-12932500Y8447307D01*
X-12842500Y8447307D01*
X-12834659Y8448079D01*
X-12827119Y8450366D01*
X-12820170Y8454080D01*
X-12814079Y8459079D01*
X-12809080Y8465170D01*
X-12805366Y8472119D01*
X-12803079Y8479659D01*
X-12802306Y8487500D01*
X-12802306Y8500134D01*
X-12442693Y8535707D01*
X-12442693Y8505000D01*
X-12441921Y8497159D01*
X-12439634Y8489619D01*
X-12435920Y8482670D01*
X-12430921Y8476579D01*
X-12424830Y8471580D01*
X-12417881Y8467866D01*
X-12410341Y8465579D01*
X-12402500Y8464807D01*
X-12266836Y8464807D01*
X-12270920Y8459830D01*
X-12274634Y8452881D01*
X-12276921Y8445341D01*
X-12277693Y8437500D01*
X-12277693Y8247500D01*
X-12276921Y8239659D01*
X-12274634Y8232119D01*
X-12270920Y8225170D01*
X-12265921Y8219079D01*
X-12259830Y8214080D01*
X-12252881Y8210366D01*
X-12245341Y8208079D01*
X-12237500Y8207306D01*
X-12214621Y8207306D01*
X-12204737Y8195263D01*
X-12179613Y8174644D01*
X-12150948Y8159322D01*
X-12119846Y8149887D01*
X-12087500Y8146702D01*
X-12055154Y8149887D01*
X-12024052Y8159322D01*
X-11995387Y8174644D01*
X-11970263Y8195263D01*
X-11960379Y8207306D01*
X-11937500Y8207306D01*
X-11929659Y8208079D01*
X-11922119Y8210366D01*
X-11915170Y8214080D01*
X-11909079Y8219079D01*
X-11904080Y8225170D01*
X-11900366Y8232119D01*
X-11898079Y8239659D01*
X-11897306Y8247500D01*
X-11897306Y8260342D01*
X-11051000Y8260342D01*
X-11051000Y8239658D01*
X-11046965Y8219373D01*
X-11039050Y8200264D01*
X-11027559Y8183066D01*
X-11012934Y8168441D01*
X-10995736Y8156950D01*
X-10976627Y8149035D01*
X-10956342Y8145000D01*
X-10935658Y8145000D01*
X-10915373Y8149035D01*
X-10896264Y8156950D01*
X-10879066Y8168441D01*
X-10864441Y8183066D01*
X-10852950Y8200264D01*
X-10845035Y8219373D01*
X-10841000Y8239658D01*
X-10841000Y8260342D01*
X-10845035Y8280627D01*
X-10852950Y8299736D01*
X-10864441Y8316934D01*
X-10879066Y8331559D01*
X-10896264Y8343050D01*
X-10915373Y8350965D01*
X-10935658Y8355000D01*
X-10956342Y8355000D01*
X-10976627Y8350965D01*
X-10995736Y8343050D01*
X-11012934Y8331559D01*
X-11027559Y8316934D01*
X-11039050Y8299736D01*
X-11046965Y8280627D01*
X-11051000Y8260342D01*
X-11897306Y8260342D01*
X-11897306Y8437500D01*
X-11897553Y8440000D01*
X-11773906Y8440000D01*
X-11777606Y8436300D01*
X-11785814Y8424016D01*
X-11791468Y8410367D01*
X-11794350Y8395877D01*
X-11794350Y8381103D01*
X-11791468Y8366613D01*
X-11785814Y8352964D01*
X-11777606Y8340680D01*
X-11767160Y8330234D01*
X-11754876Y8322026D01*
X-11741227Y8316372D01*
X-11726737Y8313490D01*
X-11711963Y8313490D01*
X-11699592Y8315951D01*
X-11595902Y8288302D01*
X-11593960Y8287498D01*
X-11590812Y8286872D01*
X-11587742Y8285940D01*
X-11584549Y8285626D01*
X-11581402Y8285000D01*
X-11580289Y8285000D01*
X-11579192Y8284820D01*
X-11573900Y8285000D01*
X-11521807Y8285000D01*
X-11512258Y8285940D01*
X-11500005Y8289657D01*
X-11488713Y8295693D01*
X-11478816Y8303816D01*
X-11470693Y8313713D01*
X-11464657Y8325005D01*
X-11460940Y8337258D01*
X-11459685Y8350000D01*
X-11460940Y8362742D01*
X-11464657Y8374995D01*
X-11470693Y8386287D01*
X-11478816Y8396184D01*
X-11488713Y8404307D01*
X-11500005Y8410343D01*
X-11512258Y8414060D01*
X-11521807Y8415000D01*
X-11566483Y8415000D01*
X-11666449Y8441655D01*
X-11671540Y8446746D01*
X-11675317Y8449270D01*
X-11670916Y8450503D01*
X-11669332Y8451307D01*
X-11667632Y8451822D01*
X-11654849Y8458655D01*
X-11649194Y8461524D01*
X-11647707Y8462472D01*
X-11638967Y8467144D01*
X-11634036Y8471191D01*
X-11510193Y8550169D01*
X-11510193Y8525000D01*
X-11509421Y8517159D01*
X-11507134Y8509619D01*
X-11503420Y8502670D01*
X-11498421Y8496579D01*
X-11492330Y8491580D01*
X-11485381Y8487866D01*
X-11477841Y8485579D01*
X-11470000Y8484807D01*
X-11443395Y8484807D01*
X-11438453Y8482165D01*
X-11419603Y8476447D01*
X-11400000Y8474516D01*
X-11380397Y8476447D01*
X-11361546Y8482165D01*
X-11356605Y8484807D01*
X-11330000Y8484807D01*
X-11322159Y8485579D01*
X-11314619Y8487866D01*
X-11307670Y8491580D01*
X-11301579Y8496579D01*
X-11296580Y8502670D01*
X-11292866Y8509619D01*
X-11290579Y8517159D01*
X-11290193Y8521071D01*
X-11290193Y8455000D01*
X-11289421Y8447159D01*
X-11287134Y8439619D01*
X-11283420Y8432670D01*
X-11278421Y8426579D01*
X-11272330Y8421580D01*
X-11265381Y8417866D01*
X-11257841Y8415579D01*
X-11250000Y8414807D01*
X-11150000Y8414807D01*
X-11142159Y8415579D01*
X-11134619Y8417866D01*
X-11127670Y8421580D01*
X-11121579Y8426579D01*
X-11116580Y8432670D01*
X-11112866Y8439619D01*
X-11110579Y8447159D01*
X-11109807Y8455000D01*
X-11109807Y8509603D01*
X-10994008Y8420741D01*
X-10983533Y8412144D01*
X-10973966Y8407030D01*
X-10964756Y8401303D01*
X-10959666Y8399387D01*
X-10954868Y8396822D01*
X-10944488Y8393674D01*
X-10934338Y8389853D01*
X-10928971Y8388967D01*
X-10923766Y8387387D01*
X-10912971Y8386324D01*
X-10902270Y8384557D01*
X-10888728Y8385000D01*
X-10741895Y8385000D01*
X-10717654Y8387387D01*
X-10686552Y8396822D01*
X-10662260Y8409807D01*
X-10650000Y8409807D01*
X-10642159Y8410579D01*
X-10634619Y8412866D01*
X-10627670Y8416580D01*
X-10621579Y8421579D01*
X-10616580Y8427670D01*
X-10612866Y8434619D01*
X-10610579Y8442159D01*
X-10609807Y8450000D01*
X-10609807Y8462260D01*
X-10596822Y8486552D01*
X-10587388Y8517654D01*
X-10584202Y8550000D01*
X-10587388Y8582346D01*
X-10596822Y8613448D01*
X-10609807Y8637740D01*
X-10609807Y8650000D01*
X-10610579Y8657841D01*
X-10612866Y8665381D01*
X-10616580Y8672330D01*
X-10621579Y8678421D01*
X-10627670Y8683420D01*
X-10634619Y8687134D01*
X-10642159Y8689421D01*
X-10650000Y8690194D01*
X-10662260Y8690194D01*
X-10686155Y8702966D01*
X-10680523Y8705013D01*
X-10668047Y8711682D01*
X-10658076Y8736863D01*
X-10750000Y8828787D01*
X-10751414Y8827373D01*
X-10772627Y8848586D01*
X-10771213Y8850000D01*
X-10728787Y8850000D01*
X-10636863Y8758076D01*
X-10611682Y8768047D01*
X-10598351Y8796606D01*
X-10590848Y8827217D01*
X-10589462Y8858704D01*
X-10594245Y8889856D01*
X-10605013Y8919477D01*
X-10611682Y8931953D01*
X-10636863Y8941924D01*
X-10728787Y8850000D01*
X-10771213Y8850000D01*
X-10863137Y8941924D01*
X-10888318Y8931953D01*
X-10901649Y8903394D01*
X-10909152Y8872783D01*
X-10910538Y8841296D01*
X-10905756Y8810144D01*
X-10894987Y8780523D01*
X-10888318Y8768047D01*
X-10863138Y8758076D01*
X-10874257Y8746956D01*
X-10865043Y8737742D01*
X-10978820Y8825053D01*
X-10989315Y8833661D01*
X-10998863Y8838761D01*
X-11008054Y8844477D01*
X-11020757Y8849259D01*
X-11020998Y8849359D01*
X-11028162Y8853188D01*
X-11035978Y8855559D01*
X-11035998Y8855567D01*
X-11043481Y8857835D01*
X-11059264Y8862623D01*
X-11059288Y8862625D01*
X-11059309Y8862631D01*
X-11075266Y8864199D01*
X-11083505Y8865010D01*
X-11083528Y8865010D01*
X-11091655Y8865808D01*
X-11099738Y8865010D01*
X-11108520Y8865010D01*
X-11108533Y8865011D01*
X-11116169Y8865010D01*
X-11124715Y8865010D01*
X-11124730Y8865009D01*
X-11148136Y8865005D01*
X-11206576Y8884563D01*
X-11208662Y8885678D01*
X-11221969Y8889714D01*
X-11227430Y8891542D01*
X-11229721Y8892066D01*
X-11239764Y8895113D01*
X-11244806Y8895609D01*
X-11244806Y8940000D01*
X-11245579Y8947841D01*
X-11247866Y8955381D01*
X-11251580Y8962330D01*
X-11252243Y8963137D01*
X-10841924Y8963137D01*
X-10750000Y8871213D01*
X-10658076Y8963137D01*
X-10668047Y8988318D01*
X-10696606Y9001649D01*
X-10727217Y9009152D01*
X-10758704Y9010538D01*
X-10789856Y9005756D01*
X-10819477Y8994987D01*
X-10831953Y8988318D01*
X-10841924Y8963137D01*
X-11252243Y8963137D01*
X-11256579Y8968421D01*
X-11262670Y8973420D01*
X-11269619Y8977134D01*
X-11277159Y8979421D01*
X-11285000Y8980194D01*
X-11344328Y8980194D01*
X-11350572Y8982095D01*
X-11375623Y8987105D01*
X-11380397Y8988553D01*
X-11390203Y8989519D01*
X-11399895Y8990484D01*
X-11399947Y8990479D01*
X-11400000Y8990484D01*
X-11409795Y8989519D01*
X-11419500Y8988573D01*
X-11419551Y8988558D01*
X-11419603Y8988553D01*
X-11429042Y8985690D01*
X-11438356Y8982875D01*
X-11438402Y8982850D01*
X-11438453Y8982835D01*
X-11443395Y8980194D01*
X-11465000Y8980194D01*
X-11472841Y8979421D01*
X-11480381Y8977134D01*
X-11487330Y8973420D01*
X-11493421Y8968421D01*
X-11498420Y8962330D01*
X-11502134Y8955381D01*
X-11504421Y8947841D01*
X-11505193Y8940000D01*
X-11505193Y8897500D01*
X-11519768Y8897500D01*
X-11527857Y8898298D01*
X-11535978Y8897500D01*
X-11535995Y8897500D01*
X-11544238Y8896688D01*
X-11560203Y8895119D01*
X-11560219Y8895114D01*
X-11560236Y8895113D01*
X-11576067Y8890310D01*
X-11583513Y8888053D01*
X-11583528Y8888047D01*
X-11591338Y8885678D01*
X-11594661Y8883902D01*
X-11597354Y8883147D01*
X-11606176Y8878671D01*
X-11607791Y8878003D01*
X-11613401Y8875005D01*
X-11619076Y8872126D01*
X-11620550Y8871186D01*
X-11629275Y8866525D01*
X-11634219Y8862469D01*
X-11779215Y8770000D01*
X-11999398Y8770000D01*
X-12024052Y8783178D01*
X-12055154Y8792613D01*
X-12087500Y8795798D01*
X-12119846Y8792613D01*
X-12150948Y8783178D01*
X-12179613Y8767856D01*
X-12204737Y8747237D01*
X-12206414Y8745194D01*
X-12402500Y8745194D01*
X-12410341Y8744421D01*
X-12417881Y8742134D01*
X-12424830Y8738420D01*
X-12430921Y8733421D01*
X-12435920Y8727330D01*
X-12439634Y8720381D01*
X-12441921Y8712841D01*
X-12442693Y8705000D01*
X-12442693Y8666341D01*
X-12806437Y8630360D01*
X-12799133Y8662376D01*
X-12798213Y8665408D01*
X-12797799Y8669616D01*
X-12797268Y8673806D01*
X-12797490Y8676965D01*
X-12797490Y8734844D01*
X-12797248Y8737250D01*
X-12797490Y8739756D01*
X-12797490Y8739806D01*
X-12797727Y8742214D01*
X-12798194Y8747053D01*
X-12798208Y8747101D01*
X-12798213Y8747152D01*
X-12799633Y8751833D01*
X-12801034Y8756484D01*
X-12801058Y8756529D01*
X-12801072Y8756577D01*
X-12803370Y8760875D01*
X-12805660Y8765180D01*
X-12805692Y8765219D01*
X-12805715Y8765263D01*
X-12808815Y8769040D01*
X-12810331Y8770895D01*
X-12810366Y8770930D01*
X-12811964Y8772876D01*
X-12813833Y8774410D01*
X-12832500Y8793152D01*
X-12832500Y8842307D01*
X-12795477Y8842307D01*
X-12742852Y8818701D01*
X-12736202Y8814848D01*
X-12705441Y8804352D01*
X-12673224Y8800059D01*
X-12648916Y8801614D01*
X-12361762Y8848562D01*
X-12093686Y8854811D01*
X-12087500Y8854202D01*
X-12077478Y8855189D01*
X-12075552Y8855234D01*
X-12069414Y8855983D01*
X-12055154Y8857388D01*
X-12053298Y8857951D01*
X-12051374Y8858186D01*
X-12037767Y8862662D01*
X-12024052Y8866822D01*
X-12022341Y8867737D01*
X-12020499Y8868343D01*
X-12008026Y8875388D01*
X-11999760Y8879807D01*
X-11772500Y8879807D01*
X-11764659Y8880579D01*
X-11757119Y8882866D01*
X-11750170Y8886580D01*
X-11744079Y8891579D01*
X-11739080Y8897670D01*
X-11735366Y8904619D01*
X-11733079Y8912159D01*
X-11732306Y8920000D01*
X-11732306Y9120000D01*
X-11733079Y9127841D01*
X-11735366Y9135381D01*
X-11739080Y9142330D01*
X-11744079Y9148421D01*
X-11750170Y9153420D01*
X-11757119Y9157134D01*
X-11764659Y9159421D01*
X-11772500Y9160194D01*
X-11908164Y9160194D01*
X-11908043Y9160342D01*
X-11051000Y9160342D01*
X-11051000Y9139658D01*
X-11046965Y9119373D01*
X-11039050Y9100264D01*
X-11027559Y9083066D01*
X-11012934Y9068441D01*
X-10995736Y9056950D01*
X-10976627Y9049035D01*
X-10956342Y9045000D01*
X-10935658Y9045000D01*
X-10915373Y9049035D01*
X-10896264Y9056950D01*
X-10879066Y9068441D01*
X-10864441Y9083066D01*
X-10852950Y9100264D01*
X-10845035Y9119373D01*
X-10841000Y9139658D01*
X-10841000Y9160342D01*
X-10845035Y9180627D01*
X-10852950Y9199736D01*
X-10864441Y9216934D01*
X-10879066Y9231559D01*
X-10896264Y9243050D01*
X-10915373Y9250965D01*
X-10935658Y9255000D01*
X-10956342Y9255000D01*
X-10976627Y9250965D01*
X-10995736Y9243050D01*
X-11012934Y9231559D01*
X-11027559Y9216934D01*
X-11039050Y9199736D01*
X-11046965Y9180627D01*
X-11051000Y9160342D01*
X-11908043Y9160342D01*
X-11904080Y9165170D01*
X-11900366Y9172119D01*
X-11898079Y9179659D01*
X-11897306Y9187500D01*
X-11897306Y9377500D01*
X-11898079Y9385341D01*
X-11900366Y9392881D01*
X-11904080Y9399830D01*
X-11909079Y9405921D01*
X-11915170Y9410920D01*
X-11922119Y9414634D01*
X-11929659Y9416921D01*
X-11937500Y9417694D01*
X-11992143Y9417694D01*
X-11995387Y9420356D01*
X-12024052Y9435678D01*
X-12055154Y9445113D01*
X-12087500Y9448298D01*
X-12088613Y9448189D01*
X-12093951Y9458176D01*
X-12106447Y9473403D01*
X-12110264Y9476535D01*
X-12141520Y9507791D01*
X-12144534Y9510878D01*
X-12144991Y9511262D01*
X-12145413Y9511684D01*
X-12148741Y9514415D01*
X-12215133Y9570240D01*
X-12227309Y9578588D01*
X-12245416Y9586342D01*
X-12250843Y9587489D01*
X-12306245Y9604266D01*
X-12310194Y9607757D01*
X-12310956Y9608684D01*
X-12314984Y9611990D01*
X-12316484Y9613316D01*
X-12317451Y9614015D01*
X-12320853Y9616807D01*
X-12322630Y9617757D01*
X-12324262Y9618936D01*
X-12327306Y9620330D01*
X-12327306Y9637500D01*
X-12328079Y9645341D01*
X-12330366Y9652881D01*
X-12334080Y9659830D01*
X-12339079Y9665921D01*
X-12345170Y9670920D01*
X-12352119Y9674634D01*
X-12359659Y9676921D01*
X-12367500Y9677694D01*
X-12457500Y9677694D01*
X-12465341Y9676921D01*
X-12472881Y9674634D01*
X-12479830Y9670920D01*
X-12485921Y9665921D01*
X-12487500Y9663997D01*
X-12489079Y9665921D01*
X-12495170Y9670920D01*
X-12502119Y9674634D01*
X-12509659Y9676921D01*
X-12517500Y9677694D01*
X-12607500Y9677694D01*
X-12615341Y9676921D01*
X-12622881Y9674634D01*
X-12629830Y9670920D01*
X-12635921Y9665921D01*
X-12640920Y9659830D01*
X-12644634Y9652881D01*
X-12646921Y9645341D01*
X-12647693Y9637500D01*
X-12647693Y9537500D01*
X-12646921Y9529659D01*
X-12644634Y9522119D01*
X-12640920Y9515170D01*
X-12635921Y9509079D01*
X-12629830Y9504080D01*
X-12627236Y9502694D01*
X-12632500Y9502694D01*
X-12640341Y9501921D01*
X-12647881Y9499634D01*
X-12654830Y9495920D01*
X-12660921Y9490921D01*
X-12662500Y9488997D01*
X-12664079Y9490921D01*
X-12670170Y9495920D01*
X-12677119Y9499634D01*
X-12684659Y9501921D01*
X-12692500Y9502694D01*
X-12782500Y9502694D01*
X-12790341Y9501921D01*
X-12797881Y9499634D01*
X-12804830Y9495920D01*
X-12810921Y9490921D01*
X-12815920Y9484830D01*
X-12819634Y9477881D01*
X-12821921Y9470341D01*
X-12822693Y9462500D01*
X-12822693Y9407384D01*
X-12823733Y9406118D01*
X-12826171Y9403679D01*
X-12827306Y9402742D01*
X-12827306Y9462500D01*
X-12828079Y9470341D01*
X-12830366Y9477881D01*
X-12834080Y9484830D01*
X-12839079Y9490921D01*
X-12845170Y9495920D01*
X-12847764Y9497307D01*
X-12842500Y9497307D01*
X-12834659Y9498079D01*
X-12827119Y9500366D01*
X-12820170Y9504080D01*
X-12814079Y9509079D01*
X-12809080Y9515170D01*
X-12805366Y9522119D01*
X-12803079Y9529659D01*
X-12802306Y9537500D01*
X-12802306Y9637500D01*
X-12803079Y9645341D01*
X-12805366Y9652881D01*
X-12809080Y9659830D01*
X-12814079Y9665921D01*
X-12820170Y9670920D01*
X-12827119Y9674634D01*
X-12834659Y9676921D01*
X-12842500Y9677694D01*
X-12932500Y9677694D01*
X-12940341Y9676921D01*
X-12947881Y9674634D01*
X-12954830Y9670920D01*
X-12960921Y9665921D01*
X-12965920Y9659830D01*
X-12969634Y9652881D01*
X-12971921Y9645341D01*
X-12972693Y9637500D01*
X-12972693Y9585532D01*
X-12977306Y9583277D01*
X-12977306Y9637500D01*
X-12978079Y9645341D01*
X-12980366Y9652881D01*
X-12984080Y9659830D01*
X-12989079Y9665921D01*
X-12995170Y9670920D01*
X-13002119Y9674634D01*
X-13003325Y9675000D01*
X-13002119Y9675366D01*
X-12995170Y9679080D01*
X-12989079Y9684079D01*
X-12984080Y9690170D01*
X-12980366Y9697119D01*
X-12978079Y9704659D01*
X-12977306Y9712500D01*
X-12977306Y9812500D01*
X-12978079Y9820341D01*
X-12980366Y9827881D01*
X-12984080Y9834830D01*
X-12989079Y9840921D01*
X-12995170Y9845920D01*
X-13002119Y9849634D01*
X-13009659Y9851921D01*
X-13017500Y9852694D01*
X-13107500Y9852694D01*
X-13115341Y9851921D01*
X-13122881Y9849634D01*
X-13129830Y9845920D01*
X-13135921Y9840921D01*
X-13137500Y9838997D01*
X-13139079Y9840921D01*
X-13145170Y9845920D01*
X-13152119Y9849634D01*
X-13159659Y9851921D01*
X-13167500Y9852694D01*
X-13212616Y9852694D01*
X-13213882Y9853733D01*
X-13216278Y9856128D01*
X-13217854Y9858047D01*
X-13221749Y9861240D01*
X-13225447Y9864275D01*
X-13225460Y9864281D01*
X-13225471Y9864291D01*
X-13229838Y9866621D01*
X-13234133Y9868917D01*
X-13236509Y9869638D01*
X-13304539Y9897771D01*
X-13306703Y9898928D01*
X-13309080Y9899648D01*
X-13309092Y9899654D01*
X-13311271Y9900313D01*
X-13316128Y9901787D01*
X-13316143Y9901788D01*
X-13316157Y9901792D01*
X-13320978Y9902264D01*
X-13323474Y9902510D01*
X-13323489Y9902510D01*
X-13325959Y9902752D01*
X-13328400Y9902510D01*
X-13445956Y9902510D01*
X-13447752Y9902735D01*
X-13450867Y9902510D01*
X-13451526Y9902510D01*
X-13453320Y9902333D01*
X-13457575Y9902027D01*
X-13458213Y9901851D01*
X-13458872Y9901787D01*
X-13462958Y9900547D01*
X-13467072Y9899416D01*
X-13467663Y9899120D01*
X-13468297Y9898928D01*
X-13472062Y9896915D01*
X-13473671Y9896109D01*
X-13474226Y9895758D01*
X-13476983Y9894285D01*
X-13478382Y9893136D01*
X-13521797Y9865748D01*
X-13524553Y9864275D01*
X-13527852Y9861567D01*
X-13531222Y9858946D01*
X-13533267Y9856583D01*
X-13536118Y9853733D01*
X-13537384Y9852694D01*
X-13582500Y9852694D01*
X-13590341Y9851921D01*
X-13597881Y9849634D01*
X-13604830Y9845920D01*
X-13610921Y9840921D01*
X-13615920Y9834830D01*
X-13619634Y9827881D01*
X-13621921Y9820341D01*
X-13622693Y9812500D01*
X-13622693Y9712500D01*
X-13621921Y9704659D01*
X-13619634Y9697119D01*
X-13615920Y9690170D01*
X-13610921Y9684079D01*
X-13604830Y9679080D01*
X-13597881Y9675366D01*
X-13596675Y9675000D01*
X-13597881Y9674634D01*
X-13604830Y9670920D01*
X-13610921Y9665921D01*
X-13615920Y9659830D01*
X-13619634Y9652881D01*
X-13621921Y9645341D01*
X-13622693Y9637500D01*
X-13622693Y9537500D01*
X-13621921Y9529659D01*
X-13619634Y9522119D01*
X-13615920Y9515170D01*
X-13610921Y9509079D01*
X-13604830Y9504080D01*
X-13597881Y9500366D01*
X-13590341Y9498079D01*
X-13582500Y9497307D01*
X-13492500Y9497307D01*
X-13484659Y9498079D01*
X-13477119Y9500366D01*
X-13470170Y9504080D01*
X-13464079Y9509079D01*
X-13462500Y9511003D01*
X-13460921Y9509079D01*
X-13454830Y9504080D01*
X-13447881Y9500366D01*
X-13440341Y9498079D01*
X-13432500Y9497307D01*
X-13342500Y9497307D01*
X-13334659Y9498079D01*
X-13327119Y9500366D01*
X-13320170Y9504080D01*
X-13317757Y9506060D01*
X-13316917Y9505712D01*
X-13302427Y9502830D01*
X-13287653Y9502830D01*
X-13280130Y9504326D01*
X-13279830Y9504080D01*
X-13272881Y9500366D01*
X-13265341Y9498079D01*
X-13257500Y9497307D01*
X-13167500Y9497307D01*
X-13159659Y9498079D01*
X-13152119Y9500366D01*
X-13145170Y9504080D01*
X-13139079Y9509079D01*
X-13137500Y9511003D01*
X-13135921Y9509079D01*
X-13129830Y9504080D01*
X-13122881Y9500366D01*
X-13121675Y9500000D01*
X-13122881Y9499634D01*
X-13129830Y9495920D01*
X-13135921Y9490921D01*
X-13140920Y9484830D01*
X-13144634Y9477881D01*
X-13146921Y9470341D01*
X-13147693Y9462500D01*
X-13147693Y9453552D01*
X-13155123Y9455030D01*
X-13169897Y9455030D01*
X-13184387Y9452148D01*
X-13198036Y9446494D01*
X-13210320Y9438286D01*
X-13220766Y9427840D01*
X-13228974Y9415556D01*
X-13234628Y9401907D01*
X-13237510Y9387417D01*
X-13237510Y9372643D01*
X-13234628Y9358153D01*
X-13228974Y9344504D01*
X-13220766Y9332220D01*
X-13210320Y9321774D01*
X-13198036Y9313566D01*
X-13195697Y9312597D01*
X-13206886Y9299172D01*
X-13212277Y9291235D01*
X-13217266Y9279443D01*
X-13218233Y9274769D01*
X-13218373Y9274285D01*
X-13218721Y9272410D01*
X-13219859Y9266905D01*
X-13219864Y9266246D01*
X-13222800Y9250423D01*
X-13236224Y9231350D01*
X-13238175Y9228973D01*
X-13240211Y9225163D01*
X-13242338Y9221406D01*
X-13242529Y9220826D01*
X-13242817Y9220287D01*
X-13244071Y9216153D01*
X-13245424Y9212053D01*
X-13245499Y9211446D01*
X-13245676Y9210862D01*
X-13246100Y9206563D01*
X-13246627Y9202277D01*
X-13246400Y9199212D01*
X-13246400Y9141377D01*
X-13246499Y9140375D01*
X-13275615Y9152774D01*
X-13280406Y9155335D01*
X-13289365Y9158053D01*
X-13292336Y9158986D01*
X-13294665Y9166664D01*
X-13303951Y9184036D01*
X-13316447Y9199263D01*
X-13320264Y9202395D01*
X-13342605Y9224736D01*
X-13345737Y9228553D01*
X-13360964Y9241049D01*
X-13378336Y9250335D01*
X-13397187Y9256053D01*
X-13411878Y9257500D01*
X-13416790Y9257984D01*
X-13421702Y9257500D01*
X-13556184Y9257500D01*
X-13567897Y9261053D01*
X-13587500Y9262984D01*
X-13607103Y9261053D01*
X-13625953Y9255335D01*
X-13630895Y9252694D01*
X-13657500Y9252694D01*
X-13665341Y9251921D01*
X-13672881Y9249634D01*
X-13679830Y9245920D01*
X-13685921Y9240921D01*
X-13690920Y9234830D01*
X-13694634Y9227881D01*
X-13696921Y9220341D01*
X-13697693Y9212500D01*
X-13697693Y9102500D01*
X-13696921Y9094659D01*
X-13694634Y9087119D01*
X-13690920Y9080170D01*
X-13687500Y9076003D01*
X-13687500Y9067273D01*
X-13688268Y9067197D01*
X-14128237Y9040000D01*
X-14148035Y9040000D01*
X-14150000Y9040194D01*
X-14207053Y9040194D01*
X-14210000Y9040484D01*
X-14212947Y9040194D01*
X-14350000Y9040194D01*
X-14357841Y9039421D01*
X-14365381Y9037134D01*
X-14372330Y9033420D01*
X-14378421Y9028421D01*
X-14383420Y9022330D01*
X-14387134Y9015381D01*
X-14389421Y9007841D01*
X-14390193Y9000000D01*
X-14452500Y9000000D01*
X-14452500Y9210342D01*
X-14159000Y9210342D01*
X-14159000Y9189658D01*
X-14154965Y9169373D01*
X-14147050Y9150264D01*
X-14135559Y9133066D01*
X-14120934Y9118441D01*
X-14103736Y9106950D01*
X-14084627Y9099035D01*
X-14064342Y9095000D01*
X-14043658Y9095000D01*
X-14023373Y9099035D01*
X-14004264Y9106950D01*
X-13987066Y9118441D01*
X-13972441Y9133066D01*
X-13960950Y9150264D01*
X-13953035Y9169373D01*
X-13949000Y9189658D01*
X-13949000Y9210342D01*
X-13953035Y9230627D01*
X-13960950Y9249736D01*
X-13972441Y9266934D01*
X-13987066Y9281559D01*
X-14004264Y9293050D01*
X-14023373Y9300965D01*
X-14043658Y9305000D01*
X-14064342Y9305000D01*
X-14084627Y9300965D01*
X-14103736Y9293050D01*
X-14120934Y9281559D01*
X-14135559Y9266934D01*
X-14147050Y9249736D01*
X-14154965Y9230627D01*
X-14159000Y9210342D01*
X-14452500Y9210342D01*
X-14452500Y9952500D01*
X-12031177Y9952500D01*
X-12035420Y9947330D01*
G36*
X-12485921Y9509079D02*
G01*
X-12479830Y9504080D01*
X-12472881Y9500366D01*
X-12465341Y9498079D01*
X-12457500Y9497307D01*
X-12388111Y9497307D01*
X-12367880Y9451659D01*
X-12364907Y9444233D01*
X-12356761Y9431721D01*
X-12368844Y9439794D01*
X-12382493Y9445448D01*
X-12396983Y9448330D01*
X-12411757Y9448330D01*
X-12426247Y9445448D01*
X-12439896Y9439794D01*
X-12452180Y9431586D01*
X-12462626Y9421140D01*
X-12470834Y9408856D01*
X-12476488Y9395207D01*
X-12479370Y9380717D01*
X-12479370Y9365943D01*
X-12476488Y9351453D01*
X-12470834Y9337804D01*
X-12462626Y9325520D01*
X-12452180Y9315074D01*
X-12439896Y9306866D01*
X-12426247Y9301212D01*
X-12411757Y9298330D01*
X-12396983Y9298330D01*
X-12382493Y9301212D01*
X-12368844Y9306866D01*
X-12366995Y9308101D01*
X-12277693Y9278223D01*
X-12277693Y9187500D01*
X-12277017Y9180627D01*
X-12368042Y9178505D01*
X-12371386Y9178951D01*
X-12384261Y9178127D01*
X-12389018Y9178016D01*
X-12392347Y9177610D01*
X-12395694Y9177396D01*
X-12400392Y9176628D01*
X-12413196Y9175065D01*
X-12416400Y9174011D01*
X-12702162Y9127290D01*
X-12725699Y9121023D01*
X-12738814Y9114581D01*
X-12806910Y9082694D01*
X-12832500Y9082694D01*
X-12832500Y9137633D01*
X-12756655Y9322307D01*
X-12692500Y9322307D01*
X-12684659Y9323079D01*
X-12677119Y9325366D01*
X-12670170Y9329080D01*
X-12664079Y9334079D01*
X-12662500Y9336003D01*
X-12660921Y9334079D01*
X-12654830Y9329080D01*
X-12647881Y9325366D01*
X-12640341Y9323079D01*
X-12632500Y9322307D01*
X-12542500Y9322307D01*
X-12534659Y9323079D01*
X-12527119Y9325366D01*
X-12520170Y9329080D01*
X-12514079Y9334079D01*
X-12509080Y9340170D01*
X-12505366Y9347119D01*
X-12503079Y9354659D01*
X-12502306Y9362500D01*
X-12502306Y9462500D01*
X-12503079Y9470341D01*
X-12505366Y9477881D01*
X-12509080Y9484830D01*
X-12514079Y9490921D01*
X-12520170Y9495920D01*
X-12522764Y9497307D01*
X-12517500Y9497307D01*
X-12509659Y9498079D01*
X-12502119Y9500366D01*
X-12495170Y9504080D01*
X-12489079Y9509079D01*
X-12487500Y9511003D01*
X-12485921Y9509079D01*
G37*
X-12485921Y9509079D02*
X-12479830Y9504080D01*
X-12472881Y9500366D01*
X-12465341Y9498079D01*
X-12457500Y9497307D01*
X-12388111Y9497307D01*
X-12367880Y9451659D01*
X-12364907Y9444233D01*
X-12356761Y9431721D01*
X-12368844Y9439794D01*
X-12382493Y9445448D01*
X-12396983Y9448330D01*
X-12411757Y9448330D01*
X-12426247Y9445448D01*
X-12439896Y9439794D01*
X-12452180Y9431586D01*
X-12462626Y9421140D01*
X-12470834Y9408856D01*
X-12476488Y9395207D01*
X-12479370Y9380717D01*
X-12479370Y9365943D01*
X-12476488Y9351453D01*
X-12470834Y9337804D01*
X-12462626Y9325520D01*
X-12452180Y9315074D01*
X-12439896Y9306866D01*
X-12426247Y9301212D01*
X-12411757Y9298330D01*
X-12396983Y9298330D01*
X-12382493Y9301212D01*
X-12368844Y9306866D01*
X-12366995Y9308101D01*
X-12277693Y9278223D01*
X-12277693Y9187500D01*
X-12277017Y9180627D01*
X-12368042Y9178505D01*
X-12371386Y9178951D01*
X-12384261Y9178127D01*
X-12389018Y9178016D01*
X-12392347Y9177610D01*
X-12395694Y9177396D01*
X-12400392Y9176628D01*
X-12413196Y9175065D01*
X-12416400Y9174011D01*
X-12702162Y9127290D01*
X-12725699Y9121023D01*
X-12738814Y9114581D01*
X-12806910Y9082694D01*
X-12832500Y9082694D01*
X-12832500Y9137633D01*
X-12756655Y9322307D01*
X-12692500Y9322307D01*
X-12684659Y9323079D01*
X-12677119Y9325366D01*
X-12670170Y9329080D01*
X-12664079Y9334079D01*
X-12662500Y9336003D01*
X-12660921Y9334079D01*
X-12654830Y9329080D01*
X-12647881Y9325366D01*
X-12640341Y9323079D01*
X-12632500Y9322307D01*
X-12542500Y9322307D01*
X-12534659Y9323079D01*
X-12527119Y9325366D01*
X-12520170Y9329080D01*
X-12514079Y9334079D01*
X-12509080Y9340170D01*
X-12505366Y9347119D01*
X-12503079Y9354659D01*
X-12502306Y9362500D01*
X-12502306Y9462500D01*
X-12503079Y9470341D01*
X-12505366Y9477881D01*
X-12509080Y9484830D01*
X-12514079Y9490921D01*
X-12520170Y9495920D01*
X-12522764Y9497307D01*
X-12517500Y9497307D01*
X-12509659Y9498079D01*
X-12502119Y9500366D01*
X-12495170Y9504080D01*
X-12489079Y9509079D01*
X-12487500Y9511003D01*
X-12485921Y9509079D01*
M02*
