G04 #@! TF.GenerationSoftware,KiCad,Pcbnew,(5.1.5)-1*
G04 #@! TF.CreationDate,2020-06-06T10:03:48+02:00*
G04 #@! TF.ProjectId,MP8765,4d503837-3635-42e6-9b69-6361645f7063,rev?*
G04 #@! TF.SameCoordinates,PXe9a6740PY8f0d180*
G04 #@! TF.FileFunction,Legend,Bot*
G04 #@! TF.FilePolarity,Positive*
%FSLAX45Y45*%
G04 Gerber Fmt 4.5, Leading zero omitted, Abs format (unit mm)*
G04 Created by KiCad (PCBNEW (5.1.5)-1) date 2020-06-06 10:03:48*
%MOMM*%
%LPD*%
G04 APERTURE LIST*
%ADD10C,0.200000*%
%ADD11C,0.150000*%
%ADD12C,0.100000*%
%ADD13C,0.300000*%
G04 APERTURE END LIST*
D10*
X-11611429Y8125714D02*
X-11611429Y8245714D01*
X-11651429Y8160000D01*
X-11691429Y8245714D01*
X-11691429Y8125714D01*
X-11748571Y8125714D02*
X-11748571Y8245714D01*
X-11794286Y8245714D01*
X-11805714Y8240000D01*
X-11811429Y8234286D01*
X-11817143Y8222857D01*
X-11817143Y8205714D01*
X-11811429Y8194286D01*
X-11805714Y8188571D01*
X-11794286Y8182857D01*
X-11748571Y8182857D01*
X-11885714Y8194286D02*
X-11874286Y8200000D01*
X-11868571Y8205714D01*
X-11862857Y8217143D01*
X-11862857Y8222857D01*
X-11868571Y8234286D01*
X-11874286Y8240000D01*
X-11885714Y8245714D01*
X-11908571Y8245714D01*
X-11920000Y8240000D01*
X-11925714Y8234286D01*
X-11931429Y8222857D01*
X-11931429Y8217143D01*
X-11925714Y8205714D01*
X-11920000Y8200000D01*
X-11908571Y8194286D01*
X-11885714Y8194286D01*
X-11874286Y8188571D01*
X-11868571Y8182857D01*
X-11862857Y8171429D01*
X-11862857Y8148571D01*
X-11868571Y8137143D01*
X-11874286Y8131429D01*
X-11885714Y8125714D01*
X-11908571Y8125714D01*
X-11920000Y8131429D01*
X-11925714Y8137143D01*
X-11931429Y8148571D01*
X-11931429Y8171429D01*
X-11925714Y8182857D01*
X-11920000Y8188571D01*
X-11908571Y8194286D01*
X-11971429Y8245714D02*
X-12051429Y8245714D01*
X-12000000Y8125714D01*
X-12148571Y8245714D02*
X-12125714Y8245714D01*
X-12114286Y8240000D01*
X-12108571Y8234286D01*
X-12097143Y8217143D01*
X-12091429Y8194286D01*
X-12091429Y8148571D01*
X-12097143Y8137143D01*
X-12102857Y8131429D01*
X-12114286Y8125714D01*
X-12137143Y8125714D01*
X-12148571Y8131429D01*
X-12154286Y8137143D01*
X-12160000Y8148571D01*
X-12160000Y8177143D01*
X-12154286Y8188571D01*
X-12148571Y8194286D01*
X-12137143Y8200000D01*
X-12114286Y8200000D01*
X-12102857Y8194286D01*
X-12097143Y8188571D01*
X-12091429Y8177143D01*
X-12268571Y8245714D02*
X-12211429Y8245714D01*
X-12205714Y8188571D01*
X-12211429Y8194286D01*
X-12222857Y8200000D01*
X-12251429Y8200000D01*
X-12262857Y8194286D01*
X-12268571Y8188571D01*
X-12274286Y8177143D01*
X-12274286Y8148571D01*
X-12268571Y8137143D01*
X-12262857Y8131429D01*
X-12251429Y8125714D01*
X-12222857Y8125714D01*
X-12211429Y8131429D01*
X-12205714Y8137143D01*
X-12417143Y8125714D02*
X-12417143Y8245714D01*
X-12445714Y8245714D01*
X-12462857Y8240000D01*
X-12474286Y8228571D01*
X-12480000Y8217143D01*
X-12485714Y8194286D01*
X-12485714Y8177143D01*
X-12480000Y8154286D01*
X-12474286Y8142857D01*
X-12462857Y8131429D01*
X-12445714Y8125714D01*
X-12417143Y8125714D01*
X-12605714Y8137143D02*
X-12600000Y8131429D01*
X-12582857Y8125714D01*
X-12571429Y8125714D01*
X-12554286Y8131429D01*
X-12542857Y8142857D01*
X-12537143Y8154286D01*
X-12531429Y8177143D01*
X-12531429Y8194286D01*
X-12537143Y8217143D01*
X-12542857Y8228571D01*
X-12554286Y8240000D01*
X-12571429Y8245714D01*
X-12582857Y8245714D01*
X-12600000Y8240000D01*
X-12605714Y8234286D01*
X-12742857Y8251429D02*
X-12640000Y8097143D01*
X-12782857Y8125714D02*
X-12782857Y8245714D01*
X-12811429Y8245714D01*
X-12828571Y8240000D01*
X-12840000Y8228571D01*
X-12845714Y8217143D01*
X-12851429Y8194286D01*
X-12851429Y8177143D01*
X-12845714Y8154286D01*
X-12840000Y8142857D01*
X-12828571Y8131429D01*
X-12811429Y8125714D01*
X-12782857Y8125714D01*
X-12971429Y8137143D02*
X-12965714Y8131429D01*
X-12948571Y8125714D01*
X-12937143Y8125714D01*
X-12920000Y8131429D01*
X-12908571Y8142857D01*
X-12902857Y8154286D01*
X-12897143Y8177143D01*
X-12897143Y8194286D01*
X-12902857Y8217143D01*
X-12908571Y8228571D01*
X-12920000Y8240000D01*
X-12937143Y8245714D01*
X-12948571Y8245714D01*
X-12965714Y8240000D01*
X-12971429Y8234286D01*
X-13114286Y8125714D02*
X-13114286Y8205714D01*
X-13114286Y8194286D02*
X-13120000Y8200000D01*
X-13131429Y8205714D01*
X-13148571Y8205714D01*
X-13160000Y8200000D01*
X-13165714Y8188571D01*
X-13165714Y8125714D01*
X-13165714Y8188571D02*
X-13171429Y8200000D01*
X-13182857Y8205714D01*
X-13200000Y8205714D01*
X-13211429Y8200000D01*
X-13217143Y8188571D01*
X-13217143Y8125714D01*
X-13291429Y8125714D02*
X-13280000Y8131429D01*
X-13274286Y8137143D01*
X-13268571Y8148571D01*
X-13268571Y8182857D01*
X-13274286Y8194286D01*
X-13280000Y8200000D01*
X-13291429Y8205714D01*
X-13308571Y8205714D01*
X-13320000Y8200000D01*
X-13325714Y8194286D01*
X-13331429Y8182857D01*
X-13331429Y8148571D01*
X-13325714Y8137143D01*
X-13320000Y8131429D01*
X-13308571Y8125714D01*
X-13291429Y8125714D01*
X-13434286Y8125714D02*
X-13434286Y8245714D01*
X-13434286Y8131429D02*
X-13422857Y8125714D01*
X-13400000Y8125714D01*
X-13388571Y8131429D01*
X-13382857Y8137143D01*
X-13377143Y8148571D01*
X-13377143Y8182857D01*
X-13382857Y8194286D01*
X-13388571Y8200000D01*
X-13400000Y8205714D01*
X-13422857Y8205714D01*
X-13434286Y8200000D01*
X-13542857Y8205714D02*
X-13542857Y8125714D01*
X-13491429Y8205714D02*
X-13491429Y8142857D01*
X-13497143Y8131429D01*
X-13508571Y8125714D01*
X-13525714Y8125714D01*
X-13537143Y8131429D01*
X-13542857Y8137143D01*
X-13617143Y8125714D02*
X-13605714Y8131429D01*
X-13600000Y8142857D01*
X-13600000Y8245714D01*
X-13708571Y8131429D02*
X-13697143Y8125714D01*
X-13674286Y8125714D01*
X-13662857Y8131429D01*
X-13657143Y8142857D01*
X-13657143Y8188571D01*
X-13662857Y8200000D01*
X-13674286Y8205714D01*
X-13697143Y8205714D01*
X-13708571Y8200000D01*
X-13714286Y8188571D01*
X-13714286Y8177143D01*
X-13657143Y8165714D01*
D11*
X-13650000Y9600000D02*
X-12250000Y9600000D01*
X-13650000Y8300000D02*
X-13650000Y9600000D01*
X-12250000Y8300000D02*
X-13650000Y8300000D01*
X-12250000Y9600000D02*
X-12250000Y8300000D01*
X-14053000Y8267500D02*
X-14440000Y8267500D01*
X-14440000Y8267500D02*
X-14440000Y9232500D01*
X-14053000Y9232500D02*
X-14440000Y9232500D01*
X-14003000Y8900000D02*
X-14053000Y8900000D01*
X-14003000Y8600000D02*
X-14053000Y8600000D01*
X-14053000Y9232500D02*
X-14053000Y8267500D01*
X-14003000Y8700000D02*
X-14053000Y8700000D01*
X-14003000Y8800000D02*
X-14053000Y8800000D01*
X-14003000Y8600000D02*
X-14003000Y8700000D01*
X-14003000Y8800000D02*
X-14003000Y8900000D01*
X-10997000Y8650000D02*
X-10997000Y8550000D01*
X-10997000Y8850000D02*
X-10997000Y8750000D01*
X-10997000Y8650000D02*
X-10947000Y8650000D01*
X-10997000Y8750000D02*
X-10947000Y8750000D01*
X-10947000Y8217500D02*
X-10947000Y9182500D01*
X-10997000Y8850000D02*
X-10947000Y8850000D01*
X-10997000Y8550000D02*
X-10947000Y8550000D01*
X-10947000Y8217500D02*
X-10560000Y8217500D01*
X-10560000Y9182500D02*
X-10560000Y8217500D01*
X-10947000Y9182500D02*
X-10560000Y9182500D01*
X-11546000Y9913500D02*
X-11609500Y9977000D01*
X-11546000Y9786500D02*
X-11546000Y9913500D01*
X-11609500Y9723000D02*
X-11736500Y9723000D01*
X-11609500Y9977000D02*
X-11736500Y9977000D01*
X-11736500Y9723000D02*
X-11800000Y9786500D01*
X-11546000Y9786500D02*
X-11609500Y9723000D01*
X-11736500Y9977000D02*
X-11800000Y9913500D01*
X-11990500Y9977000D02*
X-12054000Y9913500D01*
X-11800000Y9786500D02*
X-11863500Y9723000D01*
X-11990500Y9723000D02*
X-12054000Y9786500D01*
X-12054000Y9913500D02*
X-12054000Y9786500D01*
X-11863500Y9977000D02*
X-11990500Y9977000D01*
X-11863500Y9723000D02*
X-11990500Y9723000D01*
X-11800000Y9786500D02*
X-11800000Y9913500D01*
X-11800000Y9913500D02*
X-11863500Y9977000D01*
D12*
G36*
X-11369969Y8993209D02*
G01*
X-11366827Y8995560D01*
X-11362917Y9000382D01*
X-11358527Y9007150D01*
X-11353945Y9015342D01*
X-11349458Y9024435D01*
X-11345352Y9033905D01*
X-11341916Y9043230D01*
X-11339435Y9051887D01*
X-11338949Y9054132D01*
X-11337718Y9062701D01*
X-11336859Y9073501D01*
X-11336373Y9085604D01*
X-11336263Y9098079D01*
X-11336531Y9109996D01*
X-11337180Y9120425D01*
X-11338212Y9128436D01*
X-11338766Y9130881D01*
X-11343873Y9144679D01*
X-11350581Y9155082D01*
X-11358908Y9162111D01*
X-11368875Y9165787D01*
X-11371935Y9166215D01*
X-11383639Y9165522D01*
X-11394694Y9161196D01*
X-11405007Y9153326D01*
X-11414485Y9142002D01*
X-11423034Y9127311D01*
X-11430072Y9110700D01*
X-11435774Y9092443D01*
X-11439472Y9074713D01*
X-11441094Y9058162D01*
X-11440568Y9043441D01*
X-11438594Y9033563D01*
X-11434627Y9024711D01*
X-11428963Y9017991D01*
X-11422223Y9013753D01*
X-11415032Y9012348D01*
X-11408011Y9014125D01*
X-11406082Y9015295D01*
X-11400691Y9021123D01*
X-11395874Y9030636D01*
X-11393761Y9037206D01*
X-11413798Y9037206D01*
X-11417506Y9037518D01*
X-11421103Y9041437D01*
X-11421937Y9042922D01*
X-11425097Y9052453D01*
X-11426178Y9064146D01*
X-11425257Y9077081D01*
X-11422415Y9090337D01*
X-11417731Y9102995D01*
X-11416554Y9105425D01*
X-11413133Y9111416D01*
X-11409072Y9117420D01*
X-11404923Y9122766D01*
X-11401237Y9126785D01*
X-11398564Y9128805D01*
X-11397539Y9128564D01*
X-11396731Y9124270D01*
X-11396358Y9117132D01*
X-11396384Y9108040D01*
X-11396775Y9097883D01*
X-11397496Y9087551D01*
X-11398512Y9077934D01*
X-11399788Y9069921D01*
X-11399849Y9069619D01*
X-11403005Y9056707D01*
X-11406448Y9046921D01*
X-11410079Y9040380D01*
X-11413798Y9037206D01*
X-11393761Y9037206D01*
X-11391640Y9043797D01*
X-11388003Y9060570D01*
X-11384971Y9080917D01*
X-11384033Y9089081D01*
X-11381921Y9106333D01*
X-11379670Y9119880D01*
X-11377266Y9129775D01*
X-11374699Y9136072D01*
X-11372992Y9138217D01*
X-11369768Y9138703D01*
X-11365546Y9136382D01*
X-11360981Y9131828D01*
X-11356730Y9125614D01*
X-11355196Y9122647D01*
X-11352079Y9114535D01*
X-11350352Y9106009D01*
X-11350071Y9096581D01*
X-11351288Y9085760D01*
X-11354060Y9073055D01*
X-11358441Y9057977D01*
X-11364394Y9040293D01*
X-11369410Y9024939D01*
X-11372531Y9012644D01*
X-11373788Y9003235D01*
X-11373208Y8996536D01*
X-11372057Y8993850D01*
X-11369969Y8993209D01*
G37*
X-11369969Y8993209D02*
X-11366827Y8995560D01*
X-11362917Y9000382D01*
X-11358527Y9007150D01*
X-11353945Y9015342D01*
X-11349458Y9024435D01*
X-11345352Y9033905D01*
X-11341916Y9043230D01*
X-11339435Y9051887D01*
X-11338949Y9054132D01*
X-11337718Y9062701D01*
X-11336859Y9073501D01*
X-11336373Y9085604D01*
X-11336263Y9098079D01*
X-11336531Y9109996D01*
X-11337180Y9120425D01*
X-11338212Y9128436D01*
X-11338766Y9130881D01*
X-11343873Y9144679D01*
X-11350581Y9155082D01*
X-11358908Y9162111D01*
X-11368875Y9165787D01*
X-11371935Y9166215D01*
X-11383639Y9165522D01*
X-11394694Y9161196D01*
X-11405007Y9153326D01*
X-11414485Y9142002D01*
X-11423034Y9127311D01*
X-11430072Y9110700D01*
X-11435774Y9092443D01*
X-11439472Y9074713D01*
X-11441094Y9058162D01*
X-11440568Y9043441D01*
X-11438594Y9033563D01*
X-11434627Y9024711D01*
X-11428963Y9017991D01*
X-11422223Y9013753D01*
X-11415032Y9012348D01*
X-11408011Y9014125D01*
X-11406082Y9015295D01*
X-11400691Y9021123D01*
X-11395874Y9030636D01*
X-11393761Y9037206D01*
X-11413798Y9037206D01*
X-11417506Y9037518D01*
X-11421103Y9041437D01*
X-11421937Y9042922D01*
X-11425097Y9052453D01*
X-11426178Y9064146D01*
X-11425257Y9077081D01*
X-11422415Y9090337D01*
X-11417731Y9102995D01*
X-11416554Y9105425D01*
X-11413133Y9111416D01*
X-11409072Y9117420D01*
X-11404923Y9122766D01*
X-11401237Y9126785D01*
X-11398564Y9128805D01*
X-11397539Y9128564D01*
X-11396731Y9124270D01*
X-11396358Y9117132D01*
X-11396384Y9108040D01*
X-11396775Y9097883D01*
X-11397496Y9087551D01*
X-11398512Y9077934D01*
X-11399788Y9069921D01*
X-11399849Y9069619D01*
X-11403005Y9056707D01*
X-11406448Y9046921D01*
X-11410079Y9040380D01*
X-11413798Y9037206D01*
X-11393761Y9037206D01*
X-11391640Y9043797D01*
X-11388003Y9060570D01*
X-11384971Y9080917D01*
X-11384033Y9089081D01*
X-11381921Y9106333D01*
X-11379670Y9119880D01*
X-11377266Y9129775D01*
X-11374699Y9136072D01*
X-11372992Y9138217D01*
X-11369768Y9138703D01*
X-11365546Y9136382D01*
X-11360981Y9131828D01*
X-11356730Y9125614D01*
X-11355196Y9122647D01*
X-11352079Y9114535D01*
X-11350352Y9106009D01*
X-11350071Y9096581D01*
X-11351288Y9085760D01*
X-11354060Y9073055D01*
X-11358441Y9057977D01*
X-11364394Y9040293D01*
X-11369410Y9024939D01*
X-11372531Y9012644D01*
X-11373788Y9003235D01*
X-11373208Y8996536D01*
X-11372057Y8993850D01*
X-11369969Y8993209D01*
G36*
X-11375140Y8877166D02*
G01*
X-11373193Y8878432D01*
X-11372943Y8878637D01*
X-11367951Y8884734D01*
X-11363721Y8893702D01*
X-11360393Y8904697D01*
X-11358108Y8916880D01*
X-11357007Y8929409D01*
X-11357231Y8941441D01*
X-11358920Y8952137D01*
X-11360021Y8955803D01*
X-11363265Y8962185D01*
X-11368329Y8969174D01*
X-11371742Y8972936D01*
X-11381644Y8980806D01*
X-11392780Y8985683D01*
X-11405430Y8987597D01*
X-11419874Y8986579D01*
X-11436391Y8982659D01*
X-11442378Y8980722D01*
X-11452955Y8977212D01*
X-11460632Y8975086D01*
X-11466023Y8974388D01*
X-11469746Y8975165D01*
X-11472416Y8977463D01*
X-11474649Y8981328D01*
X-11475497Y8983185D01*
X-11477906Y8988075D01*
X-11479882Y8991133D01*
X-11480566Y8991650D01*
X-11481783Y8990074D01*
X-11484216Y8985829D01*
X-11487506Y8979640D01*
X-11491296Y8972230D01*
X-11495228Y8964322D01*
X-11498941Y8956641D01*
X-11502079Y8949909D01*
X-11504283Y8944851D01*
X-11505195Y8942190D01*
X-11505167Y8941971D01*
X-11503236Y8942355D01*
X-11498540Y8943853D01*
X-11491821Y8946215D01*
X-11485164Y8948683D01*
X-11471285Y8953760D01*
X-11459876Y8957447D01*
X-11450001Y8959950D01*
X-11440723Y8961474D01*
X-11431105Y8962225D01*
X-11422622Y8962406D01*
X-11413539Y8962370D01*
X-11407149Y8962038D01*
X-11402383Y8961211D01*
X-11398175Y8959693D01*
X-11393455Y8957285D01*
X-11392655Y8956844D01*
X-11382694Y8949417D01*
X-11375374Y8939876D01*
X-11371180Y8928891D01*
X-11370762Y8926599D01*
X-11370446Y8920063D01*
X-11370899Y8910892D01*
X-11372022Y8900112D01*
X-11373721Y8888751D01*
X-11374886Y8882526D01*
X-11375602Y8878324D01*
X-11375140Y8877166D01*
G37*
X-11375140Y8877166D02*
X-11373193Y8878432D01*
X-11372943Y8878637D01*
X-11367951Y8884734D01*
X-11363721Y8893702D01*
X-11360393Y8904697D01*
X-11358108Y8916880D01*
X-11357007Y8929409D01*
X-11357231Y8941441D01*
X-11358920Y8952137D01*
X-11360021Y8955803D01*
X-11363265Y8962185D01*
X-11368329Y8969174D01*
X-11371742Y8972936D01*
X-11381644Y8980806D01*
X-11392780Y8985683D01*
X-11405430Y8987597D01*
X-11419874Y8986579D01*
X-11436391Y8982659D01*
X-11442378Y8980722D01*
X-11452955Y8977212D01*
X-11460632Y8975086D01*
X-11466023Y8974388D01*
X-11469746Y8975165D01*
X-11472416Y8977463D01*
X-11474649Y8981328D01*
X-11475497Y8983185D01*
X-11477906Y8988075D01*
X-11479882Y8991133D01*
X-11480566Y8991650D01*
X-11481783Y8990074D01*
X-11484216Y8985829D01*
X-11487506Y8979640D01*
X-11491296Y8972230D01*
X-11495228Y8964322D01*
X-11498941Y8956641D01*
X-11502079Y8949909D01*
X-11504283Y8944851D01*
X-11505195Y8942190D01*
X-11505167Y8941971D01*
X-11503236Y8942355D01*
X-11498540Y8943853D01*
X-11491821Y8946215D01*
X-11485164Y8948683D01*
X-11471285Y8953760D01*
X-11459876Y8957447D01*
X-11450001Y8959950D01*
X-11440723Y8961474D01*
X-11431105Y8962225D01*
X-11422622Y8962406D01*
X-11413539Y8962370D01*
X-11407149Y8962038D01*
X-11402383Y8961211D01*
X-11398175Y8959693D01*
X-11393455Y8957285D01*
X-11392655Y8956844D01*
X-11382694Y8949417D01*
X-11375374Y8939876D01*
X-11371180Y8928891D01*
X-11370762Y8926599D01*
X-11370446Y8920063D01*
X-11370899Y8910892D01*
X-11372022Y8900112D01*
X-11373721Y8888751D01*
X-11374886Y8882526D01*
X-11375602Y8878324D01*
X-11375140Y8877166D01*
G36*
X-11447032Y8719808D02*
G01*
X-11445500Y8721718D01*
X-11442620Y8726060D01*
X-11438930Y8732011D01*
X-11437691Y8734080D01*
X-11433757Y8740996D01*
X-11431742Y8745431D01*
X-11431427Y8747997D01*
X-11432282Y8749137D01*
X-11435324Y8750606D01*
X-11436208Y8750793D01*
X-11435602Y8752036D01*
X-11432842Y8755339D01*
X-11428906Y8759604D01*
X-11452073Y8759604D01*
X-11474029Y8771676D01*
X-11483551Y8777148D01*
X-11490889Y8781856D01*
X-11495611Y8785503D01*
X-11497233Y8787511D01*
X-11498251Y8794040D01*
X-11498085Y8802865D01*
X-11496842Y8812749D01*
X-11494628Y8822453D01*
X-11494054Y8824339D01*
X-11488115Y8838144D01*
X-11480163Y8849387D01*
X-11470584Y8857867D01*
X-11459761Y8863380D01*
X-11448079Y8865726D01*
X-11435922Y8864701D01*
X-11424886Y8860727D01*
X-11414633Y8853799D01*
X-11407511Y8844951D01*
X-11403592Y8834451D01*
X-11402946Y8822567D01*
X-11405644Y8809568D01*
X-11409106Y8800898D01*
X-11416397Y8788510D01*
X-11425737Y8777350D01*
X-11436215Y8768414D01*
X-11441989Y8764884D01*
X-11452073Y8759604D01*
X-11428906Y8759604D01*
X-11428441Y8760109D01*
X-11425860Y8762782D01*
X-11411847Y8779443D01*
X-11401462Y8797091D01*
X-11394692Y8815749D01*
X-11391528Y8835441D01*
X-11391371Y8838311D01*
X-11391378Y8851245D01*
X-11392653Y8861016D01*
X-11393407Y8863769D01*
X-11398862Y8875205D01*
X-11406708Y8884061D01*
X-11416402Y8890114D01*
X-11427401Y8893140D01*
X-11439163Y8892915D01*
X-11451144Y8889215D01*
X-11452993Y8888312D01*
X-11463713Y8881106D01*
X-11474346Y8870854D01*
X-11484440Y8858259D01*
X-11493539Y8844021D01*
X-11501189Y8828840D01*
X-11506936Y8813417D01*
X-11510028Y8800381D01*
X-11511325Y8792555D01*
X-11521469Y8798500D01*
X-11528934Y8803669D01*
X-11533292Y8809097D01*
X-11535041Y8815816D01*
X-11534685Y8824855D01*
X-11534602Y8825537D01*
X-11533255Y8836324D01*
X-11547277Y8823004D01*
X-11554428Y8816611D01*
X-11561855Y8810628D01*
X-11568392Y8805970D01*
X-11570928Y8804443D01*
X-11575936Y8801434D01*
X-11579090Y8798984D01*
X-11579714Y8797840D01*
X-11577489Y8796819D01*
X-11572876Y8795849D01*
X-11570586Y8795543D01*
X-11567386Y8794842D01*
X-11563157Y8793245D01*
X-11557543Y8790558D01*
X-11550186Y8786590D01*
X-11540730Y8781148D01*
X-11528818Y8774040D01*
X-11514569Y8765366D01*
X-11502146Y8757755D01*
X-11490455Y8750594D01*
X-11479969Y8744171D01*
X-11471162Y8738776D01*
X-11464505Y8734700D01*
X-11460472Y8732231D01*
X-11459956Y8731916D01*
X-11455003Y8728201D01*
X-11451295Y8724229D01*
X-11450735Y8723337D01*
X-11448569Y8720392D01*
X-11447032Y8719808D01*
G37*
X-11447032Y8719808D02*
X-11445500Y8721718D01*
X-11442620Y8726060D01*
X-11438930Y8732011D01*
X-11437691Y8734080D01*
X-11433757Y8740996D01*
X-11431742Y8745431D01*
X-11431427Y8747997D01*
X-11432282Y8749137D01*
X-11435324Y8750606D01*
X-11436208Y8750793D01*
X-11435602Y8752036D01*
X-11432842Y8755339D01*
X-11428906Y8759604D01*
X-11452073Y8759604D01*
X-11474029Y8771676D01*
X-11483551Y8777148D01*
X-11490889Y8781856D01*
X-11495611Y8785503D01*
X-11497233Y8787511D01*
X-11498251Y8794040D01*
X-11498085Y8802865D01*
X-11496842Y8812749D01*
X-11494628Y8822453D01*
X-11494054Y8824339D01*
X-11488115Y8838144D01*
X-11480163Y8849387D01*
X-11470584Y8857867D01*
X-11459761Y8863380D01*
X-11448079Y8865726D01*
X-11435922Y8864701D01*
X-11424886Y8860727D01*
X-11414633Y8853799D01*
X-11407511Y8844951D01*
X-11403592Y8834451D01*
X-11402946Y8822567D01*
X-11405644Y8809568D01*
X-11409106Y8800898D01*
X-11416397Y8788510D01*
X-11425737Y8777350D01*
X-11436215Y8768414D01*
X-11441989Y8764884D01*
X-11452073Y8759604D01*
X-11428906Y8759604D01*
X-11428441Y8760109D01*
X-11425860Y8762782D01*
X-11411847Y8779443D01*
X-11401462Y8797091D01*
X-11394692Y8815749D01*
X-11391528Y8835441D01*
X-11391371Y8838311D01*
X-11391378Y8851245D01*
X-11392653Y8861016D01*
X-11393407Y8863769D01*
X-11398862Y8875205D01*
X-11406708Y8884061D01*
X-11416402Y8890114D01*
X-11427401Y8893140D01*
X-11439163Y8892915D01*
X-11451144Y8889215D01*
X-11452993Y8888312D01*
X-11463713Y8881106D01*
X-11474346Y8870854D01*
X-11484440Y8858259D01*
X-11493539Y8844021D01*
X-11501189Y8828840D01*
X-11506936Y8813417D01*
X-11510028Y8800381D01*
X-11511325Y8792555D01*
X-11521469Y8798500D01*
X-11528934Y8803669D01*
X-11533292Y8809097D01*
X-11535041Y8815816D01*
X-11534685Y8824855D01*
X-11534602Y8825537D01*
X-11533255Y8836324D01*
X-11547277Y8823004D01*
X-11554428Y8816611D01*
X-11561855Y8810628D01*
X-11568392Y8805970D01*
X-11570928Y8804443D01*
X-11575936Y8801434D01*
X-11579090Y8798984D01*
X-11579714Y8797840D01*
X-11577489Y8796819D01*
X-11572876Y8795849D01*
X-11570586Y8795543D01*
X-11567386Y8794842D01*
X-11563157Y8793245D01*
X-11557543Y8790558D01*
X-11550186Y8786590D01*
X-11540730Y8781148D01*
X-11528818Y8774040D01*
X-11514569Y8765366D01*
X-11502146Y8757755D01*
X-11490455Y8750594D01*
X-11479969Y8744171D01*
X-11471162Y8738776D01*
X-11464505Y8734700D01*
X-11460472Y8732231D01*
X-11459956Y8731916D01*
X-11455003Y8728201D01*
X-11451295Y8724229D01*
X-11450735Y8723337D01*
X-11448569Y8720392D01*
X-11447032Y8719808D01*
G36*
X-12127916Y8545741D02*
G01*
X-12124343Y8546753D01*
X-12118369Y8549522D01*
X-12110674Y8553645D01*
X-12101941Y8558717D01*
X-12092848Y8564335D01*
X-12084077Y8570097D01*
X-12076309Y8575600D01*
X-12072337Y8578669D01*
X-12054625Y8594572D01*
X-12040258Y8611126D01*
X-12028821Y8628966D01*
X-12019897Y8648726D01*
X-12014019Y8667338D01*
X-12012210Y8674577D01*
X-12010859Y8681277D01*
X-12009880Y8688263D01*
X-12009185Y8696364D01*
X-12008686Y8706406D01*
X-12008297Y8719218D01*
X-12008224Y8722198D01*
X-12008028Y8744064D01*
X-12008607Y8763223D01*
X-12010033Y8780666D01*
X-12012380Y8797382D01*
X-12014571Y8808995D01*
X-12017597Y8822071D01*
X-12021651Y8837328D01*
X-12026349Y8853462D01*
X-12031310Y8869164D01*
X-12036149Y8883128D01*
X-12036798Y8884879D01*
X-12043425Y8902574D01*
X-12038825Y8919361D01*
X-12029203Y8948510D01*
X-12016985Y8975058D01*
X-12002037Y8999247D01*
X-11984224Y9021322D01*
X-11980515Y9025285D01*
X-11962630Y9041887D01*
X-11944182Y9054828D01*
X-11925020Y9064145D01*
X-11904989Y9069874D01*
X-11883936Y9072052D01*
X-11861710Y9070714D01*
X-11838156Y9065896D01*
X-11825259Y9062004D01*
X-11807792Y9055175D01*
X-11792917Y9046962D01*
X-11779528Y9036669D01*
X-11769873Y9027247D01*
X-11754985Y9008791D01*
X-11743131Y8988371D01*
X-11734508Y8966453D01*
X-11729316Y8943502D01*
X-11727890Y8928622D01*
X-11727670Y8916328D01*
X-11728124Y8905434D01*
X-11729204Y8897093D01*
X-11729218Y8897025D01*
X-11731486Y8886123D01*
X-11753443Y8869892D01*
X-11769723Y8857151D01*
X-11783029Y8845227D01*
X-11793247Y8834250D01*
X-11800267Y8824348D01*
X-11803974Y8815650D01*
X-11804563Y8811188D01*
X-11803271Y8807302D01*
X-11799995Y8802500D01*
X-11798166Y8800493D01*
X-11792581Y8796138D01*
X-11786515Y8794204D01*
X-11779310Y8794693D01*
X-11770304Y8797609D01*
X-11763465Y8800667D01*
X-11744848Y8811516D01*
X-11728886Y8824887D01*
X-11715765Y8840603D01*
X-11707875Y8853870D01*
X-11703898Y8860137D01*
X-11697677Y8867979D01*
X-11689875Y8876586D01*
X-11686311Y8880211D01*
X-11672950Y8894787D01*
X-11662357Y8909558D01*
X-11653742Y8925764D01*
X-11647430Y8941478D01*
X-11644634Y8949512D01*
X-11642116Y8957300D01*
X-11639743Y8965379D01*
X-11637380Y8974285D01*
X-11634895Y8984554D01*
X-11632154Y8996724D01*
X-11629023Y9011329D01*
X-11625369Y9028907D01*
X-11623941Y9035867D01*
X-11616967Y9069539D01*
X-11610526Y9099758D01*
X-11604544Y9126782D01*
X-11598945Y9150871D01*
X-11593655Y9172285D01*
X-11588600Y9191283D01*
X-11583705Y9208124D01*
X-11578896Y9223068D01*
X-11574097Y9236376D01*
X-11569235Y9248305D01*
X-11564234Y9259116D01*
X-11559021Y9269069D01*
X-11554918Y9276141D01*
X-11541674Y9296145D01*
X-11527934Y9312910D01*
X-11513146Y9326959D01*
X-11496762Y9338815D01*
X-11478565Y9348840D01*
X-11470443Y9352866D01*
X-11463283Y9356594D01*
X-11457951Y9359563D01*
X-11455548Y9361108D01*
X-11453044Y9363283D01*
X-11453788Y9364021D01*
X-11456630Y9364125D01*
X-11461707Y9363411D01*
X-11469181Y9361407D01*
X-11478056Y9358451D01*
X-11487337Y9354880D01*
X-11496028Y9351032D01*
X-11497881Y9350123D01*
X-11520816Y9336519D01*
X-11541608Y9319837D01*
X-11560212Y9300127D01*
X-11576580Y9277437D01*
X-11588149Y9256941D01*
X-11595171Y9242007D01*
X-11601699Y9225915D01*
X-11607884Y9208189D01*
X-11613874Y9188353D01*
X-11619819Y9165930D01*
X-11625869Y9140445D01*
X-11628620Y9128059D01*
X-11632610Y9110104D01*
X-11636934Y9091261D01*
X-11641466Y9072021D01*
X-11646084Y9052880D01*
X-11650663Y9034330D01*
X-11655081Y9016866D01*
X-11659212Y9000981D01*
X-11662934Y8987168D01*
X-11666123Y8975922D01*
X-11668656Y8967735D01*
X-11669162Y8966252D01*
X-11675067Y8951011D01*
X-11681342Y8937681D01*
X-11687624Y8926997D01*
X-11690448Y8923134D01*
X-11694832Y8917645D01*
X-11696037Y8931600D01*
X-11699708Y8953612D01*
X-11706983Y8976523D01*
X-11713199Y8990942D01*
X-11726260Y9014801D01*
X-11741505Y9035659D01*
X-11759018Y9053575D01*
X-11778882Y9068613D01*
X-11801182Y9080834D01*
X-11826000Y9090300D01*
X-11853421Y9097072D01*
X-11857961Y9097894D01*
X-11883424Y9100529D01*
X-11907985Y9099536D01*
X-11931540Y9094962D01*
X-11953984Y9086856D01*
X-11975213Y9075268D01*
X-11995122Y9060245D01*
X-12013607Y9041836D01*
X-12030562Y9020091D01*
X-12032986Y9016515D01*
X-12043255Y8999775D01*
X-12052473Y8982203D01*
X-12059976Y8965125D01*
X-12063192Y8956237D01*
X-12064505Y8952190D01*
X-12065601Y8949530D01*
X-12066794Y8948542D01*
X-12068398Y8949511D01*
X-12070727Y8952722D01*
X-12074094Y8958460D01*
X-12078813Y8967009D01*
X-12082519Y8973778D01*
X-12095353Y8997751D01*
X-12106105Y9019149D01*
X-12114945Y9038411D01*
X-12122046Y9055975D01*
X-12127577Y9072281D01*
X-12131710Y9087767D01*
X-12134615Y9102873D01*
X-12135626Y9110136D01*
X-12137608Y9139772D01*
X-12136079Y9168179D01*
X-12131007Y9195567D01*
X-12122358Y9222147D01*
X-12115276Y9238126D01*
X-12106812Y9253137D01*
X-12097709Y9264609D01*
X-12087694Y9272750D01*
X-12076496Y9277765D01*
X-12063843Y9279860D01*
X-12060246Y9279953D01*
X-12053949Y9280400D01*
X-12051192Y9281762D01*
X-12051037Y9282357D01*
X-12051738Y9284386D01*
X-12054313Y9285888D01*
X-12059468Y9287155D01*
X-12064637Y9288007D01*
X-12074837Y9288007D01*
X-12086148Y9285493D01*
X-12097271Y9280843D01*
X-12104158Y9276583D01*
X-12115044Y9266765D01*
X-12125441Y9253665D01*
X-12135108Y9237756D01*
X-12143804Y9219510D01*
X-12151286Y9199402D01*
X-12157313Y9177902D01*
X-12159329Y9168684D01*
X-12160739Y9158538D01*
X-12161595Y9145571D01*
X-12161921Y9130680D01*
X-12161739Y9114765D01*
X-12161072Y9098721D01*
X-12159942Y9083447D01*
X-12158374Y9069841D01*
X-12156552Y9059519D01*
X-12152676Y9043865D01*
X-12147877Y9027933D01*
X-12141973Y9011284D01*
X-12134781Y8993474D01*
X-12126117Y8974064D01*
X-12115800Y8952612D01*
X-12103647Y8928676D01*
X-12097579Y8917070D01*
X-12086823Y8896564D01*
X-12077699Y8878921D01*
X-12070025Y8863707D01*
X-12063621Y8850489D01*
X-12058303Y8838831D01*
X-12053891Y8828301D01*
X-12050203Y8818465D01*
X-12047057Y8808888D01*
X-12044272Y8799137D01*
X-12041666Y8788778D01*
X-12039057Y8777376D01*
X-12039010Y8777163D01*
X-12033634Y8746677D01*
X-12031456Y8718130D01*
X-12032511Y8691421D01*
X-12036833Y8666451D01*
X-12044458Y8643118D01*
X-12055419Y8621323D01*
X-12069752Y8600966D01*
X-12087492Y8581946D01*
X-12108673Y8564165D01*
X-12114537Y8559882D01*
X-12122605Y8553963D01*
X-12127639Y8549795D01*
X-12129824Y8547181D01*
X-12129348Y8545925D01*
X-12127916Y8545741D01*
G37*
X-12127916Y8545741D02*
X-12124343Y8546753D01*
X-12118369Y8549522D01*
X-12110674Y8553645D01*
X-12101941Y8558717D01*
X-12092848Y8564335D01*
X-12084077Y8570097D01*
X-12076309Y8575600D01*
X-12072337Y8578669D01*
X-12054625Y8594572D01*
X-12040258Y8611126D01*
X-12028821Y8628966D01*
X-12019897Y8648726D01*
X-12014019Y8667338D01*
X-12012210Y8674577D01*
X-12010859Y8681277D01*
X-12009880Y8688263D01*
X-12009185Y8696364D01*
X-12008686Y8706406D01*
X-12008297Y8719218D01*
X-12008224Y8722198D01*
X-12008028Y8744064D01*
X-12008607Y8763223D01*
X-12010033Y8780666D01*
X-12012380Y8797382D01*
X-12014571Y8808995D01*
X-12017597Y8822071D01*
X-12021651Y8837328D01*
X-12026349Y8853462D01*
X-12031310Y8869164D01*
X-12036149Y8883128D01*
X-12036798Y8884879D01*
X-12043425Y8902574D01*
X-12038825Y8919361D01*
X-12029203Y8948510D01*
X-12016985Y8975058D01*
X-12002037Y8999247D01*
X-11984224Y9021322D01*
X-11980515Y9025285D01*
X-11962630Y9041887D01*
X-11944182Y9054828D01*
X-11925020Y9064145D01*
X-11904989Y9069874D01*
X-11883936Y9072052D01*
X-11861710Y9070714D01*
X-11838156Y9065896D01*
X-11825259Y9062004D01*
X-11807792Y9055175D01*
X-11792917Y9046962D01*
X-11779528Y9036669D01*
X-11769873Y9027247D01*
X-11754985Y9008791D01*
X-11743131Y8988371D01*
X-11734508Y8966453D01*
X-11729316Y8943502D01*
X-11727890Y8928622D01*
X-11727670Y8916328D01*
X-11728124Y8905434D01*
X-11729204Y8897093D01*
X-11729218Y8897025D01*
X-11731486Y8886123D01*
X-11753443Y8869892D01*
X-11769723Y8857151D01*
X-11783029Y8845227D01*
X-11793247Y8834250D01*
X-11800267Y8824348D01*
X-11803974Y8815650D01*
X-11804563Y8811188D01*
X-11803271Y8807302D01*
X-11799995Y8802500D01*
X-11798166Y8800493D01*
X-11792581Y8796138D01*
X-11786515Y8794204D01*
X-11779310Y8794693D01*
X-11770304Y8797609D01*
X-11763465Y8800667D01*
X-11744848Y8811516D01*
X-11728886Y8824887D01*
X-11715765Y8840603D01*
X-11707875Y8853870D01*
X-11703898Y8860137D01*
X-11697677Y8867979D01*
X-11689875Y8876586D01*
X-11686311Y8880211D01*
X-11672950Y8894787D01*
X-11662357Y8909558D01*
X-11653742Y8925764D01*
X-11647430Y8941478D01*
X-11644634Y8949512D01*
X-11642116Y8957300D01*
X-11639743Y8965379D01*
X-11637380Y8974285D01*
X-11634895Y8984554D01*
X-11632154Y8996724D01*
X-11629023Y9011329D01*
X-11625369Y9028907D01*
X-11623941Y9035867D01*
X-11616967Y9069539D01*
X-11610526Y9099758D01*
X-11604544Y9126782D01*
X-11598945Y9150871D01*
X-11593655Y9172285D01*
X-11588600Y9191283D01*
X-11583705Y9208124D01*
X-11578896Y9223068D01*
X-11574097Y9236376D01*
X-11569235Y9248305D01*
X-11564234Y9259116D01*
X-11559021Y9269069D01*
X-11554918Y9276141D01*
X-11541674Y9296145D01*
X-11527934Y9312910D01*
X-11513146Y9326959D01*
X-11496762Y9338815D01*
X-11478565Y9348840D01*
X-11470443Y9352866D01*
X-11463283Y9356594D01*
X-11457951Y9359563D01*
X-11455548Y9361108D01*
X-11453044Y9363283D01*
X-11453788Y9364021D01*
X-11456630Y9364125D01*
X-11461707Y9363411D01*
X-11469181Y9361407D01*
X-11478056Y9358451D01*
X-11487337Y9354880D01*
X-11496028Y9351032D01*
X-11497881Y9350123D01*
X-11520816Y9336519D01*
X-11541608Y9319837D01*
X-11560212Y9300127D01*
X-11576580Y9277437D01*
X-11588149Y9256941D01*
X-11595171Y9242007D01*
X-11601699Y9225915D01*
X-11607884Y9208189D01*
X-11613874Y9188353D01*
X-11619819Y9165930D01*
X-11625869Y9140445D01*
X-11628620Y9128059D01*
X-11632610Y9110104D01*
X-11636934Y9091261D01*
X-11641466Y9072021D01*
X-11646084Y9052880D01*
X-11650663Y9034330D01*
X-11655081Y9016866D01*
X-11659212Y9000981D01*
X-11662934Y8987168D01*
X-11666123Y8975922D01*
X-11668656Y8967735D01*
X-11669162Y8966252D01*
X-11675067Y8951011D01*
X-11681342Y8937681D01*
X-11687624Y8926997D01*
X-11690448Y8923134D01*
X-11694832Y8917645D01*
X-11696037Y8931600D01*
X-11699708Y8953612D01*
X-11706983Y8976523D01*
X-11713199Y8990942D01*
X-11726260Y9014801D01*
X-11741505Y9035659D01*
X-11759018Y9053575D01*
X-11778882Y9068613D01*
X-11801182Y9080834D01*
X-11826000Y9090300D01*
X-11853421Y9097072D01*
X-11857961Y9097894D01*
X-11883424Y9100529D01*
X-11907985Y9099536D01*
X-11931540Y9094962D01*
X-11953984Y9086856D01*
X-11975213Y9075268D01*
X-11995122Y9060245D01*
X-12013607Y9041836D01*
X-12030562Y9020091D01*
X-12032986Y9016515D01*
X-12043255Y8999775D01*
X-12052473Y8982203D01*
X-12059976Y8965125D01*
X-12063192Y8956237D01*
X-12064505Y8952190D01*
X-12065601Y8949530D01*
X-12066794Y8948542D01*
X-12068398Y8949511D01*
X-12070727Y8952722D01*
X-12074094Y8958460D01*
X-12078813Y8967009D01*
X-12082519Y8973778D01*
X-12095353Y8997751D01*
X-12106105Y9019149D01*
X-12114945Y9038411D01*
X-12122046Y9055975D01*
X-12127577Y9072281D01*
X-12131710Y9087767D01*
X-12134615Y9102873D01*
X-12135626Y9110136D01*
X-12137608Y9139772D01*
X-12136079Y9168179D01*
X-12131007Y9195567D01*
X-12122358Y9222147D01*
X-12115276Y9238126D01*
X-12106812Y9253137D01*
X-12097709Y9264609D01*
X-12087694Y9272750D01*
X-12076496Y9277765D01*
X-12063843Y9279860D01*
X-12060246Y9279953D01*
X-12053949Y9280400D01*
X-12051192Y9281762D01*
X-12051037Y9282357D01*
X-12051738Y9284386D01*
X-12054313Y9285888D01*
X-12059468Y9287155D01*
X-12064637Y9288007D01*
X-12074837Y9288007D01*
X-12086148Y9285493D01*
X-12097271Y9280843D01*
X-12104158Y9276583D01*
X-12115044Y9266765D01*
X-12125441Y9253665D01*
X-12135108Y9237756D01*
X-12143804Y9219510D01*
X-12151286Y9199402D01*
X-12157313Y9177902D01*
X-12159329Y9168684D01*
X-12160739Y9158538D01*
X-12161595Y9145571D01*
X-12161921Y9130680D01*
X-12161739Y9114765D01*
X-12161072Y9098721D01*
X-12159942Y9083447D01*
X-12158374Y9069841D01*
X-12156552Y9059519D01*
X-12152676Y9043865D01*
X-12147877Y9027933D01*
X-12141973Y9011284D01*
X-12134781Y8993474D01*
X-12126117Y8974064D01*
X-12115800Y8952612D01*
X-12103647Y8928676D01*
X-12097579Y8917070D01*
X-12086823Y8896564D01*
X-12077699Y8878921D01*
X-12070025Y8863707D01*
X-12063621Y8850489D01*
X-12058303Y8838831D01*
X-12053891Y8828301D01*
X-12050203Y8818465D01*
X-12047057Y8808888D01*
X-12044272Y8799137D01*
X-12041666Y8788778D01*
X-12039057Y8777376D01*
X-12039010Y8777163D01*
X-12033634Y8746677D01*
X-12031456Y8718130D01*
X-12032511Y8691421D01*
X-12036833Y8666451D01*
X-12044458Y8643118D01*
X-12055419Y8621323D01*
X-12069752Y8600966D01*
X-12087492Y8581946D01*
X-12108673Y8564165D01*
X-12114537Y8559882D01*
X-12122605Y8553963D01*
X-12127639Y8549795D01*
X-12129824Y8547181D01*
X-12129348Y8545925D01*
X-12127916Y8545741D01*
G36*
X-11581395Y8559021D02*
G01*
X-11579771Y8559841D01*
X-11576200Y8562759D01*
X-11571378Y8567194D01*
X-11570103Y8568429D01*
X-11559632Y8578667D01*
X-11560872Y8594578D01*
X-11561476Y8602034D01*
X-11562008Y8608046D01*
X-11562378Y8611630D01*
X-11562452Y8612124D01*
X-11560931Y8613341D01*
X-11556574Y8615212D01*
X-11550181Y8617414D01*
X-11546865Y8618423D01*
X-11538105Y8621368D01*
X-11562330Y8621368D01*
X-11563147Y8621668D01*
X-11563853Y8623837D01*
X-11564981Y8628938D01*
X-11566372Y8636186D01*
X-11567724Y8643963D01*
X-11571258Y8665215D01*
X-11561023Y8674906D01*
X-11551682Y8682637D01*
X-11541632Y8689055D01*
X-11531512Y8693921D01*
X-11521960Y8696998D01*
X-11513614Y8698046D01*
X-11507114Y8696828D01*
X-11505271Y8695729D01*
X-11500222Y8689573D01*
X-11498118Y8681527D01*
X-11499019Y8672123D01*
X-11501652Y8664614D01*
X-11506558Y8656705D01*
X-11513994Y8648245D01*
X-11523018Y8640138D01*
X-11532689Y8633289D01*
X-11536527Y8631104D01*
X-11544844Y8627038D01*
X-11552407Y8623886D01*
X-11558481Y8621909D01*
X-11562330Y8621368D01*
X-11538105Y8621368D01*
X-11532739Y8623171D01*
X-11521055Y8628664D01*
X-11510491Y8635645D01*
X-11499728Y8644860D01*
X-11499410Y8645158D01*
X-11488232Y8657195D01*
X-11480625Y8669044D01*
X-11476432Y8681011D01*
X-11475431Y8691386D01*
X-11475823Y8698280D01*
X-11476703Y8704168D01*
X-11477556Y8706979D01*
X-11481343Y8711247D01*
X-11487490Y8714728D01*
X-11494593Y8716726D01*
X-11497652Y8716956D01*
X-11506852Y8715581D01*
X-11517882Y8711671D01*
X-11530125Y8705549D01*
X-11542964Y8697537D01*
X-11555779Y8687958D01*
X-11559970Y8684445D01*
X-11572200Y8673891D01*
X-11574622Y8681782D01*
X-11576203Y8691087D01*
X-11574629Y8699418D01*
X-11569691Y8707583D01*
X-11567140Y8710539D01*
X-11562992Y8715307D01*
X-11561510Y8717899D01*
X-11562858Y8718408D01*
X-11567199Y8716929D01*
X-11573424Y8714152D01*
X-11580327Y8711510D01*
X-11587141Y8709802D01*
X-11590544Y8709448D01*
X-11597600Y8709430D01*
X-11597600Y8696605D01*
X-11597298Y8690138D01*
X-11596466Y8680996D01*
X-11595219Y8670212D01*
X-11593667Y8658818D01*
X-11592949Y8654073D01*
X-11591050Y8641063D01*
X-11589061Y8625942D01*
X-11587186Y8610350D01*
X-11585629Y8595926D01*
X-11585257Y8592109D01*
X-11584217Y8581510D01*
X-11583233Y8572278D01*
X-11582378Y8565038D01*
X-11581725Y8560416D01*
X-11581395Y8559021D01*
G37*
X-11581395Y8559021D02*
X-11579771Y8559841D01*
X-11576200Y8562759D01*
X-11571378Y8567194D01*
X-11570103Y8568429D01*
X-11559632Y8578667D01*
X-11560872Y8594578D01*
X-11561476Y8602034D01*
X-11562008Y8608046D01*
X-11562378Y8611630D01*
X-11562452Y8612124D01*
X-11560931Y8613341D01*
X-11556574Y8615212D01*
X-11550181Y8617414D01*
X-11546865Y8618423D01*
X-11538105Y8621368D01*
X-11562330Y8621368D01*
X-11563147Y8621668D01*
X-11563853Y8623837D01*
X-11564981Y8628938D01*
X-11566372Y8636186D01*
X-11567724Y8643963D01*
X-11571258Y8665215D01*
X-11561023Y8674906D01*
X-11551682Y8682637D01*
X-11541632Y8689055D01*
X-11531512Y8693921D01*
X-11521960Y8696998D01*
X-11513614Y8698046D01*
X-11507114Y8696828D01*
X-11505271Y8695729D01*
X-11500222Y8689573D01*
X-11498118Y8681527D01*
X-11499019Y8672123D01*
X-11501652Y8664614D01*
X-11506558Y8656705D01*
X-11513994Y8648245D01*
X-11523018Y8640138D01*
X-11532689Y8633289D01*
X-11536527Y8631104D01*
X-11544844Y8627038D01*
X-11552407Y8623886D01*
X-11558481Y8621909D01*
X-11562330Y8621368D01*
X-11538105Y8621368D01*
X-11532739Y8623171D01*
X-11521055Y8628664D01*
X-11510491Y8635645D01*
X-11499728Y8644860D01*
X-11499410Y8645158D01*
X-11488232Y8657195D01*
X-11480625Y8669044D01*
X-11476432Y8681011D01*
X-11475431Y8691386D01*
X-11475823Y8698280D01*
X-11476703Y8704168D01*
X-11477556Y8706979D01*
X-11481343Y8711247D01*
X-11487490Y8714728D01*
X-11494593Y8716726D01*
X-11497652Y8716956D01*
X-11506852Y8715581D01*
X-11517882Y8711671D01*
X-11530125Y8705549D01*
X-11542964Y8697537D01*
X-11555779Y8687958D01*
X-11559970Y8684445D01*
X-11572200Y8673891D01*
X-11574622Y8681782D01*
X-11576203Y8691087D01*
X-11574629Y8699418D01*
X-11569691Y8707583D01*
X-11567140Y8710539D01*
X-11562992Y8715307D01*
X-11561510Y8717899D01*
X-11562858Y8718408D01*
X-11567199Y8716929D01*
X-11573424Y8714152D01*
X-11580327Y8711510D01*
X-11587141Y8709802D01*
X-11590544Y8709448D01*
X-11597600Y8709430D01*
X-11597600Y8696605D01*
X-11597298Y8690138D01*
X-11596466Y8680996D01*
X-11595219Y8670212D01*
X-11593667Y8658818D01*
X-11592949Y8654073D01*
X-11591050Y8641063D01*
X-11589061Y8625942D01*
X-11587186Y8610350D01*
X-11585629Y8595926D01*
X-11585257Y8592109D01*
X-11584217Y8581510D01*
X-11583233Y8572278D01*
X-11582378Y8565038D01*
X-11581725Y8560416D01*
X-11581395Y8559021D01*
G36*
X-11670037Y8494306D02*
G01*
X-11663017Y8495440D01*
X-11656205Y8497685D01*
X-11647855Y8502170D01*
X-11638901Y8508298D01*
X-11630278Y8515473D01*
X-11627536Y8518096D01*
X-11618116Y8529850D01*
X-11611892Y8542872D01*
X-11608966Y8556621D01*
X-11609439Y8570552D01*
X-11613413Y8584123D01*
X-11614675Y8586823D01*
X-11619467Y8595089D01*
X-11625152Y8601994D01*
X-11632339Y8607992D01*
X-11641632Y8613536D01*
X-11653639Y8619079D01*
X-11662627Y8622681D01*
X-11673142Y8627239D01*
X-11680709Y8631621D01*
X-11685053Y8635644D01*
X-11686030Y8638259D01*
X-11685522Y8641269D01*
X-11684262Y8646182D01*
X-11683847Y8647605D01*
X-11682685Y8652394D01*
X-11682451Y8655449D01*
X-11682603Y8655830D01*
X-11684535Y8655390D01*
X-11689231Y8653553D01*
X-11696076Y8650579D01*
X-11704455Y8646731D01*
X-11708775Y8644682D01*
X-11718147Y8640044D01*
X-11725281Y8636207D01*
X-11729814Y8633382D01*
X-11731382Y8631783D01*
X-11731185Y8631560D01*
X-11728286Y8630512D01*
X-11722750Y8628523D01*
X-11715483Y8625919D01*
X-11710309Y8624067D01*
X-11697330Y8619199D01*
X-11686839Y8614667D01*
X-11677668Y8609901D01*
X-11668652Y8604332D01*
X-11665333Y8602099D01*
X-11651385Y8591015D01*
X-11640998Y8579324D01*
X-11634229Y8567112D01*
X-11631135Y8554462D01*
X-11630929Y8550189D01*
X-11631737Y8542530D01*
X-11634384Y8534997D01*
X-11639204Y8527028D01*
X-11646530Y8518060D01*
X-11655613Y8508601D01*
X-11670037Y8494306D01*
G37*
X-11670037Y8494306D02*
X-11663017Y8495440D01*
X-11656205Y8497685D01*
X-11647855Y8502170D01*
X-11638901Y8508298D01*
X-11630278Y8515473D01*
X-11627536Y8518096D01*
X-11618116Y8529850D01*
X-11611892Y8542872D01*
X-11608966Y8556621D01*
X-11609439Y8570552D01*
X-11613413Y8584123D01*
X-11614675Y8586823D01*
X-11619467Y8595089D01*
X-11625152Y8601994D01*
X-11632339Y8607992D01*
X-11641632Y8613536D01*
X-11653639Y8619079D01*
X-11662627Y8622681D01*
X-11673142Y8627239D01*
X-11680709Y8631621D01*
X-11685053Y8635644D01*
X-11686030Y8638259D01*
X-11685522Y8641269D01*
X-11684262Y8646182D01*
X-11683847Y8647605D01*
X-11682685Y8652394D01*
X-11682451Y8655449D01*
X-11682603Y8655830D01*
X-11684535Y8655390D01*
X-11689231Y8653553D01*
X-11696076Y8650579D01*
X-11704455Y8646731D01*
X-11708775Y8644682D01*
X-11718147Y8640044D01*
X-11725281Y8636207D01*
X-11729814Y8633382D01*
X-11731382Y8631783D01*
X-11731185Y8631560D01*
X-11728286Y8630512D01*
X-11722750Y8628523D01*
X-11715483Y8625919D01*
X-11710309Y8624067D01*
X-11697330Y8619199D01*
X-11686839Y8614667D01*
X-11677668Y8609901D01*
X-11668652Y8604332D01*
X-11665333Y8602099D01*
X-11651385Y8591015D01*
X-11640998Y8579324D01*
X-11634229Y8567112D01*
X-11631135Y8554462D01*
X-11630929Y8550189D01*
X-11631737Y8542530D01*
X-11634384Y8534997D01*
X-11639204Y8527028D01*
X-11646530Y8518060D01*
X-11655613Y8508601D01*
X-11670037Y8494306D01*
G36*
X-11705275Y8470481D02*
G01*
X-11702913Y8471410D01*
X-11698308Y8473830D01*
X-11692383Y8477193D01*
X-11686058Y8480954D01*
X-11680255Y8484563D01*
X-11675894Y8487475D01*
X-11673902Y8489131D01*
X-11674529Y8490981D01*
X-11676779Y8492168D01*
X-11679118Y8494147D01*
X-11683039Y8498829D01*
X-11688182Y8505696D01*
X-11694185Y8514228D01*
X-11700689Y8523907D01*
X-11707333Y8534213D01*
X-11713756Y8544627D01*
X-11716967Y8550046D01*
X-11720580Y8558209D01*
X-11720951Y8565477D01*
X-11718011Y8572826D01*
X-11715081Y8577098D01*
X-11712577Y8580900D01*
X-11711873Y8583128D01*
X-11712216Y8583370D01*
X-11714605Y8582410D01*
X-11719236Y8579862D01*
X-11725222Y8576224D01*
X-11726893Y8575158D01*
X-11733855Y8570780D01*
X-11740428Y8566819D01*
X-11745321Y8564053D01*
X-11745767Y8563821D01*
X-11749790Y8561265D01*
X-11751822Y8558996D01*
X-11751881Y8558684D01*
X-11750958Y8556559D01*
X-11748366Y8551684D01*
X-11744375Y8544535D01*
X-11739252Y8535590D01*
X-11733267Y8525324D01*
X-11729304Y8518612D01*
X-11721829Y8505792D01*
X-11715659Y8494758D01*
X-11710969Y8485846D01*
X-11707937Y8479393D01*
X-11706738Y8475735D01*
X-11706726Y8475517D01*
X-11706259Y8471823D01*
X-11705275Y8470481D01*
G37*
X-11705275Y8470481D02*
X-11702913Y8471410D01*
X-11698308Y8473830D01*
X-11692383Y8477193D01*
X-11686058Y8480954D01*
X-11680255Y8484563D01*
X-11675894Y8487475D01*
X-11673902Y8489131D01*
X-11674529Y8490981D01*
X-11676779Y8492168D01*
X-11679118Y8494147D01*
X-11683039Y8498829D01*
X-11688182Y8505696D01*
X-11694185Y8514228D01*
X-11700689Y8523907D01*
X-11707333Y8534213D01*
X-11713756Y8544627D01*
X-11716967Y8550046D01*
X-11720580Y8558209D01*
X-11720951Y8565477D01*
X-11718011Y8572826D01*
X-11715081Y8577098D01*
X-11712577Y8580900D01*
X-11711873Y8583128D01*
X-11712216Y8583370D01*
X-11714605Y8582410D01*
X-11719236Y8579862D01*
X-11725222Y8576224D01*
X-11726893Y8575158D01*
X-11733855Y8570780D01*
X-11740428Y8566819D01*
X-11745321Y8564053D01*
X-11745767Y8563821D01*
X-11749790Y8561265D01*
X-11751822Y8558996D01*
X-11751881Y8558684D01*
X-11750958Y8556559D01*
X-11748366Y8551684D01*
X-11744375Y8544535D01*
X-11739252Y8535590D01*
X-11733267Y8525324D01*
X-11729304Y8518612D01*
X-11721829Y8505792D01*
X-11715659Y8494758D01*
X-11710969Y8485846D01*
X-11707937Y8479393D01*
X-11706738Y8475735D01*
X-11706726Y8475517D01*
X-11706259Y8471823D01*
X-11705275Y8470481D01*
G36*
X-11980963Y8385301D02*
G01*
X-11966765Y8386502D01*
X-11959867Y8387175D01*
X-11954581Y8387862D01*
X-11951892Y8388430D01*
X-11951762Y8388507D01*
X-11952290Y8390357D01*
X-11954497Y8394284D01*
X-11956858Y8397892D01*
X-11962631Y8407447D01*
X-11966324Y8416806D01*
X-11968316Y8427268D01*
X-11968978Y8439437D01*
X-11968952Y8448063D01*
X-11968473Y8454121D01*
X-11967330Y8458798D01*
X-11965311Y8463282D01*
X-11964464Y8464837D01*
X-11956981Y8474454D01*
X-11946672Y8481763D01*
X-11933762Y8486660D01*
X-11918473Y8489044D01*
X-11911244Y8489271D01*
X-11902519Y8489191D01*
X-11896911Y8488565D01*
X-11893777Y8486743D01*
X-11892472Y8483075D01*
X-11892353Y8476910D01*
X-11892643Y8470491D01*
X-11891750Y8451479D01*
X-11887193Y8432873D01*
X-11880730Y8417847D01*
X-11876969Y8410660D01*
X-11874070Y8406320D01*
X-11871112Y8404361D01*
X-11867174Y8404316D01*
X-11861333Y8405720D01*
X-11858386Y8406546D01*
X-11851866Y8408471D01*
X-11846886Y8410119D01*
X-11844456Y8411154D01*
X-11844404Y8411198D01*
X-11844955Y8413026D01*
X-11847522Y8416474D01*
X-11849166Y8418299D01*
X-11856484Y8428160D01*
X-11862468Y8440404D01*
X-11866630Y8453744D01*
X-11868483Y8466896D01*
X-11868533Y8469241D01*
X-11866904Y8482157D01*
X-11862021Y8493185D01*
X-11853893Y8502313D01*
X-11842530Y8509531D01*
X-11836548Y8512082D01*
X-11827835Y8514511D01*
X-11818447Y8515768D01*
X-11809627Y8515793D01*
X-11802623Y8514529D01*
X-11800797Y8513754D01*
X-11798505Y8511262D01*
X-11795092Y8505972D01*
X-11790889Y8498559D01*
X-11786224Y8489698D01*
X-11781426Y8480063D01*
X-11776824Y8470331D01*
X-11772748Y8461174D01*
X-11769527Y8453269D01*
X-11767490Y8447291D01*
X-11766933Y8444320D01*
X-11766933Y8438739D01*
X-11750470Y8446305D01*
X-11743198Y8449725D01*
X-11737207Y8452690D01*
X-11733337Y8454774D01*
X-11732411Y8455399D01*
X-11732745Y8457153D01*
X-11735724Y8459330D01*
X-11736006Y8459472D01*
X-11738489Y8461362D01*
X-11741489Y8465034D01*
X-11745261Y8470889D01*
X-11750060Y8479326D01*
X-11756141Y8490745D01*
X-11756856Y8492119D01*
X-11761912Y8502052D01*
X-11766292Y8511066D01*
X-11769712Y8518543D01*
X-11771887Y8523863D01*
X-11772547Y8526265D01*
X-11771712Y8530004D01*
X-11769508Y8535678D01*
X-11766891Y8541117D01*
X-11764086Y8546739D01*
X-11762295Y8550894D01*
X-11761907Y8552630D01*
X-11763826Y8552260D01*
X-11768481Y8550714D01*
X-11775128Y8548253D01*
X-11781450Y8545774D01*
X-11789503Y8542661D01*
X-11796505Y8540171D01*
X-11801576Y8538604D01*
X-11803587Y8538215D01*
X-11805866Y8536776D01*
X-11805769Y8532547D01*
X-11803803Y8526821D01*
X-11803791Y8525551D01*
X-11805306Y8524478D01*
X-11808867Y8523467D01*
X-11814995Y8522379D01*
X-11824212Y8521080D01*
X-11827166Y8520692D01*
X-11842966Y8518303D01*
X-11855554Y8515590D01*
X-11865477Y8512372D01*
X-11873283Y8508466D01*
X-11879519Y8503691D01*
X-11880152Y8503085D01*
X-11887242Y8496162D01*
X-11915047Y8495938D01*
X-11926786Y8495757D01*
X-11935684Y8495362D01*
X-11942659Y8494652D01*
X-11948630Y8493525D01*
X-11954517Y8491878D01*
X-11956022Y8491394D01*
X-11970971Y8485342D01*
X-11982453Y8478101D01*
X-11990598Y8469582D01*
X-11992298Y8466956D01*
X-11994747Y8462410D01*
X-11996265Y8458180D01*
X-11997070Y8453140D01*
X-11997377Y8446164D01*
X-11997413Y8440378D01*
X-11996559Y8425054D01*
X-11993775Y8411787D01*
X-11988721Y8399222D01*
X-11985684Y8393554D01*
X-11980963Y8385301D01*
G37*
X-11980963Y8385301D02*
X-11966765Y8386502D01*
X-11959867Y8387175D01*
X-11954581Y8387862D01*
X-11951892Y8388430D01*
X-11951762Y8388507D01*
X-11952290Y8390357D01*
X-11954497Y8394284D01*
X-11956858Y8397892D01*
X-11962631Y8407447D01*
X-11966324Y8416806D01*
X-11968316Y8427268D01*
X-11968978Y8439437D01*
X-11968952Y8448063D01*
X-11968473Y8454121D01*
X-11967330Y8458798D01*
X-11965311Y8463282D01*
X-11964464Y8464837D01*
X-11956981Y8474454D01*
X-11946672Y8481763D01*
X-11933762Y8486660D01*
X-11918473Y8489044D01*
X-11911244Y8489271D01*
X-11902519Y8489191D01*
X-11896911Y8488565D01*
X-11893777Y8486743D01*
X-11892472Y8483075D01*
X-11892353Y8476910D01*
X-11892643Y8470491D01*
X-11891750Y8451479D01*
X-11887193Y8432873D01*
X-11880730Y8417847D01*
X-11876969Y8410660D01*
X-11874070Y8406320D01*
X-11871112Y8404361D01*
X-11867174Y8404316D01*
X-11861333Y8405720D01*
X-11858386Y8406546D01*
X-11851866Y8408471D01*
X-11846886Y8410119D01*
X-11844456Y8411154D01*
X-11844404Y8411198D01*
X-11844955Y8413026D01*
X-11847522Y8416474D01*
X-11849166Y8418299D01*
X-11856484Y8428160D01*
X-11862468Y8440404D01*
X-11866630Y8453744D01*
X-11868483Y8466896D01*
X-11868533Y8469241D01*
X-11866904Y8482157D01*
X-11862021Y8493185D01*
X-11853893Y8502313D01*
X-11842530Y8509531D01*
X-11836548Y8512082D01*
X-11827835Y8514511D01*
X-11818447Y8515768D01*
X-11809627Y8515793D01*
X-11802623Y8514529D01*
X-11800797Y8513754D01*
X-11798505Y8511262D01*
X-11795092Y8505972D01*
X-11790889Y8498559D01*
X-11786224Y8489698D01*
X-11781426Y8480063D01*
X-11776824Y8470331D01*
X-11772748Y8461174D01*
X-11769527Y8453269D01*
X-11767490Y8447291D01*
X-11766933Y8444320D01*
X-11766933Y8438739D01*
X-11750470Y8446305D01*
X-11743198Y8449725D01*
X-11737207Y8452690D01*
X-11733337Y8454774D01*
X-11732411Y8455399D01*
X-11732745Y8457153D01*
X-11735724Y8459330D01*
X-11736006Y8459472D01*
X-11738489Y8461362D01*
X-11741489Y8465034D01*
X-11745261Y8470889D01*
X-11750060Y8479326D01*
X-11756141Y8490745D01*
X-11756856Y8492119D01*
X-11761912Y8502052D01*
X-11766292Y8511066D01*
X-11769712Y8518543D01*
X-11771887Y8523863D01*
X-11772547Y8526265D01*
X-11771712Y8530004D01*
X-11769508Y8535678D01*
X-11766891Y8541117D01*
X-11764086Y8546739D01*
X-11762295Y8550894D01*
X-11761907Y8552630D01*
X-11763826Y8552260D01*
X-11768481Y8550714D01*
X-11775128Y8548253D01*
X-11781450Y8545774D01*
X-11789503Y8542661D01*
X-11796505Y8540171D01*
X-11801576Y8538604D01*
X-11803587Y8538215D01*
X-11805866Y8536776D01*
X-11805769Y8532547D01*
X-11803803Y8526821D01*
X-11803791Y8525551D01*
X-11805306Y8524478D01*
X-11808867Y8523467D01*
X-11814995Y8522379D01*
X-11824212Y8521080D01*
X-11827166Y8520692D01*
X-11842966Y8518303D01*
X-11855554Y8515590D01*
X-11865477Y8512372D01*
X-11873283Y8508466D01*
X-11879519Y8503691D01*
X-11880152Y8503085D01*
X-11887242Y8496162D01*
X-11915047Y8495938D01*
X-11926786Y8495757D01*
X-11935684Y8495362D01*
X-11942659Y8494652D01*
X-11948630Y8493525D01*
X-11954517Y8491878D01*
X-11956022Y8491394D01*
X-11970971Y8485342D01*
X-11982453Y8478101D01*
X-11990598Y8469582D01*
X-11992298Y8466956D01*
X-11994747Y8462410D01*
X-11996265Y8458180D01*
X-11997070Y8453140D01*
X-11997377Y8446164D01*
X-11997413Y8440378D01*
X-11996559Y8425054D01*
X-11993775Y8411787D01*
X-11988721Y8399222D01*
X-11985684Y8393554D01*
X-11980963Y8385301D01*
G36*
X-11761466Y8587133D02*
G01*
X-11754520Y8588436D01*
X-11748750Y8591854D01*
X-11744586Y8596651D01*
X-11742461Y8602093D01*
X-11742803Y8607444D01*
X-11746043Y8611968D01*
X-11746656Y8612427D01*
X-11753713Y8615301D01*
X-11761126Y8614618D01*
X-11768314Y8610464D01*
X-11769944Y8608959D01*
X-11774819Y8602397D01*
X-11776193Y8596431D01*
X-11774261Y8591563D01*
X-11769219Y8588297D01*
X-11761466Y8587133D01*
G37*
X-11761466Y8587133D02*
X-11754520Y8588436D01*
X-11748750Y8591854D01*
X-11744586Y8596651D01*
X-11742461Y8602093D01*
X-11742803Y8607444D01*
X-11746043Y8611968D01*
X-11746656Y8612427D01*
X-11753713Y8615301D01*
X-11761126Y8614618D01*
X-11768314Y8610464D01*
X-11769944Y8608959D01*
X-11774819Y8602397D01*
X-11776193Y8596431D01*
X-11774261Y8591563D01*
X-11769219Y8588297D01*
X-11761466Y8587133D01*
D11*
X-11740000Y8845000D02*
G75*
G03X-11740000Y8845000I-10000J0D01*
G01*
D10*
X-12476201Y9459823D02*
X-12546912Y9530533D01*
X-12513240Y9496861D02*
X-12553646Y9456455D01*
X-12516607Y9419416D02*
X-12587318Y9490127D01*
X-12580584Y9362174D02*
X-12570482Y9365542D01*
X-12557013Y9379010D01*
X-12553646Y9389112D01*
X-12557013Y9399213D01*
X-12583951Y9426151D01*
X-12594052Y9429518D01*
X-12604154Y9426151D01*
X-12617623Y9412682D01*
X-12620990Y9402581D01*
X-12617623Y9392479D01*
X-12610888Y9385745D01*
X-12570482Y9412682D01*
X-12641193Y9294831D02*
X-12678232Y9331870D01*
X-12681599Y9341971D01*
X-12678232Y9352073D01*
X-12664763Y9365542D01*
X-12654661Y9368909D01*
X-12644560Y9298198D02*
X-12634458Y9301565D01*
X-12617623Y9318401D01*
X-12614255Y9328503D01*
X-12617623Y9338604D01*
X-12624357Y9345339D01*
X-12634458Y9348706D01*
X-12644560Y9345339D01*
X-12661396Y9328503D01*
X-12671497Y9325136D01*
X-12711903Y9318401D02*
X-12738841Y9291464D01*
X-12745575Y9331870D02*
X-12684966Y9271261D01*
X-12681599Y9261159D01*
X-12684966Y9251058D01*
X-12691700Y9244323D01*
X-12715271Y9227487D02*
X-12718638Y9217386D01*
X-12732107Y9203917D01*
X-12742208Y9200550D01*
X-12752310Y9203917D01*
X-12755677Y9207284D01*
X-12759044Y9217386D01*
X-12755677Y9227487D01*
X-12745575Y9237589D01*
X-12742208Y9247691D01*
X-12745575Y9257792D01*
X-12748942Y9261159D01*
X-12759044Y9264526D01*
X-12769145Y9261159D01*
X-12779247Y9251058D01*
X-12782614Y9240956D01*
X-12772513Y9163511D02*
X-12819653Y9210652D01*
X-12843223Y9234222D02*
X-12836489Y9234222D01*
X-12836489Y9227487D01*
X-12843223Y9227487D01*
X-12843223Y9234222D01*
X-12836489Y9227487D01*
X-12853325Y9176980D02*
X-12806184Y9129839D01*
X-12846590Y9170245D02*
X-12853325Y9170245D01*
X-12863426Y9166878D01*
X-12873528Y9156777D01*
X-12876895Y9146675D01*
X-12873528Y9136574D01*
X-12836489Y9099535D01*
X-12870161Y9065863D02*
X-12940871Y9136574D01*
X-12903832Y9086066D02*
X-12897098Y9038926D01*
X-12944239Y9086066D02*
X-12890364Y9086066D01*
X-13018316Y8917707D02*
X-12977910Y8958113D01*
X-12998113Y8937910D02*
X-13068824Y9008621D01*
X-13051988Y9005254D01*
X-13038519Y9005254D01*
X-13028418Y9008621D01*
X-13126066Y8904239D02*
X-13078926Y8857098D01*
X-13136168Y8948012D02*
X-13068824Y8914340D01*
X-13112597Y8870567D01*
X-13109230Y8826794D02*
X-13193410Y8836895D01*
X-13156371Y8873934D02*
X-13146269Y8789755D01*
X-13210245Y8725778D02*
X-13169839Y8766184D01*
X-13190042Y8745981D02*
X-13260753Y8816692D01*
X-13243917Y8813325D01*
X-13230448Y8813325D01*
X-13220347Y8816692D01*
X-13291058Y8725778D02*
X-13287690Y8735880D01*
X-13287690Y8742614D01*
X-13291058Y8752716D01*
X-13294425Y8756083D01*
X-13304526Y8759450D01*
X-13311261Y8759450D01*
X-13321362Y8756083D01*
X-13334831Y8742614D01*
X-13338198Y8732513D01*
X-13338198Y8725778D01*
X-13334831Y8715677D01*
X-13331464Y8712310D01*
X-13321362Y8708943D01*
X-13314628Y8708943D01*
X-13304526Y8712310D01*
X-13291058Y8725778D01*
X-13280956Y8729146D01*
X-13274222Y8729146D01*
X-13264120Y8725778D01*
X-13250651Y8712310D01*
X-13247284Y8702208D01*
X-13247284Y8695474D01*
X-13250651Y8685372D01*
X-13264120Y8671904D01*
X-13274222Y8668536D01*
X-13280956Y8668536D01*
X-13291058Y8671904D01*
X-13304526Y8685372D01*
X-13307893Y8695474D01*
X-13307893Y8702208D01*
X-13304526Y8712310D01*
X-13301159Y8634865D02*
X-13385339Y8644966D01*
X-13348300Y8682005D02*
X-13338198Y8597826D01*
X-13466151Y8611294D02*
X-13452682Y8624763D01*
X-13442580Y8628130D01*
X-13435846Y8628130D01*
X-13419010Y8624763D01*
X-13402174Y8614662D01*
X-13375237Y8587724D01*
X-13371870Y8577623D01*
X-13371870Y8570888D01*
X-13375237Y8560787D01*
X-13388706Y8547318D01*
X-13398807Y8543951D01*
X-13405542Y8543951D01*
X-13415643Y8547318D01*
X-13432479Y8564154D01*
X-13435846Y8574255D01*
X-13435846Y8580990D01*
X-13432479Y8591091D01*
X-13419010Y8604560D01*
X-13408909Y8607927D01*
X-13402174Y8607927D01*
X-13392073Y8604560D01*
X-13439213Y8510279D02*
X-13439213Y8503545D01*
X-13432479Y8503545D01*
X-13432479Y8510279D01*
X-13439213Y8510279D01*
X-13432479Y8503545D01*
X-13526760Y8537217D02*
X-13533494Y8537217D01*
X-13543596Y8533849D01*
X-13560432Y8517014D01*
X-13563799Y8506912D01*
X-13563799Y8500178D01*
X-13560432Y8490076D01*
X-13553697Y8483342D01*
X-13540229Y8476607D01*
X-13459416Y8476607D01*
X-13503190Y8432834D01*
D13*
X-13927857Y8486429D02*
X-13927857Y8400714D01*
X-13927857Y8443572D02*
X-13777857Y8443572D01*
X-13799286Y8429286D01*
X-13813571Y8415000D01*
X-13820714Y8400714D01*
X-13792143Y8543572D02*
X-13785000Y8550714D01*
X-13777857Y8565000D01*
X-13777857Y8600714D01*
X-13785000Y8615000D01*
X-13792143Y8622143D01*
X-13806429Y8629286D01*
X-13820714Y8629286D01*
X-13842143Y8622143D01*
X-13927857Y8536429D01*
X-13927857Y8629286D01*
X-13777857Y8672143D02*
X-13927857Y8722143D01*
X-13777857Y8772143D01*
X-13927857Y8936429D02*
X-13827857Y8936429D01*
X-13777857Y8936429D02*
X-13785000Y8929286D01*
X-13792143Y8936429D01*
X-13785000Y8943572D01*
X-13777857Y8936429D01*
X-13792143Y8936429D01*
X-13827857Y9007857D02*
X-13927857Y9007857D01*
X-13842143Y9007857D02*
X-13835000Y9015000D01*
X-13827857Y9029286D01*
X-13827857Y9050714D01*
X-13835000Y9065000D01*
X-13849286Y9072143D01*
X-13927857Y9072143D01*
X-14239286Y8207143D02*
X-14239286Y8092857D01*
X-14239286Y9407143D02*
X-14239286Y9292857D01*
X-14182143Y9350000D02*
X-14296429Y9350000D01*
X-11222143Y9470000D02*
X-11222143Y9541429D01*
X-11150714Y9548572D01*
X-11157857Y9541429D01*
X-11165000Y9527143D01*
X-11165000Y9491429D01*
X-11157857Y9477143D01*
X-11150714Y9470000D01*
X-11136429Y9462857D01*
X-11100714Y9462857D01*
X-11086429Y9470000D01*
X-11079286Y9477143D01*
X-11072143Y9491429D01*
X-11072143Y9527143D01*
X-11079286Y9541429D01*
X-11086429Y9548572D01*
X-11222143Y9420000D02*
X-11072143Y9370000D01*
X-11222143Y9320000D01*
X-11072143Y9134286D02*
X-11079286Y9148572D01*
X-11086429Y9155714D01*
X-11100714Y9162857D01*
X-11143572Y9162857D01*
X-11157857Y9155714D01*
X-11165000Y9148572D01*
X-11172143Y9134286D01*
X-11172143Y9112857D01*
X-11165000Y9098572D01*
X-11157857Y9091429D01*
X-11143572Y9084286D01*
X-11100714Y9084286D01*
X-11086429Y9091429D01*
X-11079286Y9098572D01*
X-11072143Y9112857D01*
X-11072143Y9134286D01*
X-11172143Y8955714D02*
X-11072143Y8955714D01*
X-11172143Y9020000D02*
X-11093572Y9020000D01*
X-11079286Y9012857D01*
X-11072143Y8998572D01*
X-11072143Y8977143D01*
X-11079286Y8962857D01*
X-11086429Y8955714D01*
X-11172143Y8905714D02*
X-11172143Y8848572D01*
X-11222143Y8884286D02*
X-11093572Y8884286D01*
X-11079286Y8877143D01*
X-11072143Y8862857D01*
X-11072143Y8848572D01*
X-11015000Y8641429D02*
X-11022143Y8648572D01*
X-11043572Y8662857D01*
X-11057857Y8670000D01*
X-11079286Y8677143D01*
X-11115000Y8684286D01*
X-11143572Y8684286D01*
X-11179286Y8677143D01*
X-11200714Y8670000D01*
X-11215000Y8662857D01*
X-11236429Y8648572D01*
X-11243571Y8641429D01*
X-11172143Y8470000D02*
X-11129286Y8584286D01*
X-11086429Y8470000D01*
X-11222143Y8334286D02*
X-11222143Y8362857D01*
X-11215000Y8377143D01*
X-11207857Y8384286D01*
X-11186429Y8398572D01*
X-11157857Y8405714D01*
X-11100714Y8405714D01*
X-11086429Y8398572D01*
X-11079286Y8391429D01*
X-11072143Y8377143D01*
X-11072143Y8348571D01*
X-11079286Y8334286D01*
X-11086429Y8327143D01*
X-11100714Y8320000D01*
X-11136429Y8320000D01*
X-11150714Y8327143D01*
X-11157857Y8334286D01*
X-11165000Y8348571D01*
X-11165000Y8377143D01*
X-11157857Y8391429D01*
X-11150714Y8398572D01*
X-11136429Y8405714D01*
X-11115000Y8262857D02*
X-11115000Y8191429D01*
X-11072143Y8277143D02*
X-11222143Y8227143D01*
X-11072143Y8177143D01*
X-11015000Y8141429D02*
X-11022143Y8134286D01*
X-11043572Y8120000D01*
X-11057857Y8112857D01*
X-11079286Y8105714D01*
X-11115000Y8098571D01*
X-11143572Y8098571D01*
X-11179286Y8105714D01*
X-11200714Y8112857D01*
X-11215000Y8120000D01*
X-11236429Y8134286D01*
X-11243571Y8141429D01*
X-10739286Y8157143D02*
X-10739286Y8042857D01*
X-10682143Y8100000D02*
X-10796429Y8100000D01*
X-10739286Y9357143D02*
X-10739286Y9242857D01*
D11*
X-11600000Y9613810D02*
X-11600000Y9693810D01*
X-11630476Y9693810D01*
X-11638095Y9690000D01*
X-11641905Y9686191D01*
X-11645714Y9678572D01*
X-11645714Y9667143D01*
X-11641905Y9659524D01*
X-11638095Y9655714D01*
X-11630476Y9651905D01*
X-11600000Y9651905D01*
X-11721905Y9690000D02*
X-11714286Y9693810D01*
X-11702857Y9693810D01*
X-11691429Y9690000D01*
X-11683810Y9682381D01*
X-11680000Y9674762D01*
X-11676190Y9659524D01*
X-11676190Y9648095D01*
X-11680000Y9632857D01*
X-11683810Y9625238D01*
X-11691429Y9617619D01*
X-11702857Y9613810D01*
X-11710476Y9613810D01*
X-11721905Y9617619D01*
X-11725714Y9621429D01*
X-11725714Y9648095D01*
X-11710476Y9648095D01*
X-11881905Y9655714D02*
X-11908571Y9655714D01*
X-11920000Y9613810D02*
X-11881905Y9613810D01*
X-11881905Y9693810D01*
X-11920000Y9693810D01*
X-11954286Y9613810D02*
X-11954286Y9693810D01*
X-12000000Y9613810D01*
X-12000000Y9693810D01*
M02*
