G04 #@! TF.GenerationSoftware,KiCad,Pcbnew,(5.1.5)-1*
G04 #@! TF.CreationDate,2020-06-06T10:03:48+02:00*
G04 #@! TF.ProjectId,MP8765,4d503837-3635-42e6-9b69-6361645f7063,rev?*
G04 #@! TF.SameCoordinates,PXe9a6740PY8f0d180*
G04 #@! TF.FileFunction,Legend,Top*
G04 #@! TF.FilePolarity,Positive*
%FSLAX45Y45*%
G04 Gerber Fmt 4.5, Leading zero omitted, Abs format (unit mm)*
G04 Created by KiCad (PCBNEW (5.1.5)-1) date 2020-06-06 10:03:48*
%MOMM*%
%LPD*%
G04 APERTURE LIST*
%ADD10C,0.150000*%
%ADD11C,0.300000*%
G04 APERTURE END LIST*
D10*
X-12000000Y9623810D02*
X-12000000Y9703810D01*
X-11969524Y9703810D01*
X-11961905Y9700000D01*
X-11958095Y9696191D01*
X-11954286Y9688572D01*
X-11954286Y9677143D01*
X-11958095Y9669524D01*
X-11961905Y9665714D01*
X-11969524Y9661905D01*
X-12000000Y9661905D01*
X-11878095Y9700000D02*
X-11885714Y9703810D01*
X-11897143Y9703810D01*
X-11908571Y9700000D01*
X-11916190Y9692381D01*
X-11920000Y9684762D01*
X-11923810Y9669524D01*
X-11923810Y9658095D01*
X-11920000Y9642857D01*
X-11916190Y9635238D01*
X-11908571Y9627619D01*
X-11897143Y9623810D01*
X-11889524Y9623810D01*
X-11878095Y9627619D01*
X-11874286Y9631429D01*
X-11874286Y9658095D01*
X-11889524Y9658095D01*
X-11718095Y9665714D02*
X-11691429Y9665714D01*
X-11680000Y9623810D02*
X-11718095Y9623810D01*
X-11718095Y9703810D01*
X-11680000Y9703810D01*
X-11645714Y9623810D02*
X-11645714Y9703810D01*
X-11600000Y9623810D01*
X-11600000Y9703810D01*
D11*
X-11202143Y9244286D02*
X-11202143Y9315714D01*
X-11130714Y9322857D01*
X-11137857Y9315714D01*
X-11145000Y9301429D01*
X-11145000Y9265714D01*
X-11137857Y9251429D01*
X-11130714Y9244286D01*
X-11116429Y9237143D01*
X-11080714Y9237143D01*
X-11066429Y9244286D01*
X-11059286Y9251429D01*
X-11052143Y9265714D01*
X-11052143Y9301429D01*
X-11059286Y9315714D01*
X-11066429Y9322857D01*
X-11202143Y9194286D02*
X-11052143Y9144286D01*
X-11202143Y9094286D01*
X-11052143Y8908572D02*
X-11059286Y8922857D01*
X-11066429Y8930000D01*
X-11080714Y8937143D01*
X-11123572Y8937143D01*
X-11137857Y8930000D01*
X-11145000Y8922857D01*
X-11152143Y8908572D01*
X-11152143Y8887143D01*
X-11145000Y8872857D01*
X-11137857Y8865714D01*
X-11123572Y8858572D01*
X-11080714Y8858572D01*
X-11066429Y8865714D01*
X-11059286Y8872857D01*
X-11052143Y8887143D01*
X-11052143Y8908572D01*
X-11152143Y8730000D02*
X-11052143Y8730000D01*
X-11152143Y8794286D02*
X-11073572Y8794286D01*
X-11059286Y8787143D01*
X-11052143Y8772857D01*
X-11052143Y8751429D01*
X-11059286Y8737143D01*
X-11066429Y8730000D01*
X-11152143Y8680000D02*
X-11152143Y8622857D01*
X-11202143Y8658572D02*
X-11073572Y8658572D01*
X-11059286Y8651429D01*
X-11052143Y8637143D01*
X-11052143Y8622857D01*
X-14027857Y8506429D02*
X-14027857Y8420714D01*
X-14027857Y8463572D02*
X-13877857Y8463572D01*
X-13899286Y8449286D01*
X-13913571Y8435000D01*
X-13920714Y8420714D01*
X-13892143Y8563572D02*
X-13885000Y8570714D01*
X-13877857Y8585000D01*
X-13877857Y8620714D01*
X-13885000Y8635000D01*
X-13892143Y8642143D01*
X-13906429Y8649286D01*
X-13920714Y8649286D01*
X-13942143Y8642143D01*
X-14027857Y8556429D01*
X-14027857Y8649286D01*
X-13877857Y8692143D02*
X-14027857Y8742143D01*
X-13877857Y8792143D01*
X-14027857Y8956429D02*
X-13927857Y8956429D01*
X-13877857Y8956429D02*
X-13885000Y8949286D01*
X-13892143Y8956429D01*
X-13885000Y8963572D01*
X-13877857Y8956429D01*
X-13892143Y8956429D01*
X-13927857Y9027857D02*
X-14027857Y9027857D01*
X-13942143Y9027857D02*
X-13935000Y9035000D01*
X-13927857Y9049286D01*
X-13927857Y9070714D01*
X-13935000Y9085000D01*
X-13949286Y9092143D01*
X-14027857Y9092143D01*
D10*
X-12812500Y8617500D02*
X-12812500Y8457500D01*
X-13112500Y8617500D02*
X-12812500Y8617500D01*
X-13112500Y8457500D02*
X-13112500Y8617500D01*
X-12812500Y8457500D02*
X-13112500Y8457500D01*
X-13487500Y9072500D02*
X-13687500Y9072500D01*
X-13487500Y9452500D02*
X-13487500Y9072500D01*
X-13687500Y9452500D02*
X-13487500Y9452500D01*
X-13687500Y9072500D02*
X-13687500Y9452500D01*
X-11500000Y8665000D02*
X-11300000Y8665000D01*
X-11500000Y8285000D02*
X-11500000Y8665000D01*
X-11300000Y8285000D02*
X-11500000Y8285000D01*
X-11300000Y8665000D02*
X-11300000Y8285000D01*
X-11575000Y8400000D02*
G75*
G03X-11575000Y8300000I0J-50000D01*
G01*
X-11525000Y8300000D02*
G75*
G03X-11525000Y8400000I0J50000D01*
G01*
X-11525000Y8400000D02*
X-11575000Y8400000D01*
X-11525000Y8300000D02*
X-11575000Y8300000D01*
X-11747500Y9152500D02*
X-11747500Y8472500D01*
X-12427500Y9152500D02*
X-11747500Y9152500D01*
X-12427500Y8472500D02*
X-12427500Y9152500D01*
X-11747500Y8472500D02*
X-12427500Y8472500D01*
X-13487500Y9052500D02*
X-13487500Y8672500D01*
X-13487500Y8672500D02*
X-13687500Y8672500D01*
X-13687500Y8672500D02*
X-13687500Y9052500D01*
X-13687500Y9052500D02*
X-13487500Y9052500D01*
X-13307500Y9137500D02*
X-13307500Y8837500D01*
X-13307500Y8837500D02*
X-13467500Y8837500D01*
X-13467500Y8837500D02*
X-13467500Y9137500D01*
X-13467500Y9137500D02*
X-13307500Y9137500D01*
X-12837500Y9332500D02*
X-13137500Y9332500D01*
X-13137500Y9332500D02*
X-13137500Y9492500D01*
X-13137500Y9492500D02*
X-12837500Y9492500D01*
X-12837500Y9492500D02*
X-12837500Y9332500D01*
X-12637500Y9507500D02*
X-12637500Y9667500D01*
X-12337500Y9507500D02*
X-12637500Y9507500D01*
X-12337500Y9667500D02*
X-12337500Y9507500D01*
X-12637500Y9667500D02*
X-12337500Y9667500D01*
X-13612500Y9667500D02*
X-13312500Y9667500D01*
X-13312500Y9667500D02*
X-13312500Y9507500D01*
X-13312500Y9507500D02*
X-13612500Y9507500D01*
X-13612500Y9507500D02*
X-13612500Y9667500D01*
X-11495000Y8800000D02*
X-11255000Y8800000D01*
X-11495000Y8800000D02*
X-11495000Y9300000D01*
X-11495000Y9300000D02*
X-11255000Y9300000D01*
X-11255000Y9300000D02*
X-11255000Y8800000D01*
X-11572500Y8292500D02*
X-12602500Y8292500D01*
X-12602500Y8292500D02*
X-12602500Y9332500D01*
X-12602500Y9332500D02*
X-11572500Y9332500D01*
X-11572500Y9332500D02*
X-11572500Y8292500D01*
X-13462500Y8457500D02*
X-13462500Y8537500D01*
X-13162500Y8457500D02*
X-13462500Y8457500D01*
X-13162500Y8617500D02*
X-13162500Y8457500D01*
X-13462500Y8617500D02*
X-13162500Y8617500D01*
X-13462500Y8537500D02*
X-13462500Y8617500D01*
X-12812500Y9412500D02*
X-12812500Y9492500D01*
X-12812500Y9492500D02*
X-12512500Y9492500D01*
X-12512500Y9492500D02*
X-12512500Y9332500D01*
X-12512500Y9332500D02*
X-12812500Y9332500D01*
X-12812500Y9332500D02*
X-12812500Y9412500D01*
X-12662500Y9667500D02*
X-12662500Y9587500D01*
X-12962500Y9667500D02*
X-12662500Y9667500D01*
X-12962500Y9507500D02*
X-12962500Y9667500D01*
X-12662500Y9507500D02*
X-12962500Y9507500D01*
X-12662500Y9587500D02*
X-12662500Y9507500D01*
X-13287500Y9587500D02*
X-13287500Y9667500D01*
X-13287500Y9667500D02*
X-12987500Y9667500D01*
X-12987500Y9667500D02*
X-12987500Y9507500D01*
X-12987500Y9507500D02*
X-13287500Y9507500D01*
X-13287500Y9507500D02*
X-13287500Y9587500D01*
X-13312500Y9762500D02*
X-13312500Y9682500D01*
X-13312500Y9682500D02*
X-13612500Y9682500D01*
X-13612500Y9682500D02*
X-13612500Y9842500D01*
X-13612500Y9842500D02*
X-13312500Y9842500D01*
X-13312500Y9842500D02*
X-13312500Y9762500D01*
X-13287500Y9682500D02*
X-13287500Y9762500D01*
X-12987500Y9682500D02*
X-13287500Y9682500D01*
X-12987500Y9842500D02*
X-12987500Y9682500D01*
X-13287500Y9842500D02*
X-12987500Y9842500D01*
X-13287500Y9762500D02*
X-13287500Y9842500D01*
X-13627500Y8442500D02*
X-13627500Y8282500D01*
X-13637500Y8282500D02*
X-13637500Y8442500D01*
X-13647500Y8442500D02*
X-13647500Y8282500D01*
X-13607210Y8439970D02*
X-13608480Y8285030D01*
X-13617500Y8442500D02*
X-13617500Y8282500D01*
X-13177500Y8442500D02*
X-13647500Y8442500D01*
X-13597500Y8442500D02*
X-13597500Y8282500D01*
X-13647500Y8282500D02*
X-13177500Y8282500D01*
X-13177500Y8282500D02*
X-13177500Y8442500D01*
X-13425600Y8324400D02*
X-13425600Y8400600D01*
X-13349400Y8362500D02*
X-13349400Y8400600D01*
X-13349400Y8400600D02*
X-13425600Y8362500D01*
X-13425600Y8362500D02*
X-13349400Y8324400D01*
X-13349400Y8324400D02*
X-13349400Y8362500D01*
X-11120000Y8575000D02*
X-11120000Y8275000D01*
X-11120000Y8275000D02*
X-11280000Y8275000D01*
X-11280000Y8275000D02*
X-11280000Y8575000D01*
X-11280000Y8575000D02*
X-11120000Y8575000D01*
X-13112500Y9112500D02*
X-12812500Y9112500D01*
X-13112500Y8812500D02*
X-13112500Y9112500D01*
X-12812500Y8812500D02*
X-13112500Y8812500D01*
X-12812500Y9112500D02*
X-12812500Y8812500D01*
X-13052500Y9112500D02*
X-13112500Y9052500D01*
X-13212500Y8712500D02*
X-13212500Y9212500D01*
X-12712500Y8712500D02*
X-13212500Y8712500D01*
X-12712500Y9212500D02*
X-12712500Y8712500D01*
X-13212500Y9212500D02*
X-12712500Y9212500D01*
X-13112500Y9212500D02*
X-13212500Y9112500D01*
X-13112500Y9092500D02*
X-13092500Y9112500D01*
X-13112500Y9072500D02*
X-13072500Y9112500D01*
X-12972500Y8516072D02*
X-12975357Y8513214D01*
X-12983929Y8510357D01*
X-12989643Y8510357D01*
X-12998214Y8513214D01*
X-13003929Y8518929D01*
X-13006786Y8524643D01*
X-13009643Y8536072D01*
X-13009643Y8544643D01*
X-13006786Y8556072D01*
X-13003929Y8561786D01*
X-12998214Y8567500D01*
X-12989643Y8570357D01*
X-12983929Y8570357D01*
X-12975357Y8567500D01*
X-12972500Y8564643D01*
X-12921071Y8570357D02*
X-12932500Y8570357D01*
X-12938214Y8567500D01*
X-12941071Y8564643D01*
X-12946786Y8556072D01*
X-12949643Y8544643D01*
X-12949643Y8521786D01*
X-12946786Y8516072D01*
X-12943929Y8513214D01*
X-12938214Y8510357D01*
X-12926786Y8510357D01*
X-12921071Y8513214D01*
X-12918214Y8516072D01*
X-12915357Y8521786D01*
X-12915357Y8536072D01*
X-12918214Y8541786D01*
X-12921071Y8544643D01*
X-12926786Y8547500D01*
X-12938214Y8547500D01*
X-12943929Y8544643D01*
X-12946786Y8541786D01*
X-12949643Y8536072D01*
X-13058571Y8432857D02*
X-13052857Y8432857D01*
X-13047143Y8430000D01*
X-13044286Y8427143D01*
X-13041429Y8421429D01*
X-13038571Y8410000D01*
X-13038571Y8395714D01*
X-13041429Y8384286D01*
X-13044286Y8378571D01*
X-13047143Y8375714D01*
X-13052857Y8372857D01*
X-13058571Y8372857D01*
X-13064286Y8375714D01*
X-13067143Y8378571D01*
X-13070000Y8384286D01*
X-13072857Y8395714D01*
X-13072857Y8410000D01*
X-13070000Y8421429D01*
X-13067143Y8427143D01*
X-13064286Y8430000D01*
X-13058571Y8432857D01*
X-13012857Y8378571D02*
X-13010000Y8375714D01*
X-13012857Y8372857D01*
X-13015714Y8375714D01*
X-13012857Y8378571D01*
X-13012857Y8372857D01*
X-12952857Y8372857D02*
X-12987143Y8372857D01*
X-12970000Y8372857D02*
X-12970000Y8432857D01*
X-12975714Y8424286D01*
X-12981429Y8418572D01*
X-12987143Y8415714D01*
X-12901429Y8412857D02*
X-12901429Y8372857D01*
X-12927143Y8412857D02*
X-12927143Y8381429D01*
X-12924286Y8375714D01*
X-12918571Y8372857D01*
X-12910000Y8372857D01*
X-12904286Y8375714D01*
X-12901429Y8378571D01*
X-12852857Y8404286D02*
X-12872857Y8404286D01*
X-12872857Y8372857D02*
X-12872857Y8432857D01*
X-12844286Y8432857D01*
X-13597500Y9241072D02*
X-13600357Y9238214D01*
X-13608929Y9235357D01*
X-13614643Y9235357D01*
X-13623214Y9238214D01*
X-13628929Y9243929D01*
X-13631786Y9249643D01*
X-13634643Y9261072D01*
X-13634643Y9269643D01*
X-13631786Y9281072D01*
X-13628929Y9286786D01*
X-13623214Y9292500D01*
X-13614643Y9295357D01*
X-13608929Y9295357D01*
X-13600357Y9292500D01*
X-13597500Y9289643D01*
X-13574643Y9289643D02*
X-13571786Y9292500D01*
X-13566071Y9295357D01*
X-13551786Y9295357D01*
X-13546071Y9292500D01*
X-13543214Y9289643D01*
X-13540357Y9283929D01*
X-13540357Y9278214D01*
X-13543214Y9269643D01*
X-13577500Y9235357D01*
X-13540357Y9235357D01*
X-13767143Y9161429D02*
X-13770000Y9164286D01*
X-13772857Y9170000D01*
X-13772857Y9184286D01*
X-13770000Y9190000D01*
X-13767143Y9192857D01*
X-13761429Y9195714D01*
X-13755714Y9195714D01*
X-13747143Y9192857D01*
X-13712857Y9158572D01*
X-13712857Y9195714D01*
X-13767143Y9218572D02*
X-13770000Y9221429D01*
X-13772857Y9227143D01*
X-13772857Y9241429D01*
X-13770000Y9247143D01*
X-13767143Y9250000D01*
X-13761429Y9252857D01*
X-13755714Y9252857D01*
X-13747143Y9250000D01*
X-13712857Y9215714D01*
X-13712857Y9252857D01*
X-13752857Y9304286D02*
X-13712857Y9304286D01*
X-13752857Y9278572D02*
X-13721429Y9278572D01*
X-13715714Y9281429D01*
X-13712857Y9287143D01*
X-13712857Y9295714D01*
X-13715714Y9301429D01*
X-13718571Y9304286D01*
X-13744286Y9352857D02*
X-13744286Y9332857D01*
X-13712857Y9332857D02*
X-13772857Y9332857D01*
X-13772857Y9361429D01*
X-11438571Y8453572D02*
X-11441429Y8450714D01*
X-11450000Y8447857D01*
X-11455714Y8447857D01*
X-11464286Y8450714D01*
X-11470000Y8456429D01*
X-11472857Y8462143D01*
X-11475714Y8473572D01*
X-11475714Y8482143D01*
X-11472857Y8493572D01*
X-11470000Y8499286D01*
X-11464286Y8505000D01*
X-11455714Y8507857D01*
X-11450000Y8507857D01*
X-11441429Y8505000D01*
X-11438571Y8502143D01*
X-11381429Y8447857D02*
X-11415714Y8447857D01*
X-11398571Y8447857D02*
X-11398571Y8507857D01*
X-11404286Y8499286D01*
X-11410000Y8493572D01*
X-11415714Y8490714D01*
X-11327143Y8507857D02*
X-11355714Y8507857D01*
X-11358571Y8479286D01*
X-11355714Y8482143D01*
X-11350000Y8485000D01*
X-11335714Y8485000D01*
X-11330000Y8482143D01*
X-11327143Y8479286D01*
X-11324286Y8473572D01*
X-11324286Y8459286D01*
X-11327143Y8453572D01*
X-11330000Y8450714D01*
X-11335714Y8447857D01*
X-11350000Y8447857D01*
X-11355714Y8450714D01*
X-11358571Y8453572D01*
X-11498571Y8747143D02*
X-11495714Y8750000D01*
X-11490000Y8752857D01*
X-11475714Y8752857D01*
X-11470000Y8750000D01*
X-11467143Y8747143D01*
X-11464286Y8741429D01*
X-11464286Y8735714D01*
X-11467143Y8727143D01*
X-11501429Y8692857D01*
X-11464286Y8692857D01*
X-11441429Y8747143D02*
X-11438571Y8750000D01*
X-11432857Y8752857D01*
X-11418571Y8752857D01*
X-11412857Y8750000D01*
X-11410000Y8747143D01*
X-11407143Y8741429D01*
X-11407143Y8735714D01*
X-11410000Y8727143D01*
X-11444286Y8692857D01*
X-11407143Y8692857D01*
X-11355714Y8732857D02*
X-11355714Y8692857D01*
X-11381429Y8732857D02*
X-11381429Y8701429D01*
X-11378571Y8695714D01*
X-11372857Y8692857D01*
X-11364286Y8692857D01*
X-11358571Y8695714D01*
X-11355714Y8698572D01*
X-11307143Y8724286D02*
X-11327143Y8724286D01*
X-11327143Y8692857D02*
X-11327143Y8752857D01*
X-11298571Y8752857D01*
X-11570000Y8382857D02*
X-11570000Y8340000D01*
X-11572857Y8331429D01*
X-11578571Y8325714D01*
X-11587143Y8322857D01*
X-11592857Y8322857D01*
X-11510000Y8322857D02*
X-11544286Y8322857D01*
X-11527143Y8322857D02*
X-11527143Y8382857D01*
X-11532857Y8374286D01*
X-11538571Y8368571D01*
X-11544286Y8365714D01*
X-13597500Y8841072D02*
X-13600357Y8838214D01*
X-13608929Y8835357D01*
X-13614643Y8835357D01*
X-13623214Y8838214D01*
X-13628929Y8843929D01*
X-13631786Y8849643D01*
X-13634643Y8861072D01*
X-13634643Y8869643D01*
X-13631786Y8881072D01*
X-13628929Y8886786D01*
X-13623214Y8892500D01*
X-13614643Y8895357D01*
X-13608929Y8895357D01*
X-13600357Y8892500D01*
X-13597500Y8889643D01*
X-13577500Y8895357D02*
X-13540357Y8895357D01*
X-13560357Y8872500D01*
X-13551786Y8872500D01*
X-13546071Y8869643D01*
X-13543214Y8866786D01*
X-13540357Y8861072D01*
X-13540357Y8846786D01*
X-13543214Y8841072D01*
X-13546071Y8838214D01*
X-13551786Y8835357D01*
X-13568929Y8835357D01*
X-13574643Y8838214D01*
X-13577500Y8841072D01*
X-13767143Y8761429D02*
X-13770000Y8764286D01*
X-13772857Y8770000D01*
X-13772857Y8784286D01*
X-13770000Y8790000D01*
X-13767143Y8792857D01*
X-13761429Y8795714D01*
X-13755714Y8795714D01*
X-13747143Y8792857D01*
X-13712857Y8758572D01*
X-13712857Y8795714D01*
X-13767143Y8818572D02*
X-13770000Y8821429D01*
X-13772857Y8827143D01*
X-13772857Y8841429D01*
X-13770000Y8847143D01*
X-13767143Y8850000D01*
X-13761429Y8852857D01*
X-13755714Y8852857D01*
X-13747143Y8850000D01*
X-13712857Y8815714D01*
X-13712857Y8852857D01*
X-13752857Y8904286D02*
X-13712857Y8904286D01*
X-13752857Y8878572D02*
X-13721429Y8878572D01*
X-13715714Y8881429D01*
X-13712857Y8887143D01*
X-13712857Y8895714D01*
X-13715714Y8901429D01*
X-13718571Y8904286D01*
X-13744286Y8952857D02*
X-13744286Y8932857D01*
X-13712857Y8932857D02*
X-13772857Y8932857D01*
X-13772857Y8961429D01*
X-13366071Y8977500D02*
X-13363214Y8974643D01*
X-13360357Y8966072D01*
X-13360357Y8960357D01*
X-13363214Y8951786D01*
X-13368929Y8946072D01*
X-13374643Y8943214D01*
X-13386071Y8940357D01*
X-13394643Y8940357D01*
X-13406071Y8943214D01*
X-13411786Y8946072D01*
X-13417500Y8951786D01*
X-13420357Y8960357D01*
X-13420357Y8966072D01*
X-13417500Y8974643D01*
X-13414643Y8977500D01*
X-13400357Y9028929D02*
X-13360357Y9028929D01*
X-13423214Y9014643D02*
X-13380357Y9000357D01*
X-13380357Y9037500D01*
X-13292857Y8901429D02*
X-13292857Y8907143D01*
X-13290000Y8912857D01*
X-13287143Y8915714D01*
X-13281429Y8918572D01*
X-13270000Y8921429D01*
X-13255714Y8921429D01*
X-13244286Y8918572D01*
X-13238571Y8915714D01*
X-13235714Y8912857D01*
X-13232857Y8907143D01*
X-13232857Y8901429D01*
X-13235714Y8895714D01*
X-13238571Y8892857D01*
X-13244286Y8890000D01*
X-13255714Y8887143D01*
X-13270000Y8887143D01*
X-13281429Y8890000D01*
X-13287143Y8892857D01*
X-13290000Y8895714D01*
X-13292857Y8901429D01*
X-13235714Y8950000D02*
X-13232857Y8950000D01*
X-13227143Y8947143D01*
X-13224286Y8944286D01*
X-13232857Y9007143D02*
X-13232857Y8972857D01*
X-13232857Y8990000D02*
X-13292857Y8990000D01*
X-13284286Y8984286D01*
X-13278571Y8978572D01*
X-13275714Y8972857D01*
X-13272857Y9058572D02*
X-13232857Y9058572D01*
X-13272857Y9032857D02*
X-13241429Y9032857D01*
X-13235714Y9035714D01*
X-13232857Y9041429D01*
X-13232857Y9050000D01*
X-13235714Y9055714D01*
X-13238571Y9058572D01*
X-13264286Y9107143D02*
X-13264286Y9087143D01*
X-13232857Y9087143D02*
X-13292857Y9087143D01*
X-13292857Y9115714D01*
X-12997500Y9391072D02*
X-13000357Y9388214D01*
X-13008929Y9385357D01*
X-13014643Y9385357D01*
X-13023214Y9388214D01*
X-13028929Y9393929D01*
X-13031786Y9399643D01*
X-13034643Y9411072D01*
X-13034643Y9419643D01*
X-13031786Y9431072D01*
X-13028929Y9436786D01*
X-13023214Y9442500D01*
X-13014643Y9445357D01*
X-13008929Y9445357D01*
X-13000357Y9442500D01*
X-12997500Y9439643D01*
X-12943214Y9445357D02*
X-12971786Y9445357D01*
X-12974643Y9416786D01*
X-12971786Y9419643D01*
X-12966071Y9422500D01*
X-12951786Y9422500D01*
X-12946071Y9419643D01*
X-12943214Y9416786D01*
X-12940357Y9411072D01*
X-12940357Y9396786D01*
X-12943214Y9391072D01*
X-12946071Y9388214D01*
X-12951786Y9385357D01*
X-12966071Y9385357D01*
X-12971786Y9388214D01*
X-12974643Y9391072D01*
X-13015714Y9252857D02*
X-13050000Y9252857D01*
X-13032857Y9252857D02*
X-13032857Y9312857D01*
X-13038571Y9304286D01*
X-13044286Y9298572D01*
X-13050000Y9295714D01*
X-12964286Y9292857D02*
X-12964286Y9252857D01*
X-12990000Y9292857D02*
X-12990000Y9261429D01*
X-12987143Y9255714D01*
X-12981429Y9252857D01*
X-12972857Y9252857D01*
X-12967143Y9255714D01*
X-12964286Y9258572D01*
X-12915714Y9284286D02*
X-12935714Y9284286D01*
X-12935714Y9252857D02*
X-12935714Y9312857D01*
X-12907143Y9312857D01*
X-12497500Y9566072D02*
X-12500357Y9563214D01*
X-12508929Y9560357D01*
X-12514643Y9560357D01*
X-12523214Y9563214D01*
X-12528929Y9568929D01*
X-12531786Y9574643D01*
X-12534643Y9586072D01*
X-12534643Y9594643D01*
X-12531786Y9606072D01*
X-12528929Y9611786D01*
X-12523214Y9617500D01*
X-12514643Y9620357D01*
X-12508929Y9620357D01*
X-12500357Y9617500D01*
X-12497500Y9614643D01*
X-12477500Y9620357D02*
X-12437500Y9620357D01*
X-12463214Y9560357D01*
X-12587143Y9747143D02*
X-12584286Y9750000D01*
X-12578571Y9752857D01*
X-12564286Y9752857D01*
X-12558571Y9750000D01*
X-12555714Y9747143D01*
X-12552857Y9741429D01*
X-12552857Y9735714D01*
X-12555714Y9727143D01*
X-12590000Y9692857D01*
X-12552857Y9692857D01*
X-12530000Y9747143D02*
X-12527143Y9750000D01*
X-12521429Y9752857D01*
X-12507143Y9752857D01*
X-12501429Y9750000D01*
X-12498571Y9747143D01*
X-12495714Y9741429D01*
X-12495714Y9735714D01*
X-12498571Y9727143D01*
X-12532857Y9692857D01*
X-12495714Y9692857D01*
X-12458571Y9752857D02*
X-12452857Y9752857D01*
X-12447143Y9750000D01*
X-12444286Y9747143D01*
X-12441429Y9741429D01*
X-12438571Y9730000D01*
X-12438571Y9715714D01*
X-12441429Y9704286D01*
X-12444286Y9698572D01*
X-12447143Y9695714D01*
X-12452857Y9692857D01*
X-12458571Y9692857D01*
X-12464286Y9695714D01*
X-12467143Y9698572D01*
X-12470000Y9704286D01*
X-12472857Y9715714D01*
X-12472857Y9730000D01*
X-12470000Y9741429D01*
X-12467143Y9747143D01*
X-12464286Y9750000D01*
X-12458571Y9752857D01*
X-12412857Y9732857D02*
X-12412857Y9692857D01*
X-12412857Y9727143D02*
X-12410000Y9730000D01*
X-12404286Y9732857D01*
X-12395714Y9732857D01*
X-12390000Y9730000D01*
X-12387143Y9724286D01*
X-12387143Y9692857D01*
X-12338571Y9724286D02*
X-12358571Y9724286D01*
X-12358571Y9692857D02*
X-12358571Y9752857D01*
X-12330000Y9752857D01*
X-13501071Y9566072D02*
X-13503929Y9563214D01*
X-13512500Y9560357D01*
X-13518214Y9560357D01*
X-13526786Y9563214D01*
X-13532500Y9568929D01*
X-13535357Y9574643D01*
X-13538214Y9586072D01*
X-13538214Y9594643D01*
X-13535357Y9606072D01*
X-13532500Y9611786D01*
X-13526786Y9617500D01*
X-13518214Y9620357D01*
X-13512500Y9620357D01*
X-13503929Y9617500D01*
X-13501071Y9614643D01*
X-13449643Y9620357D02*
X-13461071Y9620357D01*
X-13466786Y9617500D01*
X-13469643Y9614643D01*
X-13475357Y9606072D01*
X-13478214Y9594643D01*
X-13478214Y9571786D01*
X-13475357Y9566072D01*
X-13472500Y9563214D01*
X-13466786Y9560357D01*
X-13455357Y9560357D01*
X-13449643Y9563214D01*
X-13446786Y9566072D01*
X-13443929Y9571786D01*
X-13443929Y9586072D01*
X-13446786Y9591786D01*
X-13449643Y9594643D01*
X-13455357Y9597500D01*
X-13466786Y9597500D01*
X-13472500Y9594643D01*
X-13475357Y9591786D01*
X-13478214Y9586072D01*
X-13406786Y9620357D02*
X-13401071Y9620357D01*
X-13395357Y9617500D01*
X-13392500Y9614643D01*
X-13389643Y9608929D01*
X-13386786Y9597500D01*
X-13386786Y9583214D01*
X-13389643Y9571786D01*
X-13392500Y9566072D01*
X-13395357Y9563214D01*
X-13401071Y9560357D01*
X-13406786Y9560357D01*
X-13412500Y9563214D01*
X-13415357Y9566072D01*
X-13418214Y9571786D01*
X-13421071Y9583214D01*
X-13421071Y9597500D01*
X-13418214Y9608929D01*
X-13415357Y9614643D01*
X-13412500Y9617500D01*
X-13406786Y9620357D01*
X-13907143Y9607143D02*
X-13904286Y9610000D01*
X-13898571Y9612857D01*
X-13884286Y9612857D01*
X-13878571Y9610000D01*
X-13875714Y9607143D01*
X-13872857Y9601429D01*
X-13872857Y9595714D01*
X-13875714Y9587143D01*
X-13910000Y9552857D01*
X-13872857Y9552857D01*
X-13850000Y9607143D02*
X-13847143Y9610000D01*
X-13841429Y9612857D01*
X-13827143Y9612857D01*
X-13821429Y9610000D01*
X-13818571Y9607143D01*
X-13815714Y9601429D01*
X-13815714Y9595714D01*
X-13818571Y9587143D01*
X-13852857Y9552857D01*
X-13815714Y9552857D01*
X-13778571Y9612857D02*
X-13772857Y9612857D01*
X-13767143Y9610000D01*
X-13764286Y9607143D01*
X-13761429Y9601429D01*
X-13758571Y9590000D01*
X-13758571Y9575714D01*
X-13761429Y9564286D01*
X-13764286Y9558572D01*
X-13767143Y9555714D01*
X-13772857Y9552857D01*
X-13778571Y9552857D01*
X-13784286Y9555714D01*
X-13787143Y9558572D01*
X-13790000Y9564286D01*
X-13792857Y9575714D01*
X-13792857Y9590000D01*
X-13790000Y9601429D01*
X-13787143Y9607143D01*
X-13784286Y9610000D01*
X-13778571Y9612857D01*
X-13732857Y9592857D02*
X-13732857Y9532857D01*
X-13732857Y9590000D02*
X-13727143Y9592857D01*
X-13715714Y9592857D01*
X-13710000Y9590000D01*
X-13707143Y9587143D01*
X-13704286Y9581429D01*
X-13704286Y9564286D01*
X-13707143Y9558572D01*
X-13710000Y9555714D01*
X-13715714Y9552857D01*
X-13727143Y9552857D01*
X-13732857Y9555714D01*
X-13658571Y9584286D02*
X-13678571Y9584286D01*
X-13678571Y9552857D02*
X-13678571Y9612857D01*
X-13650000Y9612857D01*
X-11413571Y8988572D02*
X-11416429Y8985714D01*
X-11425000Y8982857D01*
X-11430714Y8982857D01*
X-11439286Y8985714D01*
X-11445000Y8991429D01*
X-11447857Y8997143D01*
X-11450714Y9008572D01*
X-11450714Y9017143D01*
X-11447857Y9028572D01*
X-11445000Y9034286D01*
X-11439286Y9040000D01*
X-11430714Y9042857D01*
X-11425000Y9042857D01*
X-11416429Y9040000D01*
X-11413571Y9037143D01*
X-11356429Y8982857D02*
X-11390714Y8982857D01*
X-11373571Y8982857D02*
X-11373571Y9042857D01*
X-11379286Y9034286D01*
X-11385000Y9028572D01*
X-11390714Y9025714D01*
X-11305000Y9022857D02*
X-11305000Y8982857D01*
X-11319286Y9045714D02*
X-11333571Y9002857D01*
X-11296429Y9002857D01*
X-11419286Y9112857D02*
X-11419286Y9072857D01*
X-11433571Y9135714D02*
X-11447857Y9092857D01*
X-11410714Y9092857D01*
X-11393571Y9132857D02*
X-11353571Y9132857D01*
X-11379286Y9072857D01*
X-11305000Y9112857D02*
X-11305000Y9072857D01*
X-11330714Y9112857D02*
X-11330714Y9081429D01*
X-11327857Y9075714D01*
X-11322143Y9072857D01*
X-11313571Y9072857D01*
X-11307857Y9075714D01*
X-11305000Y9078572D01*
X-12460357Y8827500D02*
X-12460357Y8798929D01*
X-12520357Y8798929D01*
X-12514643Y8844643D02*
X-12517500Y8847500D01*
X-12520357Y8853214D01*
X-12520357Y8867500D01*
X-12517500Y8873214D01*
X-12514643Y8876072D01*
X-12508929Y8878929D01*
X-12503214Y8878929D01*
X-12494643Y8876072D01*
X-12460357Y8841786D01*
X-12460357Y8878929D01*
X-12206071Y8839643D02*
X-12203214Y8842500D01*
X-12197500Y8845357D01*
X-12183214Y8845357D01*
X-12177500Y8842500D01*
X-12174643Y8839643D01*
X-12171786Y8833929D01*
X-12171786Y8828214D01*
X-12174643Y8819643D01*
X-12208929Y8785357D01*
X-12171786Y8785357D01*
X-12146071Y8791072D02*
X-12143214Y8788214D01*
X-12146071Y8785357D01*
X-12148929Y8788214D01*
X-12146071Y8791072D01*
X-12146071Y8785357D01*
X-12120357Y8839643D02*
X-12117500Y8842500D01*
X-12111786Y8845357D01*
X-12097500Y8845357D01*
X-12091786Y8842500D01*
X-12088929Y8839643D01*
X-12086071Y8833929D01*
X-12086071Y8828214D01*
X-12088929Y8819643D01*
X-12123214Y8785357D01*
X-12086071Y8785357D01*
X-12034643Y8825357D02*
X-12034643Y8785357D01*
X-12060357Y8825357D02*
X-12060357Y8793929D01*
X-12057500Y8788214D01*
X-12051786Y8785357D01*
X-12043214Y8785357D01*
X-12037500Y8788214D01*
X-12034643Y8791072D01*
X-12006071Y8785357D02*
X-12006071Y8845357D01*
X-12006071Y8816786D02*
X-11971786Y8816786D01*
X-11971786Y8785357D02*
X-11971786Y8845357D01*
X-13322500Y8510357D02*
X-13342500Y8538929D01*
X-13356786Y8510357D02*
X-13356786Y8570357D01*
X-13333929Y8570357D01*
X-13328214Y8567500D01*
X-13325357Y8564643D01*
X-13322500Y8558929D01*
X-13322500Y8550357D01*
X-13325357Y8544643D01*
X-13328214Y8541786D01*
X-13333929Y8538929D01*
X-13356786Y8538929D01*
X-13265357Y8510357D02*
X-13299643Y8510357D01*
X-13282500Y8510357D02*
X-13282500Y8570357D01*
X-13288214Y8561786D01*
X-13293929Y8556072D01*
X-13299643Y8553214D01*
X-13492857Y8504286D02*
X-13492857Y8470000D01*
X-13492857Y8487143D02*
X-13552857Y8487143D01*
X-13544286Y8481429D01*
X-13538571Y8475714D01*
X-13535714Y8470000D01*
X-13552857Y8541429D02*
X-13552857Y8547143D01*
X-13550000Y8552857D01*
X-13547143Y8555714D01*
X-13541429Y8558572D01*
X-13530000Y8561429D01*
X-13515714Y8561429D01*
X-13504286Y8558572D01*
X-13498571Y8555714D01*
X-13495714Y8552857D01*
X-13492857Y8547143D01*
X-13492857Y8541429D01*
X-13495714Y8535714D01*
X-13498571Y8532857D01*
X-13504286Y8530000D01*
X-13515714Y8527143D01*
X-13530000Y8527143D01*
X-13541429Y8530000D01*
X-13547143Y8532857D01*
X-13550000Y8535714D01*
X-13552857Y8541429D01*
X-13492857Y8587143D02*
X-13552857Y8587143D01*
X-13515714Y8592857D02*
X-13492857Y8610000D01*
X-13532857Y8610000D02*
X-13510000Y8587143D01*
X-12672500Y9385357D02*
X-12692500Y9413929D01*
X-12706786Y9385357D02*
X-12706786Y9445357D01*
X-12683929Y9445357D01*
X-12678214Y9442500D01*
X-12675357Y9439643D01*
X-12672500Y9433929D01*
X-12672500Y9425357D01*
X-12675357Y9419643D01*
X-12678214Y9416786D01*
X-12683929Y9413929D01*
X-12706786Y9413929D01*
X-12649643Y9439643D02*
X-12646786Y9442500D01*
X-12641071Y9445357D01*
X-12626786Y9445357D01*
X-12621071Y9442500D01*
X-12618214Y9439643D01*
X-12615357Y9433929D01*
X-12615357Y9428214D01*
X-12618214Y9419643D01*
X-12652500Y9385357D01*
X-12615357Y9385357D01*
X-12770000Y9292857D02*
X-12770000Y9252857D01*
X-12784286Y9315714D02*
X-12798571Y9272857D01*
X-12761429Y9272857D01*
X-12738571Y9258572D02*
X-12735714Y9255714D01*
X-12738571Y9252857D01*
X-12741429Y9255714D01*
X-12738571Y9258572D01*
X-12738571Y9252857D01*
X-12715714Y9312857D02*
X-12675714Y9312857D01*
X-12701429Y9252857D01*
X-12652857Y9252857D02*
X-12652857Y9292857D01*
X-12652857Y9281429D02*
X-12650000Y9287143D01*
X-12647143Y9290000D01*
X-12641429Y9292857D01*
X-12635714Y9292857D01*
X-12822500Y9560357D02*
X-12842500Y9588929D01*
X-12856786Y9560357D02*
X-12856786Y9620357D01*
X-12833929Y9620357D01*
X-12828214Y9617500D01*
X-12825357Y9614643D01*
X-12822500Y9608929D01*
X-12822500Y9600357D01*
X-12825357Y9594643D01*
X-12828214Y9591786D01*
X-12833929Y9588929D01*
X-12856786Y9588929D01*
X-12768214Y9620357D02*
X-12796786Y9620357D01*
X-12799643Y9591786D01*
X-12796786Y9594643D01*
X-12791071Y9597500D01*
X-12776786Y9597500D01*
X-12771071Y9594643D01*
X-12768214Y9591786D01*
X-12765357Y9586072D01*
X-12765357Y9571786D01*
X-12768214Y9566072D01*
X-12771071Y9563214D01*
X-12776786Y9560357D01*
X-12791071Y9560357D01*
X-12796786Y9563214D01*
X-12799643Y9566072D01*
X-12775714Y9692857D02*
X-12810000Y9692857D01*
X-12792857Y9692857D02*
X-12792857Y9752857D01*
X-12798571Y9744286D01*
X-12804286Y9738572D01*
X-12810000Y9735714D01*
X-12741429Y9727143D02*
X-12747143Y9730000D01*
X-12750000Y9732857D01*
X-12752857Y9738572D01*
X-12752857Y9741429D01*
X-12750000Y9747143D01*
X-12747143Y9750000D01*
X-12741429Y9752857D01*
X-12730000Y9752857D01*
X-12724286Y9750000D01*
X-12721429Y9747143D01*
X-12718571Y9741429D01*
X-12718571Y9738572D01*
X-12721429Y9732857D01*
X-12724286Y9730000D01*
X-12730000Y9727143D01*
X-12741429Y9727143D01*
X-12747143Y9724286D01*
X-12750000Y9721429D01*
X-12752857Y9715714D01*
X-12752857Y9704286D01*
X-12750000Y9698572D01*
X-12747143Y9695714D01*
X-12741429Y9692857D01*
X-12730000Y9692857D01*
X-12724286Y9695714D01*
X-12721429Y9698572D01*
X-12718571Y9704286D01*
X-12718571Y9715714D01*
X-12721429Y9721429D01*
X-12724286Y9724286D01*
X-12730000Y9727143D01*
X-12692857Y9692857D02*
X-12692857Y9752857D01*
X-12687143Y9715714D02*
X-12670000Y9692857D01*
X-12670000Y9732857D02*
X-12692857Y9710000D01*
X-13150000Y9552857D02*
X-13170000Y9581429D01*
X-13184286Y9552857D02*
X-13184286Y9612857D01*
X-13161429Y9612857D01*
X-13155714Y9610000D01*
X-13152857Y9607143D01*
X-13150000Y9601429D01*
X-13150000Y9592857D01*
X-13152857Y9587143D01*
X-13155714Y9584286D01*
X-13161429Y9581429D01*
X-13184286Y9581429D01*
X-13130000Y9612857D02*
X-13090000Y9612857D01*
X-13115714Y9552857D01*
X-13324286Y9412857D02*
X-13358571Y9412857D01*
X-13341429Y9412857D02*
X-13341429Y9472857D01*
X-13347143Y9464286D01*
X-13352857Y9458572D01*
X-13358571Y9455714D01*
X-13304286Y9472857D02*
X-13267143Y9472857D01*
X-13287143Y9450000D01*
X-13278571Y9450000D01*
X-13272857Y9447143D01*
X-13270000Y9444286D01*
X-13267143Y9438572D01*
X-13267143Y9424286D01*
X-13270000Y9418572D01*
X-13272857Y9415714D01*
X-13278571Y9412857D01*
X-13295714Y9412857D01*
X-13301429Y9415714D01*
X-13304286Y9418572D01*
X-13230000Y9472857D02*
X-13224286Y9472857D01*
X-13218571Y9470000D01*
X-13215714Y9467143D01*
X-13212857Y9461429D01*
X-13210000Y9450000D01*
X-13210000Y9435714D01*
X-13212857Y9424286D01*
X-13215714Y9418572D01*
X-13218571Y9415714D01*
X-13224286Y9412857D01*
X-13230000Y9412857D01*
X-13235714Y9415714D01*
X-13238571Y9418572D01*
X-13241429Y9424286D01*
X-13244286Y9435714D01*
X-13244286Y9450000D01*
X-13241429Y9461429D01*
X-13238571Y9467143D01*
X-13235714Y9470000D01*
X-13230000Y9472857D01*
X-13184286Y9412857D02*
X-13184286Y9472857D01*
X-13178571Y9435714D02*
X-13161429Y9412857D01*
X-13161429Y9452857D02*
X-13184286Y9430000D01*
X-13529643Y9735357D02*
X-13549643Y9763929D01*
X-13563929Y9735357D02*
X-13563929Y9795357D01*
X-13541071Y9795357D01*
X-13535357Y9792500D01*
X-13532500Y9789643D01*
X-13529643Y9783929D01*
X-13529643Y9775357D01*
X-13532500Y9769643D01*
X-13535357Y9766786D01*
X-13541071Y9763929D01*
X-13563929Y9763929D01*
X-13472500Y9735357D02*
X-13506786Y9735357D01*
X-13489643Y9735357D02*
X-13489643Y9795357D01*
X-13495357Y9786786D01*
X-13501071Y9781072D01*
X-13506786Y9778214D01*
X-13449643Y9789643D02*
X-13446786Y9792500D01*
X-13441071Y9795357D01*
X-13426786Y9795357D01*
X-13421071Y9792500D01*
X-13418214Y9789643D01*
X-13415357Y9783929D01*
X-13415357Y9778214D01*
X-13418214Y9769643D01*
X-13452500Y9735357D01*
X-13415357Y9735357D01*
X-13363929Y9795357D02*
X-13375357Y9795357D01*
X-13381071Y9792500D01*
X-13383929Y9789643D01*
X-13389643Y9781072D01*
X-13392500Y9769643D01*
X-13392500Y9746786D01*
X-13389643Y9741072D01*
X-13386786Y9738214D01*
X-13381071Y9735357D01*
X-13369643Y9735357D01*
X-13363929Y9738214D01*
X-13361071Y9741072D01*
X-13358214Y9746786D01*
X-13358214Y9761072D01*
X-13361071Y9766786D01*
X-13363929Y9769643D01*
X-13369643Y9772500D01*
X-13381071Y9772500D01*
X-13386786Y9769643D01*
X-13389643Y9766786D01*
X-13392500Y9761072D01*
X-13717143Y9732857D02*
X-13751429Y9732857D01*
X-13734286Y9732857D02*
X-13734286Y9792857D01*
X-13740000Y9784286D01*
X-13745714Y9778572D01*
X-13751429Y9775714D01*
X-13691429Y9732857D02*
X-13691429Y9792857D01*
X-13671429Y9750000D01*
X-13651429Y9792857D01*
X-13651429Y9732857D01*
X-13204643Y9735357D02*
X-13224643Y9763929D01*
X-13238929Y9735357D02*
X-13238929Y9795357D01*
X-13216071Y9795357D01*
X-13210357Y9792500D01*
X-13207500Y9789643D01*
X-13204643Y9783929D01*
X-13204643Y9775357D01*
X-13207500Y9769643D01*
X-13210357Y9766786D01*
X-13216071Y9763929D01*
X-13238929Y9763929D01*
X-13147500Y9735357D02*
X-13181786Y9735357D01*
X-13164643Y9735357D02*
X-13164643Y9795357D01*
X-13170357Y9786786D01*
X-13176071Y9781072D01*
X-13181786Y9778214D01*
X-13124643Y9789643D02*
X-13121786Y9792500D01*
X-13116071Y9795357D01*
X-13101786Y9795357D01*
X-13096071Y9792500D01*
X-13093214Y9789643D01*
X-13090357Y9783929D01*
X-13090357Y9778214D01*
X-13093214Y9769643D01*
X-13127500Y9735357D01*
X-13090357Y9735357D01*
X-13070357Y9795357D02*
X-13030357Y9795357D01*
X-13056071Y9735357D01*
X-13195714Y9932857D02*
X-13155714Y9932857D01*
X-13181429Y9872857D01*
X-13104286Y9932857D02*
X-13132857Y9932857D01*
X-13135714Y9904286D01*
X-13132857Y9907143D01*
X-13127143Y9910000D01*
X-13112857Y9910000D01*
X-13107143Y9907143D01*
X-13104286Y9904286D01*
X-13101429Y9898572D01*
X-13101429Y9884286D01*
X-13104286Y9878572D01*
X-13107143Y9875714D01*
X-13112857Y9872857D01*
X-13127143Y9872857D01*
X-13132857Y9875714D01*
X-13135714Y9878572D01*
X-13064286Y9932857D02*
X-13058571Y9932857D01*
X-13052857Y9930000D01*
X-13050000Y9927143D01*
X-13047143Y9921429D01*
X-13044286Y9910000D01*
X-13044286Y9895714D01*
X-13047143Y9884286D01*
X-13050000Y9878572D01*
X-13052857Y9875714D01*
X-13058571Y9872857D01*
X-13064286Y9872857D01*
X-13070000Y9875714D01*
X-13072857Y9878572D01*
X-13075714Y9884286D01*
X-13078571Y9895714D01*
X-13078571Y9910000D01*
X-13075714Y9921429D01*
X-13072857Y9927143D01*
X-13070000Y9930000D01*
X-13064286Y9932857D01*
X-13018571Y9872857D02*
X-13018571Y9912857D01*
X-13018571Y9901429D02*
X-13015714Y9907143D01*
X-13012857Y9910000D01*
X-13007143Y9912857D01*
X-13001429Y9912857D01*
X-13652857Y8281429D02*
X-13592857Y8301429D01*
X-13652857Y8321429D01*
X-13592857Y8341429D02*
X-13652857Y8341429D01*
X-13652857Y8355714D01*
X-13650000Y8364286D01*
X-13644286Y8370000D01*
X-13638571Y8372857D01*
X-13627143Y8375714D01*
X-13618571Y8375714D01*
X-13607143Y8372857D01*
X-13601429Y8370000D01*
X-13595714Y8364286D01*
X-13592857Y8355714D01*
X-13592857Y8341429D01*
X-13592857Y8432857D02*
X-13592857Y8398572D01*
X-13592857Y8415714D02*
X-13652857Y8415714D01*
X-13644286Y8410000D01*
X-13638571Y8404286D01*
X-13635714Y8398572D01*
X-13551786Y8220736D02*
X-13543214Y8217879D01*
X-13540357Y8215021D01*
X-13537500Y8209307D01*
X-13537500Y8200736D01*
X-13540357Y8195021D01*
X-13543214Y8192164D01*
X-13548929Y8189307D01*
X-13571786Y8189307D01*
X-13571786Y8249307D01*
X-13551786Y8249307D01*
X-13546071Y8246450D01*
X-13543214Y8243593D01*
X-13540357Y8237879D01*
X-13540357Y8232164D01*
X-13543214Y8226450D01*
X-13546071Y8223593D01*
X-13551786Y8220736D01*
X-13571786Y8220736D01*
X-13514643Y8206450D02*
X-13486071Y8206450D01*
X-13520357Y8189307D02*
X-13500357Y8249307D01*
X-13480357Y8189307D01*
X-13468929Y8249307D02*
X-13434643Y8249307D01*
X-13451786Y8189307D02*
X-13451786Y8249307D01*
X-13386071Y8249307D02*
X-13414643Y8249307D01*
X-13417500Y8220736D01*
X-13414643Y8223593D01*
X-13408929Y8226450D01*
X-13394643Y8226450D01*
X-13388929Y8223593D01*
X-13386071Y8220736D01*
X-13383214Y8215021D01*
X-13383214Y8200736D01*
X-13386071Y8195021D01*
X-13388929Y8192164D01*
X-13394643Y8189307D01*
X-13408929Y8189307D01*
X-13414643Y8192164D01*
X-13417500Y8195021D01*
X-13331786Y8229307D02*
X-13331786Y8189307D01*
X-13346071Y8252164D02*
X-13360357Y8209307D01*
X-13323214Y8209307D01*
X-13306071Y8249307D02*
X-13291786Y8189307D01*
X-13280357Y8232164D01*
X-13268929Y8189307D01*
X-13254643Y8249307D01*
X-13234643Y8192164D02*
X-13226071Y8189307D01*
X-13211786Y8189307D01*
X-13206071Y8192164D01*
X-13203214Y8195021D01*
X-13200357Y8200736D01*
X-13200357Y8206450D01*
X-13203214Y8212164D01*
X-13206071Y8215021D01*
X-13211786Y8217879D01*
X-13223214Y8220736D01*
X-13228929Y8223593D01*
X-13231786Y8226450D01*
X-13234643Y8232164D01*
X-13234643Y8237879D01*
X-13231786Y8243593D01*
X-13228929Y8246450D01*
X-13223214Y8249307D01*
X-13208929Y8249307D01*
X-13200357Y8246450D01*
D11*
X-14239286Y8317857D02*
X-14239286Y8432143D01*
X-14239286Y9067857D02*
X-14239286Y9182143D01*
X-14182143Y9125000D02*
X-14296429Y9125000D01*
X-10739286Y8267857D02*
X-10739286Y8382143D01*
X-10682143Y8325000D02*
X-10796429Y8325000D01*
X-10739286Y9017857D02*
X-10739286Y9132143D01*
D10*
X-11178572Y8415000D02*
X-11175714Y8412143D01*
X-11172857Y8403572D01*
X-11172857Y8397857D01*
X-11175714Y8389286D01*
X-11181429Y8383571D01*
X-11187143Y8380714D01*
X-11198571Y8377857D01*
X-11207143Y8377857D01*
X-11218571Y8380714D01*
X-11224286Y8383571D01*
X-11230000Y8389286D01*
X-11232857Y8397857D01*
X-11232857Y8403572D01*
X-11230000Y8412143D01*
X-11227143Y8415000D01*
X-11172857Y8472143D02*
X-11172857Y8437857D01*
X-11172857Y8455000D02*
X-11232857Y8455000D01*
X-11224286Y8449286D01*
X-11218571Y8443572D01*
X-11215714Y8437857D01*
X-11092857Y8321429D02*
X-11092857Y8327143D01*
X-11090000Y8332857D01*
X-11087143Y8335714D01*
X-11081429Y8338571D01*
X-11070000Y8341429D01*
X-11055714Y8341429D01*
X-11044286Y8338571D01*
X-11038572Y8335714D01*
X-11035714Y8332857D01*
X-11032857Y8327143D01*
X-11032857Y8321429D01*
X-11035714Y8315714D01*
X-11038572Y8312857D01*
X-11044286Y8310000D01*
X-11055714Y8307143D01*
X-11070000Y8307143D01*
X-11081429Y8310000D01*
X-11087143Y8312857D01*
X-11090000Y8315714D01*
X-11092857Y8321429D01*
X-11038572Y8367143D02*
X-11035714Y8370000D01*
X-11032857Y8367143D01*
X-11035714Y8364286D01*
X-11038572Y8367143D01*
X-11032857Y8367143D01*
X-11032857Y8427143D02*
X-11032857Y8392857D01*
X-11032857Y8410000D02*
X-11092857Y8410000D01*
X-11084286Y8404286D01*
X-11078572Y8398572D01*
X-11075714Y8392857D01*
X-11072857Y8478572D02*
X-11032857Y8478572D01*
X-11072857Y8452857D02*
X-11041429Y8452857D01*
X-11035714Y8455714D01*
X-11032857Y8461429D01*
X-11032857Y8470000D01*
X-11035714Y8475714D01*
X-11038572Y8478572D01*
X-11064286Y8527143D02*
X-11064286Y8507143D01*
X-11032857Y8507143D02*
X-11092857Y8507143D01*
X-11092857Y8535714D01*
X-13132857Y8750000D02*
X-13192857Y8750000D01*
X-13192857Y8764286D01*
X-13190000Y8772857D01*
X-13184286Y8778572D01*
X-13178571Y8781429D01*
X-13167143Y8784286D01*
X-13158571Y8784286D01*
X-13147143Y8781429D01*
X-13141429Y8778572D01*
X-13135714Y8772857D01*
X-13132857Y8764286D01*
X-13132857Y8750000D01*
X-13150000Y8807143D02*
X-13150000Y8835714D01*
X-13132857Y8801429D02*
X-13192857Y8821429D01*
X-13132857Y8841429D01*
X-13132857Y8892857D02*
X-13132857Y8858572D01*
X-13132857Y8875714D02*
X-13192857Y8875714D01*
X-13184286Y8870000D01*
X-13178571Y8864286D01*
X-13175714Y8858572D01*
X-13104286Y8632857D02*
X-13104286Y8692857D01*
X-13084286Y8650000D01*
X-13064286Y8692857D01*
X-13064286Y8632857D01*
X-13035714Y8632857D02*
X-13035714Y8692857D01*
X-13012857Y8692857D01*
X-13007143Y8690000D01*
X-13004286Y8687143D01*
X-13001429Y8681429D01*
X-13001429Y8672857D01*
X-13004286Y8667143D01*
X-13007143Y8664286D01*
X-13012857Y8661429D01*
X-13035714Y8661429D01*
X-12967143Y8667143D02*
X-12972857Y8670000D01*
X-12975714Y8672857D01*
X-12978571Y8678572D01*
X-12978571Y8681429D01*
X-12975714Y8687143D01*
X-12972857Y8690000D01*
X-12967143Y8692857D01*
X-12955714Y8692857D01*
X-12950000Y8690000D01*
X-12947143Y8687143D01*
X-12944286Y8681429D01*
X-12944286Y8678572D01*
X-12947143Y8672857D01*
X-12950000Y8670000D01*
X-12955714Y8667143D01*
X-12967143Y8667143D01*
X-12972857Y8664286D01*
X-12975714Y8661429D01*
X-12978571Y8655714D01*
X-12978571Y8644286D01*
X-12975714Y8638572D01*
X-12972857Y8635714D01*
X-12967143Y8632857D01*
X-12955714Y8632857D01*
X-12950000Y8635714D01*
X-12947143Y8638572D01*
X-12944286Y8644286D01*
X-12944286Y8655714D01*
X-12947143Y8661429D01*
X-12950000Y8664286D01*
X-12955714Y8667143D01*
X-12924286Y8692857D02*
X-12884286Y8692857D01*
X-12910000Y8632857D01*
X-12835714Y8692857D02*
X-12847143Y8692857D01*
X-12852857Y8690000D01*
X-12855714Y8687143D01*
X-12861429Y8678572D01*
X-12864286Y8667143D01*
X-12864286Y8644286D01*
X-12861429Y8638572D01*
X-12858571Y8635714D01*
X-12852857Y8632857D01*
X-12841429Y8632857D01*
X-12835714Y8635714D01*
X-12832857Y8638572D01*
X-12830000Y8644286D01*
X-12830000Y8658572D01*
X-12832857Y8664286D01*
X-12835714Y8667143D01*
X-12841429Y8670000D01*
X-12852857Y8670000D01*
X-12858571Y8667143D01*
X-12861429Y8664286D01*
X-12864286Y8658572D01*
X-12775714Y8692857D02*
X-12804286Y8692857D01*
X-12807143Y8664286D01*
X-12804286Y8667143D01*
X-12798571Y8670000D01*
X-12784286Y8670000D01*
X-12778571Y8667143D01*
X-12775714Y8664286D01*
X-12772857Y8658572D01*
X-12772857Y8644286D01*
X-12775714Y8638572D01*
X-12778571Y8635714D01*
X-12784286Y8632857D01*
X-12798571Y8632857D01*
X-12804286Y8635714D01*
X-12807143Y8638572D01*
M02*
