M48
;DRILL file {kicad (2014-07-12 BZR 4289 GOST-COMMITTERS)-product} date 15.03.2017 23:16:15
;FORMAT={2:4/ absolute / inch / keep zeros}
FMAT,2
INCH,TZ
T1C0.016
T2C0.035
T3C0.126
%
G90
G05
M72
T1
X041929Y-033268
X041929Y-034449
X041929Y-036811
X041929Y-037992
X041929Y-039764
X041929Y-040945
X041929Y-043307
X041929Y-044488
X043171Y-034722
X043171Y-041218
X043823Y-036462
X043823Y-042958
X043836Y-037030
X043836Y-043526
X043983Y-034738
X043983Y-041234
X044556Y-035448
X044556Y-041944
T2
X040100Y-036204
X040100Y-042700
X047300Y-034104
X047300Y-035104
X047300Y-036104
X047300Y-037104
X047300Y-040600
X047300Y-041600
X047300Y-042600
X047300Y-043600
T3
X045200Y-034004
X045200Y-037304
X045200Y-040500
X045200Y-043800
T0
M30
