%FSLAX45Y45*%
G04 Gerber Fmt 4.5, Leading zero omitted, Abs format (unit mm)*
G04 Created by KiCad (PCBNEW (2014-07-12 BZR 4289 GOST-COMMITTERS)-product) date 15.03.2017 23:16:08*
%MOMM*%
G01*
G04 APERTURE LIST*
%ADD10C,0.150000*%
%ADD11C,0.100000*%
%ADD12C,1.500000*%
%ADD13R,1.000000X0.900000*%
%ADD14R,1.100000X1.400000*%
%ADD15R,1.016000X0.889000*%
%ADD16R,1.000000X1.100000*%
%ADD17R,0.700000X1.100000*%
%ADD18R,0.900000X1.100000*%
%ADD19R,1.500000X1.500000*%
%ADD20R,0.635000X1.099820*%
%ADD21O,0.635000X1.099820*%
%ADD22R,1.400000X1.100000*%
%ADD23C,5.000000*%
%ADD24C,0.900000*%
%ADD25C,0.500000*%
%ADD26C,0.200000*%
G04 APERTURE END LIST*
D10*
D11*
X11006600Y-9576000D02*
X11006600Y-9476000D01*
X10981600Y-9551000D02*
X11006600Y-9576000D01*
X11006600Y-9526000D02*
X10981600Y-9551000D01*
X10981600Y-9501000D02*
X11006600Y-9526000D01*
X11006600Y-9476000D02*
X10981600Y-9501000D01*
X11001600Y-9491000D02*
X11001600Y-9501000D01*
X10991600Y-9501000D02*
X11001600Y-9491000D01*
X11001600Y-9511000D02*
X10991600Y-9501000D01*
X11001600Y-9541000D02*
X11001600Y-9556000D01*
X10991600Y-9551000D02*
X11001600Y-9541000D01*
X11001600Y-9566000D02*
X10991600Y-9551000D01*
X10936600Y-9501000D02*
X10961600Y-9476000D01*
X10961600Y-9526000D02*
X10936600Y-9501000D01*
X10936600Y-9551000D02*
X10961600Y-9576000D01*
X10961600Y-9526000D02*
X10936600Y-9551000D01*
X10931600Y-9576000D02*
X10961600Y-9576000D01*
X10931600Y-9476000D02*
X10931600Y-9576000D01*
X10961600Y-9476000D02*
X10931600Y-9476000D01*
X10946600Y-9481000D02*
X10936600Y-9491000D01*
X10936600Y-9481000D02*
X10946600Y-9481000D01*
X10936600Y-9561000D02*
X10941600Y-9566000D01*
X10936600Y-9571000D02*
X10936600Y-9561000D01*
X10951600Y-9571000D02*
X10936600Y-9571000D01*
X10941600Y-9536000D02*
X10941600Y-9526000D01*
X10951600Y-9526000D02*
X10941600Y-9536000D01*
X10936600Y-9511000D02*
X10951600Y-9526000D01*
X10936600Y-9546000D02*
X10936600Y-9511000D01*
X10791600Y-9546000D02*
X10791600Y-9511000D01*
X10791600Y-9511000D02*
X10806600Y-9526000D01*
X10806600Y-9526000D02*
X10796600Y-9536000D01*
X10796600Y-9536000D02*
X10796600Y-9526000D01*
X10806600Y-9571000D02*
X10791600Y-9571000D01*
X10791600Y-9571000D02*
X10791600Y-9561000D01*
X10791600Y-9561000D02*
X10796600Y-9566000D01*
X10856600Y-9566000D02*
X10846600Y-9551000D01*
X10846600Y-9551000D02*
X10856600Y-9541000D01*
X10856600Y-9541000D02*
X10856600Y-9556000D01*
X10856600Y-9511000D02*
X10846600Y-9501000D01*
X10846600Y-9501000D02*
X10856600Y-9491000D01*
X10856600Y-9491000D02*
X10856600Y-9501000D01*
X10791600Y-9481000D02*
X10801600Y-9481000D01*
X10801600Y-9481000D02*
X10791600Y-9491000D01*
X10816600Y-9476000D02*
X10786600Y-9476000D01*
X10786600Y-9476000D02*
X10786600Y-9576000D01*
X10786600Y-9576000D02*
X10816600Y-9576000D01*
X10861600Y-9476000D02*
X10836600Y-9501000D01*
X10836600Y-9501000D02*
X10861600Y-9526000D01*
X10861600Y-9526000D02*
X10836600Y-9551000D01*
X10836600Y-9551000D02*
X10861600Y-9576000D01*
X10861600Y-9576000D02*
X10861600Y-9476000D01*
X10816600Y-9526000D02*
X10791600Y-9551000D01*
X10791600Y-9551000D02*
X10816600Y-9576000D01*
X10816600Y-9526000D02*
X10791600Y-9501000D01*
X10791600Y-9501000D02*
X10816600Y-9476000D01*
X11006600Y-11226000D02*
X11006600Y-11126000D01*
X10981600Y-11201000D02*
X11006600Y-11226000D01*
X11006600Y-11176000D02*
X10981600Y-11201000D01*
X10981600Y-11151000D02*
X11006600Y-11176000D01*
X11006600Y-11126000D02*
X10981600Y-11151000D01*
X11001600Y-11141000D02*
X11001600Y-11151000D01*
X10991600Y-11151000D02*
X11001600Y-11141000D01*
X11001600Y-11161000D02*
X10991600Y-11151000D01*
X11001600Y-11191000D02*
X11001600Y-11206000D01*
X10991600Y-11201000D02*
X11001600Y-11191000D01*
X11001600Y-11216000D02*
X10991600Y-11201000D01*
X10936600Y-11151000D02*
X10961600Y-11126000D01*
X10961600Y-11176000D02*
X10936600Y-11151000D01*
X10936600Y-11201000D02*
X10961600Y-11226000D01*
X10961600Y-11176000D02*
X10936600Y-11201000D01*
X10931600Y-11226000D02*
X10961600Y-11226000D01*
X10931600Y-11126000D02*
X10931600Y-11226000D01*
X10961600Y-11126000D02*
X10931600Y-11126000D01*
X10946600Y-11131000D02*
X10936600Y-11141000D01*
X10936600Y-11131000D02*
X10946600Y-11131000D01*
X10936600Y-11211000D02*
X10941600Y-11216000D01*
X10936600Y-11221000D02*
X10936600Y-11211000D01*
X10951600Y-11221000D02*
X10936600Y-11221000D01*
X10941600Y-11186000D02*
X10941600Y-11176000D01*
X10951600Y-11176000D02*
X10941600Y-11186000D01*
X10936600Y-11161000D02*
X10951600Y-11176000D01*
X10936600Y-11196000D02*
X10936600Y-11161000D01*
X10791600Y-11196000D02*
X10791600Y-11161000D01*
X10791600Y-11161000D02*
X10806600Y-11176000D01*
X10806600Y-11176000D02*
X10796600Y-11186000D01*
X10796600Y-11186000D02*
X10796600Y-11176000D01*
X10806600Y-11221000D02*
X10791600Y-11221000D01*
X10791600Y-11221000D02*
X10791600Y-11211000D01*
X10791600Y-11211000D02*
X10796600Y-11216000D01*
X10856600Y-11216000D02*
X10846600Y-11201000D01*
X10846600Y-11201000D02*
X10856600Y-11191000D01*
X10856600Y-11191000D02*
X10856600Y-11206000D01*
X10856600Y-11161000D02*
X10846600Y-11151000D01*
X10846600Y-11151000D02*
X10856600Y-11141000D01*
X10856600Y-11141000D02*
X10856600Y-11151000D01*
X10791600Y-11131000D02*
X10801600Y-11131000D01*
X10801600Y-11131000D02*
X10791600Y-11141000D01*
X10816600Y-11126000D02*
X10786600Y-11126000D01*
X10786600Y-11126000D02*
X10786600Y-11226000D01*
X10786600Y-11226000D02*
X10816600Y-11226000D01*
X10861600Y-11126000D02*
X10836600Y-11151000D01*
X10836600Y-11151000D02*
X10861600Y-11176000D01*
X10861600Y-11176000D02*
X10836600Y-11201000D01*
X10836600Y-11201000D02*
X10861600Y-11226000D01*
X10861600Y-11226000D02*
X10861600Y-11126000D01*
X10816600Y-11176000D02*
X10791600Y-11201000D01*
X10791600Y-11201000D02*
X10816600Y-11226000D01*
X10816600Y-11176000D02*
X10791600Y-11151000D01*
X10791600Y-11151000D02*
X10816600Y-11126000D01*
D12*
X12014200Y-8662400D03*
D13*
X11023600Y-8635800D03*
X11023600Y-8485800D03*
D14*
X10286800Y-8967200D03*
X10496800Y-8967200D03*
D15*
X10845800Y-8484600D03*
X10845800Y-8637000D03*
D16*
X10741600Y-9526000D03*
D17*
X10896600Y-9526000D03*
D18*
X11051600Y-9526000D03*
D19*
X10185400Y-9195800D03*
D20*
X11042396Y-8938752D03*
D21*
X10947400Y-8938752D03*
X10852404Y-8938752D03*
X10852404Y-9198848D03*
X10947400Y-9198848D03*
X11042396Y-9198848D03*
D15*
X11201400Y-9145000D03*
X11201400Y-8992600D03*
D22*
X10685600Y-8950600D03*
X10685600Y-9160600D03*
D23*
X11480800Y-8637000D03*
X11480800Y-9475200D03*
D12*
X12014200Y-8916400D03*
D19*
X12014200Y-9424400D03*
D12*
X12014200Y-9170400D03*
X12014200Y-10566400D03*
D19*
X12014200Y-11074400D03*
D12*
X12014200Y-10820400D03*
D23*
X11480800Y-11125200D03*
X11480800Y-10287000D03*
D22*
X10685600Y-10600600D03*
X10685600Y-10810600D03*
D15*
X11201400Y-10795000D03*
X11201400Y-10642600D03*
D20*
X11042396Y-10588752D03*
D21*
X10947400Y-10588752D03*
X10852404Y-10588752D03*
X10852404Y-10848848D03*
X10947400Y-10848848D03*
X11042396Y-10848848D03*
D19*
X10185400Y-10845800D03*
D16*
X10741600Y-11176000D03*
D17*
X10896600Y-11176000D03*
D18*
X11051600Y-11176000D03*
D15*
X10845800Y-10134600D03*
X10845800Y-10287000D03*
D14*
X10286800Y-10617200D03*
X10496800Y-10617200D03*
D13*
X11023600Y-10285800D03*
X11023600Y-10135800D03*
D12*
X12014200Y-10312400D03*
D24*
X11134400Y-9405700D03*
X11317200Y-9003800D03*
X10965400Y-8819400D03*
X10650000Y-9350000D03*
X10650000Y-8750000D03*
X10650000Y-8450000D03*
X10650000Y-9650000D03*
X11171670Y-8823350D03*
X11171670Y-10473350D03*
X10650000Y-11300000D03*
X10650000Y-10100000D03*
X10650000Y-10400000D03*
X10650000Y-11000000D03*
X10965400Y-10469400D03*
X11317200Y-10653800D03*
X11134400Y-11055700D03*
X11131000Y-9261300D03*
X11131000Y-10911300D03*
D25*
X10650000Y-8750000D02*
X10650000Y-8450000D01*
X10955640Y-8860970D02*
X10965400Y-8819400D01*
X10947400Y-8915510D02*
X10955640Y-8860970D01*
X10947400Y-8938750D02*
X10947400Y-8915510D01*
X12014200Y-9170400D02*
X11317200Y-9003800D01*
X11071600Y-9496000D02*
X11051600Y-9526000D01*
X11071600Y-9471000D02*
X11071600Y-9496000D01*
X11071600Y-9460640D02*
X11071600Y-9471000D01*
X11086240Y-9446000D02*
X11071600Y-9460640D01*
X11134400Y-9405700D02*
X11086240Y-9446000D01*
X11227200Y-9003800D02*
X11201400Y-8992600D01*
X11252200Y-9003800D02*
X11227200Y-9003800D01*
X11317200Y-9003800D02*
X11252200Y-9003800D01*
X10871600Y-8656450D02*
X10845800Y-8637000D01*
X10871600Y-8681450D02*
X10871600Y-8656450D01*
X10871600Y-8691810D02*
X10871600Y-8681450D01*
X10965400Y-8819400D02*
X10871600Y-8691810D01*
X10965400Y-10469400D02*
X10871600Y-10341810D01*
X10871600Y-10341810D02*
X10871600Y-10331450D01*
X10871600Y-10331450D02*
X10871600Y-10306450D01*
X10871600Y-10306450D02*
X10845800Y-10287000D01*
X11317200Y-10653800D02*
X11252200Y-10653800D01*
X11252200Y-10653800D02*
X11227200Y-10653800D01*
X11227200Y-10653800D02*
X11201400Y-10642600D01*
X11134400Y-11055700D02*
X11086240Y-11096000D01*
X11086240Y-11096000D02*
X11071600Y-11110640D01*
X11071600Y-11110640D02*
X11071600Y-11121000D01*
X11071600Y-11121000D02*
X11071600Y-11146000D01*
X11071600Y-11146000D02*
X11051600Y-11176000D01*
X12014200Y-10820400D02*
X11317200Y-10653800D01*
X10947400Y-10588750D02*
X10947400Y-10565510D01*
X10947400Y-10565510D02*
X10955640Y-10510970D01*
X10955640Y-10510970D02*
X10965400Y-10469400D01*
X10650000Y-10400000D02*
X10650000Y-10100000D01*
X10947400Y-9175610D02*
X10947400Y-9198850D01*
X10961730Y-9142200D02*
X10947400Y-9175610D01*
X11008990Y-9094940D02*
X10961730Y-9142200D01*
X11075810Y-9094940D02*
X11008990Y-9094940D01*
X11140240Y-9125550D02*
X11075810Y-9094940D01*
X11150600Y-9125550D02*
X11140240Y-9125550D01*
X11175600Y-9125550D02*
X11150600Y-9125550D01*
X11201400Y-9145000D02*
X11175600Y-9125550D01*
X10766600Y-9496000D02*
X10741600Y-9526000D01*
X10766600Y-9471000D02*
X10766600Y-9496000D01*
X10766600Y-9460640D02*
X10766600Y-9471000D01*
X10939160Y-9258030D02*
X10766600Y-9460640D01*
X10947400Y-9222090D02*
X10939160Y-9258030D01*
X10947400Y-9198850D02*
X10947400Y-9222090D01*
X11227200Y-9164450D02*
X11201400Y-9145000D01*
X11252200Y-9164450D02*
X11227200Y-9164450D01*
X11262560Y-9164450D02*
X11252200Y-9164450D01*
X11568600Y-9170190D02*
X11262560Y-9164450D01*
X11634390Y-9197440D02*
X11568600Y-9170190D01*
X11928840Y-9374400D02*
X11634390Y-9197440D01*
X11939200Y-9374400D02*
X11928840Y-9374400D01*
X11964200Y-9374400D02*
X11939200Y-9374400D01*
X12014200Y-9424400D02*
X11964200Y-9374400D01*
X12014200Y-11074400D02*
X11964200Y-11024400D01*
X11964200Y-11024400D02*
X11939200Y-11024400D01*
X11939200Y-11024400D02*
X11928840Y-11024400D01*
X11928840Y-11024400D02*
X11634390Y-10847440D01*
X11634390Y-10847440D02*
X11568600Y-10820190D01*
X11568600Y-10820190D02*
X11262560Y-10814450D01*
X11262560Y-10814450D02*
X11252200Y-10814450D01*
X11252200Y-10814450D02*
X11227200Y-10814450D01*
X11227200Y-10814450D02*
X11201400Y-10795000D01*
X10947400Y-10848850D02*
X10947400Y-10872090D01*
X10947400Y-10872090D02*
X10939160Y-10908030D01*
X10939160Y-10908030D02*
X10766600Y-11110640D01*
X10766600Y-11110640D02*
X10766600Y-11121000D01*
X10766600Y-11121000D02*
X10766600Y-11146000D01*
X10766600Y-11146000D02*
X10741600Y-11176000D01*
X11201400Y-10795000D02*
X11175600Y-10775550D01*
X11175600Y-10775550D02*
X11150600Y-10775550D01*
X11150600Y-10775550D02*
X11140240Y-10775550D01*
X11140240Y-10775550D02*
X11075810Y-10744940D01*
X11075810Y-10744940D02*
X11008990Y-10744940D01*
X11008990Y-10744940D02*
X10961730Y-10792200D01*
X10961730Y-10792200D02*
X10947400Y-10825610D01*
X10947400Y-10825610D02*
X10947400Y-10848850D01*
D26*
X10886600Y-8485200D02*
X10845800Y-8484600D01*
X10896600Y-8485200D02*
X10886600Y-8485200D01*
X10973600Y-8485200D02*
X10896600Y-8485200D01*
X10983600Y-8485200D02*
X10973600Y-8485200D01*
X11023600Y-8485800D02*
X10983600Y-8485200D01*
X11023600Y-10135800D02*
X10983600Y-10135200D01*
X10983600Y-10135200D02*
X10973600Y-10135200D01*
X10973600Y-10135200D02*
X10896600Y-10135200D01*
X10896600Y-10135200D02*
X10886600Y-10135200D01*
X10886600Y-10135200D02*
X10845800Y-10134600D01*
X10852400Y-8944670D02*
X10852400Y-8938750D01*
X10755600Y-8944670D02*
X10852400Y-8944670D01*
X10745600Y-8944670D02*
X10755600Y-8944670D01*
X10685600Y-8950600D02*
X10745600Y-8944670D01*
X10541800Y-8958900D02*
X10496800Y-8967200D01*
X10551800Y-8958900D02*
X10541800Y-8958900D01*
X10615600Y-8958900D02*
X10551800Y-8958900D01*
X10625600Y-8958900D02*
X10615600Y-8958900D01*
X10685600Y-8950600D02*
X10625600Y-8958900D01*
X10685600Y-10600600D02*
X10625600Y-10608900D01*
X10625600Y-10608900D02*
X10615600Y-10608900D01*
X10615600Y-10608900D02*
X10551800Y-10608900D01*
X10551800Y-10608900D02*
X10541800Y-10608900D01*
X10541800Y-10608900D02*
X10496800Y-10617200D01*
X10685600Y-10600600D02*
X10745600Y-10594670D01*
X10745600Y-10594670D02*
X10755600Y-10594670D01*
X10755600Y-10594670D02*
X10852400Y-10594670D01*
X10852400Y-10594670D02*
X10852400Y-10588750D01*
X10745600Y-9179720D02*
X10685600Y-9160600D01*
X10755600Y-9179720D02*
X10745600Y-9179720D01*
X10852400Y-9179720D02*
X10755600Y-9179720D01*
X10852400Y-9198850D02*
X10852400Y-9179720D01*
X10852400Y-10848850D02*
X10852400Y-10829720D01*
X10852400Y-10829720D02*
X10755600Y-10829720D01*
X10755600Y-10829720D02*
X10745600Y-10829720D01*
X10745600Y-10829720D02*
X10685600Y-10810600D01*
X11049100Y-8670800D02*
X11023600Y-8635800D01*
X11049100Y-8680800D02*
X11049100Y-8670800D01*
X11049100Y-8883760D02*
X11049100Y-8680800D01*
X11049100Y-8893760D02*
X11049100Y-8883760D01*
X11042400Y-8938750D02*
X11049100Y-8893760D01*
X11064150Y-8908250D02*
X11042400Y-8938750D01*
X11074150Y-8908250D02*
X11064150Y-8908250D01*
X11206840Y-8908250D02*
X11074150Y-8908250D01*
X11210630Y-8908140D02*
X11206840Y-8908250D01*
X11243770Y-8908140D02*
X11210630Y-8908140D01*
X11268770Y-8908140D02*
X11243770Y-8908140D01*
X11352410Y-8918790D02*
X11268770Y-8908140D01*
X11395990Y-8927010D02*
X11352410Y-8918790D01*
X11565610Y-8927010D02*
X11395990Y-8927010D01*
X12014200Y-8916400D02*
X11565610Y-8927010D01*
X12014200Y-10566400D02*
X11565610Y-10577010D01*
X11565610Y-10577010D02*
X11395990Y-10577010D01*
X11395990Y-10577010D02*
X11352410Y-10568790D01*
X11352410Y-10568790D02*
X11268770Y-10558140D01*
X11268770Y-10558140D02*
X11243770Y-10558140D01*
X11243770Y-10558140D02*
X11210630Y-10558140D01*
X11210630Y-10558140D02*
X11206840Y-10558250D01*
X11206840Y-10558250D02*
X11074150Y-10558250D01*
X11074150Y-10558250D02*
X11064150Y-10558250D01*
X11064150Y-10558250D02*
X11042400Y-10588750D01*
X11042400Y-10588750D02*
X11049100Y-10543760D01*
X11049100Y-10543760D02*
X11049100Y-10533760D01*
X11049100Y-10533760D02*
X11049100Y-10330800D01*
X11049100Y-10330800D02*
X11049100Y-10320800D01*
X11049100Y-10320800D02*
X11023600Y-10285800D01*
X10921600Y-9481000D02*
X10896600Y-9526000D01*
X10921600Y-9471000D02*
X10921600Y-9481000D01*
X10921600Y-9466860D02*
X10921600Y-9471000D01*
X10927460Y-9461000D02*
X10921600Y-9466860D01*
X11131000Y-9261300D02*
X10927460Y-9461000D01*
X11042400Y-9222090D02*
X11131000Y-9261300D01*
X11042400Y-9198850D02*
X11042400Y-9222090D01*
X11042400Y-10848850D02*
X11042400Y-10872090D01*
X11042400Y-10872090D02*
X11131000Y-10911300D01*
X11131000Y-10911300D02*
X10927460Y-11111000D01*
X10927460Y-11111000D02*
X10921600Y-11116860D01*
X10921600Y-11116860D02*
X10921600Y-11121000D01*
X10921600Y-11121000D02*
X10921600Y-11131000D01*
X10921600Y-11131000D02*
X10896600Y-11176000D01*
X10241800Y-9130800D02*
X10185400Y-9195800D01*
X10241800Y-9120800D02*
X10241800Y-9130800D01*
X10241800Y-9037200D02*
X10241800Y-9120800D01*
X10241800Y-9027200D02*
X10241800Y-9037200D01*
X10286800Y-8967200D02*
X10241800Y-9027200D01*
X10286800Y-10617200D02*
X10241800Y-10677200D01*
X10241800Y-10677200D02*
X10241800Y-10687200D01*
X10241800Y-10687200D02*
X10241800Y-10770800D01*
X10241800Y-10770800D02*
X10241800Y-10780800D01*
X10241800Y-10780800D02*
X10185400Y-10845800D01*
G36*
X10999100Y-10495248D02*
X10992344Y-10498046D01*
X10974787Y-10488485D01*
X10962400Y-10497905D01*
X10962400Y-10573752D01*
X10964400Y-10573752D01*
X10964400Y-10603752D01*
X10962400Y-10603752D01*
X10962400Y-10679599D01*
X10974787Y-10689019D01*
X10992344Y-10679458D01*
X10998531Y-10682020D01*
X10988242Y-10684067D01*
X10984116Y-10684888D01*
X10963028Y-10698978D01*
X10915768Y-10746238D01*
X10908943Y-10756453D01*
X10901993Y-10766578D01*
X10900266Y-10770605D01*
X10899902Y-10770848D01*
X10879862Y-10757458D01*
X10852404Y-10751996D01*
X10824947Y-10757458D01*
X10801669Y-10773011D01*
X10797186Y-10779720D01*
X10795600Y-10779720D01*
X10795600Y-10747644D01*
X10789510Y-10732942D01*
X10778258Y-10721690D01*
X10763557Y-10715600D01*
X10747644Y-10715600D01*
X10607644Y-10715600D01*
X10601800Y-10718020D01*
X10601800Y-10693180D01*
X10607644Y-10695600D01*
X10623557Y-10695600D01*
X10763557Y-10695600D01*
X10778258Y-10689510D01*
X10789510Y-10678258D01*
X10795600Y-10663557D01*
X10795600Y-10655506D01*
X10801669Y-10664589D01*
X10824947Y-10680142D01*
X10852404Y-10685604D01*
X10879862Y-10680142D01*
X10891225Y-10672550D01*
X10892240Y-10673894D01*
X10920013Y-10689019D01*
X10932400Y-10679599D01*
X10932400Y-10603752D01*
X10930400Y-10603752D01*
X10930400Y-10573752D01*
X10932400Y-10573752D01*
X10932400Y-10497905D01*
X10920013Y-10488485D01*
X10892240Y-10503610D01*
X10891225Y-10504954D01*
X10879862Y-10497362D01*
X10852404Y-10491900D01*
X10830800Y-10496197D01*
X10830800Y-10368950D01*
X10830800Y-10302000D01*
X10757500Y-10302000D01*
X10745000Y-10314500D01*
X10745000Y-10341396D01*
X10752612Y-10359773D01*
X10766677Y-10373838D01*
X10785054Y-10381450D01*
X10804946Y-10381450D01*
X10818300Y-10381450D01*
X10830800Y-10368950D01*
X10830800Y-10496197D01*
X10824947Y-10497362D01*
X10801669Y-10512915D01*
X10791599Y-10527985D01*
X10789510Y-10522942D01*
X10778258Y-10511690D01*
X10763557Y-10505600D01*
X10747644Y-10505600D01*
X10607644Y-10505600D01*
X10601800Y-10508020D01*
X10601800Y-10055100D01*
X10775093Y-10055100D01*
X10772342Y-10056240D01*
X10761090Y-10067492D01*
X10755000Y-10082194D01*
X10755000Y-10098107D01*
X10755000Y-10187007D01*
X10761090Y-10201708D01*
X10763110Y-10203729D01*
X10752612Y-10214227D01*
X10745000Y-10232604D01*
X10745000Y-10259500D01*
X10757500Y-10272000D01*
X10830800Y-10272000D01*
X10830800Y-10270000D01*
X10860800Y-10270000D01*
X10860800Y-10272000D01*
X10862800Y-10272000D01*
X10862800Y-10302000D01*
X10860800Y-10302000D01*
X10860800Y-10368950D01*
X10873300Y-10381450D01*
X10886654Y-10381450D01*
X10906546Y-10381450D01*
X10924923Y-10373838D01*
X10938988Y-10359773D01*
X10941043Y-10354812D01*
X10950942Y-10364710D01*
X10965644Y-10370800D01*
X10981557Y-10370800D01*
X10999100Y-10370800D01*
X10999100Y-10495248D01*
X10999100Y-10495248D01*
G37*
X10999100Y-10495248D02*
X10992344Y-10498046D01*
X10974787Y-10488485D01*
X10962400Y-10497905D01*
X10962400Y-10573752D01*
X10964400Y-10573752D01*
X10964400Y-10603752D01*
X10962400Y-10603752D01*
X10962400Y-10679599D01*
X10974787Y-10689019D01*
X10992344Y-10679458D01*
X10998531Y-10682020D01*
X10988242Y-10684067D01*
X10984116Y-10684888D01*
X10963028Y-10698978D01*
X10915768Y-10746238D01*
X10908943Y-10756453D01*
X10901993Y-10766578D01*
X10900266Y-10770605D01*
X10899902Y-10770848D01*
X10879862Y-10757458D01*
X10852404Y-10751996D01*
X10824947Y-10757458D01*
X10801669Y-10773011D01*
X10797186Y-10779720D01*
X10795600Y-10779720D01*
X10795600Y-10747644D01*
X10789510Y-10732942D01*
X10778258Y-10721690D01*
X10763557Y-10715600D01*
X10747644Y-10715600D01*
X10607644Y-10715600D01*
X10601800Y-10718020D01*
X10601800Y-10693180D01*
X10607644Y-10695600D01*
X10623557Y-10695600D01*
X10763557Y-10695600D01*
X10778258Y-10689510D01*
X10789510Y-10678258D01*
X10795600Y-10663557D01*
X10795600Y-10655506D01*
X10801669Y-10664589D01*
X10824947Y-10680142D01*
X10852404Y-10685604D01*
X10879862Y-10680142D01*
X10891225Y-10672550D01*
X10892240Y-10673894D01*
X10920013Y-10689019D01*
X10932400Y-10679599D01*
X10932400Y-10603752D01*
X10930400Y-10603752D01*
X10930400Y-10573752D01*
X10932400Y-10573752D01*
X10932400Y-10497905D01*
X10920013Y-10488485D01*
X10892240Y-10503610D01*
X10891225Y-10504954D01*
X10879862Y-10497362D01*
X10852404Y-10491900D01*
X10830800Y-10496197D01*
X10830800Y-10368950D01*
X10830800Y-10302000D01*
X10757500Y-10302000D01*
X10745000Y-10314500D01*
X10745000Y-10341396D01*
X10752612Y-10359773D01*
X10766677Y-10373838D01*
X10785054Y-10381450D01*
X10804946Y-10381450D01*
X10818300Y-10381450D01*
X10830800Y-10368950D01*
X10830800Y-10496197D01*
X10824947Y-10497362D01*
X10801669Y-10512915D01*
X10791599Y-10527985D01*
X10789510Y-10522942D01*
X10778258Y-10511690D01*
X10763557Y-10505600D01*
X10747644Y-10505600D01*
X10607644Y-10505600D01*
X10601800Y-10508020D01*
X10601800Y-10055100D01*
X10775093Y-10055100D01*
X10772342Y-10056240D01*
X10761090Y-10067492D01*
X10755000Y-10082194D01*
X10755000Y-10098107D01*
X10755000Y-10187007D01*
X10761090Y-10201708D01*
X10763110Y-10203729D01*
X10752612Y-10214227D01*
X10745000Y-10232604D01*
X10745000Y-10259500D01*
X10757500Y-10272000D01*
X10830800Y-10272000D01*
X10830800Y-10270000D01*
X10860800Y-10270000D01*
X10860800Y-10272000D01*
X10862800Y-10272000D01*
X10862800Y-10302000D01*
X10860800Y-10302000D01*
X10860800Y-10368950D01*
X10873300Y-10381450D01*
X10886654Y-10381450D01*
X10906546Y-10381450D01*
X10924923Y-10373838D01*
X10938988Y-10359773D01*
X10941043Y-10354812D01*
X10950942Y-10364710D01*
X10965644Y-10370800D01*
X10981557Y-10370800D01*
X10999100Y-10370800D01*
X10999100Y-10495248D01*
G36*
X11302625Y-10055100D02*
X11235093Y-10122514D01*
X11190850Y-10229062D01*
X11190750Y-10344432D01*
X11234807Y-10451057D01*
X11294680Y-10511036D01*
X11275086Y-10508541D01*
X11271901Y-10508763D01*
X11268770Y-10508140D01*
X11243770Y-10508140D01*
X11210630Y-10508140D01*
X11209907Y-10508284D01*
X11209179Y-10508161D01*
X11206113Y-10508250D01*
X11105204Y-10508250D01*
X11099100Y-10502146D01*
X11099100Y-10361869D01*
X11107510Y-10353458D01*
X11113600Y-10338757D01*
X11113600Y-10322844D01*
X11113600Y-10232844D01*
X11107510Y-10218142D01*
X11100169Y-10210800D01*
X11107510Y-10203458D01*
X11113600Y-10188757D01*
X11113600Y-10172844D01*
X11113600Y-10082844D01*
X11107510Y-10068142D01*
X11096258Y-10056890D01*
X11091938Y-10055100D01*
X11302625Y-10055100D01*
X11302625Y-10055100D01*
G37*
X11302625Y-10055100D02*
X11235093Y-10122514D01*
X11190850Y-10229062D01*
X11190750Y-10344432D01*
X11234807Y-10451057D01*
X11294680Y-10511036D01*
X11275086Y-10508541D01*
X11271901Y-10508763D01*
X11268770Y-10508140D01*
X11243770Y-10508140D01*
X11210630Y-10508140D01*
X11209907Y-10508284D01*
X11209179Y-10508161D01*
X11206113Y-10508250D01*
X11105204Y-10508250D01*
X11099100Y-10502146D01*
X11099100Y-10361869D01*
X11107510Y-10353458D01*
X11113600Y-10338757D01*
X11113600Y-10322844D01*
X11113600Y-10232844D01*
X11107510Y-10218142D01*
X11100169Y-10210800D01*
X11107510Y-10203458D01*
X11113600Y-10188757D01*
X11113600Y-10172844D01*
X11113600Y-10082844D01*
X11107510Y-10068142D01*
X11096258Y-10056890D01*
X11091938Y-10055100D01*
X11302625Y-10055100D01*
G36*
X11315493Y-10880454D02*
X11235093Y-10960714D01*
X11190850Y-11067262D01*
X11190750Y-11182632D01*
X11234807Y-11289257D01*
X11302531Y-11357100D01*
X11146600Y-11357100D01*
X11146600Y-11240946D01*
X11146600Y-11221054D01*
X11146600Y-11203500D01*
X11146600Y-11148500D01*
X11146600Y-11130946D01*
X11146600Y-11111054D01*
X11138988Y-11092677D01*
X11124923Y-11078612D01*
X11106546Y-11071000D01*
X11079100Y-11071000D01*
X11066600Y-11083500D01*
X11066600Y-11161000D01*
X11134100Y-11161000D01*
X11146600Y-11148500D01*
X11146600Y-11203500D01*
X11134100Y-11191000D01*
X11066600Y-11191000D01*
X11066600Y-11268500D01*
X11079100Y-11281000D01*
X11106546Y-11281000D01*
X11124923Y-11273388D01*
X11138988Y-11259323D01*
X11146600Y-11240946D01*
X11146600Y-11357100D01*
X10601800Y-11357100D01*
X10601800Y-10903180D01*
X10607644Y-10905600D01*
X10623557Y-10905600D01*
X10763557Y-10905600D01*
X10778258Y-10899510D01*
X10784497Y-10893271D01*
X10786116Y-10901408D01*
X10801669Y-10924685D01*
X10824947Y-10940238D01*
X10826146Y-10940477D01*
X10717115Y-11068495D01*
X10712177Y-11077342D01*
X10709732Y-11081000D01*
X10683644Y-11081000D01*
X10668942Y-11087090D01*
X10657690Y-11098342D01*
X10651600Y-11113044D01*
X10651600Y-11128957D01*
X10651600Y-11238956D01*
X10657690Y-11253658D01*
X10668942Y-11264910D01*
X10683644Y-11271000D01*
X10699557Y-11271000D01*
X10786600Y-11271000D01*
X10799557Y-11271000D01*
X10816600Y-11271000D01*
X10833821Y-11267575D01*
X10833821Y-11267575D01*
X10838488Y-11264456D01*
X10838942Y-11264910D01*
X10842757Y-11266491D01*
X10844379Y-11267575D01*
X10846293Y-11267955D01*
X10853644Y-11271000D01*
X10861600Y-11271000D01*
X10869557Y-11271000D01*
X10931600Y-11271000D01*
X10939557Y-11271000D01*
X10961600Y-11271000D01*
X10973519Y-11268629D01*
X10978277Y-11273388D01*
X10996654Y-11281000D01*
X11024100Y-11281000D01*
X11036600Y-11268500D01*
X11036600Y-11259036D01*
X11038420Y-11257820D01*
X11048175Y-11243221D01*
X11048175Y-11243221D01*
X11051600Y-11226000D01*
X11051600Y-11176000D01*
X11051600Y-11126000D01*
X11048175Y-11108779D01*
X11048175Y-11108779D01*
X11038420Y-11094180D01*
X11036600Y-11092964D01*
X11036600Y-11083500D01*
X11031788Y-11078688D01*
X11115773Y-10996287D01*
X11147833Y-10996315D01*
X11179086Y-10983402D01*
X11203017Y-10959512D01*
X11215985Y-10928282D01*
X11216015Y-10894467D01*
X11209810Y-10879450D01*
X11227200Y-10879450D01*
X11252200Y-10879450D01*
X11260156Y-10879450D01*
X11261949Y-10879450D01*
X11315493Y-10880454D01*
X11315493Y-10880454D01*
G37*
X11315493Y-10880454D02*
X11235093Y-10960714D01*
X11190850Y-11067262D01*
X11190750Y-11182632D01*
X11234807Y-11289257D01*
X11302531Y-11357100D01*
X11146600Y-11357100D01*
X11146600Y-11240946D01*
X11146600Y-11221054D01*
X11146600Y-11203500D01*
X11146600Y-11148500D01*
X11146600Y-11130946D01*
X11146600Y-11111054D01*
X11138988Y-11092677D01*
X11124923Y-11078612D01*
X11106546Y-11071000D01*
X11079100Y-11071000D01*
X11066600Y-11083500D01*
X11066600Y-11161000D01*
X11134100Y-11161000D01*
X11146600Y-11148500D01*
X11146600Y-11203500D01*
X11134100Y-11191000D01*
X11066600Y-11191000D01*
X11066600Y-11268500D01*
X11079100Y-11281000D01*
X11106546Y-11281000D01*
X11124923Y-11273388D01*
X11138988Y-11259323D01*
X11146600Y-11240946D01*
X11146600Y-11357100D01*
X10601800Y-11357100D01*
X10601800Y-10903180D01*
X10607644Y-10905600D01*
X10623557Y-10905600D01*
X10763557Y-10905600D01*
X10778258Y-10899510D01*
X10784497Y-10893271D01*
X10786116Y-10901408D01*
X10801669Y-10924685D01*
X10824947Y-10940238D01*
X10826146Y-10940477D01*
X10717115Y-11068495D01*
X10712177Y-11077342D01*
X10709732Y-11081000D01*
X10683644Y-11081000D01*
X10668942Y-11087090D01*
X10657690Y-11098342D01*
X10651600Y-11113044D01*
X10651600Y-11128957D01*
X10651600Y-11238956D01*
X10657690Y-11253658D01*
X10668942Y-11264910D01*
X10683644Y-11271000D01*
X10699557Y-11271000D01*
X10786600Y-11271000D01*
X10799557Y-11271000D01*
X10816600Y-11271000D01*
X10833821Y-11267575D01*
X10833821Y-11267575D01*
X10838488Y-11264456D01*
X10838942Y-11264910D01*
X10842757Y-11266491D01*
X10844379Y-11267575D01*
X10846293Y-11267955D01*
X10853644Y-11271000D01*
X10861600Y-11271000D01*
X10869557Y-11271000D01*
X10931600Y-11271000D01*
X10939557Y-11271000D01*
X10961600Y-11271000D01*
X10973519Y-11268629D01*
X10978277Y-11273388D01*
X10996654Y-11281000D01*
X11024100Y-11281000D01*
X11036600Y-11268500D01*
X11036600Y-11259036D01*
X11038420Y-11257820D01*
X11048175Y-11243221D01*
X11048175Y-11243221D01*
X11051600Y-11226000D01*
X11051600Y-11176000D01*
X11051600Y-11126000D01*
X11048175Y-11108779D01*
X11048175Y-11108779D01*
X11038420Y-11094180D01*
X11036600Y-11092964D01*
X11036600Y-11083500D01*
X11031788Y-11078688D01*
X11115773Y-10996287D01*
X11147833Y-10996315D01*
X11179086Y-10983402D01*
X11203017Y-10959512D01*
X11215985Y-10928282D01*
X11216015Y-10894467D01*
X11209810Y-10879450D01*
X11227200Y-10879450D01*
X11252200Y-10879450D01*
X11260156Y-10879450D01*
X11261949Y-10879450D01*
X11315493Y-10880454D01*
G36*
X12144500Y-11357100D02*
X12140768Y-11357100D01*
X12140768Y-10835360D01*
X12136858Y-10785786D01*
X12125408Y-10758143D01*
X12105393Y-10750421D01*
X12084179Y-10771634D01*
X12084179Y-10729207D01*
X12076457Y-10709192D01*
X12029160Y-10693832D01*
X11979586Y-10697742D01*
X11951943Y-10709192D01*
X11944220Y-10729207D01*
X12014200Y-10799187D01*
X12084179Y-10729207D01*
X12084179Y-10771634D01*
X12035413Y-10820400D01*
X12105393Y-10890380D01*
X12125408Y-10882657D01*
X12140768Y-10835360D01*
X12140768Y-11357100D01*
X11658975Y-11357100D01*
X11726507Y-11289686D01*
X11770749Y-11183138D01*
X11770850Y-11067769D01*
X11736504Y-10984644D01*
X11895357Y-11080113D01*
X11899200Y-11081493D01*
X11899200Y-11157357D01*
X11905290Y-11172058D01*
X11916542Y-11183310D01*
X11931243Y-11189400D01*
X11947156Y-11189400D01*
X12097156Y-11189400D01*
X12111858Y-11183310D01*
X12123110Y-11172058D01*
X12129200Y-11157357D01*
X12129200Y-11141444D01*
X12129200Y-10991444D01*
X12123110Y-10976742D01*
X12111858Y-10965490D01*
X12097156Y-10959400D01*
X12084179Y-10959400D01*
X12084179Y-10911593D01*
X12014200Y-10841613D01*
X11992987Y-10862826D01*
X11992987Y-10820400D01*
X11923007Y-10750421D01*
X11902991Y-10758143D01*
X11887632Y-10805440D01*
X11891542Y-10855014D01*
X11902991Y-10882657D01*
X11923007Y-10890380D01*
X11992987Y-10820400D01*
X11992987Y-10862826D01*
X11944220Y-10911593D01*
X11951943Y-10931609D01*
X11999240Y-10946968D01*
X12048814Y-10943058D01*
X12076457Y-10931609D01*
X12084179Y-10911593D01*
X12084179Y-10959400D01*
X12081243Y-10959400D01*
X11964200Y-10959400D01*
X11946869Y-10959400D01*
X11667873Y-10791727D01*
X11663302Y-10790086D01*
X11659264Y-10787388D01*
X11593474Y-10760138D01*
X11581625Y-10757781D01*
X11569819Y-10755201D01*
X11292200Y-10749994D01*
X11292200Y-10742594D01*
X11286110Y-10727892D01*
X11284090Y-10725871D01*
X11294588Y-10715373D01*
X11302200Y-10696996D01*
X11302200Y-10670100D01*
X11289700Y-10657600D01*
X11216400Y-10657600D01*
X11216400Y-10659600D01*
X11186400Y-10659600D01*
X11186400Y-10657600D01*
X11184400Y-10657600D01*
X11184400Y-10627600D01*
X11186400Y-10627600D01*
X11186400Y-10625600D01*
X11216400Y-10625600D01*
X11216400Y-10627600D01*
X11289700Y-10627600D01*
X11302200Y-10615100D01*
X11302200Y-10612800D01*
X11344611Y-10618201D01*
X11386722Y-10626144D01*
X11391401Y-10626097D01*
X11395990Y-10627010D01*
X11565610Y-10627010D01*
X11566200Y-10626893D01*
X11566792Y-10626996D01*
X11911439Y-10618844D01*
X11916651Y-10631457D01*
X11948973Y-10663835D01*
X11991225Y-10681380D01*
X12036975Y-10681420D01*
X12079257Y-10663949D01*
X12111635Y-10631627D01*
X12129180Y-10589375D01*
X12129220Y-10543625D01*
X12129220Y-10289625D01*
X12111749Y-10247343D01*
X12079427Y-10214965D01*
X12037175Y-10197420D01*
X11991425Y-10197380D01*
X11949143Y-10214851D01*
X11916765Y-10247173D01*
X11899220Y-10289425D01*
X11899180Y-10335175D01*
X11916651Y-10377457D01*
X11948973Y-10409835D01*
X11991225Y-10427380D01*
X12036975Y-10427420D01*
X12079257Y-10409949D01*
X12111635Y-10377627D01*
X12129180Y-10335375D01*
X12129220Y-10289625D01*
X12129220Y-10543625D01*
X12111749Y-10501343D01*
X12079427Y-10468965D01*
X12037175Y-10451420D01*
X11991425Y-10451380D01*
X11949143Y-10468851D01*
X11916765Y-10501173D01*
X11909418Y-10518864D01*
X11652934Y-10524931D01*
X11726507Y-10451486D01*
X11770749Y-10344938D01*
X11770850Y-10229569D01*
X11726793Y-10122943D01*
X11659069Y-10055100D01*
X12144500Y-10055100D01*
X12144500Y-11357100D01*
X12144500Y-11357100D01*
G37*
X12144500Y-11357100D02*
X12140768Y-11357100D01*
X12140768Y-10835360D01*
X12136858Y-10785786D01*
X12125408Y-10758143D01*
X12105393Y-10750421D01*
X12084179Y-10771634D01*
X12084179Y-10729207D01*
X12076457Y-10709192D01*
X12029160Y-10693832D01*
X11979586Y-10697742D01*
X11951943Y-10709192D01*
X11944220Y-10729207D01*
X12014200Y-10799187D01*
X12084179Y-10729207D01*
X12084179Y-10771634D01*
X12035413Y-10820400D01*
X12105393Y-10890380D01*
X12125408Y-10882657D01*
X12140768Y-10835360D01*
X12140768Y-11357100D01*
X11658975Y-11357100D01*
X11726507Y-11289686D01*
X11770749Y-11183138D01*
X11770850Y-11067769D01*
X11736504Y-10984644D01*
X11895357Y-11080113D01*
X11899200Y-11081493D01*
X11899200Y-11157357D01*
X11905290Y-11172058D01*
X11916542Y-11183310D01*
X11931243Y-11189400D01*
X11947156Y-11189400D01*
X12097156Y-11189400D01*
X12111858Y-11183310D01*
X12123110Y-11172058D01*
X12129200Y-11157357D01*
X12129200Y-11141444D01*
X12129200Y-10991444D01*
X12123110Y-10976742D01*
X12111858Y-10965490D01*
X12097156Y-10959400D01*
X12084179Y-10959400D01*
X12084179Y-10911593D01*
X12014200Y-10841613D01*
X11992987Y-10862826D01*
X11992987Y-10820400D01*
X11923007Y-10750421D01*
X11902991Y-10758143D01*
X11887632Y-10805440D01*
X11891542Y-10855014D01*
X11902991Y-10882657D01*
X11923007Y-10890380D01*
X11992987Y-10820400D01*
X11992987Y-10862826D01*
X11944220Y-10911593D01*
X11951943Y-10931609D01*
X11999240Y-10946968D01*
X12048814Y-10943058D01*
X12076457Y-10931609D01*
X12084179Y-10911593D01*
X12084179Y-10959400D01*
X12081243Y-10959400D01*
X11964200Y-10959400D01*
X11946869Y-10959400D01*
X11667873Y-10791727D01*
X11663302Y-10790086D01*
X11659264Y-10787388D01*
X11593474Y-10760138D01*
X11581625Y-10757781D01*
X11569819Y-10755201D01*
X11292200Y-10749994D01*
X11292200Y-10742594D01*
X11286110Y-10727892D01*
X11284090Y-10725871D01*
X11294588Y-10715373D01*
X11302200Y-10696996D01*
X11302200Y-10670100D01*
X11289700Y-10657600D01*
X11216400Y-10657600D01*
X11216400Y-10659600D01*
X11186400Y-10659600D01*
X11186400Y-10657600D01*
X11184400Y-10657600D01*
X11184400Y-10627600D01*
X11186400Y-10627600D01*
X11186400Y-10625600D01*
X11216400Y-10625600D01*
X11216400Y-10627600D01*
X11289700Y-10627600D01*
X11302200Y-10615100D01*
X11302200Y-10612800D01*
X11344611Y-10618201D01*
X11386722Y-10626144D01*
X11391401Y-10626097D01*
X11395990Y-10627010D01*
X11565610Y-10627010D01*
X11566200Y-10626893D01*
X11566792Y-10626996D01*
X11911439Y-10618844D01*
X11916651Y-10631457D01*
X11948973Y-10663835D01*
X11991225Y-10681380D01*
X12036975Y-10681420D01*
X12079257Y-10663949D01*
X12111635Y-10631627D01*
X12129180Y-10589375D01*
X12129220Y-10543625D01*
X12129220Y-10289625D01*
X12111749Y-10247343D01*
X12079427Y-10214965D01*
X12037175Y-10197420D01*
X11991425Y-10197380D01*
X11949143Y-10214851D01*
X11916765Y-10247173D01*
X11899220Y-10289425D01*
X11899180Y-10335175D01*
X11916651Y-10377457D01*
X11948973Y-10409835D01*
X11991225Y-10427380D01*
X12036975Y-10427420D01*
X12079257Y-10409949D01*
X12111635Y-10377627D01*
X12129180Y-10335375D01*
X12129220Y-10289625D01*
X12129220Y-10543625D01*
X12111749Y-10501343D01*
X12079427Y-10468965D01*
X12037175Y-10451420D01*
X11991425Y-10451380D01*
X11949143Y-10468851D01*
X11916765Y-10501173D01*
X11909418Y-10518864D01*
X11652934Y-10524931D01*
X11726507Y-10451486D01*
X11770749Y-10344938D01*
X11770850Y-10229569D01*
X11726793Y-10122943D01*
X11659069Y-10055100D01*
X12144500Y-10055100D01*
X12144500Y-11357100D01*
G36*
X10999100Y-8845248D02*
X10992344Y-8848046D01*
X10974787Y-8838485D01*
X10962400Y-8847905D01*
X10962400Y-8923752D01*
X10964400Y-8923752D01*
X10964400Y-8953752D01*
X10962400Y-8953752D01*
X10962400Y-9029599D01*
X10974787Y-9039019D01*
X10992344Y-9029458D01*
X10998531Y-9032020D01*
X10988242Y-9034067D01*
X10984116Y-9034888D01*
X10963028Y-9048978D01*
X10915768Y-9096238D01*
X10908943Y-9106453D01*
X10901993Y-9116578D01*
X10900266Y-9120605D01*
X10899902Y-9120848D01*
X10879862Y-9107458D01*
X10852404Y-9101996D01*
X10824947Y-9107458D01*
X10801669Y-9123011D01*
X10797186Y-9129720D01*
X10795600Y-9129720D01*
X10795600Y-9097644D01*
X10789510Y-9082942D01*
X10778258Y-9071690D01*
X10763557Y-9065600D01*
X10747644Y-9065600D01*
X10607644Y-9065600D01*
X10601800Y-9068020D01*
X10601800Y-9043180D01*
X10607644Y-9045600D01*
X10623557Y-9045600D01*
X10763557Y-9045600D01*
X10778258Y-9039510D01*
X10789510Y-9028258D01*
X10795600Y-9013557D01*
X10795600Y-9005506D01*
X10801669Y-9014589D01*
X10824947Y-9030142D01*
X10852404Y-9035604D01*
X10879862Y-9030142D01*
X10891225Y-9022550D01*
X10892240Y-9023894D01*
X10920013Y-9039019D01*
X10932400Y-9029599D01*
X10932400Y-8953752D01*
X10930400Y-8953752D01*
X10930400Y-8923752D01*
X10932400Y-8923752D01*
X10932400Y-8847905D01*
X10920013Y-8838485D01*
X10892240Y-8853610D01*
X10891225Y-8854954D01*
X10879862Y-8847362D01*
X10852404Y-8841900D01*
X10830800Y-8846197D01*
X10830800Y-8718950D01*
X10830800Y-8652000D01*
X10757500Y-8652000D01*
X10745000Y-8664500D01*
X10745000Y-8691396D01*
X10752612Y-8709773D01*
X10766677Y-8723838D01*
X10785054Y-8731450D01*
X10804946Y-8731450D01*
X10818300Y-8731450D01*
X10830800Y-8718950D01*
X10830800Y-8846197D01*
X10824947Y-8847362D01*
X10801669Y-8862915D01*
X10791599Y-8877985D01*
X10789510Y-8872942D01*
X10778258Y-8861690D01*
X10763557Y-8855600D01*
X10747644Y-8855600D01*
X10607644Y-8855600D01*
X10601800Y-8858020D01*
X10601800Y-8405100D01*
X10775093Y-8405100D01*
X10772342Y-8406240D01*
X10761090Y-8417492D01*
X10755000Y-8432194D01*
X10755000Y-8448107D01*
X10755000Y-8537007D01*
X10761090Y-8551708D01*
X10763110Y-8553729D01*
X10752612Y-8564227D01*
X10745000Y-8582604D01*
X10745000Y-8609500D01*
X10757500Y-8622000D01*
X10830800Y-8622000D01*
X10830800Y-8620000D01*
X10860800Y-8620000D01*
X10860800Y-8622000D01*
X10862800Y-8622000D01*
X10862800Y-8652000D01*
X10860800Y-8652000D01*
X10860800Y-8718950D01*
X10873300Y-8731450D01*
X10886654Y-8731450D01*
X10906546Y-8731450D01*
X10924923Y-8723838D01*
X10938988Y-8709773D01*
X10941043Y-8704812D01*
X10950942Y-8714710D01*
X10965644Y-8720800D01*
X10981557Y-8720800D01*
X10999100Y-8720800D01*
X10999100Y-8845248D01*
X10999100Y-8845248D01*
G37*
X10999100Y-8845248D02*
X10992344Y-8848046D01*
X10974787Y-8838485D01*
X10962400Y-8847905D01*
X10962400Y-8923752D01*
X10964400Y-8923752D01*
X10964400Y-8953752D01*
X10962400Y-8953752D01*
X10962400Y-9029599D01*
X10974787Y-9039019D01*
X10992344Y-9029458D01*
X10998531Y-9032020D01*
X10988242Y-9034067D01*
X10984116Y-9034888D01*
X10963028Y-9048978D01*
X10915768Y-9096238D01*
X10908943Y-9106453D01*
X10901993Y-9116578D01*
X10900266Y-9120605D01*
X10899902Y-9120848D01*
X10879862Y-9107458D01*
X10852404Y-9101996D01*
X10824947Y-9107458D01*
X10801669Y-9123011D01*
X10797186Y-9129720D01*
X10795600Y-9129720D01*
X10795600Y-9097644D01*
X10789510Y-9082942D01*
X10778258Y-9071690D01*
X10763557Y-9065600D01*
X10747644Y-9065600D01*
X10607644Y-9065600D01*
X10601800Y-9068020D01*
X10601800Y-9043180D01*
X10607644Y-9045600D01*
X10623557Y-9045600D01*
X10763557Y-9045600D01*
X10778258Y-9039510D01*
X10789510Y-9028258D01*
X10795600Y-9013557D01*
X10795600Y-9005506D01*
X10801669Y-9014589D01*
X10824947Y-9030142D01*
X10852404Y-9035604D01*
X10879862Y-9030142D01*
X10891225Y-9022550D01*
X10892240Y-9023894D01*
X10920013Y-9039019D01*
X10932400Y-9029599D01*
X10932400Y-8953752D01*
X10930400Y-8953752D01*
X10930400Y-8923752D01*
X10932400Y-8923752D01*
X10932400Y-8847905D01*
X10920013Y-8838485D01*
X10892240Y-8853610D01*
X10891225Y-8854954D01*
X10879862Y-8847362D01*
X10852404Y-8841900D01*
X10830800Y-8846197D01*
X10830800Y-8718950D01*
X10830800Y-8652000D01*
X10757500Y-8652000D01*
X10745000Y-8664500D01*
X10745000Y-8691396D01*
X10752612Y-8709773D01*
X10766677Y-8723838D01*
X10785054Y-8731450D01*
X10804946Y-8731450D01*
X10818300Y-8731450D01*
X10830800Y-8718950D01*
X10830800Y-8846197D01*
X10824947Y-8847362D01*
X10801669Y-8862915D01*
X10791599Y-8877985D01*
X10789510Y-8872942D01*
X10778258Y-8861690D01*
X10763557Y-8855600D01*
X10747644Y-8855600D01*
X10607644Y-8855600D01*
X10601800Y-8858020D01*
X10601800Y-8405100D01*
X10775093Y-8405100D01*
X10772342Y-8406240D01*
X10761090Y-8417492D01*
X10755000Y-8432194D01*
X10755000Y-8448107D01*
X10755000Y-8537007D01*
X10761090Y-8551708D01*
X10763110Y-8553729D01*
X10752612Y-8564227D01*
X10745000Y-8582604D01*
X10745000Y-8609500D01*
X10757500Y-8622000D01*
X10830800Y-8622000D01*
X10830800Y-8620000D01*
X10860800Y-8620000D01*
X10860800Y-8622000D01*
X10862800Y-8622000D01*
X10862800Y-8652000D01*
X10860800Y-8652000D01*
X10860800Y-8718950D01*
X10873300Y-8731450D01*
X10886654Y-8731450D01*
X10906546Y-8731450D01*
X10924923Y-8723838D01*
X10938988Y-8709773D01*
X10941043Y-8704812D01*
X10950942Y-8714710D01*
X10965644Y-8720800D01*
X10981557Y-8720800D01*
X10999100Y-8720800D01*
X10999100Y-8845248D01*
G36*
X11302625Y-8405100D02*
X11235093Y-8472514D01*
X11190850Y-8579062D01*
X11190750Y-8694432D01*
X11234807Y-8801057D01*
X11294680Y-8861036D01*
X11275086Y-8858541D01*
X11271901Y-8858763D01*
X11268770Y-8858140D01*
X11243770Y-8858140D01*
X11210630Y-8858140D01*
X11209907Y-8858284D01*
X11209179Y-8858161D01*
X11206113Y-8858250D01*
X11105204Y-8858250D01*
X11099100Y-8852146D01*
X11099100Y-8711869D01*
X11107510Y-8703458D01*
X11113600Y-8688757D01*
X11113600Y-8672844D01*
X11113600Y-8582844D01*
X11107510Y-8568142D01*
X11100169Y-8560800D01*
X11107510Y-8553458D01*
X11113600Y-8538757D01*
X11113600Y-8522844D01*
X11113600Y-8432844D01*
X11107510Y-8418142D01*
X11096258Y-8406890D01*
X11091938Y-8405100D01*
X11302625Y-8405100D01*
X11302625Y-8405100D01*
G37*
X11302625Y-8405100D02*
X11235093Y-8472514D01*
X11190850Y-8579062D01*
X11190750Y-8694432D01*
X11234807Y-8801057D01*
X11294680Y-8861036D01*
X11275086Y-8858541D01*
X11271901Y-8858763D01*
X11268770Y-8858140D01*
X11243770Y-8858140D01*
X11210630Y-8858140D01*
X11209907Y-8858284D01*
X11209179Y-8858161D01*
X11206113Y-8858250D01*
X11105204Y-8858250D01*
X11099100Y-8852146D01*
X11099100Y-8711869D01*
X11107510Y-8703458D01*
X11113600Y-8688757D01*
X11113600Y-8672844D01*
X11113600Y-8582844D01*
X11107510Y-8568142D01*
X11100169Y-8560800D01*
X11107510Y-8553458D01*
X11113600Y-8538757D01*
X11113600Y-8522844D01*
X11113600Y-8432844D01*
X11107510Y-8418142D01*
X11096258Y-8406890D01*
X11091938Y-8405100D01*
X11302625Y-8405100D01*
G36*
X11315493Y-9230454D02*
X11235093Y-9310714D01*
X11190850Y-9417262D01*
X11190750Y-9532632D01*
X11234807Y-9639257D01*
X11302531Y-9707100D01*
X11146600Y-9707100D01*
X11146600Y-9590946D01*
X11146600Y-9571054D01*
X11146600Y-9553500D01*
X11146600Y-9498500D01*
X11146600Y-9480946D01*
X11146600Y-9461054D01*
X11138988Y-9442677D01*
X11124923Y-9428612D01*
X11106546Y-9421000D01*
X11079100Y-9421000D01*
X11066600Y-9433500D01*
X11066600Y-9511000D01*
X11134100Y-9511000D01*
X11146600Y-9498500D01*
X11146600Y-9553500D01*
X11134100Y-9541000D01*
X11066600Y-9541000D01*
X11066600Y-9618500D01*
X11079100Y-9631000D01*
X11106546Y-9631000D01*
X11124923Y-9623388D01*
X11138988Y-9609323D01*
X11146600Y-9590946D01*
X11146600Y-9707100D01*
X10601800Y-9707100D01*
X10601800Y-9253180D01*
X10607644Y-9255600D01*
X10623557Y-9255600D01*
X10763557Y-9255600D01*
X10778258Y-9249510D01*
X10784497Y-9243271D01*
X10786116Y-9251408D01*
X10801669Y-9274685D01*
X10824947Y-9290238D01*
X10826146Y-9290477D01*
X10717115Y-9418495D01*
X10712177Y-9427342D01*
X10709732Y-9431000D01*
X10683644Y-9431000D01*
X10668942Y-9437090D01*
X10657690Y-9448342D01*
X10651600Y-9463044D01*
X10651600Y-9478957D01*
X10651600Y-9588957D01*
X10657690Y-9603658D01*
X10668942Y-9614910D01*
X10683644Y-9621000D01*
X10699557Y-9621000D01*
X10786600Y-9621000D01*
X10799557Y-9621000D01*
X10816600Y-9621000D01*
X10833821Y-9617575D01*
X10833821Y-9617575D01*
X10838488Y-9614456D01*
X10838942Y-9614910D01*
X10842757Y-9616491D01*
X10844379Y-9617575D01*
X10846293Y-9617955D01*
X10853644Y-9621000D01*
X10861600Y-9621000D01*
X10869557Y-9621000D01*
X10931600Y-9621000D01*
X10939557Y-9621000D01*
X10961600Y-9621000D01*
X10973519Y-9618629D01*
X10978277Y-9623388D01*
X10996654Y-9631000D01*
X11024100Y-9631000D01*
X11036600Y-9618500D01*
X11036600Y-9609036D01*
X11038420Y-9607820D01*
X11048175Y-9593221D01*
X11048175Y-9593221D01*
X11051600Y-9576000D01*
X11051600Y-9526000D01*
X11051600Y-9476000D01*
X11048175Y-9458779D01*
X11048175Y-9458779D01*
X11038420Y-9444180D01*
X11036600Y-9442964D01*
X11036600Y-9433500D01*
X11031788Y-9428688D01*
X11115773Y-9346287D01*
X11147833Y-9346315D01*
X11179086Y-9333402D01*
X11203017Y-9309512D01*
X11215985Y-9278282D01*
X11216015Y-9244467D01*
X11209810Y-9229450D01*
X11227200Y-9229450D01*
X11252200Y-9229450D01*
X11260156Y-9229450D01*
X11261949Y-9229450D01*
X11315493Y-9230454D01*
X11315493Y-9230454D01*
G37*
X11315493Y-9230454D02*
X11235093Y-9310714D01*
X11190850Y-9417262D01*
X11190750Y-9532632D01*
X11234807Y-9639257D01*
X11302531Y-9707100D01*
X11146600Y-9707100D01*
X11146600Y-9590946D01*
X11146600Y-9571054D01*
X11146600Y-9553500D01*
X11146600Y-9498500D01*
X11146600Y-9480946D01*
X11146600Y-9461054D01*
X11138988Y-9442677D01*
X11124923Y-9428612D01*
X11106546Y-9421000D01*
X11079100Y-9421000D01*
X11066600Y-9433500D01*
X11066600Y-9511000D01*
X11134100Y-9511000D01*
X11146600Y-9498500D01*
X11146600Y-9553500D01*
X11134100Y-9541000D01*
X11066600Y-9541000D01*
X11066600Y-9618500D01*
X11079100Y-9631000D01*
X11106546Y-9631000D01*
X11124923Y-9623388D01*
X11138988Y-9609323D01*
X11146600Y-9590946D01*
X11146600Y-9707100D01*
X10601800Y-9707100D01*
X10601800Y-9253180D01*
X10607644Y-9255600D01*
X10623557Y-9255600D01*
X10763557Y-9255600D01*
X10778258Y-9249510D01*
X10784497Y-9243271D01*
X10786116Y-9251408D01*
X10801669Y-9274685D01*
X10824947Y-9290238D01*
X10826146Y-9290477D01*
X10717115Y-9418495D01*
X10712177Y-9427342D01*
X10709732Y-9431000D01*
X10683644Y-9431000D01*
X10668942Y-9437090D01*
X10657690Y-9448342D01*
X10651600Y-9463044D01*
X10651600Y-9478957D01*
X10651600Y-9588957D01*
X10657690Y-9603658D01*
X10668942Y-9614910D01*
X10683644Y-9621000D01*
X10699557Y-9621000D01*
X10786600Y-9621000D01*
X10799557Y-9621000D01*
X10816600Y-9621000D01*
X10833821Y-9617575D01*
X10833821Y-9617575D01*
X10838488Y-9614456D01*
X10838942Y-9614910D01*
X10842757Y-9616491D01*
X10844379Y-9617575D01*
X10846293Y-9617955D01*
X10853644Y-9621000D01*
X10861600Y-9621000D01*
X10869557Y-9621000D01*
X10931600Y-9621000D01*
X10939557Y-9621000D01*
X10961600Y-9621000D01*
X10973519Y-9618629D01*
X10978277Y-9623388D01*
X10996654Y-9631000D01*
X11024100Y-9631000D01*
X11036600Y-9618500D01*
X11036600Y-9609036D01*
X11038420Y-9607820D01*
X11048175Y-9593221D01*
X11048175Y-9593221D01*
X11051600Y-9576000D01*
X11051600Y-9526000D01*
X11051600Y-9476000D01*
X11048175Y-9458779D01*
X11048175Y-9458779D01*
X11038420Y-9444180D01*
X11036600Y-9442964D01*
X11036600Y-9433500D01*
X11031788Y-9428688D01*
X11115773Y-9346287D01*
X11147833Y-9346315D01*
X11179086Y-9333402D01*
X11203017Y-9309512D01*
X11215985Y-9278282D01*
X11216015Y-9244467D01*
X11209810Y-9229450D01*
X11227200Y-9229450D01*
X11252200Y-9229450D01*
X11260156Y-9229450D01*
X11261949Y-9229450D01*
X11315493Y-9230454D01*
G36*
X12144500Y-9707100D02*
X12140768Y-9707100D01*
X12140768Y-9185360D01*
X12136858Y-9135786D01*
X12125408Y-9108143D01*
X12105393Y-9100421D01*
X12084179Y-9121634D01*
X12084179Y-9079207D01*
X12076457Y-9059192D01*
X12029160Y-9043832D01*
X11979586Y-9047742D01*
X11951943Y-9059192D01*
X11944220Y-9079207D01*
X12014200Y-9149187D01*
X12084179Y-9079207D01*
X12084179Y-9121634D01*
X12035413Y-9170400D01*
X12105393Y-9240380D01*
X12125408Y-9232657D01*
X12140768Y-9185360D01*
X12140768Y-9707100D01*
X11658975Y-9707100D01*
X11726507Y-9639686D01*
X11770749Y-9533138D01*
X11770850Y-9417769D01*
X11736504Y-9334644D01*
X11895357Y-9430113D01*
X11899200Y-9431493D01*
X11899200Y-9507357D01*
X11905290Y-9522058D01*
X11916542Y-9533310D01*
X11931243Y-9539400D01*
X11947156Y-9539400D01*
X12097156Y-9539400D01*
X12111858Y-9533310D01*
X12123110Y-9522058D01*
X12129200Y-9507357D01*
X12129200Y-9491444D01*
X12129200Y-9341444D01*
X12123110Y-9326742D01*
X12111858Y-9315490D01*
X12097156Y-9309400D01*
X12084179Y-9309400D01*
X12084179Y-9261593D01*
X12014200Y-9191613D01*
X11992987Y-9212826D01*
X11992987Y-9170400D01*
X11923007Y-9100421D01*
X11902991Y-9108143D01*
X11887632Y-9155440D01*
X11891542Y-9205014D01*
X11902991Y-9232657D01*
X11923007Y-9240380D01*
X11992987Y-9170400D01*
X11992987Y-9212826D01*
X11944220Y-9261593D01*
X11951943Y-9281609D01*
X11999240Y-9296968D01*
X12048814Y-9293058D01*
X12076457Y-9281609D01*
X12084179Y-9261593D01*
X12084179Y-9309400D01*
X12081243Y-9309400D01*
X11964200Y-9309400D01*
X11946869Y-9309400D01*
X11667873Y-9141727D01*
X11663302Y-9140086D01*
X11659264Y-9137388D01*
X11593474Y-9110138D01*
X11581625Y-9107781D01*
X11569819Y-9105201D01*
X11292200Y-9099994D01*
X11292200Y-9092594D01*
X11286110Y-9077892D01*
X11284090Y-9075871D01*
X11294588Y-9065373D01*
X11302200Y-9046996D01*
X11302200Y-9020100D01*
X11289700Y-9007600D01*
X11216400Y-9007600D01*
X11216400Y-9009600D01*
X11186400Y-9009600D01*
X11186400Y-9007600D01*
X11184400Y-9007600D01*
X11184400Y-8977600D01*
X11186400Y-8977600D01*
X11186400Y-8975600D01*
X11216400Y-8975600D01*
X11216400Y-8977600D01*
X11289700Y-8977600D01*
X11302200Y-8965100D01*
X11302200Y-8962800D01*
X11344611Y-8968201D01*
X11386722Y-8976144D01*
X11391401Y-8976097D01*
X11395990Y-8977010D01*
X11565610Y-8977010D01*
X11566200Y-8976893D01*
X11566792Y-8976996D01*
X11911439Y-8968844D01*
X11916651Y-8981457D01*
X11948973Y-9013835D01*
X11991225Y-9031380D01*
X12036975Y-9031420D01*
X12079257Y-9013949D01*
X12111635Y-8981627D01*
X12129180Y-8939375D01*
X12129220Y-8893625D01*
X12129220Y-8639625D01*
X12111749Y-8597343D01*
X12079427Y-8564965D01*
X12037175Y-8547420D01*
X11991425Y-8547380D01*
X11949143Y-8564851D01*
X11916765Y-8597173D01*
X11899220Y-8639425D01*
X11899180Y-8685175D01*
X11916651Y-8727457D01*
X11948973Y-8759835D01*
X11991225Y-8777380D01*
X12036975Y-8777420D01*
X12079257Y-8759949D01*
X12111635Y-8727627D01*
X12129180Y-8685375D01*
X12129220Y-8639625D01*
X12129220Y-8893625D01*
X12111749Y-8851343D01*
X12079427Y-8818965D01*
X12037175Y-8801420D01*
X11991425Y-8801380D01*
X11949143Y-8818851D01*
X11916765Y-8851173D01*
X11909418Y-8868864D01*
X11652934Y-8874931D01*
X11726507Y-8801486D01*
X11770749Y-8694938D01*
X11770850Y-8579569D01*
X11726793Y-8472943D01*
X11659069Y-8405100D01*
X12144500Y-8405100D01*
X12144500Y-9707100D01*
X12144500Y-9707100D01*
G37*
X12144500Y-9707100D02*
X12140768Y-9707100D01*
X12140768Y-9185360D01*
X12136858Y-9135786D01*
X12125408Y-9108143D01*
X12105393Y-9100421D01*
X12084179Y-9121634D01*
X12084179Y-9079207D01*
X12076457Y-9059192D01*
X12029160Y-9043832D01*
X11979586Y-9047742D01*
X11951943Y-9059192D01*
X11944220Y-9079207D01*
X12014200Y-9149187D01*
X12084179Y-9079207D01*
X12084179Y-9121634D01*
X12035413Y-9170400D01*
X12105393Y-9240380D01*
X12125408Y-9232657D01*
X12140768Y-9185360D01*
X12140768Y-9707100D01*
X11658975Y-9707100D01*
X11726507Y-9639686D01*
X11770749Y-9533138D01*
X11770850Y-9417769D01*
X11736504Y-9334644D01*
X11895357Y-9430113D01*
X11899200Y-9431493D01*
X11899200Y-9507357D01*
X11905290Y-9522058D01*
X11916542Y-9533310D01*
X11931243Y-9539400D01*
X11947156Y-9539400D01*
X12097156Y-9539400D01*
X12111858Y-9533310D01*
X12123110Y-9522058D01*
X12129200Y-9507357D01*
X12129200Y-9491444D01*
X12129200Y-9341444D01*
X12123110Y-9326742D01*
X12111858Y-9315490D01*
X12097156Y-9309400D01*
X12084179Y-9309400D01*
X12084179Y-9261593D01*
X12014200Y-9191613D01*
X11992987Y-9212826D01*
X11992987Y-9170400D01*
X11923007Y-9100421D01*
X11902991Y-9108143D01*
X11887632Y-9155440D01*
X11891542Y-9205014D01*
X11902991Y-9232657D01*
X11923007Y-9240380D01*
X11992987Y-9170400D01*
X11992987Y-9212826D01*
X11944220Y-9261593D01*
X11951943Y-9281609D01*
X11999240Y-9296968D01*
X12048814Y-9293058D01*
X12076457Y-9281609D01*
X12084179Y-9261593D01*
X12084179Y-9309400D01*
X12081243Y-9309400D01*
X11964200Y-9309400D01*
X11946869Y-9309400D01*
X11667873Y-9141727D01*
X11663302Y-9140086D01*
X11659264Y-9137388D01*
X11593474Y-9110138D01*
X11581625Y-9107781D01*
X11569819Y-9105201D01*
X11292200Y-9099994D01*
X11292200Y-9092594D01*
X11286110Y-9077892D01*
X11284090Y-9075871D01*
X11294588Y-9065373D01*
X11302200Y-9046996D01*
X11302200Y-9020100D01*
X11289700Y-9007600D01*
X11216400Y-9007600D01*
X11216400Y-9009600D01*
X11186400Y-9009600D01*
X11186400Y-9007600D01*
X11184400Y-9007600D01*
X11184400Y-8977600D01*
X11186400Y-8977600D01*
X11186400Y-8975600D01*
X11216400Y-8975600D01*
X11216400Y-8977600D01*
X11289700Y-8977600D01*
X11302200Y-8965100D01*
X11302200Y-8962800D01*
X11344611Y-8968201D01*
X11386722Y-8976144D01*
X11391401Y-8976097D01*
X11395990Y-8977010D01*
X11565610Y-8977010D01*
X11566200Y-8976893D01*
X11566792Y-8976996D01*
X11911439Y-8968844D01*
X11916651Y-8981457D01*
X11948973Y-9013835D01*
X11991225Y-9031380D01*
X12036975Y-9031420D01*
X12079257Y-9013949D01*
X12111635Y-8981627D01*
X12129180Y-8939375D01*
X12129220Y-8893625D01*
X12129220Y-8639625D01*
X12111749Y-8597343D01*
X12079427Y-8564965D01*
X12037175Y-8547420D01*
X11991425Y-8547380D01*
X11949143Y-8564851D01*
X11916765Y-8597173D01*
X11899220Y-8639425D01*
X11899180Y-8685175D01*
X11916651Y-8727457D01*
X11948973Y-8759835D01*
X11991225Y-8777380D01*
X12036975Y-8777420D01*
X12079257Y-8759949D01*
X12111635Y-8727627D01*
X12129180Y-8685375D01*
X12129220Y-8639625D01*
X12129220Y-8893625D01*
X12111749Y-8851343D01*
X12079427Y-8818965D01*
X12037175Y-8801420D01*
X11991425Y-8801380D01*
X11949143Y-8818851D01*
X11916765Y-8851173D01*
X11909418Y-8868864D01*
X11652934Y-8874931D01*
X11726507Y-8801486D01*
X11770749Y-8694938D01*
X11770850Y-8579569D01*
X11726793Y-8472943D01*
X11659069Y-8405100D01*
X12144500Y-8405100D01*
X12144500Y-9707100D01*
M02*
