%FSLAX45Y45*%
G04 Gerber Fmt 4.5, Leading zero omitted, Abs format (unit mm)*
G04 Created by KiCad (PCBNEW (2014-07-12 BZR 4289 GOST-COMMITTERS)-product) date 15.03.2017 23:16:08*
%MOMM*%
G01*
G04 APERTURE LIST*
%ADD10C,0.150000*%
%ADD11C,1.500000*%
%ADD12R,1.500000X1.500000*%
%ADD13C,5.000000*%
%ADD14C,0.900000*%
%ADD15C,0.500000*%
%ADD16C,0.200000*%
G04 APERTURE END LIST*
D10*
D11*
X12014200Y-8662400D03*
D12*
X10185400Y-9195800D03*
D13*
X11480800Y-8637000D03*
X11480800Y-9475200D03*
D11*
X12014200Y-8916400D03*
D12*
X12014200Y-9424400D03*
D11*
X12014200Y-9170400D03*
X12014200Y-10566400D03*
D12*
X12014200Y-11074400D03*
D11*
X12014200Y-10820400D03*
D13*
X11480800Y-11125200D03*
X11480800Y-10287000D03*
D12*
X10185400Y-10845800D03*
D11*
X12014200Y-10312400D03*
D14*
X11134400Y-9405700D03*
X11317200Y-9003800D03*
X10965400Y-8819400D03*
X10650000Y-9350000D03*
X10650000Y-8750000D03*
X10650000Y-8450000D03*
X10650000Y-9650000D03*
X11171670Y-8823350D03*
X11171670Y-10473350D03*
X10650000Y-11300000D03*
X10650000Y-10100000D03*
X10650000Y-10400000D03*
X10650000Y-11000000D03*
X10965400Y-10469400D03*
X11317200Y-10653800D03*
X11134400Y-11055700D03*
X11131000Y-9261300D03*
X11131000Y-10911300D03*
D15*
X11121470Y-8901210D02*
X11171670Y-8823350D01*
X11205760Y-9323430D02*
X11134400Y-9405700D01*
X11329030Y-9200160D02*
X11205760Y-9323430D01*
X11393640Y-9173400D02*
X11329030Y-9200160D01*
X12014200Y-9170400D02*
X11393640Y-9173400D01*
X11121470Y-8901210D02*
X10965400Y-8819400D01*
X10650000Y-9350000D02*
X10650000Y-9650000D01*
X10650000Y-9350000D02*
X10650000Y-8750000D01*
X11134400Y-9405700D02*
X10650000Y-9350000D01*
X11134160Y-8913900D02*
X11121470Y-8901210D01*
X11317200Y-9003800D02*
X11134160Y-8913900D01*
X11317200Y-10653800D02*
X11134160Y-10563900D01*
X11134160Y-10563900D02*
X11121470Y-10551210D01*
X11134400Y-11055700D02*
X10650000Y-11000000D01*
X10650000Y-11000000D02*
X10650000Y-10400000D01*
X10650000Y-11000000D02*
X10650000Y-11300000D01*
X11121470Y-10551210D02*
X10965400Y-10469400D01*
X12014200Y-10820400D02*
X11393640Y-10823400D01*
X11393640Y-10823400D02*
X11329030Y-10850160D01*
X11329030Y-10850160D02*
X11205760Y-10973430D01*
X11205760Y-10973430D02*
X11134400Y-11055700D01*
X11121470Y-10551210D02*
X11171670Y-10473350D01*
D16*
X11290380Y-9142330D02*
X11131000Y-9261300D01*
X12014200Y-8662400D02*
X11290380Y-9142330D01*
X12014200Y-10312400D02*
X11290380Y-10792330D01*
X11290380Y-10792330D02*
X11131000Y-10911300D01*
G36*
X12144500Y-11357100D02*
X12140768Y-11357100D01*
X12140768Y-10835360D01*
X12136858Y-10785786D01*
X12129220Y-10767345D01*
X12129220Y-10543625D01*
X12111749Y-10501343D01*
X12079427Y-10468965D01*
X12037175Y-10451420D01*
X11991425Y-10451380D01*
X11949143Y-10468851D01*
X11916765Y-10501173D01*
X11899220Y-10543425D01*
X11899180Y-10589175D01*
X11916651Y-10631457D01*
X11948973Y-10663835D01*
X11991225Y-10681380D01*
X12036975Y-10681420D01*
X12079257Y-10663949D01*
X12111635Y-10631627D01*
X12129180Y-10589375D01*
X12129220Y-10543625D01*
X12129220Y-10767345D01*
X12125408Y-10758143D01*
X12105393Y-10750421D01*
X12084179Y-10771634D01*
X12084179Y-10729207D01*
X12076457Y-10709192D01*
X12029160Y-10693832D01*
X11979586Y-10697742D01*
X11951943Y-10709192D01*
X11944220Y-10729207D01*
X12014200Y-10799187D01*
X12084179Y-10729207D01*
X12084179Y-10771634D01*
X12035413Y-10820400D01*
X12105393Y-10890380D01*
X12125408Y-10882657D01*
X12140768Y-10835360D01*
X12140768Y-11357100D01*
X12129200Y-11357100D01*
X12129200Y-11157357D01*
X12129200Y-11141444D01*
X12129200Y-10991444D01*
X12123110Y-10976742D01*
X12111858Y-10965490D01*
X12097156Y-10959400D01*
X12084179Y-10959400D01*
X12084179Y-10911593D01*
X12014200Y-10841613D01*
X11992987Y-10862826D01*
X11992987Y-10820400D01*
X11923007Y-10750421D01*
X11902991Y-10758143D01*
X11887632Y-10805440D01*
X11891542Y-10855014D01*
X11902991Y-10882657D01*
X11923007Y-10890380D01*
X11992987Y-10820400D01*
X11992987Y-10862826D01*
X11944220Y-10911593D01*
X11951943Y-10931609D01*
X11999240Y-10946968D01*
X12048814Y-10943058D01*
X12076457Y-10931609D01*
X12084179Y-10911593D01*
X12084179Y-10959400D01*
X12081243Y-10959400D01*
X11931243Y-10959400D01*
X11916542Y-10965490D01*
X11905290Y-10976742D01*
X11899200Y-10991444D01*
X11899200Y-11007357D01*
X11899200Y-11157357D01*
X11905290Y-11172058D01*
X11916542Y-11183310D01*
X11931243Y-11189400D01*
X11947156Y-11189400D01*
X12097156Y-11189400D01*
X12111858Y-11183310D01*
X12123110Y-11172058D01*
X12129200Y-11157357D01*
X12129200Y-11357100D01*
X11658975Y-11357100D01*
X11726507Y-11289686D01*
X11770749Y-11183138D01*
X11770850Y-11067769D01*
X11726793Y-10961143D01*
X11645286Y-10879493D01*
X11538738Y-10835251D01*
X11423368Y-10835150D01*
X11316743Y-10879207D01*
X11235093Y-10960714D01*
X11190850Y-11067262D01*
X11190750Y-11182632D01*
X11234807Y-11289257D01*
X11302531Y-11357100D01*
X10601800Y-11357100D01*
X10601800Y-10055100D01*
X11302625Y-10055100D01*
X11235093Y-10122514D01*
X11190850Y-10229062D01*
X11190750Y-10344432D01*
X11234807Y-10451057D01*
X11316314Y-10532707D01*
X11422862Y-10576950D01*
X11524599Y-10577038D01*
X11262749Y-10750658D01*
X11261747Y-10751654D01*
X11260471Y-10752262D01*
X11156517Y-10829859D01*
X11147982Y-10826315D01*
X11114167Y-10826285D01*
X11082914Y-10839199D01*
X11058983Y-10863089D01*
X11046015Y-10894318D01*
X11045985Y-10928133D01*
X11058899Y-10959386D01*
X11082789Y-10983317D01*
X11114018Y-10996285D01*
X11147833Y-10996315D01*
X11179086Y-10983402D01*
X11203017Y-10959512D01*
X11215985Y-10928282D01*
X11216001Y-10910244D01*
X11319173Y-10833231D01*
X11954357Y-10412071D01*
X11991225Y-10427380D01*
X12036975Y-10427420D01*
X12079257Y-10409949D01*
X12111635Y-10377627D01*
X12129180Y-10335375D01*
X12129220Y-10289625D01*
X12111749Y-10247343D01*
X12079427Y-10214965D01*
X12037175Y-10197420D01*
X11991425Y-10197380D01*
X11949143Y-10214851D01*
X11916765Y-10247173D01*
X11899220Y-10289425D01*
X11899186Y-10328668D01*
X11731276Y-10440001D01*
X11770749Y-10344938D01*
X11770850Y-10229569D01*
X11726793Y-10122943D01*
X11659069Y-10055100D01*
X12144500Y-10055100D01*
X12144500Y-11357100D01*
X12144500Y-11357100D01*
G37*
X12144500Y-11357100D02*
X12140768Y-11357100D01*
X12140768Y-10835360D01*
X12136858Y-10785786D01*
X12129220Y-10767345D01*
X12129220Y-10543625D01*
X12111749Y-10501343D01*
X12079427Y-10468965D01*
X12037175Y-10451420D01*
X11991425Y-10451380D01*
X11949143Y-10468851D01*
X11916765Y-10501173D01*
X11899220Y-10543425D01*
X11899180Y-10589175D01*
X11916651Y-10631457D01*
X11948973Y-10663835D01*
X11991225Y-10681380D01*
X12036975Y-10681420D01*
X12079257Y-10663949D01*
X12111635Y-10631627D01*
X12129180Y-10589375D01*
X12129220Y-10543625D01*
X12129220Y-10767345D01*
X12125408Y-10758143D01*
X12105393Y-10750421D01*
X12084179Y-10771634D01*
X12084179Y-10729207D01*
X12076457Y-10709192D01*
X12029160Y-10693832D01*
X11979586Y-10697742D01*
X11951943Y-10709192D01*
X11944220Y-10729207D01*
X12014200Y-10799187D01*
X12084179Y-10729207D01*
X12084179Y-10771634D01*
X12035413Y-10820400D01*
X12105393Y-10890380D01*
X12125408Y-10882657D01*
X12140768Y-10835360D01*
X12140768Y-11357100D01*
X12129200Y-11357100D01*
X12129200Y-11157357D01*
X12129200Y-11141444D01*
X12129200Y-10991444D01*
X12123110Y-10976742D01*
X12111858Y-10965490D01*
X12097156Y-10959400D01*
X12084179Y-10959400D01*
X12084179Y-10911593D01*
X12014200Y-10841613D01*
X11992987Y-10862826D01*
X11992987Y-10820400D01*
X11923007Y-10750421D01*
X11902991Y-10758143D01*
X11887632Y-10805440D01*
X11891542Y-10855014D01*
X11902991Y-10882657D01*
X11923007Y-10890380D01*
X11992987Y-10820400D01*
X11992987Y-10862826D01*
X11944220Y-10911593D01*
X11951943Y-10931609D01*
X11999240Y-10946968D01*
X12048814Y-10943058D01*
X12076457Y-10931609D01*
X12084179Y-10911593D01*
X12084179Y-10959400D01*
X12081243Y-10959400D01*
X11931243Y-10959400D01*
X11916542Y-10965490D01*
X11905290Y-10976742D01*
X11899200Y-10991444D01*
X11899200Y-11007357D01*
X11899200Y-11157357D01*
X11905290Y-11172058D01*
X11916542Y-11183310D01*
X11931243Y-11189400D01*
X11947156Y-11189400D01*
X12097156Y-11189400D01*
X12111858Y-11183310D01*
X12123110Y-11172058D01*
X12129200Y-11157357D01*
X12129200Y-11357100D01*
X11658975Y-11357100D01*
X11726507Y-11289686D01*
X11770749Y-11183138D01*
X11770850Y-11067769D01*
X11726793Y-10961143D01*
X11645286Y-10879493D01*
X11538738Y-10835251D01*
X11423368Y-10835150D01*
X11316743Y-10879207D01*
X11235093Y-10960714D01*
X11190850Y-11067262D01*
X11190750Y-11182632D01*
X11234807Y-11289257D01*
X11302531Y-11357100D01*
X10601800Y-11357100D01*
X10601800Y-10055100D01*
X11302625Y-10055100D01*
X11235093Y-10122514D01*
X11190850Y-10229062D01*
X11190750Y-10344432D01*
X11234807Y-10451057D01*
X11316314Y-10532707D01*
X11422862Y-10576950D01*
X11524599Y-10577038D01*
X11262749Y-10750658D01*
X11261747Y-10751654D01*
X11260471Y-10752262D01*
X11156517Y-10829859D01*
X11147982Y-10826315D01*
X11114167Y-10826285D01*
X11082914Y-10839199D01*
X11058983Y-10863089D01*
X11046015Y-10894318D01*
X11045985Y-10928133D01*
X11058899Y-10959386D01*
X11082789Y-10983317D01*
X11114018Y-10996285D01*
X11147833Y-10996315D01*
X11179086Y-10983402D01*
X11203017Y-10959512D01*
X11215985Y-10928282D01*
X11216001Y-10910244D01*
X11319173Y-10833231D01*
X11954357Y-10412071D01*
X11991225Y-10427380D01*
X12036975Y-10427420D01*
X12079257Y-10409949D01*
X12111635Y-10377627D01*
X12129180Y-10335375D01*
X12129220Y-10289625D01*
X12111749Y-10247343D01*
X12079427Y-10214965D01*
X12037175Y-10197420D01*
X11991425Y-10197380D01*
X11949143Y-10214851D01*
X11916765Y-10247173D01*
X11899220Y-10289425D01*
X11899186Y-10328668D01*
X11731276Y-10440001D01*
X11770749Y-10344938D01*
X11770850Y-10229569D01*
X11726793Y-10122943D01*
X11659069Y-10055100D01*
X12144500Y-10055100D01*
X12144500Y-11357100D01*
G36*
X12144500Y-9707100D02*
X12140768Y-9707100D01*
X12140768Y-9185360D01*
X12136858Y-9135786D01*
X12129220Y-9117345D01*
X12129220Y-8893625D01*
X12111749Y-8851343D01*
X12079427Y-8818965D01*
X12037175Y-8801420D01*
X11991425Y-8801380D01*
X11949143Y-8818851D01*
X11916765Y-8851173D01*
X11899220Y-8893425D01*
X11899180Y-8939175D01*
X11916651Y-8981457D01*
X11948973Y-9013835D01*
X11991225Y-9031380D01*
X12036975Y-9031420D01*
X12079257Y-9013949D01*
X12111635Y-8981627D01*
X12129180Y-8939375D01*
X12129220Y-8893625D01*
X12129220Y-9117345D01*
X12125408Y-9108143D01*
X12105393Y-9100421D01*
X12084179Y-9121634D01*
X12084179Y-9079207D01*
X12076457Y-9059192D01*
X12029160Y-9043832D01*
X11979586Y-9047742D01*
X11951943Y-9059192D01*
X11944220Y-9079207D01*
X12014200Y-9149187D01*
X12084179Y-9079207D01*
X12084179Y-9121634D01*
X12035413Y-9170400D01*
X12105393Y-9240380D01*
X12125408Y-9232657D01*
X12140768Y-9185360D01*
X12140768Y-9707100D01*
X12129200Y-9707100D01*
X12129200Y-9507357D01*
X12129200Y-9491444D01*
X12129200Y-9341444D01*
X12123110Y-9326742D01*
X12111858Y-9315490D01*
X12097156Y-9309400D01*
X12084179Y-9309400D01*
X12084179Y-9261593D01*
X12014200Y-9191613D01*
X11992987Y-9212826D01*
X11992987Y-9170400D01*
X11923007Y-9100421D01*
X11902991Y-9108143D01*
X11887632Y-9155440D01*
X11891542Y-9205014D01*
X11902991Y-9232657D01*
X11923007Y-9240380D01*
X11992987Y-9170400D01*
X11992987Y-9212826D01*
X11944220Y-9261593D01*
X11951943Y-9281609D01*
X11999240Y-9296968D01*
X12048814Y-9293058D01*
X12076457Y-9281609D01*
X12084179Y-9261593D01*
X12084179Y-9309400D01*
X12081243Y-9309400D01*
X11931243Y-9309400D01*
X11916542Y-9315490D01*
X11905290Y-9326742D01*
X11899200Y-9341444D01*
X11899200Y-9357357D01*
X11899200Y-9507357D01*
X11905290Y-9522058D01*
X11916542Y-9533310D01*
X11931243Y-9539400D01*
X11947156Y-9539400D01*
X12097156Y-9539400D01*
X12111858Y-9533310D01*
X12123110Y-9522058D01*
X12129200Y-9507357D01*
X12129200Y-9707100D01*
X11658975Y-9707100D01*
X11726507Y-9639686D01*
X11770749Y-9533138D01*
X11770850Y-9417769D01*
X11726793Y-9311143D01*
X11645286Y-9229493D01*
X11538738Y-9185251D01*
X11423368Y-9185150D01*
X11316743Y-9229207D01*
X11235093Y-9310714D01*
X11190850Y-9417262D01*
X11190750Y-9532632D01*
X11234807Y-9639257D01*
X11302531Y-9707100D01*
X10601800Y-9707100D01*
X10601800Y-8405100D01*
X11302625Y-8405100D01*
X11235093Y-8472514D01*
X11190850Y-8579062D01*
X11190750Y-8694432D01*
X11234807Y-8801057D01*
X11316314Y-8882707D01*
X11422862Y-8926950D01*
X11524599Y-8927038D01*
X11262749Y-9100658D01*
X11261747Y-9101654D01*
X11260471Y-9102262D01*
X11156517Y-9179859D01*
X11147982Y-9176315D01*
X11114167Y-9176285D01*
X11082914Y-9189199D01*
X11058983Y-9213089D01*
X11046015Y-9244318D01*
X11045985Y-9278133D01*
X11058899Y-9309386D01*
X11082789Y-9333317D01*
X11114018Y-9346285D01*
X11147833Y-9346315D01*
X11179086Y-9333402D01*
X11203017Y-9309512D01*
X11215985Y-9278282D01*
X11216001Y-9260244D01*
X11319173Y-9183231D01*
X11954357Y-8762071D01*
X11991225Y-8777380D01*
X12036975Y-8777420D01*
X12079257Y-8759949D01*
X12111635Y-8727627D01*
X12129180Y-8685375D01*
X12129220Y-8639625D01*
X12111749Y-8597343D01*
X12079427Y-8564965D01*
X12037175Y-8547420D01*
X11991425Y-8547380D01*
X11949143Y-8564851D01*
X11916765Y-8597173D01*
X11899220Y-8639425D01*
X11899186Y-8678668D01*
X11731276Y-8790001D01*
X11770749Y-8694938D01*
X11770850Y-8579569D01*
X11726793Y-8472943D01*
X11659069Y-8405100D01*
X12144500Y-8405100D01*
X12144500Y-9707100D01*
X12144500Y-9707100D01*
G37*
X12144500Y-9707100D02*
X12140768Y-9707100D01*
X12140768Y-9185360D01*
X12136858Y-9135786D01*
X12129220Y-9117345D01*
X12129220Y-8893625D01*
X12111749Y-8851343D01*
X12079427Y-8818965D01*
X12037175Y-8801420D01*
X11991425Y-8801380D01*
X11949143Y-8818851D01*
X11916765Y-8851173D01*
X11899220Y-8893425D01*
X11899180Y-8939175D01*
X11916651Y-8981457D01*
X11948973Y-9013835D01*
X11991225Y-9031380D01*
X12036975Y-9031420D01*
X12079257Y-9013949D01*
X12111635Y-8981627D01*
X12129180Y-8939375D01*
X12129220Y-8893625D01*
X12129220Y-9117345D01*
X12125408Y-9108143D01*
X12105393Y-9100421D01*
X12084179Y-9121634D01*
X12084179Y-9079207D01*
X12076457Y-9059192D01*
X12029160Y-9043832D01*
X11979586Y-9047742D01*
X11951943Y-9059192D01*
X11944220Y-9079207D01*
X12014200Y-9149187D01*
X12084179Y-9079207D01*
X12084179Y-9121634D01*
X12035413Y-9170400D01*
X12105393Y-9240380D01*
X12125408Y-9232657D01*
X12140768Y-9185360D01*
X12140768Y-9707100D01*
X12129200Y-9707100D01*
X12129200Y-9507357D01*
X12129200Y-9491444D01*
X12129200Y-9341444D01*
X12123110Y-9326742D01*
X12111858Y-9315490D01*
X12097156Y-9309400D01*
X12084179Y-9309400D01*
X12084179Y-9261593D01*
X12014200Y-9191613D01*
X11992987Y-9212826D01*
X11992987Y-9170400D01*
X11923007Y-9100421D01*
X11902991Y-9108143D01*
X11887632Y-9155440D01*
X11891542Y-9205014D01*
X11902991Y-9232657D01*
X11923007Y-9240380D01*
X11992987Y-9170400D01*
X11992987Y-9212826D01*
X11944220Y-9261593D01*
X11951943Y-9281609D01*
X11999240Y-9296968D01*
X12048814Y-9293058D01*
X12076457Y-9281609D01*
X12084179Y-9261593D01*
X12084179Y-9309400D01*
X12081243Y-9309400D01*
X11931243Y-9309400D01*
X11916542Y-9315490D01*
X11905290Y-9326742D01*
X11899200Y-9341444D01*
X11899200Y-9357357D01*
X11899200Y-9507357D01*
X11905290Y-9522058D01*
X11916542Y-9533310D01*
X11931243Y-9539400D01*
X11947156Y-9539400D01*
X12097156Y-9539400D01*
X12111858Y-9533310D01*
X12123110Y-9522058D01*
X12129200Y-9507357D01*
X12129200Y-9707100D01*
X11658975Y-9707100D01*
X11726507Y-9639686D01*
X11770749Y-9533138D01*
X11770850Y-9417769D01*
X11726793Y-9311143D01*
X11645286Y-9229493D01*
X11538738Y-9185251D01*
X11423368Y-9185150D01*
X11316743Y-9229207D01*
X11235093Y-9310714D01*
X11190850Y-9417262D01*
X11190750Y-9532632D01*
X11234807Y-9639257D01*
X11302531Y-9707100D01*
X10601800Y-9707100D01*
X10601800Y-8405100D01*
X11302625Y-8405100D01*
X11235093Y-8472514D01*
X11190850Y-8579062D01*
X11190750Y-8694432D01*
X11234807Y-8801057D01*
X11316314Y-8882707D01*
X11422862Y-8926950D01*
X11524599Y-8927038D01*
X11262749Y-9100658D01*
X11261747Y-9101654D01*
X11260471Y-9102262D01*
X11156517Y-9179859D01*
X11147982Y-9176315D01*
X11114167Y-9176285D01*
X11082914Y-9189199D01*
X11058983Y-9213089D01*
X11046015Y-9244318D01*
X11045985Y-9278133D01*
X11058899Y-9309386D01*
X11082789Y-9333317D01*
X11114018Y-9346285D01*
X11147833Y-9346315D01*
X11179086Y-9333402D01*
X11203017Y-9309512D01*
X11215985Y-9278282D01*
X11216001Y-9260244D01*
X11319173Y-9183231D01*
X11954357Y-8762071D01*
X11991225Y-8777380D01*
X12036975Y-8777420D01*
X12079257Y-8759949D01*
X12111635Y-8727627D01*
X12129180Y-8685375D01*
X12129220Y-8639625D01*
X12111749Y-8597343D01*
X12079427Y-8564965D01*
X12037175Y-8547420D01*
X11991425Y-8547380D01*
X11949143Y-8564851D01*
X11916765Y-8597173D01*
X11899220Y-8639425D01*
X11899186Y-8678668D01*
X11731276Y-8790001D01*
X11770749Y-8694938D01*
X11770850Y-8579569D01*
X11726793Y-8472943D01*
X11659069Y-8405100D01*
X12144500Y-8405100D01*
X12144500Y-9707100D01*
M02*
