%FSLAX45Y45*%
G04 Gerber Fmt 4.5, Leading zero omitted, Abs format (unit mm)*
G04 Created by KiCad (PCBNEW (2014-07-12 BZR 4289 GOST-COMMITTERS)-product) date 15.03.2017 23:16:08*
%MOMM*%
G01*
G04 APERTURE LIST*
%ADD10C,0.150000*%
%ADD11C,0.200000*%
%ADD12C,0.100000*%
G04 APERTURE END LIST*
D10*
X11756238Y-9367267D02*
X11856238Y-9400600D01*
X11756238Y-9433933D01*
X11846714Y-9524410D02*
X11851476Y-9519648D01*
X11856238Y-9505362D01*
X11856238Y-9495838D01*
X11851476Y-9481552D01*
X11841952Y-9472029D01*
X11832429Y-9467267D01*
X11813381Y-9462505D01*
X11799095Y-9462505D01*
X11780048Y-9467267D01*
X11770524Y-9472029D01*
X11761000Y-9481552D01*
X11756238Y-9495838D01*
X11756238Y-9505362D01*
X11761000Y-9519648D01*
X11765762Y-9524410D01*
X11846714Y-9624410D02*
X11851476Y-9619648D01*
X11856238Y-9605362D01*
X11856238Y-9595838D01*
X11851476Y-9581552D01*
X11841952Y-9572029D01*
X11832429Y-9567267D01*
X11813381Y-9562505D01*
X11799095Y-9562505D01*
X11780048Y-9567267D01*
X11770524Y-9572029D01*
X11761000Y-9581552D01*
X11756238Y-9595838D01*
X11756238Y-9605362D01*
X11761000Y-9619648D01*
X11765762Y-9624410D01*
X11761000Y-9094210D02*
X11756238Y-9084686D01*
X11756238Y-9070400D01*
X11761000Y-9056114D01*
X11770524Y-9046591D01*
X11780048Y-9041829D01*
X11799095Y-9037067D01*
X11813381Y-9037067D01*
X11832429Y-9041829D01*
X11841952Y-9046591D01*
X11851476Y-9056114D01*
X11856238Y-9070400D01*
X11856238Y-9079924D01*
X11851476Y-9094210D01*
X11846714Y-9098972D01*
X11813381Y-9098972D01*
X11813381Y-9079924D01*
X11856238Y-9141829D02*
X11756238Y-9141829D01*
X11856238Y-9198972D01*
X11756238Y-9198972D01*
X11856238Y-9246591D02*
X11756238Y-9246591D01*
X11756238Y-9270400D01*
X11761000Y-9284686D01*
X11770524Y-9294210D01*
X11780048Y-9298972D01*
X11799095Y-9303733D01*
X11813381Y-9303733D01*
X11832429Y-9298972D01*
X11841952Y-9294210D01*
X11851476Y-9284686D01*
X11856238Y-9270400D01*
X11856238Y-9246591D01*
X11756238Y-8740200D02*
X11756238Y-8759248D01*
X11761000Y-8768772D01*
X11770524Y-8778295D01*
X11789571Y-8783057D01*
X11822905Y-8783057D01*
X11841952Y-8778295D01*
X11851476Y-8768772D01*
X11856238Y-8759248D01*
X11856238Y-8740200D01*
X11851476Y-8730676D01*
X11841952Y-8721152D01*
X11822905Y-8716391D01*
X11789571Y-8716391D01*
X11770524Y-8721152D01*
X11761000Y-8730676D01*
X11756238Y-8740200D01*
X11756238Y-8825914D02*
X11837190Y-8825914D01*
X11846714Y-8830676D01*
X11851476Y-8835438D01*
X11856238Y-8844962D01*
X11856238Y-8864010D01*
X11851476Y-8873533D01*
X11846714Y-8878295D01*
X11837190Y-8883057D01*
X11756238Y-8883057D01*
X11756238Y-8916391D02*
X11756238Y-8973533D01*
X11856238Y-8944962D02*
X11756238Y-8944962D01*
X12117052Y-8495391D02*
X12117052Y-8442057D01*
X12117052Y-8449676D02*
X12113243Y-8445867D01*
X12105624Y-8442057D01*
X12094195Y-8442057D01*
X12086576Y-8445867D01*
X12082767Y-8453486D01*
X12082767Y-8495391D01*
X12082767Y-8453486D02*
X12078957Y-8445867D01*
X12071338Y-8442057D01*
X12059909Y-8442057D01*
X12052290Y-8445867D01*
X12048481Y-8453486D01*
X12048481Y-8495391D01*
X11998957Y-8495391D02*
X12006576Y-8491581D01*
X12010386Y-8487771D01*
X12014195Y-8480152D01*
X12014195Y-8457295D01*
X12010386Y-8449676D01*
X12006576Y-8445867D01*
X11998957Y-8442057D01*
X11987528Y-8442057D01*
X11979909Y-8445867D01*
X11976100Y-8449676D01*
X11972290Y-8457295D01*
X11972290Y-8480152D01*
X11976100Y-8487771D01*
X11979909Y-8491581D01*
X11987528Y-8495391D01*
X11998957Y-8495391D01*
X11903719Y-8495391D02*
X11903719Y-8415391D01*
X11903719Y-8491581D02*
X11911338Y-8495391D01*
X11926576Y-8495391D01*
X11934195Y-8491581D01*
X11938005Y-8487771D01*
X11941814Y-8480152D01*
X11941814Y-8457295D01*
X11938005Y-8449676D01*
X11934195Y-8445867D01*
X11926576Y-8442057D01*
X11911338Y-8442057D01*
X11903719Y-8445867D01*
X11835147Y-8491581D02*
X11842766Y-8495391D01*
X11858005Y-8495391D01*
X11865624Y-8491581D01*
X11869433Y-8483962D01*
X11869433Y-8453486D01*
X11865624Y-8445867D01*
X11858005Y-8442057D01*
X11842766Y-8442057D01*
X11835147Y-8445867D01*
X11831338Y-8453486D01*
X11831338Y-8461105D01*
X11869433Y-8468724D01*
D11*
X11756238Y-8397686D02*
X11756238Y-8443400D01*
X11856238Y-8420543D02*
X11756238Y-8420543D01*
X11856238Y-8481495D02*
X11851476Y-8473876D01*
X11846714Y-8470067D01*
X11837190Y-8466257D01*
X11808619Y-8466257D01*
X11799095Y-8470067D01*
X11794333Y-8473876D01*
X11789571Y-8481495D01*
X11789571Y-8492924D01*
X11794333Y-8500543D01*
X11799095Y-8504352D01*
X11808619Y-8508162D01*
X11837190Y-8508162D01*
X11846714Y-8504352D01*
X11851476Y-8500543D01*
X11856238Y-8492924D01*
X11856238Y-8481495D01*
X11789571Y-8576733D02*
X11856238Y-8576733D01*
X11789571Y-8542448D02*
X11841952Y-8542448D01*
X11851476Y-8546257D01*
X11856238Y-8553876D01*
X11856238Y-8565305D01*
X11851476Y-8572924D01*
X11846714Y-8576733D01*
X11851476Y-8649114D02*
X11856238Y-8641495D01*
X11856238Y-8626257D01*
X11851476Y-8618638D01*
X11846714Y-8614829D01*
X11837190Y-8611019D01*
X11808619Y-8611019D01*
X11799095Y-8614829D01*
X11794333Y-8618638D01*
X11789571Y-8626257D01*
X11789571Y-8641495D01*
X11794333Y-8649114D01*
X11856238Y-8683400D02*
X11756238Y-8683400D01*
X11856238Y-8717686D02*
X11803857Y-8717686D01*
X11794333Y-8713876D01*
X11789571Y-8706257D01*
X11789571Y-8694829D01*
X11794333Y-8687209D01*
X11799095Y-8683400D01*
X11851476Y-8812924D02*
X11856238Y-8824352D01*
X11856238Y-8843400D01*
X11851476Y-8851019D01*
X11846714Y-8854829D01*
X11837190Y-8858638D01*
X11827667Y-8858638D01*
X11818143Y-8854829D01*
X11813381Y-8851019D01*
X11808619Y-8843400D01*
X11803857Y-8828162D01*
X11799095Y-8820543D01*
X11794333Y-8816733D01*
X11784809Y-8812924D01*
X11775286Y-8812924D01*
X11765762Y-8816733D01*
X11761000Y-8820543D01*
X11756238Y-8828162D01*
X11756238Y-8847210D01*
X11761000Y-8858638D01*
X11851476Y-8923400D02*
X11856238Y-8915781D01*
X11856238Y-8900543D01*
X11851476Y-8892924D01*
X11841952Y-8889114D01*
X11803857Y-8889114D01*
X11794333Y-8892924D01*
X11789571Y-8900543D01*
X11789571Y-8915781D01*
X11794333Y-8923400D01*
X11803857Y-8927210D01*
X11813381Y-8927210D01*
X11822905Y-8889114D01*
X11789571Y-8961495D02*
X11856238Y-8961495D01*
X11799095Y-8961495D02*
X11794333Y-8965305D01*
X11789571Y-8972924D01*
X11789571Y-8984352D01*
X11794333Y-8991971D01*
X11803857Y-8995781D01*
X11856238Y-8995781D01*
X11851476Y-9030067D02*
X11856238Y-9037686D01*
X11856238Y-9052924D01*
X11851476Y-9060543D01*
X11841952Y-9064352D01*
X11837190Y-9064352D01*
X11827667Y-9060543D01*
X11822905Y-9052924D01*
X11822905Y-9041495D01*
X11818143Y-9033876D01*
X11808619Y-9030067D01*
X11803857Y-9030067D01*
X11794333Y-9033876D01*
X11789571Y-9041495D01*
X11789571Y-9052924D01*
X11794333Y-9060543D01*
X11856238Y-9110067D02*
X11851476Y-9102448D01*
X11846714Y-9098638D01*
X11837190Y-9094829D01*
X11808619Y-9094829D01*
X11799095Y-9098638D01*
X11794333Y-9102448D01*
X11789571Y-9110067D01*
X11789571Y-9121495D01*
X11794333Y-9129114D01*
X11799095Y-9132924D01*
X11808619Y-9136733D01*
X11837190Y-9136733D01*
X11846714Y-9132924D01*
X11851476Y-9129114D01*
X11856238Y-9121495D01*
X11856238Y-9110067D01*
X11856238Y-9171019D02*
X11789571Y-9171019D01*
X11808619Y-9171019D02*
X11799095Y-9174829D01*
X11794333Y-9178638D01*
X11789571Y-9186257D01*
X11789571Y-9193876D01*
X11856238Y-9281495D02*
X11789571Y-9281495D01*
X11799095Y-9281495D02*
X11794333Y-9285305D01*
X11789571Y-9292924D01*
X11789571Y-9304353D01*
X11794333Y-9311972D01*
X11803857Y-9315781D01*
X11856238Y-9315781D01*
X11803857Y-9315781D02*
X11794333Y-9319591D01*
X11789571Y-9327210D01*
X11789571Y-9338638D01*
X11794333Y-9346257D01*
X11803857Y-9350067D01*
X11856238Y-9350067D01*
X11856238Y-9399591D02*
X11851476Y-9391972D01*
X11846714Y-9388162D01*
X11837190Y-9384353D01*
X11808619Y-9384353D01*
X11799095Y-9388162D01*
X11794333Y-9391972D01*
X11789571Y-9399591D01*
X11789571Y-9411019D01*
X11794333Y-9418638D01*
X11799095Y-9422448D01*
X11808619Y-9426257D01*
X11837190Y-9426257D01*
X11846714Y-9422448D01*
X11851476Y-9418638D01*
X11856238Y-9411019D01*
X11856238Y-9399591D01*
X11856238Y-9494829D02*
X11756238Y-9494829D01*
X11851476Y-9494829D02*
X11856238Y-9487210D01*
X11856238Y-9471972D01*
X11851476Y-9464353D01*
X11846714Y-9460543D01*
X11837190Y-9456734D01*
X11808619Y-9456734D01*
X11799095Y-9460543D01*
X11794333Y-9464353D01*
X11789571Y-9471972D01*
X11789571Y-9487210D01*
X11794333Y-9494829D01*
X11789571Y-9567210D02*
X11856238Y-9567210D01*
X11789571Y-9532924D02*
X11841952Y-9532924D01*
X11851476Y-9536734D01*
X11856238Y-9544353D01*
X11856238Y-9555781D01*
X11851476Y-9563400D01*
X11846714Y-9567210D01*
X11856238Y-9616734D02*
X11851476Y-9609115D01*
X11841952Y-9605305D01*
X11756238Y-9605305D01*
X11851476Y-9677686D02*
X11856238Y-9670067D01*
X11856238Y-9654829D01*
X11851476Y-9647210D01*
X11841952Y-9643400D01*
X11803857Y-9643400D01*
X11794333Y-9647210D01*
X11789571Y-9654829D01*
X11789571Y-9670067D01*
X11794333Y-9677686D01*
X11803857Y-9681496D01*
X11813381Y-9681496D01*
X11822905Y-9643400D01*
X11756238Y-10047686D02*
X11756238Y-10093400D01*
X11856238Y-10070543D02*
X11756238Y-10070543D01*
X11856238Y-10131495D02*
X11851476Y-10123876D01*
X11846714Y-10120067D01*
X11837190Y-10116257D01*
X11808619Y-10116257D01*
X11799095Y-10120067D01*
X11794333Y-10123876D01*
X11789571Y-10131495D01*
X11789571Y-10142924D01*
X11794333Y-10150543D01*
X11799095Y-10154352D01*
X11808619Y-10158162D01*
X11837190Y-10158162D01*
X11846714Y-10154352D01*
X11851476Y-10150543D01*
X11856238Y-10142924D01*
X11856238Y-10131495D01*
X11789571Y-10226733D02*
X11856238Y-10226733D01*
X11789571Y-10192448D02*
X11841952Y-10192448D01*
X11851476Y-10196257D01*
X11856238Y-10203876D01*
X11856238Y-10215305D01*
X11851476Y-10222924D01*
X11846714Y-10226733D01*
X11851476Y-10299114D02*
X11856238Y-10291495D01*
X11856238Y-10276257D01*
X11851476Y-10268638D01*
X11846714Y-10264829D01*
X11837190Y-10261019D01*
X11808619Y-10261019D01*
X11799095Y-10264829D01*
X11794333Y-10268638D01*
X11789571Y-10276257D01*
X11789571Y-10291495D01*
X11794333Y-10299114D01*
X11856238Y-10333400D02*
X11756238Y-10333400D01*
X11856238Y-10367686D02*
X11803857Y-10367686D01*
X11794333Y-10363876D01*
X11789571Y-10356257D01*
X11789571Y-10344829D01*
X11794333Y-10337209D01*
X11799095Y-10333400D01*
X11851476Y-10462924D02*
X11856238Y-10474352D01*
X11856238Y-10493400D01*
X11851476Y-10501019D01*
X11846714Y-10504829D01*
X11837190Y-10508638D01*
X11827667Y-10508638D01*
X11818143Y-10504829D01*
X11813381Y-10501019D01*
X11808619Y-10493400D01*
X11803857Y-10478162D01*
X11799095Y-10470543D01*
X11794333Y-10466733D01*
X11784809Y-10462924D01*
X11775286Y-10462924D01*
X11765762Y-10466733D01*
X11761000Y-10470543D01*
X11756238Y-10478162D01*
X11756238Y-10497210D01*
X11761000Y-10508638D01*
X11851476Y-10573400D02*
X11856238Y-10565781D01*
X11856238Y-10550543D01*
X11851476Y-10542924D01*
X11841952Y-10539114D01*
X11803857Y-10539114D01*
X11794333Y-10542924D01*
X11789571Y-10550543D01*
X11789571Y-10565781D01*
X11794333Y-10573400D01*
X11803857Y-10577210D01*
X11813381Y-10577210D01*
X11822905Y-10539114D01*
X11789571Y-10611495D02*
X11856238Y-10611495D01*
X11799095Y-10611495D02*
X11794333Y-10615305D01*
X11789571Y-10622924D01*
X11789571Y-10634352D01*
X11794333Y-10641971D01*
X11803857Y-10645781D01*
X11856238Y-10645781D01*
X11851476Y-10680067D02*
X11856238Y-10687686D01*
X11856238Y-10702924D01*
X11851476Y-10710543D01*
X11841952Y-10714352D01*
X11837190Y-10714352D01*
X11827667Y-10710543D01*
X11822905Y-10702924D01*
X11822905Y-10691495D01*
X11818143Y-10683876D01*
X11808619Y-10680067D01*
X11803857Y-10680067D01*
X11794333Y-10683876D01*
X11789571Y-10691495D01*
X11789571Y-10702924D01*
X11794333Y-10710543D01*
X11856238Y-10760067D02*
X11851476Y-10752448D01*
X11846714Y-10748638D01*
X11837190Y-10744829D01*
X11808619Y-10744829D01*
X11799095Y-10748638D01*
X11794333Y-10752448D01*
X11789571Y-10760067D01*
X11789571Y-10771495D01*
X11794333Y-10779114D01*
X11799095Y-10782924D01*
X11808619Y-10786733D01*
X11837190Y-10786733D01*
X11846714Y-10782924D01*
X11851476Y-10779114D01*
X11856238Y-10771495D01*
X11856238Y-10760067D01*
X11856238Y-10821019D02*
X11789571Y-10821019D01*
X11808619Y-10821019D02*
X11799095Y-10824829D01*
X11794333Y-10828638D01*
X11789571Y-10836257D01*
X11789571Y-10843876D01*
X11856238Y-10931495D02*
X11789571Y-10931495D01*
X11799095Y-10931495D02*
X11794333Y-10935305D01*
X11789571Y-10942924D01*
X11789571Y-10954353D01*
X11794333Y-10961972D01*
X11803857Y-10965781D01*
X11856238Y-10965781D01*
X11803857Y-10965781D02*
X11794333Y-10969591D01*
X11789571Y-10977210D01*
X11789571Y-10988638D01*
X11794333Y-10996257D01*
X11803857Y-11000067D01*
X11856238Y-11000067D01*
X11856238Y-11049591D02*
X11851476Y-11041972D01*
X11846714Y-11038162D01*
X11837190Y-11034353D01*
X11808619Y-11034353D01*
X11799095Y-11038162D01*
X11794333Y-11041972D01*
X11789571Y-11049591D01*
X11789571Y-11061019D01*
X11794333Y-11068638D01*
X11799095Y-11072448D01*
X11808619Y-11076257D01*
X11837190Y-11076257D01*
X11846714Y-11072448D01*
X11851476Y-11068638D01*
X11856238Y-11061019D01*
X11856238Y-11049591D01*
X11856238Y-11144829D02*
X11756238Y-11144829D01*
X11851476Y-11144829D02*
X11856238Y-11137210D01*
X11856238Y-11121972D01*
X11851476Y-11114353D01*
X11846714Y-11110543D01*
X11837190Y-11106734D01*
X11808619Y-11106734D01*
X11799095Y-11110543D01*
X11794333Y-11114353D01*
X11789571Y-11121972D01*
X11789571Y-11137210D01*
X11794333Y-11144829D01*
X11789571Y-11217210D02*
X11856238Y-11217210D01*
X11789571Y-11182924D02*
X11841952Y-11182924D01*
X11851476Y-11186734D01*
X11856238Y-11194353D01*
X11856238Y-11205781D01*
X11851476Y-11213400D01*
X11846714Y-11217210D01*
X11856238Y-11266734D02*
X11851476Y-11259114D01*
X11841952Y-11255305D01*
X11756238Y-11255305D01*
X11851476Y-11327686D02*
X11856238Y-11320067D01*
X11856238Y-11304829D01*
X11851476Y-11297210D01*
X11841952Y-11293400D01*
X11803857Y-11293400D01*
X11794333Y-11297210D01*
X11789571Y-11304829D01*
X11789571Y-11320067D01*
X11794333Y-11327686D01*
X11803857Y-11331495D01*
X11813381Y-11331495D01*
X11822905Y-11293400D01*
D10*
X12117052Y-10145391D02*
X12117052Y-10092057D01*
X12117052Y-10099676D02*
X12113243Y-10095867D01*
X12105624Y-10092057D01*
X12094195Y-10092057D01*
X12086576Y-10095867D01*
X12082767Y-10103486D01*
X12082767Y-10145391D01*
X12082767Y-10103486D02*
X12078957Y-10095867D01*
X12071338Y-10092057D01*
X12059909Y-10092057D01*
X12052290Y-10095867D01*
X12048481Y-10103486D01*
X12048481Y-10145391D01*
X11998957Y-10145391D02*
X12006576Y-10141581D01*
X12010386Y-10137771D01*
X12014195Y-10130152D01*
X12014195Y-10107295D01*
X12010386Y-10099676D01*
X12006576Y-10095867D01*
X11998957Y-10092057D01*
X11987528Y-10092057D01*
X11979909Y-10095867D01*
X11976100Y-10099676D01*
X11972290Y-10107295D01*
X11972290Y-10130152D01*
X11976100Y-10137771D01*
X11979909Y-10141581D01*
X11987528Y-10145391D01*
X11998957Y-10145391D01*
X11903719Y-10145391D02*
X11903719Y-10065391D01*
X11903719Y-10141581D02*
X11911338Y-10145391D01*
X11926576Y-10145391D01*
X11934195Y-10141581D01*
X11938005Y-10137771D01*
X11941814Y-10130152D01*
X11941814Y-10107295D01*
X11938005Y-10099676D01*
X11934195Y-10095867D01*
X11926576Y-10092057D01*
X11911338Y-10092057D01*
X11903719Y-10095867D01*
X11835147Y-10141581D02*
X11842766Y-10145391D01*
X11858005Y-10145391D01*
X11865624Y-10141581D01*
X11869433Y-10133962D01*
X11869433Y-10103486D01*
X11865624Y-10095867D01*
X11858005Y-10092057D01*
X11842766Y-10092057D01*
X11835147Y-10095867D01*
X11831338Y-10103486D01*
X11831338Y-10111105D01*
X11869433Y-10118724D01*
X11756238Y-10390200D02*
X11756238Y-10409248D01*
X11761000Y-10418772D01*
X11770524Y-10428295D01*
X11789571Y-10433057D01*
X11822905Y-10433057D01*
X11841952Y-10428295D01*
X11851476Y-10418772D01*
X11856238Y-10409248D01*
X11856238Y-10390200D01*
X11851476Y-10380676D01*
X11841952Y-10371152D01*
X11822905Y-10366391D01*
X11789571Y-10366391D01*
X11770524Y-10371152D01*
X11761000Y-10380676D01*
X11756238Y-10390200D01*
X11756238Y-10475914D02*
X11837190Y-10475914D01*
X11846714Y-10480676D01*
X11851476Y-10485438D01*
X11856238Y-10494962D01*
X11856238Y-10514010D01*
X11851476Y-10523533D01*
X11846714Y-10528295D01*
X11837190Y-10533057D01*
X11756238Y-10533057D01*
X11756238Y-10566391D02*
X11756238Y-10623533D01*
X11856238Y-10594962D02*
X11756238Y-10594962D01*
X11761000Y-10744210D02*
X11756238Y-10734686D01*
X11756238Y-10720400D01*
X11761000Y-10706114D01*
X11770524Y-10696591D01*
X11780048Y-10691829D01*
X11799095Y-10687067D01*
X11813381Y-10687067D01*
X11832429Y-10691829D01*
X11841952Y-10696591D01*
X11851476Y-10706114D01*
X11856238Y-10720400D01*
X11856238Y-10729924D01*
X11851476Y-10744210D01*
X11846714Y-10748972D01*
X11813381Y-10748972D01*
X11813381Y-10729924D01*
X11856238Y-10791829D02*
X11756238Y-10791829D01*
X11856238Y-10848972D01*
X11756238Y-10848972D01*
X11856238Y-10896591D02*
X11756238Y-10896591D01*
X11756238Y-10920400D01*
X11761000Y-10934686D01*
X11770524Y-10944210D01*
X11780048Y-10948972D01*
X11799095Y-10953733D01*
X11813381Y-10953733D01*
X11832429Y-10948972D01*
X11841952Y-10944210D01*
X11851476Y-10934686D01*
X11856238Y-10920400D01*
X11856238Y-10896591D01*
X11756238Y-11017267D02*
X11856238Y-11050600D01*
X11756238Y-11083933D01*
X11846714Y-11174410D02*
X11851476Y-11169648D01*
X11856238Y-11155362D01*
X11856238Y-11145838D01*
X11851476Y-11131552D01*
X11841952Y-11122029D01*
X11832429Y-11117267D01*
X11813381Y-11112505D01*
X11799095Y-11112505D01*
X11780048Y-11117267D01*
X11770524Y-11122029D01*
X11761000Y-11131552D01*
X11756238Y-11145838D01*
X11756238Y-11155362D01*
X11761000Y-11169648D01*
X11765762Y-11174410D01*
X11846714Y-11274410D02*
X11851476Y-11269648D01*
X11856238Y-11255362D01*
X11856238Y-11245838D01*
X11851476Y-11231552D01*
X11841952Y-11222029D01*
X11832429Y-11217267D01*
X11813381Y-11212505D01*
X11799095Y-11212505D01*
X11780048Y-11217267D01*
X11770524Y-11222029D01*
X11761000Y-11231552D01*
X11756238Y-11245838D01*
X11756238Y-11255362D01*
X11761000Y-11269648D01*
X11765762Y-11274410D01*
X12141200Y-8598900D02*
X12077700Y-8535400D01*
X11950700Y-8535400D02*
X11887200Y-8598900D01*
X11887200Y-8725900D02*
X11950700Y-8789400D01*
X12141200Y-8598900D02*
X12141200Y-8725900D01*
X12141200Y-8725900D02*
X12077700Y-8789400D01*
X11950700Y-8535400D02*
X12077700Y-8535400D01*
X12077700Y-8789400D02*
X11950700Y-8789400D01*
X11887200Y-8598900D02*
X11887200Y-8725900D01*
X10058400Y-9068800D02*
X10312400Y-9068800D01*
X10312400Y-9068800D02*
X10312400Y-9322800D01*
X10312400Y-9322800D02*
X10058400Y-9322800D01*
X10058400Y-9322800D02*
X10058400Y-9068800D01*
X12141200Y-8979900D02*
X12077700Y-9043400D01*
X11950700Y-8789400D02*
X11887200Y-8852900D01*
X11887200Y-8979900D02*
X11950700Y-9043400D01*
X12077700Y-8789400D02*
X12141200Y-8852900D01*
X11950700Y-8789400D02*
X12077700Y-8789400D01*
X11887200Y-8979900D02*
X11887200Y-8852900D01*
X12141200Y-8852900D02*
X12141200Y-8979900D01*
X12141200Y-9106900D02*
X12141200Y-9233900D01*
X11887200Y-9233900D02*
X11887200Y-9106900D01*
X12077700Y-9043400D02*
X12141200Y-9106900D01*
X11887200Y-9233900D02*
X11950700Y-9297400D01*
X11950700Y-9043400D02*
X11887200Y-9106900D01*
X12141200Y-9233900D02*
X12077700Y-9297400D01*
X12141200Y-9487900D02*
X12077700Y-9551400D01*
X11950700Y-9297400D02*
X11887200Y-9360900D01*
X11887200Y-9487900D02*
X11950700Y-9551400D01*
X12077700Y-9297400D02*
X12141200Y-9360900D01*
X12090400Y-9589500D02*
X12052300Y-9614900D01*
X11938000Y-9589500D02*
X12090400Y-9589500D01*
X11950700Y-9297400D02*
X12077700Y-9297400D01*
X11887200Y-9487900D02*
X11887200Y-9360900D01*
X12141200Y-9360900D02*
X12141200Y-9487900D01*
X12077700Y-9551400D02*
X11950700Y-9551400D01*
D12*
G36*
X11010015Y-9497665D02*
X11007328Y-9508005D01*
X11001377Y-9516684D01*
X10992105Y-9523754D01*
X10979454Y-9529268D01*
X10973741Y-9530968D01*
X10966945Y-9532129D01*
X10957345Y-9532901D01*
X10945877Y-9533289D01*
X10933478Y-9533300D01*
X10921085Y-9532938D01*
X10909635Y-9532210D01*
X10900067Y-9531120D01*
X10896600Y-9530509D01*
X10888479Y-9528335D01*
X10879502Y-9525107D01*
X10870200Y-9521120D01*
X10861103Y-9516672D01*
X10852741Y-9512057D01*
X10845645Y-9507574D01*
X10840344Y-9503519D01*
X10837370Y-9500188D01*
X10837251Y-9497877D01*
X10837650Y-9497543D01*
X10842873Y-9495922D01*
X10850707Y-9496122D01*
X10861326Y-9498170D01*
X10874904Y-9502096D01*
X10884093Y-9505206D01*
X10901995Y-9511228D01*
X10917039Y-9515587D01*
X10929715Y-9518338D01*
X10940515Y-9519535D01*
X10949928Y-9519234D01*
X10958444Y-9517488D01*
X10966447Y-9514404D01*
X10973187Y-9510480D01*
X10978509Y-9505967D01*
X10981837Y-9501521D01*
X10982600Y-9497798D01*
X10982017Y-9496608D01*
X10977958Y-9493931D01*
X10972697Y-9492202D01*
X10972697Y-9470975D01*
X10971222Y-9468707D01*
X10966956Y-9464936D01*
X10965740Y-9463962D01*
X10953522Y-9455519D01*
X10940632Y-9449350D01*
X10930559Y-9445983D01*
X10921258Y-9444084D01*
X10911500Y-9443443D01*
X10901993Y-9443941D01*
X10893444Y-9445456D01*
X10886561Y-9447867D01*
X10882052Y-9451053D01*
X10880607Y-9454514D01*
X10882401Y-9458135D01*
X10887434Y-9461672D01*
X10895183Y-9464981D01*
X10905123Y-9467917D01*
X10916731Y-9470338D01*
X10929483Y-9472099D01*
X10942857Y-9473057D01*
X10948657Y-9473186D01*
X10957231Y-9473138D01*
X10964586Y-9472904D01*
X10969790Y-9472525D01*
X10971701Y-9472178D01*
X10972697Y-9470975D01*
X10972697Y-9492202D01*
X10970335Y-9491426D01*
X10959096Y-9489080D01*
X10944184Y-9486882D01*
X10932881Y-9485567D01*
X10911260Y-9482755D01*
X10893200Y-9479334D01*
X10878740Y-9475313D01*
X10867914Y-9470704D01*
X10860760Y-9465517D01*
X10859095Y-9463518D01*
X10856322Y-9456664D01*
X10856834Y-9449458D01*
X10860281Y-9442523D01*
X10866312Y-9436480D01*
X10874577Y-9431952D01*
X10877363Y-9431006D01*
X10890183Y-9428737D01*
X10905347Y-9428674D01*
X10922204Y-9430743D01*
X10940100Y-9434873D01*
X10954500Y-9439528D01*
X10972242Y-9447130D01*
X10986701Y-9455747D01*
X10997788Y-9465286D01*
X11005414Y-9475653D01*
X11009489Y-9486757D01*
X11010015Y-9497665D01*
X11010015Y-9497665D01*
X11010015Y-9497665D01*
G37*
X11010015Y-9497665D02*
X11007328Y-9508005D01*
X11001377Y-9516684D01*
X10992105Y-9523754D01*
X10979454Y-9529268D01*
X10973741Y-9530968D01*
X10966945Y-9532129D01*
X10957345Y-9532901D01*
X10945877Y-9533289D01*
X10933478Y-9533300D01*
X10921085Y-9532938D01*
X10909635Y-9532210D01*
X10900067Y-9531120D01*
X10896600Y-9530509D01*
X10888479Y-9528335D01*
X10879502Y-9525107D01*
X10870200Y-9521120D01*
X10861103Y-9516672D01*
X10852741Y-9512057D01*
X10845645Y-9507574D01*
X10840344Y-9503519D01*
X10837370Y-9500188D01*
X10837251Y-9497877D01*
X10837650Y-9497543D01*
X10842873Y-9495922D01*
X10850707Y-9496122D01*
X10861326Y-9498170D01*
X10874904Y-9502096D01*
X10884093Y-9505206D01*
X10901995Y-9511228D01*
X10917039Y-9515587D01*
X10929715Y-9518338D01*
X10940515Y-9519535D01*
X10949928Y-9519234D01*
X10958444Y-9517488D01*
X10966447Y-9514404D01*
X10973187Y-9510480D01*
X10978509Y-9505967D01*
X10981837Y-9501521D01*
X10982600Y-9497798D01*
X10982017Y-9496608D01*
X10977958Y-9493931D01*
X10972697Y-9492202D01*
X10972697Y-9470975D01*
X10971222Y-9468707D01*
X10966956Y-9464936D01*
X10965740Y-9463962D01*
X10953522Y-9455519D01*
X10940632Y-9449350D01*
X10930559Y-9445983D01*
X10921258Y-9444084D01*
X10911500Y-9443443D01*
X10901993Y-9443941D01*
X10893444Y-9445456D01*
X10886561Y-9447867D01*
X10882052Y-9451053D01*
X10880607Y-9454514D01*
X10882401Y-9458135D01*
X10887434Y-9461672D01*
X10895183Y-9464981D01*
X10905123Y-9467917D01*
X10916731Y-9470338D01*
X10929483Y-9472099D01*
X10942857Y-9473057D01*
X10948657Y-9473186D01*
X10957231Y-9473138D01*
X10964586Y-9472904D01*
X10969790Y-9472525D01*
X10971701Y-9472178D01*
X10972697Y-9470975D01*
X10972697Y-9492202D01*
X10970335Y-9491426D01*
X10959096Y-9489080D01*
X10944184Y-9486882D01*
X10932881Y-9485567D01*
X10911260Y-9482755D01*
X10893200Y-9479334D01*
X10878740Y-9475313D01*
X10867914Y-9470704D01*
X10860760Y-9465517D01*
X10859095Y-9463518D01*
X10856322Y-9456664D01*
X10856834Y-9449458D01*
X10860281Y-9442523D01*
X10866312Y-9436480D01*
X10874577Y-9431952D01*
X10877363Y-9431006D01*
X10890183Y-9428737D01*
X10905347Y-9428674D01*
X10922204Y-9430743D01*
X10940100Y-9434873D01*
X10954500Y-9439528D01*
X10972242Y-9447130D01*
X10986701Y-9455747D01*
X10997788Y-9465286D01*
X11005414Y-9475653D01*
X11009489Y-9486757D01*
X11010015Y-9497665D01*
X11010015Y-9497665D01*
G36*
X10835450Y-9389034D02*
X10833885Y-9390491D01*
X10829894Y-9392735D01*
X10826985Y-9394103D01*
X10822523Y-9396331D01*
X10819645Y-9398765D01*
X10818304Y-9402022D01*
X10818455Y-9406717D01*
X10820053Y-9413467D01*
X10823051Y-9422887D01*
X10824523Y-9427222D01*
X10829399Y-9444500D01*
X10831381Y-9459614D01*
X10830438Y-9472839D01*
X10826539Y-9484452D01*
X10819654Y-9494728D01*
X10816770Y-9497824D01*
X10808087Y-9504960D01*
X10799160Y-9509579D01*
X10798832Y-9509693D01*
X10789328Y-9511779D01*
X10777664Y-9512618D01*
X10765226Y-9512221D01*
X10753402Y-9510601D01*
X10747963Y-9509280D01*
X10735487Y-9504974D01*
X10726687Y-9500382D01*
X10722426Y-9496644D01*
X10720988Y-9494562D01*
X10721922Y-9493989D01*
X10725847Y-9494617D01*
X10726326Y-9494714D01*
X10737564Y-9496693D01*
X10748796Y-9498150D01*
X10758993Y-9498989D01*
X10767129Y-9499115D01*
X10770399Y-9498838D01*
X10781590Y-9495322D01*
X10791471Y-9488583D01*
X10799371Y-9479108D01*
X10800645Y-9476945D01*
X10803200Y-9472060D01*
X10804837Y-9467843D01*
X10805752Y-9463227D01*
X10806144Y-9457142D01*
X10806212Y-9448520D01*
X10806207Y-9446978D01*
X10805922Y-9436425D01*
X10805028Y-9426955D01*
X10803318Y-9417631D01*
X10800586Y-9407514D01*
X10796628Y-9395670D01*
X10792483Y-9384436D01*
X10789587Y-9376592D01*
X10787347Y-9370149D01*
X10786011Y-9365847D01*
X10785771Y-9364433D01*
X10787607Y-9364906D01*
X10792049Y-9366775D01*
X10798373Y-9369681D01*
X10805856Y-9373265D01*
X10813772Y-9377170D01*
X10821400Y-9381038D01*
X10828015Y-9384509D01*
X10832894Y-9387226D01*
X10835312Y-9388829D01*
X10835450Y-9389034D01*
X10835450Y-9389034D01*
X10835450Y-9389034D01*
G37*
X10835450Y-9389034D02*
X10833885Y-9390491D01*
X10829894Y-9392735D01*
X10826985Y-9394103D01*
X10822523Y-9396331D01*
X10819645Y-9398765D01*
X10818304Y-9402022D01*
X10818455Y-9406717D01*
X10820053Y-9413467D01*
X10823051Y-9422887D01*
X10824523Y-9427222D01*
X10829399Y-9444500D01*
X10831381Y-9459614D01*
X10830438Y-9472839D01*
X10826539Y-9484452D01*
X10819654Y-9494728D01*
X10816770Y-9497824D01*
X10808087Y-9504960D01*
X10799160Y-9509579D01*
X10798832Y-9509693D01*
X10789328Y-9511779D01*
X10777664Y-9512618D01*
X10765226Y-9512221D01*
X10753402Y-9510601D01*
X10747963Y-9509280D01*
X10735487Y-9504974D01*
X10726687Y-9500382D01*
X10722426Y-9496644D01*
X10720988Y-9494562D01*
X10721922Y-9493989D01*
X10725847Y-9494617D01*
X10726326Y-9494714D01*
X10737564Y-9496693D01*
X10748796Y-9498150D01*
X10758993Y-9498989D01*
X10767129Y-9499115D01*
X10770399Y-9498838D01*
X10781590Y-9495322D01*
X10791471Y-9488583D01*
X10799371Y-9479108D01*
X10800645Y-9476945D01*
X10803200Y-9472060D01*
X10804837Y-9467843D01*
X10805752Y-9463227D01*
X10806144Y-9457142D01*
X10806212Y-9448520D01*
X10806207Y-9446978D01*
X10805922Y-9436425D01*
X10805028Y-9426955D01*
X10803318Y-9417631D01*
X10800586Y-9407514D01*
X10796628Y-9395670D01*
X10792483Y-9384436D01*
X10789587Y-9376592D01*
X10787347Y-9370149D01*
X10786011Y-9365847D01*
X10785771Y-9364433D01*
X10787607Y-9364906D01*
X10792049Y-9366775D01*
X10798373Y-9369681D01*
X10805856Y-9373265D01*
X10813772Y-9377170D01*
X10821400Y-9381038D01*
X10828015Y-9384509D01*
X10832894Y-9387226D01*
X10835312Y-9388829D01*
X10835450Y-9389034D01*
X10835450Y-9389034D01*
G36*
X10737163Y-9440399D02*
X10734648Y-9451499D01*
X10729073Y-9461359D01*
X10720665Y-9469449D01*
X10709650Y-9475237D01*
X10709516Y-9475281D01*
X10709516Y-9421081D01*
X10707077Y-9409471D01*
X10701484Y-9398715D01*
X10692935Y-9389199D01*
X10681631Y-9381308D01*
X10668139Y-9375546D01*
X10658628Y-9373143D01*
X10648679Y-9371688D01*
X10639531Y-9371289D01*
X10632422Y-9372052D01*
X10631311Y-9372367D01*
X10628766Y-9374593D01*
X10624917Y-9379793D01*
X10620058Y-9387535D01*
X10615476Y-9395571D01*
X10603404Y-9417527D01*
X10608684Y-9427611D01*
X10613112Y-9434502D01*
X10619030Y-9441761D01*
X10623480Y-9446251D01*
X10636614Y-9456328D01*
X10649759Y-9463071D01*
X10662648Y-9466423D01*
X10675013Y-9466327D01*
X10686588Y-9462725D01*
X10690389Y-9460635D01*
X10698047Y-9454324D01*
X10704023Y-9445537D01*
X10704135Y-9445323D01*
X10708601Y-9433160D01*
X10709516Y-9421081D01*
X10709516Y-9475281D01*
X10706782Y-9476183D01*
X10695687Y-9478244D01*
X10682841Y-9478687D01*
X10669884Y-9477522D01*
X10662356Y-9475953D01*
X10649206Y-9471439D01*
X10635708Y-9465043D01*
X10622814Y-9457350D01*
X10611475Y-9448944D01*
X10602642Y-9440409D01*
X10600824Y-9438176D01*
X10597657Y-9434294D01*
X10595802Y-9433142D01*
X10594442Y-9434348D01*
X10594022Y-9435088D01*
X10592298Y-9438163D01*
X10591667Y-9439151D01*
X10589951Y-9438574D01*
X10585965Y-9436508D01*
X10580611Y-9433487D01*
X10574794Y-9430046D01*
X10569416Y-9426718D01*
X10565380Y-9424036D01*
X10563608Y-9422568D01*
X10564409Y-9420803D01*
X10567137Y-9418865D01*
X10570919Y-9415760D01*
X10574851Y-9410973D01*
X10575716Y-9409644D01*
X10577764Y-9406298D01*
X10581488Y-9400216D01*
X10586598Y-9391872D01*
X10592805Y-9381738D01*
X10599819Y-9370288D01*
X10607350Y-9357995D01*
X10609166Y-9355031D01*
X10618074Y-9340394D01*
X10625130Y-9328559D01*
X10630526Y-9319170D01*
X10634454Y-9311870D01*
X10637106Y-9306301D01*
X10638675Y-9302107D01*
X10639343Y-9299014D01*
X10640192Y-9293810D01*
X10641233Y-9290430D01*
X10641640Y-9289886D01*
X10643182Y-9290933D01*
X10645789Y-9294508D01*
X10648243Y-9298672D01*
X10651912Y-9304342D01*
X10657357Y-9311476D01*
X10663662Y-9318909D01*
X10666804Y-9322323D01*
X10680124Y-9336345D01*
X10669337Y-9334998D01*
X10660114Y-9334524D01*
X10653278Y-9336124D01*
X10647798Y-9340299D01*
X10642643Y-9347550D01*
X10642300Y-9348131D01*
X10636355Y-9358275D01*
X10644181Y-9359572D01*
X10659247Y-9363299D01*
X10674679Y-9369324D01*
X10689775Y-9377192D01*
X10703836Y-9386449D01*
X10716161Y-9396640D01*
X10726049Y-9407311D01*
X10732112Y-9416607D01*
X10736393Y-9428591D01*
X10737163Y-9440399D01*
X10737163Y-9440399D01*
X10737163Y-9440399D01*
G37*
X10737163Y-9440399D02*
X10734648Y-9451499D01*
X10729073Y-9461359D01*
X10720665Y-9469449D01*
X10709650Y-9475237D01*
X10709516Y-9475281D01*
X10709516Y-9421081D01*
X10707077Y-9409471D01*
X10701484Y-9398715D01*
X10692935Y-9389199D01*
X10681631Y-9381308D01*
X10668139Y-9375546D01*
X10658628Y-9373143D01*
X10648679Y-9371688D01*
X10639531Y-9371289D01*
X10632422Y-9372052D01*
X10631311Y-9372367D01*
X10628766Y-9374593D01*
X10624917Y-9379793D01*
X10620058Y-9387535D01*
X10615476Y-9395571D01*
X10603404Y-9417527D01*
X10608684Y-9427611D01*
X10613112Y-9434502D01*
X10619030Y-9441761D01*
X10623480Y-9446251D01*
X10636614Y-9456328D01*
X10649759Y-9463071D01*
X10662648Y-9466423D01*
X10675013Y-9466327D01*
X10686588Y-9462725D01*
X10690389Y-9460635D01*
X10698047Y-9454324D01*
X10704023Y-9445537D01*
X10704135Y-9445323D01*
X10708601Y-9433160D01*
X10709516Y-9421081D01*
X10709516Y-9475281D01*
X10706782Y-9476183D01*
X10695687Y-9478244D01*
X10682841Y-9478687D01*
X10669884Y-9477522D01*
X10662356Y-9475953D01*
X10649206Y-9471439D01*
X10635708Y-9465043D01*
X10622814Y-9457350D01*
X10611475Y-9448944D01*
X10602642Y-9440409D01*
X10600824Y-9438176D01*
X10597657Y-9434294D01*
X10595802Y-9433142D01*
X10594442Y-9434348D01*
X10594022Y-9435088D01*
X10592298Y-9438163D01*
X10591667Y-9439151D01*
X10589951Y-9438574D01*
X10585965Y-9436508D01*
X10580611Y-9433487D01*
X10574794Y-9430046D01*
X10569416Y-9426718D01*
X10565380Y-9424036D01*
X10563608Y-9422568D01*
X10564409Y-9420803D01*
X10567137Y-9418865D01*
X10570919Y-9415760D01*
X10574851Y-9410973D01*
X10575716Y-9409644D01*
X10577764Y-9406298D01*
X10581488Y-9400216D01*
X10586598Y-9391872D01*
X10592805Y-9381738D01*
X10599819Y-9370288D01*
X10607350Y-9357995D01*
X10609166Y-9355031D01*
X10618074Y-9340394D01*
X10625130Y-9328559D01*
X10630526Y-9319170D01*
X10634454Y-9311870D01*
X10637106Y-9306301D01*
X10638675Y-9302107D01*
X10639343Y-9299014D01*
X10640192Y-9293810D01*
X10641233Y-9290430D01*
X10641640Y-9289886D01*
X10643182Y-9290933D01*
X10645789Y-9294508D01*
X10648243Y-9298672D01*
X10651912Y-9304342D01*
X10657357Y-9311476D01*
X10663662Y-9318909D01*
X10666804Y-9322323D01*
X10680124Y-9336345D01*
X10669337Y-9334998D01*
X10660114Y-9334524D01*
X10653278Y-9336124D01*
X10647798Y-9340299D01*
X10642643Y-9347550D01*
X10642300Y-9348131D01*
X10636355Y-9358275D01*
X10644181Y-9359572D01*
X10659247Y-9363299D01*
X10674679Y-9369324D01*
X10689775Y-9377192D01*
X10703836Y-9386449D01*
X10716161Y-9396640D01*
X10726049Y-9407311D01*
X10732112Y-9416607D01*
X10736393Y-9428591D01*
X10737163Y-9440399D01*
X10737163Y-9440399D01*
G36*
X11207709Y-9412796D02*
X11207652Y-9413533D01*
X11207098Y-9415944D01*
X11206056Y-9415778D01*
X11203922Y-9412737D01*
X11202985Y-9411230D01*
X11200349Y-9406551D01*
X11196758Y-9399646D01*
X11192826Y-9391711D01*
X11191185Y-9388284D01*
X11179568Y-9368115D01*
X11164592Y-9349564D01*
X11146315Y-9332673D01*
X11124796Y-9317483D01*
X11100093Y-9304036D01*
X11072264Y-9292374D01*
X11044346Y-9283368D01*
X11030896Y-9279743D01*
X11014231Y-9275542D01*
X10994834Y-9270877D01*
X10973188Y-9265858D01*
X10949778Y-9260596D01*
X10925087Y-9255203D01*
X10899600Y-9249788D01*
X10879667Y-9245659D01*
X10860921Y-9241791D01*
X10845335Y-9238492D01*
X10832373Y-9235629D01*
X10821499Y-9233070D01*
X10812177Y-9230679D01*
X10803869Y-9228325D01*
X10796040Y-9225873D01*
X10788154Y-9223190D01*
X10785278Y-9222170D01*
X10766893Y-9214613D01*
X10750992Y-9205742D01*
X10736334Y-9194769D01*
X10724011Y-9183289D01*
X10715351Y-9175049D01*
X10707105Y-9168094D01*
X10700086Y-9163093D01*
X10697670Y-9161720D01*
X10680280Y-9150836D01*
X10665117Y-9136982D01*
X10652357Y-9120340D01*
X10644488Y-9106180D01*
X10640047Y-9095709D01*
X10638030Y-9087454D01*
X10638433Y-9080755D01*
X10641252Y-9074952D01*
X10644293Y-9071434D01*
X10649023Y-9067572D01*
X10653495Y-9065301D01*
X10654988Y-9065037D01*
X10662925Y-9066763D01*
X10672141Y-9071866D01*
X10682507Y-9080234D01*
X10693895Y-9091754D01*
X10706176Y-9106315D01*
X10713692Y-9116157D01*
X10729923Y-9138114D01*
X10740825Y-9140382D01*
X10749134Y-9141468D01*
X10760008Y-9141929D01*
X10772293Y-9141716D01*
X10772422Y-9141710D01*
X10795788Y-9138795D01*
X10818415Y-9132325D01*
X10839839Y-9122498D01*
X10859594Y-9109511D01*
X10871047Y-9099727D01*
X10883338Y-9086727D01*
X10893033Y-9073064D01*
X10900826Y-9057631D01*
X10905804Y-9044341D01*
X10912426Y-9020032D01*
X10915588Y-8997131D01*
X10915254Y-8975483D01*
X10911386Y-8954937D01*
X10903950Y-8935340D01*
X10892909Y-8916537D01*
X10878226Y-8898377D01*
X10869085Y-8889085D01*
X10847384Y-8870714D01*
X10823614Y-8855233D01*
X10797532Y-8842508D01*
X10768894Y-8832405D01*
X10763161Y-8830775D01*
X10746374Y-8826175D01*
X10728679Y-8832802D01*
X10715065Y-8837593D01*
X10699528Y-8842559D01*
X10683377Y-8847318D01*
X10667917Y-8851485D01*
X10654455Y-8854680D01*
X10652795Y-8855029D01*
X10636003Y-8858052D01*
X10619167Y-8860105D01*
X10601297Y-8861261D01*
X10581402Y-8861591D01*
X10565998Y-8861376D01*
X10552530Y-8860998D01*
X10541998Y-8860528D01*
X10533574Y-8859879D01*
X10526430Y-8858964D01*
X10519740Y-8857695D01*
X10512675Y-8855985D01*
X10511138Y-8855581D01*
X10489268Y-8848450D01*
X10469851Y-8839158D01*
X10452255Y-8827288D01*
X10435845Y-8812424D01*
X10422469Y-8797263D01*
X10417326Y-8790446D01*
X10411675Y-8782208D01*
X10405921Y-8773232D01*
X10400466Y-8764198D01*
X10395714Y-8755786D01*
X10392068Y-8748677D01*
X10389931Y-8743552D01*
X10389541Y-8741684D01*
X10390097Y-8739742D01*
X10391896Y-8740353D01*
X10395134Y-8743704D01*
X10400008Y-8749981D01*
X10403682Y-8755063D01*
X10421169Y-8777114D01*
X10439868Y-8795715D01*
X10459880Y-8810900D01*
X10481304Y-8822705D01*
X10504241Y-8831164D01*
X10528791Y-8836312D01*
X10555054Y-8838184D01*
X10583130Y-8836815D01*
X10613120Y-8832239D01*
X10620963Y-8830590D01*
X10632387Y-8827980D01*
X10642761Y-8825375D01*
X10652519Y-8822595D01*
X10662095Y-8819457D01*
X10671923Y-8815780D01*
X10682437Y-8811382D01*
X10694070Y-8806082D01*
X10707258Y-8799698D01*
X10722433Y-8792049D01*
X10740029Y-8782952D01*
X10760481Y-8772226D01*
X10760870Y-8772021D01*
X10786058Y-8758988D01*
X10808565Y-8747874D01*
X10828832Y-8738495D01*
X10847302Y-8730668D01*
X10864415Y-8724211D01*
X10880612Y-8718942D01*
X10896336Y-8714676D01*
X10903319Y-8713048D01*
X10914584Y-8711094D01*
X10928347Y-8709557D01*
X10943710Y-8708462D01*
X10959775Y-8707831D01*
X10975645Y-8707686D01*
X10990422Y-8708050D01*
X11003208Y-8708947D01*
X11012484Y-8710271D01*
X11034422Y-8715623D01*
X11055165Y-8722530D01*
X11074241Y-8730752D01*
X11091177Y-8740045D01*
X11105500Y-8750169D01*
X11116738Y-8760881D01*
X11120384Y-8765442D01*
X11126289Y-8775676D01*
X11130318Y-8786996D01*
X11132093Y-8798102D01*
X11131807Y-8804963D01*
X11130534Y-8812212D01*
X11129220Y-8816413D01*
X11127573Y-8818274D01*
X11126157Y-8818563D01*
X11124513Y-8816850D01*
X11123793Y-8811633D01*
X11123753Y-8809354D01*
X11122389Y-8796274D01*
X11118161Y-8784721D01*
X11110861Y-8774422D01*
X11100283Y-8765105D01*
X11086221Y-8756499D01*
X11081926Y-8754324D01*
X11055738Y-8743466D01*
X11028870Y-8736206D01*
X11001113Y-8732510D01*
X10972255Y-8732345D01*
X10953936Y-8733974D01*
X10938857Y-8736349D01*
X10923609Y-8739870D01*
X10907752Y-8744707D01*
X10890848Y-8751031D01*
X10872458Y-8759013D01*
X10852143Y-8768824D01*
X10829464Y-8780634D01*
X10817578Y-8787081D01*
X10807160Y-8792787D01*
X10799729Y-8796948D01*
X10795000Y-8799877D01*
X10792687Y-8801889D01*
X10792507Y-8803297D01*
X10794173Y-8804416D01*
X10797402Y-8805559D01*
X10800037Y-8806408D01*
X10816255Y-8812655D01*
X10833713Y-8820990D01*
X10851084Y-8830750D01*
X10860315Y-8836614D01*
X10882561Y-8853329D01*
X10901477Y-8871588D01*
X10917015Y-8891289D01*
X10929126Y-8912325D01*
X10937762Y-8934592D01*
X10942873Y-8957986D01*
X10944411Y-8982402D01*
X10942327Y-9007735D01*
X10941694Y-9011639D01*
X10935338Y-9039475D01*
X10926299Y-9064696D01*
X10914514Y-9087385D01*
X10899922Y-9107625D01*
X10882460Y-9125501D01*
X10862068Y-9141096D01*
X10838683Y-9154494D01*
X10834742Y-9156401D01*
X10811325Y-9165868D01*
X10788753Y-9171747D01*
X10775400Y-9173563D01*
X10761445Y-9174768D01*
X10766934Y-9179152D01*
X10776134Y-9185313D01*
X10788324Y-9191636D01*
X10802767Y-9197759D01*
X10810052Y-9200438D01*
X10817413Y-9202790D01*
X10827955Y-9205830D01*
X10841184Y-9209433D01*
X10856606Y-9213475D01*
X10873729Y-9217834D01*
X10892058Y-9222385D01*
X10911100Y-9227005D01*
X10930361Y-9231570D01*
X10949348Y-9235956D01*
X10967566Y-9240040D01*
X10971859Y-9240980D01*
X10998852Y-9247124D01*
X11022572Y-9253097D01*
X11043495Y-9259049D01*
X11062096Y-9265129D01*
X11078853Y-9271487D01*
X11094241Y-9278272D01*
X11100741Y-9281451D01*
X11125881Y-9296012D01*
X11148010Y-9312821D01*
X11167121Y-9331870D01*
X11183208Y-9353154D01*
X11194332Y-9372659D01*
X11198442Y-9381675D01*
X11202127Y-9391095D01*
X11205095Y-9400020D01*
X11207053Y-9407553D01*
X11207709Y-9412796D01*
X11207709Y-9412796D01*
X11207709Y-9412796D01*
G37*
X11207709Y-9412796D02*
X11207652Y-9413533D01*
X11207098Y-9415944D01*
X11206056Y-9415778D01*
X11203922Y-9412737D01*
X11202985Y-9411230D01*
X11200349Y-9406551D01*
X11196758Y-9399646D01*
X11192826Y-9391711D01*
X11191185Y-9388284D01*
X11179568Y-9368115D01*
X11164592Y-9349564D01*
X11146315Y-9332673D01*
X11124796Y-9317483D01*
X11100093Y-9304036D01*
X11072264Y-9292374D01*
X11044346Y-9283368D01*
X11030896Y-9279743D01*
X11014231Y-9275542D01*
X10994834Y-9270877D01*
X10973188Y-9265858D01*
X10949778Y-9260596D01*
X10925087Y-9255203D01*
X10899600Y-9249788D01*
X10879667Y-9245659D01*
X10860921Y-9241791D01*
X10845335Y-9238492D01*
X10832373Y-9235629D01*
X10821499Y-9233070D01*
X10812177Y-9230679D01*
X10803869Y-9228325D01*
X10796040Y-9225873D01*
X10788154Y-9223190D01*
X10785278Y-9222170D01*
X10766893Y-9214613D01*
X10750992Y-9205742D01*
X10736334Y-9194769D01*
X10724011Y-9183289D01*
X10715351Y-9175049D01*
X10707105Y-9168094D01*
X10700086Y-9163093D01*
X10697670Y-9161720D01*
X10680280Y-9150836D01*
X10665117Y-9136982D01*
X10652357Y-9120340D01*
X10644488Y-9106180D01*
X10640047Y-9095709D01*
X10638030Y-9087454D01*
X10638433Y-9080755D01*
X10641252Y-9074952D01*
X10644293Y-9071434D01*
X10649023Y-9067572D01*
X10653495Y-9065301D01*
X10654988Y-9065037D01*
X10662925Y-9066763D01*
X10672141Y-9071866D01*
X10682507Y-9080234D01*
X10693895Y-9091754D01*
X10706176Y-9106315D01*
X10713692Y-9116157D01*
X10729923Y-9138114D01*
X10740825Y-9140382D01*
X10749134Y-9141468D01*
X10760008Y-9141929D01*
X10772293Y-9141716D01*
X10772422Y-9141710D01*
X10795788Y-9138795D01*
X10818415Y-9132325D01*
X10839839Y-9122498D01*
X10859594Y-9109511D01*
X10871047Y-9099727D01*
X10883338Y-9086727D01*
X10893033Y-9073064D01*
X10900826Y-9057631D01*
X10905804Y-9044341D01*
X10912426Y-9020032D01*
X10915588Y-8997131D01*
X10915254Y-8975483D01*
X10911386Y-8954937D01*
X10903950Y-8935340D01*
X10892909Y-8916537D01*
X10878226Y-8898377D01*
X10869085Y-8889085D01*
X10847384Y-8870714D01*
X10823614Y-8855233D01*
X10797532Y-8842508D01*
X10768894Y-8832405D01*
X10763161Y-8830775D01*
X10746374Y-8826175D01*
X10728679Y-8832802D01*
X10715065Y-8837593D01*
X10699528Y-8842559D01*
X10683377Y-8847318D01*
X10667917Y-8851485D01*
X10654455Y-8854680D01*
X10652795Y-8855029D01*
X10636003Y-8858052D01*
X10619167Y-8860105D01*
X10601297Y-8861261D01*
X10581402Y-8861591D01*
X10565998Y-8861376D01*
X10552530Y-8860998D01*
X10541998Y-8860528D01*
X10533574Y-8859879D01*
X10526430Y-8858964D01*
X10519740Y-8857695D01*
X10512675Y-8855985D01*
X10511138Y-8855581D01*
X10489268Y-8848450D01*
X10469851Y-8839158D01*
X10452255Y-8827288D01*
X10435845Y-8812424D01*
X10422469Y-8797263D01*
X10417326Y-8790446D01*
X10411675Y-8782208D01*
X10405921Y-8773232D01*
X10400466Y-8764198D01*
X10395714Y-8755786D01*
X10392068Y-8748677D01*
X10389931Y-8743552D01*
X10389541Y-8741684D01*
X10390097Y-8739742D01*
X10391896Y-8740353D01*
X10395134Y-8743704D01*
X10400008Y-8749981D01*
X10403682Y-8755063D01*
X10421169Y-8777114D01*
X10439868Y-8795715D01*
X10459880Y-8810900D01*
X10481304Y-8822705D01*
X10504241Y-8831164D01*
X10528791Y-8836312D01*
X10555054Y-8838184D01*
X10583130Y-8836815D01*
X10613120Y-8832239D01*
X10620963Y-8830590D01*
X10632387Y-8827980D01*
X10642761Y-8825375D01*
X10652519Y-8822595D01*
X10662095Y-8819457D01*
X10671923Y-8815780D01*
X10682437Y-8811382D01*
X10694070Y-8806082D01*
X10707258Y-8799698D01*
X10722433Y-8792049D01*
X10740029Y-8782952D01*
X10760481Y-8772226D01*
X10760870Y-8772021D01*
X10786058Y-8758988D01*
X10808565Y-8747874D01*
X10828832Y-8738495D01*
X10847302Y-8730668D01*
X10864415Y-8724211D01*
X10880612Y-8718942D01*
X10896336Y-8714676D01*
X10903319Y-8713048D01*
X10914584Y-8711094D01*
X10928347Y-8709557D01*
X10943710Y-8708462D01*
X10959775Y-8707831D01*
X10975645Y-8707686D01*
X10990422Y-8708050D01*
X11003208Y-8708947D01*
X11012484Y-8710271D01*
X11034422Y-8715623D01*
X11055165Y-8722530D01*
X11074241Y-8730752D01*
X11091177Y-8740045D01*
X11105500Y-8750169D01*
X11116738Y-8760881D01*
X11120384Y-8765442D01*
X11126289Y-8775676D01*
X11130318Y-8786996D01*
X11132093Y-8798102D01*
X11131807Y-8804963D01*
X11130534Y-8812212D01*
X11129220Y-8816413D01*
X11127573Y-8818274D01*
X11126157Y-8818563D01*
X11124513Y-8816850D01*
X11123793Y-8811633D01*
X11123753Y-8809354D01*
X11122389Y-8796274D01*
X11118161Y-8784721D01*
X11110861Y-8774422D01*
X11100283Y-8765105D01*
X11086221Y-8756499D01*
X11081926Y-8754324D01*
X11055738Y-8743466D01*
X11028870Y-8736206D01*
X11001113Y-8732510D01*
X10972255Y-8732345D01*
X10953936Y-8733974D01*
X10938857Y-8736349D01*
X10923609Y-8739870D01*
X10907752Y-8744707D01*
X10890848Y-8751031D01*
X10872458Y-8759013D01*
X10852143Y-8768824D01*
X10829464Y-8780634D01*
X10817578Y-8787081D01*
X10807160Y-8792787D01*
X10799729Y-8796948D01*
X10795000Y-8799877D01*
X10792687Y-8801889D01*
X10792507Y-8803297D01*
X10794173Y-8804416D01*
X10797402Y-8805559D01*
X10800037Y-8806408D01*
X10816255Y-8812655D01*
X10833713Y-8820990D01*
X10851084Y-8830750D01*
X10860315Y-8836614D01*
X10882561Y-8853329D01*
X10901477Y-8871588D01*
X10917015Y-8891289D01*
X10929126Y-8912325D01*
X10937762Y-8934592D01*
X10942873Y-8957986D01*
X10944411Y-8982402D01*
X10942327Y-9007735D01*
X10941694Y-9011639D01*
X10935338Y-9039475D01*
X10926299Y-9064696D01*
X10914514Y-9087385D01*
X10899922Y-9107625D01*
X10882460Y-9125501D01*
X10862068Y-9141096D01*
X10838683Y-9154494D01*
X10834742Y-9156401D01*
X10811325Y-9165868D01*
X10788753Y-9171747D01*
X10775400Y-9173563D01*
X10761445Y-9174768D01*
X10766934Y-9179152D01*
X10776134Y-9185313D01*
X10788324Y-9191636D01*
X10802767Y-9197759D01*
X10810052Y-9200438D01*
X10817413Y-9202790D01*
X10827955Y-9205830D01*
X10841184Y-9209433D01*
X10856606Y-9213475D01*
X10873729Y-9217834D01*
X10892058Y-9222385D01*
X10911100Y-9227005D01*
X10930361Y-9231570D01*
X10949348Y-9235956D01*
X10967566Y-9240040D01*
X10971859Y-9240980D01*
X10998852Y-9247124D01*
X11022572Y-9253097D01*
X11043495Y-9259049D01*
X11062096Y-9265129D01*
X11078853Y-9271487D01*
X11094241Y-9278272D01*
X11100741Y-9281451D01*
X11125881Y-9296012D01*
X11148010Y-9312821D01*
X11167121Y-9331870D01*
X11183208Y-9353154D01*
X11194332Y-9372659D01*
X11198442Y-9381675D01*
X11202127Y-9391095D01*
X11205095Y-9400020D01*
X11207053Y-9407553D01*
X11207709Y-9412796D01*
X11207709Y-9412796D01*
G36*
X10562260Y-9307115D02*
X10561458Y-9308048D01*
X10558560Y-9306174D01*
X10554339Y-9302460D01*
X10546042Y-9296300D01*
X10537861Y-9293577D01*
X10528988Y-9294082D01*
X10525582Y-9294978D01*
X10517691Y-9297400D01*
X10528245Y-9309630D01*
X10538279Y-9322299D01*
X10546853Y-9335198D01*
X10553646Y-9347710D01*
X10558334Y-9359217D01*
X10560596Y-9369100D01*
X10560756Y-9371948D01*
X10559543Y-9379382D01*
X10556373Y-9386228D01*
X10551946Y-9391140D01*
X10550228Y-9392154D01*
X10541881Y-9394247D01*
X10541881Y-9353627D01*
X10540663Y-9346043D01*
X10537233Y-9336782D01*
X10532078Y-9326791D01*
X10525685Y-9317016D01*
X10518706Y-9308577D01*
X10509015Y-9298342D01*
X10487763Y-9301876D01*
X10479245Y-9303364D01*
X10472163Y-9304737D01*
X10467300Y-9305833D01*
X10465468Y-9306453D01*
X10465268Y-9309042D01*
X10466623Y-9314193D01*
X10469271Y-9321168D01*
X10472953Y-9329232D01*
X10474905Y-9333073D01*
X10482105Y-9344545D01*
X10490589Y-9354401D01*
X10499857Y-9362328D01*
X10509411Y-9368014D01*
X10518752Y-9371148D01*
X10527383Y-9371416D01*
X10533127Y-9369530D01*
X10538558Y-9365381D01*
X10541280Y-9359682D01*
X10541881Y-9353627D01*
X10541881Y-9394247D01*
X10541777Y-9394273D01*
X10531571Y-9394167D01*
X10520801Y-9391948D01*
X10512307Y-9388590D01*
X10503285Y-9382867D01*
X10493637Y-9374732D01*
X10484348Y-9365173D01*
X10476400Y-9355180D01*
X10471959Y-9348080D01*
X10468983Y-9341673D01*
X10465698Y-9333244D01*
X10462727Y-9324415D01*
X10462223Y-9322735D01*
X10459977Y-9315687D01*
X10457918Y-9310319D01*
X10456368Y-9307428D01*
X10455924Y-9307148D01*
X10453406Y-9307442D01*
X10448119Y-9307928D01*
X10441050Y-9308517D01*
X10438378Y-9308728D01*
X10422467Y-9309968D01*
X10412229Y-9299497D01*
X10407513Y-9294477D01*
X10404176Y-9290539D01*
X10402796Y-9288381D01*
X10402821Y-9288205D01*
X10404876Y-9287768D01*
X10410054Y-9287070D01*
X10417728Y-9286184D01*
X10427273Y-9285184D01*
X10435909Y-9284343D01*
X10449670Y-9282919D01*
X10465086Y-9281117D01*
X10480518Y-9279141D01*
X10494326Y-9277194D01*
X10497873Y-9276651D01*
X10509214Y-9275006D01*
X10520382Y-9273616D01*
X10530343Y-9272595D01*
X10538066Y-9272056D01*
X10540405Y-9272000D01*
X10553230Y-9272000D01*
X10553248Y-9279056D01*
X10554078Y-9284790D01*
X10556186Y-9291862D01*
X10557952Y-9296176D01*
X10561060Y-9303212D01*
X10562260Y-9307115D01*
X10562260Y-9307115D01*
X10562260Y-9307115D01*
G37*
X10562260Y-9307115D02*
X10561458Y-9308048D01*
X10558560Y-9306174D01*
X10554339Y-9302460D01*
X10546042Y-9296300D01*
X10537861Y-9293577D01*
X10528988Y-9294082D01*
X10525582Y-9294978D01*
X10517691Y-9297400D01*
X10528245Y-9309630D01*
X10538279Y-9322299D01*
X10546853Y-9335198D01*
X10553646Y-9347710D01*
X10558334Y-9359217D01*
X10560596Y-9369100D01*
X10560756Y-9371948D01*
X10559543Y-9379382D01*
X10556373Y-9386228D01*
X10551946Y-9391140D01*
X10550228Y-9392154D01*
X10541881Y-9394247D01*
X10541881Y-9353627D01*
X10540663Y-9346043D01*
X10537233Y-9336782D01*
X10532078Y-9326791D01*
X10525685Y-9317016D01*
X10518706Y-9308577D01*
X10509015Y-9298342D01*
X10487763Y-9301876D01*
X10479245Y-9303364D01*
X10472163Y-9304737D01*
X10467300Y-9305833D01*
X10465468Y-9306453D01*
X10465268Y-9309042D01*
X10466623Y-9314193D01*
X10469271Y-9321168D01*
X10472953Y-9329232D01*
X10474905Y-9333073D01*
X10482105Y-9344545D01*
X10490589Y-9354401D01*
X10499857Y-9362328D01*
X10509411Y-9368014D01*
X10518752Y-9371148D01*
X10527383Y-9371416D01*
X10533127Y-9369530D01*
X10538558Y-9365381D01*
X10541280Y-9359682D01*
X10541881Y-9353627D01*
X10541881Y-9394247D01*
X10541777Y-9394273D01*
X10531571Y-9394167D01*
X10520801Y-9391948D01*
X10512307Y-9388590D01*
X10503285Y-9382867D01*
X10493637Y-9374732D01*
X10484348Y-9365173D01*
X10476400Y-9355180D01*
X10471959Y-9348080D01*
X10468983Y-9341673D01*
X10465698Y-9333244D01*
X10462727Y-9324415D01*
X10462223Y-9322735D01*
X10459977Y-9315687D01*
X10457918Y-9310319D01*
X10456368Y-9307428D01*
X10455924Y-9307148D01*
X10453406Y-9307442D01*
X10448119Y-9307928D01*
X10441050Y-9308517D01*
X10438378Y-9308728D01*
X10422467Y-9309968D01*
X10412229Y-9299497D01*
X10407513Y-9294477D01*
X10404176Y-9290539D01*
X10402796Y-9288381D01*
X10402821Y-9288205D01*
X10404876Y-9287768D01*
X10410054Y-9287070D01*
X10417728Y-9286184D01*
X10427273Y-9285184D01*
X10435909Y-9284343D01*
X10449670Y-9282919D01*
X10465086Y-9281117D01*
X10480518Y-9279141D01*
X10494326Y-9277194D01*
X10497873Y-9276651D01*
X10509214Y-9275006D01*
X10520382Y-9273616D01*
X10530343Y-9272595D01*
X10538066Y-9272056D01*
X10540405Y-9272000D01*
X10553230Y-9272000D01*
X10553248Y-9279056D01*
X10554078Y-9284790D01*
X10556186Y-9291862D01*
X10557952Y-9296176D01*
X10561060Y-9303212D01*
X10562260Y-9307115D01*
X10562260Y-9307115D01*
G36*
X10499630Y-9186997D02*
X10497410Y-9187099D01*
X10493018Y-9186207D01*
X10491405Y-9185753D01*
X10486269Y-9184358D01*
X10482584Y-9183610D01*
X10482059Y-9183570D01*
X10478416Y-9185375D01*
X10474280Y-9190606D01*
X10469833Y-9198986D01*
X10466481Y-9206973D01*
X10463418Y-9214717D01*
X10460485Y-9221781D01*
X10458208Y-9226910D01*
X10457780Y-9227785D01*
X10449657Y-9240075D01*
X10439360Y-9249701D01*
X10427418Y-9256475D01*
X10414361Y-9260206D01*
X10400716Y-9260704D01*
X10387013Y-9257780D01*
X10381074Y-9255347D01*
X10371465Y-9249542D01*
X10361990Y-9241628D01*
X10353329Y-9232398D01*
X10346162Y-9222645D01*
X10341169Y-9213161D01*
X10339240Y-9206583D01*
X10338106Y-9199563D01*
X10352401Y-9213987D01*
X10362758Y-9223872D01*
X10371608Y-9230949D01*
X10379512Y-9235551D01*
X10387034Y-9238011D01*
X10393990Y-9238671D01*
X10406765Y-9236806D01*
X10419132Y-9231248D01*
X10431005Y-9222054D01*
X10442299Y-9209279D01*
X10445899Y-9204267D01*
X10451882Y-9195031D01*
X10456863Y-9186046D01*
X10461411Y-9176147D01*
X10466098Y-9164167D01*
X10467867Y-9159291D01*
X10470696Y-9151388D01*
X10473119Y-9144633D01*
X10474810Y-9139932D01*
X10475360Y-9138415D01*
X10476505Y-9138918D01*
X10478945Y-9142506D01*
X10482470Y-9148816D01*
X10486865Y-9157485D01*
X10488482Y-9160825D01*
X10492653Y-9169716D01*
X10496073Y-9177363D01*
X10498480Y-9183151D01*
X10499613Y-9186467D01*
X10499630Y-9186997D01*
X10499630Y-9186997D01*
X10499630Y-9186997D01*
G37*
X10499630Y-9186997D02*
X10497410Y-9187099D01*
X10493018Y-9186207D01*
X10491405Y-9185753D01*
X10486269Y-9184358D01*
X10482584Y-9183610D01*
X10482059Y-9183570D01*
X10478416Y-9185375D01*
X10474280Y-9190606D01*
X10469833Y-9198986D01*
X10466481Y-9206973D01*
X10463418Y-9214717D01*
X10460485Y-9221781D01*
X10458208Y-9226910D01*
X10457780Y-9227785D01*
X10449657Y-9240075D01*
X10439360Y-9249701D01*
X10427418Y-9256475D01*
X10414361Y-9260206D01*
X10400716Y-9260704D01*
X10387013Y-9257780D01*
X10381074Y-9255347D01*
X10371465Y-9249542D01*
X10361990Y-9241628D01*
X10353329Y-9232398D01*
X10346162Y-9222645D01*
X10341169Y-9213161D01*
X10339240Y-9206583D01*
X10338106Y-9199563D01*
X10352401Y-9213987D01*
X10362758Y-9223872D01*
X10371608Y-9230949D01*
X10379512Y-9235551D01*
X10387034Y-9238011D01*
X10393990Y-9238671D01*
X10406765Y-9236806D01*
X10419132Y-9231248D01*
X10431005Y-9222054D01*
X10442299Y-9209279D01*
X10445899Y-9204267D01*
X10451882Y-9195031D01*
X10456863Y-9186046D01*
X10461411Y-9176147D01*
X10466098Y-9164167D01*
X10467867Y-9159291D01*
X10470696Y-9151388D01*
X10473119Y-9144633D01*
X10474810Y-9139932D01*
X10475360Y-9138415D01*
X10476505Y-9138918D01*
X10478945Y-9142506D01*
X10482470Y-9148816D01*
X10486865Y-9157485D01*
X10488482Y-9160825D01*
X10492653Y-9169716D01*
X10496073Y-9177363D01*
X10498480Y-9183151D01*
X10499613Y-9186467D01*
X10499630Y-9186997D01*
X10499630Y-9186997D01*
G36*
X10427170Y-9157384D02*
X10425878Y-9157561D01*
X10422622Y-9155760D01*
X10420899Y-9154519D01*
X10412902Y-9149932D01*
X10405209Y-9148321D01*
X10398708Y-9149783D01*
X10392110Y-9153493D01*
X10384026Y-9158424D01*
X10375052Y-9164168D01*
X10365787Y-9170315D01*
X10356830Y-9176457D01*
X10348777Y-9182184D01*
X10342228Y-9187088D01*
X10337780Y-9190760D01*
X10336110Y-9192584D01*
X10333535Y-9197499D01*
X10326999Y-9187242D01*
X10322334Y-9179667D01*
X10318381Y-9172776D01*
X10315564Y-9167348D01*
X10314309Y-9164164D01*
X10314282Y-9163908D01*
X10315905Y-9163149D01*
X10319317Y-9162874D01*
X10322645Y-9161889D01*
X10328805Y-9159051D01*
X10337462Y-9154536D01*
X10348277Y-9148521D01*
X10360916Y-9141182D01*
X10362412Y-9140296D01*
X10373250Y-9133916D01*
X10383058Y-9128235D01*
X10391360Y-9123521D01*
X10397679Y-9120043D01*
X10401540Y-9118069D01*
X10402484Y-9117719D01*
X10404584Y-9119238D01*
X10407165Y-9122979D01*
X10407621Y-9123833D01*
X10410175Y-9128412D01*
X10414024Y-9134840D01*
X10418392Y-9141824D01*
X10418958Y-9142707D01*
X10422799Y-9148899D01*
X10425680Y-9153969D01*
X10427101Y-9157027D01*
X10427170Y-9157384D01*
X10427170Y-9157384D01*
X10427170Y-9157384D01*
G37*
X10427170Y-9157384D02*
X10425878Y-9157561D01*
X10422622Y-9155760D01*
X10420899Y-9154519D01*
X10412902Y-9149932D01*
X10405209Y-9148321D01*
X10398708Y-9149783D01*
X10392110Y-9153493D01*
X10384026Y-9158424D01*
X10375052Y-9164168D01*
X10365787Y-9170315D01*
X10356830Y-9176457D01*
X10348777Y-9182184D01*
X10342228Y-9187088D01*
X10337780Y-9190760D01*
X10336110Y-9192584D01*
X10333535Y-9197499D01*
X10326999Y-9187242D01*
X10322334Y-9179667D01*
X10318381Y-9172776D01*
X10315564Y-9167348D01*
X10314309Y-9164164D01*
X10314282Y-9163908D01*
X10315905Y-9163149D01*
X10319317Y-9162874D01*
X10322645Y-9161889D01*
X10328805Y-9159051D01*
X10337462Y-9154536D01*
X10348277Y-9148521D01*
X10360916Y-9141182D01*
X10362412Y-9140296D01*
X10373250Y-9133916D01*
X10383058Y-9128235D01*
X10391360Y-9123521D01*
X10397679Y-9120043D01*
X10401540Y-9118069D01*
X10402484Y-9117719D01*
X10404584Y-9119238D01*
X10407165Y-9122979D01*
X10407621Y-9123833D01*
X10410175Y-9128412D01*
X10414024Y-9134840D01*
X10418392Y-9141824D01*
X10418958Y-9142707D01*
X10422799Y-9148899D01*
X10425680Y-9153969D01*
X10427101Y-9157027D01*
X10427170Y-9157384D01*
X10427170Y-9157384D01*
G36*
X10396430Y-9107693D02*
X10394545Y-9107249D01*
X10390299Y-9105402D01*
X10384917Y-9102709D01*
X10378640Y-9099730D01*
X10373152Y-9097683D01*
X10370065Y-9097053D01*
X10366638Y-9097956D01*
X10360727Y-9100397D01*
X10352994Y-9104022D01*
X10344105Y-9108474D01*
X10334724Y-9113399D01*
X10325514Y-9118443D01*
X10317140Y-9123249D01*
X10310266Y-9127462D01*
X10305557Y-9130728D01*
X10303743Y-9132512D01*
X10301682Y-9136150D01*
X10300503Y-9137769D01*
X10299289Y-9136673D01*
X10296925Y-9132792D01*
X10293784Y-9126783D01*
X10291140Y-9121273D01*
X10282948Y-9103607D01*
X10289678Y-9102554D01*
X10294377Y-9101238D01*
X10301334Y-9098558D01*
X10309875Y-9094851D01*
X10319328Y-9090450D01*
X10329021Y-9085689D01*
X10338280Y-9080904D01*
X10346432Y-9076429D01*
X10352806Y-9072599D01*
X10356728Y-9069748D01*
X10357557Y-9068797D01*
X10359294Y-9062748D01*
X10359721Y-9054439D01*
X10358899Y-9045115D01*
X10356885Y-9036021D01*
X10355882Y-9033052D01*
X10349505Y-9020277D01*
X10341211Y-9010734D01*
X10331012Y-9004432D01*
X10318920Y-9001378D01*
X10313041Y-9001067D01*
X10300068Y-9002431D01*
X10286665Y-9006197D01*
X10274117Y-9011876D01*
X10263710Y-9018980D01*
X10262099Y-9020434D01*
X10258249Y-9023690D01*
X10255562Y-9025239D01*
X10254999Y-9025196D01*
X10254024Y-9023003D01*
X10252411Y-9018184D01*
X10250496Y-9011746D01*
X10250346Y-9011214D01*
X10248510Y-9004396D01*
X10247943Y-8999836D01*
X10249111Y-8996610D01*
X10252481Y-8993798D01*
X10258518Y-8990477D01*
X10261648Y-8988870D01*
X10280097Y-8981285D01*
X10298759Y-8977410D01*
X10314292Y-8976957D01*
X10322679Y-8977296D01*
X10328098Y-8976916D01*
X10331197Y-8975176D01*
X10332628Y-8971429D01*
X10333040Y-8965034D01*
X10333071Y-8958356D01*
X10331796Y-8942115D01*
X10327964Y-8928157D01*
X10321676Y-8916706D01*
X10313036Y-8907984D01*
X10308637Y-8905136D01*
X10303969Y-8902799D01*
X10299480Y-8901404D01*
X10293983Y-8900739D01*
X10286290Y-8900594D01*
X10283237Y-8900622D01*
X10270519Y-8901347D01*
X10260139Y-8903412D01*
X10250800Y-8907197D01*
X10241692Y-8912742D01*
X10236864Y-8915840D01*
X10233407Y-8917643D01*
X10232308Y-8917838D01*
X10231774Y-8915707D01*
X10231099Y-8910807D01*
X10230413Y-8904121D01*
X10230302Y-8902835D01*
X10229102Y-8888637D01*
X10237355Y-8883916D01*
X10250039Y-8877754D01*
X10262830Y-8874011D01*
X10277080Y-8872347D01*
X10284178Y-8872187D01*
X10292918Y-8872295D01*
X10299024Y-8872766D01*
X10303623Y-8873817D01*
X10307841Y-8875663D01*
X10310756Y-8877302D01*
X10319648Y-8884536D01*
X10327238Y-8895070D01*
X10333614Y-8909035D01*
X10335194Y-8913578D01*
X10336980Y-8919582D01*
X10338223Y-8925449D01*
X10339024Y-8932098D01*
X10339485Y-8940450D01*
X10339708Y-8951422D01*
X10339738Y-8954553D01*
X10339962Y-8982358D01*
X10346885Y-8989448D01*
X10351770Y-8995540D01*
X10355766Y-9003139D01*
X10359053Y-9012794D01*
X10361814Y-9025051D01*
X10364231Y-9040459D01*
X10364492Y-9042434D01*
X10365869Y-9052535D01*
X10366998Y-9059413D01*
X10368016Y-9063589D01*
X10369060Y-9065584D01*
X10370265Y-9065918D01*
X10370621Y-9065797D01*
X10377132Y-9063669D01*
X10380963Y-9063919D01*
X10382015Y-9066013D01*
X10382690Y-9069052D01*
X10384513Y-9074684D01*
X10387186Y-9082029D01*
X10389574Y-9088150D01*
X10392583Y-9095865D01*
X10394889Y-9102188D01*
X10396230Y-9106376D01*
X10396430Y-9107693D01*
X10396430Y-9107693D01*
X10396430Y-9107693D01*
G37*
X10396430Y-9107693D02*
X10394545Y-9107249D01*
X10390299Y-9105402D01*
X10384917Y-9102709D01*
X10378640Y-9099730D01*
X10373152Y-9097683D01*
X10370065Y-9097053D01*
X10366638Y-9097956D01*
X10360727Y-9100397D01*
X10352994Y-9104022D01*
X10344105Y-9108474D01*
X10334724Y-9113399D01*
X10325514Y-9118443D01*
X10317140Y-9123249D01*
X10310266Y-9127462D01*
X10305557Y-9130728D01*
X10303743Y-9132512D01*
X10301682Y-9136150D01*
X10300503Y-9137769D01*
X10299289Y-9136673D01*
X10296925Y-9132792D01*
X10293784Y-9126783D01*
X10291140Y-9121273D01*
X10282948Y-9103607D01*
X10289678Y-9102554D01*
X10294377Y-9101238D01*
X10301334Y-9098558D01*
X10309875Y-9094851D01*
X10319328Y-9090450D01*
X10329021Y-9085689D01*
X10338280Y-9080904D01*
X10346432Y-9076429D01*
X10352806Y-9072599D01*
X10356728Y-9069748D01*
X10357557Y-9068797D01*
X10359294Y-9062748D01*
X10359721Y-9054439D01*
X10358899Y-9045115D01*
X10356885Y-9036021D01*
X10355882Y-9033052D01*
X10349505Y-9020277D01*
X10341211Y-9010734D01*
X10331012Y-9004432D01*
X10318920Y-9001378D01*
X10313041Y-9001067D01*
X10300068Y-9002431D01*
X10286665Y-9006197D01*
X10274117Y-9011876D01*
X10263710Y-9018980D01*
X10262099Y-9020434D01*
X10258249Y-9023690D01*
X10255562Y-9025239D01*
X10254999Y-9025196D01*
X10254024Y-9023003D01*
X10252411Y-9018184D01*
X10250496Y-9011746D01*
X10250346Y-9011214D01*
X10248510Y-9004396D01*
X10247943Y-8999836D01*
X10249111Y-8996610D01*
X10252481Y-8993798D01*
X10258518Y-8990477D01*
X10261648Y-8988870D01*
X10280097Y-8981285D01*
X10298759Y-8977410D01*
X10314292Y-8976957D01*
X10322679Y-8977296D01*
X10328098Y-8976916D01*
X10331197Y-8975176D01*
X10332628Y-8971429D01*
X10333040Y-8965034D01*
X10333071Y-8958356D01*
X10331796Y-8942115D01*
X10327964Y-8928157D01*
X10321676Y-8916706D01*
X10313036Y-8907984D01*
X10308637Y-8905136D01*
X10303969Y-8902799D01*
X10299480Y-8901404D01*
X10293983Y-8900739D01*
X10286290Y-8900594D01*
X10283237Y-8900622D01*
X10270519Y-8901347D01*
X10260139Y-8903412D01*
X10250800Y-8907197D01*
X10241692Y-8912742D01*
X10236864Y-8915840D01*
X10233407Y-8917643D01*
X10232308Y-8917838D01*
X10231774Y-8915707D01*
X10231099Y-8910807D01*
X10230413Y-8904121D01*
X10230302Y-8902835D01*
X10229102Y-8888637D01*
X10237355Y-8883916D01*
X10250039Y-8877754D01*
X10262830Y-8874011D01*
X10277080Y-8872347D01*
X10284178Y-8872187D01*
X10292918Y-8872295D01*
X10299024Y-8872766D01*
X10303623Y-8873817D01*
X10307841Y-8875663D01*
X10310756Y-8877302D01*
X10319648Y-8884536D01*
X10327238Y-8895070D01*
X10333614Y-8909035D01*
X10335194Y-8913578D01*
X10336980Y-8919582D01*
X10338223Y-8925449D01*
X10339024Y-8932098D01*
X10339485Y-8940450D01*
X10339708Y-8951422D01*
X10339738Y-8954553D01*
X10339962Y-8982358D01*
X10346885Y-8989448D01*
X10351770Y-8995540D01*
X10355766Y-9003139D01*
X10359053Y-9012794D01*
X10361814Y-9025051D01*
X10364231Y-9040459D01*
X10364492Y-9042434D01*
X10365869Y-9052535D01*
X10366998Y-9059413D01*
X10368016Y-9063589D01*
X10369060Y-9065584D01*
X10370265Y-9065918D01*
X10370621Y-9065797D01*
X10377132Y-9063669D01*
X10380963Y-9063919D01*
X10382015Y-9066013D01*
X10382690Y-9069052D01*
X10384513Y-9074684D01*
X10387186Y-9082029D01*
X10389574Y-9088150D01*
X10392583Y-9095865D01*
X10394889Y-9102188D01*
X10396230Y-9106376D01*
X10396430Y-9107693D01*
X10396430Y-9107693D01*
G36*
X10459156Y-9112408D02*
X10457789Y-9119999D01*
X10454146Y-9124990D01*
X10448910Y-9127103D01*
X10442765Y-9126061D01*
X10436433Y-9121626D01*
X10432365Y-9115682D01*
X10430681Y-9109070D01*
X10431205Y-9102665D01*
X10433764Y-9097343D01*
X10438183Y-9093980D01*
X10442088Y-9093259D01*
X10447105Y-9094876D01*
X10452237Y-9098990D01*
X10456504Y-9104503D01*
X10458924Y-9110312D01*
X10459156Y-9112408D01*
X10459156Y-9112408D01*
X10459156Y-9112408D01*
G37*
X10459156Y-9112408D02*
X10457789Y-9119999D01*
X10454146Y-9124990D01*
X10448910Y-9127103D01*
X10442765Y-9126061D01*
X10436433Y-9121626D01*
X10432365Y-9115682D01*
X10430681Y-9109070D01*
X10431205Y-9102665D01*
X10433764Y-9097343D01*
X10438183Y-9093980D01*
X10442088Y-9093259D01*
X10447105Y-9094876D01*
X10452237Y-9098990D01*
X10456504Y-9104503D01*
X10458924Y-9110312D01*
X10459156Y-9112408D01*
X10459156Y-9112408D01*
G36*
X11010015Y-11147665D02*
X11007328Y-11158005D01*
X11001377Y-11166684D01*
X10992105Y-11173754D01*
X10979454Y-11179268D01*
X10973741Y-11180968D01*
X10966945Y-11182129D01*
X10957345Y-11182901D01*
X10945877Y-11183289D01*
X10933478Y-11183300D01*
X10921085Y-11182938D01*
X10909635Y-11182210D01*
X10900067Y-11181120D01*
X10896600Y-11180509D01*
X10888479Y-11178335D01*
X10879502Y-11175107D01*
X10870200Y-11171120D01*
X10861103Y-11166672D01*
X10852741Y-11162057D01*
X10845645Y-11157574D01*
X10840344Y-11153519D01*
X10837370Y-11150188D01*
X10837251Y-11147877D01*
X10837650Y-11147543D01*
X10842873Y-11145922D01*
X10850707Y-11146122D01*
X10861326Y-11148170D01*
X10874904Y-11152096D01*
X10884093Y-11155206D01*
X10901995Y-11161228D01*
X10917039Y-11165587D01*
X10929715Y-11168338D01*
X10940515Y-11169535D01*
X10949928Y-11169234D01*
X10958444Y-11167488D01*
X10966447Y-11164404D01*
X10973187Y-11160480D01*
X10978509Y-11155967D01*
X10981837Y-11151521D01*
X10982600Y-11147798D01*
X10982017Y-11146608D01*
X10977958Y-11143931D01*
X10972697Y-11142202D01*
X10972697Y-11120975D01*
X10971222Y-11118707D01*
X10966956Y-11114936D01*
X10965740Y-11113962D01*
X10953522Y-11105519D01*
X10940632Y-11099350D01*
X10930559Y-11095983D01*
X10921258Y-11094084D01*
X10911500Y-11093443D01*
X10901993Y-11093941D01*
X10893444Y-11095456D01*
X10886561Y-11097867D01*
X10882052Y-11101053D01*
X10880607Y-11104514D01*
X10882401Y-11108135D01*
X10887434Y-11111672D01*
X10895183Y-11114981D01*
X10905123Y-11117917D01*
X10916731Y-11120338D01*
X10929483Y-11122099D01*
X10942857Y-11123057D01*
X10948657Y-11123186D01*
X10957231Y-11123138D01*
X10964586Y-11122904D01*
X10969790Y-11122525D01*
X10971701Y-11122178D01*
X10972697Y-11120975D01*
X10972697Y-11142202D01*
X10970335Y-11141426D01*
X10959096Y-11139080D01*
X10944184Y-11136882D01*
X10932881Y-11135567D01*
X10911260Y-11132755D01*
X10893200Y-11129334D01*
X10878740Y-11125313D01*
X10867914Y-11120704D01*
X10860760Y-11115517D01*
X10859095Y-11113518D01*
X10856322Y-11106664D01*
X10856834Y-11099458D01*
X10860281Y-11092523D01*
X10866312Y-11086480D01*
X10874577Y-11081952D01*
X10877363Y-11081006D01*
X10890183Y-11078737D01*
X10905347Y-11078674D01*
X10922204Y-11080743D01*
X10940100Y-11084873D01*
X10954500Y-11089528D01*
X10972242Y-11097130D01*
X10986701Y-11105747D01*
X10997788Y-11115286D01*
X11005414Y-11125653D01*
X11009489Y-11136757D01*
X11010015Y-11147665D01*
X11010015Y-11147665D01*
X11010015Y-11147665D01*
G37*
X11010015Y-11147665D02*
X11007328Y-11158005D01*
X11001377Y-11166684D01*
X10992105Y-11173754D01*
X10979454Y-11179268D01*
X10973741Y-11180968D01*
X10966945Y-11182129D01*
X10957345Y-11182901D01*
X10945877Y-11183289D01*
X10933478Y-11183300D01*
X10921085Y-11182938D01*
X10909635Y-11182210D01*
X10900067Y-11181120D01*
X10896600Y-11180509D01*
X10888479Y-11178335D01*
X10879502Y-11175107D01*
X10870200Y-11171120D01*
X10861103Y-11166672D01*
X10852741Y-11162057D01*
X10845645Y-11157574D01*
X10840344Y-11153519D01*
X10837370Y-11150188D01*
X10837251Y-11147877D01*
X10837650Y-11147543D01*
X10842873Y-11145922D01*
X10850707Y-11146122D01*
X10861326Y-11148170D01*
X10874904Y-11152096D01*
X10884093Y-11155206D01*
X10901995Y-11161228D01*
X10917039Y-11165587D01*
X10929715Y-11168338D01*
X10940515Y-11169535D01*
X10949928Y-11169234D01*
X10958444Y-11167488D01*
X10966447Y-11164404D01*
X10973187Y-11160480D01*
X10978509Y-11155967D01*
X10981837Y-11151521D01*
X10982600Y-11147798D01*
X10982017Y-11146608D01*
X10977958Y-11143931D01*
X10972697Y-11142202D01*
X10972697Y-11120975D01*
X10971222Y-11118707D01*
X10966956Y-11114936D01*
X10965740Y-11113962D01*
X10953522Y-11105519D01*
X10940632Y-11099350D01*
X10930559Y-11095983D01*
X10921258Y-11094084D01*
X10911500Y-11093443D01*
X10901993Y-11093941D01*
X10893444Y-11095456D01*
X10886561Y-11097867D01*
X10882052Y-11101053D01*
X10880607Y-11104514D01*
X10882401Y-11108135D01*
X10887434Y-11111672D01*
X10895183Y-11114981D01*
X10905123Y-11117917D01*
X10916731Y-11120338D01*
X10929483Y-11122099D01*
X10942857Y-11123057D01*
X10948657Y-11123186D01*
X10957231Y-11123138D01*
X10964586Y-11122904D01*
X10969790Y-11122525D01*
X10971701Y-11122178D01*
X10972697Y-11120975D01*
X10972697Y-11142202D01*
X10970335Y-11141426D01*
X10959096Y-11139080D01*
X10944184Y-11136882D01*
X10932881Y-11135567D01*
X10911260Y-11132755D01*
X10893200Y-11129334D01*
X10878740Y-11125313D01*
X10867914Y-11120704D01*
X10860760Y-11115517D01*
X10859095Y-11113518D01*
X10856322Y-11106664D01*
X10856834Y-11099458D01*
X10860281Y-11092523D01*
X10866312Y-11086480D01*
X10874577Y-11081952D01*
X10877363Y-11081006D01*
X10890183Y-11078737D01*
X10905347Y-11078674D01*
X10922204Y-11080743D01*
X10940100Y-11084873D01*
X10954500Y-11089528D01*
X10972242Y-11097130D01*
X10986701Y-11105747D01*
X10997788Y-11115286D01*
X11005414Y-11125653D01*
X11009489Y-11136757D01*
X11010015Y-11147665D01*
X11010015Y-11147665D01*
G36*
X10835450Y-11039034D02*
X10833885Y-11040491D01*
X10829894Y-11042735D01*
X10826985Y-11044103D01*
X10822523Y-11046331D01*
X10819645Y-11048765D01*
X10818304Y-11052022D01*
X10818455Y-11056717D01*
X10820053Y-11063467D01*
X10823051Y-11072887D01*
X10824523Y-11077222D01*
X10829399Y-11094500D01*
X10831381Y-11109614D01*
X10830438Y-11122839D01*
X10826539Y-11134452D01*
X10819654Y-11144728D01*
X10816770Y-11147824D01*
X10808087Y-11154960D01*
X10799160Y-11159579D01*
X10798832Y-11159693D01*
X10789328Y-11161779D01*
X10777664Y-11162618D01*
X10765226Y-11162221D01*
X10753402Y-11160601D01*
X10747963Y-11159280D01*
X10735487Y-11154974D01*
X10726687Y-11150382D01*
X10722426Y-11146644D01*
X10720988Y-11144562D01*
X10721922Y-11143989D01*
X10725847Y-11144617D01*
X10726326Y-11144714D01*
X10737564Y-11146693D01*
X10748796Y-11148150D01*
X10758993Y-11148989D01*
X10767129Y-11149115D01*
X10770399Y-11148838D01*
X10781590Y-11145322D01*
X10791471Y-11138583D01*
X10799371Y-11129108D01*
X10800645Y-11126945D01*
X10803200Y-11122060D01*
X10804837Y-11117843D01*
X10805752Y-11113227D01*
X10806144Y-11107142D01*
X10806212Y-11098520D01*
X10806207Y-11096978D01*
X10805922Y-11086425D01*
X10805028Y-11076955D01*
X10803318Y-11067631D01*
X10800586Y-11057514D01*
X10796628Y-11045670D01*
X10792483Y-11034436D01*
X10789587Y-11026592D01*
X10787347Y-11020149D01*
X10786011Y-11015847D01*
X10785771Y-11014433D01*
X10787607Y-11014906D01*
X10792049Y-11016775D01*
X10798373Y-11019681D01*
X10805856Y-11023265D01*
X10813772Y-11027170D01*
X10821400Y-11031038D01*
X10828015Y-11034509D01*
X10832894Y-11037226D01*
X10835312Y-11038829D01*
X10835450Y-11039034D01*
X10835450Y-11039034D01*
X10835450Y-11039034D01*
G37*
X10835450Y-11039034D02*
X10833885Y-11040491D01*
X10829894Y-11042735D01*
X10826985Y-11044103D01*
X10822523Y-11046331D01*
X10819645Y-11048765D01*
X10818304Y-11052022D01*
X10818455Y-11056717D01*
X10820053Y-11063467D01*
X10823051Y-11072887D01*
X10824523Y-11077222D01*
X10829399Y-11094500D01*
X10831381Y-11109614D01*
X10830438Y-11122839D01*
X10826539Y-11134452D01*
X10819654Y-11144728D01*
X10816770Y-11147824D01*
X10808087Y-11154960D01*
X10799160Y-11159579D01*
X10798832Y-11159693D01*
X10789328Y-11161779D01*
X10777664Y-11162618D01*
X10765226Y-11162221D01*
X10753402Y-11160601D01*
X10747963Y-11159280D01*
X10735487Y-11154974D01*
X10726687Y-11150382D01*
X10722426Y-11146644D01*
X10720988Y-11144562D01*
X10721922Y-11143989D01*
X10725847Y-11144617D01*
X10726326Y-11144714D01*
X10737564Y-11146693D01*
X10748796Y-11148150D01*
X10758993Y-11148989D01*
X10767129Y-11149115D01*
X10770399Y-11148838D01*
X10781590Y-11145322D01*
X10791471Y-11138583D01*
X10799371Y-11129108D01*
X10800645Y-11126945D01*
X10803200Y-11122060D01*
X10804837Y-11117843D01*
X10805752Y-11113227D01*
X10806144Y-11107142D01*
X10806212Y-11098520D01*
X10806207Y-11096978D01*
X10805922Y-11086425D01*
X10805028Y-11076955D01*
X10803318Y-11067631D01*
X10800586Y-11057514D01*
X10796628Y-11045670D01*
X10792483Y-11034436D01*
X10789587Y-11026592D01*
X10787347Y-11020149D01*
X10786011Y-11015847D01*
X10785771Y-11014433D01*
X10787607Y-11014906D01*
X10792049Y-11016775D01*
X10798373Y-11019681D01*
X10805856Y-11023265D01*
X10813772Y-11027170D01*
X10821400Y-11031038D01*
X10828015Y-11034509D01*
X10832894Y-11037226D01*
X10835312Y-11038829D01*
X10835450Y-11039034D01*
X10835450Y-11039034D01*
G36*
X10737163Y-11090399D02*
X10734648Y-11101499D01*
X10729073Y-11111359D01*
X10720665Y-11119449D01*
X10709650Y-11125237D01*
X10709516Y-11125281D01*
X10709516Y-11071081D01*
X10707077Y-11059471D01*
X10701484Y-11048715D01*
X10692935Y-11039199D01*
X10681631Y-11031308D01*
X10668139Y-11025546D01*
X10658628Y-11023143D01*
X10648679Y-11021688D01*
X10639531Y-11021289D01*
X10632422Y-11022052D01*
X10631311Y-11022367D01*
X10628766Y-11024593D01*
X10624917Y-11029793D01*
X10620058Y-11037535D01*
X10615476Y-11045571D01*
X10603404Y-11067527D01*
X10608684Y-11077611D01*
X10613112Y-11084502D01*
X10619030Y-11091761D01*
X10623480Y-11096251D01*
X10636614Y-11106328D01*
X10649759Y-11113071D01*
X10662648Y-11116423D01*
X10675013Y-11116327D01*
X10686588Y-11112725D01*
X10690389Y-11110635D01*
X10698047Y-11104324D01*
X10704023Y-11095537D01*
X10704135Y-11095323D01*
X10708601Y-11083160D01*
X10709516Y-11071081D01*
X10709516Y-11125281D01*
X10706782Y-11126183D01*
X10695687Y-11128244D01*
X10682841Y-11128687D01*
X10669884Y-11127522D01*
X10662356Y-11125953D01*
X10649206Y-11121439D01*
X10635708Y-11115043D01*
X10622814Y-11107350D01*
X10611475Y-11098944D01*
X10602642Y-11090409D01*
X10600824Y-11088176D01*
X10597657Y-11084294D01*
X10595802Y-11083142D01*
X10594442Y-11084348D01*
X10594022Y-11085088D01*
X10592298Y-11088163D01*
X10591667Y-11089151D01*
X10589951Y-11088574D01*
X10585965Y-11086508D01*
X10580611Y-11083487D01*
X10574794Y-11080046D01*
X10569416Y-11076718D01*
X10565380Y-11074036D01*
X10563608Y-11072568D01*
X10564409Y-11070803D01*
X10567137Y-11068865D01*
X10570919Y-11065760D01*
X10574851Y-11060973D01*
X10575716Y-11059644D01*
X10577764Y-11056298D01*
X10581488Y-11050216D01*
X10586598Y-11041872D01*
X10592805Y-11031738D01*
X10599819Y-11020288D01*
X10607350Y-11007995D01*
X10609166Y-11005031D01*
X10618074Y-10990394D01*
X10625130Y-10978559D01*
X10630526Y-10969170D01*
X10634454Y-10961870D01*
X10637106Y-10956301D01*
X10638675Y-10952107D01*
X10639343Y-10949014D01*
X10640192Y-10943810D01*
X10641233Y-10940430D01*
X10641640Y-10939886D01*
X10643182Y-10940933D01*
X10645789Y-10944508D01*
X10648243Y-10948672D01*
X10651912Y-10954342D01*
X10657357Y-10961476D01*
X10663662Y-10968909D01*
X10666804Y-10972323D01*
X10680124Y-10986345D01*
X10669337Y-10984998D01*
X10660114Y-10984524D01*
X10653278Y-10986124D01*
X10647798Y-10990299D01*
X10642643Y-10997550D01*
X10642300Y-10998131D01*
X10636355Y-11008275D01*
X10644181Y-11009572D01*
X10659247Y-11013299D01*
X10674679Y-11019324D01*
X10689775Y-11027192D01*
X10703836Y-11036449D01*
X10716161Y-11046640D01*
X10726049Y-11057311D01*
X10732112Y-11066607D01*
X10736393Y-11078591D01*
X10737163Y-11090399D01*
X10737163Y-11090399D01*
X10737163Y-11090399D01*
G37*
X10737163Y-11090399D02*
X10734648Y-11101499D01*
X10729073Y-11111359D01*
X10720665Y-11119449D01*
X10709650Y-11125237D01*
X10709516Y-11125281D01*
X10709516Y-11071081D01*
X10707077Y-11059471D01*
X10701484Y-11048715D01*
X10692935Y-11039199D01*
X10681631Y-11031308D01*
X10668139Y-11025546D01*
X10658628Y-11023143D01*
X10648679Y-11021688D01*
X10639531Y-11021289D01*
X10632422Y-11022052D01*
X10631311Y-11022367D01*
X10628766Y-11024593D01*
X10624917Y-11029793D01*
X10620058Y-11037535D01*
X10615476Y-11045571D01*
X10603404Y-11067527D01*
X10608684Y-11077611D01*
X10613112Y-11084502D01*
X10619030Y-11091761D01*
X10623480Y-11096251D01*
X10636614Y-11106328D01*
X10649759Y-11113071D01*
X10662648Y-11116423D01*
X10675013Y-11116327D01*
X10686588Y-11112725D01*
X10690389Y-11110635D01*
X10698047Y-11104324D01*
X10704023Y-11095537D01*
X10704135Y-11095323D01*
X10708601Y-11083160D01*
X10709516Y-11071081D01*
X10709516Y-11125281D01*
X10706782Y-11126183D01*
X10695687Y-11128244D01*
X10682841Y-11128687D01*
X10669884Y-11127522D01*
X10662356Y-11125953D01*
X10649206Y-11121439D01*
X10635708Y-11115043D01*
X10622814Y-11107350D01*
X10611475Y-11098944D01*
X10602642Y-11090409D01*
X10600824Y-11088176D01*
X10597657Y-11084294D01*
X10595802Y-11083142D01*
X10594442Y-11084348D01*
X10594022Y-11085088D01*
X10592298Y-11088163D01*
X10591667Y-11089151D01*
X10589951Y-11088574D01*
X10585965Y-11086508D01*
X10580611Y-11083487D01*
X10574794Y-11080046D01*
X10569416Y-11076718D01*
X10565380Y-11074036D01*
X10563608Y-11072568D01*
X10564409Y-11070803D01*
X10567137Y-11068865D01*
X10570919Y-11065760D01*
X10574851Y-11060973D01*
X10575716Y-11059644D01*
X10577764Y-11056298D01*
X10581488Y-11050216D01*
X10586598Y-11041872D01*
X10592805Y-11031738D01*
X10599819Y-11020288D01*
X10607350Y-11007995D01*
X10609166Y-11005031D01*
X10618074Y-10990394D01*
X10625130Y-10978559D01*
X10630526Y-10969170D01*
X10634454Y-10961870D01*
X10637106Y-10956301D01*
X10638675Y-10952107D01*
X10639343Y-10949014D01*
X10640192Y-10943810D01*
X10641233Y-10940430D01*
X10641640Y-10939886D01*
X10643182Y-10940933D01*
X10645789Y-10944508D01*
X10648243Y-10948672D01*
X10651912Y-10954342D01*
X10657357Y-10961476D01*
X10663662Y-10968909D01*
X10666804Y-10972323D01*
X10680124Y-10986345D01*
X10669337Y-10984998D01*
X10660114Y-10984524D01*
X10653278Y-10986124D01*
X10647798Y-10990299D01*
X10642643Y-10997550D01*
X10642300Y-10998131D01*
X10636355Y-11008275D01*
X10644181Y-11009572D01*
X10659247Y-11013299D01*
X10674679Y-11019324D01*
X10689775Y-11027192D01*
X10703836Y-11036449D01*
X10716161Y-11046640D01*
X10726049Y-11057311D01*
X10732112Y-11066607D01*
X10736393Y-11078591D01*
X10737163Y-11090399D01*
X10737163Y-11090399D01*
G36*
X11207709Y-11062796D02*
X11207652Y-11063533D01*
X11207098Y-11065944D01*
X11206056Y-11065778D01*
X11203922Y-11062737D01*
X11202985Y-11061230D01*
X11200349Y-11056551D01*
X11196758Y-11049646D01*
X11192826Y-11041711D01*
X11191185Y-11038284D01*
X11179568Y-11018115D01*
X11164592Y-10999564D01*
X11146315Y-10982673D01*
X11124796Y-10967483D01*
X11100093Y-10954036D01*
X11072264Y-10942374D01*
X11044346Y-10933368D01*
X11030896Y-10929743D01*
X11014231Y-10925542D01*
X10994834Y-10920877D01*
X10973188Y-10915858D01*
X10949778Y-10910596D01*
X10925087Y-10905203D01*
X10899600Y-10899788D01*
X10879667Y-10895659D01*
X10860921Y-10891791D01*
X10845335Y-10888492D01*
X10832373Y-10885629D01*
X10821499Y-10883070D01*
X10812177Y-10880679D01*
X10803869Y-10878325D01*
X10796040Y-10875873D01*
X10788154Y-10873190D01*
X10785278Y-10872170D01*
X10766893Y-10864613D01*
X10750992Y-10855742D01*
X10736334Y-10844769D01*
X10724011Y-10833289D01*
X10715351Y-10825049D01*
X10707105Y-10818094D01*
X10700086Y-10813093D01*
X10697670Y-10811720D01*
X10680280Y-10800836D01*
X10665117Y-10786982D01*
X10652357Y-10770340D01*
X10644488Y-10756180D01*
X10640047Y-10745709D01*
X10638030Y-10737454D01*
X10638433Y-10730755D01*
X10641252Y-10724952D01*
X10644293Y-10721434D01*
X10649023Y-10717572D01*
X10653495Y-10715301D01*
X10654988Y-10715037D01*
X10662925Y-10716763D01*
X10672141Y-10721866D01*
X10682507Y-10730234D01*
X10693895Y-10741754D01*
X10706176Y-10756315D01*
X10713692Y-10766157D01*
X10729923Y-10788114D01*
X10740825Y-10790382D01*
X10749134Y-10791468D01*
X10760008Y-10791929D01*
X10772293Y-10791716D01*
X10772422Y-10791710D01*
X10795788Y-10788795D01*
X10818415Y-10782325D01*
X10839839Y-10772498D01*
X10859594Y-10759511D01*
X10871047Y-10749727D01*
X10883338Y-10736727D01*
X10893033Y-10723064D01*
X10900826Y-10707631D01*
X10905804Y-10694341D01*
X10912426Y-10670032D01*
X10915588Y-10647131D01*
X10915254Y-10625483D01*
X10911386Y-10604937D01*
X10903950Y-10585340D01*
X10892909Y-10566537D01*
X10878226Y-10548377D01*
X10869085Y-10539085D01*
X10847384Y-10520714D01*
X10823614Y-10505233D01*
X10797532Y-10492508D01*
X10768894Y-10482405D01*
X10763161Y-10480775D01*
X10746374Y-10476175D01*
X10728679Y-10482802D01*
X10715065Y-10487593D01*
X10699528Y-10492559D01*
X10683377Y-10497318D01*
X10667917Y-10501485D01*
X10654455Y-10504680D01*
X10652795Y-10505029D01*
X10636003Y-10508052D01*
X10619167Y-10510105D01*
X10601297Y-10511261D01*
X10581402Y-10511591D01*
X10565998Y-10511376D01*
X10552530Y-10510998D01*
X10541998Y-10510528D01*
X10533574Y-10509879D01*
X10526430Y-10508964D01*
X10519740Y-10507695D01*
X10512675Y-10505985D01*
X10511138Y-10505581D01*
X10489268Y-10498450D01*
X10469851Y-10489158D01*
X10452255Y-10477288D01*
X10435845Y-10462424D01*
X10422469Y-10447263D01*
X10417326Y-10440446D01*
X10411675Y-10432208D01*
X10405921Y-10423232D01*
X10400466Y-10414198D01*
X10395714Y-10405786D01*
X10392068Y-10398677D01*
X10389931Y-10393552D01*
X10389541Y-10391684D01*
X10390097Y-10389742D01*
X10391896Y-10390353D01*
X10395134Y-10393704D01*
X10400008Y-10399981D01*
X10403682Y-10405063D01*
X10421169Y-10427114D01*
X10439868Y-10445715D01*
X10459880Y-10460900D01*
X10481304Y-10472705D01*
X10504241Y-10481164D01*
X10528791Y-10486312D01*
X10555054Y-10488184D01*
X10583130Y-10486815D01*
X10613120Y-10482239D01*
X10620963Y-10480590D01*
X10632387Y-10477980D01*
X10642761Y-10475375D01*
X10652519Y-10472595D01*
X10662095Y-10469457D01*
X10671923Y-10465780D01*
X10682437Y-10461382D01*
X10694070Y-10456082D01*
X10707258Y-10449698D01*
X10722433Y-10442049D01*
X10740029Y-10432952D01*
X10760481Y-10422226D01*
X10760870Y-10422021D01*
X10786058Y-10408988D01*
X10808565Y-10397874D01*
X10828832Y-10388495D01*
X10847302Y-10380668D01*
X10864415Y-10374211D01*
X10880612Y-10368942D01*
X10896336Y-10364676D01*
X10903319Y-10363048D01*
X10914584Y-10361094D01*
X10928347Y-10359557D01*
X10943710Y-10358462D01*
X10959775Y-10357831D01*
X10975645Y-10357686D01*
X10990422Y-10358050D01*
X11003208Y-10358947D01*
X11012484Y-10360271D01*
X11034422Y-10365623D01*
X11055165Y-10372530D01*
X11074241Y-10380752D01*
X11091177Y-10390045D01*
X11105500Y-10400169D01*
X11116738Y-10410881D01*
X11120384Y-10415442D01*
X11126289Y-10425676D01*
X11130318Y-10436996D01*
X11132093Y-10448102D01*
X11131807Y-10454963D01*
X11130534Y-10462212D01*
X11129220Y-10466413D01*
X11127573Y-10468274D01*
X11126157Y-10468563D01*
X11124513Y-10466850D01*
X11123793Y-10461633D01*
X11123753Y-10459354D01*
X11122389Y-10446274D01*
X11118161Y-10434721D01*
X11110861Y-10424422D01*
X11100283Y-10415105D01*
X11086221Y-10406499D01*
X11081926Y-10404324D01*
X11055738Y-10393466D01*
X11028870Y-10386206D01*
X11001113Y-10382510D01*
X10972255Y-10382345D01*
X10953936Y-10383974D01*
X10938857Y-10386349D01*
X10923609Y-10389870D01*
X10907752Y-10394707D01*
X10890848Y-10401031D01*
X10872458Y-10409013D01*
X10852143Y-10418824D01*
X10829464Y-10430634D01*
X10817578Y-10437081D01*
X10807160Y-10442787D01*
X10799729Y-10446948D01*
X10795000Y-10449877D01*
X10792687Y-10451889D01*
X10792507Y-10453297D01*
X10794173Y-10454416D01*
X10797402Y-10455559D01*
X10800037Y-10456408D01*
X10816255Y-10462655D01*
X10833713Y-10470990D01*
X10851084Y-10480750D01*
X10860315Y-10486614D01*
X10882561Y-10503329D01*
X10901477Y-10521588D01*
X10917015Y-10541289D01*
X10929126Y-10562325D01*
X10937762Y-10584592D01*
X10942873Y-10607986D01*
X10944411Y-10632402D01*
X10942327Y-10657735D01*
X10941694Y-10661639D01*
X10935338Y-10689475D01*
X10926299Y-10714696D01*
X10914514Y-10737385D01*
X10899922Y-10757625D01*
X10882460Y-10775501D01*
X10862068Y-10791096D01*
X10838683Y-10804494D01*
X10834742Y-10806401D01*
X10811325Y-10815868D01*
X10788753Y-10821747D01*
X10775400Y-10823563D01*
X10761445Y-10824768D01*
X10766934Y-10829152D01*
X10776134Y-10835313D01*
X10788324Y-10841636D01*
X10802767Y-10847759D01*
X10810052Y-10850438D01*
X10817413Y-10852790D01*
X10827955Y-10855830D01*
X10841184Y-10859433D01*
X10856606Y-10863475D01*
X10873729Y-10867834D01*
X10892058Y-10872385D01*
X10911100Y-10877005D01*
X10930361Y-10881570D01*
X10949348Y-10885956D01*
X10967566Y-10890040D01*
X10971859Y-10890980D01*
X10998852Y-10897124D01*
X11022572Y-10903097D01*
X11043495Y-10909049D01*
X11062096Y-10915129D01*
X11078853Y-10921487D01*
X11094241Y-10928272D01*
X11100741Y-10931451D01*
X11125881Y-10946012D01*
X11148010Y-10962821D01*
X11167121Y-10981870D01*
X11183208Y-11003154D01*
X11194332Y-11022659D01*
X11198442Y-11031675D01*
X11202127Y-11041095D01*
X11205095Y-11050020D01*
X11207053Y-11057553D01*
X11207709Y-11062796D01*
X11207709Y-11062796D01*
X11207709Y-11062796D01*
G37*
X11207709Y-11062796D02*
X11207652Y-11063533D01*
X11207098Y-11065944D01*
X11206056Y-11065778D01*
X11203922Y-11062737D01*
X11202985Y-11061230D01*
X11200349Y-11056551D01*
X11196758Y-11049646D01*
X11192826Y-11041711D01*
X11191185Y-11038284D01*
X11179568Y-11018115D01*
X11164592Y-10999564D01*
X11146315Y-10982673D01*
X11124796Y-10967483D01*
X11100093Y-10954036D01*
X11072264Y-10942374D01*
X11044346Y-10933368D01*
X11030896Y-10929743D01*
X11014231Y-10925542D01*
X10994834Y-10920877D01*
X10973188Y-10915858D01*
X10949778Y-10910596D01*
X10925087Y-10905203D01*
X10899600Y-10899788D01*
X10879667Y-10895659D01*
X10860921Y-10891791D01*
X10845335Y-10888492D01*
X10832373Y-10885629D01*
X10821499Y-10883070D01*
X10812177Y-10880679D01*
X10803869Y-10878325D01*
X10796040Y-10875873D01*
X10788154Y-10873190D01*
X10785278Y-10872170D01*
X10766893Y-10864613D01*
X10750992Y-10855742D01*
X10736334Y-10844769D01*
X10724011Y-10833289D01*
X10715351Y-10825049D01*
X10707105Y-10818094D01*
X10700086Y-10813093D01*
X10697670Y-10811720D01*
X10680280Y-10800836D01*
X10665117Y-10786982D01*
X10652357Y-10770340D01*
X10644488Y-10756180D01*
X10640047Y-10745709D01*
X10638030Y-10737454D01*
X10638433Y-10730755D01*
X10641252Y-10724952D01*
X10644293Y-10721434D01*
X10649023Y-10717572D01*
X10653495Y-10715301D01*
X10654988Y-10715037D01*
X10662925Y-10716763D01*
X10672141Y-10721866D01*
X10682507Y-10730234D01*
X10693895Y-10741754D01*
X10706176Y-10756315D01*
X10713692Y-10766157D01*
X10729923Y-10788114D01*
X10740825Y-10790382D01*
X10749134Y-10791468D01*
X10760008Y-10791929D01*
X10772293Y-10791716D01*
X10772422Y-10791710D01*
X10795788Y-10788795D01*
X10818415Y-10782325D01*
X10839839Y-10772498D01*
X10859594Y-10759511D01*
X10871047Y-10749727D01*
X10883338Y-10736727D01*
X10893033Y-10723064D01*
X10900826Y-10707631D01*
X10905804Y-10694341D01*
X10912426Y-10670032D01*
X10915588Y-10647131D01*
X10915254Y-10625483D01*
X10911386Y-10604937D01*
X10903950Y-10585340D01*
X10892909Y-10566537D01*
X10878226Y-10548377D01*
X10869085Y-10539085D01*
X10847384Y-10520714D01*
X10823614Y-10505233D01*
X10797532Y-10492508D01*
X10768894Y-10482405D01*
X10763161Y-10480775D01*
X10746374Y-10476175D01*
X10728679Y-10482802D01*
X10715065Y-10487593D01*
X10699528Y-10492559D01*
X10683377Y-10497318D01*
X10667917Y-10501485D01*
X10654455Y-10504680D01*
X10652795Y-10505029D01*
X10636003Y-10508052D01*
X10619167Y-10510105D01*
X10601297Y-10511261D01*
X10581402Y-10511591D01*
X10565998Y-10511376D01*
X10552530Y-10510998D01*
X10541998Y-10510528D01*
X10533574Y-10509879D01*
X10526430Y-10508964D01*
X10519740Y-10507695D01*
X10512675Y-10505985D01*
X10511138Y-10505581D01*
X10489268Y-10498450D01*
X10469851Y-10489158D01*
X10452255Y-10477288D01*
X10435845Y-10462424D01*
X10422469Y-10447263D01*
X10417326Y-10440446D01*
X10411675Y-10432208D01*
X10405921Y-10423232D01*
X10400466Y-10414198D01*
X10395714Y-10405786D01*
X10392068Y-10398677D01*
X10389931Y-10393552D01*
X10389541Y-10391684D01*
X10390097Y-10389742D01*
X10391896Y-10390353D01*
X10395134Y-10393704D01*
X10400008Y-10399981D01*
X10403682Y-10405063D01*
X10421169Y-10427114D01*
X10439868Y-10445715D01*
X10459880Y-10460900D01*
X10481304Y-10472705D01*
X10504241Y-10481164D01*
X10528791Y-10486312D01*
X10555054Y-10488184D01*
X10583130Y-10486815D01*
X10613120Y-10482239D01*
X10620963Y-10480590D01*
X10632387Y-10477980D01*
X10642761Y-10475375D01*
X10652519Y-10472595D01*
X10662095Y-10469457D01*
X10671923Y-10465780D01*
X10682437Y-10461382D01*
X10694070Y-10456082D01*
X10707258Y-10449698D01*
X10722433Y-10442049D01*
X10740029Y-10432952D01*
X10760481Y-10422226D01*
X10760870Y-10422021D01*
X10786058Y-10408988D01*
X10808565Y-10397874D01*
X10828832Y-10388495D01*
X10847302Y-10380668D01*
X10864415Y-10374211D01*
X10880612Y-10368942D01*
X10896336Y-10364676D01*
X10903319Y-10363048D01*
X10914584Y-10361094D01*
X10928347Y-10359557D01*
X10943710Y-10358462D01*
X10959775Y-10357831D01*
X10975645Y-10357686D01*
X10990422Y-10358050D01*
X11003208Y-10358947D01*
X11012484Y-10360271D01*
X11034422Y-10365623D01*
X11055165Y-10372530D01*
X11074241Y-10380752D01*
X11091177Y-10390045D01*
X11105500Y-10400169D01*
X11116738Y-10410881D01*
X11120384Y-10415442D01*
X11126289Y-10425676D01*
X11130318Y-10436996D01*
X11132093Y-10448102D01*
X11131807Y-10454963D01*
X11130534Y-10462212D01*
X11129220Y-10466413D01*
X11127573Y-10468274D01*
X11126157Y-10468563D01*
X11124513Y-10466850D01*
X11123793Y-10461633D01*
X11123753Y-10459354D01*
X11122389Y-10446274D01*
X11118161Y-10434721D01*
X11110861Y-10424422D01*
X11100283Y-10415105D01*
X11086221Y-10406499D01*
X11081926Y-10404324D01*
X11055738Y-10393466D01*
X11028870Y-10386206D01*
X11001113Y-10382510D01*
X10972255Y-10382345D01*
X10953936Y-10383974D01*
X10938857Y-10386349D01*
X10923609Y-10389870D01*
X10907752Y-10394707D01*
X10890848Y-10401031D01*
X10872458Y-10409013D01*
X10852143Y-10418824D01*
X10829464Y-10430634D01*
X10817578Y-10437081D01*
X10807160Y-10442787D01*
X10799729Y-10446948D01*
X10795000Y-10449877D01*
X10792687Y-10451889D01*
X10792507Y-10453297D01*
X10794173Y-10454416D01*
X10797402Y-10455559D01*
X10800037Y-10456408D01*
X10816255Y-10462655D01*
X10833713Y-10470990D01*
X10851084Y-10480750D01*
X10860315Y-10486614D01*
X10882561Y-10503329D01*
X10901477Y-10521588D01*
X10917015Y-10541289D01*
X10929126Y-10562325D01*
X10937762Y-10584592D01*
X10942873Y-10607986D01*
X10944411Y-10632402D01*
X10942327Y-10657735D01*
X10941694Y-10661639D01*
X10935338Y-10689475D01*
X10926299Y-10714696D01*
X10914514Y-10737385D01*
X10899922Y-10757625D01*
X10882460Y-10775501D01*
X10862068Y-10791096D01*
X10838683Y-10804494D01*
X10834742Y-10806401D01*
X10811325Y-10815868D01*
X10788753Y-10821747D01*
X10775400Y-10823563D01*
X10761445Y-10824768D01*
X10766934Y-10829152D01*
X10776134Y-10835313D01*
X10788324Y-10841636D01*
X10802767Y-10847759D01*
X10810052Y-10850438D01*
X10817413Y-10852790D01*
X10827955Y-10855830D01*
X10841184Y-10859433D01*
X10856606Y-10863475D01*
X10873729Y-10867834D01*
X10892058Y-10872385D01*
X10911100Y-10877005D01*
X10930361Y-10881570D01*
X10949348Y-10885956D01*
X10967566Y-10890040D01*
X10971859Y-10890980D01*
X10998852Y-10897124D01*
X11022572Y-10903097D01*
X11043495Y-10909049D01*
X11062096Y-10915129D01*
X11078853Y-10921487D01*
X11094241Y-10928272D01*
X11100741Y-10931451D01*
X11125881Y-10946012D01*
X11148010Y-10962821D01*
X11167121Y-10981870D01*
X11183208Y-11003154D01*
X11194332Y-11022659D01*
X11198442Y-11031675D01*
X11202127Y-11041095D01*
X11205095Y-11050020D01*
X11207053Y-11057553D01*
X11207709Y-11062796D01*
X11207709Y-11062796D01*
G36*
X10562260Y-10957115D02*
X10561458Y-10958048D01*
X10558560Y-10956174D01*
X10554339Y-10952460D01*
X10546042Y-10946300D01*
X10537861Y-10943577D01*
X10528988Y-10944082D01*
X10525582Y-10944978D01*
X10517691Y-10947400D01*
X10528245Y-10959630D01*
X10538279Y-10972299D01*
X10546853Y-10985198D01*
X10553646Y-10997710D01*
X10558334Y-11009217D01*
X10560596Y-11019100D01*
X10560756Y-11021948D01*
X10559543Y-11029382D01*
X10556373Y-11036228D01*
X10551946Y-11041140D01*
X10550228Y-11042154D01*
X10541881Y-11044247D01*
X10541881Y-11003627D01*
X10540663Y-10996043D01*
X10537233Y-10986782D01*
X10532078Y-10976791D01*
X10525685Y-10967016D01*
X10518706Y-10958577D01*
X10509015Y-10948342D01*
X10487763Y-10951876D01*
X10479245Y-10953364D01*
X10472163Y-10954737D01*
X10467300Y-10955833D01*
X10465468Y-10956453D01*
X10465268Y-10959042D01*
X10466623Y-10964193D01*
X10469271Y-10971168D01*
X10472953Y-10979232D01*
X10474905Y-10983073D01*
X10482105Y-10994545D01*
X10490589Y-11004401D01*
X10499857Y-11012328D01*
X10509411Y-11018014D01*
X10518752Y-11021148D01*
X10527383Y-11021416D01*
X10533127Y-11019530D01*
X10538558Y-11015381D01*
X10541280Y-11009682D01*
X10541881Y-11003627D01*
X10541881Y-11044247D01*
X10541777Y-11044273D01*
X10531571Y-11044167D01*
X10520801Y-11041948D01*
X10512307Y-11038590D01*
X10503285Y-11032867D01*
X10493637Y-11024732D01*
X10484348Y-11015173D01*
X10476400Y-11005180D01*
X10471959Y-10998080D01*
X10468983Y-10991673D01*
X10465698Y-10983244D01*
X10462727Y-10974415D01*
X10462223Y-10972735D01*
X10459977Y-10965687D01*
X10457918Y-10960319D01*
X10456368Y-10957428D01*
X10455924Y-10957148D01*
X10453406Y-10957442D01*
X10448119Y-10957928D01*
X10441050Y-10958517D01*
X10438378Y-10958728D01*
X10422467Y-10959968D01*
X10412229Y-10949497D01*
X10407513Y-10944477D01*
X10404176Y-10940539D01*
X10402796Y-10938381D01*
X10402821Y-10938205D01*
X10404876Y-10937768D01*
X10410054Y-10937070D01*
X10417728Y-10936184D01*
X10427273Y-10935184D01*
X10435909Y-10934343D01*
X10449670Y-10932919D01*
X10465086Y-10931117D01*
X10480518Y-10929141D01*
X10494326Y-10927194D01*
X10497873Y-10926651D01*
X10509214Y-10925006D01*
X10520382Y-10923616D01*
X10530343Y-10922595D01*
X10538066Y-10922056D01*
X10540405Y-10922000D01*
X10553230Y-10922000D01*
X10553248Y-10929056D01*
X10554078Y-10934790D01*
X10556186Y-10941862D01*
X10557952Y-10946176D01*
X10561060Y-10953212D01*
X10562260Y-10957115D01*
X10562260Y-10957115D01*
X10562260Y-10957115D01*
G37*
X10562260Y-10957115D02*
X10561458Y-10958048D01*
X10558560Y-10956174D01*
X10554339Y-10952460D01*
X10546042Y-10946300D01*
X10537861Y-10943577D01*
X10528988Y-10944082D01*
X10525582Y-10944978D01*
X10517691Y-10947400D01*
X10528245Y-10959630D01*
X10538279Y-10972299D01*
X10546853Y-10985198D01*
X10553646Y-10997710D01*
X10558334Y-11009217D01*
X10560596Y-11019100D01*
X10560756Y-11021948D01*
X10559543Y-11029382D01*
X10556373Y-11036228D01*
X10551946Y-11041140D01*
X10550228Y-11042154D01*
X10541881Y-11044247D01*
X10541881Y-11003627D01*
X10540663Y-10996043D01*
X10537233Y-10986782D01*
X10532078Y-10976791D01*
X10525685Y-10967016D01*
X10518706Y-10958577D01*
X10509015Y-10948342D01*
X10487763Y-10951876D01*
X10479245Y-10953364D01*
X10472163Y-10954737D01*
X10467300Y-10955833D01*
X10465468Y-10956453D01*
X10465268Y-10959042D01*
X10466623Y-10964193D01*
X10469271Y-10971168D01*
X10472953Y-10979232D01*
X10474905Y-10983073D01*
X10482105Y-10994545D01*
X10490589Y-11004401D01*
X10499857Y-11012328D01*
X10509411Y-11018014D01*
X10518752Y-11021148D01*
X10527383Y-11021416D01*
X10533127Y-11019530D01*
X10538558Y-11015381D01*
X10541280Y-11009682D01*
X10541881Y-11003627D01*
X10541881Y-11044247D01*
X10541777Y-11044273D01*
X10531571Y-11044167D01*
X10520801Y-11041948D01*
X10512307Y-11038590D01*
X10503285Y-11032867D01*
X10493637Y-11024732D01*
X10484348Y-11015173D01*
X10476400Y-11005180D01*
X10471959Y-10998080D01*
X10468983Y-10991673D01*
X10465698Y-10983244D01*
X10462727Y-10974415D01*
X10462223Y-10972735D01*
X10459977Y-10965687D01*
X10457918Y-10960319D01*
X10456368Y-10957428D01*
X10455924Y-10957148D01*
X10453406Y-10957442D01*
X10448119Y-10957928D01*
X10441050Y-10958517D01*
X10438378Y-10958728D01*
X10422467Y-10959968D01*
X10412229Y-10949497D01*
X10407513Y-10944477D01*
X10404176Y-10940539D01*
X10402796Y-10938381D01*
X10402821Y-10938205D01*
X10404876Y-10937768D01*
X10410054Y-10937070D01*
X10417728Y-10936184D01*
X10427273Y-10935184D01*
X10435909Y-10934343D01*
X10449670Y-10932919D01*
X10465086Y-10931117D01*
X10480518Y-10929141D01*
X10494326Y-10927194D01*
X10497873Y-10926651D01*
X10509214Y-10925006D01*
X10520382Y-10923616D01*
X10530343Y-10922595D01*
X10538066Y-10922056D01*
X10540405Y-10922000D01*
X10553230Y-10922000D01*
X10553248Y-10929056D01*
X10554078Y-10934790D01*
X10556186Y-10941862D01*
X10557952Y-10946176D01*
X10561060Y-10953212D01*
X10562260Y-10957115D01*
X10562260Y-10957115D01*
G36*
X10499630Y-10836997D02*
X10497410Y-10837099D01*
X10493018Y-10836207D01*
X10491405Y-10835753D01*
X10486269Y-10834358D01*
X10482584Y-10833610D01*
X10482059Y-10833570D01*
X10478416Y-10835375D01*
X10474280Y-10840606D01*
X10469833Y-10848986D01*
X10466481Y-10856973D01*
X10463418Y-10864717D01*
X10460485Y-10871781D01*
X10458208Y-10876910D01*
X10457780Y-10877785D01*
X10449657Y-10890075D01*
X10439360Y-10899701D01*
X10427418Y-10906475D01*
X10414361Y-10910206D01*
X10400716Y-10910704D01*
X10387013Y-10907780D01*
X10381074Y-10905347D01*
X10371465Y-10899542D01*
X10361990Y-10891628D01*
X10353329Y-10882398D01*
X10346162Y-10872645D01*
X10341169Y-10863161D01*
X10339240Y-10856583D01*
X10338106Y-10849563D01*
X10352401Y-10863987D01*
X10362758Y-10873872D01*
X10371608Y-10880949D01*
X10379512Y-10885551D01*
X10387034Y-10888011D01*
X10393990Y-10888671D01*
X10406765Y-10886806D01*
X10419132Y-10881248D01*
X10431005Y-10872054D01*
X10442299Y-10859279D01*
X10445899Y-10854267D01*
X10451882Y-10845031D01*
X10456863Y-10836046D01*
X10461411Y-10826147D01*
X10466098Y-10814167D01*
X10467867Y-10809291D01*
X10470696Y-10801388D01*
X10473119Y-10794633D01*
X10474810Y-10789932D01*
X10475360Y-10788415D01*
X10476505Y-10788918D01*
X10478945Y-10792506D01*
X10482470Y-10798816D01*
X10486865Y-10807485D01*
X10488482Y-10810825D01*
X10492653Y-10819716D01*
X10496073Y-10827363D01*
X10498480Y-10833151D01*
X10499613Y-10836467D01*
X10499630Y-10836997D01*
X10499630Y-10836997D01*
X10499630Y-10836997D01*
G37*
X10499630Y-10836997D02*
X10497410Y-10837099D01*
X10493018Y-10836207D01*
X10491405Y-10835753D01*
X10486269Y-10834358D01*
X10482584Y-10833610D01*
X10482059Y-10833570D01*
X10478416Y-10835375D01*
X10474280Y-10840606D01*
X10469833Y-10848986D01*
X10466481Y-10856973D01*
X10463418Y-10864717D01*
X10460485Y-10871781D01*
X10458208Y-10876910D01*
X10457780Y-10877785D01*
X10449657Y-10890075D01*
X10439360Y-10899701D01*
X10427418Y-10906475D01*
X10414361Y-10910206D01*
X10400716Y-10910704D01*
X10387013Y-10907780D01*
X10381074Y-10905347D01*
X10371465Y-10899542D01*
X10361990Y-10891628D01*
X10353329Y-10882398D01*
X10346162Y-10872645D01*
X10341169Y-10863161D01*
X10339240Y-10856583D01*
X10338106Y-10849563D01*
X10352401Y-10863987D01*
X10362758Y-10873872D01*
X10371608Y-10880949D01*
X10379512Y-10885551D01*
X10387034Y-10888011D01*
X10393990Y-10888671D01*
X10406765Y-10886806D01*
X10419132Y-10881248D01*
X10431005Y-10872054D01*
X10442299Y-10859279D01*
X10445899Y-10854267D01*
X10451882Y-10845031D01*
X10456863Y-10836046D01*
X10461411Y-10826147D01*
X10466098Y-10814167D01*
X10467867Y-10809291D01*
X10470696Y-10801388D01*
X10473119Y-10794633D01*
X10474810Y-10789932D01*
X10475360Y-10788415D01*
X10476505Y-10788918D01*
X10478945Y-10792506D01*
X10482470Y-10798816D01*
X10486865Y-10807485D01*
X10488482Y-10810825D01*
X10492653Y-10819716D01*
X10496073Y-10827363D01*
X10498480Y-10833151D01*
X10499613Y-10836467D01*
X10499630Y-10836997D01*
X10499630Y-10836997D01*
G36*
X10427170Y-10807384D02*
X10425878Y-10807561D01*
X10422622Y-10805760D01*
X10420899Y-10804519D01*
X10412902Y-10799932D01*
X10405209Y-10798321D01*
X10398708Y-10799783D01*
X10392110Y-10803493D01*
X10384026Y-10808424D01*
X10375052Y-10814168D01*
X10365787Y-10820315D01*
X10356830Y-10826457D01*
X10348777Y-10832184D01*
X10342228Y-10837088D01*
X10337780Y-10840760D01*
X10336110Y-10842584D01*
X10333535Y-10847499D01*
X10326999Y-10837242D01*
X10322334Y-10829667D01*
X10318381Y-10822776D01*
X10315564Y-10817348D01*
X10314309Y-10814164D01*
X10314282Y-10813908D01*
X10315905Y-10813149D01*
X10319317Y-10812874D01*
X10322645Y-10811889D01*
X10328805Y-10809051D01*
X10337462Y-10804536D01*
X10348277Y-10798521D01*
X10360916Y-10791182D01*
X10362412Y-10790296D01*
X10373250Y-10783916D01*
X10383058Y-10778235D01*
X10391360Y-10773521D01*
X10397679Y-10770043D01*
X10401540Y-10768069D01*
X10402484Y-10767719D01*
X10404584Y-10769238D01*
X10407165Y-10772979D01*
X10407621Y-10773833D01*
X10410175Y-10778412D01*
X10414024Y-10784840D01*
X10418392Y-10791824D01*
X10418958Y-10792707D01*
X10422799Y-10798899D01*
X10425680Y-10803969D01*
X10427101Y-10807027D01*
X10427170Y-10807384D01*
X10427170Y-10807384D01*
X10427170Y-10807384D01*
G37*
X10427170Y-10807384D02*
X10425878Y-10807561D01*
X10422622Y-10805760D01*
X10420899Y-10804519D01*
X10412902Y-10799932D01*
X10405209Y-10798321D01*
X10398708Y-10799783D01*
X10392110Y-10803493D01*
X10384026Y-10808424D01*
X10375052Y-10814168D01*
X10365787Y-10820315D01*
X10356830Y-10826457D01*
X10348777Y-10832184D01*
X10342228Y-10837088D01*
X10337780Y-10840760D01*
X10336110Y-10842584D01*
X10333535Y-10847499D01*
X10326999Y-10837242D01*
X10322334Y-10829667D01*
X10318381Y-10822776D01*
X10315564Y-10817348D01*
X10314309Y-10814164D01*
X10314282Y-10813908D01*
X10315905Y-10813149D01*
X10319317Y-10812874D01*
X10322645Y-10811889D01*
X10328805Y-10809051D01*
X10337462Y-10804536D01*
X10348277Y-10798521D01*
X10360916Y-10791182D01*
X10362412Y-10790296D01*
X10373250Y-10783916D01*
X10383058Y-10778235D01*
X10391360Y-10773521D01*
X10397679Y-10770043D01*
X10401540Y-10768069D01*
X10402484Y-10767719D01*
X10404584Y-10769238D01*
X10407165Y-10772979D01*
X10407621Y-10773833D01*
X10410175Y-10778412D01*
X10414024Y-10784840D01*
X10418392Y-10791824D01*
X10418958Y-10792707D01*
X10422799Y-10798899D01*
X10425680Y-10803969D01*
X10427101Y-10807027D01*
X10427170Y-10807384D01*
X10427170Y-10807384D01*
G36*
X10396430Y-10757693D02*
X10394545Y-10757249D01*
X10390299Y-10755402D01*
X10384917Y-10752709D01*
X10378640Y-10749730D01*
X10373152Y-10747683D01*
X10370065Y-10747053D01*
X10366638Y-10747956D01*
X10360727Y-10750397D01*
X10352994Y-10754022D01*
X10344105Y-10758474D01*
X10334724Y-10763399D01*
X10325514Y-10768443D01*
X10317140Y-10773249D01*
X10310266Y-10777462D01*
X10305557Y-10780728D01*
X10303743Y-10782512D01*
X10301682Y-10786150D01*
X10300503Y-10787769D01*
X10299289Y-10786673D01*
X10296925Y-10782792D01*
X10293784Y-10776783D01*
X10291140Y-10771273D01*
X10282948Y-10753607D01*
X10289678Y-10752554D01*
X10294377Y-10751238D01*
X10301334Y-10748558D01*
X10309875Y-10744851D01*
X10319328Y-10740450D01*
X10329021Y-10735689D01*
X10338280Y-10730904D01*
X10346432Y-10726429D01*
X10352806Y-10722599D01*
X10356728Y-10719748D01*
X10357557Y-10718797D01*
X10359294Y-10712748D01*
X10359721Y-10704439D01*
X10358899Y-10695115D01*
X10356885Y-10686021D01*
X10355882Y-10683052D01*
X10349505Y-10670277D01*
X10341211Y-10660734D01*
X10331012Y-10654432D01*
X10318920Y-10651378D01*
X10313041Y-10651067D01*
X10300068Y-10652431D01*
X10286665Y-10656197D01*
X10274117Y-10661876D01*
X10263710Y-10668980D01*
X10262099Y-10670434D01*
X10258249Y-10673690D01*
X10255562Y-10675239D01*
X10254999Y-10675196D01*
X10254024Y-10673003D01*
X10252411Y-10668184D01*
X10250496Y-10661746D01*
X10250346Y-10661214D01*
X10248510Y-10654396D01*
X10247943Y-10649836D01*
X10249111Y-10646610D01*
X10252481Y-10643798D01*
X10258518Y-10640477D01*
X10261648Y-10638870D01*
X10280097Y-10631285D01*
X10298759Y-10627410D01*
X10314292Y-10626957D01*
X10322679Y-10627296D01*
X10328098Y-10626916D01*
X10331197Y-10625176D01*
X10332628Y-10621429D01*
X10333040Y-10615034D01*
X10333071Y-10608356D01*
X10331796Y-10592115D01*
X10327964Y-10578157D01*
X10321676Y-10566706D01*
X10313036Y-10557984D01*
X10308637Y-10555136D01*
X10303969Y-10552799D01*
X10299480Y-10551404D01*
X10293983Y-10550739D01*
X10286290Y-10550594D01*
X10283237Y-10550622D01*
X10270519Y-10551347D01*
X10260139Y-10553412D01*
X10250800Y-10557197D01*
X10241692Y-10562742D01*
X10236864Y-10565840D01*
X10233407Y-10567643D01*
X10232308Y-10567838D01*
X10231774Y-10565707D01*
X10231099Y-10560807D01*
X10230413Y-10554121D01*
X10230302Y-10552835D01*
X10229102Y-10538637D01*
X10237355Y-10533916D01*
X10250039Y-10527754D01*
X10262830Y-10524011D01*
X10277080Y-10522347D01*
X10284178Y-10522187D01*
X10292918Y-10522295D01*
X10299024Y-10522766D01*
X10303623Y-10523817D01*
X10307841Y-10525663D01*
X10310756Y-10527302D01*
X10319648Y-10534536D01*
X10327238Y-10545070D01*
X10333614Y-10559035D01*
X10335194Y-10563578D01*
X10336980Y-10569582D01*
X10338223Y-10575449D01*
X10339024Y-10582098D01*
X10339485Y-10590450D01*
X10339708Y-10601422D01*
X10339738Y-10604553D01*
X10339962Y-10632358D01*
X10346885Y-10639448D01*
X10351770Y-10645540D01*
X10355766Y-10653139D01*
X10359053Y-10662794D01*
X10361814Y-10675051D01*
X10364231Y-10690459D01*
X10364492Y-10692434D01*
X10365869Y-10702535D01*
X10366998Y-10709413D01*
X10368016Y-10713589D01*
X10369060Y-10715584D01*
X10370265Y-10715918D01*
X10370621Y-10715797D01*
X10377132Y-10713669D01*
X10380963Y-10713919D01*
X10382015Y-10716013D01*
X10382690Y-10719052D01*
X10384513Y-10724684D01*
X10387186Y-10732029D01*
X10389574Y-10738150D01*
X10392583Y-10745865D01*
X10394889Y-10752188D01*
X10396230Y-10756376D01*
X10396430Y-10757693D01*
X10396430Y-10757693D01*
X10396430Y-10757693D01*
G37*
X10396430Y-10757693D02*
X10394545Y-10757249D01*
X10390299Y-10755402D01*
X10384917Y-10752709D01*
X10378640Y-10749730D01*
X10373152Y-10747683D01*
X10370065Y-10747053D01*
X10366638Y-10747956D01*
X10360727Y-10750397D01*
X10352994Y-10754022D01*
X10344105Y-10758474D01*
X10334724Y-10763399D01*
X10325514Y-10768443D01*
X10317140Y-10773249D01*
X10310266Y-10777462D01*
X10305557Y-10780728D01*
X10303743Y-10782512D01*
X10301682Y-10786150D01*
X10300503Y-10787769D01*
X10299289Y-10786673D01*
X10296925Y-10782792D01*
X10293784Y-10776783D01*
X10291140Y-10771273D01*
X10282948Y-10753607D01*
X10289678Y-10752554D01*
X10294377Y-10751238D01*
X10301334Y-10748558D01*
X10309875Y-10744851D01*
X10319328Y-10740450D01*
X10329021Y-10735689D01*
X10338280Y-10730904D01*
X10346432Y-10726429D01*
X10352806Y-10722599D01*
X10356728Y-10719748D01*
X10357557Y-10718797D01*
X10359294Y-10712748D01*
X10359721Y-10704439D01*
X10358899Y-10695115D01*
X10356885Y-10686021D01*
X10355882Y-10683052D01*
X10349505Y-10670277D01*
X10341211Y-10660734D01*
X10331012Y-10654432D01*
X10318920Y-10651378D01*
X10313041Y-10651067D01*
X10300068Y-10652431D01*
X10286665Y-10656197D01*
X10274117Y-10661876D01*
X10263710Y-10668980D01*
X10262099Y-10670434D01*
X10258249Y-10673690D01*
X10255562Y-10675239D01*
X10254999Y-10675196D01*
X10254024Y-10673003D01*
X10252411Y-10668184D01*
X10250496Y-10661746D01*
X10250346Y-10661214D01*
X10248510Y-10654396D01*
X10247943Y-10649836D01*
X10249111Y-10646610D01*
X10252481Y-10643798D01*
X10258518Y-10640477D01*
X10261648Y-10638870D01*
X10280097Y-10631285D01*
X10298759Y-10627410D01*
X10314292Y-10626957D01*
X10322679Y-10627296D01*
X10328098Y-10626916D01*
X10331197Y-10625176D01*
X10332628Y-10621429D01*
X10333040Y-10615034D01*
X10333071Y-10608356D01*
X10331796Y-10592115D01*
X10327964Y-10578157D01*
X10321676Y-10566706D01*
X10313036Y-10557984D01*
X10308637Y-10555136D01*
X10303969Y-10552799D01*
X10299480Y-10551404D01*
X10293983Y-10550739D01*
X10286290Y-10550594D01*
X10283237Y-10550622D01*
X10270519Y-10551347D01*
X10260139Y-10553412D01*
X10250800Y-10557197D01*
X10241692Y-10562742D01*
X10236864Y-10565840D01*
X10233407Y-10567643D01*
X10232308Y-10567838D01*
X10231774Y-10565707D01*
X10231099Y-10560807D01*
X10230413Y-10554121D01*
X10230302Y-10552835D01*
X10229102Y-10538637D01*
X10237355Y-10533916D01*
X10250039Y-10527754D01*
X10262830Y-10524011D01*
X10277080Y-10522347D01*
X10284178Y-10522187D01*
X10292918Y-10522295D01*
X10299024Y-10522766D01*
X10303623Y-10523817D01*
X10307841Y-10525663D01*
X10310756Y-10527302D01*
X10319648Y-10534536D01*
X10327238Y-10545070D01*
X10333614Y-10559035D01*
X10335194Y-10563578D01*
X10336980Y-10569582D01*
X10338223Y-10575449D01*
X10339024Y-10582098D01*
X10339485Y-10590450D01*
X10339708Y-10601422D01*
X10339738Y-10604553D01*
X10339962Y-10632358D01*
X10346885Y-10639448D01*
X10351770Y-10645540D01*
X10355766Y-10653139D01*
X10359053Y-10662794D01*
X10361814Y-10675051D01*
X10364231Y-10690459D01*
X10364492Y-10692434D01*
X10365869Y-10702535D01*
X10366998Y-10709413D01*
X10368016Y-10713589D01*
X10369060Y-10715584D01*
X10370265Y-10715918D01*
X10370621Y-10715797D01*
X10377132Y-10713669D01*
X10380963Y-10713919D01*
X10382015Y-10716013D01*
X10382690Y-10719052D01*
X10384513Y-10724684D01*
X10387186Y-10732029D01*
X10389574Y-10738150D01*
X10392583Y-10745865D01*
X10394889Y-10752188D01*
X10396230Y-10756376D01*
X10396430Y-10757693D01*
X10396430Y-10757693D01*
G36*
X10459156Y-10762408D02*
X10457789Y-10769999D01*
X10454146Y-10774990D01*
X10448910Y-10777103D01*
X10442765Y-10776061D01*
X10436433Y-10771626D01*
X10432365Y-10765682D01*
X10430681Y-10759070D01*
X10431205Y-10752665D01*
X10433764Y-10747343D01*
X10438183Y-10743980D01*
X10442088Y-10743259D01*
X10447105Y-10744876D01*
X10452237Y-10748990D01*
X10456504Y-10754503D01*
X10458924Y-10760312D01*
X10459156Y-10762408D01*
X10459156Y-10762408D01*
X10459156Y-10762408D01*
G37*
X10459156Y-10762408D02*
X10457789Y-10769999D01*
X10454146Y-10774990D01*
X10448910Y-10777103D01*
X10442765Y-10776061D01*
X10436433Y-10771626D01*
X10432365Y-10765682D01*
X10430681Y-10759070D01*
X10431205Y-10752665D01*
X10433764Y-10747343D01*
X10438183Y-10743980D01*
X10442088Y-10743259D01*
X10447105Y-10744876D01*
X10452237Y-10748990D01*
X10456504Y-10754503D01*
X10458924Y-10760312D01*
X10459156Y-10762408D01*
X10459156Y-10762408D01*
D10*
X12141200Y-10629900D02*
X12077700Y-10693400D01*
X11950700Y-10439400D02*
X11887200Y-10502900D01*
X11887200Y-10629900D02*
X11950700Y-10693400D01*
X12077700Y-10439400D02*
X12141200Y-10502900D01*
X11950700Y-10439400D02*
X12077700Y-10439400D01*
X11887200Y-10629900D02*
X11887200Y-10502900D01*
X12141200Y-10502900D02*
X12141200Y-10629900D01*
X12141200Y-10756900D02*
X12141200Y-10883900D01*
X11887200Y-10883900D02*
X11887200Y-10756900D01*
X12077700Y-10693400D02*
X12141200Y-10756900D01*
X11887200Y-10883900D02*
X11950700Y-10947400D01*
X11950700Y-10693400D02*
X11887200Y-10756900D01*
X12141200Y-10883900D02*
X12077700Y-10947400D01*
X12141200Y-11137900D02*
X12077700Y-11201400D01*
X11950700Y-10947400D02*
X11887200Y-11010900D01*
X11887200Y-11137900D02*
X11950700Y-11201400D01*
X12077700Y-10947400D02*
X12141200Y-11010900D01*
X12090400Y-11239500D02*
X12052300Y-11264900D01*
X11938000Y-11239500D02*
X12090400Y-11239500D01*
X11950700Y-10947400D02*
X12077700Y-10947400D01*
X11887200Y-11137900D02*
X11887200Y-11010900D01*
X12141200Y-11010900D02*
X12141200Y-11137900D01*
X12077700Y-11201400D02*
X11950700Y-11201400D01*
X10058400Y-10718800D02*
X10312400Y-10718800D01*
X10312400Y-10718800D02*
X10312400Y-10972800D01*
X10312400Y-10972800D02*
X10058400Y-10972800D01*
X10058400Y-10972800D02*
X10058400Y-10718800D01*
X12141200Y-10248900D02*
X12077700Y-10185400D01*
X11950700Y-10185400D02*
X11887200Y-10248900D01*
X11887200Y-10375900D02*
X11950700Y-10439400D01*
X12141200Y-10248900D02*
X12141200Y-10375900D01*
X12141200Y-10375900D02*
X12077700Y-10439400D01*
X11950700Y-10185400D02*
X12077700Y-10185400D01*
X12077700Y-10439400D02*
X11950700Y-10439400D01*
X11887200Y-10248900D02*
X11887200Y-10375900D01*
M02*
