G04 #@! TF.GenerationSoftware,KiCad,Pcbnew,(5.0.0-rc2-dev-596-gcfd2f1d00)*
G04 #@! TF.CreationDate,2019-01-30T18:25:03+02:00*
G04 #@! TF.ProjectId,WS2813_single_side_conn_x14,5753323831335F73696E676C655F7369,rev?*
G04 #@! TF.SameCoordinates,Original*
G04 #@! TF.FileFunction,Soldermask,Top*
G04 #@! TF.FilePolarity,Negative*
%FSLAX45Y45*%
G04 Gerber Fmt 4.5, Leading zero omitted, Abs format (unit mm)*
G04 Created by KiCad (PCBNEW (5.0.0-rc2-dev-596-gcfd2f1d00)) date 01/30/19 18:25:03*
%MOMM*%
%LPD*%
G01*
G04 APERTURE LIST*
%ADD10C,2.200000*%
%ADD11O,2.000000X1.500000*%
%ADD12R,2.000000X1.500000*%
%ADD13C,0.150000*%
%ADD14C,0.600000*%
%ADD15R,0.950000X1.600000*%
G04 APERTURE END LIST*
D10*
X10000000Y-9200000D03*
D11*
X9750000Y-9200000D03*
X10250000Y-9200000D03*
D12*
X10250000Y-9360000D03*
D11*
X9750000Y-9040000D03*
X9750000Y-9360000D03*
X10250000Y-9040000D03*
D13*
G36*
X10447941Y-9360145D02*
X10450853Y-9360576D01*
X10453709Y-9361292D01*
X10456481Y-9362284D01*
X10459142Y-9363542D01*
X10461667Y-9365056D01*
X10464032Y-9366810D01*
X10466213Y-9368787D01*
X10468190Y-9370968D01*
X10469944Y-9373333D01*
X10471458Y-9375858D01*
X10472717Y-9378520D01*
X10473708Y-9381292D01*
X10474424Y-9384147D01*
X10474856Y-9387060D01*
X10475000Y-9390000D01*
X10475000Y-9490000D01*
X10474856Y-9492941D01*
X10474424Y-9495853D01*
X10473708Y-9498709D01*
X10472717Y-9501481D01*
X10471458Y-9504142D01*
X10469944Y-9506667D01*
X10468190Y-9509032D01*
X10466213Y-9511213D01*
X10464032Y-9513190D01*
X10461667Y-9514944D01*
X10459142Y-9516458D01*
X10456481Y-9517716D01*
X10453709Y-9518708D01*
X10450853Y-9519424D01*
X10447941Y-9519856D01*
X10445000Y-9520000D01*
X10445000Y-9520000D01*
X10442059Y-9519856D01*
X10439147Y-9519424D01*
X10436291Y-9518708D01*
X10433519Y-9517716D01*
X10430858Y-9516458D01*
X10428333Y-9514944D01*
X10425968Y-9513190D01*
X10423787Y-9511213D01*
X10421810Y-9509032D01*
X10420056Y-9506667D01*
X10418542Y-9504142D01*
X10417284Y-9501481D01*
X10416292Y-9498709D01*
X10415576Y-9495853D01*
X10415144Y-9492941D01*
X10415000Y-9490000D01*
X10415000Y-9390000D01*
X10415144Y-9387060D01*
X10415576Y-9384147D01*
X10416292Y-9381292D01*
X10417284Y-9378520D01*
X10418542Y-9375858D01*
X10420056Y-9373333D01*
X10421810Y-9370968D01*
X10423787Y-9368787D01*
X10425968Y-9366810D01*
X10428333Y-9365056D01*
X10430858Y-9363542D01*
X10433519Y-9362284D01*
X10436291Y-9361292D01*
X10439147Y-9360576D01*
X10442059Y-9360145D01*
X10445000Y-9360000D01*
X10445000Y-9360000D01*
X10447941Y-9360145D01*
X10447941Y-9360145D01*
G37*
D14*
X10445000Y-9440000D03*
D15*
X10472500Y-9440000D03*
X10472500Y-9280000D03*
D13*
G36*
X10447941Y-9200145D02*
X10450853Y-9200576D01*
X10453709Y-9201292D01*
X10456481Y-9202284D01*
X10459142Y-9203542D01*
X10461667Y-9205056D01*
X10464032Y-9206810D01*
X10466213Y-9208787D01*
X10468190Y-9210968D01*
X10469944Y-9213333D01*
X10471458Y-9215858D01*
X10472717Y-9218520D01*
X10473708Y-9221292D01*
X10474424Y-9224147D01*
X10474856Y-9227060D01*
X10475000Y-9230000D01*
X10475000Y-9330000D01*
X10474856Y-9332941D01*
X10474424Y-9335853D01*
X10473708Y-9338709D01*
X10472717Y-9341481D01*
X10471458Y-9344142D01*
X10469944Y-9346667D01*
X10468190Y-9349032D01*
X10466213Y-9351213D01*
X10464032Y-9353190D01*
X10461667Y-9354944D01*
X10459142Y-9356458D01*
X10456481Y-9357716D01*
X10453709Y-9358708D01*
X10450853Y-9359424D01*
X10447941Y-9359856D01*
X10445000Y-9360000D01*
X10445000Y-9360000D01*
X10442059Y-9359856D01*
X10439147Y-9359424D01*
X10436291Y-9358708D01*
X10433519Y-9357716D01*
X10430858Y-9356458D01*
X10428333Y-9354944D01*
X10425968Y-9353190D01*
X10423787Y-9351213D01*
X10421810Y-9349032D01*
X10420056Y-9346667D01*
X10418542Y-9344142D01*
X10417284Y-9341481D01*
X10416292Y-9338709D01*
X10415576Y-9335853D01*
X10415144Y-9332941D01*
X10415000Y-9330000D01*
X10415000Y-9230000D01*
X10415144Y-9227060D01*
X10415576Y-9224147D01*
X10416292Y-9221292D01*
X10417284Y-9218520D01*
X10418542Y-9215858D01*
X10420056Y-9213333D01*
X10421810Y-9210968D01*
X10423787Y-9208787D01*
X10425968Y-9206810D01*
X10428333Y-9205056D01*
X10430858Y-9203542D01*
X10433519Y-9202284D01*
X10436291Y-9201292D01*
X10439147Y-9200576D01*
X10442059Y-9200145D01*
X10445000Y-9200000D01*
X10445000Y-9200000D01*
X10447941Y-9200145D01*
X10447941Y-9200145D01*
G37*
D14*
X10445000Y-9280000D03*
D13*
G36*
X10447941Y-8880145D02*
X10450853Y-8880576D01*
X10453709Y-8881292D01*
X10456481Y-8882284D01*
X10459142Y-8883542D01*
X10461667Y-8885056D01*
X10464032Y-8886810D01*
X10466213Y-8888787D01*
X10468190Y-8890968D01*
X10469944Y-8893333D01*
X10471458Y-8895858D01*
X10472717Y-8898520D01*
X10473708Y-8901292D01*
X10474424Y-8904147D01*
X10474856Y-8907060D01*
X10475000Y-8910000D01*
X10475000Y-9010000D01*
X10474856Y-9012941D01*
X10474424Y-9015853D01*
X10473708Y-9018709D01*
X10472717Y-9021481D01*
X10471458Y-9024142D01*
X10469944Y-9026667D01*
X10468190Y-9029032D01*
X10466213Y-9031213D01*
X10464032Y-9033190D01*
X10461667Y-9034944D01*
X10459142Y-9036458D01*
X10456481Y-9037716D01*
X10453709Y-9038708D01*
X10450853Y-9039424D01*
X10447941Y-9039856D01*
X10445000Y-9040000D01*
X10445000Y-9040000D01*
X10442059Y-9039856D01*
X10439147Y-9039424D01*
X10436291Y-9038708D01*
X10433519Y-9037716D01*
X10430858Y-9036458D01*
X10428333Y-9034944D01*
X10425968Y-9033190D01*
X10423787Y-9031213D01*
X10421810Y-9029032D01*
X10420056Y-9026667D01*
X10418542Y-9024142D01*
X10417284Y-9021481D01*
X10416292Y-9018709D01*
X10415576Y-9015853D01*
X10415144Y-9012941D01*
X10415000Y-9010000D01*
X10415000Y-8910000D01*
X10415144Y-8907060D01*
X10415576Y-8904147D01*
X10416292Y-8901292D01*
X10417284Y-8898520D01*
X10418542Y-8895858D01*
X10420056Y-8893333D01*
X10421810Y-8890968D01*
X10423787Y-8888787D01*
X10425968Y-8886810D01*
X10428333Y-8885056D01*
X10430858Y-8883542D01*
X10433519Y-8882284D01*
X10436291Y-8881292D01*
X10439147Y-8880576D01*
X10442059Y-8880145D01*
X10445000Y-8880000D01*
X10445000Y-8880000D01*
X10447941Y-8880145D01*
X10447941Y-8880145D01*
G37*
D14*
X10445000Y-8960000D03*
D15*
X10472500Y-8960000D03*
X10472500Y-9120000D03*
D13*
G36*
X10447941Y-9040145D02*
X10450853Y-9040576D01*
X10453709Y-9041292D01*
X10456481Y-9042284D01*
X10459142Y-9043542D01*
X10461667Y-9045056D01*
X10464032Y-9046810D01*
X10466213Y-9048787D01*
X10468190Y-9050968D01*
X10469944Y-9053333D01*
X10471458Y-9055858D01*
X10472717Y-9058520D01*
X10473708Y-9061292D01*
X10474424Y-9064147D01*
X10474856Y-9067060D01*
X10475000Y-9070000D01*
X10475000Y-9170000D01*
X10474856Y-9172941D01*
X10474424Y-9175853D01*
X10473708Y-9178709D01*
X10472717Y-9181481D01*
X10471458Y-9184142D01*
X10469944Y-9186667D01*
X10468190Y-9189032D01*
X10466213Y-9191213D01*
X10464032Y-9193190D01*
X10461667Y-9194944D01*
X10459142Y-9196458D01*
X10456481Y-9197716D01*
X10453709Y-9198708D01*
X10450853Y-9199424D01*
X10447941Y-9199856D01*
X10445000Y-9200000D01*
X10445000Y-9200000D01*
X10442059Y-9199856D01*
X10439147Y-9199424D01*
X10436291Y-9198708D01*
X10433519Y-9197716D01*
X10430858Y-9196458D01*
X10428333Y-9194944D01*
X10425968Y-9193190D01*
X10423787Y-9191213D01*
X10421810Y-9189032D01*
X10420056Y-9186667D01*
X10418542Y-9184142D01*
X10417284Y-9181481D01*
X10416292Y-9178709D01*
X10415576Y-9175853D01*
X10415144Y-9172941D01*
X10415000Y-9170000D01*
X10415000Y-9070000D01*
X10415144Y-9067060D01*
X10415576Y-9064147D01*
X10416292Y-9061292D01*
X10417284Y-9058520D01*
X10418542Y-9055858D01*
X10420056Y-9053333D01*
X10421810Y-9050968D01*
X10423787Y-9048787D01*
X10425968Y-9046810D01*
X10428333Y-9045056D01*
X10430858Y-9043542D01*
X10433519Y-9042284D01*
X10436291Y-9041292D01*
X10439147Y-9040576D01*
X10442059Y-9040145D01*
X10445000Y-9040000D01*
X10445000Y-9040000D01*
X10447941Y-9040145D01*
X10447941Y-9040145D01*
G37*
D14*
X10445000Y-9120000D03*
D13*
G36*
X9557941Y-9360145D02*
X9560853Y-9360576D01*
X9563709Y-9361292D01*
X9566481Y-9362284D01*
X9569142Y-9363542D01*
X9571667Y-9365056D01*
X9574032Y-9366810D01*
X9576213Y-9368787D01*
X9578190Y-9370968D01*
X9579944Y-9373333D01*
X9581458Y-9375858D01*
X9582717Y-9378520D01*
X9583708Y-9381292D01*
X9584424Y-9384147D01*
X9584856Y-9387060D01*
X9585000Y-9390000D01*
X9585000Y-9490000D01*
X9584856Y-9492941D01*
X9584424Y-9495853D01*
X9583708Y-9498709D01*
X9582717Y-9501481D01*
X9581458Y-9504142D01*
X9579944Y-9506667D01*
X9578190Y-9509032D01*
X9576213Y-9511213D01*
X9574032Y-9513190D01*
X9571667Y-9514944D01*
X9569142Y-9516458D01*
X9566481Y-9517716D01*
X9563709Y-9518708D01*
X9560853Y-9519424D01*
X9557941Y-9519856D01*
X9555000Y-9520000D01*
X9555000Y-9520000D01*
X9552059Y-9519856D01*
X9549147Y-9519424D01*
X9546291Y-9518708D01*
X9543519Y-9517716D01*
X9540858Y-9516458D01*
X9538333Y-9514944D01*
X9535968Y-9513190D01*
X9533787Y-9511213D01*
X9531810Y-9509032D01*
X9530056Y-9506667D01*
X9528542Y-9504142D01*
X9527284Y-9501481D01*
X9526292Y-9498709D01*
X9525576Y-9495853D01*
X9525144Y-9492941D01*
X9525000Y-9490000D01*
X9525000Y-9390000D01*
X9525144Y-9387060D01*
X9525576Y-9384147D01*
X9526292Y-9381292D01*
X9527284Y-9378520D01*
X9528542Y-9375858D01*
X9530056Y-9373333D01*
X9531810Y-9370968D01*
X9533787Y-9368787D01*
X9535968Y-9366810D01*
X9538333Y-9365056D01*
X9540858Y-9363542D01*
X9543519Y-9362284D01*
X9546291Y-9361292D01*
X9549147Y-9360576D01*
X9552059Y-9360145D01*
X9555000Y-9360000D01*
X9555000Y-9360000D01*
X9557941Y-9360145D01*
X9557941Y-9360145D01*
G37*
D14*
X9555000Y-9440000D03*
D15*
X9527500Y-9440000D03*
X9527500Y-9280000D03*
D13*
G36*
X9557941Y-9200145D02*
X9560853Y-9200576D01*
X9563709Y-9201292D01*
X9566481Y-9202284D01*
X9569142Y-9203542D01*
X9571667Y-9205056D01*
X9574032Y-9206810D01*
X9576213Y-9208787D01*
X9578190Y-9210968D01*
X9579944Y-9213333D01*
X9581458Y-9215858D01*
X9582717Y-9218520D01*
X9583708Y-9221292D01*
X9584424Y-9224147D01*
X9584856Y-9227060D01*
X9585000Y-9230000D01*
X9585000Y-9330000D01*
X9584856Y-9332941D01*
X9584424Y-9335853D01*
X9583708Y-9338709D01*
X9582717Y-9341481D01*
X9581458Y-9344142D01*
X9579944Y-9346667D01*
X9578190Y-9349032D01*
X9576213Y-9351213D01*
X9574032Y-9353190D01*
X9571667Y-9354944D01*
X9569142Y-9356458D01*
X9566481Y-9357716D01*
X9563709Y-9358708D01*
X9560853Y-9359424D01*
X9557941Y-9359856D01*
X9555000Y-9360000D01*
X9555000Y-9360000D01*
X9552059Y-9359856D01*
X9549147Y-9359424D01*
X9546291Y-9358708D01*
X9543519Y-9357716D01*
X9540858Y-9356458D01*
X9538333Y-9354944D01*
X9535968Y-9353190D01*
X9533787Y-9351213D01*
X9531810Y-9349032D01*
X9530056Y-9346667D01*
X9528542Y-9344142D01*
X9527284Y-9341481D01*
X9526292Y-9338709D01*
X9525576Y-9335853D01*
X9525144Y-9332941D01*
X9525000Y-9330000D01*
X9525000Y-9230000D01*
X9525144Y-9227060D01*
X9525576Y-9224147D01*
X9526292Y-9221292D01*
X9527284Y-9218520D01*
X9528542Y-9215858D01*
X9530056Y-9213333D01*
X9531810Y-9210968D01*
X9533787Y-9208787D01*
X9535968Y-9206810D01*
X9538333Y-9205056D01*
X9540858Y-9203542D01*
X9543519Y-9202284D01*
X9546291Y-9201292D01*
X9549147Y-9200576D01*
X9552059Y-9200145D01*
X9555000Y-9200000D01*
X9555000Y-9200000D01*
X9557941Y-9200145D01*
X9557941Y-9200145D01*
G37*
D14*
X9555000Y-9280000D03*
D13*
G36*
X9557941Y-8880145D02*
X9560853Y-8880576D01*
X9563709Y-8881292D01*
X9566481Y-8882284D01*
X9569142Y-8883542D01*
X9571667Y-8885056D01*
X9574032Y-8886810D01*
X9576213Y-8888787D01*
X9578190Y-8890968D01*
X9579944Y-8893333D01*
X9581458Y-8895858D01*
X9582717Y-8898520D01*
X9583708Y-8901292D01*
X9584424Y-8904147D01*
X9584856Y-8907060D01*
X9585000Y-8910000D01*
X9585000Y-9010000D01*
X9584856Y-9012941D01*
X9584424Y-9015853D01*
X9583708Y-9018709D01*
X9582717Y-9021481D01*
X9581458Y-9024142D01*
X9579944Y-9026667D01*
X9578190Y-9029032D01*
X9576213Y-9031213D01*
X9574032Y-9033190D01*
X9571667Y-9034944D01*
X9569142Y-9036458D01*
X9566481Y-9037716D01*
X9563709Y-9038708D01*
X9560853Y-9039424D01*
X9557941Y-9039856D01*
X9555000Y-9040000D01*
X9555000Y-9040000D01*
X9552059Y-9039856D01*
X9549147Y-9039424D01*
X9546291Y-9038708D01*
X9543519Y-9037716D01*
X9540858Y-9036458D01*
X9538333Y-9034944D01*
X9535968Y-9033190D01*
X9533787Y-9031213D01*
X9531810Y-9029032D01*
X9530056Y-9026667D01*
X9528542Y-9024142D01*
X9527284Y-9021481D01*
X9526292Y-9018709D01*
X9525576Y-9015853D01*
X9525144Y-9012941D01*
X9525000Y-9010000D01*
X9525000Y-8910000D01*
X9525144Y-8907060D01*
X9525576Y-8904147D01*
X9526292Y-8901292D01*
X9527284Y-8898520D01*
X9528542Y-8895858D01*
X9530056Y-8893333D01*
X9531810Y-8890968D01*
X9533787Y-8888787D01*
X9535968Y-8886810D01*
X9538333Y-8885056D01*
X9540858Y-8883542D01*
X9543519Y-8882284D01*
X9546291Y-8881292D01*
X9549147Y-8880576D01*
X9552059Y-8880145D01*
X9555000Y-8880000D01*
X9555000Y-8880000D01*
X9557941Y-8880145D01*
X9557941Y-8880145D01*
G37*
D14*
X9555000Y-8960000D03*
D15*
X9527500Y-8960000D03*
X9527500Y-9120000D03*
D13*
G36*
X9557941Y-9040145D02*
X9560853Y-9040576D01*
X9563709Y-9041292D01*
X9566481Y-9042284D01*
X9569142Y-9043542D01*
X9571667Y-9045056D01*
X9574032Y-9046810D01*
X9576213Y-9048787D01*
X9578190Y-9050968D01*
X9579944Y-9053333D01*
X9581458Y-9055858D01*
X9582717Y-9058520D01*
X9583708Y-9061292D01*
X9584424Y-9064147D01*
X9584856Y-9067060D01*
X9585000Y-9070000D01*
X9585000Y-9170000D01*
X9584856Y-9172941D01*
X9584424Y-9175853D01*
X9583708Y-9178709D01*
X9582717Y-9181481D01*
X9581458Y-9184142D01*
X9579944Y-9186667D01*
X9578190Y-9189032D01*
X9576213Y-9191213D01*
X9574032Y-9193190D01*
X9571667Y-9194944D01*
X9569142Y-9196458D01*
X9566481Y-9197716D01*
X9563709Y-9198708D01*
X9560853Y-9199424D01*
X9557941Y-9199856D01*
X9555000Y-9200000D01*
X9555000Y-9200000D01*
X9552059Y-9199856D01*
X9549147Y-9199424D01*
X9546291Y-9198708D01*
X9543519Y-9197716D01*
X9540858Y-9196458D01*
X9538333Y-9194944D01*
X9535968Y-9193190D01*
X9533787Y-9191213D01*
X9531810Y-9189032D01*
X9530056Y-9186667D01*
X9528542Y-9184142D01*
X9527284Y-9181481D01*
X9526292Y-9178709D01*
X9525576Y-9175853D01*
X9525144Y-9172941D01*
X9525000Y-9170000D01*
X9525000Y-9070000D01*
X9525144Y-9067060D01*
X9525576Y-9064147D01*
X9526292Y-9061292D01*
X9527284Y-9058520D01*
X9528542Y-9055858D01*
X9530056Y-9053333D01*
X9531810Y-9050968D01*
X9533787Y-9048787D01*
X9535968Y-9046810D01*
X9538333Y-9045056D01*
X9540858Y-9043542D01*
X9543519Y-9042284D01*
X9546291Y-9041292D01*
X9549147Y-9040576D01*
X9552059Y-9040145D01*
X9555000Y-9040000D01*
X9555000Y-9040000D01*
X9557941Y-9040145D01*
X9557941Y-9040145D01*
G37*
D14*
X9555000Y-9120000D03*
D13*
G36*
X9557941Y-9740145D02*
X9560853Y-9740576D01*
X9563709Y-9741292D01*
X9566481Y-9742284D01*
X9569142Y-9743542D01*
X9571667Y-9745056D01*
X9574032Y-9746810D01*
X9576213Y-9748787D01*
X9578190Y-9750968D01*
X9579944Y-9753333D01*
X9581458Y-9755858D01*
X9582717Y-9758520D01*
X9583708Y-9761292D01*
X9584424Y-9764147D01*
X9584856Y-9767060D01*
X9585000Y-9770000D01*
X9585000Y-9870000D01*
X9584856Y-9872941D01*
X9584424Y-9875853D01*
X9583708Y-9878709D01*
X9582717Y-9881481D01*
X9581458Y-9884142D01*
X9579944Y-9886667D01*
X9578190Y-9889032D01*
X9576213Y-9891213D01*
X9574032Y-9893190D01*
X9571667Y-9894944D01*
X9569142Y-9896458D01*
X9566481Y-9897716D01*
X9563709Y-9898708D01*
X9560853Y-9899424D01*
X9557941Y-9899856D01*
X9555000Y-9900000D01*
X9555000Y-9900000D01*
X9552059Y-9899856D01*
X9549147Y-9899424D01*
X9546291Y-9898708D01*
X9543519Y-9897716D01*
X9540858Y-9896458D01*
X9538333Y-9894944D01*
X9535968Y-9893190D01*
X9533787Y-9891213D01*
X9531810Y-9889032D01*
X9530056Y-9886667D01*
X9528542Y-9884142D01*
X9527284Y-9881481D01*
X9526292Y-9878709D01*
X9525576Y-9875853D01*
X9525144Y-9872941D01*
X9525000Y-9870000D01*
X9525000Y-9770000D01*
X9525144Y-9767060D01*
X9525576Y-9764147D01*
X9526292Y-9761292D01*
X9527284Y-9758520D01*
X9528542Y-9755858D01*
X9530056Y-9753333D01*
X9531810Y-9750968D01*
X9533787Y-9748787D01*
X9535968Y-9746810D01*
X9538333Y-9745056D01*
X9540858Y-9743542D01*
X9543519Y-9742284D01*
X9546291Y-9741292D01*
X9549147Y-9740576D01*
X9552059Y-9740145D01*
X9555000Y-9740000D01*
X9555000Y-9740000D01*
X9557941Y-9740145D01*
X9557941Y-9740145D01*
G37*
D14*
X9555000Y-9820000D03*
D15*
X9527500Y-9820000D03*
X9527500Y-9660000D03*
D13*
G36*
X9557941Y-9580145D02*
X9560853Y-9580576D01*
X9563709Y-9581292D01*
X9566481Y-9582284D01*
X9569142Y-9583542D01*
X9571667Y-9585056D01*
X9574032Y-9586810D01*
X9576213Y-9588787D01*
X9578190Y-9590968D01*
X9579944Y-9593333D01*
X9581458Y-9595858D01*
X9582717Y-9598520D01*
X9583708Y-9601292D01*
X9584424Y-9604147D01*
X9584856Y-9607060D01*
X9585000Y-9610000D01*
X9585000Y-9710000D01*
X9584856Y-9712941D01*
X9584424Y-9715853D01*
X9583708Y-9718709D01*
X9582717Y-9721481D01*
X9581458Y-9724142D01*
X9579944Y-9726667D01*
X9578190Y-9729032D01*
X9576213Y-9731213D01*
X9574032Y-9733190D01*
X9571667Y-9734944D01*
X9569142Y-9736458D01*
X9566481Y-9737716D01*
X9563709Y-9738708D01*
X9560853Y-9739424D01*
X9557941Y-9739856D01*
X9555000Y-9740000D01*
X9555000Y-9740000D01*
X9552059Y-9739856D01*
X9549147Y-9739424D01*
X9546291Y-9738708D01*
X9543519Y-9737716D01*
X9540858Y-9736458D01*
X9538333Y-9734944D01*
X9535968Y-9733190D01*
X9533787Y-9731213D01*
X9531810Y-9729032D01*
X9530056Y-9726667D01*
X9528542Y-9724142D01*
X9527284Y-9721481D01*
X9526292Y-9718709D01*
X9525576Y-9715853D01*
X9525144Y-9712941D01*
X9525000Y-9710000D01*
X9525000Y-9610000D01*
X9525144Y-9607060D01*
X9525576Y-9604147D01*
X9526292Y-9601292D01*
X9527284Y-9598520D01*
X9528542Y-9595858D01*
X9530056Y-9593333D01*
X9531810Y-9590968D01*
X9533787Y-9588787D01*
X9535968Y-9586810D01*
X9538333Y-9585056D01*
X9540858Y-9583542D01*
X9543519Y-9582284D01*
X9546291Y-9581292D01*
X9549147Y-9580576D01*
X9552059Y-9580145D01*
X9555000Y-9580000D01*
X9555000Y-9580000D01*
X9557941Y-9580145D01*
X9557941Y-9580145D01*
G37*
D14*
X9555000Y-9660000D03*
D13*
G36*
X9557941Y-9900145D02*
X9560853Y-9900576D01*
X9563709Y-9901292D01*
X9566481Y-9902284D01*
X9569142Y-9903542D01*
X9571667Y-9905056D01*
X9574032Y-9906810D01*
X9576213Y-9908787D01*
X9578190Y-9910968D01*
X9579944Y-9913333D01*
X9581458Y-9915858D01*
X9582717Y-9918520D01*
X9583708Y-9921292D01*
X9584424Y-9924147D01*
X9584856Y-9927060D01*
X9585000Y-9930000D01*
X9585000Y-10030000D01*
X9584856Y-10032941D01*
X9584424Y-10035853D01*
X9583708Y-10038709D01*
X9582717Y-10041481D01*
X9581458Y-10044142D01*
X9579944Y-10046667D01*
X9578190Y-10049032D01*
X9576213Y-10051213D01*
X9574032Y-10053190D01*
X9571667Y-10054944D01*
X9569142Y-10056458D01*
X9566481Y-10057716D01*
X9563709Y-10058708D01*
X9560853Y-10059424D01*
X9557941Y-10059856D01*
X9555000Y-10060000D01*
X9555000Y-10060000D01*
X9552059Y-10059856D01*
X9549147Y-10059424D01*
X9546291Y-10058708D01*
X9543519Y-10057716D01*
X9540858Y-10056458D01*
X9538333Y-10054944D01*
X9535968Y-10053190D01*
X9533787Y-10051213D01*
X9531810Y-10049032D01*
X9530056Y-10046667D01*
X9528542Y-10044142D01*
X9527284Y-10041481D01*
X9526292Y-10038709D01*
X9525576Y-10035853D01*
X9525144Y-10032941D01*
X9525000Y-10030000D01*
X9525000Y-9930000D01*
X9525144Y-9927060D01*
X9525576Y-9924147D01*
X9526292Y-9921292D01*
X9527284Y-9918520D01*
X9528542Y-9915858D01*
X9530056Y-9913333D01*
X9531810Y-9910968D01*
X9533787Y-9908787D01*
X9535968Y-9906810D01*
X9538333Y-9905056D01*
X9540858Y-9903542D01*
X9543519Y-9902284D01*
X9546291Y-9901292D01*
X9549147Y-9900576D01*
X9552059Y-9900145D01*
X9555000Y-9900000D01*
X9555000Y-9900000D01*
X9557941Y-9900145D01*
X9557941Y-9900145D01*
G37*
D14*
X9555000Y-9980000D03*
D15*
X9527500Y-9980000D03*
X9527500Y-10140000D03*
D13*
G36*
X9557941Y-10060145D02*
X9560853Y-10060576D01*
X9563709Y-10061292D01*
X9566481Y-10062284D01*
X9569142Y-10063542D01*
X9571667Y-10065056D01*
X9574032Y-10066810D01*
X9576213Y-10068787D01*
X9578190Y-10070968D01*
X9579944Y-10073333D01*
X9581458Y-10075858D01*
X9582717Y-10078520D01*
X9583708Y-10081292D01*
X9584424Y-10084147D01*
X9584856Y-10087060D01*
X9585000Y-10090000D01*
X9585000Y-10190000D01*
X9584856Y-10192941D01*
X9584424Y-10195853D01*
X9583708Y-10198709D01*
X9582717Y-10201481D01*
X9581458Y-10204142D01*
X9579944Y-10206667D01*
X9578190Y-10209032D01*
X9576213Y-10211213D01*
X9574032Y-10213190D01*
X9571667Y-10214944D01*
X9569142Y-10216458D01*
X9566481Y-10217716D01*
X9563709Y-10218708D01*
X9560853Y-10219424D01*
X9557941Y-10219856D01*
X9555000Y-10220000D01*
X9555000Y-10220000D01*
X9552059Y-10219856D01*
X9549147Y-10219424D01*
X9546291Y-10218708D01*
X9543519Y-10217716D01*
X9540858Y-10216458D01*
X9538333Y-10214944D01*
X9535968Y-10213190D01*
X9533787Y-10211213D01*
X9531810Y-10209032D01*
X9530056Y-10206667D01*
X9528542Y-10204142D01*
X9527284Y-10201481D01*
X9526292Y-10198709D01*
X9525576Y-10195853D01*
X9525144Y-10192941D01*
X9525000Y-10190000D01*
X9525000Y-10090000D01*
X9525144Y-10087060D01*
X9525576Y-10084147D01*
X9526292Y-10081292D01*
X9527284Y-10078520D01*
X9528542Y-10075858D01*
X9530056Y-10073333D01*
X9531810Y-10070968D01*
X9533787Y-10068787D01*
X9535968Y-10066810D01*
X9538333Y-10065056D01*
X9540858Y-10063542D01*
X9543519Y-10062284D01*
X9546291Y-10061292D01*
X9549147Y-10060576D01*
X9552059Y-10060145D01*
X9555000Y-10060000D01*
X9555000Y-10060000D01*
X9557941Y-10060145D01*
X9557941Y-10060145D01*
G37*
D14*
X9555000Y-10140000D03*
D13*
G36*
X10447941Y-9740145D02*
X10450853Y-9740576D01*
X10453709Y-9741292D01*
X10456481Y-9742284D01*
X10459142Y-9743542D01*
X10461667Y-9745056D01*
X10464032Y-9746810D01*
X10466213Y-9748787D01*
X10468190Y-9750968D01*
X10469944Y-9753333D01*
X10471458Y-9755858D01*
X10472717Y-9758520D01*
X10473708Y-9761292D01*
X10474424Y-9764147D01*
X10474856Y-9767060D01*
X10475000Y-9770000D01*
X10475000Y-9870000D01*
X10474856Y-9872941D01*
X10474424Y-9875853D01*
X10473708Y-9878709D01*
X10472717Y-9881481D01*
X10471458Y-9884142D01*
X10469944Y-9886667D01*
X10468190Y-9889032D01*
X10466213Y-9891213D01*
X10464032Y-9893190D01*
X10461667Y-9894944D01*
X10459142Y-9896458D01*
X10456481Y-9897716D01*
X10453709Y-9898708D01*
X10450853Y-9899424D01*
X10447941Y-9899856D01*
X10445000Y-9900000D01*
X10445000Y-9900000D01*
X10442059Y-9899856D01*
X10439147Y-9899424D01*
X10436291Y-9898708D01*
X10433519Y-9897716D01*
X10430858Y-9896458D01*
X10428333Y-9894944D01*
X10425968Y-9893190D01*
X10423787Y-9891213D01*
X10421810Y-9889032D01*
X10420056Y-9886667D01*
X10418542Y-9884142D01*
X10417284Y-9881481D01*
X10416292Y-9878709D01*
X10415576Y-9875853D01*
X10415144Y-9872941D01*
X10415000Y-9870000D01*
X10415000Y-9770000D01*
X10415144Y-9767060D01*
X10415576Y-9764147D01*
X10416292Y-9761292D01*
X10417284Y-9758520D01*
X10418542Y-9755858D01*
X10420056Y-9753333D01*
X10421810Y-9750968D01*
X10423787Y-9748787D01*
X10425968Y-9746810D01*
X10428333Y-9745056D01*
X10430858Y-9743542D01*
X10433519Y-9742284D01*
X10436291Y-9741292D01*
X10439147Y-9740576D01*
X10442059Y-9740145D01*
X10445000Y-9740000D01*
X10445000Y-9740000D01*
X10447941Y-9740145D01*
X10447941Y-9740145D01*
G37*
D14*
X10445000Y-9820000D03*
D15*
X10472500Y-9820000D03*
X10472500Y-9660000D03*
D13*
G36*
X10447941Y-9580145D02*
X10450853Y-9580576D01*
X10453709Y-9581292D01*
X10456481Y-9582284D01*
X10459142Y-9583542D01*
X10461667Y-9585056D01*
X10464032Y-9586810D01*
X10466213Y-9588787D01*
X10468190Y-9590968D01*
X10469944Y-9593333D01*
X10471458Y-9595858D01*
X10472717Y-9598520D01*
X10473708Y-9601292D01*
X10474424Y-9604147D01*
X10474856Y-9607060D01*
X10475000Y-9610000D01*
X10475000Y-9710000D01*
X10474856Y-9712941D01*
X10474424Y-9715853D01*
X10473708Y-9718709D01*
X10472717Y-9721481D01*
X10471458Y-9724142D01*
X10469944Y-9726667D01*
X10468190Y-9729032D01*
X10466213Y-9731213D01*
X10464032Y-9733190D01*
X10461667Y-9734944D01*
X10459142Y-9736458D01*
X10456481Y-9737716D01*
X10453709Y-9738708D01*
X10450853Y-9739424D01*
X10447941Y-9739856D01*
X10445000Y-9740000D01*
X10445000Y-9740000D01*
X10442059Y-9739856D01*
X10439147Y-9739424D01*
X10436291Y-9738708D01*
X10433519Y-9737716D01*
X10430858Y-9736458D01*
X10428333Y-9734944D01*
X10425968Y-9733190D01*
X10423787Y-9731213D01*
X10421810Y-9729032D01*
X10420056Y-9726667D01*
X10418542Y-9724142D01*
X10417284Y-9721481D01*
X10416292Y-9718709D01*
X10415576Y-9715853D01*
X10415144Y-9712941D01*
X10415000Y-9710000D01*
X10415000Y-9610000D01*
X10415144Y-9607060D01*
X10415576Y-9604147D01*
X10416292Y-9601292D01*
X10417284Y-9598520D01*
X10418542Y-9595858D01*
X10420056Y-9593333D01*
X10421810Y-9590968D01*
X10423787Y-9588787D01*
X10425968Y-9586810D01*
X10428333Y-9585056D01*
X10430858Y-9583542D01*
X10433519Y-9582284D01*
X10436291Y-9581292D01*
X10439147Y-9580576D01*
X10442059Y-9580145D01*
X10445000Y-9580000D01*
X10445000Y-9580000D01*
X10447941Y-9580145D01*
X10447941Y-9580145D01*
G37*
D14*
X10445000Y-9660000D03*
D13*
G36*
X10447941Y-9900145D02*
X10450853Y-9900576D01*
X10453709Y-9901292D01*
X10456481Y-9902284D01*
X10459142Y-9903542D01*
X10461667Y-9905056D01*
X10464032Y-9906810D01*
X10466213Y-9908787D01*
X10468190Y-9910968D01*
X10469944Y-9913333D01*
X10471458Y-9915858D01*
X10472717Y-9918520D01*
X10473708Y-9921292D01*
X10474424Y-9924147D01*
X10474856Y-9927060D01*
X10475000Y-9930000D01*
X10475000Y-10030000D01*
X10474856Y-10032941D01*
X10474424Y-10035853D01*
X10473708Y-10038709D01*
X10472717Y-10041481D01*
X10471458Y-10044142D01*
X10469944Y-10046667D01*
X10468190Y-10049032D01*
X10466213Y-10051213D01*
X10464032Y-10053190D01*
X10461667Y-10054944D01*
X10459142Y-10056458D01*
X10456481Y-10057716D01*
X10453709Y-10058708D01*
X10450853Y-10059424D01*
X10447941Y-10059856D01*
X10445000Y-10060000D01*
X10445000Y-10060000D01*
X10442059Y-10059856D01*
X10439147Y-10059424D01*
X10436291Y-10058708D01*
X10433519Y-10057716D01*
X10430858Y-10056458D01*
X10428333Y-10054944D01*
X10425968Y-10053190D01*
X10423787Y-10051213D01*
X10421810Y-10049032D01*
X10420056Y-10046667D01*
X10418542Y-10044142D01*
X10417284Y-10041481D01*
X10416292Y-10038709D01*
X10415576Y-10035853D01*
X10415144Y-10032941D01*
X10415000Y-10030000D01*
X10415000Y-9930000D01*
X10415144Y-9927060D01*
X10415576Y-9924147D01*
X10416292Y-9921292D01*
X10417284Y-9918520D01*
X10418542Y-9915858D01*
X10420056Y-9913333D01*
X10421810Y-9910968D01*
X10423787Y-9908787D01*
X10425968Y-9906810D01*
X10428333Y-9905056D01*
X10430858Y-9903542D01*
X10433519Y-9902284D01*
X10436291Y-9901292D01*
X10439147Y-9900576D01*
X10442059Y-9900145D01*
X10445000Y-9900000D01*
X10445000Y-9900000D01*
X10447941Y-9900145D01*
X10447941Y-9900145D01*
G37*
D14*
X10445000Y-9980000D03*
D15*
X10472500Y-9980000D03*
X10472500Y-10140000D03*
D13*
G36*
X10447941Y-10060145D02*
X10450853Y-10060576D01*
X10453709Y-10061292D01*
X10456481Y-10062284D01*
X10459142Y-10063542D01*
X10461667Y-10065056D01*
X10464032Y-10066810D01*
X10466213Y-10068787D01*
X10468190Y-10070968D01*
X10469944Y-10073333D01*
X10471458Y-10075858D01*
X10472717Y-10078520D01*
X10473708Y-10081292D01*
X10474424Y-10084147D01*
X10474856Y-10087060D01*
X10475000Y-10090000D01*
X10475000Y-10190000D01*
X10474856Y-10192941D01*
X10474424Y-10195853D01*
X10473708Y-10198709D01*
X10472717Y-10201481D01*
X10471458Y-10204142D01*
X10469944Y-10206667D01*
X10468190Y-10209032D01*
X10466213Y-10211213D01*
X10464032Y-10213190D01*
X10461667Y-10214944D01*
X10459142Y-10216458D01*
X10456481Y-10217716D01*
X10453709Y-10218708D01*
X10450853Y-10219424D01*
X10447941Y-10219856D01*
X10445000Y-10220000D01*
X10445000Y-10220000D01*
X10442059Y-10219856D01*
X10439147Y-10219424D01*
X10436291Y-10218708D01*
X10433519Y-10217716D01*
X10430858Y-10216458D01*
X10428333Y-10214944D01*
X10425968Y-10213190D01*
X10423787Y-10211213D01*
X10421810Y-10209032D01*
X10420056Y-10206667D01*
X10418542Y-10204142D01*
X10417284Y-10201481D01*
X10416292Y-10198709D01*
X10415576Y-10195853D01*
X10415144Y-10192941D01*
X10415000Y-10190000D01*
X10415000Y-10090000D01*
X10415144Y-10087060D01*
X10415576Y-10084147D01*
X10416292Y-10081292D01*
X10417284Y-10078520D01*
X10418542Y-10075858D01*
X10420056Y-10073333D01*
X10421810Y-10070968D01*
X10423787Y-10068787D01*
X10425968Y-10066810D01*
X10428333Y-10065056D01*
X10430858Y-10063542D01*
X10433519Y-10062284D01*
X10436291Y-10061292D01*
X10439147Y-10060576D01*
X10442059Y-10060145D01*
X10445000Y-10060000D01*
X10445000Y-10060000D01*
X10447941Y-10060145D01*
X10447941Y-10060145D01*
G37*
D14*
X10445000Y-10140000D03*
D11*
X10250000Y-9740000D03*
X9750000Y-10060000D03*
X9750000Y-9740000D03*
D12*
X10250000Y-10060000D03*
D11*
X10250000Y-9900000D03*
X9750000Y-9900000D03*
D10*
X10000000Y-9900000D03*
X10000000Y-11300000D03*
D11*
X9750000Y-11300000D03*
X10250000Y-11300000D03*
D12*
X10250000Y-11460000D03*
D11*
X9750000Y-11140000D03*
X9750000Y-11460000D03*
X10250000Y-11140000D03*
D13*
G36*
X10447941Y-11460144D02*
X10450853Y-11460576D01*
X10453709Y-11461292D01*
X10456481Y-11462284D01*
X10459142Y-11463542D01*
X10461667Y-11465056D01*
X10464032Y-11466810D01*
X10466213Y-11468787D01*
X10468190Y-11470968D01*
X10469944Y-11473333D01*
X10471458Y-11475858D01*
X10472717Y-11478519D01*
X10473708Y-11481291D01*
X10474424Y-11484147D01*
X10474856Y-11487059D01*
X10475000Y-11490000D01*
X10475000Y-11590000D01*
X10474856Y-11592940D01*
X10474424Y-11595853D01*
X10473708Y-11598708D01*
X10472717Y-11601480D01*
X10471458Y-11604142D01*
X10469944Y-11606667D01*
X10468190Y-11609032D01*
X10466213Y-11611213D01*
X10464032Y-11613190D01*
X10461667Y-11614944D01*
X10459142Y-11616458D01*
X10456481Y-11617716D01*
X10453709Y-11618708D01*
X10450853Y-11619424D01*
X10447941Y-11619855D01*
X10445000Y-11620000D01*
X10445000Y-11620000D01*
X10442059Y-11619855D01*
X10439147Y-11619424D01*
X10436291Y-11618708D01*
X10433519Y-11617716D01*
X10430858Y-11616458D01*
X10428333Y-11614944D01*
X10425968Y-11613190D01*
X10423787Y-11611213D01*
X10421810Y-11609032D01*
X10420056Y-11606667D01*
X10418542Y-11604142D01*
X10417284Y-11601480D01*
X10416292Y-11598708D01*
X10415576Y-11595853D01*
X10415144Y-11592940D01*
X10415000Y-11590000D01*
X10415000Y-11490000D01*
X10415144Y-11487059D01*
X10415576Y-11484147D01*
X10416292Y-11481291D01*
X10417284Y-11478519D01*
X10418542Y-11475858D01*
X10420056Y-11473333D01*
X10421810Y-11470968D01*
X10423787Y-11468787D01*
X10425968Y-11466810D01*
X10428333Y-11465056D01*
X10430858Y-11463542D01*
X10433519Y-11462284D01*
X10436291Y-11461292D01*
X10439147Y-11460576D01*
X10442059Y-11460144D01*
X10445000Y-11460000D01*
X10445000Y-11460000D01*
X10447941Y-11460144D01*
X10447941Y-11460144D01*
G37*
D14*
X10445000Y-11540000D03*
D15*
X10472500Y-11540000D03*
X10472500Y-11380000D03*
D13*
G36*
X10447941Y-11300144D02*
X10450853Y-11300576D01*
X10453709Y-11301292D01*
X10456481Y-11302284D01*
X10459142Y-11303542D01*
X10461667Y-11305056D01*
X10464032Y-11306810D01*
X10466213Y-11308787D01*
X10468190Y-11310968D01*
X10469944Y-11313333D01*
X10471458Y-11315858D01*
X10472717Y-11318519D01*
X10473708Y-11321291D01*
X10474424Y-11324147D01*
X10474856Y-11327059D01*
X10475000Y-11330000D01*
X10475000Y-11430000D01*
X10474856Y-11432940D01*
X10474424Y-11435853D01*
X10473708Y-11438708D01*
X10472717Y-11441480D01*
X10471458Y-11444142D01*
X10469944Y-11446667D01*
X10468190Y-11449032D01*
X10466213Y-11451213D01*
X10464032Y-11453190D01*
X10461667Y-11454944D01*
X10459142Y-11456458D01*
X10456481Y-11457716D01*
X10453709Y-11458708D01*
X10450853Y-11459424D01*
X10447941Y-11459855D01*
X10445000Y-11460000D01*
X10445000Y-11460000D01*
X10442059Y-11459855D01*
X10439147Y-11459424D01*
X10436291Y-11458708D01*
X10433519Y-11457716D01*
X10430858Y-11456458D01*
X10428333Y-11454944D01*
X10425968Y-11453190D01*
X10423787Y-11451213D01*
X10421810Y-11449032D01*
X10420056Y-11446667D01*
X10418542Y-11444142D01*
X10417284Y-11441480D01*
X10416292Y-11438708D01*
X10415576Y-11435853D01*
X10415144Y-11432940D01*
X10415000Y-11430000D01*
X10415000Y-11330000D01*
X10415144Y-11327059D01*
X10415576Y-11324147D01*
X10416292Y-11321291D01*
X10417284Y-11318519D01*
X10418542Y-11315858D01*
X10420056Y-11313333D01*
X10421810Y-11310968D01*
X10423787Y-11308787D01*
X10425968Y-11306810D01*
X10428333Y-11305056D01*
X10430858Y-11303542D01*
X10433519Y-11302284D01*
X10436291Y-11301292D01*
X10439147Y-11300576D01*
X10442059Y-11300144D01*
X10445000Y-11300000D01*
X10445000Y-11300000D01*
X10447941Y-11300144D01*
X10447941Y-11300144D01*
G37*
D14*
X10445000Y-11380000D03*
D13*
G36*
X10447941Y-10980145D02*
X10450853Y-10980576D01*
X10453709Y-10981292D01*
X10456481Y-10982284D01*
X10459142Y-10983542D01*
X10461667Y-10985056D01*
X10464032Y-10986810D01*
X10466213Y-10988787D01*
X10468190Y-10990968D01*
X10469944Y-10993333D01*
X10471458Y-10995858D01*
X10472717Y-10998520D01*
X10473708Y-11001292D01*
X10474424Y-11004147D01*
X10474856Y-11007060D01*
X10475000Y-11010000D01*
X10475000Y-11110000D01*
X10474856Y-11112941D01*
X10474424Y-11115853D01*
X10473708Y-11118709D01*
X10472717Y-11121481D01*
X10471458Y-11124142D01*
X10469944Y-11126667D01*
X10468190Y-11129032D01*
X10466213Y-11131213D01*
X10464032Y-11133190D01*
X10461667Y-11134944D01*
X10459142Y-11136458D01*
X10456481Y-11137716D01*
X10453709Y-11138708D01*
X10450853Y-11139424D01*
X10447941Y-11139856D01*
X10445000Y-11140000D01*
X10445000Y-11140000D01*
X10442059Y-11139856D01*
X10439147Y-11139424D01*
X10436291Y-11138708D01*
X10433519Y-11137716D01*
X10430858Y-11136458D01*
X10428333Y-11134944D01*
X10425968Y-11133190D01*
X10423787Y-11131213D01*
X10421810Y-11129032D01*
X10420056Y-11126667D01*
X10418542Y-11124142D01*
X10417284Y-11121481D01*
X10416292Y-11118709D01*
X10415576Y-11115853D01*
X10415144Y-11112941D01*
X10415000Y-11110000D01*
X10415000Y-11010000D01*
X10415144Y-11007060D01*
X10415576Y-11004147D01*
X10416292Y-11001292D01*
X10417284Y-10998520D01*
X10418542Y-10995858D01*
X10420056Y-10993333D01*
X10421810Y-10990968D01*
X10423787Y-10988787D01*
X10425968Y-10986810D01*
X10428333Y-10985056D01*
X10430858Y-10983542D01*
X10433519Y-10982284D01*
X10436291Y-10981292D01*
X10439147Y-10980576D01*
X10442059Y-10980145D01*
X10445000Y-10980000D01*
X10445000Y-10980000D01*
X10447941Y-10980145D01*
X10447941Y-10980145D01*
G37*
D14*
X10445000Y-11060000D03*
D15*
X10472500Y-11060000D03*
X10472500Y-11220000D03*
D13*
G36*
X10447941Y-11140145D02*
X10450853Y-11140576D01*
X10453709Y-11141292D01*
X10456481Y-11142284D01*
X10459142Y-11143542D01*
X10461667Y-11145056D01*
X10464032Y-11146810D01*
X10466213Y-11148787D01*
X10468190Y-11150968D01*
X10469944Y-11153333D01*
X10471458Y-11155858D01*
X10472717Y-11158520D01*
X10473708Y-11161292D01*
X10474424Y-11164147D01*
X10474856Y-11167060D01*
X10475000Y-11170000D01*
X10475000Y-11270000D01*
X10474856Y-11272940D01*
X10474424Y-11275853D01*
X10473708Y-11278708D01*
X10472717Y-11281480D01*
X10471458Y-11284142D01*
X10469944Y-11286667D01*
X10468190Y-11289032D01*
X10466213Y-11291213D01*
X10464032Y-11293190D01*
X10461667Y-11294944D01*
X10459142Y-11296458D01*
X10456481Y-11297716D01*
X10453709Y-11298708D01*
X10450853Y-11299424D01*
X10447941Y-11299855D01*
X10445000Y-11300000D01*
X10445000Y-11300000D01*
X10442059Y-11299855D01*
X10439147Y-11299424D01*
X10436291Y-11298708D01*
X10433519Y-11297716D01*
X10430858Y-11296458D01*
X10428333Y-11294944D01*
X10425968Y-11293190D01*
X10423787Y-11291213D01*
X10421810Y-11289032D01*
X10420056Y-11286667D01*
X10418542Y-11284142D01*
X10417284Y-11281480D01*
X10416292Y-11278708D01*
X10415576Y-11275853D01*
X10415144Y-11272940D01*
X10415000Y-11270000D01*
X10415000Y-11170000D01*
X10415144Y-11167060D01*
X10415576Y-11164147D01*
X10416292Y-11161292D01*
X10417284Y-11158520D01*
X10418542Y-11155858D01*
X10420056Y-11153333D01*
X10421810Y-11150968D01*
X10423787Y-11148787D01*
X10425968Y-11146810D01*
X10428333Y-11145056D01*
X10430858Y-11143542D01*
X10433519Y-11142284D01*
X10436291Y-11141292D01*
X10439147Y-11140576D01*
X10442059Y-11140145D01*
X10445000Y-11140000D01*
X10445000Y-11140000D01*
X10447941Y-11140145D01*
X10447941Y-11140145D01*
G37*
D14*
X10445000Y-11220000D03*
D13*
G36*
X9557941Y-11460144D02*
X9560853Y-11460576D01*
X9563709Y-11461292D01*
X9566481Y-11462284D01*
X9569142Y-11463542D01*
X9571667Y-11465056D01*
X9574032Y-11466810D01*
X9576213Y-11468787D01*
X9578190Y-11470968D01*
X9579944Y-11473333D01*
X9581458Y-11475858D01*
X9582717Y-11478519D01*
X9583708Y-11481291D01*
X9584424Y-11484147D01*
X9584856Y-11487059D01*
X9585000Y-11490000D01*
X9585000Y-11590000D01*
X9584856Y-11592940D01*
X9584424Y-11595853D01*
X9583708Y-11598708D01*
X9582717Y-11601480D01*
X9581458Y-11604142D01*
X9579944Y-11606667D01*
X9578190Y-11609032D01*
X9576213Y-11611213D01*
X9574032Y-11613190D01*
X9571667Y-11614944D01*
X9569142Y-11616458D01*
X9566481Y-11617716D01*
X9563709Y-11618708D01*
X9560853Y-11619424D01*
X9557941Y-11619855D01*
X9555000Y-11620000D01*
X9555000Y-11620000D01*
X9552059Y-11619855D01*
X9549147Y-11619424D01*
X9546291Y-11618708D01*
X9543519Y-11617716D01*
X9540858Y-11616458D01*
X9538333Y-11614944D01*
X9535968Y-11613190D01*
X9533787Y-11611213D01*
X9531810Y-11609032D01*
X9530056Y-11606667D01*
X9528542Y-11604142D01*
X9527284Y-11601480D01*
X9526292Y-11598708D01*
X9525576Y-11595853D01*
X9525144Y-11592940D01*
X9525000Y-11590000D01*
X9525000Y-11490000D01*
X9525144Y-11487059D01*
X9525576Y-11484147D01*
X9526292Y-11481291D01*
X9527284Y-11478519D01*
X9528542Y-11475858D01*
X9530056Y-11473333D01*
X9531810Y-11470968D01*
X9533787Y-11468787D01*
X9535968Y-11466810D01*
X9538333Y-11465056D01*
X9540858Y-11463542D01*
X9543519Y-11462284D01*
X9546291Y-11461292D01*
X9549147Y-11460576D01*
X9552059Y-11460144D01*
X9555000Y-11460000D01*
X9555000Y-11460000D01*
X9557941Y-11460144D01*
X9557941Y-11460144D01*
G37*
D14*
X9555000Y-11540000D03*
D15*
X9527500Y-11540000D03*
X9527500Y-11380000D03*
D13*
G36*
X9557941Y-11300144D02*
X9560853Y-11300576D01*
X9563709Y-11301292D01*
X9566481Y-11302284D01*
X9569142Y-11303542D01*
X9571667Y-11305056D01*
X9574032Y-11306810D01*
X9576213Y-11308787D01*
X9578190Y-11310968D01*
X9579944Y-11313333D01*
X9581458Y-11315858D01*
X9582717Y-11318519D01*
X9583708Y-11321291D01*
X9584424Y-11324147D01*
X9584856Y-11327059D01*
X9585000Y-11330000D01*
X9585000Y-11430000D01*
X9584856Y-11432940D01*
X9584424Y-11435853D01*
X9583708Y-11438708D01*
X9582717Y-11441480D01*
X9581458Y-11444142D01*
X9579944Y-11446667D01*
X9578190Y-11449032D01*
X9576213Y-11451213D01*
X9574032Y-11453190D01*
X9571667Y-11454944D01*
X9569142Y-11456458D01*
X9566481Y-11457716D01*
X9563709Y-11458708D01*
X9560853Y-11459424D01*
X9557941Y-11459855D01*
X9555000Y-11460000D01*
X9555000Y-11460000D01*
X9552059Y-11459855D01*
X9549147Y-11459424D01*
X9546291Y-11458708D01*
X9543519Y-11457716D01*
X9540858Y-11456458D01*
X9538333Y-11454944D01*
X9535968Y-11453190D01*
X9533787Y-11451213D01*
X9531810Y-11449032D01*
X9530056Y-11446667D01*
X9528542Y-11444142D01*
X9527284Y-11441480D01*
X9526292Y-11438708D01*
X9525576Y-11435853D01*
X9525144Y-11432940D01*
X9525000Y-11430000D01*
X9525000Y-11330000D01*
X9525144Y-11327059D01*
X9525576Y-11324147D01*
X9526292Y-11321291D01*
X9527284Y-11318519D01*
X9528542Y-11315858D01*
X9530056Y-11313333D01*
X9531810Y-11310968D01*
X9533787Y-11308787D01*
X9535968Y-11306810D01*
X9538333Y-11305056D01*
X9540858Y-11303542D01*
X9543519Y-11302284D01*
X9546291Y-11301292D01*
X9549147Y-11300576D01*
X9552059Y-11300144D01*
X9555000Y-11300000D01*
X9555000Y-11300000D01*
X9557941Y-11300144D01*
X9557941Y-11300144D01*
G37*
D14*
X9555000Y-11380000D03*
D13*
G36*
X9557941Y-10980145D02*
X9560853Y-10980576D01*
X9563709Y-10981292D01*
X9566481Y-10982284D01*
X9569142Y-10983542D01*
X9571667Y-10985056D01*
X9574032Y-10986810D01*
X9576213Y-10988787D01*
X9578190Y-10990968D01*
X9579944Y-10993333D01*
X9581458Y-10995858D01*
X9582717Y-10998520D01*
X9583708Y-11001292D01*
X9584424Y-11004147D01*
X9584856Y-11007060D01*
X9585000Y-11010000D01*
X9585000Y-11110000D01*
X9584856Y-11112941D01*
X9584424Y-11115853D01*
X9583708Y-11118709D01*
X9582717Y-11121481D01*
X9581458Y-11124142D01*
X9579944Y-11126667D01*
X9578190Y-11129032D01*
X9576213Y-11131213D01*
X9574032Y-11133190D01*
X9571667Y-11134944D01*
X9569142Y-11136458D01*
X9566481Y-11137716D01*
X9563709Y-11138708D01*
X9560853Y-11139424D01*
X9557941Y-11139856D01*
X9555000Y-11140000D01*
X9555000Y-11140000D01*
X9552059Y-11139856D01*
X9549147Y-11139424D01*
X9546291Y-11138708D01*
X9543519Y-11137716D01*
X9540858Y-11136458D01*
X9538333Y-11134944D01*
X9535968Y-11133190D01*
X9533787Y-11131213D01*
X9531810Y-11129032D01*
X9530056Y-11126667D01*
X9528542Y-11124142D01*
X9527284Y-11121481D01*
X9526292Y-11118709D01*
X9525576Y-11115853D01*
X9525144Y-11112941D01*
X9525000Y-11110000D01*
X9525000Y-11010000D01*
X9525144Y-11007060D01*
X9525576Y-11004147D01*
X9526292Y-11001292D01*
X9527284Y-10998520D01*
X9528542Y-10995858D01*
X9530056Y-10993333D01*
X9531810Y-10990968D01*
X9533787Y-10988787D01*
X9535968Y-10986810D01*
X9538333Y-10985056D01*
X9540858Y-10983542D01*
X9543519Y-10982284D01*
X9546291Y-10981292D01*
X9549147Y-10980576D01*
X9552059Y-10980145D01*
X9555000Y-10980000D01*
X9555000Y-10980000D01*
X9557941Y-10980145D01*
X9557941Y-10980145D01*
G37*
D14*
X9555000Y-11060000D03*
D15*
X9527500Y-11060000D03*
X9527500Y-11220000D03*
D13*
G36*
X9557941Y-11140145D02*
X9560853Y-11140576D01*
X9563709Y-11141292D01*
X9566481Y-11142284D01*
X9569142Y-11143542D01*
X9571667Y-11145056D01*
X9574032Y-11146810D01*
X9576213Y-11148787D01*
X9578190Y-11150968D01*
X9579944Y-11153333D01*
X9581458Y-11155858D01*
X9582717Y-11158520D01*
X9583708Y-11161292D01*
X9584424Y-11164147D01*
X9584856Y-11167060D01*
X9585000Y-11170000D01*
X9585000Y-11270000D01*
X9584856Y-11272940D01*
X9584424Y-11275853D01*
X9583708Y-11278708D01*
X9582717Y-11281480D01*
X9581458Y-11284142D01*
X9579944Y-11286667D01*
X9578190Y-11289032D01*
X9576213Y-11291213D01*
X9574032Y-11293190D01*
X9571667Y-11294944D01*
X9569142Y-11296458D01*
X9566481Y-11297716D01*
X9563709Y-11298708D01*
X9560853Y-11299424D01*
X9557941Y-11299855D01*
X9555000Y-11300000D01*
X9555000Y-11300000D01*
X9552059Y-11299855D01*
X9549147Y-11299424D01*
X9546291Y-11298708D01*
X9543519Y-11297716D01*
X9540858Y-11296458D01*
X9538333Y-11294944D01*
X9535968Y-11293190D01*
X9533787Y-11291213D01*
X9531810Y-11289032D01*
X9530056Y-11286667D01*
X9528542Y-11284142D01*
X9527284Y-11281480D01*
X9526292Y-11278708D01*
X9525576Y-11275853D01*
X9525144Y-11272940D01*
X9525000Y-11270000D01*
X9525000Y-11170000D01*
X9525144Y-11167060D01*
X9525576Y-11164147D01*
X9526292Y-11161292D01*
X9527284Y-11158520D01*
X9528542Y-11155858D01*
X9530056Y-11153333D01*
X9531810Y-11150968D01*
X9533787Y-11148787D01*
X9535968Y-11146810D01*
X9538333Y-11145056D01*
X9540858Y-11143542D01*
X9543519Y-11142284D01*
X9546291Y-11141292D01*
X9549147Y-11140576D01*
X9552059Y-11140145D01*
X9555000Y-11140000D01*
X9555000Y-11140000D01*
X9557941Y-11140145D01*
X9557941Y-11140145D01*
G37*
D14*
X9555000Y-11220000D03*
D13*
G36*
X9557941Y-10440145D02*
X9560853Y-10440576D01*
X9563709Y-10441292D01*
X9566481Y-10442284D01*
X9569142Y-10443542D01*
X9571667Y-10445056D01*
X9574032Y-10446810D01*
X9576213Y-10448787D01*
X9578190Y-10450968D01*
X9579944Y-10453333D01*
X9581458Y-10455858D01*
X9582717Y-10458520D01*
X9583708Y-10461292D01*
X9584424Y-10464147D01*
X9584856Y-10467060D01*
X9585000Y-10470000D01*
X9585000Y-10570000D01*
X9584856Y-10572941D01*
X9584424Y-10575853D01*
X9583708Y-10578709D01*
X9582717Y-10581481D01*
X9581458Y-10584142D01*
X9579944Y-10586667D01*
X9578190Y-10589032D01*
X9576213Y-10591213D01*
X9574032Y-10593190D01*
X9571667Y-10594944D01*
X9569142Y-10596458D01*
X9566481Y-10597716D01*
X9563709Y-10598708D01*
X9560853Y-10599424D01*
X9557941Y-10599856D01*
X9555000Y-10600000D01*
X9555000Y-10600000D01*
X9552059Y-10599856D01*
X9549147Y-10599424D01*
X9546291Y-10598708D01*
X9543519Y-10597716D01*
X9540858Y-10596458D01*
X9538333Y-10594944D01*
X9535968Y-10593190D01*
X9533787Y-10591213D01*
X9531810Y-10589032D01*
X9530056Y-10586667D01*
X9528542Y-10584142D01*
X9527284Y-10581481D01*
X9526292Y-10578709D01*
X9525576Y-10575853D01*
X9525144Y-10572941D01*
X9525000Y-10570000D01*
X9525000Y-10470000D01*
X9525144Y-10467060D01*
X9525576Y-10464147D01*
X9526292Y-10461292D01*
X9527284Y-10458520D01*
X9528542Y-10455858D01*
X9530056Y-10453333D01*
X9531810Y-10450968D01*
X9533787Y-10448787D01*
X9535968Y-10446810D01*
X9538333Y-10445056D01*
X9540858Y-10443542D01*
X9543519Y-10442284D01*
X9546291Y-10441292D01*
X9549147Y-10440576D01*
X9552059Y-10440145D01*
X9555000Y-10440000D01*
X9555000Y-10440000D01*
X9557941Y-10440145D01*
X9557941Y-10440145D01*
G37*
D14*
X9555000Y-10520000D03*
D15*
X9527500Y-10520000D03*
X9527500Y-10360000D03*
D13*
G36*
X9557941Y-10280145D02*
X9560853Y-10280576D01*
X9563709Y-10281292D01*
X9566481Y-10282284D01*
X9569142Y-10283542D01*
X9571667Y-10285056D01*
X9574032Y-10286810D01*
X9576213Y-10288787D01*
X9578190Y-10290968D01*
X9579944Y-10293333D01*
X9581458Y-10295858D01*
X9582717Y-10298520D01*
X9583708Y-10301292D01*
X9584424Y-10304147D01*
X9584856Y-10307060D01*
X9585000Y-10310000D01*
X9585000Y-10410000D01*
X9584856Y-10412941D01*
X9584424Y-10415853D01*
X9583708Y-10418709D01*
X9582717Y-10421481D01*
X9581458Y-10424142D01*
X9579944Y-10426667D01*
X9578190Y-10429032D01*
X9576213Y-10431213D01*
X9574032Y-10433190D01*
X9571667Y-10434944D01*
X9569142Y-10436458D01*
X9566481Y-10437716D01*
X9563709Y-10438708D01*
X9560853Y-10439424D01*
X9557941Y-10439856D01*
X9555000Y-10440000D01*
X9555000Y-10440000D01*
X9552059Y-10439856D01*
X9549147Y-10439424D01*
X9546291Y-10438708D01*
X9543519Y-10437716D01*
X9540858Y-10436458D01*
X9538333Y-10434944D01*
X9535968Y-10433190D01*
X9533787Y-10431213D01*
X9531810Y-10429032D01*
X9530056Y-10426667D01*
X9528542Y-10424142D01*
X9527284Y-10421481D01*
X9526292Y-10418709D01*
X9525576Y-10415853D01*
X9525144Y-10412941D01*
X9525000Y-10410000D01*
X9525000Y-10310000D01*
X9525144Y-10307060D01*
X9525576Y-10304147D01*
X9526292Y-10301292D01*
X9527284Y-10298520D01*
X9528542Y-10295858D01*
X9530056Y-10293333D01*
X9531810Y-10290968D01*
X9533787Y-10288787D01*
X9535968Y-10286810D01*
X9538333Y-10285056D01*
X9540858Y-10283542D01*
X9543519Y-10282284D01*
X9546291Y-10281292D01*
X9549147Y-10280576D01*
X9552059Y-10280145D01*
X9555000Y-10280000D01*
X9555000Y-10280000D01*
X9557941Y-10280145D01*
X9557941Y-10280145D01*
G37*
D14*
X9555000Y-10360000D03*
D13*
G36*
X9557941Y-10600145D02*
X9560853Y-10600576D01*
X9563709Y-10601292D01*
X9566481Y-10602284D01*
X9569142Y-10603542D01*
X9571667Y-10605056D01*
X9574032Y-10606810D01*
X9576213Y-10608787D01*
X9578190Y-10610968D01*
X9579944Y-10613333D01*
X9581458Y-10615858D01*
X9582717Y-10618520D01*
X9583708Y-10621292D01*
X9584424Y-10624147D01*
X9584856Y-10627060D01*
X9585000Y-10630000D01*
X9585000Y-10730000D01*
X9584856Y-10732941D01*
X9584424Y-10735853D01*
X9583708Y-10738709D01*
X9582717Y-10741481D01*
X9581458Y-10744142D01*
X9579944Y-10746667D01*
X9578190Y-10749032D01*
X9576213Y-10751213D01*
X9574032Y-10753190D01*
X9571667Y-10754944D01*
X9569142Y-10756458D01*
X9566481Y-10757716D01*
X9563709Y-10758708D01*
X9560853Y-10759424D01*
X9557941Y-10759856D01*
X9555000Y-10760000D01*
X9555000Y-10760000D01*
X9552059Y-10759856D01*
X9549147Y-10759424D01*
X9546291Y-10758708D01*
X9543519Y-10757716D01*
X9540858Y-10756458D01*
X9538333Y-10754944D01*
X9535968Y-10753190D01*
X9533787Y-10751213D01*
X9531810Y-10749032D01*
X9530056Y-10746667D01*
X9528542Y-10744142D01*
X9527284Y-10741481D01*
X9526292Y-10738709D01*
X9525576Y-10735853D01*
X9525144Y-10732941D01*
X9525000Y-10730000D01*
X9525000Y-10630000D01*
X9525144Y-10627060D01*
X9525576Y-10624147D01*
X9526292Y-10621292D01*
X9527284Y-10618520D01*
X9528542Y-10615858D01*
X9530056Y-10613333D01*
X9531810Y-10610968D01*
X9533787Y-10608787D01*
X9535968Y-10606810D01*
X9538333Y-10605056D01*
X9540858Y-10603542D01*
X9543519Y-10602284D01*
X9546291Y-10601292D01*
X9549147Y-10600576D01*
X9552059Y-10600145D01*
X9555000Y-10600000D01*
X9555000Y-10600000D01*
X9557941Y-10600145D01*
X9557941Y-10600145D01*
G37*
D14*
X9555000Y-10680000D03*
D15*
X9527500Y-10680000D03*
X9527500Y-10840000D03*
D13*
G36*
X9557941Y-10760145D02*
X9560853Y-10760576D01*
X9563709Y-10761292D01*
X9566481Y-10762284D01*
X9569142Y-10763542D01*
X9571667Y-10765056D01*
X9574032Y-10766810D01*
X9576213Y-10768787D01*
X9578190Y-10770968D01*
X9579944Y-10773333D01*
X9581458Y-10775858D01*
X9582717Y-10778520D01*
X9583708Y-10781292D01*
X9584424Y-10784147D01*
X9584856Y-10787060D01*
X9585000Y-10790000D01*
X9585000Y-10890000D01*
X9584856Y-10892941D01*
X9584424Y-10895853D01*
X9583708Y-10898709D01*
X9582717Y-10901481D01*
X9581458Y-10904142D01*
X9579944Y-10906667D01*
X9578190Y-10909032D01*
X9576213Y-10911213D01*
X9574032Y-10913190D01*
X9571667Y-10914944D01*
X9569142Y-10916458D01*
X9566481Y-10917716D01*
X9563709Y-10918708D01*
X9560853Y-10919424D01*
X9557941Y-10919856D01*
X9555000Y-10920000D01*
X9555000Y-10920000D01*
X9552059Y-10919856D01*
X9549147Y-10919424D01*
X9546291Y-10918708D01*
X9543519Y-10917716D01*
X9540858Y-10916458D01*
X9538333Y-10914944D01*
X9535968Y-10913190D01*
X9533787Y-10911213D01*
X9531810Y-10909032D01*
X9530056Y-10906667D01*
X9528542Y-10904142D01*
X9527284Y-10901481D01*
X9526292Y-10898709D01*
X9525576Y-10895853D01*
X9525144Y-10892941D01*
X9525000Y-10890000D01*
X9525000Y-10790000D01*
X9525144Y-10787060D01*
X9525576Y-10784147D01*
X9526292Y-10781292D01*
X9527284Y-10778520D01*
X9528542Y-10775858D01*
X9530056Y-10773333D01*
X9531810Y-10770968D01*
X9533787Y-10768787D01*
X9535968Y-10766810D01*
X9538333Y-10765056D01*
X9540858Y-10763542D01*
X9543519Y-10762284D01*
X9546291Y-10761292D01*
X9549147Y-10760576D01*
X9552059Y-10760145D01*
X9555000Y-10760000D01*
X9555000Y-10760000D01*
X9557941Y-10760145D01*
X9557941Y-10760145D01*
G37*
D14*
X9555000Y-10840000D03*
D13*
G36*
X10447941Y-10440145D02*
X10450853Y-10440576D01*
X10453709Y-10441292D01*
X10456481Y-10442284D01*
X10459142Y-10443542D01*
X10461667Y-10445056D01*
X10464032Y-10446810D01*
X10466213Y-10448787D01*
X10468190Y-10450968D01*
X10469944Y-10453333D01*
X10471458Y-10455858D01*
X10472717Y-10458520D01*
X10473708Y-10461292D01*
X10474424Y-10464147D01*
X10474856Y-10467060D01*
X10475000Y-10470000D01*
X10475000Y-10570000D01*
X10474856Y-10572941D01*
X10474424Y-10575853D01*
X10473708Y-10578709D01*
X10472717Y-10581481D01*
X10471458Y-10584142D01*
X10469944Y-10586667D01*
X10468190Y-10589032D01*
X10466213Y-10591213D01*
X10464032Y-10593190D01*
X10461667Y-10594944D01*
X10459142Y-10596458D01*
X10456481Y-10597716D01*
X10453709Y-10598708D01*
X10450853Y-10599424D01*
X10447941Y-10599856D01*
X10445000Y-10600000D01*
X10445000Y-10600000D01*
X10442059Y-10599856D01*
X10439147Y-10599424D01*
X10436291Y-10598708D01*
X10433519Y-10597716D01*
X10430858Y-10596458D01*
X10428333Y-10594944D01*
X10425968Y-10593190D01*
X10423787Y-10591213D01*
X10421810Y-10589032D01*
X10420056Y-10586667D01*
X10418542Y-10584142D01*
X10417284Y-10581481D01*
X10416292Y-10578709D01*
X10415576Y-10575853D01*
X10415144Y-10572941D01*
X10415000Y-10570000D01*
X10415000Y-10470000D01*
X10415144Y-10467060D01*
X10415576Y-10464147D01*
X10416292Y-10461292D01*
X10417284Y-10458520D01*
X10418542Y-10455858D01*
X10420056Y-10453333D01*
X10421810Y-10450968D01*
X10423787Y-10448787D01*
X10425968Y-10446810D01*
X10428333Y-10445056D01*
X10430858Y-10443542D01*
X10433519Y-10442284D01*
X10436291Y-10441292D01*
X10439147Y-10440576D01*
X10442059Y-10440145D01*
X10445000Y-10440000D01*
X10445000Y-10440000D01*
X10447941Y-10440145D01*
X10447941Y-10440145D01*
G37*
D14*
X10445000Y-10520000D03*
D15*
X10472500Y-10520000D03*
X10472500Y-10360000D03*
D13*
G36*
X10447941Y-10280145D02*
X10450853Y-10280576D01*
X10453709Y-10281292D01*
X10456481Y-10282284D01*
X10459142Y-10283542D01*
X10461667Y-10285056D01*
X10464032Y-10286810D01*
X10466213Y-10288787D01*
X10468190Y-10290968D01*
X10469944Y-10293333D01*
X10471458Y-10295858D01*
X10472717Y-10298520D01*
X10473708Y-10301292D01*
X10474424Y-10304147D01*
X10474856Y-10307060D01*
X10475000Y-10310000D01*
X10475000Y-10410000D01*
X10474856Y-10412941D01*
X10474424Y-10415853D01*
X10473708Y-10418709D01*
X10472717Y-10421481D01*
X10471458Y-10424142D01*
X10469944Y-10426667D01*
X10468190Y-10429032D01*
X10466213Y-10431213D01*
X10464032Y-10433190D01*
X10461667Y-10434944D01*
X10459142Y-10436458D01*
X10456481Y-10437716D01*
X10453709Y-10438708D01*
X10450853Y-10439424D01*
X10447941Y-10439856D01*
X10445000Y-10440000D01*
X10445000Y-10440000D01*
X10442059Y-10439856D01*
X10439147Y-10439424D01*
X10436291Y-10438708D01*
X10433519Y-10437716D01*
X10430858Y-10436458D01*
X10428333Y-10434944D01*
X10425968Y-10433190D01*
X10423787Y-10431213D01*
X10421810Y-10429032D01*
X10420056Y-10426667D01*
X10418542Y-10424142D01*
X10417284Y-10421481D01*
X10416292Y-10418709D01*
X10415576Y-10415853D01*
X10415144Y-10412941D01*
X10415000Y-10410000D01*
X10415000Y-10310000D01*
X10415144Y-10307060D01*
X10415576Y-10304147D01*
X10416292Y-10301292D01*
X10417284Y-10298520D01*
X10418542Y-10295858D01*
X10420056Y-10293333D01*
X10421810Y-10290968D01*
X10423787Y-10288787D01*
X10425968Y-10286810D01*
X10428333Y-10285056D01*
X10430858Y-10283542D01*
X10433519Y-10282284D01*
X10436291Y-10281292D01*
X10439147Y-10280576D01*
X10442059Y-10280145D01*
X10445000Y-10280000D01*
X10445000Y-10280000D01*
X10447941Y-10280145D01*
X10447941Y-10280145D01*
G37*
D14*
X10445000Y-10360000D03*
D13*
G36*
X10447941Y-10600145D02*
X10450853Y-10600576D01*
X10453709Y-10601292D01*
X10456481Y-10602284D01*
X10459142Y-10603542D01*
X10461667Y-10605056D01*
X10464032Y-10606810D01*
X10466213Y-10608787D01*
X10468190Y-10610968D01*
X10469944Y-10613333D01*
X10471458Y-10615858D01*
X10472717Y-10618520D01*
X10473708Y-10621292D01*
X10474424Y-10624147D01*
X10474856Y-10627060D01*
X10475000Y-10630000D01*
X10475000Y-10730000D01*
X10474856Y-10732941D01*
X10474424Y-10735853D01*
X10473708Y-10738709D01*
X10472717Y-10741481D01*
X10471458Y-10744142D01*
X10469944Y-10746667D01*
X10468190Y-10749032D01*
X10466213Y-10751213D01*
X10464032Y-10753190D01*
X10461667Y-10754944D01*
X10459142Y-10756458D01*
X10456481Y-10757716D01*
X10453709Y-10758708D01*
X10450853Y-10759424D01*
X10447941Y-10759856D01*
X10445000Y-10760000D01*
X10445000Y-10760000D01*
X10442059Y-10759856D01*
X10439147Y-10759424D01*
X10436291Y-10758708D01*
X10433519Y-10757716D01*
X10430858Y-10756458D01*
X10428333Y-10754944D01*
X10425968Y-10753190D01*
X10423787Y-10751213D01*
X10421810Y-10749032D01*
X10420056Y-10746667D01*
X10418542Y-10744142D01*
X10417284Y-10741481D01*
X10416292Y-10738709D01*
X10415576Y-10735853D01*
X10415144Y-10732941D01*
X10415000Y-10730000D01*
X10415000Y-10630000D01*
X10415144Y-10627060D01*
X10415576Y-10624147D01*
X10416292Y-10621292D01*
X10417284Y-10618520D01*
X10418542Y-10615858D01*
X10420056Y-10613333D01*
X10421810Y-10610968D01*
X10423787Y-10608787D01*
X10425968Y-10606810D01*
X10428333Y-10605056D01*
X10430858Y-10603542D01*
X10433519Y-10602284D01*
X10436291Y-10601292D01*
X10439147Y-10600576D01*
X10442059Y-10600145D01*
X10445000Y-10600000D01*
X10445000Y-10600000D01*
X10447941Y-10600145D01*
X10447941Y-10600145D01*
G37*
D14*
X10445000Y-10680000D03*
D15*
X10472500Y-10680000D03*
X10472500Y-10840000D03*
D13*
G36*
X10447941Y-10760145D02*
X10450853Y-10760576D01*
X10453709Y-10761292D01*
X10456481Y-10762284D01*
X10459142Y-10763542D01*
X10461667Y-10765056D01*
X10464032Y-10766810D01*
X10466213Y-10768787D01*
X10468190Y-10770968D01*
X10469944Y-10773333D01*
X10471458Y-10775858D01*
X10472717Y-10778520D01*
X10473708Y-10781292D01*
X10474424Y-10784147D01*
X10474856Y-10787060D01*
X10475000Y-10790000D01*
X10475000Y-10890000D01*
X10474856Y-10892941D01*
X10474424Y-10895853D01*
X10473708Y-10898709D01*
X10472717Y-10901481D01*
X10471458Y-10904142D01*
X10469944Y-10906667D01*
X10468190Y-10909032D01*
X10466213Y-10911213D01*
X10464032Y-10913190D01*
X10461667Y-10914944D01*
X10459142Y-10916458D01*
X10456481Y-10917716D01*
X10453709Y-10918708D01*
X10450853Y-10919424D01*
X10447941Y-10919856D01*
X10445000Y-10920000D01*
X10445000Y-10920000D01*
X10442059Y-10919856D01*
X10439147Y-10919424D01*
X10436291Y-10918708D01*
X10433519Y-10917716D01*
X10430858Y-10916458D01*
X10428333Y-10914944D01*
X10425968Y-10913190D01*
X10423787Y-10911213D01*
X10421810Y-10909032D01*
X10420056Y-10906667D01*
X10418542Y-10904142D01*
X10417284Y-10901481D01*
X10416292Y-10898709D01*
X10415576Y-10895853D01*
X10415144Y-10892941D01*
X10415000Y-10890000D01*
X10415000Y-10790000D01*
X10415144Y-10787060D01*
X10415576Y-10784147D01*
X10416292Y-10781292D01*
X10417284Y-10778520D01*
X10418542Y-10775858D01*
X10420056Y-10773333D01*
X10421810Y-10770968D01*
X10423787Y-10768787D01*
X10425968Y-10766810D01*
X10428333Y-10765056D01*
X10430858Y-10763542D01*
X10433519Y-10762284D01*
X10436291Y-10761292D01*
X10439147Y-10760576D01*
X10442059Y-10760145D01*
X10445000Y-10760000D01*
X10445000Y-10760000D01*
X10447941Y-10760145D01*
X10447941Y-10760145D01*
G37*
D14*
X10445000Y-10840000D03*
D11*
X10250000Y-10440000D03*
X9750000Y-10760000D03*
X9750000Y-10440000D03*
D12*
X10250000Y-10760000D03*
D11*
X10250000Y-10600000D03*
X9750000Y-10600000D03*
D10*
X10000000Y-10600000D03*
X10000000Y-12700000D03*
D11*
X9750000Y-12700000D03*
X10250000Y-12700000D03*
D12*
X10250000Y-12860000D03*
D11*
X9750000Y-12540000D03*
X9750000Y-12860000D03*
X10250000Y-12540000D03*
D13*
G36*
X10447941Y-12860144D02*
X10450853Y-12860576D01*
X10453709Y-12861292D01*
X10456481Y-12862284D01*
X10459142Y-12863542D01*
X10461667Y-12865056D01*
X10464032Y-12866810D01*
X10466213Y-12868787D01*
X10468190Y-12870968D01*
X10469944Y-12873333D01*
X10471458Y-12875858D01*
X10472717Y-12878519D01*
X10473708Y-12881291D01*
X10474424Y-12884147D01*
X10474856Y-12887059D01*
X10475000Y-12890000D01*
X10475000Y-12990000D01*
X10474856Y-12992940D01*
X10474424Y-12995853D01*
X10473708Y-12998708D01*
X10472717Y-13001480D01*
X10471458Y-13004142D01*
X10469944Y-13006667D01*
X10468190Y-13009032D01*
X10466213Y-13011213D01*
X10464032Y-13013190D01*
X10461667Y-13014944D01*
X10459142Y-13016458D01*
X10456481Y-13017716D01*
X10453709Y-13018708D01*
X10450853Y-13019424D01*
X10447941Y-13019855D01*
X10445000Y-13020000D01*
X10445000Y-13020000D01*
X10442059Y-13019855D01*
X10439147Y-13019424D01*
X10436291Y-13018708D01*
X10433519Y-13017716D01*
X10430858Y-13016458D01*
X10428333Y-13014944D01*
X10425968Y-13013190D01*
X10423787Y-13011213D01*
X10421810Y-13009032D01*
X10420056Y-13006667D01*
X10418542Y-13004142D01*
X10417284Y-13001480D01*
X10416292Y-12998708D01*
X10415576Y-12995853D01*
X10415144Y-12992940D01*
X10415000Y-12990000D01*
X10415000Y-12890000D01*
X10415144Y-12887059D01*
X10415576Y-12884147D01*
X10416292Y-12881291D01*
X10417284Y-12878519D01*
X10418542Y-12875858D01*
X10420056Y-12873333D01*
X10421810Y-12870968D01*
X10423787Y-12868787D01*
X10425968Y-12866810D01*
X10428333Y-12865056D01*
X10430858Y-12863542D01*
X10433519Y-12862284D01*
X10436291Y-12861292D01*
X10439147Y-12860576D01*
X10442059Y-12860144D01*
X10445000Y-12860000D01*
X10445000Y-12860000D01*
X10447941Y-12860144D01*
X10447941Y-12860144D01*
G37*
D14*
X10445000Y-12940000D03*
D15*
X10472500Y-12940000D03*
X10472500Y-12780000D03*
D13*
G36*
X10447941Y-12700144D02*
X10450853Y-12700576D01*
X10453709Y-12701292D01*
X10456481Y-12702284D01*
X10459142Y-12703542D01*
X10461667Y-12705056D01*
X10464032Y-12706810D01*
X10466213Y-12708787D01*
X10468190Y-12710968D01*
X10469944Y-12713333D01*
X10471458Y-12715858D01*
X10472717Y-12718519D01*
X10473708Y-12721291D01*
X10474424Y-12724147D01*
X10474856Y-12727059D01*
X10475000Y-12730000D01*
X10475000Y-12830000D01*
X10474856Y-12832940D01*
X10474424Y-12835853D01*
X10473708Y-12838708D01*
X10472717Y-12841480D01*
X10471458Y-12844142D01*
X10469944Y-12846667D01*
X10468190Y-12849032D01*
X10466213Y-12851213D01*
X10464032Y-12853190D01*
X10461667Y-12854944D01*
X10459142Y-12856458D01*
X10456481Y-12857716D01*
X10453709Y-12858708D01*
X10450853Y-12859424D01*
X10447941Y-12859855D01*
X10445000Y-12860000D01*
X10445000Y-12860000D01*
X10442059Y-12859855D01*
X10439147Y-12859424D01*
X10436291Y-12858708D01*
X10433519Y-12857716D01*
X10430858Y-12856458D01*
X10428333Y-12854944D01*
X10425968Y-12853190D01*
X10423787Y-12851213D01*
X10421810Y-12849032D01*
X10420056Y-12846667D01*
X10418542Y-12844142D01*
X10417284Y-12841480D01*
X10416292Y-12838708D01*
X10415576Y-12835853D01*
X10415144Y-12832940D01*
X10415000Y-12830000D01*
X10415000Y-12730000D01*
X10415144Y-12727059D01*
X10415576Y-12724147D01*
X10416292Y-12721291D01*
X10417284Y-12718519D01*
X10418542Y-12715858D01*
X10420056Y-12713333D01*
X10421810Y-12710968D01*
X10423787Y-12708787D01*
X10425968Y-12706810D01*
X10428333Y-12705056D01*
X10430858Y-12703542D01*
X10433519Y-12702284D01*
X10436291Y-12701292D01*
X10439147Y-12700576D01*
X10442059Y-12700144D01*
X10445000Y-12700000D01*
X10445000Y-12700000D01*
X10447941Y-12700144D01*
X10447941Y-12700144D01*
G37*
D14*
X10445000Y-12780000D03*
D13*
G36*
X10447941Y-12380144D02*
X10450853Y-12380576D01*
X10453709Y-12381292D01*
X10456481Y-12382284D01*
X10459142Y-12383542D01*
X10461667Y-12385056D01*
X10464032Y-12386810D01*
X10466213Y-12388787D01*
X10468190Y-12390968D01*
X10469944Y-12393333D01*
X10471458Y-12395858D01*
X10472717Y-12398519D01*
X10473708Y-12401291D01*
X10474424Y-12404147D01*
X10474856Y-12407059D01*
X10475000Y-12410000D01*
X10475000Y-12510000D01*
X10474856Y-12512940D01*
X10474424Y-12515853D01*
X10473708Y-12518708D01*
X10472717Y-12521480D01*
X10471458Y-12524142D01*
X10469944Y-12526667D01*
X10468190Y-12529032D01*
X10466213Y-12531213D01*
X10464032Y-12533190D01*
X10461667Y-12534944D01*
X10459142Y-12536458D01*
X10456481Y-12537716D01*
X10453709Y-12538708D01*
X10450853Y-12539424D01*
X10447941Y-12539855D01*
X10445000Y-12540000D01*
X10445000Y-12540000D01*
X10442059Y-12539855D01*
X10439147Y-12539424D01*
X10436291Y-12538708D01*
X10433519Y-12537716D01*
X10430858Y-12536458D01*
X10428333Y-12534944D01*
X10425968Y-12533190D01*
X10423787Y-12531213D01*
X10421810Y-12529032D01*
X10420056Y-12526667D01*
X10418542Y-12524142D01*
X10417284Y-12521480D01*
X10416292Y-12518708D01*
X10415576Y-12515853D01*
X10415144Y-12512940D01*
X10415000Y-12510000D01*
X10415000Y-12410000D01*
X10415144Y-12407059D01*
X10415576Y-12404147D01*
X10416292Y-12401291D01*
X10417284Y-12398519D01*
X10418542Y-12395858D01*
X10420056Y-12393333D01*
X10421810Y-12390968D01*
X10423787Y-12388787D01*
X10425968Y-12386810D01*
X10428333Y-12385056D01*
X10430858Y-12383542D01*
X10433519Y-12382284D01*
X10436291Y-12381292D01*
X10439147Y-12380576D01*
X10442059Y-12380144D01*
X10445000Y-12380000D01*
X10445000Y-12380000D01*
X10447941Y-12380144D01*
X10447941Y-12380144D01*
G37*
D14*
X10445000Y-12460000D03*
D15*
X10472500Y-12460000D03*
X10472500Y-12620000D03*
D13*
G36*
X10447941Y-12540144D02*
X10450853Y-12540576D01*
X10453709Y-12541292D01*
X10456481Y-12542284D01*
X10459142Y-12543542D01*
X10461667Y-12545056D01*
X10464032Y-12546810D01*
X10466213Y-12548787D01*
X10468190Y-12550968D01*
X10469944Y-12553333D01*
X10471458Y-12555858D01*
X10472717Y-12558519D01*
X10473708Y-12561291D01*
X10474424Y-12564147D01*
X10474856Y-12567059D01*
X10475000Y-12570000D01*
X10475000Y-12670000D01*
X10474856Y-12672940D01*
X10474424Y-12675853D01*
X10473708Y-12678708D01*
X10472717Y-12681480D01*
X10471458Y-12684142D01*
X10469944Y-12686667D01*
X10468190Y-12689032D01*
X10466213Y-12691213D01*
X10464032Y-12693190D01*
X10461667Y-12694944D01*
X10459142Y-12696458D01*
X10456481Y-12697716D01*
X10453709Y-12698708D01*
X10450853Y-12699424D01*
X10447941Y-12699855D01*
X10445000Y-12700000D01*
X10445000Y-12700000D01*
X10442059Y-12699855D01*
X10439147Y-12699424D01*
X10436291Y-12698708D01*
X10433519Y-12697716D01*
X10430858Y-12696458D01*
X10428333Y-12694944D01*
X10425968Y-12693190D01*
X10423787Y-12691213D01*
X10421810Y-12689032D01*
X10420056Y-12686667D01*
X10418542Y-12684142D01*
X10417284Y-12681480D01*
X10416292Y-12678708D01*
X10415576Y-12675853D01*
X10415144Y-12672940D01*
X10415000Y-12670000D01*
X10415000Y-12570000D01*
X10415144Y-12567059D01*
X10415576Y-12564147D01*
X10416292Y-12561291D01*
X10417284Y-12558519D01*
X10418542Y-12555858D01*
X10420056Y-12553333D01*
X10421810Y-12550968D01*
X10423787Y-12548787D01*
X10425968Y-12546810D01*
X10428333Y-12545056D01*
X10430858Y-12543542D01*
X10433519Y-12542284D01*
X10436291Y-12541292D01*
X10439147Y-12540576D01*
X10442059Y-12540144D01*
X10445000Y-12540000D01*
X10445000Y-12540000D01*
X10447941Y-12540144D01*
X10447941Y-12540144D01*
G37*
D14*
X10445000Y-12620000D03*
D13*
G36*
X9557941Y-12860144D02*
X9560853Y-12860576D01*
X9563709Y-12861292D01*
X9566481Y-12862284D01*
X9569142Y-12863542D01*
X9571667Y-12865056D01*
X9574032Y-12866810D01*
X9576213Y-12868787D01*
X9578190Y-12870968D01*
X9579944Y-12873333D01*
X9581458Y-12875858D01*
X9582717Y-12878519D01*
X9583708Y-12881291D01*
X9584424Y-12884147D01*
X9584856Y-12887059D01*
X9585000Y-12890000D01*
X9585000Y-12990000D01*
X9584856Y-12992940D01*
X9584424Y-12995853D01*
X9583708Y-12998708D01*
X9582717Y-13001480D01*
X9581458Y-13004142D01*
X9579944Y-13006667D01*
X9578190Y-13009032D01*
X9576213Y-13011213D01*
X9574032Y-13013190D01*
X9571667Y-13014944D01*
X9569142Y-13016458D01*
X9566481Y-13017716D01*
X9563709Y-13018708D01*
X9560853Y-13019424D01*
X9557941Y-13019855D01*
X9555000Y-13020000D01*
X9555000Y-13020000D01*
X9552059Y-13019855D01*
X9549147Y-13019424D01*
X9546291Y-13018708D01*
X9543519Y-13017716D01*
X9540858Y-13016458D01*
X9538333Y-13014944D01*
X9535968Y-13013190D01*
X9533787Y-13011213D01*
X9531810Y-13009032D01*
X9530056Y-13006667D01*
X9528542Y-13004142D01*
X9527284Y-13001480D01*
X9526292Y-12998708D01*
X9525576Y-12995853D01*
X9525144Y-12992940D01*
X9525000Y-12990000D01*
X9525000Y-12890000D01*
X9525144Y-12887059D01*
X9525576Y-12884147D01*
X9526292Y-12881291D01*
X9527284Y-12878519D01*
X9528542Y-12875858D01*
X9530056Y-12873333D01*
X9531810Y-12870968D01*
X9533787Y-12868787D01*
X9535968Y-12866810D01*
X9538333Y-12865056D01*
X9540858Y-12863542D01*
X9543519Y-12862284D01*
X9546291Y-12861292D01*
X9549147Y-12860576D01*
X9552059Y-12860144D01*
X9555000Y-12860000D01*
X9555000Y-12860000D01*
X9557941Y-12860144D01*
X9557941Y-12860144D01*
G37*
D14*
X9555000Y-12940000D03*
D15*
X9527500Y-12940000D03*
X9527500Y-12780000D03*
D13*
G36*
X9557941Y-12700144D02*
X9560853Y-12700576D01*
X9563709Y-12701292D01*
X9566481Y-12702284D01*
X9569142Y-12703542D01*
X9571667Y-12705056D01*
X9574032Y-12706810D01*
X9576213Y-12708787D01*
X9578190Y-12710968D01*
X9579944Y-12713333D01*
X9581458Y-12715858D01*
X9582717Y-12718519D01*
X9583708Y-12721291D01*
X9584424Y-12724147D01*
X9584856Y-12727059D01*
X9585000Y-12730000D01*
X9585000Y-12830000D01*
X9584856Y-12832940D01*
X9584424Y-12835853D01*
X9583708Y-12838708D01*
X9582717Y-12841480D01*
X9581458Y-12844142D01*
X9579944Y-12846667D01*
X9578190Y-12849032D01*
X9576213Y-12851213D01*
X9574032Y-12853190D01*
X9571667Y-12854944D01*
X9569142Y-12856458D01*
X9566481Y-12857716D01*
X9563709Y-12858708D01*
X9560853Y-12859424D01*
X9557941Y-12859855D01*
X9555000Y-12860000D01*
X9555000Y-12860000D01*
X9552059Y-12859855D01*
X9549147Y-12859424D01*
X9546291Y-12858708D01*
X9543519Y-12857716D01*
X9540858Y-12856458D01*
X9538333Y-12854944D01*
X9535968Y-12853190D01*
X9533787Y-12851213D01*
X9531810Y-12849032D01*
X9530056Y-12846667D01*
X9528542Y-12844142D01*
X9527284Y-12841480D01*
X9526292Y-12838708D01*
X9525576Y-12835853D01*
X9525144Y-12832940D01*
X9525000Y-12830000D01*
X9525000Y-12730000D01*
X9525144Y-12727059D01*
X9525576Y-12724147D01*
X9526292Y-12721291D01*
X9527284Y-12718519D01*
X9528542Y-12715858D01*
X9530056Y-12713333D01*
X9531810Y-12710968D01*
X9533787Y-12708787D01*
X9535968Y-12706810D01*
X9538333Y-12705056D01*
X9540858Y-12703542D01*
X9543519Y-12702284D01*
X9546291Y-12701292D01*
X9549147Y-12700576D01*
X9552059Y-12700144D01*
X9555000Y-12700000D01*
X9555000Y-12700000D01*
X9557941Y-12700144D01*
X9557941Y-12700144D01*
G37*
D14*
X9555000Y-12780000D03*
D13*
G36*
X9557941Y-12380144D02*
X9560853Y-12380576D01*
X9563709Y-12381292D01*
X9566481Y-12382284D01*
X9569142Y-12383542D01*
X9571667Y-12385056D01*
X9574032Y-12386810D01*
X9576213Y-12388787D01*
X9578190Y-12390968D01*
X9579944Y-12393333D01*
X9581458Y-12395858D01*
X9582717Y-12398519D01*
X9583708Y-12401291D01*
X9584424Y-12404147D01*
X9584856Y-12407059D01*
X9585000Y-12410000D01*
X9585000Y-12510000D01*
X9584856Y-12512940D01*
X9584424Y-12515853D01*
X9583708Y-12518708D01*
X9582717Y-12521480D01*
X9581458Y-12524142D01*
X9579944Y-12526667D01*
X9578190Y-12529032D01*
X9576213Y-12531213D01*
X9574032Y-12533190D01*
X9571667Y-12534944D01*
X9569142Y-12536458D01*
X9566481Y-12537716D01*
X9563709Y-12538708D01*
X9560853Y-12539424D01*
X9557941Y-12539855D01*
X9555000Y-12540000D01*
X9555000Y-12540000D01*
X9552059Y-12539855D01*
X9549147Y-12539424D01*
X9546291Y-12538708D01*
X9543519Y-12537716D01*
X9540858Y-12536458D01*
X9538333Y-12534944D01*
X9535968Y-12533190D01*
X9533787Y-12531213D01*
X9531810Y-12529032D01*
X9530056Y-12526667D01*
X9528542Y-12524142D01*
X9527284Y-12521480D01*
X9526292Y-12518708D01*
X9525576Y-12515853D01*
X9525144Y-12512940D01*
X9525000Y-12510000D01*
X9525000Y-12410000D01*
X9525144Y-12407059D01*
X9525576Y-12404147D01*
X9526292Y-12401291D01*
X9527284Y-12398519D01*
X9528542Y-12395858D01*
X9530056Y-12393333D01*
X9531810Y-12390968D01*
X9533787Y-12388787D01*
X9535968Y-12386810D01*
X9538333Y-12385056D01*
X9540858Y-12383542D01*
X9543519Y-12382284D01*
X9546291Y-12381292D01*
X9549147Y-12380576D01*
X9552059Y-12380144D01*
X9555000Y-12380000D01*
X9555000Y-12380000D01*
X9557941Y-12380144D01*
X9557941Y-12380144D01*
G37*
D14*
X9555000Y-12460000D03*
D15*
X9527500Y-12460000D03*
X9527500Y-12620000D03*
D13*
G36*
X9557941Y-12540144D02*
X9560853Y-12540576D01*
X9563709Y-12541292D01*
X9566481Y-12542284D01*
X9569142Y-12543542D01*
X9571667Y-12545056D01*
X9574032Y-12546810D01*
X9576213Y-12548787D01*
X9578190Y-12550968D01*
X9579944Y-12553333D01*
X9581458Y-12555858D01*
X9582717Y-12558519D01*
X9583708Y-12561291D01*
X9584424Y-12564147D01*
X9584856Y-12567059D01*
X9585000Y-12570000D01*
X9585000Y-12670000D01*
X9584856Y-12672940D01*
X9584424Y-12675853D01*
X9583708Y-12678708D01*
X9582717Y-12681480D01*
X9581458Y-12684142D01*
X9579944Y-12686667D01*
X9578190Y-12689032D01*
X9576213Y-12691213D01*
X9574032Y-12693190D01*
X9571667Y-12694944D01*
X9569142Y-12696458D01*
X9566481Y-12697716D01*
X9563709Y-12698708D01*
X9560853Y-12699424D01*
X9557941Y-12699855D01*
X9555000Y-12700000D01*
X9555000Y-12700000D01*
X9552059Y-12699855D01*
X9549147Y-12699424D01*
X9546291Y-12698708D01*
X9543519Y-12697716D01*
X9540858Y-12696458D01*
X9538333Y-12694944D01*
X9535968Y-12693190D01*
X9533787Y-12691213D01*
X9531810Y-12689032D01*
X9530056Y-12686667D01*
X9528542Y-12684142D01*
X9527284Y-12681480D01*
X9526292Y-12678708D01*
X9525576Y-12675853D01*
X9525144Y-12672940D01*
X9525000Y-12670000D01*
X9525000Y-12570000D01*
X9525144Y-12567059D01*
X9525576Y-12564147D01*
X9526292Y-12561291D01*
X9527284Y-12558519D01*
X9528542Y-12555858D01*
X9530056Y-12553333D01*
X9531810Y-12550968D01*
X9533787Y-12548787D01*
X9535968Y-12546810D01*
X9538333Y-12545056D01*
X9540858Y-12543542D01*
X9543519Y-12542284D01*
X9546291Y-12541292D01*
X9549147Y-12540576D01*
X9552059Y-12540144D01*
X9555000Y-12540000D01*
X9555000Y-12540000D01*
X9557941Y-12540144D01*
X9557941Y-12540144D01*
G37*
D14*
X9555000Y-12620000D03*
D13*
G36*
X9557941Y-11840144D02*
X9560853Y-11840576D01*
X9563709Y-11841292D01*
X9566481Y-11842284D01*
X9569142Y-11843542D01*
X9571667Y-11845056D01*
X9574032Y-11846810D01*
X9576213Y-11848787D01*
X9578190Y-11850968D01*
X9579944Y-11853333D01*
X9581458Y-11855858D01*
X9582717Y-11858519D01*
X9583708Y-11861291D01*
X9584424Y-11864147D01*
X9584856Y-11867059D01*
X9585000Y-11870000D01*
X9585000Y-11970000D01*
X9584856Y-11972940D01*
X9584424Y-11975853D01*
X9583708Y-11978708D01*
X9582717Y-11981480D01*
X9581458Y-11984142D01*
X9579944Y-11986667D01*
X9578190Y-11989032D01*
X9576213Y-11991213D01*
X9574032Y-11993190D01*
X9571667Y-11994944D01*
X9569142Y-11996458D01*
X9566481Y-11997716D01*
X9563709Y-11998708D01*
X9560853Y-11999424D01*
X9557941Y-11999855D01*
X9555000Y-12000000D01*
X9555000Y-12000000D01*
X9552059Y-11999855D01*
X9549147Y-11999424D01*
X9546291Y-11998708D01*
X9543519Y-11997716D01*
X9540858Y-11996458D01*
X9538333Y-11994944D01*
X9535968Y-11993190D01*
X9533787Y-11991213D01*
X9531810Y-11989032D01*
X9530056Y-11986667D01*
X9528542Y-11984142D01*
X9527284Y-11981480D01*
X9526292Y-11978708D01*
X9525576Y-11975853D01*
X9525144Y-11972940D01*
X9525000Y-11970000D01*
X9525000Y-11870000D01*
X9525144Y-11867059D01*
X9525576Y-11864147D01*
X9526292Y-11861291D01*
X9527284Y-11858519D01*
X9528542Y-11855858D01*
X9530056Y-11853333D01*
X9531810Y-11850968D01*
X9533787Y-11848787D01*
X9535968Y-11846810D01*
X9538333Y-11845056D01*
X9540858Y-11843542D01*
X9543519Y-11842284D01*
X9546291Y-11841292D01*
X9549147Y-11840576D01*
X9552059Y-11840144D01*
X9555000Y-11840000D01*
X9555000Y-11840000D01*
X9557941Y-11840144D01*
X9557941Y-11840144D01*
G37*
D14*
X9555000Y-11920000D03*
D15*
X9527500Y-11920000D03*
X9527500Y-11760000D03*
D13*
G36*
X9557941Y-11680144D02*
X9560853Y-11680576D01*
X9563709Y-11681292D01*
X9566481Y-11682284D01*
X9569142Y-11683542D01*
X9571667Y-11685056D01*
X9574032Y-11686810D01*
X9576213Y-11688787D01*
X9578190Y-11690968D01*
X9579944Y-11693333D01*
X9581458Y-11695858D01*
X9582717Y-11698519D01*
X9583708Y-11701291D01*
X9584424Y-11704147D01*
X9584856Y-11707059D01*
X9585000Y-11710000D01*
X9585000Y-11810000D01*
X9584856Y-11812940D01*
X9584424Y-11815853D01*
X9583708Y-11818708D01*
X9582717Y-11821480D01*
X9581458Y-11824142D01*
X9579944Y-11826667D01*
X9578190Y-11829032D01*
X9576213Y-11831213D01*
X9574032Y-11833190D01*
X9571667Y-11834944D01*
X9569142Y-11836458D01*
X9566481Y-11837716D01*
X9563709Y-11838708D01*
X9560853Y-11839424D01*
X9557941Y-11839855D01*
X9555000Y-11840000D01*
X9555000Y-11840000D01*
X9552059Y-11839855D01*
X9549147Y-11839424D01*
X9546291Y-11838708D01*
X9543519Y-11837716D01*
X9540858Y-11836458D01*
X9538333Y-11834944D01*
X9535968Y-11833190D01*
X9533787Y-11831213D01*
X9531810Y-11829032D01*
X9530056Y-11826667D01*
X9528542Y-11824142D01*
X9527284Y-11821480D01*
X9526292Y-11818708D01*
X9525576Y-11815853D01*
X9525144Y-11812940D01*
X9525000Y-11810000D01*
X9525000Y-11710000D01*
X9525144Y-11707059D01*
X9525576Y-11704147D01*
X9526292Y-11701291D01*
X9527284Y-11698519D01*
X9528542Y-11695858D01*
X9530056Y-11693333D01*
X9531810Y-11690968D01*
X9533787Y-11688787D01*
X9535968Y-11686810D01*
X9538333Y-11685056D01*
X9540858Y-11683542D01*
X9543519Y-11682284D01*
X9546291Y-11681292D01*
X9549147Y-11680576D01*
X9552059Y-11680144D01*
X9555000Y-11680000D01*
X9555000Y-11680000D01*
X9557941Y-11680144D01*
X9557941Y-11680144D01*
G37*
D14*
X9555000Y-11760000D03*
D13*
G36*
X9557941Y-12000144D02*
X9560853Y-12000576D01*
X9563709Y-12001292D01*
X9566481Y-12002284D01*
X9569142Y-12003542D01*
X9571667Y-12005056D01*
X9574032Y-12006810D01*
X9576213Y-12008787D01*
X9578190Y-12010968D01*
X9579944Y-12013333D01*
X9581458Y-12015858D01*
X9582717Y-12018519D01*
X9583708Y-12021291D01*
X9584424Y-12024147D01*
X9584856Y-12027059D01*
X9585000Y-12030000D01*
X9585000Y-12130000D01*
X9584856Y-12132940D01*
X9584424Y-12135853D01*
X9583708Y-12138708D01*
X9582717Y-12141480D01*
X9581458Y-12144142D01*
X9579944Y-12146667D01*
X9578190Y-12149032D01*
X9576213Y-12151213D01*
X9574032Y-12153190D01*
X9571667Y-12154944D01*
X9569142Y-12156458D01*
X9566481Y-12157716D01*
X9563709Y-12158708D01*
X9560853Y-12159424D01*
X9557941Y-12159855D01*
X9555000Y-12160000D01*
X9555000Y-12160000D01*
X9552059Y-12159855D01*
X9549147Y-12159424D01*
X9546291Y-12158708D01*
X9543519Y-12157716D01*
X9540858Y-12156458D01*
X9538333Y-12154944D01*
X9535968Y-12153190D01*
X9533787Y-12151213D01*
X9531810Y-12149032D01*
X9530056Y-12146667D01*
X9528542Y-12144142D01*
X9527284Y-12141480D01*
X9526292Y-12138708D01*
X9525576Y-12135853D01*
X9525144Y-12132940D01*
X9525000Y-12130000D01*
X9525000Y-12030000D01*
X9525144Y-12027059D01*
X9525576Y-12024147D01*
X9526292Y-12021291D01*
X9527284Y-12018519D01*
X9528542Y-12015858D01*
X9530056Y-12013333D01*
X9531810Y-12010968D01*
X9533787Y-12008787D01*
X9535968Y-12006810D01*
X9538333Y-12005056D01*
X9540858Y-12003542D01*
X9543519Y-12002284D01*
X9546291Y-12001292D01*
X9549147Y-12000576D01*
X9552059Y-12000144D01*
X9555000Y-12000000D01*
X9555000Y-12000000D01*
X9557941Y-12000144D01*
X9557941Y-12000144D01*
G37*
D14*
X9555000Y-12080000D03*
D15*
X9527500Y-12080000D03*
X9527500Y-12240000D03*
D13*
G36*
X9557941Y-12160144D02*
X9560853Y-12160576D01*
X9563709Y-12161292D01*
X9566481Y-12162284D01*
X9569142Y-12163542D01*
X9571667Y-12165056D01*
X9574032Y-12166810D01*
X9576213Y-12168787D01*
X9578190Y-12170968D01*
X9579944Y-12173333D01*
X9581458Y-12175858D01*
X9582717Y-12178519D01*
X9583708Y-12181291D01*
X9584424Y-12184147D01*
X9584856Y-12187059D01*
X9585000Y-12190000D01*
X9585000Y-12290000D01*
X9584856Y-12292940D01*
X9584424Y-12295853D01*
X9583708Y-12298708D01*
X9582717Y-12301480D01*
X9581458Y-12304142D01*
X9579944Y-12306667D01*
X9578190Y-12309032D01*
X9576213Y-12311213D01*
X9574032Y-12313190D01*
X9571667Y-12314944D01*
X9569142Y-12316458D01*
X9566481Y-12317716D01*
X9563709Y-12318708D01*
X9560853Y-12319424D01*
X9557941Y-12319855D01*
X9555000Y-12320000D01*
X9555000Y-12320000D01*
X9552059Y-12319855D01*
X9549147Y-12319424D01*
X9546291Y-12318708D01*
X9543519Y-12317716D01*
X9540858Y-12316458D01*
X9538333Y-12314944D01*
X9535968Y-12313190D01*
X9533787Y-12311213D01*
X9531810Y-12309032D01*
X9530056Y-12306667D01*
X9528542Y-12304142D01*
X9527284Y-12301480D01*
X9526292Y-12298708D01*
X9525576Y-12295853D01*
X9525144Y-12292940D01*
X9525000Y-12290000D01*
X9525000Y-12190000D01*
X9525144Y-12187059D01*
X9525576Y-12184147D01*
X9526292Y-12181291D01*
X9527284Y-12178519D01*
X9528542Y-12175858D01*
X9530056Y-12173333D01*
X9531810Y-12170968D01*
X9533787Y-12168787D01*
X9535968Y-12166810D01*
X9538333Y-12165056D01*
X9540858Y-12163542D01*
X9543519Y-12162284D01*
X9546291Y-12161292D01*
X9549147Y-12160576D01*
X9552059Y-12160144D01*
X9555000Y-12160000D01*
X9555000Y-12160000D01*
X9557941Y-12160144D01*
X9557941Y-12160144D01*
G37*
D14*
X9555000Y-12240000D03*
D13*
G36*
X10447941Y-11840144D02*
X10450853Y-11840576D01*
X10453709Y-11841292D01*
X10456481Y-11842284D01*
X10459142Y-11843542D01*
X10461667Y-11845056D01*
X10464032Y-11846810D01*
X10466213Y-11848787D01*
X10468190Y-11850968D01*
X10469944Y-11853333D01*
X10471458Y-11855858D01*
X10472717Y-11858519D01*
X10473708Y-11861291D01*
X10474424Y-11864147D01*
X10474856Y-11867059D01*
X10475000Y-11870000D01*
X10475000Y-11970000D01*
X10474856Y-11972940D01*
X10474424Y-11975853D01*
X10473708Y-11978708D01*
X10472717Y-11981480D01*
X10471458Y-11984142D01*
X10469944Y-11986667D01*
X10468190Y-11989032D01*
X10466213Y-11991213D01*
X10464032Y-11993190D01*
X10461667Y-11994944D01*
X10459142Y-11996458D01*
X10456481Y-11997716D01*
X10453709Y-11998708D01*
X10450853Y-11999424D01*
X10447941Y-11999855D01*
X10445000Y-12000000D01*
X10445000Y-12000000D01*
X10442059Y-11999855D01*
X10439147Y-11999424D01*
X10436291Y-11998708D01*
X10433519Y-11997716D01*
X10430858Y-11996458D01*
X10428333Y-11994944D01*
X10425968Y-11993190D01*
X10423787Y-11991213D01*
X10421810Y-11989032D01*
X10420056Y-11986667D01*
X10418542Y-11984142D01*
X10417284Y-11981480D01*
X10416292Y-11978708D01*
X10415576Y-11975853D01*
X10415144Y-11972940D01*
X10415000Y-11970000D01*
X10415000Y-11870000D01*
X10415144Y-11867059D01*
X10415576Y-11864147D01*
X10416292Y-11861291D01*
X10417284Y-11858519D01*
X10418542Y-11855858D01*
X10420056Y-11853333D01*
X10421810Y-11850968D01*
X10423787Y-11848787D01*
X10425968Y-11846810D01*
X10428333Y-11845056D01*
X10430858Y-11843542D01*
X10433519Y-11842284D01*
X10436291Y-11841292D01*
X10439147Y-11840576D01*
X10442059Y-11840144D01*
X10445000Y-11840000D01*
X10445000Y-11840000D01*
X10447941Y-11840144D01*
X10447941Y-11840144D01*
G37*
D14*
X10445000Y-11920000D03*
D15*
X10472500Y-11920000D03*
X10472500Y-11760000D03*
D13*
G36*
X10447941Y-11680144D02*
X10450853Y-11680576D01*
X10453709Y-11681292D01*
X10456481Y-11682284D01*
X10459142Y-11683542D01*
X10461667Y-11685056D01*
X10464032Y-11686810D01*
X10466213Y-11688787D01*
X10468190Y-11690968D01*
X10469944Y-11693333D01*
X10471458Y-11695858D01*
X10472717Y-11698519D01*
X10473708Y-11701291D01*
X10474424Y-11704147D01*
X10474856Y-11707059D01*
X10475000Y-11710000D01*
X10475000Y-11810000D01*
X10474856Y-11812940D01*
X10474424Y-11815853D01*
X10473708Y-11818708D01*
X10472717Y-11821480D01*
X10471458Y-11824142D01*
X10469944Y-11826667D01*
X10468190Y-11829032D01*
X10466213Y-11831213D01*
X10464032Y-11833190D01*
X10461667Y-11834944D01*
X10459142Y-11836458D01*
X10456481Y-11837716D01*
X10453709Y-11838708D01*
X10450853Y-11839424D01*
X10447941Y-11839855D01*
X10445000Y-11840000D01*
X10445000Y-11840000D01*
X10442059Y-11839855D01*
X10439147Y-11839424D01*
X10436291Y-11838708D01*
X10433519Y-11837716D01*
X10430858Y-11836458D01*
X10428333Y-11834944D01*
X10425968Y-11833190D01*
X10423787Y-11831213D01*
X10421810Y-11829032D01*
X10420056Y-11826667D01*
X10418542Y-11824142D01*
X10417284Y-11821480D01*
X10416292Y-11818708D01*
X10415576Y-11815853D01*
X10415144Y-11812940D01*
X10415000Y-11810000D01*
X10415000Y-11710000D01*
X10415144Y-11707059D01*
X10415576Y-11704147D01*
X10416292Y-11701291D01*
X10417284Y-11698519D01*
X10418542Y-11695858D01*
X10420056Y-11693333D01*
X10421810Y-11690968D01*
X10423787Y-11688787D01*
X10425968Y-11686810D01*
X10428333Y-11685056D01*
X10430858Y-11683542D01*
X10433519Y-11682284D01*
X10436291Y-11681292D01*
X10439147Y-11680576D01*
X10442059Y-11680144D01*
X10445000Y-11680000D01*
X10445000Y-11680000D01*
X10447941Y-11680144D01*
X10447941Y-11680144D01*
G37*
D14*
X10445000Y-11760000D03*
D13*
G36*
X10447941Y-12000144D02*
X10450853Y-12000576D01*
X10453709Y-12001292D01*
X10456481Y-12002284D01*
X10459142Y-12003542D01*
X10461667Y-12005056D01*
X10464032Y-12006810D01*
X10466213Y-12008787D01*
X10468190Y-12010968D01*
X10469944Y-12013333D01*
X10471458Y-12015858D01*
X10472717Y-12018519D01*
X10473708Y-12021291D01*
X10474424Y-12024147D01*
X10474856Y-12027059D01*
X10475000Y-12030000D01*
X10475000Y-12130000D01*
X10474856Y-12132940D01*
X10474424Y-12135853D01*
X10473708Y-12138708D01*
X10472717Y-12141480D01*
X10471458Y-12144142D01*
X10469944Y-12146667D01*
X10468190Y-12149032D01*
X10466213Y-12151213D01*
X10464032Y-12153190D01*
X10461667Y-12154944D01*
X10459142Y-12156458D01*
X10456481Y-12157716D01*
X10453709Y-12158708D01*
X10450853Y-12159424D01*
X10447941Y-12159855D01*
X10445000Y-12160000D01*
X10445000Y-12160000D01*
X10442059Y-12159855D01*
X10439147Y-12159424D01*
X10436291Y-12158708D01*
X10433519Y-12157716D01*
X10430858Y-12156458D01*
X10428333Y-12154944D01*
X10425968Y-12153190D01*
X10423787Y-12151213D01*
X10421810Y-12149032D01*
X10420056Y-12146667D01*
X10418542Y-12144142D01*
X10417284Y-12141480D01*
X10416292Y-12138708D01*
X10415576Y-12135853D01*
X10415144Y-12132940D01*
X10415000Y-12130000D01*
X10415000Y-12030000D01*
X10415144Y-12027059D01*
X10415576Y-12024147D01*
X10416292Y-12021291D01*
X10417284Y-12018519D01*
X10418542Y-12015858D01*
X10420056Y-12013333D01*
X10421810Y-12010968D01*
X10423787Y-12008787D01*
X10425968Y-12006810D01*
X10428333Y-12005056D01*
X10430858Y-12003542D01*
X10433519Y-12002284D01*
X10436291Y-12001292D01*
X10439147Y-12000576D01*
X10442059Y-12000144D01*
X10445000Y-12000000D01*
X10445000Y-12000000D01*
X10447941Y-12000144D01*
X10447941Y-12000144D01*
G37*
D14*
X10445000Y-12080000D03*
D15*
X10472500Y-12080000D03*
X10472500Y-12240000D03*
D13*
G36*
X10447941Y-12160144D02*
X10450853Y-12160576D01*
X10453709Y-12161292D01*
X10456481Y-12162284D01*
X10459142Y-12163542D01*
X10461667Y-12165056D01*
X10464032Y-12166810D01*
X10466213Y-12168787D01*
X10468190Y-12170968D01*
X10469944Y-12173333D01*
X10471458Y-12175858D01*
X10472717Y-12178519D01*
X10473708Y-12181291D01*
X10474424Y-12184147D01*
X10474856Y-12187059D01*
X10475000Y-12190000D01*
X10475000Y-12290000D01*
X10474856Y-12292940D01*
X10474424Y-12295853D01*
X10473708Y-12298708D01*
X10472717Y-12301480D01*
X10471458Y-12304142D01*
X10469944Y-12306667D01*
X10468190Y-12309032D01*
X10466213Y-12311213D01*
X10464032Y-12313190D01*
X10461667Y-12314944D01*
X10459142Y-12316458D01*
X10456481Y-12317716D01*
X10453709Y-12318708D01*
X10450853Y-12319424D01*
X10447941Y-12319855D01*
X10445000Y-12320000D01*
X10445000Y-12320000D01*
X10442059Y-12319855D01*
X10439147Y-12319424D01*
X10436291Y-12318708D01*
X10433519Y-12317716D01*
X10430858Y-12316458D01*
X10428333Y-12314944D01*
X10425968Y-12313190D01*
X10423787Y-12311213D01*
X10421810Y-12309032D01*
X10420056Y-12306667D01*
X10418542Y-12304142D01*
X10417284Y-12301480D01*
X10416292Y-12298708D01*
X10415576Y-12295853D01*
X10415144Y-12292940D01*
X10415000Y-12290000D01*
X10415000Y-12190000D01*
X10415144Y-12187059D01*
X10415576Y-12184147D01*
X10416292Y-12181291D01*
X10417284Y-12178519D01*
X10418542Y-12175858D01*
X10420056Y-12173333D01*
X10421810Y-12170968D01*
X10423787Y-12168787D01*
X10425968Y-12166810D01*
X10428333Y-12165056D01*
X10430858Y-12163542D01*
X10433519Y-12162284D01*
X10436291Y-12161292D01*
X10439147Y-12160576D01*
X10442059Y-12160144D01*
X10445000Y-12160000D01*
X10445000Y-12160000D01*
X10447941Y-12160144D01*
X10447941Y-12160144D01*
G37*
D14*
X10445000Y-12240000D03*
D11*
X10250000Y-11840000D03*
X9750000Y-12160000D03*
X9750000Y-11840000D03*
D12*
X10250000Y-12160000D03*
D11*
X10250000Y-12000000D03*
X9750000Y-12000000D03*
D10*
X10000000Y-12000000D03*
X10000000Y-14100000D03*
D11*
X9750000Y-14100000D03*
X10250000Y-14100000D03*
D12*
X10250000Y-14260000D03*
D11*
X9750000Y-13940000D03*
X9750000Y-14260000D03*
X10250000Y-13940000D03*
D13*
G36*
X10447941Y-14260144D02*
X10450853Y-14260576D01*
X10453709Y-14261292D01*
X10456481Y-14262284D01*
X10459142Y-14263542D01*
X10461667Y-14265056D01*
X10464032Y-14266810D01*
X10466213Y-14268787D01*
X10468190Y-14270968D01*
X10469944Y-14273333D01*
X10471458Y-14275858D01*
X10472717Y-14278519D01*
X10473708Y-14281291D01*
X10474424Y-14284147D01*
X10474856Y-14287059D01*
X10475000Y-14290000D01*
X10475000Y-14390000D01*
X10474856Y-14392940D01*
X10474424Y-14395853D01*
X10473708Y-14398708D01*
X10472717Y-14401480D01*
X10471458Y-14404142D01*
X10469944Y-14406667D01*
X10468190Y-14409032D01*
X10466213Y-14411213D01*
X10464032Y-14413190D01*
X10461667Y-14414944D01*
X10459142Y-14416458D01*
X10456481Y-14417716D01*
X10453709Y-14418708D01*
X10450853Y-14419424D01*
X10447941Y-14419855D01*
X10445000Y-14420000D01*
X10445000Y-14420000D01*
X10442059Y-14419855D01*
X10439147Y-14419424D01*
X10436291Y-14418708D01*
X10433519Y-14417716D01*
X10430858Y-14416458D01*
X10428333Y-14414944D01*
X10425968Y-14413190D01*
X10423787Y-14411213D01*
X10421810Y-14409032D01*
X10420056Y-14406667D01*
X10418542Y-14404142D01*
X10417284Y-14401480D01*
X10416292Y-14398708D01*
X10415576Y-14395853D01*
X10415144Y-14392940D01*
X10415000Y-14390000D01*
X10415000Y-14290000D01*
X10415144Y-14287059D01*
X10415576Y-14284147D01*
X10416292Y-14281291D01*
X10417284Y-14278519D01*
X10418542Y-14275858D01*
X10420056Y-14273333D01*
X10421810Y-14270968D01*
X10423787Y-14268787D01*
X10425968Y-14266810D01*
X10428333Y-14265056D01*
X10430858Y-14263542D01*
X10433519Y-14262284D01*
X10436291Y-14261292D01*
X10439147Y-14260576D01*
X10442059Y-14260144D01*
X10445000Y-14260000D01*
X10445000Y-14260000D01*
X10447941Y-14260144D01*
X10447941Y-14260144D01*
G37*
D14*
X10445000Y-14340000D03*
D15*
X10472500Y-14340000D03*
X10472500Y-14180000D03*
D13*
G36*
X10447941Y-14100144D02*
X10450853Y-14100576D01*
X10453709Y-14101292D01*
X10456481Y-14102284D01*
X10459142Y-14103542D01*
X10461667Y-14105056D01*
X10464032Y-14106810D01*
X10466213Y-14108787D01*
X10468190Y-14110968D01*
X10469944Y-14113333D01*
X10471458Y-14115858D01*
X10472717Y-14118519D01*
X10473708Y-14121291D01*
X10474424Y-14124147D01*
X10474856Y-14127059D01*
X10475000Y-14130000D01*
X10475000Y-14230000D01*
X10474856Y-14232940D01*
X10474424Y-14235853D01*
X10473708Y-14238708D01*
X10472717Y-14241480D01*
X10471458Y-14244142D01*
X10469944Y-14246667D01*
X10468190Y-14249032D01*
X10466213Y-14251213D01*
X10464032Y-14253190D01*
X10461667Y-14254944D01*
X10459142Y-14256458D01*
X10456481Y-14257716D01*
X10453709Y-14258708D01*
X10450853Y-14259424D01*
X10447941Y-14259855D01*
X10445000Y-14260000D01*
X10445000Y-14260000D01*
X10442059Y-14259855D01*
X10439147Y-14259424D01*
X10436291Y-14258708D01*
X10433519Y-14257716D01*
X10430858Y-14256458D01*
X10428333Y-14254944D01*
X10425968Y-14253190D01*
X10423787Y-14251213D01*
X10421810Y-14249032D01*
X10420056Y-14246667D01*
X10418542Y-14244142D01*
X10417284Y-14241480D01*
X10416292Y-14238708D01*
X10415576Y-14235853D01*
X10415144Y-14232940D01*
X10415000Y-14230000D01*
X10415000Y-14130000D01*
X10415144Y-14127059D01*
X10415576Y-14124147D01*
X10416292Y-14121291D01*
X10417284Y-14118519D01*
X10418542Y-14115858D01*
X10420056Y-14113333D01*
X10421810Y-14110968D01*
X10423787Y-14108787D01*
X10425968Y-14106810D01*
X10428333Y-14105056D01*
X10430858Y-14103542D01*
X10433519Y-14102284D01*
X10436291Y-14101292D01*
X10439147Y-14100576D01*
X10442059Y-14100144D01*
X10445000Y-14100000D01*
X10445000Y-14100000D01*
X10447941Y-14100144D01*
X10447941Y-14100144D01*
G37*
D14*
X10445000Y-14180000D03*
D13*
G36*
X10447941Y-13780144D02*
X10450853Y-13780576D01*
X10453709Y-13781292D01*
X10456481Y-13782284D01*
X10459142Y-13783542D01*
X10461667Y-13785056D01*
X10464032Y-13786810D01*
X10466213Y-13788787D01*
X10468190Y-13790968D01*
X10469944Y-13793333D01*
X10471458Y-13795858D01*
X10472717Y-13798519D01*
X10473708Y-13801291D01*
X10474424Y-13804147D01*
X10474856Y-13807059D01*
X10475000Y-13810000D01*
X10475000Y-13910000D01*
X10474856Y-13912940D01*
X10474424Y-13915853D01*
X10473708Y-13918708D01*
X10472717Y-13921480D01*
X10471458Y-13924142D01*
X10469944Y-13926667D01*
X10468190Y-13929032D01*
X10466213Y-13931213D01*
X10464032Y-13933190D01*
X10461667Y-13934944D01*
X10459142Y-13936458D01*
X10456481Y-13937716D01*
X10453709Y-13938708D01*
X10450853Y-13939424D01*
X10447941Y-13939855D01*
X10445000Y-13940000D01*
X10445000Y-13940000D01*
X10442059Y-13939855D01*
X10439147Y-13939424D01*
X10436291Y-13938708D01*
X10433519Y-13937716D01*
X10430858Y-13936458D01*
X10428333Y-13934944D01*
X10425968Y-13933190D01*
X10423787Y-13931213D01*
X10421810Y-13929032D01*
X10420056Y-13926667D01*
X10418542Y-13924142D01*
X10417284Y-13921480D01*
X10416292Y-13918708D01*
X10415576Y-13915853D01*
X10415144Y-13912940D01*
X10415000Y-13910000D01*
X10415000Y-13810000D01*
X10415144Y-13807059D01*
X10415576Y-13804147D01*
X10416292Y-13801291D01*
X10417284Y-13798519D01*
X10418542Y-13795858D01*
X10420056Y-13793333D01*
X10421810Y-13790968D01*
X10423787Y-13788787D01*
X10425968Y-13786810D01*
X10428333Y-13785056D01*
X10430858Y-13783542D01*
X10433519Y-13782284D01*
X10436291Y-13781292D01*
X10439147Y-13780576D01*
X10442059Y-13780144D01*
X10445000Y-13780000D01*
X10445000Y-13780000D01*
X10447941Y-13780144D01*
X10447941Y-13780144D01*
G37*
D14*
X10445000Y-13860000D03*
D15*
X10472500Y-13860000D03*
X10472500Y-14020000D03*
D13*
G36*
X10447941Y-13940144D02*
X10450853Y-13940576D01*
X10453709Y-13941292D01*
X10456481Y-13942284D01*
X10459142Y-13943542D01*
X10461667Y-13945056D01*
X10464032Y-13946810D01*
X10466213Y-13948787D01*
X10468190Y-13950968D01*
X10469944Y-13953333D01*
X10471458Y-13955858D01*
X10472717Y-13958519D01*
X10473708Y-13961291D01*
X10474424Y-13964147D01*
X10474856Y-13967059D01*
X10475000Y-13970000D01*
X10475000Y-14070000D01*
X10474856Y-14072940D01*
X10474424Y-14075853D01*
X10473708Y-14078708D01*
X10472717Y-14081480D01*
X10471458Y-14084142D01*
X10469944Y-14086667D01*
X10468190Y-14089032D01*
X10466213Y-14091213D01*
X10464032Y-14093190D01*
X10461667Y-14094944D01*
X10459142Y-14096458D01*
X10456481Y-14097716D01*
X10453709Y-14098708D01*
X10450853Y-14099424D01*
X10447941Y-14099855D01*
X10445000Y-14100000D01*
X10445000Y-14100000D01*
X10442059Y-14099855D01*
X10439147Y-14099424D01*
X10436291Y-14098708D01*
X10433519Y-14097716D01*
X10430858Y-14096458D01*
X10428333Y-14094944D01*
X10425968Y-14093190D01*
X10423787Y-14091213D01*
X10421810Y-14089032D01*
X10420056Y-14086667D01*
X10418542Y-14084142D01*
X10417284Y-14081480D01*
X10416292Y-14078708D01*
X10415576Y-14075853D01*
X10415144Y-14072940D01*
X10415000Y-14070000D01*
X10415000Y-13970000D01*
X10415144Y-13967059D01*
X10415576Y-13964147D01*
X10416292Y-13961291D01*
X10417284Y-13958519D01*
X10418542Y-13955858D01*
X10420056Y-13953333D01*
X10421810Y-13950968D01*
X10423787Y-13948787D01*
X10425968Y-13946810D01*
X10428333Y-13945056D01*
X10430858Y-13943542D01*
X10433519Y-13942284D01*
X10436291Y-13941292D01*
X10439147Y-13940576D01*
X10442059Y-13940144D01*
X10445000Y-13940000D01*
X10445000Y-13940000D01*
X10447941Y-13940144D01*
X10447941Y-13940144D01*
G37*
D14*
X10445000Y-14020000D03*
D13*
G36*
X9557941Y-14260144D02*
X9560853Y-14260576D01*
X9563709Y-14261292D01*
X9566481Y-14262284D01*
X9569142Y-14263542D01*
X9571667Y-14265056D01*
X9574032Y-14266810D01*
X9576213Y-14268787D01*
X9578190Y-14270968D01*
X9579944Y-14273333D01*
X9581458Y-14275858D01*
X9582717Y-14278519D01*
X9583708Y-14281291D01*
X9584424Y-14284147D01*
X9584856Y-14287059D01*
X9585000Y-14290000D01*
X9585000Y-14390000D01*
X9584856Y-14392940D01*
X9584424Y-14395853D01*
X9583708Y-14398708D01*
X9582717Y-14401480D01*
X9581458Y-14404142D01*
X9579944Y-14406667D01*
X9578190Y-14409032D01*
X9576213Y-14411213D01*
X9574032Y-14413190D01*
X9571667Y-14414944D01*
X9569142Y-14416458D01*
X9566481Y-14417716D01*
X9563709Y-14418708D01*
X9560853Y-14419424D01*
X9557941Y-14419855D01*
X9555000Y-14420000D01*
X9555000Y-14420000D01*
X9552059Y-14419855D01*
X9549147Y-14419424D01*
X9546291Y-14418708D01*
X9543519Y-14417716D01*
X9540858Y-14416458D01*
X9538333Y-14414944D01*
X9535968Y-14413190D01*
X9533787Y-14411213D01*
X9531810Y-14409032D01*
X9530056Y-14406667D01*
X9528542Y-14404142D01*
X9527284Y-14401480D01*
X9526292Y-14398708D01*
X9525576Y-14395853D01*
X9525144Y-14392940D01*
X9525000Y-14390000D01*
X9525000Y-14290000D01*
X9525144Y-14287059D01*
X9525576Y-14284147D01*
X9526292Y-14281291D01*
X9527284Y-14278519D01*
X9528542Y-14275858D01*
X9530056Y-14273333D01*
X9531810Y-14270968D01*
X9533787Y-14268787D01*
X9535968Y-14266810D01*
X9538333Y-14265056D01*
X9540858Y-14263542D01*
X9543519Y-14262284D01*
X9546291Y-14261292D01*
X9549147Y-14260576D01*
X9552059Y-14260144D01*
X9555000Y-14260000D01*
X9555000Y-14260000D01*
X9557941Y-14260144D01*
X9557941Y-14260144D01*
G37*
D14*
X9555000Y-14340000D03*
D15*
X9527500Y-14340000D03*
X9527500Y-14180000D03*
D13*
G36*
X9557941Y-14100144D02*
X9560853Y-14100576D01*
X9563709Y-14101292D01*
X9566481Y-14102284D01*
X9569142Y-14103542D01*
X9571667Y-14105056D01*
X9574032Y-14106810D01*
X9576213Y-14108787D01*
X9578190Y-14110968D01*
X9579944Y-14113333D01*
X9581458Y-14115858D01*
X9582717Y-14118519D01*
X9583708Y-14121291D01*
X9584424Y-14124147D01*
X9584856Y-14127059D01*
X9585000Y-14130000D01*
X9585000Y-14230000D01*
X9584856Y-14232940D01*
X9584424Y-14235853D01*
X9583708Y-14238708D01*
X9582717Y-14241480D01*
X9581458Y-14244142D01*
X9579944Y-14246667D01*
X9578190Y-14249032D01*
X9576213Y-14251213D01*
X9574032Y-14253190D01*
X9571667Y-14254944D01*
X9569142Y-14256458D01*
X9566481Y-14257716D01*
X9563709Y-14258708D01*
X9560853Y-14259424D01*
X9557941Y-14259855D01*
X9555000Y-14260000D01*
X9555000Y-14260000D01*
X9552059Y-14259855D01*
X9549147Y-14259424D01*
X9546291Y-14258708D01*
X9543519Y-14257716D01*
X9540858Y-14256458D01*
X9538333Y-14254944D01*
X9535968Y-14253190D01*
X9533787Y-14251213D01*
X9531810Y-14249032D01*
X9530056Y-14246667D01*
X9528542Y-14244142D01*
X9527284Y-14241480D01*
X9526292Y-14238708D01*
X9525576Y-14235853D01*
X9525144Y-14232940D01*
X9525000Y-14230000D01*
X9525000Y-14130000D01*
X9525144Y-14127059D01*
X9525576Y-14124147D01*
X9526292Y-14121291D01*
X9527284Y-14118519D01*
X9528542Y-14115858D01*
X9530056Y-14113333D01*
X9531810Y-14110968D01*
X9533787Y-14108787D01*
X9535968Y-14106810D01*
X9538333Y-14105056D01*
X9540858Y-14103542D01*
X9543519Y-14102284D01*
X9546291Y-14101292D01*
X9549147Y-14100576D01*
X9552059Y-14100144D01*
X9555000Y-14100000D01*
X9555000Y-14100000D01*
X9557941Y-14100144D01*
X9557941Y-14100144D01*
G37*
D14*
X9555000Y-14180000D03*
D13*
G36*
X9557941Y-13780144D02*
X9560853Y-13780576D01*
X9563709Y-13781292D01*
X9566481Y-13782284D01*
X9569142Y-13783542D01*
X9571667Y-13785056D01*
X9574032Y-13786810D01*
X9576213Y-13788787D01*
X9578190Y-13790968D01*
X9579944Y-13793333D01*
X9581458Y-13795858D01*
X9582717Y-13798519D01*
X9583708Y-13801291D01*
X9584424Y-13804147D01*
X9584856Y-13807059D01*
X9585000Y-13810000D01*
X9585000Y-13910000D01*
X9584856Y-13912940D01*
X9584424Y-13915853D01*
X9583708Y-13918708D01*
X9582717Y-13921480D01*
X9581458Y-13924142D01*
X9579944Y-13926667D01*
X9578190Y-13929032D01*
X9576213Y-13931213D01*
X9574032Y-13933190D01*
X9571667Y-13934944D01*
X9569142Y-13936458D01*
X9566481Y-13937716D01*
X9563709Y-13938708D01*
X9560853Y-13939424D01*
X9557941Y-13939855D01*
X9555000Y-13940000D01*
X9555000Y-13940000D01*
X9552059Y-13939855D01*
X9549147Y-13939424D01*
X9546291Y-13938708D01*
X9543519Y-13937716D01*
X9540858Y-13936458D01*
X9538333Y-13934944D01*
X9535968Y-13933190D01*
X9533787Y-13931213D01*
X9531810Y-13929032D01*
X9530056Y-13926667D01*
X9528542Y-13924142D01*
X9527284Y-13921480D01*
X9526292Y-13918708D01*
X9525576Y-13915853D01*
X9525144Y-13912940D01*
X9525000Y-13910000D01*
X9525000Y-13810000D01*
X9525144Y-13807059D01*
X9525576Y-13804147D01*
X9526292Y-13801291D01*
X9527284Y-13798519D01*
X9528542Y-13795858D01*
X9530056Y-13793333D01*
X9531810Y-13790968D01*
X9533787Y-13788787D01*
X9535968Y-13786810D01*
X9538333Y-13785056D01*
X9540858Y-13783542D01*
X9543519Y-13782284D01*
X9546291Y-13781292D01*
X9549147Y-13780576D01*
X9552059Y-13780144D01*
X9555000Y-13780000D01*
X9555000Y-13780000D01*
X9557941Y-13780144D01*
X9557941Y-13780144D01*
G37*
D14*
X9555000Y-13860000D03*
D15*
X9527500Y-13860000D03*
X9527500Y-14020000D03*
D13*
G36*
X9557941Y-13940144D02*
X9560853Y-13940576D01*
X9563709Y-13941292D01*
X9566481Y-13942284D01*
X9569142Y-13943542D01*
X9571667Y-13945056D01*
X9574032Y-13946810D01*
X9576213Y-13948787D01*
X9578190Y-13950968D01*
X9579944Y-13953333D01*
X9581458Y-13955858D01*
X9582717Y-13958519D01*
X9583708Y-13961291D01*
X9584424Y-13964147D01*
X9584856Y-13967059D01*
X9585000Y-13970000D01*
X9585000Y-14070000D01*
X9584856Y-14072940D01*
X9584424Y-14075853D01*
X9583708Y-14078708D01*
X9582717Y-14081480D01*
X9581458Y-14084142D01*
X9579944Y-14086667D01*
X9578190Y-14089032D01*
X9576213Y-14091213D01*
X9574032Y-14093190D01*
X9571667Y-14094944D01*
X9569142Y-14096458D01*
X9566481Y-14097716D01*
X9563709Y-14098708D01*
X9560853Y-14099424D01*
X9557941Y-14099855D01*
X9555000Y-14100000D01*
X9555000Y-14100000D01*
X9552059Y-14099855D01*
X9549147Y-14099424D01*
X9546291Y-14098708D01*
X9543519Y-14097716D01*
X9540858Y-14096458D01*
X9538333Y-14094944D01*
X9535968Y-14093190D01*
X9533787Y-14091213D01*
X9531810Y-14089032D01*
X9530056Y-14086667D01*
X9528542Y-14084142D01*
X9527284Y-14081480D01*
X9526292Y-14078708D01*
X9525576Y-14075853D01*
X9525144Y-14072940D01*
X9525000Y-14070000D01*
X9525000Y-13970000D01*
X9525144Y-13967059D01*
X9525576Y-13964147D01*
X9526292Y-13961291D01*
X9527284Y-13958519D01*
X9528542Y-13955858D01*
X9530056Y-13953333D01*
X9531810Y-13950968D01*
X9533787Y-13948787D01*
X9535968Y-13946810D01*
X9538333Y-13945056D01*
X9540858Y-13943542D01*
X9543519Y-13942284D01*
X9546291Y-13941292D01*
X9549147Y-13940576D01*
X9552059Y-13940144D01*
X9555000Y-13940000D01*
X9555000Y-13940000D01*
X9557941Y-13940144D01*
X9557941Y-13940144D01*
G37*
D14*
X9555000Y-14020000D03*
D13*
G36*
X9557941Y-13240144D02*
X9560853Y-13240576D01*
X9563709Y-13241292D01*
X9566481Y-13242284D01*
X9569142Y-13243542D01*
X9571667Y-13245056D01*
X9574032Y-13246810D01*
X9576213Y-13248787D01*
X9578190Y-13250968D01*
X9579944Y-13253333D01*
X9581458Y-13255858D01*
X9582717Y-13258519D01*
X9583708Y-13261291D01*
X9584424Y-13264147D01*
X9584856Y-13267059D01*
X9585000Y-13270000D01*
X9585000Y-13370000D01*
X9584856Y-13372940D01*
X9584424Y-13375853D01*
X9583708Y-13378708D01*
X9582717Y-13381480D01*
X9581458Y-13384142D01*
X9579944Y-13386667D01*
X9578190Y-13389032D01*
X9576213Y-13391213D01*
X9574032Y-13393190D01*
X9571667Y-13394944D01*
X9569142Y-13396458D01*
X9566481Y-13397716D01*
X9563709Y-13398708D01*
X9560853Y-13399424D01*
X9557941Y-13399855D01*
X9555000Y-13400000D01*
X9555000Y-13400000D01*
X9552059Y-13399855D01*
X9549147Y-13399424D01*
X9546291Y-13398708D01*
X9543519Y-13397716D01*
X9540858Y-13396458D01*
X9538333Y-13394944D01*
X9535968Y-13393190D01*
X9533787Y-13391213D01*
X9531810Y-13389032D01*
X9530056Y-13386667D01*
X9528542Y-13384142D01*
X9527284Y-13381480D01*
X9526292Y-13378708D01*
X9525576Y-13375853D01*
X9525144Y-13372940D01*
X9525000Y-13370000D01*
X9525000Y-13270000D01*
X9525144Y-13267059D01*
X9525576Y-13264147D01*
X9526292Y-13261291D01*
X9527284Y-13258519D01*
X9528542Y-13255858D01*
X9530056Y-13253333D01*
X9531810Y-13250968D01*
X9533787Y-13248787D01*
X9535968Y-13246810D01*
X9538333Y-13245056D01*
X9540858Y-13243542D01*
X9543519Y-13242284D01*
X9546291Y-13241292D01*
X9549147Y-13240576D01*
X9552059Y-13240144D01*
X9555000Y-13240000D01*
X9555000Y-13240000D01*
X9557941Y-13240144D01*
X9557941Y-13240144D01*
G37*
D14*
X9555000Y-13320000D03*
D15*
X9527500Y-13320000D03*
X9527500Y-13160000D03*
D13*
G36*
X9557941Y-13080144D02*
X9560853Y-13080576D01*
X9563709Y-13081292D01*
X9566481Y-13082284D01*
X9569142Y-13083542D01*
X9571667Y-13085056D01*
X9574032Y-13086810D01*
X9576213Y-13088787D01*
X9578190Y-13090968D01*
X9579944Y-13093333D01*
X9581458Y-13095858D01*
X9582717Y-13098519D01*
X9583708Y-13101291D01*
X9584424Y-13104147D01*
X9584856Y-13107059D01*
X9585000Y-13110000D01*
X9585000Y-13210000D01*
X9584856Y-13212940D01*
X9584424Y-13215853D01*
X9583708Y-13218708D01*
X9582717Y-13221480D01*
X9581458Y-13224142D01*
X9579944Y-13226667D01*
X9578190Y-13229032D01*
X9576213Y-13231213D01*
X9574032Y-13233190D01*
X9571667Y-13234944D01*
X9569142Y-13236458D01*
X9566481Y-13237716D01*
X9563709Y-13238708D01*
X9560853Y-13239424D01*
X9557941Y-13239855D01*
X9555000Y-13240000D01*
X9555000Y-13240000D01*
X9552059Y-13239855D01*
X9549147Y-13239424D01*
X9546291Y-13238708D01*
X9543519Y-13237716D01*
X9540858Y-13236458D01*
X9538333Y-13234944D01*
X9535968Y-13233190D01*
X9533787Y-13231213D01*
X9531810Y-13229032D01*
X9530056Y-13226667D01*
X9528542Y-13224142D01*
X9527284Y-13221480D01*
X9526292Y-13218708D01*
X9525576Y-13215853D01*
X9525144Y-13212940D01*
X9525000Y-13210000D01*
X9525000Y-13110000D01*
X9525144Y-13107059D01*
X9525576Y-13104147D01*
X9526292Y-13101291D01*
X9527284Y-13098519D01*
X9528542Y-13095858D01*
X9530056Y-13093333D01*
X9531810Y-13090968D01*
X9533787Y-13088787D01*
X9535968Y-13086810D01*
X9538333Y-13085056D01*
X9540858Y-13083542D01*
X9543519Y-13082284D01*
X9546291Y-13081292D01*
X9549147Y-13080576D01*
X9552059Y-13080144D01*
X9555000Y-13080000D01*
X9555000Y-13080000D01*
X9557941Y-13080144D01*
X9557941Y-13080144D01*
G37*
D14*
X9555000Y-13160000D03*
D13*
G36*
X9557941Y-13400144D02*
X9560853Y-13400576D01*
X9563709Y-13401292D01*
X9566481Y-13402284D01*
X9569142Y-13403542D01*
X9571667Y-13405056D01*
X9574032Y-13406810D01*
X9576213Y-13408787D01*
X9578190Y-13410968D01*
X9579944Y-13413333D01*
X9581458Y-13415858D01*
X9582717Y-13418519D01*
X9583708Y-13421291D01*
X9584424Y-13424147D01*
X9584856Y-13427059D01*
X9585000Y-13430000D01*
X9585000Y-13530000D01*
X9584856Y-13532940D01*
X9584424Y-13535853D01*
X9583708Y-13538708D01*
X9582717Y-13541480D01*
X9581458Y-13544142D01*
X9579944Y-13546667D01*
X9578190Y-13549032D01*
X9576213Y-13551213D01*
X9574032Y-13553190D01*
X9571667Y-13554944D01*
X9569142Y-13556458D01*
X9566481Y-13557716D01*
X9563709Y-13558708D01*
X9560853Y-13559424D01*
X9557941Y-13559855D01*
X9555000Y-13560000D01*
X9555000Y-13560000D01*
X9552059Y-13559855D01*
X9549147Y-13559424D01*
X9546291Y-13558708D01*
X9543519Y-13557716D01*
X9540858Y-13556458D01*
X9538333Y-13554944D01*
X9535968Y-13553190D01*
X9533787Y-13551213D01*
X9531810Y-13549032D01*
X9530056Y-13546667D01*
X9528542Y-13544142D01*
X9527284Y-13541480D01*
X9526292Y-13538708D01*
X9525576Y-13535853D01*
X9525144Y-13532940D01*
X9525000Y-13530000D01*
X9525000Y-13430000D01*
X9525144Y-13427059D01*
X9525576Y-13424147D01*
X9526292Y-13421291D01*
X9527284Y-13418519D01*
X9528542Y-13415858D01*
X9530056Y-13413333D01*
X9531810Y-13410968D01*
X9533787Y-13408787D01*
X9535968Y-13406810D01*
X9538333Y-13405056D01*
X9540858Y-13403542D01*
X9543519Y-13402284D01*
X9546291Y-13401292D01*
X9549147Y-13400576D01*
X9552059Y-13400144D01*
X9555000Y-13400000D01*
X9555000Y-13400000D01*
X9557941Y-13400144D01*
X9557941Y-13400144D01*
G37*
D14*
X9555000Y-13480000D03*
D15*
X9527500Y-13480000D03*
X9527500Y-13640000D03*
D13*
G36*
X9557941Y-13560144D02*
X9560853Y-13560576D01*
X9563709Y-13561292D01*
X9566481Y-13562284D01*
X9569142Y-13563542D01*
X9571667Y-13565056D01*
X9574032Y-13566810D01*
X9576213Y-13568787D01*
X9578190Y-13570968D01*
X9579944Y-13573333D01*
X9581458Y-13575858D01*
X9582717Y-13578519D01*
X9583708Y-13581291D01*
X9584424Y-13584147D01*
X9584856Y-13587059D01*
X9585000Y-13590000D01*
X9585000Y-13690000D01*
X9584856Y-13692940D01*
X9584424Y-13695853D01*
X9583708Y-13698708D01*
X9582717Y-13701480D01*
X9581458Y-13704142D01*
X9579944Y-13706667D01*
X9578190Y-13709032D01*
X9576213Y-13711213D01*
X9574032Y-13713190D01*
X9571667Y-13714944D01*
X9569142Y-13716458D01*
X9566481Y-13717716D01*
X9563709Y-13718708D01*
X9560853Y-13719424D01*
X9557941Y-13719855D01*
X9555000Y-13720000D01*
X9555000Y-13720000D01*
X9552059Y-13719855D01*
X9549147Y-13719424D01*
X9546291Y-13718708D01*
X9543519Y-13717716D01*
X9540858Y-13716458D01*
X9538333Y-13714944D01*
X9535968Y-13713190D01*
X9533787Y-13711213D01*
X9531810Y-13709032D01*
X9530056Y-13706667D01*
X9528542Y-13704142D01*
X9527284Y-13701480D01*
X9526292Y-13698708D01*
X9525576Y-13695853D01*
X9525144Y-13692940D01*
X9525000Y-13690000D01*
X9525000Y-13590000D01*
X9525144Y-13587059D01*
X9525576Y-13584147D01*
X9526292Y-13581291D01*
X9527284Y-13578519D01*
X9528542Y-13575858D01*
X9530056Y-13573333D01*
X9531810Y-13570968D01*
X9533787Y-13568787D01*
X9535968Y-13566810D01*
X9538333Y-13565056D01*
X9540858Y-13563542D01*
X9543519Y-13562284D01*
X9546291Y-13561292D01*
X9549147Y-13560576D01*
X9552059Y-13560144D01*
X9555000Y-13560000D01*
X9555000Y-13560000D01*
X9557941Y-13560144D01*
X9557941Y-13560144D01*
G37*
D14*
X9555000Y-13640000D03*
D13*
G36*
X10447941Y-13240144D02*
X10450853Y-13240576D01*
X10453709Y-13241292D01*
X10456481Y-13242284D01*
X10459142Y-13243542D01*
X10461667Y-13245056D01*
X10464032Y-13246810D01*
X10466213Y-13248787D01*
X10468190Y-13250968D01*
X10469944Y-13253333D01*
X10471458Y-13255858D01*
X10472717Y-13258519D01*
X10473708Y-13261291D01*
X10474424Y-13264147D01*
X10474856Y-13267059D01*
X10475000Y-13270000D01*
X10475000Y-13370000D01*
X10474856Y-13372940D01*
X10474424Y-13375853D01*
X10473708Y-13378708D01*
X10472717Y-13381480D01*
X10471458Y-13384142D01*
X10469944Y-13386667D01*
X10468190Y-13389032D01*
X10466213Y-13391213D01*
X10464032Y-13393190D01*
X10461667Y-13394944D01*
X10459142Y-13396458D01*
X10456481Y-13397716D01*
X10453709Y-13398708D01*
X10450853Y-13399424D01*
X10447941Y-13399855D01*
X10445000Y-13400000D01*
X10445000Y-13400000D01*
X10442059Y-13399855D01*
X10439147Y-13399424D01*
X10436291Y-13398708D01*
X10433519Y-13397716D01*
X10430858Y-13396458D01*
X10428333Y-13394944D01*
X10425968Y-13393190D01*
X10423787Y-13391213D01*
X10421810Y-13389032D01*
X10420056Y-13386667D01*
X10418542Y-13384142D01*
X10417284Y-13381480D01*
X10416292Y-13378708D01*
X10415576Y-13375853D01*
X10415144Y-13372940D01*
X10415000Y-13370000D01*
X10415000Y-13270000D01*
X10415144Y-13267059D01*
X10415576Y-13264147D01*
X10416292Y-13261291D01*
X10417284Y-13258519D01*
X10418542Y-13255858D01*
X10420056Y-13253333D01*
X10421810Y-13250968D01*
X10423787Y-13248787D01*
X10425968Y-13246810D01*
X10428333Y-13245056D01*
X10430858Y-13243542D01*
X10433519Y-13242284D01*
X10436291Y-13241292D01*
X10439147Y-13240576D01*
X10442059Y-13240144D01*
X10445000Y-13240000D01*
X10445000Y-13240000D01*
X10447941Y-13240144D01*
X10447941Y-13240144D01*
G37*
D14*
X10445000Y-13320000D03*
D15*
X10472500Y-13320000D03*
X10472500Y-13160000D03*
D13*
G36*
X10447941Y-13080144D02*
X10450853Y-13080576D01*
X10453709Y-13081292D01*
X10456481Y-13082284D01*
X10459142Y-13083542D01*
X10461667Y-13085056D01*
X10464032Y-13086810D01*
X10466213Y-13088787D01*
X10468190Y-13090968D01*
X10469944Y-13093333D01*
X10471458Y-13095858D01*
X10472717Y-13098519D01*
X10473708Y-13101291D01*
X10474424Y-13104147D01*
X10474856Y-13107059D01*
X10475000Y-13110000D01*
X10475000Y-13210000D01*
X10474856Y-13212940D01*
X10474424Y-13215853D01*
X10473708Y-13218708D01*
X10472717Y-13221480D01*
X10471458Y-13224142D01*
X10469944Y-13226667D01*
X10468190Y-13229032D01*
X10466213Y-13231213D01*
X10464032Y-13233190D01*
X10461667Y-13234944D01*
X10459142Y-13236458D01*
X10456481Y-13237716D01*
X10453709Y-13238708D01*
X10450853Y-13239424D01*
X10447941Y-13239855D01*
X10445000Y-13240000D01*
X10445000Y-13240000D01*
X10442059Y-13239855D01*
X10439147Y-13239424D01*
X10436291Y-13238708D01*
X10433519Y-13237716D01*
X10430858Y-13236458D01*
X10428333Y-13234944D01*
X10425968Y-13233190D01*
X10423787Y-13231213D01*
X10421810Y-13229032D01*
X10420056Y-13226667D01*
X10418542Y-13224142D01*
X10417284Y-13221480D01*
X10416292Y-13218708D01*
X10415576Y-13215853D01*
X10415144Y-13212940D01*
X10415000Y-13210000D01*
X10415000Y-13110000D01*
X10415144Y-13107059D01*
X10415576Y-13104147D01*
X10416292Y-13101291D01*
X10417284Y-13098519D01*
X10418542Y-13095858D01*
X10420056Y-13093333D01*
X10421810Y-13090968D01*
X10423787Y-13088787D01*
X10425968Y-13086810D01*
X10428333Y-13085056D01*
X10430858Y-13083542D01*
X10433519Y-13082284D01*
X10436291Y-13081292D01*
X10439147Y-13080576D01*
X10442059Y-13080144D01*
X10445000Y-13080000D01*
X10445000Y-13080000D01*
X10447941Y-13080144D01*
X10447941Y-13080144D01*
G37*
D14*
X10445000Y-13160000D03*
D13*
G36*
X10447941Y-13400144D02*
X10450853Y-13400576D01*
X10453709Y-13401292D01*
X10456481Y-13402284D01*
X10459142Y-13403542D01*
X10461667Y-13405056D01*
X10464032Y-13406810D01*
X10466213Y-13408787D01*
X10468190Y-13410968D01*
X10469944Y-13413333D01*
X10471458Y-13415858D01*
X10472717Y-13418519D01*
X10473708Y-13421291D01*
X10474424Y-13424147D01*
X10474856Y-13427059D01*
X10475000Y-13430000D01*
X10475000Y-13530000D01*
X10474856Y-13532940D01*
X10474424Y-13535853D01*
X10473708Y-13538708D01*
X10472717Y-13541480D01*
X10471458Y-13544142D01*
X10469944Y-13546667D01*
X10468190Y-13549032D01*
X10466213Y-13551213D01*
X10464032Y-13553190D01*
X10461667Y-13554944D01*
X10459142Y-13556458D01*
X10456481Y-13557716D01*
X10453709Y-13558708D01*
X10450853Y-13559424D01*
X10447941Y-13559855D01*
X10445000Y-13560000D01*
X10445000Y-13560000D01*
X10442059Y-13559855D01*
X10439147Y-13559424D01*
X10436291Y-13558708D01*
X10433519Y-13557716D01*
X10430858Y-13556458D01*
X10428333Y-13554944D01*
X10425968Y-13553190D01*
X10423787Y-13551213D01*
X10421810Y-13549032D01*
X10420056Y-13546667D01*
X10418542Y-13544142D01*
X10417284Y-13541480D01*
X10416292Y-13538708D01*
X10415576Y-13535853D01*
X10415144Y-13532940D01*
X10415000Y-13530000D01*
X10415000Y-13430000D01*
X10415144Y-13427059D01*
X10415576Y-13424147D01*
X10416292Y-13421291D01*
X10417284Y-13418519D01*
X10418542Y-13415858D01*
X10420056Y-13413333D01*
X10421810Y-13410968D01*
X10423787Y-13408787D01*
X10425968Y-13406810D01*
X10428333Y-13405056D01*
X10430858Y-13403542D01*
X10433519Y-13402284D01*
X10436291Y-13401292D01*
X10439147Y-13400576D01*
X10442059Y-13400144D01*
X10445000Y-13400000D01*
X10445000Y-13400000D01*
X10447941Y-13400144D01*
X10447941Y-13400144D01*
G37*
D14*
X10445000Y-13480000D03*
D15*
X10472500Y-13480000D03*
X10472500Y-13640000D03*
D13*
G36*
X10447941Y-13560144D02*
X10450853Y-13560576D01*
X10453709Y-13561292D01*
X10456481Y-13562284D01*
X10459142Y-13563542D01*
X10461667Y-13565056D01*
X10464032Y-13566810D01*
X10466213Y-13568787D01*
X10468190Y-13570968D01*
X10469944Y-13573333D01*
X10471458Y-13575858D01*
X10472717Y-13578519D01*
X10473708Y-13581291D01*
X10474424Y-13584147D01*
X10474856Y-13587059D01*
X10475000Y-13590000D01*
X10475000Y-13690000D01*
X10474856Y-13692940D01*
X10474424Y-13695853D01*
X10473708Y-13698708D01*
X10472717Y-13701480D01*
X10471458Y-13704142D01*
X10469944Y-13706667D01*
X10468190Y-13709032D01*
X10466213Y-13711213D01*
X10464032Y-13713190D01*
X10461667Y-13714944D01*
X10459142Y-13716458D01*
X10456481Y-13717716D01*
X10453709Y-13718708D01*
X10450853Y-13719424D01*
X10447941Y-13719855D01*
X10445000Y-13720000D01*
X10445000Y-13720000D01*
X10442059Y-13719855D01*
X10439147Y-13719424D01*
X10436291Y-13718708D01*
X10433519Y-13717716D01*
X10430858Y-13716458D01*
X10428333Y-13714944D01*
X10425968Y-13713190D01*
X10423787Y-13711213D01*
X10421810Y-13709032D01*
X10420056Y-13706667D01*
X10418542Y-13704142D01*
X10417284Y-13701480D01*
X10416292Y-13698708D01*
X10415576Y-13695853D01*
X10415144Y-13692940D01*
X10415000Y-13690000D01*
X10415000Y-13590000D01*
X10415144Y-13587059D01*
X10415576Y-13584147D01*
X10416292Y-13581291D01*
X10417284Y-13578519D01*
X10418542Y-13575858D01*
X10420056Y-13573333D01*
X10421810Y-13570968D01*
X10423787Y-13568787D01*
X10425968Y-13566810D01*
X10428333Y-13565056D01*
X10430858Y-13563542D01*
X10433519Y-13562284D01*
X10436291Y-13561292D01*
X10439147Y-13560576D01*
X10442059Y-13560144D01*
X10445000Y-13560000D01*
X10445000Y-13560000D01*
X10447941Y-13560144D01*
X10447941Y-13560144D01*
G37*
D14*
X10445000Y-13640000D03*
D11*
X10250000Y-13240000D03*
X9750000Y-13560000D03*
X9750000Y-13240000D03*
D12*
X10250000Y-13560000D03*
D11*
X10250000Y-13400000D03*
X9750000Y-13400000D03*
D10*
X10000000Y-13400000D03*
X10000000Y-7800000D03*
D11*
X9750000Y-7800000D03*
X10250000Y-7800000D03*
D12*
X10250000Y-7960000D03*
D11*
X9750000Y-7640000D03*
X9750000Y-7960000D03*
X10250000Y-7640000D03*
D13*
G36*
X10447941Y-7960144D02*
X10450853Y-7960576D01*
X10453709Y-7961292D01*
X10456481Y-7962284D01*
X10459142Y-7963542D01*
X10461667Y-7965056D01*
X10464032Y-7966810D01*
X10466213Y-7968787D01*
X10468190Y-7970968D01*
X10469944Y-7973333D01*
X10471458Y-7975858D01*
X10472717Y-7978519D01*
X10473708Y-7981291D01*
X10474424Y-7984147D01*
X10474856Y-7987059D01*
X10475000Y-7990000D01*
X10475000Y-8090000D01*
X10474856Y-8092940D01*
X10474424Y-8095853D01*
X10473708Y-8098708D01*
X10472717Y-8101480D01*
X10471458Y-8104142D01*
X10469944Y-8106667D01*
X10468190Y-8109032D01*
X10466213Y-8111213D01*
X10464032Y-8113190D01*
X10461667Y-8114944D01*
X10459142Y-8116458D01*
X10456481Y-8117716D01*
X10453709Y-8118708D01*
X10450853Y-8119424D01*
X10447941Y-8119855D01*
X10445000Y-8120000D01*
X10445000Y-8120000D01*
X10442059Y-8119855D01*
X10439147Y-8119424D01*
X10436291Y-8118708D01*
X10433519Y-8117716D01*
X10430858Y-8116458D01*
X10428333Y-8114944D01*
X10425968Y-8113190D01*
X10423787Y-8111213D01*
X10421810Y-8109032D01*
X10420056Y-8106667D01*
X10418542Y-8104142D01*
X10417284Y-8101480D01*
X10416292Y-8098708D01*
X10415576Y-8095853D01*
X10415144Y-8092940D01*
X10415000Y-8090000D01*
X10415000Y-7990000D01*
X10415144Y-7987059D01*
X10415576Y-7984147D01*
X10416292Y-7981291D01*
X10417284Y-7978519D01*
X10418542Y-7975858D01*
X10420056Y-7973333D01*
X10421810Y-7970968D01*
X10423787Y-7968787D01*
X10425968Y-7966810D01*
X10428333Y-7965056D01*
X10430858Y-7963542D01*
X10433519Y-7962284D01*
X10436291Y-7961292D01*
X10439147Y-7960576D01*
X10442059Y-7960144D01*
X10445000Y-7960000D01*
X10445000Y-7960000D01*
X10447941Y-7960144D01*
X10447941Y-7960144D01*
G37*
D14*
X10445000Y-8040000D03*
D15*
X10472500Y-8040000D03*
X10472500Y-7880000D03*
D13*
G36*
X10447941Y-7800144D02*
X10450853Y-7800576D01*
X10453709Y-7801292D01*
X10456481Y-7802284D01*
X10459142Y-7803542D01*
X10461667Y-7805056D01*
X10464032Y-7806810D01*
X10466213Y-7808787D01*
X10468190Y-7810968D01*
X10469944Y-7813333D01*
X10471458Y-7815858D01*
X10472717Y-7818519D01*
X10473708Y-7821291D01*
X10474424Y-7824147D01*
X10474856Y-7827059D01*
X10475000Y-7830000D01*
X10475000Y-7930000D01*
X10474856Y-7932940D01*
X10474424Y-7935853D01*
X10473708Y-7938708D01*
X10472717Y-7941480D01*
X10471458Y-7944142D01*
X10469944Y-7946667D01*
X10468190Y-7949032D01*
X10466213Y-7951213D01*
X10464032Y-7953190D01*
X10461667Y-7954944D01*
X10459142Y-7956458D01*
X10456481Y-7957716D01*
X10453709Y-7958708D01*
X10450853Y-7959424D01*
X10447941Y-7959855D01*
X10445000Y-7960000D01*
X10445000Y-7960000D01*
X10442059Y-7959855D01*
X10439147Y-7959424D01*
X10436291Y-7958708D01*
X10433519Y-7957716D01*
X10430858Y-7956458D01*
X10428333Y-7954944D01*
X10425968Y-7953190D01*
X10423787Y-7951213D01*
X10421810Y-7949032D01*
X10420056Y-7946667D01*
X10418542Y-7944142D01*
X10417284Y-7941480D01*
X10416292Y-7938708D01*
X10415576Y-7935853D01*
X10415144Y-7932940D01*
X10415000Y-7930000D01*
X10415000Y-7830000D01*
X10415144Y-7827059D01*
X10415576Y-7824147D01*
X10416292Y-7821291D01*
X10417284Y-7818519D01*
X10418542Y-7815858D01*
X10420056Y-7813333D01*
X10421810Y-7810968D01*
X10423787Y-7808787D01*
X10425968Y-7806810D01*
X10428333Y-7805056D01*
X10430858Y-7803542D01*
X10433519Y-7802284D01*
X10436291Y-7801292D01*
X10439147Y-7800576D01*
X10442059Y-7800144D01*
X10445000Y-7800000D01*
X10445000Y-7800000D01*
X10447941Y-7800144D01*
X10447941Y-7800144D01*
G37*
D14*
X10445000Y-7880000D03*
D13*
G36*
X10447941Y-7480144D02*
X10450853Y-7480576D01*
X10453709Y-7481292D01*
X10456481Y-7482284D01*
X10459142Y-7483542D01*
X10461667Y-7485056D01*
X10464032Y-7486810D01*
X10466213Y-7488787D01*
X10468190Y-7490968D01*
X10469944Y-7493333D01*
X10471458Y-7495858D01*
X10472717Y-7498519D01*
X10473708Y-7501291D01*
X10474424Y-7504147D01*
X10474856Y-7507059D01*
X10475000Y-7510000D01*
X10475000Y-7610000D01*
X10474856Y-7612940D01*
X10474424Y-7615853D01*
X10473708Y-7618708D01*
X10472717Y-7621480D01*
X10471458Y-7624142D01*
X10469944Y-7626667D01*
X10468190Y-7629032D01*
X10466213Y-7631213D01*
X10464032Y-7633190D01*
X10461667Y-7634944D01*
X10459142Y-7636458D01*
X10456481Y-7637716D01*
X10453709Y-7638708D01*
X10450853Y-7639424D01*
X10447941Y-7639855D01*
X10445000Y-7640000D01*
X10445000Y-7640000D01*
X10442059Y-7639855D01*
X10439147Y-7639424D01*
X10436291Y-7638708D01*
X10433519Y-7637716D01*
X10430858Y-7636458D01*
X10428333Y-7634944D01*
X10425968Y-7633190D01*
X10423787Y-7631213D01*
X10421810Y-7629032D01*
X10420056Y-7626667D01*
X10418542Y-7624142D01*
X10417284Y-7621480D01*
X10416292Y-7618708D01*
X10415576Y-7615853D01*
X10415144Y-7612940D01*
X10415000Y-7610000D01*
X10415000Y-7510000D01*
X10415144Y-7507059D01*
X10415576Y-7504147D01*
X10416292Y-7501291D01*
X10417284Y-7498519D01*
X10418542Y-7495858D01*
X10420056Y-7493333D01*
X10421810Y-7490968D01*
X10423787Y-7488787D01*
X10425968Y-7486810D01*
X10428333Y-7485056D01*
X10430858Y-7483542D01*
X10433519Y-7482284D01*
X10436291Y-7481292D01*
X10439147Y-7480576D01*
X10442059Y-7480144D01*
X10445000Y-7480000D01*
X10445000Y-7480000D01*
X10447941Y-7480144D01*
X10447941Y-7480144D01*
G37*
D14*
X10445000Y-7560000D03*
D15*
X10472500Y-7560000D03*
X10472500Y-7720000D03*
D13*
G36*
X10447941Y-7640144D02*
X10450853Y-7640576D01*
X10453709Y-7641292D01*
X10456481Y-7642284D01*
X10459142Y-7643542D01*
X10461667Y-7645056D01*
X10464032Y-7646810D01*
X10466213Y-7648787D01*
X10468190Y-7650968D01*
X10469944Y-7653333D01*
X10471458Y-7655858D01*
X10472717Y-7658519D01*
X10473708Y-7661291D01*
X10474424Y-7664147D01*
X10474856Y-7667059D01*
X10475000Y-7670000D01*
X10475000Y-7770000D01*
X10474856Y-7772940D01*
X10474424Y-7775853D01*
X10473708Y-7778708D01*
X10472717Y-7781480D01*
X10471458Y-7784142D01*
X10469944Y-7786667D01*
X10468190Y-7789032D01*
X10466213Y-7791213D01*
X10464032Y-7793190D01*
X10461667Y-7794944D01*
X10459142Y-7796458D01*
X10456481Y-7797716D01*
X10453709Y-7798708D01*
X10450853Y-7799424D01*
X10447941Y-7799855D01*
X10445000Y-7800000D01*
X10445000Y-7800000D01*
X10442059Y-7799855D01*
X10439147Y-7799424D01*
X10436291Y-7798708D01*
X10433519Y-7797716D01*
X10430858Y-7796458D01*
X10428333Y-7794944D01*
X10425968Y-7793190D01*
X10423787Y-7791213D01*
X10421810Y-7789032D01*
X10420056Y-7786667D01*
X10418542Y-7784142D01*
X10417284Y-7781480D01*
X10416292Y-7778708D01*
X10415576Y-7775853D01*
X10415144Y-7772940D01*
X10415000Y-7770000D01*
X10415000Y-7670000D01*
X10415144Y-7667059D01*
X10415576Y-7664147D01*
X10416292Y-7661291D01*
X10417284Y-7658519D01*
X10418542Y-7655858D01*
X10420056Y-7653333D01*
X10421810Y-7650968D01*
X10423787Y-7648787D01*
X10425968Y-7646810D01*
X10428333Y-7645056D01*
X10430858Y-7643542D01*
X10433519Y-7642284D01*
X10436291Y-7641292D01*
X10439147Y-7640576D01*
X10442059Y-7640144D01*
X10445000Y-7640000D01*
X10445000Y-7640000D01*
X10447941Y-7640144D01*
X10447941Y-7640144D01*
G37*
D14*
X10445000Y-7720000D03*
D13*
G36*
X9557941Y-7960144D02*
X9560853Y-7960576D01*
X9563709Y-7961292D01*
X9566481Y-7962284D01*
X9569142Y-7963542D01*
X9571667Y-7965056D01*
X9574032Y-7966810D01*
X9576213Y-7968787D01*
X9578190Y-7970968D01*
X9579944Y-7973333D01*
X9581458Y-7975858D01*
X9582717Y-7978519D01*
X9583708Y-7981291D01*
X9584424Y-7984147D01*
X9584856Y-7987059D01*
X9585000Y-7990000D01*
X9585000Y-8090000D01*
X9584856Y-8092940D01*
X9584424Y-8095853D01*
X9583708Y-8098708D01*
X9582717Y-8101480D01*
X9581458Y-8104142D01*
X9579944Y-8106667D01*
X9578190Y-8109032D01*
X9576213Y-8111213D01*
X9574032Y-8113190D01*
X9571667Y-8114944D01*
X9569142Y-8116458D01*
X9566481Y-8117716D01*
X9563709Y-8118708D01*
X9560853Y-8119424D01*
X9557941Y-8119855D01*
X9555000Y-8120000D01*
X9555000Y-8120000D01*
X9552059Y-8119855D01*
X9549147Y-8119424D01*
X9546291Y-8118708D01*
X9543519Y-8117716D01*
X9540858Y-8116458D01*
X9538333Y-8114944D01*
X9535968Y-8113190D01*
X9533787Y-8111213D01*
X9531810Y-8109032D01*
X9530056Y-8106667D01*
X9528542Y-8104142D01*
X9527284Y-8101480D01*
X9526292Y-8098708D01*
X9525576Y-8095853D01*
X9525144Y-8092940D01*
X9525000Y-8090000D01*
X9525000Y-7990000D01*
X9525144Y-7987059D01*
X9525576Y-7984147D01*
X9526292Y-7981291D01*
X9527284Y-7978519D01*
X9528542Y-7975858D01*
X9530056Y-7973333D01*
X9531810Y-7970968D01*
X9533787Y-7968787D01*
X9535968Y-7966810D01*
X9538333Y-7965056D01*
X9540858Y-7963542D01*
X9543519Y-7962284D01*
X9546291Y-7961292D01*
X9549147Y-7960576D01*
X9552059Y-7960144D01*
X9555000Y-7960000D01*
X9555000Y-7960000D01*
X9557941Y-7960144D01*
X9557941Y-7960144D01*
G37*
D14*
X9555000Y-8040000D03*
D15*
X9527500Y-8040000D03*
X9527500Y-7880000D03*
D13*
G36*
X9557941Y-7800144D02*
X9560853Y-7800576D01*
X9563709Y-7801292D01*
X9566481Y-7802284D01*
X9569142Y-7803542D01*
X9571667Y-7805056D01*
X9574032Y-7806810D01*
X9576213Y-7808787D01*
X9578190Y-7810968D01*
X9579944Y-7813333D01*
X9581458Y-7815858D01*
X9582717Y-7818519D01*
X9583708Y-7821291D01*
X9584424Y-7824147D01*
X9584856Y-7827059D01*
X9585000Y-7830000D01*
X9585000Y-7930000D01*
X9584856Y-7932940D01*
X9584424Y-7935853D01*
X9583708Y-7938708D01*
X9582717Y-7941480D01*
X9581458Y-7944142D01*
X9579944Y-7946667D01*
X9578190Y-7949032D01*
X9576213Y-7951213D01*
X9574032Y-7953190D01*
X9571667Y-7954944D01*
X9569142Y-7956458D01*
X9566481Y-7957716D01*
X9563709Y-7958708D01*
X9560853Y-7959424D01*
X9557941Y-7959855D01*
X9555000Y-7960000D01*
X9555000Y-7960000D01*
X9552059Y-7959855D01*
X9549147Y-7959424D01*
X9546291Y-7958708D01*
X9543519Y-7957716D01*
X9540858Y-7956458D01*
X9538333Y-7954944D01*
X9535968Y-7953190D01*
X9533787Y-7951213D01*
X9531810Y-7949032D01*
X9530056Y-7946667D01*
X9528542Y-7944142D01*
X9527284Y-7941480D01*
X9526292Y-7938708D01*
X9525576Y-7935853D01*
X9525144Y-7932940D01*
X9525000Y-7930000D01*
X9525000Y-7830000D01*
X9525144Y-7827059D01*
X9525576Y-7824147D01*
X9526292Y-7821291D01*
X9527284Y-7818519D01*
X9528542Y-7815858D01*
X9530056Y-7813333D01*
X9531810Y-7810968D01*
X9533787Y-7808787D01*
X9535968Y-7806810D01*
X9538333Y-7805056D01*
X9540858Y-7803542D01*
X9543519Y-7802284D01*
X9546291Y-7801292D01*
X9549147Y-7800576D01*
X9552059Y-7800144D01*
X9555000Y-7800000D01*
X9555000Y-7800000D01*
X9557941Y-7800144D01*
X9557941Y-7800144D01*
G37*
D14*
X9555000Y-7880000D03*
D13*
G36*
X9557941Y-7480144D02*
X9560853Y-7480576D01*
X9563709Y-7481292D01*
X9566481Y-7482284D01*
X9569142Y-7483542D01*
X9571667Y-7485056D01*
X9574032Y-7486810D01*
X9576213Y-7488787D01*
X9578190Y-7490968D01*
X9579944Y-7493333D01*
X9581458Y-7495858D01*
X9582717Y-7498519D01*
X9583708Y-7501291D01*
X9584424Y-7504147D01*
X9584856Y-7507059D01*
X9585000Y-7510000D01*
X9585000Y-7610000D01*
X9584856Y-7612940D01*
X9584424Y-7615853D01*
X9583708Y-7618708D01*
X9582717Y-7621480D01*
X9581458Y-7624142D01*
X9579944Y-7626667D01*
X9578190Y-7629032D01*
X9576213Y-7631213D01*
X9574032Y-7633190D01*
X9571667Y-7634944D01*
X9569142Y-7636458D01*
X9566481Y-7637716D01*
X9563709Y-7638708D01*
X9560853Y-7639424D01*
X9557941Y-7639855D01*
X9555000Y-7640000D01*
X9555000Y-7640000D01*
X9552059Y-7639855D01*
X9549147Y-7639424D01*
X9546291Y-7638708D01*
X9543519Y-7637716D01*
X9540858Y-7636458D01*
X9538333Y-7634944D01*
X9535968Y-7633190D01*
X9533787Y-7631213D01*
X9531810Y-7629032D01*
X9530056Y-7626667D01*
X9528542Y-7624142D01*
X9527284Y-7621480D01*
X9526292Y-7618708D01*
X9525576Y-7615853D01*
X9525144Y-7612940D01*
X9525000Y-7610000D01*
X9525000Y-7510000D01*
X9525144Y-7507059D01*
X9525576Y-7504147D01*
X9526292Y-7501291D01*
X9527284Y-7498519D01*
X9528542Y-7495858D01*
X9530056Y-7493333D01*
X9531810Y-7490968D01*
X9533787Y-7488787D01*
X9535968Y-7486810D01*
X9538333Y-7485056D01*
X9540858Y-7483542D01*
X9543519Y-7482284D01*
X9546291Y-7481292D01*
X9549147Y-7480576D01*
X9552059Y-7480144D01*
X9555000Y-7480000D01*
X9555000Y-7480000D01*
X9557941Y-7480144D01*
X9557941Y-7480144D01*
G37*
D14*
X9555000Y-7560000D03*
D15*
X9527500Y-7560000D03*
X9527500Y-7720000D03*
D13*
G36*
X9557941Y-7640144D02*
X9560853Y-7640576D01*
X9563709Y-7641292D01*
X9566481Y-7642284D01*
X9569142Y-7643542D01*
X9571667Y-7645056D01*
X9574032Y-7646810D01*
X9576213Y-7648787D01*
X9578190Y-7650968D01*
X9579944Y-7653333D01*
X9581458Y-7655858D01*
X9582717Y-7658519D01*
X9583708Y-7661291D01*
X9584424Y-7664147D01*
X9584856Y-7667059D01*
X9585000Y-7670000D01*
X9585000Y-7770000D01*
X9584856Y-7772940D01*
X9584424Y-7775853D01*
X9583708Y-7778708D01*
X9582717Y-7781480D01*
X9581458Y-7784142D01*
X9579944Y-7786667D01*
X9578190Y-7789032D01*
X9576213Y-7791213D01*
X9574032Y-7793190D01*
X9571667Y-7794944D01*
X9569142Y-7796458D01*
X9566481Y-7797716D01*
X9563709Y-7798708D01*
X9560853Y-7799424D01*
X9557941Y-7799855D01*
X9555000Y-7800000D01*
X9555000Y-7800000D01*
X9552059Y-7799855D01*
X9549147Y-7799424D01*
X9546291Y-7798708D01*
X9543519Y-7797716D01*
X9540858Y-7796458D01*
X9538333Y-7794944D01*
X9535968Y-7793190D01*
X9533787Y-7791213D01*
X9531810Y-7789032D01*
X9530056Y-7786667D01*
X9528542Y-7784142D01*
X9527284Y-7781480D01*
X9526292Y-7778708D01*
X9525576Y-7775853D01*
X9525144Y-7772940D01*
X9525000Y-7770000D01*
X9525000Y-7670000D01*
X9525144Y-7667059D01*
X9525576Y-7664147D01*
X9526292Y-7661291D01*
X9527284Y-7658519D01*
X9528542Y-7655858D01*
X9530056Y-7653333D01*
X9531810Y-7650968D01*
X9533787Y-7648787D01*
X9535968Y-7646810D01*
X9538333Y-7645056D01*
X9540858Y-7643542D01*
X9543519Y-7642284D01*
X9546291Y-7641292D01*
X9549147Y-7640576D01*
X9552059Y-7640144D01*
X9555000Y-7640000D01*
X9555000Y-7640000D01*
X9557941Y-7640144D01*
X9557941Y-7640144D01*
G37*
D14*
X9555000Y-7720000D03*
D13*
G36*
X9557941Y-8340144D02*
X9560853Y-8340576D01*
X9563709Y-8341292D01*
X9566481Y-8342284D01*
X9569142Y-8343542D01*
X9571667Y-8345056D01*
X9574032Y-8346810D01*
X9576213Y-8348787D01*
X9578190Y-8350968D01*
X9579944Y-8353333D01*
X9581458Y-8355858D01*
X9582717Y-8358519D01*
X9583708Y-8361291D01*
X9584424Y-8364147D01*
X9584856Y-8367059D01*
X9585000Y-8370000D01*
X9585000Y-8470000D01*
X9584856Y-8472941D01*
X9584424Y-8475853D01*
X9583708Y-8478709D01*
X9582717Y-8481481D01*
X9581458Y-8484142D01*
X9579944Y-8486667D01*
X9578190Y-8489032D01*
X9576213Y-8491213D01*
X9574032Y-8493190D01*
X9571667Y-8494944D01*
X9569142Y-8496458D01*
X9566481Y-8497716D01*
X9563709Y-8498708D01*
X9560853Y-8499424D01*
X9557941Y-8499856D01*
X9555000Y-8500000D01*
X9555000Y-8500000D01*
X9552059Y-8499856D01*
X9549147Y-8499424D01*
X9546291Y-8498708D01*
X9543519Y-8497716D01*
X9540858Y-8496458D01*
X9538333Y-8494944D01*
X9535968Y-8493190D01*
X9533787Y-8491213D01*
X9531810Y-8489032D01*
X9530056Y-8486667D01*
X9528542Y-8484142D01*
X9527284Y-8481481D01*
X9526292Y-8478709D01*
X9525576Y-8475853D01*
X9525144Y-8472941D01*
X9525000Y-8470000D01*
X9525000Y-8370000D01*
X9525144Y-8367059D01*
X9525576Y-8364147D01*
X9526292Y-8361291D01*
X9527284Y-8358519D01*
X9528542Y-8355858D01*
X9530056Y-8353333D01*
X9531810Y-8350968D01*
X9533787Y-8348787D01*
X9535968Y-8346810D01*
X9538333Y-8345056D01*
X9540858Y-8343542D01*
X9543519Y-8342284D01*
X9546291Y-8341292D01*
X9549147Y-8340576D01*
X9552059Y-8340144D01*
X9555000Y-8340000D01*
X9555000Y-8340000D01*
X9557941Y-8340144D01*
X9557941Y-8340144D01*
G37*
D14*
X9555000Y-8420000D03*
D15*
X9527500Y-8420000D03*
X9527500Y-8260000D03*
D13*
G36*
X9557941Y-8180144D02*
X9560853Y-8180576D01*
X9563709Y-8181292D01*
X9566481Y-8182284D01*
X9569142Y-8183542D01*
X9571667Y-8185056D01*
X9574032Y-8186810D01*
X9576213Y-8188787D01*
X9578190Y-8190968D01*
X9579944Y-8193333D01*
X9581458Y-8195858D01*
X9582717Y-8198519D01*
X9583708Y-8201291D01*
X9584424Y-8204147D01*
X9584856Y-8207059D01*
X9585000Y-8210000D01*
X9585000Y-8310000D01*
X9584856Y-8312940D01*
X9584424Y-8315853D01*
X9583708Y-8318708D01*
X9582717Y-8321480D01*
X9581458Y-8324142D01*
X9579944Y-8326667D01*
X9578190Y-8329032D01*
X9576213Y-8331213D01*
X9574032Y-8333190D01*
X9571667Y-8334944D01*
X9569142Y-8336458D01*
X9566481Y-8337716D01*
X9563709Y-8338708D01*
X9560853Y-8339424D01*
X9557941Y-8339855D01*
X9555000Y-8340000D01*
X9555000Y-8340000D01*
X9552059Y-8339855D01*
X9549147Y-8339424D01*
X9546291Y-8338708D01*
X9543519Y-8337716D01*
X9540858Y-8336458D01*
X9538333Y-8334944D01*
X9535968Y-8333190D01*
X9533787Y-8331213D01*
X9531810Y-8329032D01*
X9530056Y-8326667D01*
X9528542Y-8324142D01*
X9527284Y-8321480D01*
X9526292Y-8318708D01*
X9525576Y-8315853D01*
X9525144Y-8312940D01*
X9525000Y-8310000D01*
X9525000Y-8210000D01*
X9525144Y-8207059D01*
X9525576Y-8204147D01*
X9526292Y-8201291D01*
X9527284Y-8198519D01*
X9528542Y-8195858D01*
X9530056Y-8193333D01*
X9531810Y-8190968D01*
X9533787Y-8188787D01*
X9535968Y-8186810D01*
X9538333Y-8185056D01*
X9540858Y-8183542D01*
X9543519Y-8182284D01*
X9546291Y-8181292D01*
X9549147Y-8180576D01*
X9552059Y-8180144D01*
X9555000Y-8180000D01*
X9555000Y-8180000D01*
X9557941Y-8180144D01*
X9557941Y-8180144D01*
G37*
D14*
X9555000Y-8260000D03*
D13*
G36*
X9557941Y-8500145D02*
X9560853Y-8500576D01*
X9563709Y-8501292D01*
X9566481Y-8502284D01*
X9569142Y-8503542D01*
X9571667Y-8505056D01*
X9574032Y-8506810D01*
X9576213Y-8508787D01*
X9578190Y-8510968D01*
X9579944Y-8513333D01*
X9581458Y-8515858D01*
X9582717Y-8518520D01*
X9583708Y-8521292D01*
X9584424Y-8524147D01*
X9584856Y-8527060D01*
X9585000Y-8530000D01*
X9585000Y-8630000D01*
X9584856Y-8632941D01*
X9584424Y-8635853D01*
X9583708Y-8638709D01*
X9582717Y-8641481D01*
X9581458Y-8644142D01*
X9579944Y-8646667D01*
X9578190Y-8649032D01*
X9576213Y-8651213D01*
X9574032Y-8653190D01*
X9571667Y-8654944D01*
X9569142Y-8656458D01*
X9566481Y-8657716D01*
X9563709Y-8658708D01*
X9560853Y-8659424D01*
X9557941Y-8659856D01*
X9555000Y-8660000D01*
X9555000Y-8660000D01*
X9552059Y-8659856D01*
X9549147Y-8659424D01*
X9546291Y-8658708D01*
X9543519Y-8657716D01*
X9540858Y-8656458D01*
X9538333Y-8654944D01*
X9535968Y-8653190D01*
X9533787Y-8651213D01*
X9531810Y-8649032D01*
X9530056Y-8646667D01*
X9528542Y-8644142D01*
X9527284Y-8641481D01*
X9526292Y-8638709D01*
X9525576Y-8635853D01*
X9525144Y-8632941D01*
X9525000Y-8630000D01*
X9525000Y-8530000D01*
X9525144Y-8527060D01*
X9525576Y-8524147D01*
X9526292Y-8521292D01*
X9527284Y-8518520D01*
X9528542Y-8515858D01*
X9530056Y-8513333D01*
X9531810Y-8510968D01*
X9533787Y-8508787D01*
X9535968Y-8506810D01*
X9538333Y-8505056D01*
X9540858Y-8503542D01*
X9543519Y-8502284D01*
X9546291Y-8501292D01*
X9549147Y-8500576D01*
X9552059Y-8500145D01*
X9555000Y-8500000D01*
X9555000Y-8500000D01*
X9557941Y-8500145D01*
X9557941Y-8500145D01*
G37*
D14*
X9555000Y-8580000D03*
D15*
X9527500Y-8580000D03*
X9527500Y-8740000D03*
D13*
G36*
X9557941Y-8660145D02*
X9560853Y-8660576D01*
X9563709Y-8661292D01*
X9566481Y-8662284D01*
X9569142Y-8663542D01*
X9571667Y-8665056D01*
X9574032Y-8666810D01*
X9576213Y-8668787D01*
X9578190Y-8670968D01*
X9579944Y-8673333D01*
X9581458Y-8675858D01*
X9582717Y-8678520D01*
X9583708Y-8681292D01*
X9584424Y-8684147D01*
X9584856Y-8687060D01*
X9585000Y-8690000D01*
X9585000Y-8790000D01*
X9584856Y-8792941D01*
X9584424Y-8795853D01*
X9583708Y-8798709D01*
X9582717Y-8801481D01*
X9581458Y-8804142D01*
X9579944Y-8806667D01*
X9578190Y-8809032D01*
X9576213Y-8811213D01*
X9574032Y-8813190D01*
X9571667Y-8814944D01*
X9569142Y-8816458D01*
X9566481Y-8817716D01*
X9563709Y-8818708D01*
X9560853Y-8819424D01*
X9557941Y-8819856D01*
X9555000Y-8820000D01*
X9555000Y-8820000D01*
X9552059Y-8819856D01*
X9549147Y-8819424D01*
X9546291Y-8818708D01*
X9543519Y-8817716D01*
X9540858Y-8816458D01*
X9538333Y-8814944D01*
X9535968Y-8813190D01*
X9533787Y-8811213D01*
X9531810Y-8809032D01*
X9530056Y-8806667D01*
X9528542Y-8804142D01*
X9527284Y-8801481D01*
X9526292Y-8798709D01*
X9525576Y-8795853D01*
X9525144Y-8792941D01*
X9525000Y-8790000D01*
X9525000Y-8690000D01*
X9525144Y-8687060D01*
X9525576Y-8684147D01*
X9526292Y-8681292D01*
X9527284Y-8678520D01*
X9528542Y-8675858D01*
X9530056Y-8673333D01*
X9531810Y-8670968D01*
X9533787Y-8668787D01*
X9535968Y-8666810D01*
X9538333Y-8665056D01*
X9540858Y-8663542D01*
X9543519Y-8662284D01*
X9546291Y-8661292D01*
X9549147Y-8660576D01*
X9552059Y-8660145D01*
X9555000Y-8660000D01*
X9555000Y-8660000D01*
X9557941Y-8660145D01*
X9557941Y-8660145D01*
G37*
D14*
X9555000Y-8740000D03*
D13*
G36*
X10447941Y-8340144D02*
X10450853Y-8340576D01*
X10453709Y-8341292D01*
X10456481Y-8342284D01*
X10459142Y-8343542D01*
X10461667Y-8345056D01*
X10464032Y-8346810D01*
X10466213Y-8348787D01*
X10468190Y-8350968D01*
X10469944Y-8353333D01*
X10471458Y-8355858D01*
X10472717Y-8358519D01*
X10473708Y-8361291D01*
X10474424Y-8364147D01*
X10474856Y-8367059D01*
X10475000Y-8370000D01*
X10475000Y-8470000D01*
X10474856Y-8472941D01*
X10474424Y-8475853D01*
X10473708Y-8478709D01*
X10472717Y-8481481D01*
X10471458Y-8484142D01*
X10469944Y-8486667D01*
X10468190Y-8489032D01*
X10466213Y-8491213D01*
X10464032Y-8493190D01*
X10461667Y-8494944D01*
X10459142Y-8496458D01*
X10456481Y-8497716D01*
X10453709Y-8498708D01*
X10450853Y-8499424D01*
X10447941Y-8499856D01*
X10445000Y-8500000D01*
X10445000Y-8500000D01*
X10442059Y-8499856D01*
X10439147Y-8499424D01*
X10436291Y-8498708D01*
X10433519Y-8497716D01*
X10430858Y-8496458D01*
X10428333Y-8494944D01*
X10425968Y-8493190D01*
X10423787Y-8491213D01*
X10421810Y-8489032D01*
X10420056Y-8486667D01*
X10418542Y-8484142D01*
X10417284Y-8481481D01*
X10416292Y-8478709D01*
X10415576Y-8475853D01*
X10415144Y-8472941D01*
X10415000Y-8470000D01*
X10415000Y-8370000D01*
X10415144Y-8367059D01*
X10415576Y-8364147D01*
X10416292Y-8361291D01*
X10417284Y-8358519D01*
X10418542Y-8355858D01*
X10420056Y-8353333D01*
X10421810Y-8350968D01*
X10423787Y-8348787D01*
X10425968Y-8346810D01*
X10428333Y-8345056D01*
X10430858Y-8343542D01*
X10433519Y-8342284D01*
X10436291Y-8341292D01*
X10439147Y-8340576D01*
X10442059Y-8340144D01*
X10445000Y-8340000D01*
X10445000Y-8340000D01*
X10447941Y-8340144D01*
X10447941Y-8340144D01*
G37*
D14*
X10445000Y-8420000D03*
D15*
X10472500Y-8420000D03*
X10472500Y-8260000D03*
D13*
G36*
X10447941Y-8180144D02*
X10450853Y-8180576D01*
X10453709Y-8181292D01*
X10456481Y-8182284D01*
X10459142Y-8183542D01*
X10461667Y-8185056D01*
X10464032Y-8186810D01*
X10466213Y-8188787D01*
X10468190Y-8190968D01*
X10469944Y-8193333D01*
X10471458Y-8195858D01*
X10472717Y-8198519D01*
X10473708Y-8201291D01*
X10474424Y-8204147D01*
X10474856Y-8207059D01*
X10475000Y-8210000D01*
X10475000Y-8310000D01*
X10474856Y-8312940D01*
X10474424Y-8315853D01*
X10473708Y-8318708D01*
X10472717Y-8321480D01*
X10471458Y-8324142D01*
X10469944Y-8326667D01*
X10468190Y-8329032D01*
X10466213Y-8331213D01*
X10464032Y-8333190D01*
X10461667Y-8334944D01*
X10459142Y-8336458D01*
X10456481Y-8337716D01*
X10453709Y-8338708D01*
X10450853Y-8339424D01*
X10447941Y-8339855D01*
X10445000Y-8340000D01*
X10445000Y-8340000D01*
X10442059Y-8339855D01*
X10439147Y-8339424D01*
X10436291Y-8338708D01*
X10433519Y-8337716D01*
X10430858Y-8336458D01*
X10428333Y-8334944D01*
X10425968Y-8333190D01*
X10423787Y-8331213D01*
X10421810Y-8329032D01*
X10420056Y-8326667D01*
X10418542Y-8324142D01*
X10417284Y-8321480D01*
X10416292Y-8318708D01*
X10415576Y-8315853D01*
X10415144Y-8312940D01*
X10415000Y-8310000D01*
X10415000Y-8210000D01*
X10415144Y-8207059D01*
X10415576Y-8204147D01*
X10416292Y-8201291D01*
X10417284Y-8198519D01*
X10418542Y-8195858D01*
X10420056Y-8193333D01*
X10421810Y-8190968D01*
X10423787Y-8188787D01*
X10425968Y-8186810D01*
X10428333Y-8185056D01*
X10430858Y-8183542D01*
X10433519Y-8182284D01*
X10436291Y-8181292D01*
X10439147Y-8180576D01*
X10442059Y-8180144D01*
X10445000Y-8180000D01*
X10445000Y-8180000D01*
X10447941Y-8180144D01*
X10447941Y-8180144D01*
G37*
D14*
X10445000Y-8260000D03*
D13*
G36*
X10447941Y-8500145D02*
X10450853Y-8500576D01*
X10453709Y-8501292D01*
X10456481Y-8502284D01*
X10459142Y-8503542D01*
X10461667Y-8505056D01*
X10464032Y-8506810D01*
X10466213Y-8508787D01*
X10468190Y-8510968D01*
X10469944Y-8513333D01*
X10471458Y-8515858D01*
X10472717Y-8518520D01*
X10473708Y-8521292D01*
X10474424Y-8524147D01*
X10474856Y-8527060D01*
X10475000Y-8530000D01*
X10475000Y-8630000D01*
X10474856Y-8632941D01*
X10474424Y-8635853D01*
X10473708Y-8638709D01*
X10472717Y-8641481D01*
X10471458Y-8644142D01*
X10469944Y-8646667D01*
X10468190Y-8649032D01*
X10466213Y-8651213D01*
X10464032Y-8653190D01*
X10461667Y-8654944D01*
X10459142Y-8656458D01*
X10456481Y-8657716D01*
X10453709Y-8658708D01*
X10450853Y-8659424D01*
X10447941Y-8659856D01*
X10445000Y-8660000D01*
X10445000Y-8660000D01*
X10442059Y-8659856D01*
X10439147Y-8659424D01*
X10436291Y-8658708D01*
X10433519Y-8657716D01*
X10430858Y-8656458D01*
X10428333Y-8654944D01*
X10425968Y-8653190D01*
X10423787Y-8651213D01*
X10421810Y-8649032D01*
X10420056Y-8646667D01*
X10418542Y-8644142D01*
X10417284Y-8641481D01*
X10416292Y-8638709D01*
X10415576Y-8635853D01*
X10415144Y-8632941D01*
X10415000Y-8630000D01*
X10415000Y-8530000D01*
X10415144Y-8527060D01*
X10415576Y-8524147D01*
X10416292Y-8521292D01*
X10417284Y-8518520D01*
X10418542Y-8515858D01*
X10420056Y-8513333D01*
X10421810Y-8510968D01*
X10423787Y-8508787D01*
X10425968Y-8506810D01*
X10428333Y-8505056D01*
X10430858Y-8503542D01*
X10433519Y-8502284D01*
X10436291Y-8501292D01*
X10439147Y-8500576D01*
X10442059Y-8500145D01*
X10445000Y-8500000D01*
X10445000Y-8500000D01*
X10447941Y-8500145D01*
X10447941Y-8500145D01*
G37*
D14*
X10445000Y-8580000D03*
D15*
X10472500Y-8580000D03*
X10472500Y-8740000D03*
D13*
G36*
X10447941Y-8660145D02*
X10450853Y-8660576D01*
X10453709Y-8661292D01*
X10456481Y-8662284D01*
X10459142Y-8663542D01*
X10461667Y-8665056D01*
X10464032Y-8666810D01*
X10466213Y-8668787D01*
X10468190Y-8670968D01*
X10469944Y-8673333D01*
X10471458Y-8675858D01*
X10472717Y-8678520D01*
X10473708Y-8681292D01*
X10474424Y-8684147D01*
X10474856Y-8687060D01*
X10475000Y-8690000D01*
X10475000Y-8790000D01*
X10474856Y-8792941D01*
X10474424Y-8795853D01*
X10473708Y-8798709D01*
X10472717Y-8801481D01*
X10471458Y-8804142D01*
X10469944Y-8806667D01*
X10468190Y-8809032D01*
X10466213Y-8811213D01*
X10464032Y-8813190D01*
X10461667Y-8814944D01*
X10459142Y-8816458D01*
X10456481Y-8817716D01*
X10453709Y-8818708D01*
X10450853Y-8819424D01*
X10447941Y-8819856D01*
X10445000Y-8820000D01*
X10445000Y-8820000D01*
X10442059Y-8819856D01*
X10439147Y-8819424D01*
X10436291Y-8818708D01*
X10433519Y-8817716D01*
X10430858Y-8816458D01*
X10428333Y-8814944D01*
X10425968Y-8813190D01*
X10423787Y-8811213D01*
X10421810Y-8809032D01*
X10420056Y-8806667D01*
X10418542Y-8804142D01*
X10417284Y-8801481D01*
X10416292Y-8798709D01*
X10415576Y-8795853D01*
X10415144Y-8792941D01*
X10415000Y-8790000D01*
X10415000Y-8690000D01*
X10415144Y-8687060D01*
X10415576Y-8684147D01*
X10416292Y-8681292D01*
X10417284Y-8678520D01*
X10418542Y-8675858D01*
X10420056Y-8673333D01*
X10421810Y-8670968D01*
X10423787Y-8668787D01*
X10425968Y-8666810D01*
X10428333Y-8665056D01*
X10430858Y-8663542D01*
X10433519Y-8662284D01*
X10436291Y-8661292D01*
X10439147Y-8660576D01*
X10442059Y-8660145D01*
X10445000Y-8660000D01*
X10445000Y-8660000D01*
X10447941Y-8660145D01*
X10447941Y-8660145D01*
G37*
D14*
X10445000Y-8740000D03*
D11*
X10250000Y-8340000D03*
X9750000Y-8660000D03*
X9750000Y-8340000D03*
D12*
X10250000Y-8660000D03*
D11*
X10250000Y-8500000D03*
X9750000Y-8500000D03*
D10*
X10000000Y-8500000D03*
X10000000Y-6400000D03*
D11*
X9750000Y-6400000D03*
X10250000Y-6400000D03*
D12*
X10250000Y-6560000D03*
D11*
X9750000Y-6240000D03*
X9750000Y-6560000D03*
X10250000Y-6240000D03*
D13*
G36*
X10447941Y-6560144D02*
X10450853Y-6560576D01*
X10453709Y-6561292D01*
X10456481Y-6562284D01*
X10459142Y-6563542D01*
X10461667Y-6565056D01*
X10464032Y-6566810D01*
X10466213Y-6568787D01*
X10468190Y-6570968D01*
X10469944Y-6573333D01*
X10471458Y-6575858D01*
X10472717Y-6578519D01*
X10473708Y-6581291D01*
X10474424Y-6584147D01*
X10474856Y-6587059D01*
X10475000Y-6590000D01*
X10475000Y-6690000D01*
X10474856Y-6692940D01*
X10474424Y-6695853D01*
X10473708Y-6698708D01*
X10472717Y-6701480D01*
X10471458Y-6704142D01*
X10469944Y-6706667D01*
X10468190Y-6709032D01*
X10466213Y-6711213D01*
X10464032Y-6713190D01*
X10461667Y-6714944D01*
X10459142Y-6716458D01*
X10456481Y-6717716D01*
X10453709Y-6718708D01*
X10450853Y-6719424D01*
X10447941Y-6719855D01*
X10445000Y-6720000D01*
X10445000Y-6720000D01*
X10442059Y-6719855D01*
X10439147Y-6719424D01*
X10436291Y-6718708D01*
X10433519Y-6717716D01*
X10430858Y-6716458D01*
X10428333Y-6714944D01*
X10425968Y-6713190D01*
X10423787Y-6711213D01*
X10421810Y-6709032D01*
X10420056Y-6706667D01*
X10418542Y-6704142D01*
X10417284Y-6701480D01*
X10416292Y-6698708D01*
X10415576Y-6695853D01*
X10415144Y-6692940D01*
X10415000Y-6690000D01*
X10415000Y-6590000D01*
X10415144Y-6587059D01*
X10415576Y-6584147D01*
X10416292Y-6581291D01*
X10417284Y-6578519D01*
X10418542Y-6575858D01*
X10420056Y-6573333D01*
X10421810Y-6570968D01*
X10423787Y-6568787D01*
X10425968Y-6566810D01*
X10428333Y-6565056D01*
X10430858Y-6563542D01*
X10433519Y-6562284D01*
X10436291Y-6561292D01*
X10439147Y-6560576D01*
X10442059Y-6560144D01*
X10445000Y-6560000D01*
X10445000Y-6560000D01*
X10447941Y-6560144D01*
X10447941Y-6560144D01*
G37*
D14*
X10445000Y-6640000D03*
D15*
X10472500Y-6640000D03*
X10472500Y-6480000D03*
D13*
G36*
X10447941Y-6400144D02*
X10450853Y-6400576D01*
X10453709Y-6401292D01*
X10456481Y-6402284D01*
X10459142Y-6403542D01*
X10461667Y-6405056D01*
X10464032Y-6406810D01*
X10466213Y-6408787D01*
X10468190Y-6410968D01*
X10469944Y-6413333D01*
X10471458Y-6415858D01*
X10472717Y-6418519D01*
X10473708Y-6421291D01*
X10474424Y-6424147D01*
X10474856Y-6427059D01*
X10475000Y-6430000D01*
X10475000Y-6530000D01*
X10474856Y-6532940D01*
X10474424Y-6535853D01*
X10473708Y-6538708D01*
X10472717Y-6541480D01*
X10471458Y-6544142D01*
X10469944Y-6546667D01*
X10468190Y-6549032D01*
X10466213Y-6551213D01*
X10464032Y-6553190D01*
X10461667Y-6554944D01*
X10459142Y-6556458D01*
X10456481Y-6557716D01*
X10453709Y-6558708D01*
X10450853Y-6559424D01*
X10447941Y-6559855D01*
X10445000Y-6560000D01*
X10445000Y-6560000D01*
X10442059Y-6559855D01*
X10439147Y-6559424D01*
X10436291Y-6558708D01*
X10433519Y-6557716D01*
X10430858Y-6556458D01*
X10428333Y-6554944D01*
X10425968Y-6553190D01*
X10423787Y-6551213D01*
X10421810Y-6549032D01*
X10420056Y-6546667D01*
X10418542Y-6544142D01*
X10417284Y-6541480D01*
X10416292Y-6538708D01*
X10415576Y-6535853D01*
X10415144Y-6532940D01*
X10415000Y-6530000D01*
X10415000Y-6430000D01*
X10415144Y-6427059D01*
X10415576Y-6424147D01*
X10416292Y-6421291D01*
X10417284Y-6418519D01*
X10418542Y-6415858D01*
X10420056Y-6413333D01*
X10421810Y-6410968D01*
X10423787Y-6408787D01*
X10425968Y-6406810D01*
X10428333Y-6405056D01*
X10430858Y-6403542D01*
X10433519Y-6402284D01*
X10436291Y-6401292D01*
X10439147Y-6400576D01*
X10442059Y-6400144D01*
X10445000Y-6400000D01*
X10445000Y-6400000D01*
X10447941Y-6400144D01*
X10447941Y-6400144D01*
G37*
D14*
X10445000Y-6480000D03*
D13*
G36*
X10447941Y-6080144D02*
X10450853Y-6080576D01*
X10453709Y-6081292D01*
X10456481Y-6082284D01*
X10459142Y-6083542D01*
X10461667Y-6085056D01*
X10464032Y-6086810D01*
X10466213Y-6088787D01*
X10468190Y-6090968D01*
X10469944Y-6093333D01*
X10471458Y-6095858D01*
X10472717Y-6098519D01*
X10473708Y-6101291D01*
X10474424Y-6104147D01*
X10474856Y-6107059D01*
X10475000Y-6110000D01*
X10475000Y-6210000D01*
X10474856Y-6212940D01*
X10474424Y-6215853D01*
X10473708Y-6218708D01*
X10472717Y-6221480D01*
X10471458Y-6224142D01*
X10469944Y-6226667D01*
X10468190Y-6229032D01*
X10466213Y-6231213D01*
X10464032Y-6233190D01*
X10461667Y-6234944D01*
X10459142Y-6236458D01*
X10456481Y-6237716D01*
X10453709Y-6238708D01*
X10450853Y-6239424D01*
X10447941Y-6239855D01*
X10445000Y-6240000D01*
X10445000Y-6240000D01*
X10442059Y-6239855D01*
X10439147Y-6239424D01*
X10436291Y-6238708D01*
X10433519Y-6237716D01*
X10430858Y-6236458D01*
X10428333Y-6234944D01*
X10425968Y-6233190D01*
X10423787Y-6231213D01*
X10421810Y-6229032D01*
X10420056Y-6226667D01*
X10418542Y-6224142D01*
X10417284Y-6221480D01*
X10416292Y-6218708D01*
X10415576Y-6215853D01*
X10415144Y-6212940D01*
X10415000Y-6210000D01*
X10415000Y-6110000D01*
X10415144Y-6107059D01*
X10415576Y-6104147D01*
X10416292Y-6101291D01*
X10417284Y-6098519D01*
X10418542Y-6095858D01*
X10420056Y-6093333D01*
X10421810Y-6090968D01*
X10423787Y-6088787D01*
X10425968Y-6086810D01*
X10428333Y-6085056D01*
X10430858Y-6083542D01*
X10433519Y-6082284D01*
X10436291Y-6081292D01*
X10439147Y-6080576D01*
X10442059Y-6080144D01*
X10445000Y-6080000D01*
X10445000Y-6080000D01*
X10447941Y-6080144D01*
X10447941Y-6080144D01*
G37*
D14*
X10445000Y-6160000D03*
D15*
X10472500Y-6160000D03*
X10472500Y-6320000D03*
D13*
G36*
X10447941Y-6240144D02*
X10450853Y-6240576D01*
X10453709Y-6241292D01*
X10456481Y-6242284D01*
X10459142Y-6243542D01*
X10461667Y-6245056D01*
X10464032Y-6246810D01*
X10466213Y-6248787D01*
X10468190Y-6250968D01*
X10469944Y-6253333D01*
X10471458Y-6255858D01*
X10472717Y-6258519D01*
X10473708Y-6261291D01*
X10474424Y-6264147D01*
X10474856Y-6267059D01*
X10475000Y-6270000D01*
X10475000Y-6370000D01*
X10474856Y-6372940D01*
X10474424Y-6375853D01*
X10473708Y-6378708D01*
X10472717Y-6381480D01*
X10471458Y-6384142D01*
X10469944Y-6386667D01*
X10468190Y-6389032D01*
X10466213Y-6391213D01*
X10464032Y-6393190D01*
X10461667Y-6394944D01*
X10459142Y-6396458D01*
X10456481Y-6397716D01*
X10453709Y-6398708D01*
X10450853Y-6399424D01*
X10447941Y-6399855D01*
X10445000Y-6400000D01*
X10445000Y-6400000D01*
X10442059Y-6399855D01*
X10439147Y-6399424D01*
X10436291Y-6398708D01*
X10433519Y-6397716D01*
X10430858Y-6396458D01*
X10428333Y-6394944D01*
X10425968Y-6393190D01*
X10423787Y-6391213D01*
X10421810Y-6389032D01*
X10420056Y-6386667D01*
X10418542Y-6384142D01*
X10417284Y-6381480D01*
X10416292Y-6378708D01*
X10415576Y-6375853D01*
X10415144Y-6372940D01*
X10415000Y-6370000D01*
X10415000Y-6270000D01*
X10415144Y-6267059D01*
X10415576Y-6264147D01*
X10416292Y-6261291D01*
X10417284Y-6258519D01*
X10418542Y-6255858D01*
X10420056Y-6253333D01*
X10421810Y-6250968D01*
X10423787Y-6248787D01*
X10425968Y-6246810D01*
X10428333Y-6245056D01*
X10430858Y-6243542D01*
X10433519Y-6242284D01*
X10436291Y-6241292D01*
X10439147Y-6240576D01*
X10442059Y-6240144D01*
X10445000Y-6240000D01*
X10445000Y-6240000D01*
X10447941Y-6240144D01*
X10447941Y-6240144D01*
G37*
D14*
X10445000Y-6320000D03*
D13*
G36*
X9557941Y-6560144D02*
X9560853Y-6560576D01*
X9563709Y-6561292D01*
X9566481Y-6562284D01*
X9569142Y-6563542D01*
X9571667Y-6565056D01*
X9574032Y-6566810D01*
X9576213Y-6568787D01*
X9578190Y-6570968D01*
X9579944Y-6573333D01*
X9581458Y-6575858D01*
X9582717Y-6578519D01*
X9583708Y-6581291D01*
X9584424Y-6584147D01*
X9584856Y-6587059D01*
X9585000Y-6590000D01*
X9585000Y-6690000D01*
X9584856Y-6692940D01*
X9584424Y-6695853D01*
X9583708Y-6698708D01*
X9582717Y-6701480D01*
X9581458Y-6704142D01*
X9579944Y-6706667D01*
X9578190Y-6709032D01*
X9576213Y-6711213D01*
X9574032Y-6713190D01*
X9571667Y-6714944D01*
X9569142Y-6716458D01*
X9566481Y-6717716D01*
X9563709Y-6718708D01*
X9560853Y-6719424D01*
X9557941Y-6719855D01*
X9555000Y-6720000D01*
X9555000Y-6720000D01*
X9552059Y-6719855D01*
X9549147Y-6719424D01*
X9546291Y-6718708D01*
X9543519Y-6717716D01*
X9540858Y-6716458D01*
X9538333Y-6714944D01*
X9535968Y-6713190D01*
X9533787Y-6711213D01*
X9531810Y-6709032D01*
X9530056Y-6706667D01*
X9528542Y-6704142D01*
X9527284Y-6701480D01*
X9526292Y-6698708D01*
X9525576Y-6695853D01*
X9525144Y-6692940D01*
X9525000Y-6690000D01*
X9525000Y-6590000D01*
X9525144Y-6587059D01*
X9525576Y-6584147D01*
X9526292Y-6581291D01*
X9527284Y-6578519D01*
X9528542Y-6575858D01*
X9530056Y-6573333D01*
X9531810Y-6570968D01*
X9533787Y-6568787D01*
X9535968Y-6566810D01*
X9538333Y-6565056D01*
X9540858Y-6563542D01*
X9543519Y-6562284D01*
X9546291Y-6561292D01*
X9549147Y-6560576D01*
X9552059Y-6560144D01*
X9555000Y-6560000D01*
X9555000Y-6560000D01*
X9557941Y-6560144D01*
X9557941Y-6560144D01*
G37*
D14*
X9555000Y-6640000D03*
D15*
X9527500Y-6640000D03*
X9527500Y-6480000D03*
D13*
G36*
X9557941Y-6400144D02*
X9560853Y-6400576D01*
X9563709Y-6401292D01*
X9566481Y-6402284D01*
X9569142Y-6403542D01*
X9571667Y-6405056D01*
X9574032Y-6406810D01*
X9576213Y-6408787D01*
X9578190Y-6410968D01*
X9579944Y-6413333D01*
X9581458Y-6415858D01*
X9582717Y-6418519D01*
X9583708Y-6421291D01*
X9584424Y-6424147D01*
X9584856Y-6427059D01*
X9585000Y-6430000D01*
X9585000Y-6530000D01*
X9584856Y-6532940D01*
X9584424Y-6535853D01*
X9583708Y-6538708D01*
X9582717Y-6541480D01*
X9581458Y-6544142D01*
X9579944Y-6546667D01*
X9578190Y-6549032D01*
X9576213Y-6551213D01*
X9574032Y-6553190D01*
X9571667Y-6554944D01*
X9569142Y-6556458D01*
X9566481Y-6557716D01*
X9563709Y-6558708D01*
X9560853Y-6559424D01*
X9557941Y-6559855D01*
X9555000Y-6560000D01*
X9555000Y-6560000D01*
X9552059Y-6559855D01*
X9549147Y-6559424D01*
X9546291Y-6558708D01*
X9543519Y-6557716D01*
X9540858Y-6556458D01*
X9538333Y-6554944D01*
X9535968Y-6553190D01*
X9533787Y-6551213D01*
X9531810Y-6549032D01*
X9530056Y-6546667D01*
X9528542Y-6544142D01*
X9527284Y-6541480D01*
X9526292Y-6538708D01*
X9525576Y-6535853D01*
X9525144Y-6532940D01*
X9525000Y-6530000D01*
X9525000Y-6430000D01*
X9525144Y-6427059D01*
X9525576Y-6424147D01*
X9526292Y-6421291D01*
X9527284Y-6418519D01*
X9528542Y-6415858D01*
X9530056Y-6413333D01*
X9531810Y-6410968D01*
X9533787Y-6408787D01*
X9535968Y-6406810D01*
X9538333Y-6405056D01*
X9540858Y-6403542D01*
X9543519Y-6402284D01*
X9546291Y-6401292D01*
X9549147Y-6400576D01*
X9552059Y-6400144D01*
X9555000Y-6400000D01*
X9555000Y-6400000D01*
X9557941Y-6400144D01*
X9557941Y-6400144D01*
G37*
D14*
X9555000Y-6480000D03*
D13*
G36*
X9557941Y-6080144D02*
X9560853Y-6080576D01*
X9563709Y-6081292D01*
X9566481Y-6082284D01*
X9569142Y-6083542D01*
X9571667Y-6085056D01*
X9574032Y-6086810D01*
X9576213Y-6088787D01*
X9578190Y-6090968D01*
X9579944Y-6093333D01*
X9581458Y-6095858D01*
X9582717Y-6098519D01*
X9583708Y-6101291D01*
X9584424Y-6104147D01*
X9584856Y-6107059D01*
X9585000Y-6110000D01*
X9585000Y-6210000D01*
X9584856Y-6212940D01*
X9584424Y-6215853D01*
X9583708Y-6218708D01*
X9582717Y-6221480D01*
X9581458Y-6224142D01*
X9579944Y-6226667D01*
X9578190Y-6229032D01*
X9576213Y-6231213D01*
X9574032Y-6233190D01*
X9571667Y-6234944D01*
X9569142Y-6236458D01*
X9566481Y-6237716D01*
X9563709Y-6238708D01*
X9560853Y-6239424D01*
X9557941Y-6239855D01*
X9555000Y-6240000D01*
X9555000Y-6240000D01*
X9552059Y-6239855D01*
X9549147Y-6239424D01*
X9546291Y-6238708D01*
X9543519Y-6237716D01*
X9540858Y-6236458D01*
X9538333Y-6234944D01*
X9535968Y-6233190D01*
X9533787Y-6231213D01*
X9531810Y-6229032D01*
X9530056Y-6226667D01*
X9528542Y-6224142D01*
X9527284Y-6221480D01*
X9526292Y-6218708D01*
X9525576Y-6215853D01*
X9525144Y-6212940D01*
X9525000Y-6210000D01*
X9525000Y-6110000D01*
X9525144Y-6107059D01*
X9525576Y-6104147D01*
X9526292Y-6101291D01*
X9527284Y-6098519D01*
X9528542Y-6095858D01*
X9530056Y-6093333D01*
X9531810Y-6090968D01*
X9533787Y-6088787D01*
X9535968Y-6086810D01*
X9538333Y-6085056D01*
X9540858Y-6083542D01*
X9543519Y-6082284D01*
X9546291Y-6081292D01*
X9549147Y-6080576D01*
X9552059Y-6080144D01*
X9555000Y-6080000D01*
X9555000Y-6080000D01*
X9557941Y-6080144D01*
X9557941Y-6080144D01*
G37*
D14*
X9555000Y-6160000D03*
D15*
X9527500Y-6160000D03*
X9527500Y-6320000D03*
D13*
G36*
X9557941Y-6240144D02*
X9560853Y-6240576D01*
X9563709Y-6241292D01*
X9566481Y-6242284D01*
X9569142Y-6243542D01*
X9571667Y-6245056D01*
X9574032Y-6246810D01*
X9576213Y-6248787D01*
X9578190Y-6250968D01*
X9579944Y-6253333D01*
X9581458Y-6255858D01*
X9582717Y-6258519D01*
X9583708Y-6261291D01*
X9584424Y-6264147D01*
X9584856Y-6267059D01*
X9585000Y-6270000D01*
X9585000Y-6370000D01*
X9584856Y-6372940D01*
X9584424Y-6375853D01*
X9583708Y-6378708D01*
X9582717Y-6381480D01*
X9581458Y-6384142D01*
X9579944Y-6386667D01*
X9578190Y-6389032D01*
X9576213Y-6391213D01*
X9574032Y-6393190D01*
X9571667Y-6394944D01*
X9569142Y-6396458D01*
X9566481Y-6397716D01*
X9563709Y-6398708D01*
X9560853Y-6399424D01*
X9557941Y-6399855D01*
X9555000Y-6400000D01*
X9555000Y-6400000D01*
X9552059Y-6399855D01*
X9549147Y-6399424D01*
X9546291Y-6398708D01*
X9543519Y-6397716D01*
X9540858Y-6396458D01*
X9538333Y-6394944D01*
X9535968Y-6393190D01*
X9533787Y-6391213D01*
X9531810Y-6389032D01*
X9530056Y-6386667D01*
X9528542Y-6384142D01*
X9527284Y-6381480D01*
X9526292Y-6378708D01*
X9525576Y-6375853D01*
X9525144Y-6372940D01*
X9525000Y-6370000D01*
X9525000Y-6270000D01*
X9525144Y-6267059D01*
X9525576Y-6264147D01*
X9526292Y-6261291D01*
X9527284Y-6258519D01*
X9528542Y-6255858D01*
X9530056Y-6253333D01*
X9531810Y-6250968D01*
X9533787Y-6248787D01*
X9535968Y-6246810D01*
X9538333Y-6245056D01*
X9540858Y-6243542D01*
X9543519Y-6242284D01*
X9546291Y-6241292D01*
X9549147Y-6240576D01*
X9552059Y-6240144D01*
X9555000Y-6240000D01*
X9555000Y-6240000D01*
X9557941Y-6240144D01*
X9557941Y-6240144D01*
G37*
D14*
X9555000Y-6320000D03*
D13*
G36*
X9557941Y-6940144D02*
X9560853Y-6940576D01*
X9563709Y-6941292D01*
X9566481Y-6942284D01*
X9569142Y-6943542D01*
X9571667Y-6945056D01*
X9574032Y-6946810D01*
X9576213Y-6948787D01*
X9578190Y-6950968D01*
X9579944Y-6953333D01*
X9581458Y-6955858D01*
X9582717Y-6958519D01*
X9583708Y-6961291D01*
X9584424Y-6964147D01*
X9584856Y-6967059D01*
X9585000Y-6970000D01*
X9585000Y-7070000D01*
X9584856Y-7072940D01*
X9584424Y-7075853D01*
X9583708Y-7078708D01*
X9582717Y-7081480D01*
X9581458Y-7084142D01*
X9579944Y-7086667D01*
X9578190Y-7089032D01*
X9576213Y-7091213D01*
X9574032Y-7093190D01*
X9571667Y-7094944D01*
X9569142Y-7096458D01*
X9566481Y-7097716D01*
X9563709Y-7098708D01*
X9560853Y-7099424D01*
X9557941Y-7099855D01*
X9555000Y-7100000D01*
X9555000Y-7100000D01*
X9552059Y-7099855D01*
X9549147Y-7099424D01*
X9546291Y-7098708D01*
X9543519Y-7097716D01*
X9540858Y-7096458D01*
X9538333Y-7094944D01*
X9535968Y-7093190D01*
X9533787Y-7091213D01*
X9531810Y-7089032D01*
X9530056Y-7086667D01*
X9528542Y-7084142D01*
X9527284Y-7081480D01*
X9526292Y-7078708D01*
X9525576Y-7075853D01*
X9525144Y-7072940D01*
X9525000Y-7070000D01*
X9525000Y-6970000D01*
X9525144Y-6967059D01*
X9525576Y-6964147D01*
X9526292Y-6961291D01*
X9527284Y-6958519D01*
X9528542Y-6955858D01*
X9530056Y-6953333D01*
X9531810Y-6950968D01*
X9533787Y-6948787D01*
X9535968Y-6946810D01*
X9538333Y-6945056D01*
X9540858Y-6943542D01*
X9543519Y-6942284D01*
X9546291Y-6941292D01*
X9549147Y-6940576D01*
X9552059Y-6940144D01*
X9555000Y-6940000D01*
X9555000Y-6940000D01*
X9557941Y-6940144D01*
X9557941Y-6940144D01*
G37*
D14*
X9555000Y-7020000D03*
D15*
X9527500Y-7020000D03*
X9527500Y-6860000D03*
D13*
G36*
X9557941Y-6780144D02*
X9560853Y-6780576D01*
X9563709Y-6781292D01*
X9566481Y-6782284D01*
X9569142Y-6783542D01*
X9571667Y-6785056D01*
X9574032Y-6786810D01*
X9576213Y-6788787D01*
X9578190Y-6790968D01*
X9579944Y-6793333D01*
X9581458Y-6795858D01*
X9582717Y-6798519D01*
X9583708Y-6801291D01*
X9584424Y-6804147D01*
X9584856Y-6807059D01*
X9585000Y-6810000D01*
X9585000Y-6910000D01*
X9584856Y-6912940D01*
X9584424Y-6915853D01*
X9583708Y-6918708D01*
X9582717Y-6921480D01*
X9581458Y-6924142D01*
X9579944Y-6926667D01*
X9578190Y-6929032D01*
X9576213Y-6931213D01*
X9574032Y-6933190D01*
X9571667Y-6934944D01*
X9569142Y-6936458D01*
X9566481Y-6937716D01*
X9563709Y-6938708D01*
X9560853Y-6939424D01*
X9557941Y-6939855D01*
X9555000Y-6940000D01*
X9555000Y-6940000D01*
X9552059Y-6939855D01*
X9549147Y-6939424D01*
X9546291Y-6938708D01*
X9543519Y-6937716D01*
X9540858Y-6936458D01*
X9538333Y-6934944D01*
X9535968Y-6933190D01*
X9533787Y-6931213D01*
X9531810Y-6929032D01*
X9530056Y-6926667D01*
X9528542Y-6924142D01*
X9527284Y-6921480D01*
X9526292Y-6918708D01*
X9525576Y-6915853D01*
X9525144Y-6912940D01*
X9525000Y-6910000D01*
X9525000Y-6810000D01*
X9525144Y-6807059D01*
X9525576Y-6804147D01*
X9526292Y-6801291D01*
X9527284Y-6798519D01*
X9528542Y-6795858D01*
X9530056Y-6793333D01*
X9531810Y-6790968D01*
X9533787Y-6788787D01*
X9535968Y-6786810D01*
X9538333Y-6785056D01*
X9540858Y-6783542D01*
X9543519Y-6782284D01*
X9546291Y-6781292D01*
X9549147Y-6780576D01*
X9552059Y-6780144D01*
X9555000Y-6780000D01*
X9555000Y-6780000D01*
X9557941Y-6780144D01*
X9557941Y-6780144D01*
G37*
D14*
X9555000Y-6860000D03*
D13*
G36*
X9557941Y-7100144D02*
X9560853Y-7100576D01*
X9563709Y-7101292D01*
X9566481Y-7102284D01*
X9569142Y-7103542D01*
X9571667Y-7105056D01*
X9574032Y-7106810D01*
X9576213Y-7108787D01*
X9578190Y-7110968D01*
X9579944Y-7113333D01*
X9581458Y-7115858D01*
X9582717Y-7118519D01*
X9583708Y-7121291D01*
X9584424Y-7124147D01*
X9584856Y-7127059D01*
X9585000Y-7130000D01*
X9585000Y-7230000D01*
X9584856Y-7232940D01*
X9584424Y-7235853D01*
X9583708Y-7238708D01*
X9582717Y-7241480D01*
X9581458Y-7244142D01*
X9579944Y-7246667D01*
X9578190Y-7249032D01*
X9576213Y-7251213D01*
X9574032Y-7253190D01*
X9571667Y-7254944D01*
X9569142Y-7256458D01*
X9566481Y-7257716D01*
X9563709Y-7258708D01*
X9560853Y-7259424D01*
X9557941Y-7259855D01*
X9555000Y-7260000D01*
X9555000Y-7260000D01*
X9552059Y-7259855D01*
X9549147Y-7259424D01*
X9546291Y-7258708D01*
X9543519Y-7257716D01*
X9540858Y-7256458D01*
X9538333Y-7254944D01*
X9535968Y-7253190D01*
X9533787Y-7251213D01*
X9531810Y-7249032D01*
X9530056Y-7246667D01*
X9528542Y-7244142D01*
X9527284Y-7241480D01*
X9526292Y-7238708D01*
X9525576Y-7235853D01*
X9525144Y-7232940D01*
X9525000Y-7230000D01*
X9525000Y-7130000D01*
X9525144Y-7127059D01*
X9525576Y-7124147D01*
X9526292Y-7121291D01*
X9527284Y-7118519D01*
X9528542Y-7115858D01*
X9530056Y-7113333D01*
X9531810Y-7110968D01*
X9533787Y-7108787D01*
X9535968Y-7106810D01*
X9538333Y-7105056D01*
X9540858Y-7103542D01*
X9543519Y-7102284D01*
X9546291Y-7101292D01*
X9549147Y-7100576D01*
X9552059Y-7100144D01*
X9555000Y-7100000D01*
X9555000Y-7100000D01*
X9557941Y-7100144D01*
X9557941Y-7100144D01*
G37*
D14*
X9555000Y-7180000D03*
D15*
X9527500Y-7180000D03*
X9527500Y-7340000D03*
D13*
G36*
X9557941Y-7260144D02*
X9560853Y-7260576D01*
X9563709Y-7261292D01*
X9566481Y-7262284D01*
X9569142Y-7263542D01*
X9571667Y-7265056D01*
X9574032Y-7266810D01*
X9576213Y-7268787D01*
X9578190Y-7270968D01*
X9579944Y-7273333D01*
X9581458Y-7275858D01*
X9582717Y-7278519D01*
X9583708Y-7281291D01*
X9584424Y-7284147D01*
X9584856Y-7287059D01*
X9585000Y-7290000D01*
X9585000Y-7390000D01*
X9584856Y-7392940D01*
X9584424Y-7395853D01*
X9583708Y-7398708D01*
X9582717Y-7401480D01*
X9581458Y-7404142D01*
X9579944Y-7406667D01*
X9578190Y-7409032D01*
X9576213Y-7411213D01*
X9574032Y-7413190D01*
X9571667Y-7414944D01*
X9569142Y-7416458D01*
X9566481Y-7417716D01*
X9563709Y-7418708D01*
X9560853Y-7419424D01*
X9557941Y-7419855D01*
X9555000Y-7420000D01*
X9555000Y-7420000D01*
X9552059Y-7419855D01*
X9549147Y-7419424D01*
X9546291Y-7418708D01*
X9543519Y-7417716D01*
X9540858Y-7416458D01*
X9538333Y-7414944D01*
X9535968Y-7413190D01*
X9533787Y-7411213D01*
X9531810Y-7409032D01*
X9530056Y-7406667D01*
X9528542Y-7404142D01*
X9527284Y-7401480D01*
X9526292Y-7398708D01*
X9525576Y-7395853D01*
X9525144Y-7392940D01*
X9525000Y-7390000D01*
X9525000Y-7290000D01*
X9525144Y-7287059D01*
X9525576Y-7284147D01*
X9526292Y-7281291D01*
X9527284Y-7278519D01*
X9528542Y-7275858D01*
X9530056Y-7273333D01*
X9531810Y-7270968D01*
X9533787Y-7268787D01*
X9535968Y-7266810D01*
X9538333Y-7265056D01*
X9540858Y-7263542D01*
X9543519Y-7262284D01*
X9546291Y-7261292D01*
X9549147Y-7260576D01*
X9552059Y-7260144D01*
X9555000Y-7260000D01*
X9555000Y-7260000D01*
X9557941Y-7260144D01*
X9557941Y-7260144D01*
G37*
D14*
X9555000Y-7340000D03*
D13*
G36*
X10447941Y-6940144D02*
X10450853Y-6940576D01*
X10453709Y-6941292D01*
X10456481Y-6942284D01*
X10459142Y-6943542D01*
X10461667Y-6945056D01*
X10464032Y-6946810D01*
X10466213Y-6948787D01*
X10468190Y-6950968D01*
X10469944Y-6953333D01*
X10471458Y-6955858D01*
X10472717Y-6958519D01*
X10473708Y-6961291D01*
X10474424Y-6964147D01*
X10474856Y-6967059D01*
X10475000Y-6970000D01*
X10475000Y-7070000D01*
X10474856Y-7072940D01*
X10474424Y-7075853D01*
X10473708Y-7078708D01*
X10472717Y-7081480D01*
X10471458Y-7084142D01*
X10469944Y-7086667D01*
X10468190Y-7089032D01*
X10466213Y-7091213D01*
X10464032Y-7093190D01*
X10461667Y-7094944D01*
X10459142Y-7096458D01*
X10456481Y-7097716D01*
X10453709Y-7098708D01*
X10450853Y-7099424D01*
X10447941Y-7099855D01*
X10445000Y-7100000D01*
X10445000Y-7100000D01*
X10442059Y-7099855D01*
X10439147Y-7099424D01*
X10436291Y-7098708D01*
X10433519Y-7097716D01*
X10430858Y-7096458D01*
X10428333Y-7094944D01*
X10425968Y-7093190D01*
X10423787Y-7091213D01*
X10421810Y-7089032D01*
X10420056Y-7086667D01*
X10418542Y-7084142D01*
X10417284Y-7081480D01*
X10416292Y-7078708D01*
X10415576Y-7075853D01*
X10415144Y-7072940D01*
X10415000Y-7070000D01*
X10415000Y-6970000D01*
X10415144Y-6967059D01*
X10415576Y-6964147D01*
X10416292Y-6961291D01*
X10417284Y-6958519D01*
X10418542Y-6955858D01*
X10420056Y-6953333D01*
X10421810Y-6950968D01*
X10423787Y-6948787D01*
X10425968Y-6946810D01*
X10428333Y-6945056D01*
X10430858Y-6943542D01*
X10433519Y-6942284D01*
X10436291Y-6941292D01*
X10439147Y-6940576D01*
X10442059Y-6940144D01*
X10445000Y-6940000D01*
X10445000Y-6940000D01*
X10447941Y-6940144D01*
X10447941Y-6940144D01*
G37*
D14*
X10445000Y-7020000D03*
D15*
X10472500Y-7020000D03*
X10472500Y-6860000D03*
D13*
G36*
X10447941Y-6780144D02*
X10450853Y-6780576D01*
X10453709Y-6781292D01*
X10456481Y-6782284D01*
X10459142Y-6783542D01*
X10461667Y-6785056D01*
X10464032Y-6786810D01*
X10466213Y-6788787D01*
X10468190Y-6790968D01*
X10469944Y-6793333D01*
X10471458Y-6795858D01*
X10472717Y-6798519D01*
X10473708Y-6801291D01*
X10474424Y-6804147D01*
X10474856Y-6807059D01*
X10475000Y-6810000D01*
X10475000Y-6910000D01*
X10474856Y-6912940D01*
X10474424Y-6915853D01*
X10473708Y-6918708D01*
X10472717Y-6921480D01*
X10471458Y-6924142D01*
X10469944Y-6926667D01*
X10468190Y-6929032D01*
X10466213Y-6931213D01*
X10464032Y-6933190D01*
X10461667Y-6934944D01*
X10459142Y-6936458D01*
X10456481Y-6937716D01*
X10453709Y-6938708D01*
X10450853Y-6939424D01*
X10447941Y-6939855D01*
X10445000Y-6940000D01*
X10445000Y-6940000D01*
X10442059Y-6939855D01*
X10439147Y-6939424D01*
X10436291Y-6938708D01*
X10433519Y-6937716D01*
X10430858Y-6936458D01*
X10428333Y-6934944D01*
X10425968Y-6933190D01*
X10423787Y-6931213D01*
X10421810Y-6929032D01*
X10420056Y-6926667D01*
X10418542Y-6924142D01*
X10417284Y-6921480D01*
X10416292Y-6918708D01*
X10415576Y-6915853D01*
X10415144Y-6912940D01*
X10415000Y-6910000D01*
X10415000Y-6810000D01*
X10415144Y-6807059D01*
X10415576Y-6804147D01*
X10416292Y-6801291D01*
X10417284Y-6798519D01*
X10418542Y-6795858D01*
X10420056Y-6793333D01*
X10421810Y-6790968D01*
X10423787Y-6788787D01*
X10425968Y-6786810D01*
X10428333Y-6785056D01*
X10430858Y-6783542D01*
X10433519Y-6782284D01*
X10436291Y-6781292D01*
X10439147Y-6780576D01*
X10442059Y-6780144D01*
X10445000Y-6780000D01*
X10445000Y-6780000D01*
X10447941Y-6780144D01*
X10447941Y-6780144D01*
G37*
D14*
X10445000Y-6860000D03*
D13*
G36*
X10447941Y-7100144D02*
X10450853Y-7100576D01*
X10453709Y-7101292D01*
X10456481Y-7102284D01*
X10459142Y-7103542D01*
X10461667Y-7105056D01*
X10464032Y-7106810D01*
X10466213Y-7108787D01*
X10468190Y-7110968D01*
X10469944Y-7113333D01*
X10471458Y-7115858D01*
X10472717Y-7118519D01*
X10473708Y-7121291D01*
X10474424Y-7124147D01*
X10474856Y-7127059D01*
X10475000Y-7130000D01*
X10475000Y-7230000D01*
X10474856Y-7232940D01*
X10474424Y-7235853D01*
X10473708Y-7238708D01*
X10472717Y-7241480D01*
X10471458Y-7244142D01*
X10469944Y-7246667D01*
X10468190Y-7249032D01*
X10466213Y-7251213D01*
X10464032Y-7253190D01*
X10461667Y-7254944D01*
X10459142Y-7256458D01*
X10456481Y-7257716D01*
X10453709Y-7258708D01*
X10450853Y-7259424D01*
X10447941Y-7259855D01*
X10445000Y-7260000D01*
X10445000Y-7260000D01*
X10442059Y-7259855D01*
X10439147Y-7259424D01*
X10436291Y-7258708D01*
X10433519Y-7257716D01*
X10430858Y-7256458D01*
X10428333Y-7254944D01*
X10425968Y-7253190D01*
X10423787Y-7251213D01*
X10421810Y-7249032D01*
X10420056Y-7246667D01*
X10418542Y-7244142D01*
X10417284Y-7241480D01*
X10416292Y-7238708D01*
X10415576Y-7235853D01*
X10415144Y-7232940D01*
X10415000Y-7230000D01*
X10415000Y-7130000D01*
X10415144Y-7127059D01*
X10415576Y-7124147D01*
X10416292Y-7121291D01*
X10417284Y-7118519D01*
X10418542Y-7115858D01*
X10420056Y-7113333D01*
X10421810Y-7110968D01*
X10423787Y-7108787D01*
X10425968Y-7106810D01*
X10428333Y-7105056D01*
X10430858Y-7103542D01*
X10433519Y-7102284D01*
X10436291Y-7101292D01*
X10439147Y-7100576D01*
X10442059Y-7100144D01*
X10445000Y-7100000D01*
X10445000Y-7100000D01*
X10447941Y-7100144D01*
X10447941Y-7100144D01*
G37*
D14*
X10445000Y-7180000D03*
D15*
X10472500Y-7180000D03*
X10472500Y-7340000D03*
D13*
G36*
X10447941Y-7260144D02*
X10450853Y-7260576D01*
X10453709Y-7261292D01*
X10456481Y-7262284D01*
X10459142Y-7263542D01*
X10461667Y-7265056D01*
X10464032Y-7266810D01*
X10466213Y-7268787D01*
X10468190Y-7270968D01*
X10469944Y-7273333D01*
X10471458Y-7275858D01*
X10472717Y-7278519D01*
X10473708Y-7281291D01*
X10474424Y-7284147D01*
X10474856Y-7287059D01*
X10475000Y-7290000D01*
X10475000Y-7390000D01*
X10474856Y-7392940D01*
X10474424Y-7395853D01*
X10473708Y-7398708D01*
X10472717Y-7401480D01*
X10471458Y-7404142D01*
X10469944Y-7406667D01*
X10468190Y-7409032D01*
X10466213Y-7411213D01*
X10464032Y-7413190D01*
X10461667Y-7414944D01*
X10459142Y-7416458D01*
X10456481Y-7417716D01*
X10453709Y-7418708D01*
X10450853Y-7419424D01*
X10447941Y-7419855D01*
X10445000Y-7420000D01*
X10445000Y-7420000D01*
X10442059Y-7419855D01*
X10439147Y-7419424D01*
X10436291Y-7418708D01*
X10433519Y-7417716D01*
X10430858Y-7416458D01*
X10428333Y-7414944D01*
X10425968Y-7413190D01*
X10423787Y-7411213D01*
X10421810Y-7409032D01*
X10420056Y-7406667D01*
X10418542Y-7404142D01*
X10417284Y-7401480D01*
X10416292Y-7398708D01*
X10415576Y-7395853D01*
X10415144Y-7392940D01*
X10415000Y-7390000D01*
X10415000Y-7290000D01*
X10415144Y-7287059D01*
X10415576Y-7284147D01*
X10416292Y-7281291D01*
X10417284Y-7278519D01*
X10418542Y-7275858D01*
X10420056Y-7273333D01*
X10421810Y-7270968D01*
X10423787Y-7268787D01*
X10425968Y-7266810D01*
X10428333Y-7265056D01*
X10430858Y-7263542D01*
X10433519Y-7262284D01*
X10436291Y-7261292D01*
X10439147Y-7260576D01*
X10442059Y-7260144D01*
X10445000Y-7260000D01*
X10445000Y-7260000D01*
X10447941Y-7260144D01*
X10447941Y-7260144D01*
G37*
D14*
X10445000Y-7340000D03*
D11*
X10250000Y-6940000D03*
X9750000Y-7260000D03*
X9750000Y-6940000D03*
D12*
X10250000Y-7260000D03*
D11*
X10250000Y-7100000D03*
X9750000Y-7100000D03*
D10*
X10000000Y-7100000D03*
X10000000Y-5700000D03*
D11*
X9750000Y-5700000D03*
X10250000Y-5700000D03*
D12*
X10250000Y-5860000D03*
D11*
X9750000Y-5540000D03*
X9750000Y-5860000D03*
X10250000Y-5540000D03*
D13*
G36*
X10447941Y-5860144D02*
X10450853Y-5860576D01*
X10453709Y-5861292D01*
X10456481Y-5862284D01*
X10459142Y-5863542D01*
X10461667Y-5865056D01*
X10464032Y-5866810D01*
X10466213Y-5868787D01*
X10468190Y-5870968D01*
X10469944Y-5873333D01*
X10471458Y-5875858D01*
X10472717Y-5878519D01*
X10473708Y-5881291D01*
X10474424Y-5884147D01*
X10474856Y-5887059D01*
X10475000Y-5890000D01*
X10475000Y-5990000D01*
X10474856Y-5992940D01*
X10474424Y-5995853D01*
X10473708Y-5998708D01*
X10472717Y-6001480D01*
X10471458Y-6004142D01*
X10469944Y-6006667D01*
X10468190Y-6009032D01*
X10466213Y-6011213D01*
X10464032Y-6013190D01*
X10461667Y-6014944D01*
X10459142Y-6016458D01*
X10456481Y-6017716D01*
X10453709Y-6018708D01*
X10450853Y-6019424D01*
X10447941Y-6019855D01*
X10445000Y-6020000D01*
X10445000Y-6020000D01*
X10442059Y-6019855D01*
X10439147Y-6019424D01*
X10436291Y-6018708D01*
X10433519Y-6017716D01*
X10430858Y-6016458D01*
X10428333Y-6014944D01*
X10425968Y-6013190D01*
X10423787Y-6011213D01*
X10421810Y-6009032D01*
X10420056Y-6006667D01*
X10418542Y-6004142D01*
X10417284Y-6001480D01*
X10416292Y-5998708D01*
X10415576Y-5995853D01*
X10415144Y-5992940D01*
X10415000Y-5990000D01*
X10415000Y-5890000D01*
X10415144Y-5887059D01*
X10415576Y-5884147D01*
X10416292Y-5881291D01*
X10417284Y-5878519D01*
X10418542Y-5875858D01*
X10420056Y-5873333D01*
X10421810Y-5870968D01*
X10423787Y-5868787D01*
X10425968Y-5866810D01*
X10428333Y-5865056D01*
X10430858Y-5863542D01*
X10433519Y-5862284D01*
X10436291Y-5861292D01*
X10439147Y-5860576D01*
X10442059Y-5860144D01*
X10445000Y-5860000D01*
X10445000Y-5860000D01*
X10447941Y-5860144D01*
X10447941Y-5860144D01*
G37*
D14*
X10445000Y-5940000D03*
D15*
X10472500Y-5940000D03*
X10472500Y-5780000D03*
D13*
G36*
X10447941Y-5700144D02*
X10450853Y-5700576D01*
X10453709Y-5701292D01*
X10456481Y-5702284D01*
X10459142Y-5703542D01*
X10461667Y-5705056D01*
X10464032Y-5706810D01*
X10466213Y-5708787D01*
X10468190Y-5710968D01*
X10469944Y-5713333D01*
X10471458Y-5715858D01*
X10472717Y-5718519D01*
X10473708Y-5721291D01*
X10474424Y-5724147D01*
X10474856Y-5727059D01*
X10475000Y-5730000D01*
X10475000Y-5830000D01*
X10474856Y-5832940D01*
X10474424Y-5835853D01*
X10473708Y-5838708D01*
X10472717Y-5841480D01*
X10471458Y-5844142D01*
X10469944Y-5846667D01*
X10468190Y-5849032D01*
X10466213Y-5851213D01*
X10464032Y-5853190D01*
X10461667Y-5854944D01*
X10459142Y-5856458D01*
X10456481Y-5857716D01*
X10453709Y-5858708D01*
X10450853Y-5859424D01*
X10447941Y-5859855D01*
X10445000Y-5860000D01*
X10445000Y-5860000D01*
X10442059Y-5859855D01*
X10439147Y-5859424D01*
X10436291Y-5858708D01*
X10433519Y-5857716D01*
X10430858Y-5856458D01*
X10428333Y-5854944D01*
X10425968Y-5853190D01*
X10423787Y-5851213D01*
X10421810Y-5849032D01*
X10420056Y-5846667D01*
X10418542Y-5844142D01*
X10417284Y-5841480D01*
X10416292Y-5838708D01*
X10415576Y-5835853D01*
X10415144Y-5832940D01*
X10415000Y-5830000D01*
X10415000Y-5730000D01*
X10415144Y-5727059D01*
X10415576Y-5724147D01*
X10416292Y-5721291D01*
X10417284Y-5718519D01*
X10418542Y-5715858D01*
X10420056Y-5713333D01*
X10421810Y-5710968D01*
X10423787Y-5708787D01*
X10425968Y-5706810D01*
X10428333Y-5705056D01*
X10430858Y-5703542D01*
X10433519Y-5702284D01*
X10436291Y-5701292D01*
X10439147Y-5700576D01*
X10442059Y-5700144D01*
X10445000Y-5700000D01*
X10445000Y-5700000D01*
X10447941Y-5700144D01*
X10447941Y-5700144D01*
G37*
D14*
X10445000Y-5780000D03*
D13*
G36*
X10447941Y-5380145D02*
X10450853Y-5380576D01*
X10453709Y-5381292D01*
X10456481Y-5382284D01*
X10459142Y-5383542D01*
X10461667Y-5385056D01*
X10464032Y-5386810D01*
X10466213Y-5388787D01*
X10468190Y-5390968D01*
X10469944Y-5393333D01*
X10471458Y-5395858D01*
X10472717Y-5398520D01*
X10473708Y-5401292D01*
X10474424Y-5404147D01*
X10474856Y-5407060D01*
X10475000Y-5410000D01*
X10475000Y-5510000D01*
X10474856Y-5512941D01*
X10474424Y-5515853D01*
X10473708Y-5518709D01*
X10472717Y-5521481D01*
X10471458Y-5524142D01*
X10469944Y-5526667D01*
X10468190Y-5529032D01*
X10466213Y-5531213D01*
X10464032Y-5533190D01*
X10461667Y-5534944D01*
X10459142Y-5536458D01*
X10456481Y-5537716D01*
X10453709Y-5538708D01*
X10450853Y-5539424D01*
X10447941Y-5539856D01*
X10445000Y-5540000D01*
X10445000Y-5540000D01*
X10442059Y-5539856D01*
X10439147Y-5539424D01*
X10436291Y-5538708D01*
X10433519Y-5537716D01*
X10430858Y-5536458D01*
X10428333Y-5534944D01*
X10425968Y-5533190D01*
X10423787Y-5531213D01*
X10421810Y-5529032D01*
X10420056Y-5526667D01*
X10418542Y-5524142D01*
X10417284Y-5521481D01*
X10416292Y-5518709D01*
X10415576Y-5515853D01*
X10415144Y-5512941D01*
X10415000Y-5510000D01*
X10415000Y-5410000D01*
X10415144Y-5407060D01*
X10415576Y-5404147D01*
X10416292Y-5401292D01*
X10417284Y-5398520D01*
X10418542Y-5395858D01*
X10420056Y-5393333D01*
X10421810Y-5390968D01*
X10423787Y-5388787D01*
X10425968Y-5386810D01*
X10428333Y-5385056D01*
X10430858Y-5383542D01*
X10433519Y-5382284D01*
X10436291Y-5381292D01*
X10439147Y-5380576D01*
X10442059Y-5380145D01*
X10445000Y-5380000D01*
X10445000Y-5380000D01*
X10447941Y-5380145D01*
X10447941Y-5380145D01*
G37*
D14*
X10445000Y-5460000D03*
D15*
X10472500Y-5460000D03*
X10472500Y-5620000D03*
D13*
G36*
X10447941Y-5540145D02*
X10450853Y-5540576D01*
X10453709Y-5541292D01*
X10456481Y-5542284D01*
X10459142Y-5543542D01*
X10461667Y-5545056D01*
X10464032Y-5546810D01*
X10466213Y-5548787D01*
X10468190Y-5550968D01*
X10469944Y-5553333D01*
X10471458Y-5555858D01*
X10472717Y-5558520D01*
X10473708Y-5561292D01*
X10474424Y-5564147D01*
X10474856Y-5567060D01*
X10475000Y-5570000D01*
X10475000Y-5670000D01*
X10474856Y-5672940D01*
X10474424Y-5675853D01*
X10473708Y-5678708D01*
X10472717Y-5681480D01*
X10471458Y-5684142D01*
X10469944Y-5686667D01*
X10468190Y-5689032D01*
X10466213Y-5691213D01*
X10464032Y-5693190D01*
X10461667Y-5694944D01*
X10459142Y-5696458D01*
X10456481Y-5697716D01*
X10453709Y-5698708D01*
X10450853Y-5699424D01*
X10447941Y-5699855D01*
X10445000Y-5700000D01*
X10445000Y-5700000D01*
X10442059Y-5699855D01*
X10439147Y-5699424D01*
X10436291Y-5698708D01*
X10433519Y-5697716D01*
X10430858Y-5696458D01*
X10428333Y-5694944D01*
X10425968Y-5693190D01*
X10423787Y-5691213D01*
X10421810Y-5689032D01*
X10420056Y-5686667D01*
X10418542Y-5684142D01*
X10417284Y-5681480D01*
X10416292Y-5678708D01*
X10415576Y-5675853D01*
X10415144Y-5672940D01*
X10415000Y-5670000D01*
X10415000Y-5570000D01*
X10415144Y-5567060D01*
X10415576Y-5564147D01*
X10416292Y-5561292D01*
X10417284Y-5558520D01*
X10418542Y-5555858D01*
X10420056Y-5553333D01*
X10421810Y-5550968D01*
X10423787Y-5548787D01*
X10425968Y-5546810D01*
X10428333Y-5545056D01*
X10430858Y-5543542D01*
X10433519Y-5542284D01*
X10436291Y-5541292D01*
X10439147Y-5540576D01*
X10442059Y-5540145D01*
X10445000Y-5540000D01*
X10445000Y-5540000D01*
X10447941Y-5540145D01*
X10447941Y-5540145D01*
G37*
D14*
X10445000Y-5620000D03*
D13*
G36*
X9557941Y-5860144D02*
X9560853Y-5860576D01*
X9563709Y-5861292D01*
X9566481Y-5862284D01*
X9569142Y-5863542D01*
X9571667Y-5865056D01*
X9574032Y-5866810D01*
X9576213Y-5868787D01*
X9578190Y-5870968D01*
X9579944Y-5873333D01*
X9581458Y-5875858D01*
X9582717Y-5878519D01*
X9583708Y-5881291D01*
X9584424Y-5884147D01*
X9584856Y-5887059D01*
X9585000Y-5890000D01*
X9585000Y-5990000D01*
X9584856Y-5992940D01*
X9584424Y-5995853D01*
X9583708Y-5998708D01*
X9582717Y-6001480D01*
X9581458Y-6004142D01*
X9579944Y-6006667D01*
X9578190Y-6009032D01*
X9576213Y-6011213D01*
X9574032Y-6013190D01*
X9571667Y-6014944D01*
X9569142Y-6016458D01*
X9566481Y-6017716D01*
X9563709Y-6018708D01*
X9560853Y-6019424D01*
X9557941Y-6019855D01*
X9555000Y-6020000D01*
X9555000Y-6020000D01*
X9552059Y-6019855D01*
X9549147Y-6019424D01*
X9546291Y-6018708D01*
X9543519Y-6017716D01*
X9540858Y-6016458D01*
X9538333Y-6014944D01*
X9535968Y-6013190D01*
X9533787Y-6011213D01*
X9531810Y-6009032D01*
X9530056Y-6006667D01*
X9528542Y-6004142D01*
X9527284Y-6001480D01*
X9526292Y-5998708D01*
X9525576Y-5995853D01*
X9525144Y-5992940D01*
X9525000Y-5990000D01*
X9525000Y-5890000D01*
X9525144Y-5887059D01*
X9525576Y-5884147D01*
X9526292Y-5881291D01*
X9527284Y-5878519D01*
X9528542Y-5875858D01*
X9530056Y-5873333D01*
X9531810Y-5870968D01*
X9533787Y-5868787D01*
X9535968Y-5866810D01*
X9538333Y-5865056D01*
X9540858Y-5863542D01*
X9543519Y-5862284D01*
X9546291Y-5861292D01*
X9549147Y-5860576D01*
X9552059Y-5860144D01*
X9555000Y-5860000D01*
X9555000Y-5860000D01*
X9557941Y-5860144D01*
X9557941Y-5860144D01*
G37*
D14*
X9555000Y-5940000D03*
D15*
X9527500Y-5940000D03*
X9527500Y-5780000D03*
D13*
G36*
X9557941Y-5700144D02*
X9560853Y-5700576D01*
X9563709Y-5701292D01*
X9566481Y-5702284D01*
X9569142Y-5703542D01*
X9571667Y-5705056D01*
X9574032Y-5706810D01*
X9576213Y-5708787D01*
X9578190Y-5710968D01*
X9579944Y-5713333D01*
X9581458Y-5715858D01*
X9582717Y-5718519D01*
X9583708Y-5721291D01*
X9584424Y-5724147D01*
X9584856Y-5727059D01*
X9585000Y-5730000D01*
X9585000Y-5830000D01*
X9584856Y-5832940D01*
X9584424Y-5835853D01*
X9583708Y-5838708D01*
X9582717Y-5841480D01*
X9581458Y-5844142D01*
X9579944Y-5846667D01*
X9578190Y-5849032D01*
X9576213Y-5851213D01*
X9574032Y-5853190D01*
X9571667Y-5854944D01*
X9569142Y-5856458D01*
X9566481Y-5857716D01*
X9563709Y-5858708D01*
X9560853Y-5859424D01*
X9557941Y-5859855D01*
X9555000Y-5860000D01*
X9555000Y-5860000D01*
X9552059Y-5859855D01*
X9549147Y-5859424D01*
X9546291Y-5858708D01*
X9543519Y-5857716D01*
X9540858Y-5856458D01*
X9538333Y-5854944D01*
X9535968Y-5853190D01*
X9533787Y-5851213D01*
X9531810Y-5849032D01*
X9530056Y-5846667D01*
X9528542Y-5844142D01*
X9527284Y-5841480D01*
X9526292Y-5838708D01*
X9525576Y-5835853D01*
X9525144Y-5832940D01*
X9525000Y-5830000D01*
X9525000Y-5730000D01*
X9525144Y-5727059D01*
X9525576Y-5724147D01*
X9526292Y-5721291D01*
X9527284Y-5718519D01*
X9528542Y-5715858D01*
X9530056Y-5713333D01*
X9531810Y-5710968D01*
X9533787Y-5708787D01*
X9535968Y-5706810D01*
X9538333Y-5705056D01*
X9540858Y-5703542D01*
X9543519Y-5702284D01*
X9546291Y-5701292D01*
X9549147Y-5700576D01*
X9552059Y-5700144D01*
X9555000Y-5700000D01*
X9555000Y-5700000D01*
X9557941Y-5700144D01*
X9557941Y-5700144D01*
G37*
D14*
X9555000Y-5780000D03*
D13*
G36*
X9557941Y-5380145D02*
X9560853Y-5380576D01*
X9563709Y-5381292D01*
X9566481Y-5382284D01*
X9569142Y-5383542D01*
X9571667Y-5385056D01*
X9574032Y-5386810D01*
X9576213Y-5388787D01*
X9578190Y-5390968D01*
X9579944Y-5393333D01*
X9581458Y-5395858D01*
X9582717Y-5398520D01*
X9583708Y-5401292D01*
X9584424Y-5404147D01*
X9584856Y-5407060D01*
X9585000Y-5410000D01*
X9585000Y-5510000D01*
X9584856Y-5512941D01*
X9584424Y-5515853D01*
X9583708Y-5518709D01*
X9582717Y-5521481D01*
X9581458Y-5524142D01*
X9579944Y-5526667D01*
X9578190Y-5529032D01*
X9576213Y-5531213D01*
X9574032Y-5533190D01*
X9571667Y-5534944D01*
X9569142Y-5536458D01*
X9566481Y-5537716D01*
X9563709Y-5538708D01*
X9560853Y-5539424D01*
X9557941Y-5539856D01*
X9555000Y-5540000D01*
X9555000Y-5540000D01*
X9552059Y-5539856D01*
X9549147Y-5539424D01*
X9546291Y-5538708D01*
X9543519Y-5537716D01*
X9540858Y-5536458D01*
X9538333Y-5534944D01*
X9535968Y-5533190D01*
X9533787Y-5531213D01*
X9531810Y-5529032D01*
X9530056Y-5526667D01*
X9528542Y-5524142D01*
X9527284Y-5521481D01*
X9526292Y-5518709D01*
X9525576Y-5515853D01*
X9525144Y-5512941D01*
X9525000Y-5510000D01*
X9525000Y-5410000D01*
X9525144Y-5407060D01*
X9525576Y-5404147D01*
X9526292Y-5401292D01*
X9527284Y-5398520D01*
X9528542Y-5395858D01*
X9530056Y-5393333D01*
X9531810Y-5390968D01*
X9533787Y-5388787D01*
X9535968Y-5386810D01*
X9538333Y-5385056D01*
X9540858Y-5383542D01*
X9543519Y-5382284D01*
X9546291Y-5381292D01*
X9549147Y-5380576D01*
X9552059Y-5380145D01*
X9555000Y-5380000D01*
X9555000Y-5380000D01*
X9557941Y-5380145D01*
X9557941Y-5380145D01*
G37*
D14*
X9555000Y-5460000D03*
D15*
X9527500Y-5460000D03*
X9527500Y-5620000D03*
D13*
G36*
X9557941Y-5540145D02*
X9560853Y-5540576D01*
X9563709Y-5541292D01*
X9566481Y-5542284D01*
X9569142Y-5543542D01*
X9571667Y-5545056D01*
X9574032Y-5546810D01*
X9576213Y-5548787D01*
X9578190Y-5550968D01*
X9579944Y-5553333D01*
X9581458Y-5555858D01*
X9582717Y-5558520D01*
X9583708Y-5561292D01*
X9584424Y-5564147D01*
X9584856Y-5567060D01*
X9585000Y-5570000D01*
X9585000Y-5670000D01*
X9584856Y-5672940D01*
X9584424Y-5675853D01*
X9583708Y-5678708D01*
X9582717Y-5681480D01*
X9581458Y-5684142D01*
X9579944Y-5686667D01*
X9578190Y-5689032D01*
X9576213Y-5691213D01*
X9574032Y-5693190D01*
X9571667Y-5694944D01*
X9569142Y-5696458D01*
X9566481Y-5697716D01*
X9563709Y-5698708D01*
X9560853Y-5699424D01*
X9557941Y-5699855D01*
X9555000Y-5700000D01*
X9555000Y-5700000D01*
X9552059Y-5699855D01*
X9549147Y-5699424D01*
X9546291Y-5698708D01*
X9543519Y-5697716D01*
X9540858Y-5696458D01*
X9538333Y-5694944D01*
X9535968Y-5693190D01*
X9533787Y-5691213D01*
X9531810Y-5689032D01*
X9530056Y-5686667D01*
X9528542Y-5684142D01*
X9527284Y-5681480D01*
X9526292Y-5678708D01*
X9525576Y-5675853D01*
X9525144Y-5672940D01*
X9525000Y-5670000D01*
X9525000Y-5570000D01*
X9525144Y-5567060D01*
X9525576Y-5564147D01*
X9526292Y-5561292D01*
X9527284Y-5558520D01*
X9528542Y-5555858D01*
X9530056Y-5553333D01*
X9531810Y-5550968D01*
X9533787Y-5548787D01*
X9535968Y-5546810D01*
X9538333Y-5545056D01*
X9540858Y-5543542D01*
X9543519Y-5542284D01*
X9546291Y-5541292D01*
X9549147Y-5540576D01*
X9552059Y-5540145D01*
X9555000Y-5540000D01*
X9555000Y-5540000D01*
X9557941Y-5540145D01*
X9557941Y-5540145D01*
G37*
D14*
X9555000Y-5620000D03*
D13*
G36*
X9557941Y-4840145D02*
X9560853Y-4840576D01*
X9563709Y-4841292D01*
X9566481Y-4842284D01*
X9569142Y-4843542D01*
X9571667Y-4845056D01*
X9574032Y-4846810D01*
X9576213Y-4848787D01*
X9578190Y-4850968D01*
X9579944Y-4853333D01*
X9581458Y-4855858D01*
X9582717Y-4858520D01*
X9583708Y-4861292D01*
X9584424Y-4864147D01*
X9584856Y-4867060D01*
X9585000Y-4870000D01*
X9585000Y-4970000D01*
X9584856Y-4972941D01*
X9584424Y-4975853D01*
X9583708Y-4978709D01*
X9582717Y-4981481D01*
X9581458Y-4984142D01*
X9579944Y-4986667D01*
X9578190Y-4989032D01*
X9576213Y-4991213D01*
X9574032Y-4993190D01*
X9571667Y-4994944D01*
X9569142Y-4996458D01*
X9566481Y-4997716D01*
X9563709Y-4998708D01*
X9560853Y-4999424D01*
X9557941Y-4999856D01*
X9555000Y-5000000D01*
X9555000Y-5000000D01*
X9552059Y-4999856D01*
X9549147Y-4999424D01*
X9546291Y-4998708D01*
X9543519Y-4997716D01*
X9540858Y-4996458D01*
X9538333Y-4994944D01*
X9535968Y-4993190D01*
X9533787Y-4991213D01*
X9531810Y-4989032D01*
X9530056Y-4986667D01*
X9528542Y-4984142D01*
X9527284Y-4981481D01*
X9526292Y-4978709D01*
X9525576Y-4975853D01*
X9525144Y-4972941D01*
X9525000Y-4970000D01*
X9525000Y-4870000D01*
X9525144Y-4867060D01*
X9525576Y-4864147D01*
X9526292Y-4861292D01*
X9527284Y-4858520D01*
X9528542Y-4855858D01*
X9530056Y-4853333D01*
X9531810Y-4850968D01*
X9533787Y-4848787D01*
X9535968Y-4846810D01*
X9538333Y-4845056D01*
X9540858Y-4843542D01*
X9543519Y-4842284D01*
X9546291Y-4841292D01*
X9549147Y-4840576D01*
X9552059Y-4840145D01*
X9555000Y-4840000D01*
X9555000Y-4840000D01*
X9557941Y-4840145D01*
X9557941Y-4840145D01*
G37*
D14*
X9555000Y-4920000D03*
D15*
X9527500Y-4920000D03*
X9527500Y-4760000D03*
D13*
G36*
X9557941Y-4680145D02*
X9560853Y-4680576D01*
X9563709Y-4681292D01*
X9566481Y-4682284D01*
X9569142Y-4683542D01*
X9571667Y-4685056D01*
X9574032Y-4686810D01*
X9576213Y-4688787D01*
X9578190Y-4690968D01*
X9579944Y-4693333D01*
X9581458Y-4695858D01*
X9582717Y-4698520D01*
X9583708Y-4701292D01*
X9584424Y-4704147D01*
X9584856Y-4707060D01*
X9585000Y-4710000D01*
X9585000Y-4810000D01*
X9584856Y-4812941D01*
X9584424Y-4815853D01*
X9583708Y-4818709D01*
X9582717Y-4821481D01*
X9581458Y-4824142D01*
X9579944Y-4826667D01*
X9578190Y-4829032D01*
X9576213Y-4831213D01*
X9574032Y-4833190D01*
X9571667Y-4834944D01*
X9569142Y-4836458D01*
X9566481Y-4837716D01*
X9563709Y-4838708D01*
X9560853Y-4839424D01*
X9557941Y-4839856D01*
X9555000Y-4840000D01*
X9555000Y-4840000D01*
X9552059Y-4839856D01*
X9549147Y-4839424D01*
X9546291Y-4838708D01*
X9543519Y-4837716D01*
X9540858Y-4836458D01*
X9538333Y-4834944D01*
X9535968Y-4833190D01*
X9533787Y-4831213D01*
X9531810Y-4829032D01*
X9530056Y-4826667D01*
X9528542Y-4824142D01*
X9527284Y-4821481D01*
X9526292Y-4818709D01*
X9525576Y-4815853D01*
X9525144Y-4812941D01*
X9525000Y-4810000D01*
X9525000Y-4710000D01*
X9525144Y-4707060D01*
X9525576Y-4704147D01*
X9526292Y-4701292D01*
X9527284Y-4698520D01*
X9528542Y-4695858D01*
X9530056Y-4693333D01*
X9531810Y-4690968D01*
X9533787Y-4688787D01*
X9535968Y-4686810D01*
X9538333Y-4685056D01*
X9540858Y-4683542D01*
X9543519Y-4682284D01*
X9546291Y-4681292D01*
X9549147Y-4680576D01*
X9552059Y-4680145D01*
X9555000Y-4680000D01*
X9555000Y-4680000D01*
X9557941Y-4680145D01*
X9557941Y-4680145D01*
G37*
D14*
X9555000Y-4760000D03*
D13*
G36*
X9557941Y-5000145D02*
X9560853Y-5000576D01*
X9563709Y-5001292D01*
X9566481Y-5002284D01*
X9569142Y-5003542D01*
X9571667Y-5005056D01*
X9574032Y-5006810D01*
X9576213Y-5008787D01*
X9578190Y-5010968D01*
X9579944Y-5013333D01*
X9581458Y-5015858D01*
X9582717Y-5018520D01*
X9583708Y-5021292D01*
X9584424Y-5024147D01*
X9584856Y-5027060D01*
X9585000Y-5030000D01*
X9585000Y-5130000D01*
X9584856Y-5132941D01*
X9584424Y-5135853D01*
X9583708Y-5138709D01*
X9582717Y-5141481D01*
X9581458Y-5144142D01*
X9579944Y-5146667D01*
X9578190Y-5149032D01*
X9576213Y-5151213D01*
X9574032Y-5153190D01*
X9571667Y-5154944D01*
X9569142Y-5156458D01*
X9566481Y-5157716D01*
X9563709Y-5158708D01*
X9560853Y-5159424D01*
X9557941Y-5159856D01*
X9555000Y-5160000D01*
X9555000Y-5160000D01*
X9552059Y-5159856D01*
X9549147Y-5159424D01*
X9546291Y-5158708D01*
X9543519Y-5157716D01*
X9540858Y-5156458D01*
X9538333Y-5154944D01*
X9535968Y-5153190D01*
X9533787Y-5151213D01*
X9531810Y-5149032D01*
X9530056Y-5146667D01*
X9528542Y-5144142D01*
X9527284Y-5141481D01*
X9526292Y-5138709D01*
X9525576Y-5135853D01*
X9525144Y-5132941D01*
X9525000Y-5130000D01*
X9525000Y-5030000D01*
X9525144Y-5027060D01*
X9525576Y-5024147D01*
X9526292Y-5021292D01*
X9527284Y-5018520D01*
X9528542Y-5015858D01*
X9530056Y-5013333D01*
X9531810Y-5010968D01*
X9533787Y-5008787D01*
X9535968Y-5006810D01*
X9538333Y-5005056D01*
X9540858Y-5003542D01*
X9543519Y-5002284D01*
X9546291Y-5001292D01*
X9549147Y-5000576D01*
X9552059Y-5000145D01*
X9555000Y-5000000D01*
X9555000Y-5000000D01*
X9557941Y-5000145D01*
X9557941Y-5000145D01*
G37*
D14*
X9555000Y-5080000D03*
D15*
X9527500Y-5080000D03*
X9527500Y-5240000D03*
D13*
G36*
X9557941Y-5160145D02*
X9560853Y-5160576D01*
X9563709Y-5161292D01*
X9566481Y-5162284D01*
X9569142Y-5163542D01*
X9571667Y-5165056D01*
X9574032Y-5166810D01*
X9576213Y-5168787D01*
X9578190Y-5170968D01*
X9579944Y-5173333D01*
X9581458Y-5175858D01*
X9582717Y-5178520D01*
X9583708Y-5181292D01*
X9584424Y-5184147D01*
X9584856Y-5187060D01*
X9585000Y-5190000D01*
X9585000Y-5290000D01*
X9584856Y-5292941D01*
X9584424Y-5295853D01*
X9583708Y-5298709D01*
X9582717Y-5301481D01*
X9581458Y-5304142D01*
X9579944Y-5306667D01*
X9578190Y-5309032D01*
X9576213Y-5311213D01*
X9574032Y-5313190D01*
X9571667Y-5314944D01*
X9569142Y-5316458D01*
X9566481Y-5317716D01*
X9563709Y-5318708D01*
X9560853Y-5319424D01*
X9557941Y-5319856D01*
X9555000Y-5320000D01*
X9555000Y-5320000D01*
X9552059Y-5319856D01*
X9549147Y-5319424D01*
X9546291Y-5318708D01*
X9543519Y-5317716D01*
X9540858Y-5316458D01*
X9538333Y-5314944D01*
X9535968Y-5313190D01*
X9533787Y-5311213D01*
X9531810Y-5309032D01*
X9530056Y-5306667D01*
X9528542Y-5304142D01*
X9527284Y-5301481D01*
X9526292Y-5298709D01*
X9525576Y-5295853D01*
X9525144Y-5292941D01*
X9525000Y-5290000D01*
X9525000Y-5190000D01*
X9525144Y-5187060D01*
X9525576Y-5184147D01*
X9526292Y-5181292D01*
X9527284Y-5178520D01*
X9528542Y-5175858D01*
X9530056Y-5173333D01*
X9531810Y-5170968D01*
X9533787Y-5168787D01*
X9535968Y-5166810D01*
X9538333Y-5165056D01*
X9540858Y-5163542D01*
X9543519Y-5162284D01*
X9546291Y-5161292D01*
X9549147Y-5160576D01*
X9552059Y-5160145D01*
X9555000Y-5160000D01*
X9555000Y-5160000D01*
X9557941Y-5160145D01*
X9557941Y-5160145D01*
G37*
D14*
X9555000Y-5240000D03*
D13*
G36*
X10447941Y-4840145D02*
X10450853Y-4840576D01*
X10453709Y-4841292D01*
X10456481Y-4842284D01*
X10459142Y-4843542D01*
X10461667Y-4845056D01*
X10464032Y-4846810D01*
X10466213Y-4848787D01*
X10468190Y-4850968D01*
X10469944Y-4853333D01*
X10471458Y-4855858D01*
X10472717Y-4858520D01*
X10473708Y-4861292D01*
X10474424Y-4864147D01*
X10474856Y-4867060D01*
X10475000Y-4870000D01*
X10475000Y-4970000D01*
X10474856Y-4972941D01*
X10474424Y-4975853D01*
X10473708Y-4978709D01*
X10472717Y-4981481D01*
X10471458Y-4984142D01*
X10469944Y-4986667D01*
X10468190Y-4989032D01*
X10466213Y-4991213D01*
X10464032Y-4993190D01*
X10461667Y-4994944D01*
X10459142Y-4996458D01*
X10456481Y-4997716D01*
X10453709Y-4998708D01*
X10450853Y-4999424D01*
X10447941Y-4999856D01*
X10445000Y-5000000D01*
X10445000Y-5000000D01*
X10442059Y-4999856D01*
X10439147Y-4999424D01*
X10436291Y-4998708D01*
X10433519Y-4997716D01*
X10430858Y-4996458D01*
X10428333Y-4994944D01*
X10425968Y-4993190D01*
X10423787Y-4991213D01*
X10421810Y-4989032D01*
X10420056Y-4986667D01*
X10418542Y-4984142D01*
X10417284Y-4981481D01*
X10416292Y-4978709D01*
X10415576Y-4975853D01*
X10415144Y-4972941D01*
X10415000Y-4970000D01*
X10415000Y-4870000D01*
X10415144Y-4867060D01*
X10415576Y-4864147D01*
X10416292Y-4861292D01*
X10417284Y-4858520D01*
X10418542Y-4855858D01*
X10420056Y-4853333D01*
X10421810Y-4850968D01*
X10423787Y-4848787D01*
X10425968Y-4846810D01*
X10428333Y-4845056D01*
X10430858Y-4843542D01*
X10433519Y-4842284D01*
X10436291Y-4841292D01*
X10439147Y-4840576D01*
X10442059Y-4840145D01*
X10445000Y-4840000D01*
X10445000Y-4840000D01*
X10447941Y-4840145D01*
X10447941Y-4840145D01*
G37*
D14*
X10445000Y-4920000D03*
D15*
X10472500Y-4920000D03*
X10472500Y-4760000D03*
D13*
G36*
X10447941Y-4680145D02*
X10450853Y-4680576D01*
X10453709Y-4681292D01*
X10456481Y-4682284D01*
X10459142Y-4683542D01*
X10461667Y-4685056D01*
X10464032Y-4686810D01*
X10466213Y-4688787D01*
X10468190Y-4690968D01*
X10469944Y-4693333D01*
X10471458Y-4695858D01*
X10472717Y-4698520D01*
X10473708Y-4701292D01*
X10474424Y-4704147D01*
X10474856Y-4707060D01*
X10475000Y-4710000D01*
X10475000Y-4810000D01*
X10474856Y-4812941D01*
X10474424Y-4815853D01*
X10473708Y-4818709D01*
X10472717Y-4821481D01*
X10471458Y-4824142D01*
X10469944Y-4826667D01*
X10468190Y-4829032D01*
X10466213Y-4831213D01*
X10464032Y-4833190D01*
X10461667Y-4834944D01*
X10459142Y-4836458D01*
X10456481Y-4837716D01*
X10453709Y-4838708D01*
X10450853Y-4839424D01*
X10447941Y-4839856D01*
X10445000Y-4840000D01*
X10445000Y-4840000D01*
X10442059Y-4839856D01*
X10439147Y-4839424D01*
X10436291Y-4838708D01*
X10433519Y-4837716D01*
X10430858Y-4836458D01*
X10428333Y-4834944D01*
X10425968Y-4833190D01*
X10423787Y-4831213D01*
X10421810Y-4829032D01*
X10420056Y-4826667D01*
X10418542Y-4824142D01*
X10417284Y-4821481D01*
X10416292Y-4818709D01*
X10415576Y-4815853D01*
X10415144Y-4812941D01*
X10415000Y-4810000D01*
X10415000Y-4710000D01*
X10415144Y-4707060D01*
X10415576Y-4704147D01*
X10416292Y-4701292D01*
X10417284Y-4698520D01*
X10418542Y-4695858D01*
X10420056Y-4693333D01*
X10421810Y-4690968D01*
X10423787Y-4688787D01*
X10425968Y-4686810D01*
X10428333Y-4685056D01*
X10430858Y-4683542D01*
X10433519Y-4682284D01*
X10436291Y-4681292D01*
X10439147Y-4680576D01*
X10442059Y-4680145D01*
X10445000Y-4680000D01*
X10445000Y-4680000D01*
X10447941Y-4680145D01*
X10447941Y-4680145D01*
G37*
D14*
X10445000Y-4760000D03*
D13*
G36*
X10447941Y-5000145D02*
X10450853Y-5000576D01*
X10453709Y-5001292D01*
X10456481Y-5002284D01*
X10459142Y-5003542D01*
X10461667Y-5005056D01*
X10464032Y-5006810D01*
X10466213Y-5008787D01*
X10468190Y-5010968D01*
X10469944Y-5013333D01*
X10471458Y-5015858D01*
X10472717Y-5018520D01*
X10473708Y-5021292D01*
X10474424Y-5024147D01*
X10474856Y-5027060D01*
X10475000Y-5030000D01*
X10475000Y-5130000D01*
X10474856Y-5132941D01*
X10474424Y-5135853D01*
X10473708Y-5138709D01*
X10472717Y-5141481D01*
X10471458Y-5144142D01*
X10469944Y-5146667D01*
X10468190Y-5149032D01*
X10466213Y-5151213D01*
X10464032Y-5153190D01*
X10461667Y-5154944D01*
X10459142Y-5156458D01*
X10456481Y-5157716D01*
X10453709Y-5158708D01*
X10450853Y-5159424D01*
X10447941Y-5159856D01*
X10445000Y-5160000D01*
X10445000Y-5160000D01*
X10442059Y-5159856D01*
X10439147Y-5159424D01*
X10436291Y-5158708D01*
X10433519Y-5157716D01*
X10430858Y-5156458D01*
X10428333Y-5154944D01*
X10425968Y-5153190D01*
X10423787Y-5151213D01*
X10421810Y-5149032D01*
X10420056Y-5146667D01*
X10418542Y-5144142D01*
X10417284Y-5141481D01*
X10416292Y-5138709D01*
X10415576Y-5135853D01*
X10415144Y-5132941D01*
X10415000Y-5130000D01*
X10415000Y-5030000D01*
X10415144Y-5027060D01*
X10415576Y-5024147D01*
X10416292Y-5021292D01*
X10417284Y-5018520D01*
X10418542Y-5015858D01*
X10420056Y-5013333D01*
X10421810Y-5010968D01*
X10423787Y-5008787D01*
X10425968Y-5006810D01*
X10428333Y-5005056D01*
X10430858Y-5003542D01*
X10433519Y-5002284D01*
X10436291Y-5001292D01*
X10439147Y-5000576D01*
X10442059Y-5000145D01*
X10445000Y-5000000D01*
X10445000Y-5000000D01*
X10447941Y-5000145D01*
X10447941Y-5000145D01*
G37*
D14*
X10445000Y-5080000D03*
D15*
X10472500Y-5080000D03*
X10472500Y-5240000D03*
D13*
G36*
X10447941Y-5160145D02*
X10450853Y-5160576D01*
X10453709Y-5161292D01*
X10456481Y-5162284D01*
X10459142Y-5163542D01*
X10461667Y-5165056D01*
X10464032Y-5166810D01*
X10466213Y-5168787D01*
X10468190Y-5170968D01*
X10469944Y-5173333D01*
X10471458Y-5175858D01*
X10472717Y-5178520D01*
X10473708Y-5181292D01*
X10474424Y-5184147D01*
X10474856Y-5187060D01*
X10475000Y-5190000D01*
X10475000Y-5290000D01*
X10474856Y-5292941D01*
X10474424Y-5295853D01*
X10473708Y-5298709D01*
X10472717Y-5301481D01*
X10471458Y-5304142D01*
X10469944Y-5306667D01*
X10468190Y-5309032D01*
X10466213Y-5311213D01*
X10464032Y-5313190D01*
X10461667Y-5314944D01*
X10459142Y-5316458D01*
X10456481Y-5317716D01*
X10453709Y-5318708D01*
X10450853Y-5319424D01*
X10447941Y-5319856D01*
X10445000Y-5320000D01*
X10445000Y-5320000D01*
X10442059Y-5319856D01*
X10439147Y-5319424D01*
X10436291Y-5318708D01*
X10433519Y-5317716D01*
X10430858Y-5316458D01*
X10428333Y-5314944D01*
X10425968Y-5313190D01*
X10423787Y-5311213D01*
X10421810Y-5309032D01*
X10420056Y-5306667D01*
X10418542Y-5304142D01*
X10417284Y-5301481D01*
X10416292Y-5298709D01*
X10415576Y-5295853D01*
X10415144Y-5292941D01*
X10415000Y-5290000D01*
X10415000Y-5190000D01*
X10415144Y-5187060D01*
X10415576Y-5184147D01*
X10416292Y-5181292D01*
X10417284Y-5178520D01*
X10418542Y-5175858D01*
X10420056Y-5173333D01*
X10421810Y-5170968D01*
X10423787Y-5168787D01*
X10425968Y-5166810D01*
X10428333Y-5165056D01*
X10430858Y-5163542D01*
X10433519Y-5162284D01*
X10436291Y-5161292D01*
X10439147Y-5160576D01*
X10442059Y-5160145D01*
X10445000Y-5160000D01*
X10445000Y-5160000D01*
X10447941Y-5160145D01*
X10447941Y-5160145D01*
G37*
D14*
X10445000Y-5240000D03*
D11*
X10250000Y-4840000D03*
X9750000Y-5160000D03*
X9750000Y-4840000D03*
D12*
X10250000Y-5160000D03*
D11*
X10250000Y-5000000D03*
X9750000Y-5000000D03*
D10*
X10000000Y-5000000D03*
M02*
