G04 #@! TF.GenerationSoftware,KiCad,Pcbnew,(5.0.0-rc2-dev-596-gcfd2f1d00)*
G04 #@! TF.CreationDate,2019-02-28T14:34:01+02:00*
G04 #@! TF.ProjectId,WS2813_single_side_conn_small,5753323831335F73696E676C655F7369,rev?*
G04 #@! TF.SameCoordinates,Original*
G04 #@! TF.FileFunction,Copper,L2,Bot,Signal*
G04 #@! TF.FilePolarity,Positive*
%FSLAX45Y45*%
G04 Gerber Fmt 4.5, Leading zero omitted, Abs format (unit mm)*
G04 Created by KiCad (PCBNEW (5.0.0-rc2-dev-596-gcfd2f1d00)) date 02/28/19 14:34:01*
%MOMM*%
%LPD*%
G01*
G04 APERTURE LIST*
%ADD10R,2.400000X1.200000*%
%ADD11C,0.800000*%
%ADD12C,1.800000*%
%ADD13C,0.700000*%
%ADD14C,1.200000*%
%ADD15C,0.200000*%
G04 APERTURE END LIST*
D10*
X9765000Y-4920000D03*
D11*
X9640000Y-4920000D03*
X9640000Y-4760000D03*
D10*
X9765000Y-4760000D03*
X9765000Y-5080000D03*
D11*
X9640000Y-5080000D03*
X9640000Y-5240000D03*
D10*
X9765000Y-5240000D03*
X10235000Y-4920000D03*
D11*
X10360000Y-4920000D03*
X10360000Y-4760000D03*
D10*
X10235000Y-4760000D03*
X10235000Y-5080000D03*
D11*
X10360000Y-5080000D03*
X10360000Y-5240000D03*
D10*
X10235000Y-5240000D03*
D12*
X10000000Y-5000000D03*
D13*
X10069120Y-4657290D03*
D14*
X9765000Y-5080000D02*
X9885000Y-5080000D01*
X9885000Y-5080000D02*
X9909850Y-5080000D01*
X9909850Y-5080000D02*
X10000000Y-5000000D01*
X10000000Y-5000000D02*
X10090150Y-5080000D01*
X10090150Y-5080000D02*
X10115000Y-5080000D01*
X10115000Y-5080000D02*
X10235000Y-5080000D01*
X9765000Y-5240000D02*
X9885000Y-5240000D01*
X9885000Y-5240000D02*
X10115000Y-5240000D01*
X10115000Y-5240000D02*
X10235000Y-5240000D01*
D15*
X9765000Y-4920000D02*
X9875000Y-4870000D01*
X9875000Y-4870000D02*
X9885000Y-4870000D01*
X9885000Y-4870000D02*
X9889140Y-4870000D01*
X9889140Y-4870000D02*
X10110860Y-4810000D01*
X10110860Y-4810000D02*
X10115000Y-4810000D01*
X10115000Y-4810000D02*
X10125000Y-4810000D01*
X10125000Y-4810000D02*
X10235000Y-4760000D01*
G36*
X10074216Y-4980000D02*
X10077321Y-4995607D01*
X10086162Y-5008838D01*
X10099393Y-5017679D01*
X10115000Y-5020784D01*
X10312500Y-5020784D01*
X10312500Y-5139216D01*
X10115000Y-5139216D01*
X10111061Y-5140000D01*
X9888939Y-5140000D01*
X9885000Y-5139216D01*
X9687500Y-5139216D01*
X9687500Y-5020784D01*
X9885000Y-5020784D01*
X9900607Y-5017679D01*
X9913838Y-5008838D01*
X9922679Y-4995607D01*
X9925784Y-4980000D01*
X9925784Y-4911882D01*
X10074216Y-4871715D01*
X10074216Y-4980000D01*
X10074216Y-4980000D01*
G37*
X10074216Y-4980000D02*
X10077321Y-4995607D01*
X10086162Y-5008838D01*
X10099393Y-5017679D01*
X10115000Y-5020784D01*
X10312500Y-5020784D01*
X10312500Y-5139216D01*
X10115000Y-5139216D01*
X10111061Y-5140000D01*
X9888939Y-5140000D01*
X9885000Y-5139216D01*
X9687500Y-5139216D01*
X9687500Y-5020784D01*
X9885000Y-5020784D01*
X9900607Y-5017679D01*
X9913838Y-5008838D01*
X9922679Y-4995607D01*
X9925784Y-4980000D01*
X9925784Y-4911882D01*
X10074216Y-4871715D01*
X10074216Y-4980000D01*
G36*
X10048232Y-4571100D02*
X10128735Y-4586894D01*
X10205167Y-4616694D01*
X10274558Y-4659216D01*
X10115000Y-4659216D01*
X10099393Y-4662321D01*
X10086162Y-4671162D01*
X10077321Y-4684393D01*
X10074216Y-4700000D01*
X10074216Y-4768118D01*
X9925784Y-4808285D01*
X9925784Y-4700000D01*
X9922679Y-4684393D01*
X9913838Y-4671162D01*
X9900607Y-4662321D01*
X9885000Y-4659216D01*
X9726948Y-4659216D01*
X9736657Y-4651099D01*
X9807916Y-4610453D01*
X9885248Y-4583069D01*
X9966206Y-4569811D01*
X10048232Y-4571100D01*
X10048232Y-4571100D01*
G37*
X10048232Y-4571100D02*
X10128735Y-4586894D01*
X10205167Y-4616694D01*
X10274558Y-4659216D01*
X10115000Y-4659216D01*
X10099393Y-4662321D01*
X10086162Y-4671162D01*
X10077321Y-4684393D01*
X10074216Y-4700000D01*
X10074216Y-4768118D01*
X9925784Y-4808285D01*
X9925784Y-4700000D01*
X9922679Y-4684393D01*
X9913838Y-4671162D01*
X9900607Y-4662321D01*
X9885000Y-4659216D01*
X9726948Y-4659216D01*
X9736657Y-4651099D01*
X9807916Y-4610453D01*
X9885248Y-4583069D01*
X9966206Y-4569811D01*
X10048232Y-4571100D01*
M02*
