G04 #@! TF.GenerationSoftware,KiCad,Pcbnew,(5.0.0-rc2-dev-596-gcfd2f1d00)*
G04 #@! TF.CreationDate,2019-01-30T18:25:03+02:00*
G04 #@! TF.ProjectId,WS2813_single_side_conn_x14,5753323831335F73696E676C655F7369,rev?*
G04 #@! TF.SameCoordinates,Original*
G04 #@! TF.FileFunction,Soldermask,Bot*
G04 #@! TF.FilePolarity,Negative*
%FSLAX45Y45*%
G04 Gerber Fmt 4.5, Leading zero omitted, Abs format (unit mm)*
G04 Created by KiCad (PCBNEW (5.0.0-rc2-dev-596-gcfd2f1d00)) date 01/30/19 18:25:03*
%MOMM*%
%LPD*%
G01*
G04 APERTURE LIST*
%ADD10C,2.200000*%
%ADD11R,3.250000X1.600000*%
G04 APERTURE END LIST*
D10*
X10000000Y-9200000D03*
D11*
X10357500Y-9440000D03*
X10357500Y-9280000D03*
X10357500Y-8960000D03*
X10357500Y-9120000D03*
X9642500Y-9440000D03*
X9642500Y-9280000D03*
X9642500Y-8960000D03*
X9642500Y-9120000D03*
X9642500Y-9820000D03*
X9642500Y-9660000D03*
X9642500Y-9980000D03*
X9642500Y-10140000D03*
X10357500Y-9820000D03*
X10357500Y-9660000D03*
X10357500Y-9980000D03*
X10357500Y-10140000D03*
D10*
X10000000Y-9900000D03*
X10000000Y-11300000D03*
D11*
X10357500Y-11540000D03*
X10357500Y-11380000D03*
X10357500Y-11060000D03*
X10357500Y-11220000D03*
X9642500Y-11540000D03*
X9642500Y-11380000D03*
X9642500Y-11060000D03*
X9642500Y-11220000D03*
X9642500Y-10520000D03*
X9642500Y-10360000D03*
X9642500Y-10680000D03*
X9642500Y-10840000D03*
X10357500Y-10520000D03*
X10357500Y-10360000D03*
X10357500Y-10680000D03*
X10357500Y-10840000D03*
D10*
X10000000Y-10600000D03*
X10000000Y-12700000D03*
D11*
X10357500Y-12940000D03*
X10357500Y-12780000D03*
X10357500Y-12460000D03*
X10357500Y-12620000D03*
X9642500Y-12940000D03*
X9642500Y-12780000D03*
X9642500Y-12460000D03*
X9642500Y-12620000D03*
X9642500Y-11920000D03*
X9642500Y-11760000D03*
X9642500Y-12080000D03*
X9642500Y-12240000D03*
X10357500Y-11920000D03*
X10357500Y-11760000D03*
X10357500Y-12080000D03*
X10357500Y-12240000D03*
D10*
X10000000Y-12000000D03*
X10000000Y-14100000D03*
D11*
X10357500Y-14340000D03*
X10357500Y-14180000D03*
X10357500Y-13860000D03*
X10357500Y-14020000D03*
X9642500Y-14340000D03*
X9642500Y-14180000D03*
X9642500Y-13860000D03*
X9642500Y-14020000D03*
X9642500Y-13320000D03*
X9642500Y-13160000D03*
X9642500Y-13480000D03*
X9642500Y-13640000D03*
X10357500Y-13320000D03*
X10357500Y-13160000D03*
X10357500Y-13480000D03*
X10357500Y-13640000D03*
D10*
X10000000Y-13400000D03*
X10000000Y-7800000D03*
D11*
X10357500Y-8040000D03*
X10357500Y-7880000D03*
X10357500Y-7560000D03*
X10357500Y-7720000D03*
X9642500Y-8040000D03*
X9642500Y-7880000D03*
X9642500Y-7560000D03*
X9642500Y-7720000D03*
X9642500Y-8420000D03*
X9642500Y-8260000D03*
X9642500Y-8580000D03*
X9642500Y-8740000D03*
X10357500Y-8420000D03*
X10357500Y-8260000D03*
X10357500Y-8580000D03*
X10357500Y-8740000D03*
D10*
X10000000Y-8500000D03*
X10000000Y-6400000D03*
D11*
X10357500Y-6640000D03*
X10357500Y-6480000D03*
X10357500Y-6160000D03*
X10357500Y-6320000D03*
X9642500Y-6640000D03*
X9642500Y-6480000D03*
X9642500Y-6160000D03*
X9642500Y-6320000D03*
X9642500Y-7020000D03*
X9642500Y-6860000D03*
X9642500Y-7180000D03*
X9642500Y-7340000D03*
X10357500Y-7020000D03*
X10357500Y-6860000D03*
X10357500Y-7180000D03*
X10357500Y-7340000D03*
D10*
X10000000Y-7100000D03*
X10000000Y-5700000D03*
D11*
X10357500Y-5940000D03*
X10357500Y-5780000D03*
X10357500Y-5460000D03*
X10357500Y-5620000D03*
X9642500Y-5940000D03*
X9642500Y-5780000D03*
X9642500Y-5460000D03*
X9642500Y-5620000D03*
X9642500Y-4920000D03*
X9642500Y-4760000D03*
X9642500Y-5080000D03*
X9642500Y-5240000D03*
X10357500Y-4920000D03*
X10357500Y-4760000D03*
X10357500Y-5080000D03*
X10357500Y-5240000D03*
D10*
X10000000Y-5000000D03*
M02*
