G04 #@! TF.GenerationSoftware,KiCad,Pcbnew,(5.0.0-rc2-dev-596-gcfd2f1d00)*
G04 #@! TF.CreationDate,2019-01-30T15:03:03+02:00*
G04 #@! TF.ProjectId,WS2813_single,5753323831335F73696E676C652E6B69,rev?*
G04 #@! TF.SameCoordinates,Original*
G04 #@! TF.FileFunction,Copper,L1,Top,Signal*
G04 #@! TF.FilePolarity,Positive*
%FSLAX45Y45*%
G04 Gerber Fmt 4.5, Leading zero omitted, Abs format (unit mm)*
G04 Created by KiCad (PCBNEW (5.0.0-rc2-dev-596-gcfd2f1d00)) date 01/30/19 15:03:03*
%MOMM*%
%LPD*%
G01*
G04 APERTURE LIST*
%ADD10O,1.600000X1.100000*%
%ADD11R,1.600000X1.100000*%
%ADD12C,1.800000*%
%ADD13C,0.900000*%
%ADD14C,0.700000*%
%ADD15C,0.500000*%
%ADD16C,0.200000*%
G04 APERTURE END LIST*
D10*
X10250000Y-5000000D03*
X9750000Y-5000000D03*
D11*
X9750000Y-4840000D03*
D10*
X10250000Y-5160000D03*
X10250000Y-4840000D03*
X9750000Y-5160000D03*
D12*
X10000000Y-5000000D03*
D13*
X9796030Y-4689860D03*
D14*
X10090700Y-5210050D03*
X9903750Y-5172330D03*
X10102000Y-5108570D03*
D15*
X10250000Y-5000000D02*
X10225000Y-5000000D01*
X10225000Y-5000000D02*
X10000000Y-5000000D01*
X9796030Y-4689860D02*
X9796030Y-4785000D01*
X9796030Y-4785000D02*
X9796030Y-4810000D01*
X9796030Y-4810000D02*
X9750000Y-4840000D01*
X9750000Y-4840000D02*
X9750000Y-4870000D01*
X9750000Y-4870000D02*
X9750000Y-4895000D01*
X9750000Y-4895000D02*
X9750000Y-5000000D01*
D16*
X10090700Y-5210050D02*
X10225000Y-5160000D01*
X10225000Y-5160000D02*
X10250000Y-5160000D01*
X10250000Y-4840000D02*
X10225000Y-4840000D01*
X10225000Y-4840000D02*
X9947010Y-4870000D01*
X9947010Y-4870000D02*
X9945540Y-4870610D01*
X9945540Y-4870610D02*
X9870610Y-4945540D01*
X9870610Y-4945540D02*
X9870000Y-4947010D01*
X9870000Y-4947010D02*
X9870000Y-5052990D01*
X9870000Y-5052990D02*
X9903750Y-5172330D01*
X10102000Y-5108570D02*
X10059630Y-5135040D01*
X10059630Y-5135040D02*
X9934820Y-5247340D01*
X9934820Y-5247340D02*
X9872680Y-5247340D01*
X9872680Y-5247340D02*
X9775000Y-5160000D01*
X9775000Y-5160000D02*
X9750000Y-5160000D01*
G36*
X10402500Y-5000000D02*
X10371862Y-5154030D01*
X10371324Y-5154835D01*
X10365120Y-5123645D01*
X10344526Y-5092825D01*
X10313706Y-5072231D01*
X10277351Y-5065000D01*
X10222649Y-5065000D01*
X10186294Y-5072231D01*
X10172064Y-5081740D01*
X10165619Y-5066141D01*
X10144540Y-5045025D01*
X10116984Y-5033583D01*
X10087147Y-5033557D01*
X10059571Y-5044951D01*
X10038455Y-5066031D01*
X10027013Y-5093586D01*
X10027010Y-5097382D01*
X10026187Y-5097871D01*
X9973662Y-5145131D01*
X9967369Y-5129901D01*
X9946290Y-5108785D01*
X9936603Y-5104763D01*
X9920000Y-5046056D01*
X9920000Y-4966861D01*
X9968937Y-4917924D01*
X10149627Y-4898424D01*
X10155474Y-4907175D01*
X10186294Y-4927769D01*
X10222649Y-4935000D01*
X10277351Y-4935000D01*
X10313706Y-4927769D01*
X10344526Y-4907175D01*
X10365120Y-4876355D01*
X10371324Y-4845165D01*
X10371862Y-4845970D01*
X10402500Y-5000000D01*
X10402500Y-5000000D01*
G37*
X10402500Y-5000000D02*
X10371862Y-5154030D01*
X10371324Y-5154835D01*
X10365120Y-5123645D01*
X10344526Y-5092825D01*
X10313706Y-5072231D01*
X10277351Y-5065000D01*
X10222649Y-5065000D01*
X10186294Y-5072231D01*
X10172064Y-5081740D01*
X10165619Y-5066141D01*
X10144540Y-5045025D01*
X10116984Y-5033583D01*
X10087147Y-5033557D01*
X10059571Y-5044951D01*
X10038455Y-5066031D01*
X10027013Y-5093586D01*
X10027010Y-5097382D01*
X10026187Y-5097871D01*
X9973662Y-5145131D01*
X9967369Y-5129901D01*
X9946290Y-5108785D01*
X9936603Y-5104763D01*
X9920000Y-5046056D01*
X9920000Y-4966861D01*
X9968937Y-4917924D01*
X10149627Y-4898424D01*
X10155474Y-4907175D01*
X10186294Y-4927769D01*
X10222649Y-4935000D01*
X10277351Y-4935000D01*
X10313706Y-4927769D01*
X10344526Y-4907175D01*
X10365120Y-4876355D01*
X10371324Y-4845165D01*
X10371862Y-4845970D01*
X10402500Y-5000000D01*
M02*
