G04 #@! TF.GenerationSoftware,KiCad,Pcbnew,(5.0.0-rc2-dev-596-gcfd2f1d00)*
G04 #@! TF.CreationDate,2019-01-30T18:25:03+02:00*
G04 #@! TF.ProjectId,WS2813_single_side_conn_x14,5753323831335F73696E676C655F7369,rev?*
G04 #@! TF.SameCoordinates,Original*
G04 #@! TF.FileFunction,Legend,Top*
G04 #@! TF.FilePolarity,Positive*
%FSLAX45Y45*%
G04 Gerber Fmt 4.5, Leading zero omitted, Abs format (unit mm)*
G04 Created by KiCad (PCBNEW (5.0.0-rc2-dev-596-gcfd2f1d00)) date 01/30/19 18:25:03*
%MOMM*%
%LPD*%
G01*
G04 APERTURE LIST*
%ADD10C,0.150000*%
%ADD11C,0.149860*%
%ADD12C,0.500000*%
G04 APERTURE END LIST*
D10*
X9843052Y-9528333D02*
X9835969Y-9531667D01*
X9822635Y-9531667D01*
X9816385Y-9528333D01*
X9813885Y-9521667D01*
X9817219Y-9495000D01*
X9821385Y-9488333D01*
X9828469Y-9485000D01*
X9841802Y-9485000D01*
X9848052Y-9488333D01*
X9850552Y-9495000D01*
X9849719Y-9501667D01*
X9815552Y-9508333D01*
X9885969Y-9531667D02*
X9879719Y-9528333D01*
X9877219Y-9521667D01*
X9884719Y-9461667D01*
X9942635Y-9531667D02*
X9951385Y-9461667D01*
X9943052Y-9528333D02*
X9935969Y-9531667D01*
X9922635Y-9531667D01*
X9916385Y-9528333D01*
X9913469Y-9525000D01*
X9910969Y-9518333D01*
X9913469Y-9498333D01*
X9917635Y-9491667D01*
X9921385Y-9488333D01*
X9928469Y-9485000D01*
X9941802Y-9485000D01*
X9948052Y-9488333D01*
X10005969Y-9531667D02*
X10010552Y-9495000D01*
X10008052Y-9488333D01*
X10001802Y-9485000D01*
X9988469Y-9485000D01*
X9981385Y-9488333D01*
X10006385Y-9528333D02*
X9999302Y-9531667D01*
X9982635Y-9531667D01*
X9976385Y-9528333D01*
X9973885Y-9521667D01*
X9974719Y-9515000D01*
X9978885Y-9508333D01*
X9985969Y-9505000D01*
X10002635Y-9505000D01*
X10009719Y-9501667D01*
X10049302Y-9531667D02*
X10043052Y-9528333D01*
X10040552Y-9521667D01*
X10048052Y-9461667D01*
X10075969Y-9531667D02*
X10081802Y-9485000D01*
X10084719Y-9461667D02*
X10080969Y-9465000D01*
X10083885Y-9468333D01*
X10087635Y-9465000D01*
X10084719Y-9461667D01*
X10083885Y-9468333D01*
X10109302Y-9531667D02*
X10115135Y-9485000D01*
X10114302Y-9491667D02*
X10118052Y-9488333D01*
X10125135Y-9485000D01*
X10135135Y-9485000D01*
X10141385Y-9488333D01*
X10143885Y-9495000D01*
X10139302Y-9531667D01*
X10143885Y-9495000D02*
X10148052Y-9488333D01*
X10155135Y-9485000D01*
X10165135Y-9485000D01*
X10171385Y-9488333D01*
X10173885Y-9495000D01*
X10169302Y-9531667D01*
X9843052Y-10228333D02*
X9835969Y-10231667D01*
X9822635Y-10231667D01*
X9816385Y-10228333D01*
X9813885Y-10221667D01*
X9817219Y-10195000D01*
X9821385Y-10188333D01*
X9828469Y-10185000D01*
X9841802Y-10185000D01*
X9848052Y-10188333D01*
X9850552Y-10195000D01*
X9849719Y-10201667D01*
X9815552Y-10208333D01*
X9885969Y-10231667D02*
X9879719Y-10228333D01*
X9877219Y-10221667D01*
X9884719Y-10161667D01*
X9942635Y-10231667D02*
X9951385Y-10161667D01*
X9943052Y-10228333D02*
X9935969Y-10231667D01*
X9922635Y-10231667D01*
X9916385Y-10228333D01*
X9913469Y-10225000D01*
X9910969Y-10218333D01*
X9913469Y-10198333D01*
X9917635Y-10191667D01*
X9921385Y-10188333D01*
X9928469Y-10185000D01*
X9941802Y-10185000D01*
X9948052Y-10188333D01*
X10005969Y-10231667D02*
X10010552Y-10195000D01*
X10008052Y-10188333D01*
X10001802Y-10185000D01*
X9988469Y-10185000D01*
X9981385Y-10188333D01*
X10006385Y-10228333D02*
X9999302Y-10231667D01*
X9982635Y-10231667D01*
X9976385Y-10228333D01*
X9973885Y-10221667D01*
X9974719Y-10215000D01*
X9978885Y-10208333D01*
X9985969Y-10205000D01*
X10002635Y-10205000D01*
X10009719Y-10201667D01*
X10049302Y-10231667D02*
X10043052Y-10228333D01*
X10040552Y-10221667D01*
X10048052Y-10161667D01*
X10075969Y-10231667D02*
X10081802Y-10185000D01*
X10084719Y-10161667D02*
X10080969Y-10165000D01*
X10083885Y-10168333D01*
X10087635Y-10165000D01*
X10084719Y-10161667D01*
X10083885Y-10168333D01*
X10109302Y-10231667D02*
X10115135Y-10185000D01*
X10114302Y-10191667D02*
X10118052Y-10188333D01*
X10125135Y-10185000D01*
X10135135Y-10185000D01*
X10141385Y-10188333D01*
X10143885Y-10195000D01*
X10139302Y-10231667D01*
X10143885Y-10195000D02*
X10148052Y-10188333D01*
X10155135Y-10185000D01*
X10165135Y-10185000D01*
X10171385Y-10188333D01*
X10173885Y-10195000D01*
X10169302Y-10231667D01*
X9843052Y-11628333D02*
X9835969Y-11631667D01*
X9822635Y-11631667D01*
X9816385Y-11628333D01*
X9813885Y-11621667D01*
X9817219Y-11595000D01*
X9821385Y-11588333D01*
X9828469Y-11585000D01*
X9841802Y-11585000D01*
X9848052Y-11588333D01*
X9850552Y-11595000D01*
X9849719Y-11601667D01*
X9815552Y-11608333D01*
X9885969Y-11631667D02*
X9879719Y-11628333D01*
X9877219Y-11621667D01*
X9884719Y-11561667D01*
X9942635Y-11631667D02*
X9951385Y-11561667D01*
X9943052Y-11628333D02*
X9935969Y-11631667D01*
X9922635Y-11631667D01*
X9916385Y-11628333D01*
X9913469Y-11625000D01*
X9910969Y-11618333D01*
X9913469Y-11598333D01*
X9917635Y-11591667D01*
X9921385Y-11588333D01*
X9928469Y-11585000D01*
X9941802Y-11585000D01*
X9948052Y-11588333D01*
X10005969Y-11631667D02*
X10010552Y-11595000D01*
X10008052Y-11588333D01*
X10001802Y-11585000D01*
X9988469Y-11585000D01*
X9981385Y-11588333D01*
X10006385Y-11628333D02*
X9999302Y-11631667D01*
X9982635Y-11631667D01*
X9976385Y-11628333D01*
X9973885Y-11621667D01*
X9974719Y-11615000D01*
X9978885Y-11608333D01*
X9985969Y-11605000D01*
X10002635Y-11605000D01*
X10009719Y-11601667D01*
X10049302Y-11631667D02*
X10043052Y-11628333D01*
X10040552Y-11621667D01*
X10048052Y-11561667D01*
X10075969Y-11631667D02*
X10081802Y-11585000D01*
X10084719Y-11561667D02*
X10080969Y-11565000D01*
X10083885Y-11568333D01*
X10087635Y-11565000D01*
X10084719Y-11561667D01*
X10083885Y-11568333D01*
X10109302Y-11631667D02*
X10115135Y-11585000D01*
X10114302Y-11591667D02*
X10118052Y-11588333D01*
X10125135Y-11585000D01*
X10135135Y-11585000D01*
X10141385Y-11588333D01*
X10143885Y-11595000D01*
X10139302Y-11631667D01*
X10143885Y-11595000D02*
X10148052Y-11588333D01*
X10155135Y-11585000D01*
X10165135Y-11585000D01*
X10171385Y-11588333D01*
X10173885Y-11595000D01*
X10169302Y-11631667D01*
X9843052Y-10928333D02*
X9835969Y-10931667D01*
X9822635Y-10931667D01*
X9816385Y-10928333D01*
X9813885Y-10921667D01*
X9817219Y-10895000D01*
X9821385Y-10888333D01*
X9828469Y-10885000D01*
X9841802Y-10885000D01*
X9848052Y-10888333D01*
X9850552Y-10895000D01*
X9849719Y-10901667D01*
X9815552Y-10908333D01*
X9885969Y-10931667D02*
X9879719Y-10928333D01*
X9877219Y-10921667D01*
X9884719Y-10861667D01*
X9942635Y-10931667D02*
X9951385Y-10861667D01*
X9943052Y-10928333D02*
X9935969Y-10931667D01*
X9922635Y-10931667D01*
X9916385Y-10928333D01*
X9913469Y-10925000D01*
X9910969Y-10918333D01*
X9913469Y-10898333D01*
X9917635Y-10891667D01*
X9921385Y-10888333D01*
X9928469Y-10885000D01*
X9941802Y-10885000D01*
X9948052Y-10888333D01*
X10005969Y-10931667D02*
X10010552Y-10895000D01*
X10008052Y-10888333D01*
X10001802Y-10885000D01*
X9988469Y-10885000D01*
X9981385Y-10888333D01*
X10006385Y-10928333D02*
X9999302Y-10931667D01*
X9982635Y-10931667D01*
X9976385Y-10928333D01*
X9973885Y-10921667D01*
X9974719Y-10915000D01*
X9978885Y-10908333D01*
X9985969Y-10905000D01*
X10002635Y-10905000D01*
X10009719Y-10901667D01*
X10049302Y-10931667D02*
X10043052Y-10928333D01*
X10040552Y-10921667D01*
X10048052Y-10861667D01*
X10075969Y-10931667D02*
X10081802Y-10885000D01*
X10084719Y-10861667D02*
X10080969Y-10865000D01*
X10083885Y-10868333D01*
X10087635Y-10865000D01*
X10084719Y-10861667D01*
X10083885Y-10868333D01*
X10109302Y-10931667D02*
X10115135Y-10885000D01*
X10114302Y-10891667D02*
X10118052Y-10888333D01*
X10125135Y-10885000D01*
X10135135Y-10885000D01*
X10141385Y-10888333D01*
X10143885Y-10895000D01*
X10139302Y-10931667D01*
X10143885Y-10895000D02*
X10148052Y-10888333D01*
X10155135Y-10885000D01*
X10165135Y-10885000D01*
X10171385Y-10888333D01*
X10173885Y-10895000D01*
X10169302Y-10931667D01*
X9843052Y-13028333D02*
X9835969Y-13031667D01*
X9822635Y-13031667D01*
X9816385Y-13028333D01*
X9813885Y-13021667D01*
X9817219Y-12995000D01*
X9821385Y-12988333D01*
X9828469Y-12985000D01*
X9841802Y-12985000D01*
X9848052Y-12988333D01*
X9850552Y-12995000D01*
X9849719Y-13001667D01*
X9815552Y-13008333D01*
X9885969Y-13031667D02*
X9879719Y-13028333D01*
X9877219Y-13021667D01*
X9884719Y-12961667D01*
X9942635Y-13031667D02*
X9951385Y-12961667D01*
X9943052Y-13028333D02*
X9935969Y-13031667D01*
X9922635Y-13031667D01*
X9916385Y-13028333D01*
X9913469Y-13025000D01*
X9910969Y-13018333D01*
X9913469Y-12998333D01*
X9917635Y-12991667D01*
X9921385Y-12988333D01*
X9928469Y-12985000D01*
X9941802Y-12985000D01*
X9948052Y-12988333D01*
X10005969Y-13031667D02*
X10010552Y-12995000D01*
X10008052Y-12988333D01*
X10001802Y-12985000D01*
X9988469Y-12985000D01*
X9981385Y-12988333D01*
X10006385Y-13028333D02*
X9999302Y-13031667D01*
X9982635Y-13031667D01*
X9976385Y-13028333D01*
X9973885Y-13021667D01*
X9974719Y-13015000D01*
X9978885Y-13008333D01*
X9985969Y-13005000D01*
X10002635Y-13005000D01*
X10009719Y-13001667D01*
X10049302Y-13031667D02*
X10043052Y-13028333D01*
X10040552Y-13021667D01*
X10048052Y-12961667D01*
X10075969Y-13031667D02*
X10081802Y-12985000D01*
X10084719Y-12961667D02*
X10080969Y-12965000D01*
X10083885Y-12968333D01*
X10087635Y-12965000D01*
X10084719Y-12961667D01*
X10083885Y-12968333D01*
X10109302Y-13031667D02*
X10115135Y-12985000D01*
X10114302Y-12991667D02*
X10118052Y-12988333D01*
X10125135Y-12985000D01*
X10135135Y-12985000D01*
X10141385Y-12988333D01*
X10143885Y-12995000D01*
X10139302Y-13031667D01*
X10143885Y-12995000D02*
X10148052Y-12988333D01*
X10155135Y-12985000D01*
X10165135Y-12985000D01*
X10171385Y-12988333D01*
X10173885Y-12995000D01*
X10169302Y-13031667D01*
X9843052Y-12328333D02*
X9835969Y-12331667D01*
X9822635Y-12331667D01*
X9816385Y-12328333D01*
X9813885Y-12321667D01*
X9817219Y-12295000D01*
X9821385Y-12288333D01*
X9828469Y-12285000D01*
X9841802Y-12285000D01*
X9848052Y-12288333D01*
X9850552Y-12295000D01*
X9849719Y-12301667D01*
X9815552Y-12308333D01*
X9885969Y-12331667D02*
X9879719Y-12328333D01*
X9877219Y-12321667D01*
X9884719Y-12261667D01*
X9942635Y-12331667D02*
X9951385Y-12261667D01*
X9943052Y-12328333D02*
X9935969Y-12331667D01*
X9922635Y-12331667D01*
X9916385Y-12328333D01*
X9913469Y-12325000D01*
X9910969Y-12318333D01*
X9913469Y-12298333D01*
X9917635Y-12291667D01*
X9921385Y-12288333D01*
X9928469Y-12285000D01*
X9941802Y-12285000D01*
X9948052Y-12288333D01*
X10005969Y-12331667D02*
X10010552Y-12295000D01*
X10008052Y-12288333D01*
X10001802Y-12285000D01*
X9988469Y-12285000D01*
X9981385Y-12288333D01*
X10006385Y-12328333D02*
X9999302Y-12331667D01*
X9982635Y-12331667D01*
X9976385Y-12328333D01*
X9973885Y-12321667D01*
X9974719Y-12315000D01*
X9978885Y-12308333D01*
X9985969Y-12305000D01*
X10002635Y-12305000D01*
X10009719Y-12301667D01*
X10049302Y-12331667D02*
X10043052Y-12328333D01*
X10040552Y-12321667D01*
X10048052Y-12261667D01*
X10075969Y-12331667D02*
X10081802Y-12285000D01*
X10084719Y-12261667D02*
X10080969Y-12265000D01*
X10083885Y-12268333D01*
X10087635Y-12265000D01*
X10084719Y-12261667D01*
X10083885Y-12268333D01*
X10109302Y-12331667D02*
X10115135Y-12285000D01*
X10114302Y-12291667D02*
X10118052Y-12288333D01*
X10125135Y-12285000D01*
X10135135Y-12285000D01*
X10141385Y-12288333D01*
X10143885Y-12295000D01*
X10139302Y-12331667D01*
X10143885Y-12295000D02*
X10148052Y-12288333D01*
X10155135Y-12285000D01*
X10165135Y-12285000D01*
X10171385Y-12288333D01*
X10173885Y-12295000D01*
X10169302Y-12331667D01*
X9843052Y-14428333D02*
X9835969Y-14431667D01*
X9822635Y-14431667D01*
X9816385Y-14428333D01*
X9813885Y-14421667D01*
X9817219Y-14395000D01*
X9821385Y-14388333D01*
X9828469Y-14385000D01*
X9841802Y-14385000D01*
X9848052Y-14388333D01*
X9850552Y-14395000D01*
X9849719Y-14401667D01*
X9815552Y-14408333D01*
X9885969Y-14431667D02*
X9879719Y-14428333D01*
X9877219Y-14421667D01*
X9884719Y-14361667D01*
X9942635Y-14431667D02*
X9951385Y-14361667D01*
X9943052Y-14428333D02*
X9935969Y-14431667D01*
X9922635Y-14431667D01*
X9916385Y-14428333D01*
X9913469Y-14425000D01*
X9910969Y-14418333D01*
X9913469Y-14398333D01*
X9917635Y-14391667D01*
X9921385Y-14388333D01*
X9928469Y-14385000D01*
X9941802Y-14385000D01*
X9948052Y-14388333D01*
X10005969Y-14431667D02*
X10010552Y-14395000D01*
X10008052Y-14388333D01*
X10001802Y-14385000D01*
X9988469Y-14385000D01*
X9981385Y-14388333D01*
X10006385Y-14428333D02*
X9999302Y-14431667D01*
X9982635Y-14431667D01*
X9976385Y-14428333D01*
X9973885Y-14421667D01*
X9974719Y-14415000D01*
X9978885Y-14408333D01*
X9985969Y-14405000D01*
X10002635Y-14405000D01*
X10009719Y-14401667D01*
X10049302Y-14431667D02*
X10043052Y-14428333D01*
X10040552Y-14421667D01*
X10048052Y-14361667D01*
X10075969Y-14431667D02*
X10081802Y-14385000D01*
X10084719Y-14361667D02*
X10080969Y-14365000D01*
X10083885Y-14368333D01*
X10087635Y-14365000D01*
X10084719Y-14361667D01*
X10083885Y-14368333D01*
X10109302Y-14431667D02*
X10115135Y-14385000D01*
X10114302Y-14391667D02*
X10118052Y-14388333D01*
X10125135Y-14385000D01*
X10135135Y-14385000D01*
X10141385Y-14388333D01*
X10143885Y-14395000D01*
X10139302Y-14431667D01*
X10143885Y-14395000D02*
X10148052Y-14388333D01*
X10155135Y-14385000D01*
X10165135Y-14385000D01*
X10171385Y-14388333D01*
X10173885Y-14395000D01*
X10169302Y-14431667D01*
X9843052Y-13728333D02*
X9835969Y-13731667D01*
X9822635Y-13731667D01*
X9816385Y-13728333D01*
X9813885Y-13721667D01*
X9817219Y-13695000D01*
X9821385Y-13688333D01*
X9828469Y-13685000D01*
X9841802Y-13685000D01*
X9848052Y-13688333D01*
X9850552Y-13695000D01*
X9849719Y-13701667D01*
X9815552Y-13708333D01*
X9885969Y-13731667D02*
X9879719Y-13728333D01*
X9877219Y-13721667D01*
X9884719Y-13661667D01*
X9942635Y-13731667D02*
X9951385Y-13661667D01*
X9943052Y-13728333D02*
X9935969Y-13731667D01*
X9922635Y-13731667D01*
X9916385Y-13728333D01*
X9913469Y-13725000D01*
X9910969Y-13718333D01*
X9913469Y-13698333D01*
X9917635Y-13691667D01*
X9921385Y-13688333D01*
X9928469Y-13685000D01*
X9941802Y-13685000D01*
X9948052Y-13688333D01*
X10005969Y-13731667D02*
X10010552Y-13695000D01*
X10008052Y-13688333D01*
X10001802Y-13685000D01*
X9988469Y-13685000D01*
X9981385Y-13688333D01*
X10006385Y-13728333D02*
X9999302Y-13731667D01*
X9982635Y-13731667D01*
X9976385Y-13728333D01*
X9973885Y-13721667D01*
X9974719Y-13715000D01*
X9978885Y-13708333D01*
X9985969Y-13705000D01*
X10002635Y-13705000D01*
X10009719Y-13701667D01*
X10049302Y-13731667D02*
X10043052Y-13728333D01*
X10040552Y-13721667D01*
X10048052Y-13661667D01*
X10075969Y-13731667D02*
X10081802Y-13685000D01*
X10084719Y-13661667D02*
X10080969Y-13665000D01*
X10083885Y-13668333D01*
X10087635Y-13665000D01*
X10084719Y-13661667D01*
X10083885Y-13668333D01*
X10109302Y-13731667D02*
X10115135Y-13685000D01*
X10114302Y-13691667D02*
X10118052Y-13688333D01*
X10125135Y-13685000D01*
X10135135Y-13685000D01*
X10141385Y-13688333D01*
X10143885Y-13695000D01*
X10139302Y-13731667D01*
X10143885Y-13695000D02*
X10148052Y-13688333D01*
X10155135Y-13685000D01*
X10165135Y-13685000D01*
X10171385Y-13688333D01*
X10173885Y-13695000D01*
X10169302Y-13731667D01*
X9843052Y-8128333D02*
X9835969Y-8131667D01*
X9822635Y-8131667D01*
X9816385Y-8128333D01*
X9813885Y-8121667D01*
X9817219Y-8095000D01*
X9821385Y-8088333D01*
X9828469Y-8085000D01*
X9841802Y-8085000D01*
X9848052Y-8088333D01*
X9850552Y-8095000D01*
X9849719Y-8101667D01*
X9815552Y-8108333D01*
X9885969Y-8131667D02*
X9879719Y-8128333D01*
X9877219Y-8121667D01*
X9884719Y-8061667D01*
X9942635Y-8131667D02*
X9951385Y-8061667D01*
X9943052Y-8128333D02*
X9935969Y-8131667D01*
X9922635Y-8131667D01*
X9916385Y-8128333D01*
X9913469Y-8125000D01*
X9910969Y-8118333D01*
X9913469Y-8098333D01*
X9917635Y-8091667D01*
X9921385Y-8088333D01*
X9928469Y-8085000D01*
X9941802Y-8085000D01*
X9948052Y-8088333D01*
X10005969Y-8131667D02*
X10010552Y-8095000D01*
X10008052Y-8088333D01*
X10001802Y-8085000D01*
X9988469Y-8085000D01*
X9981385Y-8088333D01*
X10006385Y-8128333D02*
X9999302Y-8131667D01*
X9982635Y-8131667D01*
X9976385Y-8128333D01*
X9973885Y-8121667D01*
X9974719Y-8115000D01*
X9978885Y-8108333D01*
X9985969Y-8105000D01*
X10002635Y-8105000D01*
X10009719Y-8101667D01*
X10049302Y-8131667D02*
X10043052Y-8128333D01*
X10040552Y-8121667D01*
X10048052Y-8061667D01*
X10075969Y-8131667D02*
X10081802Y-8085000D01*
X10084719Y-8061667D02*
X10080969Y-8065000D01*
X10083885Y-8068333D01*
X10087635Y-8065000D01*
X10084719Y-8061667D01*
X10083885Y-8068333D01*
X10109302Y-8131667D02*
X10115135Y-8085000D01*
X10114302Y-8091667D02*
X10118052Y-8088333D01*
X10125135Y-8085000D01*
X10135135Y-8085000D01*
X10141385Y-8088333D01*
X10143885Y-8095000D01*
X10139302Y-8131667D01*
X10143885Y-8095000D02*
X10148052Y-8088333D01*
X10155135Y-8085000D01*
X10165135Y-8085000D01*
X10171385Y-8088333D01*
X10173885Y-8095000D01*
X10169302Y-8131667D01*
X9843052Y-8828333D02*
X9835969Y-8831667D01*
X9822635Y-8831667D01*
X9816385Y-8828333D01*
X9813885Y-8821667D01*
X9817219Y-8795000D01*
X9821385Y-8788333D01*
X9828469Y-8785000D01*
X9841802Y-8785000D01*
X9848052Y-8788333D01*
X9850552Y-8795000D01*
X9849719Y-8801667D01*
X9815552Y-8808333D01*
X9885969Y-8831667D02*
X9879719Y-8828333D01*
X9877219Y-8821667D01*
X9884719Y-8761667D01*
X9942635Y-8831667D02*
X9951385Y-8761667D01*
X9943052Y-8828333D02*
X9935969Y-8831667D01*
X9922635Y-8831667D01*
X9916385Y-8828333D01*
X9913469Y-8825000D01*
X9910969Y-8818333D01*
X9913469Y-8798333D01*
X9917635Y-8791667D01*
X9921385Y-8788333D01*
X9928469Y-8785000D01*
X9941802Y-8785000D01*
X9948052Y-8788333D01*
X10005969Y-8831667D02*
X10010552Y-8795000D01*
X10008052Y-8788333D01*
X10001802Y-8785000D01*
X9988469Y-8785000D01*
X9981385Y-8788333D01*
X10006385Y-8828333D02*
X9999302Y-8831667D01*
X9982635Y-8831667D01*
X9976385Y-8828333D01*
X9973885Y-8821667D01*
X9974719Y-8815000D01*
X9978885Y-8808333D01*
X9985969Y-8805000D01*
X10002635Y-8805000D01*
X10009719Y-8801667D01*
X10049302Y-8831667D02*
X10043052Y-8828333D01*
X10040552Y-8821667D01*
X10048052Y-8761667D01*
X10075969Y-8831667D02*
X10081802Y-8785000D01*
X10084719Y-8761667D02*
X10080969Y-8765000D01*
X10083885Y-8768333D01*
X10087635Y-8765000D01*
X10084719Y-8761667D01*
X10083885Y-8768333D01*
X10109302Y-8831667D02*
X10115135Y-8785000D01*
X10114302Y-8791667D02*
X10118052Y-8788333D01*
X10125135Y-8785000D01*
X10135135Y-8785000D01*
X10141385Y-8788333D01*
X10143885Y-8795000D01*
X10139302Y-8831667D01*
X10143885Y-8795000D02*
X10148052Y-8788333D01*
X10155135Y-8785000D01*
X10165135Y-8785000D01*
X10171385Y-8788333D01*
X10173885Y-8795000D01*
X10169302Y-8831667D01*
X9843052Y-6728333D02*
X9835969Y-6731667D01*
X9822635Y-6731667D01*
X9816385Y-6728333D01*
X9813885Y-6721667D01*
X9817219Y-6695000D01*
X9821385Y-6688333D01*
X9828469Y-6685000D01*
X9841802Y-6685000D01*
X9848052Y-6688333D01*
X9850552Y-6695000D01*
X9849719Y-6701667D01*
X9815552Y-6708333D01*
X9885969Y-6731667D02*
X9879719Y-6728333D01*
X9877219Y-6721667D01*
X9884719Y-6661667D01*
X9942635Y-6731667D02*
X9951385Y-6661667D01*
X9943052Y-6728333D02*
X9935969Y-6731667D01*
X9922635Y-6731667D01*
X9916385Y-6728333D01*
X9913469Y-6725000D01*
X9910969Y-6718333D01*
X9913469Y-6698333D01*
X9917635Y-6691667D01*
X9921385Y-6688333D01*
X9928469Y-6685000D01*
X9941802Y-6685000D01*
X9948052Y-6688333D01*
X10005969Y-6731667D02*
X10010552Y-6695000D01*
X10008052Y-6688333D01*
X10001802Y-6685000D01*
X9988469Y-6685000D01*
X9981385Y-6688333D01*
X10006385Y-6728333D02*
X9999302Y-6731667D01*
X9982635Y-6731667D01*
X9976385Y-6728333D01*
X9973885Y-6721667D01*
X9974719Y-6715000D01*
X9978885Y-6708333D01*
X9985969Y-6705000D01*
X10002635Y-6705000D01*
X10009719Y-6701667D01*
X10049302Y-6731667D02*
X10043052Y-6728333D01*
X10040552Y-6721667D01*
X10048052Y-6661667D01*
X10075969Y-6731667D02*
X10081802Y-6685000D01*
X10084719Y-6661667D02*
X10080969Y-6665000D01*
X10083885Y-6668333D01*
X10087635Y-6665000D01*
X10084719Y-6661667D01*
X10083885Y-6668333D01*
X10109302Y-6731667D02*
X10115135Y-6685000D01*
X10114302Y-6691667D02*
X10118052Y-6688333D01*
X10125135Y-6685000D01*
X10135135Y-6685000D01*
X10141385Y-6688333D01*
X10143885Y-6695000D01*
X10139302Y-6731667D01*
X10143885Y-6695000D02*
X10148052Y-6688333D01*
X10155135Y-6685000D01*
X10165135Y-6685000D01*
X10171385Y-6688333D01*
X10173885Y-6695000D01*
X10169302Y-6731667D01*
X9843052Y-7428333D02*
X9835969Y-7431667D01*
X9822635Y-7431667D01*
X9816385Y-7428333D01*
X9813885Y-7421667D01*
X9817219Y-7395000D01*
X9821385Y-7388333D01*
X9828469Y-7385000D01*
X9841802Y-7385000D01*
X9848052Y-7388333D01*
X9850552Y-7395000D01*
X9849719Y-7401667D01*
X9815552Y-7408333D01*
X9885969Y-7431667D02*
X9879719Y-7428333D01*
X9877219Y-7421667D01*
X9884719Y-7361667D01*
X9942635Y-7431667D02*
X9951385Y-7361667D01*
X9943052Y-7428333D02*
X9935969Y-7431667D01*
X9922635Y-7431667D01*
X9916385Y-7428333D01*
X9913469Y-7425000D01*
X9910969Y-7418333D01*
X9913469Y-7398333D01*
X9917635Y-7391667D01*
X9921385Y-7388333D01*
X9928469Y-7385000D01*
X9941802Y-7385000D01*
X9948052Y-7388333D01*
X10005969Y-7431667D02*
X10010552Y-7395000D01*
X10008052Y-7388333D01*
X10001802Y-7385000D01*
X9988469Y-7385000D01*
X9981385Y-7388333D01*
X10006385Y-7428333D02*
X9999302Y-7431667D01*
X9982635Y-7431667D01*
X9976385Y-7428333D01*
X9973885Y-7421667D01*
X9974719Y-7415000D01*
X9978885Y-7408333D01*
X9985969Y-7405000D01*
X10002635Y-7405000D01*
X10009719Y-7401667D01*
X10049302Y-7431667D02*
X10043052Y-7428333D01*
X10040552Y-7421667D01*
X10048052Y-7361667D01*
X10075969Y-7431667D02*
X10081802Y-7385000D01*
X10084719Y-7361667D02*
X10080969Y-7365000D01*
X10083885Y-7368333D01*
X10087635Y-7365000D01*
X10084719Y-7361667D01*
X10083885Y-7368333D01*
X10109302Y-7431667D02*
X10115135Y-7385000D01*
X10114302Y-7391667D02*
X10118052Y-7388333D01*
X10125135Y-7385000D01*
X10135135Y-7385000D01*
X10141385Y-7388333D01*
X10143885Y-7395000D01*
X10139302Y-7431667D01*
X10143885Y-7395000D02*
X10148052Y-7388333D01*
X10155135Y-7385000D01*
X10165135Y-7385000D01*
X10171385Y-7388333D01*
X10173885Y-7395000D01*
X10169302Y-7431667D01*
X9843052Y-6028333D02*
X9835969Y-6031667D01*
X9822635Y-6031667D01*
X9816385Y-6028333D01*
X9813885Y-6021667D01*
X9817219Y-5995000D01*
X9821385Y-5988333D01*
X9828469Y-5985000D01*
X9841802Y-5985000D01*
X9848052Y-5988333D01*
X9850552Y-5995000D01*
X9849719Y-6001667D01*
X9815552Y-6008333D01*
X9885969Y-6031667D02*
X9879719Y-6028333D01*
X9877219Y-6021667D01*
X9884719Y-5961667D01*
X9942635Y-6031667D02*
X9951385Y-5961667D01*
X9943052Y-6028333D02*
X9935969Y-6031667D01*
X9922635Y-6031667D01*
X9916385Y-6028333D01*
X9913469Y-6025000D01*
X9910969Y-6018333D01*
X9913469Y-5998333D01*
X9917635Y-5991667D01*
X9921385Y-5988333D01*
X9928469Y-5985000D01*
X9941802Y-5985000D01*
X9948052Y-5988333D01*
X10005969Y-6031667D02*
X10010552Y-5995000D01*
X10008052Y-5988333D01*
X10001802Y-5985000D01*
X9988469Y-5985000D01*
X9981385Y-5988333D01*
X10006385Y-6028333D02*
X9999302Y-6031667D01*
X9982635Y-6031667D01*
X9976385Y-6028333D01*
X9973885Y-6021667D01*
X9974719Y-6015000D01*
X9978885Y-6008333D01*
X9985969Y-6005000D01*
X10002635Y-6005000D01*
X10009719Y-6001667D01*
X10049302Y-6031667D02*
X10043052Y-6028333D01*
X10040552Y-6021667D01*
X10048052Y-5961667D01*
X10075969Y-6031667D02*
X10081802Y-5985000D01*
X10084719Y-5961667D02*
X10080969Y-5965000D01*
X10083885Y-5968333D01*
X10087635Y-5965000D01*
X10084719Y-5961667D01*
X10083885Y-5968333D01*
X10109302Y-6031667D02*
X10115135Y-5985000D01*
X10114302Y-5991667D02*
X10118052Y-5988333D01*
X10125135Y-5985000D01*
X10135135Y-5985000D01*
X10141385Y-5988333D01*
X10143885Y-5995000D01*
X10139302Y-6031667D01*
X10143885Y-5995000D02*
X10148052Y-5988333D01*
X10155135Y-5985000D01*
X10165135Y-5985000D01*
X10171385Y-5988333D01*
X10173885Y-5995000D01*
X10169302Y-6031667D01*
X9843052Y-5328333D02*
X9835969Y-5331667D01*
X9822635Y-5331667D01*
X9816385Y-5328333D01*
X9813885Y-5321667D01*
X9817219Y-5295000D01*
X9821385Y-5288333D01*
X9828469Y-5285000D01*
X9841802Y-5285000D01*
X9848052Y-5288333D01*
X9850552Y-5295000D01*
X9849719Y-5301667D01*
X9815552Y-5308333D01*
X9885969Y-5331667D02*
X9879719Y-5328333D01*
X9877219Y-5321667D01*
X9884719Y-5261667D01*
X9942635Y-5331667D02*
X9951385Y-5261667D01*
X9943052Y-5328333D02*
X9935969Y-5331667D01*
X9922635Y-5331667D01*
X9916385Y-5328333D01*
X9913469Y-5325000D01*
X9910969Y-5318333D01*
X9913469Y-5298333D01*
X9917635Y-5291667D01*
X9921385Y-5288333D01*
X9928469Y-5285000D01*
X9941802Y-5285000D01*
X9948052Y-5288333D01*
X10005969Y-5331667D02*
X10010552Y-5295000D01*
X10008052Y-5288333D01*
X10001802Y-5285000D01*
X9988469Y-5285000D01*
X9981385Y-5288333D01*
X10006385Y-5328333D02*
X9999302Y-5331667D01*
X9982635Y-5331667D01*
X9976385Y-5328333D01*
X9973885Y-5321667D01*
X9974719Y-5315000D01*
X9978885Y-5308333D01*
X9985969Y-5305000D01*
X10002635Y-5305000D01*
X10009719Y-5301667D01*
X10049302Y-5331667D02*
X10043052Y-5328333D01*
X10040552Y-5321667D01*
X10048052Y-5261667D01*
X10075969Y-5331667D02*
X10081802Y-5285000D01*
X10084719Y-5261667D02*
X10080969Y-5265000D01*
X10083885Y-5268333D01*
X10087635Y-5265000D01*
X10084719Y-5261667D01*
X10083885Y-5268333D01*
X10109302Y-5331667D02*
X10115135Y-5285000D01*
X10114302Y-5291667D02*
X10118052Y-5288333D01*
X10125135Y-5285000D01*
X10135135Y-5285000D01*
X10141385Y-5288333D01*
X10143885Y-5295000D01*
X10139302Y-5331667D01*
X10143885Y-5295000D02*
X10148052Y-5288333D01*
X10155135Y-5285000D01*
X10165135Y-5285000D01*
X10171385Y-5288333D01*
X10173885Y-5295000D01*
X10169302Y-5331667D01*
X10150000Y-9450000D02*
X10250000Y-9350000D01*
X10250000Y-9430000D02*
X10230000Y-9450000D01*
X10210000Y-9450000D02*
X10250000Y-9410000D01*
X10250000Y-9390000D02*
X10190000Y-9450000D01*
X10170000Y-9450000D02*
X10250000Y-9370000D01*
X10250000Y-9360000D02*
X10160000Y-9450000D01*
X10220000Y-9200000D02*
G75*
G03X10220000Y-9200000I-220000J0D01*
G01*
X10250000Y-8950000D02*
X10250000Y-9450000D01*
X10250000Y-9450000D02*
X9750000Y-9450000D01*
X9750000Y-9450000D02*
X9750000Y-8950000D01*
D11*
X9750000Y-8950000D02*
X10250000Y-8950000D01*
X9750000Y-9650000D02*
X10250000Y-9650000D01*
D10*
X9750000Y-10150000D02*
X9750000Y-9650000D01*
X10250000Y-10150000D02*
X9750000Y-10150000D01*
X10250000Y-9650000D02*
X10250000Y-10150000D01*
X10220000Y-9900000D02*
G75*
G03X10220000Y-9900000I-220000J0D01*
G01*
X10250000Y-10060000D02*
X10160000Y-10150000D01*
X10170000Y-10150000D02*
X10250000Y-10070000D01*
X10250000Y-10090000D02*
X10190000Y-10150000D01*
X10210000Y-10150000D02*
X10250000Y-10110000D01*
X10250000Y-10130000D02*
X10230000Y-10150000D01*
X10150000Y-10150000D02*
X10250000Y-10050000D01*
X10150000Y-11550000D02*
X10250000Y-11450000D01*
X10250000Y-11530000D02*
X10230000Y-11550000D01*
X10210000Y-11550000D02*
X10250000Y-11510000D01*
X10250000Y-11490000D02*
X10190000Y-11550000D01*
X10170000Y-11550000D02*
X10250000Y-11470000D01*
X10250000Y-11460000D02*
X10160000Y-11550000D01*
X10220000Y-11300000D02*
G75*
G03X10220000Y-11300000I-220000J0D01*
G01*
X10250000Y-11050000D02*
X10250000Y-11550000D01*
X10250000Y-11550000D02*
X9750000Y-11550000D01*
X9750000Y-11550000D02*
X9750000Y-11050000D01*
D11*
X9750000Y-11050000D02*
X10250000Y-11050000D01*
X9750000Y-10350000D02*
X10250000Y-10350000D01*
D10*
X9750000Y-10850000D02*
X9750000Y-10350000D01*
X10250000Y-10850000D02*
X9750000Y-10850000D01*
X10250000Y-10350000D02*
X10250000Y-10850000D01*
X10220000Y-10600000D02*
G75*
G03X10220000Y-10600000I-220000J0D01*
G01*
X10250000Y-10760000D02*
X10160000Y-10850000D01*
X10170000Y-10850000D02*
X10250000Y-10770000D01*
X10250000Y-10790000D02*
X10190000Y-10850000D01*
X10210000Y-10850000D02*
X10250000Y-10810000D01*
X10250000Y-10830000D02*
X10230000Y-10850000D01*
X10150000Y-10850000D02*
X10250000Y-10750000D01*
X10150000Y-12950000D02*
X10250000Y-12850000D01*
X10250000Y-12930000D02*
X10230000Y-12950000D01*
X10210000Y-12950000D02*
X10250000Y-12910000D01*
X10250000Y-12890000D02*
X10190000Y-12950000D01*
X10170000Y-12950000D02*
X10250000Y-12870000D01*
X10250000Y-12860000D02*
X10160000Y-12950000D01*
X10220000Y-12700000D02*
G75*
G03X10220000Y-12700000I-220000J0D01*
G01*
X10250000Y-12450000D02*
X10250000Y-12950000D01*
X10250000Y-12950000D02*
X9750000Y-12950000D01*
X9750000Y-12950000D02*
X9750000Y-12450000D01*
D11*
X9750000Y-12450000D02*
X10250000Y-12450000D01*
X9750000Y-11750000D02*
X10250000Y-11750000D01*
D10*
X9750000Y-12250000D02*
X9750000Y-11750000D01*
X10250000Y-12250000D02*
X9750000Y-12250000D01*
X10250000Y-11750000D02*
X10250000Y-12250000D01*
X10220000Y-12000000D02*
G75*
G03X10220000Y-12000000I-220000J0D01*
G01*
X10250000Y-12160000D02*
X10160000Y-12250000D01*
X10170000Y-12250000D02*
X10250000Y-12170000D01*
X10250000Y-12190000D02*
X10190000Y-12250000D01*
X10210000Y-12250000D02*
X10250000Y-12210000D01*
X10250000Y-12230000D02*
X10230000Y-12250000D01*
X10150000Y-12250000D02*
X10250000Y-12150000D01*
X10150000Y-14350000D02*
X10250000Y-14250000D01*
X10250000Y-14330000D02*
X10230000Y-14350000D01*
X10210000Y-14350000D02*
X10250000Y-14310000D01*
X10250000Y-14290000D02*
X10190000Y-14350000D01*
X10170000Y-14350000D02*
X10250000Y-14270000D01*
X10250000Y-14260000D02*
X10160000Y-14350000D01*
X10220000Y-14100000D02*
G75*
G03X10220000Y-14100000I-220000J0D01*
G01*
X10250000Y-13850000D02*
X10250000Y-14350000D01*
X10250000Y-14350000D02*
X9750000Y-14350000D01*
X9750000Y-14350000D02*
X9750000Y-13850000D01*
D11*
X9750000Y-13850000D02*
X10250000Y-13850000D01*
X9750000Y-13150000D02*
X10250000Y-13150000D01*
D10*
X9750000Y-13650000D02*
X9750000Y-13150000D01*
X10250000Y-13650000D02*
X9750000Y-13650000D01*
X10250000Y-13150000D02*
X10250000Y-13650000D01*
X10220000Y-13400000D02*
G75*
G03X10220000Y-13400000I-220000J0D01*
G01*
X10250000Y-13560000D02*
X10160000Y-13650000D01*
X10170000Y-13650000D02*
X10250000Y-13570000D01*
X10250000Y-13590000D02*
X10190000Y-13650000D01*
X10210000Y-13650000D02*
X10250000Y-13610000D01*
X10250000Y-13630000D02*
X10230000Y-13650000D01*
X10150000Y-13650000D02*
X10250000Y-13550000D01*
X10150000Y-8050000D02*
X10250000Y-7950000D01*
X10250000Y-8030000D02*
X10230000Y-8050000D01*
X10210000Y-8050000D02*
X10250000Y-8010000D01*
X10250000Y-7990000D02*
X10190000Y-8050000D01*
X10170000Y-8050000D02*
X10250000Y-7970000D01*
X10250000Y-7960000D02*
X10160000Y-8050000D01*
X10220000Y-7800000D02*
G75*
G03X10220000Y-7800000I-220000J0D01*
G01*
X10250000Y-7550000D02*
X10250000Y-8050000D01*
X10250000Y-8050000D02*
X9750000Y-8050000D01*
X9750000Y-8050000D02*
X9750000Y-7550000D01*
D11*
X9750000Y-7550000D02*
X10250000Y-7550000D01*
X9750000Y-8250000D02*
X10250000Y-8250000D01*
D10*
X9750000Y-8750000D02*
X9750000Y-8250000D01*
X10250000Y-8750000D02*
X9750000Y-8750000D01*
X10250000Y-8250000D02*
X10250000Y-8750000D01*
X10220000Y-8500000D02*
G75*
G03X10220000Y-8500000I-220000J0D01*
G01*
X10250000Y-8660000D02*
X10160000Y-8750000D01*
X10170000Y-8750000D02*
X10250000Y-8670000D01*
X10250000Y-8690000D02*
X10190000Y-8750000D01*
X10210000Y-8750000D02*
X10250000Y-8710000D01*
X10250000Y-8730000D02*
X10230000Y-8750000D01*
X10150000Y-8750000D02*
X10250000Y-8650000D01*
X10150000Y-6650000D02*
X10250000Y-6550000D01*
X10250000Y-6630000D02*
X10230000Y-6650000D01*
X10210000Y-6650000D02*
X10250000Y-6610000D01*
X10250000Y-6590000D02*
X10190000Y-6650000D01*
X10170000Y-6650000D02*
X10250000Y-6570000D01*
X10250000Y-6560000D02*
X10160000Y-6650000D01*
X10220000Y-6400000D02*
G75*
G03X10220000Y-6400000I-220000J0D01*
G01*
X10250000Y-6150000D02*
X10250000Y-6650000D01*
X10250000Y-6650000D02*
X9750000Y-6650000D01*
X9750000Y-6650000D02*
X9750000Y-6150000D01*
D11*
X9750000Y-6150000D02*
X10250000Y-6150000D01*
X9750000Y-6850000D02*
X10250000Y-6850000D01*
D10*
X9750000Y-7350000D02*
X9750000Y-6850000D01*
X10250000Y-7350000D02*
X9750000Y-7350000D01*
X10250000Y-6850000D02*
X10250000Y-7350000D01*
X10220000Y-7100000D02*
G75*
G03X10220000Y-7100000I-220000J0D01*
G01*
X10250000Y-7260000D02*
X10160000Y-7350000D01*
X10170000Y-7350000D02*
X10250000Y-7270000D01*
X10250000Y-7290000D02*
X10190000Y-7350000D01*
X10210000Y-7350000D02*
X10250000Y-7310000D01*
X10250000Y-7330000D02*
X10230000Y-7350000D01*
X10150000Y-7350000D02*
X10250000Y-7250000D01*
X10150000Y-5950000D02*
X10250000Y-5850000D01*
X10250000Y-5930000D02*
X10230000Y-5950000D01*
X10210000Y-5950000D02*
X10250000Y-5910000D01*
X10250000Y-5890000D02*
X10190000Y-5950000D01*
X10170000Y-5950000D02*
X10250000Y-5870000D01*
X10250000Y-5860000D02*
X10160000Y-5950000D01*
X10220000Y-5700000D02*
G75*
G03X10220000Y-5700000I-220000J0D01*
G01*
X10250000Y-5450000D02*
X10250000Y-5950000D01*
X10250000Y-5950000D02*
X9750000Y-5950000D01*
X9750000Y-5950000D02*
X9750000Y-5450000D01*
D11*
X9750000Y-5450000D02*
X10250000Y-5450000D01*
X9750000Y-4750000D02*
X10250000Y-4750000D01*
D10*
X9750000Y-5250000D02*
X9750000Y-4750000D01*
X10250000Y-5250000D02*
X9750000Y-5250000D01*
X10250000Y-4750000D02*
X10250000Y-5250000D01*
X10220000Y-5000000D02*
G75*
G03X10220000Y-5000000I-220000J0D01*
G01*
X10250000Y-5160000D02*
X10160000Y-5250000D01*
X10170000Y-5250000D02*
X10250000Y-5170000D01*
X10250000Y-5190000D02*
X10190000Y-5250000D01*
X10210000Y-5250000D02*
X10250000Y-5210000D01*
X10250000Y-5230000D02*
X10230000Y-5250000D01*
X10150000Y-5250000D02*
X10250000Y-5150000D01*
X9821429Y-8867143D02*
X9835714Y-8927143D01*
X9847143Y-8884286D01*
X9858571Y-8927143D01*
X9872857Y-8867143D01*
X9892857Y-8924286D02*
X9901429Y-8927143D01*
X9915714Y-8927143D01*
X9921429Y-8924286D01*
X9924286Y-8921429D01*
X9927143Y-8915714D01*
X9927143Y-8910000D01*
X9924286Y-8904286D01*
X9921429Y-8901429D01*
X9915714Y-8898571D01*
X9904286Y-8895714D01*
X9898571Y-8892857D01*
X9895714Y-8890000D01*
X9892857Y-8884286D01*
X9892857Y-8878571D01*
X9895714Y-8872857D01*
X9898571Y-8870000D01*
X9904286Y-8867143D01*
X9918571Y-8867143D01*
X9927143Y-8870000D01*
X9950000Y-8872857D02*
X9952857Y-8870000D01*
X9958571Y-8867143D01*
X9972857Y-8867143D01*
X9978571Y-8870000D01*
X9981429Y-8872857D01*
X9984286Y-8878571D01*
X9984286Y-8884286D01*
X9981429Y-8892857D01*
X9947143Y-8927143D01*
X9984286Y-8927143D01*
X10018571Y-8892857D02*
X10012857Y-8890000D01*
X10010000Y-8887143D01*
X10007143Y-8881429D01*
X10007143Y-8878571D01*
X10010000Y-8872857D01*
X10012857Y-8870000D01*
X10018571Y-8867143D01*
X10030000Y-8867143D01*
X10035714Y-8870000D01*
X10038571Y-8872857D01*
X10041429Y-8878571D01*
X10041429Y-8881429D01*
X10038571Y-8887143D01*
X10035714Y-8890000D01*
X10030000Y-8892857D01*
X10018571Y-8892857D01*
X10012857Y-8895714D01*
X10010000Y-8898571D01*
X10007143Y-8904286D01*
X10007143Y-8915714D01*
X10010000Y-8921429D01*
X10012857Y-8924286D01*
X10018571Y-8927143D01*
X10030000Y-8927143D01*
X10035714Y-8924286D01*
X10038571Y-8921429D01*
X10041429Y-8915714D01*
X10041429Y-8904286D01*
X10038571Y-8898571D01*
X10035714Y-8895714D01*
X10030000Y-8892857D01*
X10098571Y-8927143D02*
X10064286Y-8927143D01*
X10081429Y-8927143D02*
X10081429Y-8867143D01*
X10075714Y-8875714D01*
X10070000Y-8881429D01*
X10064286Y-8884286D01*
X10118571Y-8867143D02*
X10155714Y-8867143D01*
X10135714Y-8890000D01*
X10144286Y-8890000D01*
X10150000Y-8892857D01*
X10152857Y-8895714D01*
X10155714Y-8901429D01*
X10155714Y-8915714D01*
X10152857Y-8921429D01*
X10150000Y-8924286D01*
X10144286Y-8927143D01*
X10127143Y-8927143D01*
X10121429Y-8924286D01*
X10118571Y-8921429D01*
D12*
X10341429Y-9500000D02*
X10350952Y-9490476D01*
X10360476Y-9500000D01*
X10350952Y-9509524D01*
X10341429Y-9500000D01*
X10360476Y-9500000D01*
D10*
X10346190Y-9280000D02*
X10346190Y-9264762D01*
X10350000Y-9257143D01*
X10357619Y-9249524D01*
X10372857Y-9245714D01*
X10399524Y-9245714D01*
X10414762Y-9249524D01*
X10422381Y-9257143D01*
X10426190Y-9264762D01*
X10426190Y-9280000D01*
X10422381Y-9287619D01*
X10414762Y-9295238D01*
X10399524Y-9299048D01*
X10372857Y-9299048D01*
X10357619Y-9295238D01*
X10350000Y-9287619D01*
X10346190Y-9280000D01*
X10346190Y-9211429D02*
X10410952Y-9211429D01*
X10418571Y-9207619D01*
X10422381Y-9203810D01*
X10426190Y-9196190D01*
X10426190Y-9180952D01*
X10422381Y-9173333D01*
X10418571Y-9169524D01*
X10410952Y-9165714D01*
X10346190Y-9165714D01*
X10346190Y-9139048D02*
X10346190Y-9093333D01*
X10426190Y-9116190D02*
X10346190Y-9116190D01*
X9656190Y-9241905D02*
X9576190Y-9241905D01*
X9656190Y-9203810D02*
X9576190Y-9203810D01*
X9656190Y-9158095D01*
X9576190Y-9158095D01*
X9656190Y-9941905D02*
X9576190Y-9941905D01*
X9656190Y-9903810D02*
X9576190Y-9903810D01*
X9656190Y-9858095D01*
X9576190Y-9858095D01*
X10346190Y-9980000D02*
X10346190Y-9964762D01*
X10350000Y-9957143D01*
X10357619Y-9949524D01*
X10372857Y-9945714D01*
X10399524Y-9945714D01*
X10414762Y-9949524D01*
X10422381Y-9957143D01*
X10426190Y-9964762D01*
X10426190Y-9980000D01*
X10422381Y-9987619D01*
X10414762Y-9995238D01*
X10399524Y-9999048D01*
X10372857Y-9999048D01*
X10357619Y-9995238D01*
X10350000Y-9987619D01*
X10346190Y-9980000D01*
X10346190Y-9911429D02*
X10410952Y-9911429D01*
X10418571Y-9907619D01*
X10422381Y-9903810D01*
X10426190Y-9896190D01*
X10426190Y-9880952D01*
X10422381Y-9873333D01*
X10418571Y-9869524D01*
X10410952Y-9865714D01*
X10346190Y-9865714D01*
X10346190Y-9839048D02*
X10346190Y-9793333D01*
X10426190Y-9816190D02*
X10346190Y-9816190D01*
X9821429Y-9567143D02*
X9835714Y-9627143D01*
X9847143Y-9584286D01*
X9858571Y-9627143D01*
X9872857Y-9567143D01*
X9892857Y-9624286D02*
X9901429Y-9627143D01*
X9915714Y-9627143D01*
X9921429Y-9624286D01*
X9924286Y-9621429D01*
X9927143Y-9615714D01*
X9927143Y-9610000D01*
X9924286Y-9604286D01*
X9921429Y-9601429D01*
X9915714Y-9598571D01*
X9904286Y-9595714D01*
X9898571Y-9592857D01*
X9895714Y-9590000D01*
X9892857Y-9584286D01*
X9892857Y-9578571D01*
X9895714Y-9572857D01*
X9898571Y-9570000D01*
X9904286Y-9567143D01*
X9918571Y-9567143D01*
X9927143Y-9570000D01*
X9950000Y-9572857D02*
X9952857Y-9570000D01*
X9958571Y-9567143D01*
X9972857Y-9567143D01*
X9978571Y-9570000D01*
X9981429Y-9572857D01*
X9984286Y-9578571D01*
X9984286Y-9584286D01*
X9981429Y-9592857D01*
X9947143Y-9627143D01*
X9984286Y-9627143D01*
X10018571Y-9592857D02*
X10012857Y-9590000D01*
X10010000Y-9587143D01*
X10007143Y-9581429D01*
X10007143Y-9578571D01*
X10010000Y-9572857D01*
X10012857Y-9570000D01*
X10018571Y-9567143D01*
X10030000Y-9567143D01*
X10035714Y-9570000D01*
X10038571Y-9572857D01*
X10041429Y-9578571D01*
X10041429Y-9581429D01*
X10038571Y-9587143D01*
X10035714Y-9590000D01*
X10030000Y-9592857D01*
X10018571Y-9592857D01*
X10012857Y-9595714D01*
X10010000Y-9598571D01*
X10007143Y-9604286D01*
X10007143Y-9615714D01*
X10010000Y-9621429D01*
X10012857Y-9624286D01*
X10018571Y-9627143D01*
X10030000Y-9627143D01*
X10035714Y-9624286D01*
X10038571Y-9621429D01*
X10041429Y-9615714D01*
X10041429Y-9604286D01*
X10038571Y-9598571D01*
X10035714Y-9595714D01*
X10030000Y-9592857D01*
X10098571Y-9627143D02*
X10064286Y-9627143D01*
X10081429Y-9627143D02*
X10081429Y-9567143D01*
X10075714Y-9575714D01*
X10070000Y-9581429D01*
X10064286Y-9584286D01*
X10118571Y-9567143D02*
X10155714Y-9567143D01*
X10135714Y-9590000D01*
X10144286Y-9590000D01*
X10150000Y-9592857D01*
X10152857Y-9595714D01*
X10155714Y-9601429D01*
X10155714Y-9615714D01*
X10152857Y-9621429D01*
X10150000Y-9624286D01*
X10144286Y-9627143D01*
X10127143Y-9627143D01*
X10121429Y-9624286D01*
X10118571Y-9621429D01*
D12*
X10341429Y-10200000D02*
X10350952Y-10190476D01*
X10360476Y-10200000D01*
X10350952Y-10209524D01*
X10341429Y-10200000D01*
X10360476Y-10200000D01*
D10*
X9821429Y-10967143D02*
X9835714Y-11027143D01*
X9847143Y-10984286D01*
X9858571Y-11027143D01*
X9872857Y-10967143D01*
X9892857Y-11024286D02*
X9901429Y-11027143D01*
X9915714Y-11027143D01*
X9921429Y-11024286D01*
X9924286Y-11021429D01*
X9927143Y-11015714D01*
X9927143Y-11010000D01*
X9924286Y-11004286D01*
X9921429Y-11001429D01*
X9915714Y-10998571D01*
X9904286Y-10995714D01*
X9898571Y-10992857D01*
X9895714Y-10990000D01*
X9892857Y-10984286D01*
X9892857Y-10978571D01*
X9895714Y-10972857D01*
X9898571Y-10970000D01*
X9904286Y-10967143D01*
X9918571Y-10967143D01*
X9927143Y-10970000D01*
X9950000Y-10972857D02*
X9952857Y-10970000D01*
X9958571Y-10967143D01*
X9972857Y-10967143D01*
X9978571Y-10970000D01*
X9981429Y-10972857D01*
X9984286Y-10978571D01*
X9984286Y-10984286D01*
X9981429Y-10992857D01*
X9947143Y-11027143D01*
X9984286Y-11027143D01*
X10018571Y-10992857D02*
X10012857Y-10990000D01*
X10010000Y-10987143D01*
X10007143Y-10981429D01*
X10007143Y-10978571D01*
X10010000Y-10972857D01*
X10012857Y-10970000D01*
X10018571Y-10967143D01*
X10030000Y-10967143D01*
X10035714Y-10970000D01*
X10038571Y-10972857D01*
X10041429Y-10978571D01*
X10041429Y-10981429D01*
X10038571Y-10987143D01*
X10035714Y-10990000D01*
X10030000Y-10992857D01*
X10018571Y-10992857D01*
X10012857Y-10995714D01*
X10010000Y-10998571D01*
X10007143Y-11004286D01*
X10007143Y-11015714D01*
X10010000Y-11021429D01*
X10012857Y-11024286D01*
X10018571Y-11027143D01*
X10030000Y-11027143D01*
X10035714Y-11024286D01*
X10038571Y-11021429D01*
X10041429Y-11015714D01*
X10041429Y-11004286D01*
X10038571Y-10998571D01*
X10035714Y-10995714D01*
X10030000Y-10992857D01*
X10098571Y-11027143D02*
X10064286Y-11027143D01*
X10081429Y-11027143D02*
X10081429Y-10967143D01*
X10075714Y-10975714D01*
X10070000Y-10981429D01*
X10064286Y-10984286D01*
X10118571Y-10967143D02*
X10155714Y-10967143D01*
X10135714Y-10990000D01*
X10144286Y-10990000D01*
X10150000Y-10992857D01*
X10152857Y-10995714D01*
X10155714Y-11001429D01*
X10155714Y-11015714D01*
X10152857Y-11021429D01*
X10150000Y-11024286D01*
X10144286Y-11027143D01*
X10127143Y-11027143D01*
X10121429Y-11024286D01*
X10118571Y-11021429D01*
D12*
X10341429Y-11600000D02*
X10350952Y-11590476D01*
X10360476Y-11600000D01*
X10350952Y-11609524D01*
X10341429Y-11600000D01*
X10360476Y-11600000D01*
D10*
X10346190Y-11380000D02*
X10346190Y-11364762D01*
X10350000Y-11357143D01*
X10357619Y-11349524D01*
X10372857Y-11345714D01*
X10399524Y-11345714D01*
X10414762Y-11349524D01*
X10422381Y-11357143D01*
X10426190Y-11364762D01*
X10426190Y-11380000D01*
X10422381Y-11387619D01*
X10414762Y-11395238D01*
X10399524Y-11399048D01*
X10372857Y-11399048D01*
X10357619Y-11395238D01*
X10350000Y-11387619D01*
X10346190Y-11380000D01*
X10346190Y-11311428D02*
X10410952Y-11311428D01*
X10418571Y-11307619D01*
X10422381Y-11303809D01*
X10426190Y-11296190D01*
X10426190Y-11280952D01*
X10422381Y-11273333D01*
X10418571Y-11269524D01*
X10410952Y-11265714D01*
X10346190Y-11265714D01*
X10346190Y-11239048D02*
X10346190Y-11193333D01*
X10426190Y-11216190D02*
X10346190Y-11216190D01*
X9656190Y-11341905D02*
X9576190Y-11341905D01*
X9656190Y-11303809D02*
X9576190Y-11303809D01*
X9656190Y-11258095D01*
X9576190Y-11258095D01*
X9656190Y-10641905D02*
X9576190Y-10641905D01*
X9656190Y-10603810D02*
X9576190Y-10603810D01*
X9656190Y-10558095D01*
X9576190Y-10558095D01*
X10346190Y-10680000D02*
X10346190Y-10664762D01*
X10350000Y-10657143D01*
X10357619Y-10649524D01*
X10372857Y-10645714D01*
X10399524Y-10645714D01*
X10414762Y-10649524D01*
X10422381Y-10657143D01*
X10426190Y-10664762D01*
X10426190Y-10680000D01*
X10422381Y-10687619D01*
X10414762Y-10695238D01*
X10399524Y-10699048D01*
X10372857Y-10699048D01*
X10357619Y-10695238D01*
X10350000Y-10687619D01*
X10346190Y-10680000D01*
X10346190Y-10611429D02*
X10410952Y-10611429D01*
X10418571Y-10607619D01*
X10422381Y-10603810D01*
X10426190Y-10596190D01*
X10426190Y-10580952D01*
X10422381Y-10573333D01*
X10418571Y-10569524D01*
X10410952Y-10565714D01*
X10346190Y-10565714D01*
X10346190Y-10539048D02*
X10346190Y-10493333D01*
X10426190Y-10516190D02*
X10346190Y-10516190D01*
X9821429Y-10267143D02*
X9835714Y-10327143D01*
X9847143Y-10284286D01*
X9858571Y-10327143D01*
X9872857Y-10267143D01*
X9892857Y-10324286D02*
X9901429Y-10327143D01*
X9915714Y-10327143D01*
X9921429Y-10324286D01*
X9924286Y-10321429D01*
X9927143Y-10315714D01*
X9927143Y-10310000D01*
X9924286Y-10304286D01*
X9921429Y-10301429D01*
X9915714Y-10298571D01*
X9904286Y-10295714D01*
X9898571Y-10292857D01*
X9895714Y-10290000D01*
X9892857Y-10284286D01*
X9892857Y-10278571D01*
X9895714Y-10272857D01*
X9898571Y-10270000D01*
X9904286Y-10267143D01*
X9918571Y-10267143D01*
X9927143Y-10270000D01*
X9950000Y-10272857D02*
X9952857Y-10270000D01*
X9958571Y-10267143D01*
X9972857Y-10267143D01*
X9978571Y-10270000D01*
X9981429Y-10272857D01*
X9984286Y-10278571D01*
X9984286Y-10284286D01*
X9981429Y-10292857D01*
X9947143Y-10327143D01*
X9984286Y-10327143D01*
X10018571Y-10292857D02*
X10012857Y-10290000D01*
X10010000Y-10287143D01*
X10007143Y-10281429D01*
X10007143Y-10278571D01*
X10010000Y-10272857D01*
X10012857Y-10270000D01*
X10018571Y-10267143D01*
X10030000Y-10267143D01*
X10035714Y-10270000D01*
X10038571Y-10272857D01*
X10041429Y-10278571D01*
X10041429Y-10281429D01*
X10038571Y-10287143D01*
X10035714Y-10290000D01*
X10030000Y-10292857D01*
X10018571Y-10292857D01*
X10012857Y-10295714D01*
X10010000Y-10298571D01*
X10007143Y-10304286D01*
X10007143Y-10315714D01*
X10010000Y-10321429D01*
X10012857Y-10324286D01*
X10018571Y-10327143D01*
X10030000Y-10327143D01*
X10035714Y-10324286D01*
X10038571Y-10321429D01*
X10041429Y-10315714D01*
X10041429Y-10304286D01*
X10038571Y-10298571D01*
X10035714Y-10295714D01*
X10030000Y-10292857D01*
X10098571Y-10327143D02*
X10064286Y-10327143D01*
X10081429Y-10327143D02*
X10081429Y-10267143D01*
X10075714Y-10275714D01*
X10070000Y-10281429D01*
X10064286Y-10284286D01*
X10118571Y-10267143D02*
X10155714Y-10267143D01*
X10135714Y-10290000D01*
X10144286Y-10290000D01*
X10150000Y-10292857D01*
X10152857Y-10295714D01*
X10155714Y-10301429D01*
X10155714Y-10315714D01*
X10152857Y-10321429D01*
X10150000Y-10324286D01*
X10144286Y-10327143D01*
X10127143Y-10327143D01*
X10121429Y-10324286D01*
X10118571Y-10321429D01*
D12*
X10341429Y-10900000D02*
X10350952Y-10890476D01*
X10360476Y-10900000D01*
X10350952Y-10909524D01*
X10341429Y-10900000D01*
X10360476Y-10900000D01*
D10*
X9821429Y-12367143D02*
X9835714Y-12427143D01*
X9847143Y-12384286D01*
X9858571Y-12427143D01*
X9872857Y-12367143D01*
X9892857Y-12424286D02*
X9901429Y-12427143D01*
X9915714Y-12427143D01*
X9921429Y-12424286D01*
X9924286Y-12421428D01*
X9927143Y-12415714D01*
X9927143Y-12410000D01*
X9924286Y-12404286D01*
X9921429Y-12401428D01*
X9915714Y-12398571D01*
X9904286Y-12395714D01*
X9898571Y-12392857D01*
X9895714Y-12390000D01*
X9892857Y-12384286D01*
X9892857Y-12378571D01*
X9895714Y-12372857D01*
X9898571Y-12370000D01*
X9904286Y-12367143D01*
X9918571Y-12367143D01*
X9927143Y-12370000D01*
X9950000Y-12372857D02*
X9952857Y-12370000D01*
X9958571Y-12367143D01*
X9972857Y-12367143D01*
X9978571Y-12370000D01*
X9981429Y-12372857D01*
X9984286Y-12378571D01*
X9984286Y-12384286D01*
X9981429Y-12392857D01*
X9947143Y-12427143D01*
X9984286Y-12427143D01*
X10018571Y-12392857D02*
X10012857Y-12390000D01*
X10010000Y-12387143D01*
X10007143Y-12381428D01*
X10007143Y-12378571D01*
X10010000Y-12372857D01*
X10012857Y-12370000D01*
X10018571Y-12367143D01*
X10030000Y-12367143D01*
X10035714Y-12370000D01*
X10038571Y-12372857D01*
X10041429Y-12378571D01*
X10041429Y-12381428D01*
X10038571Y-12387143D01*
X10035714Y-12390000D01*
X10030000Y-12392857D01*
X10018571Y-12392857D01*
X10012857Y-12395714D01*
X10010000Y-12398571D01*
X10007143Y-12404286D01*
X10007143Y-12415714D01*
X10010000Y-12421428D01*
X10012857Y-12424286D01*
X10018571Y-12427143D01*
X10030000Y-12427143D01*
X10035714Y-12424286D01*
X10038571Y-12421428D01*
X10041429Y-12415714D01*
X10041429Y-12404286D01*
X10038571Y-12398571D01*
X10035714Y-12395714D01*
X10030000Y-12392857D01*
X10098571Y-12427143D02*
X10064286Y-12427143D01*
X10081429Y-12427143D02*
X10081429Y-12367143D01*
X10075714Y-12375714D01*
X10070000Y-12381428D01*
X10064286Y-12384286D01*
X10118571Y-12367143D02*
X10155714Y-12367143D01*
X10135714Y-12390000D01*
X10144286Y-12390000D01*
X10150000Y-12392857D01*
X10152857Y-12395714D01*
X10155714Y-12401428D01*
X10155714Y-12415714D01*
X10152857Y-12421428D01*
X10150000Y-12424286D01*
X10144286Y-12427143D01*
X10127143Y-12427143D01*
X10121429Y-12424286D01*
X10118571Y-12421428D01*
D12*
X10341429Y-13000000D02*
X10350952Y-12990476D01*
X10360476Y-13000000D01*
X10350952Y-13009524D01*
X10341429Y-13000000D01*
X10360476Y-13000000D01*
D10*
X10346190Y-12780000D02*
X10346190Y-12764762D01*
X10350000Y-12757143D01*
X10357619Y-12749524D01*
X10372857Y-12745714D01*
X10399524Y-12745714D01*
X10414762Y-12749524D01*
X10422381Y-12757143D01*
X10426190Y-12764762D01*
X10426190Y-12780000D01*
X10422381Y-12787619D01*
X10414762Y-12795238D01*
X10399524Y-12799048D01*
X10372857Y-12799048D01*
X10357619Y-12795238D01*
X10350000Y-12787619D01*
X10346190Y-12780000D01*
X10346190Y-12711428D02*
X10410952Y-12711428D01*
X10418571Y-12707619D01*
X10422381Y-12703809D01*
X10426190Y-12696190D01*
X10426190Y-12680952D01*
X10422381Y-12673333D01*
X10418571Y-12669524D01*
X10410952Y-12665714D01*
X10346190Y-12665714D01*
X10346190Y-12639048D02*
X10346190Y-12593333D01*
X10426190Y-12616190D02*
X10346190Y-12616190D01*
X9656190Y-12741905D02*
X9576190Y-12741905D01*
X9656190Y-12703809D02*
X9576190Y-12703809D01*
X9656190Y-12658095D01*
X9576190Y-12658095D01*
X9656190Y-12041905D02*
X9576190Y-12041905D01*
X9656190Y-12003809D02*
X9576190Y-12003809D01*
X9656190Y-11958095D01*
X9576190Y-11958095D01*
X10346190Y-12080000D02*
X10346190Y-12064762D01*
X10350000Y-12057143D01*
X10357619Y-12049524D01*
X10372857Y-12045714D01*
X10399524Y-12045714D01*
X10414762Y-12049524D01*
X10422381Y-12057143D01*
X10426190Y-12064762D01*
X10426190Y-12080000D01*
X10422381Y-12087619D01*
X10414762Y-12095238D01*
X10399524Y-12099048D01*
X10372857Y-12099048D01*
X10357619Y-12095238D01*
X10350000Y-12087619D01*
X10346190Y-12080000D01*
X10346190Y-12011428D02*
X10410952Y-12011428D01*
X10418571Y-12007619D01*
X10422381Y-12003809D01*
X10426190Y-11996190D01*
X10426190Y-11980952D01*
X10422381Y-11973333D01*
X10418571Y-11969524D01*
X10410952Y-11965714D01*
X10346190Y-11965714D01*
X10346190Y-11939048D02*
X10346190Y-11893333D01*
X10426190Y-11916190D02*
X10346190Y-11916190D01*
X9821429Y-11667143D02*
X9835714Y-11727143D01*
X9847143Y-11684286D01*
X9858571Y-11727143D01*
X9872857Y-11667143D01*
X9892857Y-11724286D02*
X9901429Y-11727143D01*
X9915714Y-11727143D01*
X9921429Y-11724286D01*
X9924286Y-11721428D01*
X9927143Y-11715714D01*
X9927143Y-11710000D01*
X9924286Y-11704286D01*
X9921429Y-11701428D01*
X9915714Y-11698571D01*
X9904286Y-11695714D01*
X9898571Y-11692857D01*
X9895714Y-11690000D01*
X9892857Y-11684286D01*
X9892857Y-11678571D01*
X9895714Y-11672857D01*
X9898571Y-11670000D01*
X9904286Y-11667143D01*
X9918571Y-11667143D01*
X9927143Y-11670000D01*
X9950000Y-11672857D02*
X9952857Y-11670000D01*
X9958571Y-11667143D01*
X9972857Y-11667143D01*
X9978571Y-11670000D01*
X9981429Y-11672857D01*
X9984286Y-11678571D01*
X9984286Y-11684286D01*
X9981429Y-11692857D01*
X9947143Y-11727143D01*
X9984286Y-11727143D01*
X10018571Y-11692857D02*
X10012857Y-11690000D01*
X10010000Y-11687143D01*
X10007143Y-11681428D01*
X10007143Y-11678571D01*
X10010000Y-11672857D01*
X10012857Y-11670000D01*
X10018571Y-11667143D01*
X10030000Y-11667143D01*
X10035714Y-11670000D01*
X10038571Y-11672857D01*
X10041429Y-11678571D01*
X10041429Y-11681428D01*
X10038571Y-11687143D01*
X10035714Y-11690000D01*
X10030000Y-11692857D01*
X10018571Y-11692857D01*
X10012857Y-11695714D01*
X10010000Y-11698571D01*
X10007143Y-11704286D01*
X10007143Y-11715714D01*
X10010000Y-11721428D01*
X10012857Y-11724286D01*
X10018571Y-11727143D01*
X10030000Y-11727143D01*
X10035714Y-11724286D01*
X10038571Y-11721428D01*
X10041429Y-11715714D01*
X10041429Y-11704286D01*
X10038571Y-11698571D01*
X10035714Y-11695714D01*
X10030000Y-11692857D01*
X10098571Y-11727143D02*
X10064286Y-11727143D01*
X10081429Y-11727143D02*
X10081429Y-11667143D01*
X10075714Y-11675714D01*
X10070000Y-11681428D01*
X10064286Y-11684286D01*
X10118571Y-11667143D02*
X10155714Y-11667143D01*
X10135714Y-11690000D01*
X10144286Y-11690000D01*
X10150000Y-11692857D01*
X10152857Y-11695714D01*
X10155714Y-11701428D01*
X10155714Y-11715714D01*
X10152857Y-11721428D01*
X10150000Y-11724286D01*
X10144286Y-11727143D01*
X10127143Y-11727143D01*
X10121429Y-11724286D01*
X10118571Y-11721428D01*
D12*
X10341429Y-12300000D02*
X10350952Y-12290476D01*
X10360476Y-12300000D01*
X10350952Y-12309524D01*
X10341429Y-12300000D01*
X10360476Y-12300000D01*
D10*
X9821429Y-13767143D02*
X9835714Y-13827143D01*
X9847143Y-13784286D01*
X9858571Y-13827143D01*
X9872857Y-13767143D01*
X9892857Y-13824286D02*
X9901429Y-13827143D01*
X9915714Y-13827143D01*
X9921429Y-13824286D01*
X9924286Y-13821428D01*
X9927143Y-13815714D01*
X9927143Y-13810000D01*
X9924286Y-13804286D01*
X9921429Y-13801428D01*
X9915714Y-13798571D01*
X9904286Y-13795714D01*
X9898571Y-13792857D01*
X9895714Y-13790000D01*
X9892857Y-13784286D01*
X9892857Y-13778571D01*
X9895714Y-13772857D01*
X9898571Y-13770000D01*
X9904286Y-13767143D01*
X9918571Y-13767143D01*
X9927143Y-13770000D01*
X9950000Y-13772857D02*
X9952857Y-13770000D01*
X9958571Y-13767143D01*
X9972857Y-13767143D01*
X9978571Y-13770000D01*
X9981429Y-13772857D01*
X9984286Y-13778571D01*
X9984286Y-13784286D01*
X9981429Y-13792857D01*
X9947143Y-13827143D01*
X9984286Y-13827143D01*
X10018571Y-13792857D02*
X10012857Y-13790000D01*
X10010000Y-13787143D01*
X10007143Y-13781428D01*
X10007143Y-13778571D01*
X10010000Y-13772857D01*
X10012857Y-13770000D01*
X10018571Y-13767143D01*
X10030000Y-13767143D01*
X10035714Y-13770000D01*
X10038571Y-13772857D01*
X10041429Y-13778571D01*
X10041429Y-13781428D01*
X10038571Y-13787143D01*
X10035714Y-13790000D01*
X10030000Y-13792857D01*
X10018571Y-13792857D01*
X10012857Y-13795714D01*
X10010000Y-13798571D01*
X10007143Y-13804286D01*
X10007143Y-13815714D01*
X10010000Y-13821428D01*
X10012857Y-13824286D01*
X10018571Y-13827143D01*
X10030000Y-13827143D01*
X10035714Y-13824286D01*
X10038571Y-13821428D01*
X10041429Y-13815714D01*
X10041429Y-13804286D01*
X10038571Y-13798571D01*
X10035714Y-13795714D01*
X10030000Y-13792857D01*
X10098571Y-13827143D02*
X10064286Y-13827143D01*
X10081429Y-13827143D02*
X10081429Y-13767143D01*
X10075714Y-13775714D01*
X10070000Y-13781428D01*
X10064286Y-13784286D01*
X10118571Y-13767143D02*
X10155714Y-13767143D01*
X10135714Y-13790000D01*
X10144286Y-13790000D01*
X10150000Y-13792857D01*
X10152857Y-13795714D01*
X10155714Y-13801428D01*
X10155714Y-13815714D01*
X10152857Y-13821428D01*
X10150000Y-13824286D01*
X10144286Y-13827143D01*
X10127143Y-13827143D01*
X10121429Y-13824286D01*
X10118571Y-13821428D01*
D12*
X10341429Y-14400000D02*
X10350952Y-14390476D01*
X10360476Y-14400000D01*
X10350952Y-14409524D01*
X10341429Y-14400000D01*
X10360476Y-14400000D01*
D10*
X10346190Y-14180000D02*
X10346190Y-14164762D01*
X10350000Y-14157143D01*
X10357619Y-14149524D01*
X10372857Y-14145714D01*
X10399524Y-14145714D01*
X10414762Y-14149524D01*
X10422381Y-14157143D01*
X10426190Y-14164762D01*
X10426190Y-14180000D01*
X10422381Y-14187619D01*
X10414762Y-14195238D01*
X10399524Y-14199048D01*
X10372857Y-14199048D01*
X10357619Y-14195238D01*
X10350000Y-14187619D01*
X10346190Y-14180000D01*
X10346190Y-14111428D02*
X10410952Y-14111428D01*
X10418571Y-14107619D01*
X10422381Y-14103809D01*
X10426190Y-14096190D01*
X10426190Y-14080952D01*
X10422381Y-14073333D01*
X10418571Y-14069524D01*
X10410952Y-14065714D01*
X10346190Y-14065714D01*
X10346190Y-14039048D02*
X10346190Y-13993333D01*
X10426190Y-14016190D02*
X10346190Y-14016190D01*
X9656190Y-14141905D02*
X9576190Y-14141905D01*
X9656190Y-14103809D02*
X9576190Y-14103809D01*
X9656190Y-14058095D01*
X9576190Y-14058095D01*
X9656190Y-13441905D02*
X9576190Y-13441905D01*
X9656190Y-13403809D02*
X9576190Y-13403809D01*
X9656190Y-13358095D01*
X9576190Y-13358095D01*
X10346190Y-13480000D02*
X10346190Y-13464762D01*
X10350000Y-13457143D01*
X10357619Y-13449524D01*
X10372857Y-13445714D01*
X10399524Y-13445714D01*
X10414762Y-13449524D01*
X10422381Y-13457143D01*
X10426190Y-13464762D01*
X10426190Y-13480000D01*
X10422381Y-13487619D01*
X10414762Y-13495238D01*
X10399524Y-13499048D01*
X10372857Y-13499048D01*
X10357619Y-13495238D01*
X10350000Y-13487619D01*
X10346190Y-13480000D01*
X10346190Y-13411428D02*
X10410952Y-13411428D01*
X10418571Y-13407619D01*
X10422381Y-13403809D01*
X10426190Y-13396190D01*
X10426190Y-13380952D01*
X10422381Y-13373333D01*
X10418571Y-13369524D01*
X10410952Y-13365714D01*
X10346190Y-13365714D01*
X10346190Y-13339048D02*
X10346190Y-13293333D01*
X10426190Y-13316190D02*
X10346190Y-13316190D01*
X9821429Y-13067143D02*
X9835714Y-13127143D01*
X9847143Y-13084286D01*
X9858571Y-13127143D01*
X9872857Y-13067143D01*
X9892857Y-13124286D02*
X9901429Y-13127143D01*
X9915714Y-13127143D01*
X9921429Y-13124286D01*
X9924286Y-13121428D01*
X9927143Y-13115714D01*
X9927143Y-13110000D01*
X9924286Y-13104286D01*
X9921429Y-13101428D01*
X9915714Y-13098571D01*
X9904286Y-13095714D01*
X9898571Y-13092857D01*
X9895714Y-13090000D01*
X9892857Y-13084286D01*
X9892857Y-13078571D01*
X9895714Y-13072857D01*
X9898571Y-13070000D01*
X9904286Y-13067143D01*
X9918571Y-13067143D01*
X9927143Y-13070000D01*
X9950000Y-13072857D02*
X9952857Y-13070000D01*
X9958571Y-13067143D01*
X9972857Y-13067143D01*
X9978571Y-13070000D01*
X9981429Y-13072857D01*
X9984286Y-13078571D01*
X9984286Y-13084286D01*
X9981429Y-13092857D01*
X9947143Y-13127143D01*
X9984286Y-13127143D01*
X10018571Y-13092857D02*
X10012857Y-13090000D01*
X10010000Y-13087143D01*
X10007143Y-13081428D01*
X10007143Y-13078571D01*
X10010000Y-13072857D01*
X10012857Y-13070000D01*
X10018571Y-13067143D01*
X10030000Y-13067143D01*
X10035714Y-13070000D01*
X10038571Y-13072857D01*
X10041429Y-13078571D01*
X10041429Y-13081428D01*
X10038571Y-13087143D01*
X10035714Y-13090000D01*
X10030000Y-13092857D01*
X10018571Y-13092857D01*
X10012857Y-13095714D01*
X10010000Y-13098571D01*
X10007143Y-13104286D01*
X10007143Y-13115714D01*
X10010000Y-13121428D01*
X10012857Y-13124286D01*
X10018571Y-13127143D01*
X10030000Y-13127143D01*
X10035714Y-13124286D01*
X10038571Y-13121428D01*
X10041429Y-13115714D01*
X10041429Y-13104286D01*
X10038571Y-13098571D01*
X10035714Y-13095714D01*
X10030000Y-13092857D01*
X10098571Y-13127143D02*
X10064286Y-13127143D01*
X10081429Y-13127143D02*
X10081429Y-13067143D01*
X10075714Y-13075714D01*
X10070000Y-13081428D01*
X10064286Y-13084286D01*
X10118571Y-13067143D02*
X10155714Y-13067143D01*
X10135714Y-13090000D01*
X10144286Y-13090000D01*
X10150000Y-13092857D01*
X10152857Y-13095714D01*
X10155714Y-13101428D01*
X10155714Y-13115714D01*
X10152857Y-13121428D01*
X10150000Y-13124286D01*
X10144286Y-13127143D01*
X10127143Y-13127143D01*
X10121429Y-13124286D01*
X10118571Y-13121428D01*
D12*
X10341429Y-13700000D02*
X10350952Y-13690476D01*
X10360476Y-13700000D01*
X10350952Y-13709524D01*
X10341429Y-13700000D01*
X10360476Y-13700000D01*
D10*
X9821429Y-7467143D02*
X9835714Y-7527143D01*
X9847143Y-7484286D01*
X9858571Y-7527143D01*
X9872857Y-7467143D01*
X9892857Y-7524286D02*
X9901429Y-7527143D01*
X9915714Y-7527143D01*
X9921429Y-7524286D01*
X9924286Y-7521428D01*
X9927143Y-7515714D01*
X9927143Y-7510000D01*
X9924286Y-7504286D01*
X9921429Y-7501428D01*
X9915714Y-7498571D01*
X9904286Y-7495714D01*
X9898571Y-7492857D01*
X9895714Y-7490000D01*
X9892857Y-7484286D01*
X9892857Y-7478571D01*
X9895714Y-7472857D01*
X9898571Y-7470000D01*
X9904286Y-7467143D01*
X9918571Y-7467143D01*
X9927143Y-7470000D01*
X9950000Y-7472857D02*
X9952857Y-7470000D01*
X9958571Y-7467143D01*
X9972857Y-7467143D01*
X9978571Y-7470000D01*
X9981429Y-7472857D01*
X9984286Y-7478571D01*
X9984286Y-7484286D01*
X9981429Y-7492857D01*
X9947143Y-7527143D01*
X9984286Y-7527143D01*
X10018571Y-7492857D02*
X10012857Y-7490000D01*
X10010000Y-7487143D01*
X10007143Y-7481428D01*
X10007143Y-7478571D01*
X10010000Y-7472857D01*
X10012857Y-7470000D01*
X10018571Y-7467143D01*
X10030000Y-7467143D01*
X10035714Y-7470000D01*
X10038571Y-7472857D01*
X10041429Y-7478571D01*
X10041429Y-7481428D01*
X10038571Y-7487143D01*
X10035714Y-7490000D01*
X10030000Y-7492857D01*
X10018571Y-7492857D01*
X10012857Y-7495714D01*
X10010000Y-7498571D01*
X10007143Y-7504286D01*
X10007143Y-7515714D01*
X10010000Y-7521428D01*
X10012857Y-7524286D01*
X10018571Y-7527143D01*
X10030000Y-7527143D01*
X10035714Y-7524286D01*
X10038571Y-7521428D01*
X10041429Y-7515714D01*
X10041429Y-7504286D01*
X10038571Y-7498571D01*
X10035714Y-7495714D01*
X10030000Y-7492857D01*
X10098571Y-7527143D02*
X10064286Y-7527143D01*
X10081429Y-7527143D02*
X10081429Y-7467143D01*
X10075714Y-7475714D01*
X10070000Y-7481428D01*
X10064286Y-7484286D01*
X10118571Y-7467143D02*
X10155714Y-7467143D01*
X10135714Y-7490000D01*
X10144286Y-7490000D01*
X10150000Y-7492857D01*
X10152857Y-7495714D01*
X10155714Y-7501428D01*
X10155714Y-7515714D01*
X10152857Y-7521428D01*
X10150000Y-7524286D01*
X10144286Y-7527143D01*
X10127143Y-7527143D01*
X10121429Y-7524286D01*
X10118571Y-7521428D01*
D12*
X10341429Y-8100000D02*
X10350952Y-8090476D01*
X10360476Y-8100000D01*
X10350952Y-8109524D01*
X10341429Y-8100000D01*
X10360476Y-8100000D01*
D10*
X10346190Y-7880000D02*
X10346190Y-7864762D01*
X10350000Y-7857143D01*
X10357619Y-7849524D01*
X10372857Y-7845714D01*
X10399524Y-7845714D01*
X10414762Y-7849524D01*
X10422381Y-7857143D01*
X10426190Y-7864762D01*
X10426190Y-7880000D01*
X10422381Y-7887619D01*
X10414762Y-7895238D01*
X10399524Y-7899048D01*
X10372857Y-7899048D01*
X10357619Y-7895238D01*
X10350000Y-7887619D01*
X10346190Y-7880000D01*
X10346190Y-7811428D02*
X10410952Y-7811428D01*
X10418571Y-7807619D01*
X10422381Y-7803809D01*
X10426190Y-7796190D01*
X10426190Y-7780952D01*
X10422381Y-7773333D01*
X10418571Y-7769524D01*
X10410952Y-7765714D01*
X10346190Y-7765714D01*
X10346190Y-7739048D02*
X10346190Y-7693333D01*
X10426190Y-7716190D02*
X10346190Y-7716190D01*
X9656190Y-7841905D02*
X9576190Y-7841905D01*
X9656190Y-7803809D02*
X9576190Y-7803809D01*
X9656190Y-7758095D01*
X9576190Y-7758095D01*
X9656190Y-8541905D02*
X9576190Y-8541905D01*
X9656190Y-8503810D02*
X9576190Y-8503810D01*
X9656190Y-8458095D01*
X9576190Y-8458095D01*
X10346190Y-8580000D02*
X10346190Y-8564762D01*
X10350000Y-8557143D01*
X10357619Y-8549524D01*
X10372857Y-8545714D01*
X10399524Y-8545714D01*
X10414762Y-8549524D01*
X10422381Y-8557143D01*
X10426190Y-8564762D01*
X10426190Y-8580000D01*
X10422381Y-8587619D01*
X10414762Y-8595238D01*
X10399524Y-8599048D01*
X10372857Y-8599048D01*
X10357619Y-8595238D01*
X10350000Y-8587619D01*
X10346190Y-8580000D01*
X10346190Y-8511429D02*
X10410952Y-8511429D01*
X10418571Y-8507619D01*
X10422381Y-8503810D01*
X10426190Y-8496190D01*
X10426190Y-8480952D01*
X10422381Y-8473333D01*
X10418571Y-8469524D01*
X10410952Y-8465714D01*
X10346190Y-8465714D01*
X10346190Y-8439048D02*
X10346190Y-8393333D01*
X10426190Y-8416190D02*
X10346190Y-8416190D01*
X9821429Y-8167143D02*
X9835714Y-8227143D01*
X9847143Y-8184286D01*
X9858571Y-8227143D01*
X9872857Y-8167143D01*
X9892857Y-8224286D02*
X9901429Y-8227143D01*
X9915714Y-8227143D01*
X9921429Y-8224286D01*
X9924286Y-8221428D01*
X9927143Y-8215714D01*
X9927143Y-8210000D01*
X9924286Y-8204286D01*
X9921429Y-8201428D01*
X9915714Y-8198571D01*
X9904286Y-8195714D01*
X9898571Y-8192857D01*
X9895714Y-8190000D01*
X9892857Y-8184286D01*
X9892857Y-8178571D01*
X9895714Y-8172857D01*
X9898571Y-8170000D01*
X9904286Y-8167143D01*
X9918571Y-8167143D01*
X9927143Y-8170000D01*
X9950000Y-8172857D02*
X9952857Y-8170000D01*
X9958571Y-8167143D01*
X9972857Y-8167143D01*
X9978571Y-8170000D01*
X9981429Y-8172857D01*
X9984286Y-8178571D01*
X9984286Y-8184286D01*
X9981429Y-8192857D01*
X9947143Y-8227143D01*
X9984286Y-8227143D01*
X10018571Y-8192857D02*
X10012857Y-8190000D01*
X10010000Y-8187143D01*
X10007143Y-8181428D01*
X10007143Y-8178571D01*
X10010000Y-8172857D01*
X10012857Y-8170000D01*
X10018571Y-8167143D01*
X10030000Y-8167143D01*
X10035714Y-8170000D01*
X10038571Y-8172857D01*
X10041429Y-8178571D01*
X10041429Y-8181428D01*
X10038571Y-8187143D01*
X10035714Y-8190000D01*
X10030000Y-8192857D01*
X10018571Y-8192857D01*
X10012857Y-8195714D01*
X10010000Y-8198571D01*
X10007143Y-8204286D01*
X10007143Y-8215714D01*
X10010000Y-8221428D01*
X10012857Y-8224286D01*
X10018571Y-8227143D01*
X10030000Y-8227143D01*
X10035714Y-8224286D01*
X10038571Y-8221428D01*
X10041429Y-8215714D01*
X10041429Y-8204286D01*
X10038571Y-8198571D01*
X10035714Y-8195714D01*
X10030000Y-8192857D01*
X10098571Y-8227143D02*
X10064286Y-8227143D01*
X10081429Y-8227143D02*
X10081429Y-8167143D01*
X10075714Y-8175714D01*
X10070000Y-8181428D01*
X10064286Y-8184286D01*
X10118571Y-8167143D02*
X10155714Y-8167143D01*
X10135714Y-8190000D01*
X10144286Y-8190000D01*
X10150000Y-8192857D01*
X10152857Y-8195714D01*
X10155714Y-8201428D01*
X10155714Y-8215714D01*
X10152857Y-8221428D01*
X10150000Y-8224286D01*
X10144286Y-8227143D01*
X10127143Y-8227143D01*
X10121429Y-8224286D01*
X10118571Y-8221428D01*
D12*
X10341429Y-8800000D02*
X10350952Y-8790476D01*
X10360476Y-8800000D01*
X10350952Y-8809524D01*
X10341429Y-8800000D01*
X10360476Y-8800000D01*
D10*
X9821429Y-6067143D02*
X9835714Y-6127143D01*
X9847143Y-6084286D01*
X9858571Y-6127143D01*
X9872857Y-6067143D01*
X9892857Y-6124286D02*
X9901429Y-6127143D01*
X9915714Y-6127143D01*
X9921429Y-6124286D01*
X9924286Y-6121428D01*
X9927143Y-6115714D01*
X9927143Y-6110000D01*
X9924286Y-6104286D01*
X9921429Y-6101428D01*
X9915714Y-6098571D01*
X9904286Y-6095714D01*
X9898571Y-6092857D01*
X9895714Y-6090000D01*
X9892857Y-6084286D01*
X9892857Y-6078571D01*
X9895714Y-6072857D01*
X9898571Y-6070000D01*
X9904286Y-6067143D01*
X9918571Y-6067143D01*
X9927143Y-6070000D01*
X9950000Y-6072857D02*
X9952857Y-6070000D01*
X9958571Y-6067143D01*
X9972857Y-6067143D01*
X9978571Y-6070000D01*
X9981429Y-6072857D01*
X9984286Y-6078571D01*
X9984286Y-6084286D01*
X9981429Y-6092857D01*
X9947143Y-6127143D01*
X9984286Y-6127143D01*
X10018571Y-6092857D02*
X10012857Y-6090000D01*
X10010000Y-6087143D01*
X10007143Y-6081428D01*
X10007143Y-6078571D01*
X10010000Y-6072857D01*
X10012857Y-6070000D01*
X10018571Y-6067143D01*
X10030000Y-6067143D01*
X10035714Y-6070000D01*
X10038571Y-6072857D01*
X10041429Y-6078571D01*
X10041429Y-6081428D01*
X10038571Y-6087143D01*
X10035714Y-6090000D01*
X10030000Y-6092857D01*
X10018571Y-6092857D01*
X10012857Y-6095714D01*
X10010000Y-6098571D01*
X10007143Y-6104286D01*
X10007143Y-6115714D01*
X10010000Y-6121428D01*
X10012857Y-6124286D01*
X10018571Y-6127143D01*
X10030000Y-6127143D01*
X10035714Y-6124286D01*
X10038571Y-6121428D01*
X10041429Y-6115714D01*
X10041429Y-6104286D01*
X10038571Y-6098571D01*
X10035714Y-6095714D01*
X10030000Y-6092857D01*
X10098571Y-6127143D02*
X10064286Y-6127143D01*
X10081429Y-6127143D02*
X10081429Y-6067143D01*
X10075714Y-6075714D01*
X10070000Y-6081428D01*
X10064286Y-6084286D01*
X10118571Y-6067143D02*
X10155714Y-6067143D01*
X10135714Y-6090000D01*
X10144286Y-6090000D01*
X10150000Y-6092857D01*
X10152857Y-6095714D01*
X10155714Y-6101428D01*
X10155714Y-6115714D01*
X10152857Y-6121428D01*
X10150000Y-6124286D01*
X10144286Y-6127143D01*
X10127143Y-6127143D01*
X10121429Y-6124286D01*
X10118571Y-6121428D01*
D12*
X10341429Y-6700000D02*
X10350952Y-6690476D01*
X10360476Y-6700000D01*
X10350952Y-6709524D01*
X10341429Y-6700000D01*
X10360476Y-6700000D01*
D10*
X10346190Y-6480000D02*
X10346190Y-6464762D01*
X10350000Y-6457143D01*
X10357619Y-6449524D01*
X10372857Y-6445714D01*
X10399524Y-6445714D01*
X10414762Y-6449524D01*
X10422381Y-6457143D01*
X10426190Y-6464762D01*
X10426190Y-6480000D01*
X10422381Y-6487619D01*
X10414762Y-6495238D01*
X10399524Y-6499048D01*
X10372857Y-6499048D01*
X10357619Y-6495238D01*
X10350000Y-6487619D01*
X10346190Y-6480000D01*
X10346190Y-6411428D02*
X10410952Y-6411428D01*
X10418571Y-6407619D01*
X10422381Y-6403809D01*
X10426190Y-6396190D01*
X10426190Y-6380952D01*
X10422381Y-6373333D01*
X10418571Y-6369524D01*
X10410952Y-6365714D01*
X10346190Y-6365714D01*
X10346190Y-6339048D02*
X10346190Y-6293333D01*
X10426190Y-6316190D02*
X10346190Y-6316190D01*
X9656190Y-6441905D02*
X9576190Y-6441905D01*
X9656190Y-6403809D02*
X9576190Y-6403809D01*
X9656190Y-6358095D01*
X9576190Y-6358095D01*
X9656190Y-7141905D02*
X9576190Y-7141905D01*
X9656190Y-7103809D02*
X9576190Y-7103809D01*
X9656190Y-7058095D01*
X9576190Y-7058095D01*
X10346190Y-7180000D02*
X10346190Y-7164762D01*
X10350000Y-7157143D01*
X10357619Y-7149524D01*
X10372857Y-7145714D01*
X10399524Y-7145714D01*
X10414762Y-7149524D01*
X10422381Y-7157143D01*
X10426190Y-7164762D01*
X10426190Y-7180000D01*
X10422381Y-7187619D01*
X10414762Y-7195238D01*
X10399524Y-7199048D01*
X10372857Y-7199048D01*
X10357619Y-7195238D01*
X10350000Y-7187619D01*
X10346190Y-7180000D01*
X10346190Y-7111428D02*
X10410952Y-7111428D01*
X10418571Y-7107619D01*
X10422381Y-7103809D01*
X10426190Y-7096190D01*
X10426190Y-7080952D01*
X10422381Y-7073333D01*
X10418571Y-7069524D01*
X10410952Y-7065714D01*
X10346190Y-7065714D01*
X10346190Y-7039048D02*
X10346190Y-6993333D01*
X10426190Y-7016190D02*
X10346190Y-7016190D01*
X9821429Y-6767143D02*
X9835714Y-6827143D01*
X9847143Y-6784286D01*
X9858571Y-6827143D01*
X9872857Y-6767143D01*
X9892857Y-6824286D02*
X9901429Y-6827143D01*
X9915714Y-6827143D01*
X9921429Y-6824286D01*
X9924286Y-6821428D01*
X9927143Y-6815714D01*
X9927143Y-6810000D01*
X9924286Y-6804286D01*
X9921429Y-6801428D01*
X9915714Y-6798571D01*
X9904286Y-6795714D01*
X9898571Y-6792857D01*
X9895714Y-6790000D01*
X9892857Y-6784286D01*
X9892857Y-6778571D01*
X9895714Y-6772857D01*
X9898571Y-6770000D01*
X9904286Y-6767143D01*
X9918571Y-6767143D01*
X9927143Y-6770000D01*
X9950000Y-6772857D02*
X9952857Y-6770000D01*
X9958571Y-6767143D01*
X9972857Y-6767143D01*
X9978571Y-6770000D01*
X9981429Y-6772857D01*
X9984286Y-6778571D01*
X9984286Y-6784286D01*
X9981429Y-6792857D01*
X9947143Y-6827143D01*
X9984286Y-6827143D01*
X10018571Y-6792857D02*
X10012857Y-6790000D01*
X10010000Y-6787143D01*
X10007143Y-6781428D01*
X10007143Y-6778571D01*
X10010000Y-6772857D01*
X10012857Y-6770000D01*
X10018571Y-6767143D01*
X10030000Y-6767143D01*
X10035714Y-6770000D01*
X10038571Y-6772857D01*
X10041429Y-6778571D01*
X10041429Y-6781428D01*
X10038571Y-6787143D01*
X10035714Y-6790000D01*
X10030000Y-6792857D01*
X10018571Y-6792857D01*
X10012857Y-6795714D01*
X10010000Y-6798571D01*
X10007143Y-6804286D01*
X10007143Y-6815714D01*
X10010000Y-6821428D01*
X10012857Y-6824286D01*
X10018571Y-6827143D01*
X10030000Y-6827143D01*
X10035714Y-6824286D01*
X10038571Y-6821428D01*
X10041429Y-6815714D01*
X10041429Y-6804286D01*
X10038571Y-6798571D01*
X10035714Y-6795714D01*
X10030000Y-6792857D01*
X10098571Y-6827143D02*
X10064286Y-6827143D01*
X10081429Y-6827143D02*
X10081429Y-6767143D01*
X10075714Y-6775714D01*
X10070000Y-6781428D01*
X10064286Y-6784286D01*
X10118571Y-6767143D02*
X10155714Y-6767143D01*
X10135714Y-6790000D01*
X10144286Y-6790000D01*
X10150000Y-6792857D01*
X10152857Y-6795714D01*
X10155714Y-6801428D01*
X10155714Y-6815714D01*
X10152857Y-6821428D01*
X10150000Y-6824286D01*
X10144286Y-6827143D01*
X10127143Y-6827143D01*
X10121429Y-6824286D01*
X10118571Y-6821428D01*
D12*
X10341429Y-7400000D02*
X10350952Y-7390476D01*
X10360476Y-7400000D01*
X10350952Y-7409524D01*
X10341429Y-7400000D01*
X10360476Y-7400000D01*
D10*
X9821429Y-5367143D02*
X9835714Y-5427143D01*
X9847143Y-5384286D01*
X9858571Y-5427143D01*
X9872857Y-5367143D01*
X9892857Y-5424286D02*
X9901429Y-5427143D01*
X9915714Y-5427143D01*
X9921429Y-5424286D01*
X9924286Y-5421429D01*
X9927143Y-5415714D01*
X9927143Y-5410000D01*
X9924286Y-5404286D01*
X9921429Y-5401429D01*
X9915714Y-5398571D01*
X9904286Y-5395714D01*
X9898571Y-5392857D01*
X9895714Y-5390000D01*
X9892857Y-5384286D01*
X9892857Y-5378571D01*
X9895714Y-5372857D01*
X9898571Y-5370000D01*
X9904286Y-5367143D01*
X9918571Y-5367143D01*
X9927143Y-5370000D01*
X9950000Y-5372857D02*
X9952857Y-5370000D01*
X9958571Y-5367143D01*
X9972857Y-5367143D01*
X9978571Y-5370000D01*
X9981429Y-5372857D01*
X9984286Y-5378571D01*
X9984286Y-5384286D01*
X9981429Y-5392857D01*
X9947143Y-5427143D01*
X9984286Y-5427143D01*
X10018571Y-5392857D02*
X10012857Y-5390000D01*
X10010000Y-5387143D01*
X10007143Y-5381429D01*
X10007143Y-5378571D01*
X10010000Y-5372857D01*
X10012857Y-5370000D01*
X10018571Y-5367143D01*
X10030000Y-5367143D01*
X10035714Y-5370000D01*
X10038571Y-5372857D01*
X10041429Y-5378571D01*
X10041429Y-5381429D01*
X10038571Y-5387143D01*
X10035714Y-5390000D01*
X10030000Y-5392857D01*
X10018571Y-5392857D01*
X10012857Y-5395714D01*
X10010000Y-5398571D01*
X10007143Y-5404286D01*
X10007143Y-5415714D01*
X10010000Y-5421429D01*
X10012857Y-5424286D01*
X10018571Y-5427143D01*
X10030000Y-5427143D01*
X10035714Y-5424286D01*
X10038571Y-5421429D01*
X10041429Y-5415714D01*
X10041429Y-5404286D01*
X10038571Y-5398571D01*
X10035714Y-5395714D01*
X10030000Y-5392857D01*
X10098571Y-5427143D02*
X10064286Y-5427143D01*
X10081429Y-5427143D02*
X10081429Y-5367143D01*
X10075714Y-5375714D01*
X10070000Y-5381429D01*
X10064286Y-5384286D01*
X10118571Y-5367143D02*
X10155714Y-5367143D01*
X10135714Y-5390000D01*
X10144286Y-5390000D01*
X10150000Y-5392857D01*
X10152857Y-5395714D01*
X10155714Y-5401429D01*
X10155714Y-5415714D01*
X10152857Y-5421429D01*
X10150000Y-5424286D01*
X10144286Y-5427143D01*
X10127143Y-5427143D01*
X10121429Y-5424286D01*
X10118571Y-5421429D01*
D12*
X10341429Y-6000000D02*
X10350952Y-5990476D01*
X10360476Y-6000000D01*
X10350952Y-6009524D01*
X10341429Y-6000000D01*
X10360476Y-6000000D01*
D10*
X10346190Y-5780000D02*
X10346190Y-5764762D01*
X10350000Y-5757143D01*
X10357619Y-5749524D01*
X10372857Y-5745714D01*
X10399524Y-5745714D01*
X10414762Y-5749524D01*
X10422381Y-5757143D01*
X10426190Y-5764762D01*
X10426190Y-5780000D01*
X10422381Y-5787619D01*
X10414762Y-5795238D01*
X10399524Y-5799048D01*
X10372857Y-5799048D01*
X10357619Y-5795238D01*
X10350000Y-5787619D01*
X10346190Y-5780000D01*
X10346190Y-5711428D02*
X10410952Y-5711428D01*
X10418571Y-5707619D01*
X10422381Y-5703809D01*
X10426190Y-5696190D01*
X10426190Y-5680952D01*
X10422381Y-5673333D01*
X10418571Y-5669524D01*
X10410952Y-5665714D01*
X10346190Y-5665714D01*
X10346190Y-5639048D02*
X10346190Y-5593333D01*
X10426190Y-5616190D02*
X10346190Y-5616190D01*
X9656190Y-5741905D02*
X9576190Y-5741905D01*
X9656190Y-5703809D02*
X9576190Y-5703809D01*
X9656190Y-5658095D01*
X9576190Y-5658095D01*
X9656190Y-5041905D02*
X9576190Y-5041905D01*
X9656190Y-5003810D02*
X9576190Y-5003810D01*
X9656190Y-4958095D01*
X9576190Y-4958095D01*
X10346190Y-5080000D02*
X10346190Y-5064762D01*
X10350000Y-5057143D01*
X10357619Y-5049524D01*
X10372857Y-5045714D01*
X10399524Y-5045714D01*
X10414762Y-5049524D01*
X10422381Y-5057143D01*
X10426190Y-5064762D01*
X10426190Y-5080000D01*
X10422381Y-5087619D01*
X10414762Y-5095238D01*
X10399524Y-5099048D01*
X10372857Y-5099048D01*
X10357619Y-5095238D01*
X10350000Y-5087619D01*
X10346190Y-5080000D01*
X10346190Y-5011429D02*
X10410952Y-5011429D01*
X10418571Y-5007619D01*
X10422381Y-5003810D01*
X10426190Y-4996190D01*
X10426190Y-4980952D01*
X10422381Y-4973333D01*
X10418571Y-4969524D01*
X10410952Y-4965714D01*
X10346190Y-4965714D01*
X10346190Y-4939048D02*
X10346190Y-4893333D01*
X10426190Y-4916190D02*
X10346190Y-4916190D01*
X9821429Y-4667143D02*
X9835714Y-4727143D01*
X9847143Y-4684286D01*
X9858571Y-4727143D01*
X9872857Y-4667143D01*
X9892857Y-4724286D02*
X9901429Y-4727143D01*
X9915714Y-4727143D01*
X9921429Y-4724286D01*
X9924286Y-4721429D01*
X9927143Y-4715714D01*
X9927143Y-4710000D01*
X9924286Y-4704286D01*
X9921429Y-4701429D01*
X9915714Y-4698571D01*
X9904286Y-4695714D01*
X9898571Y-4692857D01*
X9895714Y-4690000D01*
X9892857Y-4684286D01*
X9892857Y-4678571D01*
X9895714Y-4672857D01*
X9898571Y-4670000D01*
X9904286Y-4667143D01*
X9918571Y-4667143D01*
X9927143Y-4670000D01*
X9950000Y-4672857D02*
X9952857Y-4670000D01*
X9958571Y-4667143D01*
X9972857Y-4667143D01*
X9978571Y-4670000D01*
X9981429Y-4672857D01*
X9984286Y-4678571D01*
X9984286Y-4684286D01*
X9981429Y-4692857D01*
X9947143Y-4727143D01*
X9984286Y-4727143D01*
X10018571Y-4692857D02*
X10012857Y-4690000D01*
X10010000Y-4687143D01*
X10007143Y-4681429D01*
X10007143Y-4678571D01*
X10010000Y-4672857D01*
X10012857Y-4670000D01*
X10018571Y-4667143D01*
X10030000Y-4667143D01*
X10035714Y-4670000D01*
X10038571Y-4672857D01*
X10041429Y-4678571D01*
X10041429Y-4681429D01*
X10038571Y-4687143D01*
X10035714Y-4690000D01*
X10030000Y-4692857D01*
X10018571Y-4692857D01*
X10012857Y-4695714D01*
X10010000Y-4698571D01*
X10007143Y-4704286D01*
X10007143Y-4715714D01*
X10010000Y-4721429D01*
X10012857Y-4724286D01*
X10018571Y-4727143D01*
X10030000Y-4727143D01*
X10035714Y-4724286D01*
X10038571Y-4721429D01*
X10041429Y-4715714D01*
X10041429Y-4704286D01*
X10038571Y-4698571D01*
X10035714Y-4695714D01*
X10030000Y-4692857D01*
X10098571Y-4727143D02*
X10064286Y-4727143D01*
X10081429Y-4727143D02*
X10081429Y-4667143D01*
X10075714Y-4675714D01*
X10070000Y-4681429D01*
X10064286Y-4684286D01*
X10118571Y-4667143D02*
X10155714Y-4667143D01*
X10135714Y-4690000D01*
X10144286Y-4690000D01*
X10150000Y-4692857D01*
X10152857Y-4695714D01*
X10155714Y-4701429D01*
X10155714Y-4715714D01*
X10152857Y-4721429D01*
X10150000Y-4724286D01*
X10144286Y-4727143D01*
X10127143Y-4727143D01*
X10121429Y-4724286D01*
X10118571Y-4721429D01*
D12*
X10341429Y-5300000D02*
X10350952Y-5290476D01*
X10360476Y-5300000D01*
X10350952Y-5309524D01*
X10341429Y-5300000D01*
X10360476Y-5300000D01*
M02*
