G04 #@! TF.GenerationSoftware,KiCad,Pcbnew,(5.0.0-rc2-dev-596-gcfd2f1d00)*
G04 #@! TF.CreationDate,2019-01-30T17:14:36+02:00*
G04 #@! TF.ProjectId,WS2813_single_side_conn,5753323831335F73696E676C655F7369,rev?*
G04 #@! TF.SameCoordinates,Original*
G04 #@! TF.FileFunction,Copper,L2,Bot,Signal*
G04 #@! TF.FilePolarity,Positive*
%FSLAX45Y45*%
G04 Gerber Fmt 4.5, Leading zero omitted, Abs format (unit mm)*
G04 Created by KiCad (PCBNEW (5.0.0-rc2-dev-596-gcfd2f1d00)) date 01/30/19 17:14:36*
%MOMM*%
%LPD*%
G01*
G04 APERTURE LIST*
%ADD10R,2.850000X1.200000*%
%ADD11C,0.800000*%
%ADD12C,1.800000*%
%ADD13C,0.700000*%
%ADD14C,1.200000*%
%ADD15C,0.200000*%
G04 APERTURE END LIST*
D10*
X9642500Y-4920000D03*
D11*
X9500000Y-4920000D03*
X9500000Y-4760000D03*
D10*
X9642500Y-4760000D03*
X9642500Y-5080000D03*
D11*
X9500000Y-5080000D03*
X9500000Y-5240000D03*
D10*
X9642500Y-5240000D03*
X10357500Y-4920000D03*
D11*
X10500000Y-4920000D03*
X10500000Y-4760000D03*
D10*
X10357500Y-4760000D03*
X10357500Y-5080000D03*
D11*
X10500000Y-5080000D03*
X10500000Y-5240000D03*
D10*
X10357500Y-5240000D03*
D12*
X10000000Y-5000000D03*
D13*
X10152740Y-4757220D03*
D14*
X10001900Y-5080000D02*
X10000000Y-5000000D01*
X10357500Y-5080000D02*
X10215000Y-5080000D01*
X10215000Y-5080000D02*
X10001900Y-5080000D01*
X10362500Y-5080000D02*
X10357500Y-5080000D01*
X9642500Y-5080000D02*
X9637500Y-5080000D01*
X10001900Y-5080000D02*
X9785000Y-5080000D01*
X9785000Y-5080000D02*
X9642500Y-5080000D01*
X9642500Y-5240000D02*
X9637500Y-5240000D01*
X10357500Y-5240000D02*
X10215000Y-5240000D01*
X10215000Y-5240000D02*
X9785000Y-5240000D01*
X9785000Y-5240000D02*
X9642500Y-5240000D01*
X10362500Y-5240000D02*
X10357500Y-5240000D01*
D15*
X9642500Y-4920000D02*
X9637500Y-4920000D01*
X10357500Y-4760000D02*
X10225000Y-4810000D01*
X10225000Y-4810000D02*
X10215000Y-4810000D01*
X10215000Y-4810000D02*
X10210860Y-4810000D01*
X10210860Y-4810000D02*
X10198430Y-4819990D01*
X10198430Y-4819990D02*
X10183810Y-4832230D01*
X10183810Y-4832230D02*
X9789140Y-4870000D01*
X9789140Y-4870000D02*
X9785000Y-4870000D01*
X9785000Y-4870000D02*
X9775000Y-4870000D01*
X9775000Y-4870000D02*
X9642500Y-4920000D01*
X10362500Y-4760000D02*
X10357500Y-4760000D01*
G36*
X10174216Y-4980000D02*
X10177321Y-4995607D01*
X10186162Y-5008838D01*
X10199393Y-5017679D01*
X10215000Y-5020784D01*
X10452500Y-5020784D01*
X10452500Y-5139216D01*
X10215000Y-5139216D01*
X10211061Y-5140000D01*
X9788939Y-5140000D01*
X9785000Y-5139216D01*
X9547500Y-5139216D01*
X9547500Y-5020784D01*
X9785000Y-5020784D01*
X9800607Y-5017679D01*
X9813838Y-5008838D01*
X9822679Y-4995607D01*
X9825784Y-4980000D01*
X9825784Y-4916722D01*
X10174216Y-4883377D01*
X10174216Y-4980000D01*
X10174216Y-4980000D01*
G37*
X10174216Y-4980000D02*
X10177321Y-4995607D01*
X10186162Y-5008838D01*
X10199393Y-5017679D01*
X10215000Y-5020784D01*
X10452500Y-5020784D01*
X10452500Y-5139216D01*
X10215000Y-5139216D01*
X10211061Y-5140000D01*
X9788939Y-5140000D01*
X9785000Y-5139216D01*
X9547500Y-5139216D01*
X9547500Y-5020784D01*
X9785000Y-5020784D01*
X9800607Y-5017679D01*
X9813838Y-5008838D01*
X9822679Y-4995607D01*
X9825784Y-4980000D01*
X9825784Y-4916722D01*
X10174216Y-4883377D01*
X10174216Y-4980000D01*
G36*
X10174216Y-4700000D02*
X10174216Y-4774843D01*
X10173552Y-4775837D01*
X10170552Y-4778249D01*
X10170109Y-4778491D01*
X10166719Y-4781329D01*
X10163459Y-4783949D01*
X9825784Y-4816265D01*
X9825784Y-4700000D01*
X9825286Y-4697500D01*
X10174714Y-4697500D01*
X10174216Y-4700000D01*
X10174216Y-4700000D01*
G37*
X10174216Y-4700000D02*
X10174216Y-4774843D01*
X10173552Y-4775837D01*
X10170552Y-4778249D01*
X10170109Y-4778491D01*
X10166719Y-4781329D01*
X10163459Y-4783949D01*
X9825784Y-4816265D01*
X9825784Y-4700000D01*
X9825286Y-4697500D01*
X10174714Y-4697500D01*
X10174216Y-4700000D01*
M02*
