G04 #@! TF.GenerationSoftware,KiCad,Pcbnew,(5.0.0-rc2-dev-596-gcfd2f1d00)*
G04 #@! TF.CreationDate,2019-01-30T18:25:03+02:00*
G04 #@! TF.ProjectId,WS2813_single_side_conn_x14,5753323831335F73696E676C655F7369,rev?*
G04 #@! TF.SameCoordinates,Original*
G04 #@! TF.FileFunction,Legend,Bot*
G04 #@! TF.FilePolarity,Positive*
%FSLAX45Y45*%
G04 Gerber Fmt 4.5, Leading zero omitted, Abs format (unit mm)*
G04 Created by KiCad (PCBNEW (5.0.0-rc2-dev-596-gcfd2f1d00)) date 01/30/19 18:25:03*
%MOMM*%
%LPD*%
G01*
G04 APERTURE LIST*
%ADD10C,0.150000*%
%ADD11C,0.200000*%
%ADD12C,0.250000*%
G04 APERTURE END LIST*
D10*
X9893333Y-9523810D02*
X9920000Y-9443810D01*
X9946667Y-9523810D01*
X10019048Y-9451429D02*
X10015238Y-9447619D01*
X10003810Y-9443810D01*
X9996190Y-9443810D01*
X9984762Y-9447619D01*
X9977143Y-9455238D01*
X9973333Y-9462857D01*
X9969524Y-9478095D01*
X9969524Y-9489524D01*
X9973333Y-9504762D01*
X9977143Y-9512381D01*
X9984762Y-9520000D01*
X9996190Y-9523810D01*
X10003810Y-9523810D01*
X10015238Y-9520000D01*
X10019048Y-9516190D01*
X10099048Y-9451429D02*
X10095238Y-9447619D01*
X10083810Y-9443810D01*
X10076190Y-9443810D01*
X10064762Y-9447619D01*
X10057143Y-9455238D01*
X10053333Y-9462857D01*
X10049524Y-9478095D01*
X10049524Y-9489524D01*
X10053333Y-9504762D01*
X10057143Y-9512381D01*
X10064762Y-9520000D01*
X10076190Y-9523810D01*
X10083810Y-9523810D01*
X10095238Y-9520000D01*
X10099048Y-9516190D01*
X9939048Y-9400000D02*
X9931429Y-9403810D01*
X9920000Y-9403810D01*
X9908571Y-9400000D01*
X9900952Y-9392381D01*
X9897143Y-9384762D01*
X9893333Y-9369524D01*
X9893333Y-9358095D01*
X9897143Y-9342857D01*
X9900952Y-9335238D01*
X9908571Y-9327619D01*
X9920000Y-9323810D01*
X9927619Y-9323810D01*
X9939048Y-9327619D01*
X9942857Y-9331429D01*
X9942857Y-9358095D01*
X9927619Y-9358095D01*
X9977143Y-9323810D02*
X9977143Y-9403810D01*
X10022857Y-9323810D01*
X10022857Y-9403810D01*
X10060952Y-9323810D02*
X10060952Y-9403810D01*
X10080000Y-9403810D01*
X10091429Y-9400000D01*
X10099048Y-9392381D01*
X10102857Y-9384762D01*
X10106667Y-9369524D01*
X10106667Y-9358095D01*
X10102857Y-9342857D01*
X10099048Y-9335238D01*
X10091429Y-9327619D01*
X10080000Y-9323810D01*
X10060952Y-9323810D01*
X9914286Y-9003810D02*
X9914286Y-9083810D01*
X9933333Y-9083810D01*
X9944762Y-9080000D01*
X9952381Y-9072381D01*
X9956190Y-9064762D01*
X9960000Y-9049524D01*
X9960000Y-9038095D01*
X9956190Y-9022857D01*
X9952381Y-9015238D01*
X9944762Y-9007619D01*
X9933333Y-9003810D01*
X9914286Y-9003810D01*
X9990476Y-9026667D02*
X10028571Y-9026667D01*
X9982857Y-9003810D02*
X10009524Y-9083810D01*
X10036190Y-9003810D01*
X10051429Y-9083810D02*
X10097143Y-9083810D01*
X10074286Y-9003810D02*
X10074286Y-9083810D01*
X9935238Y-8925714D02*
X9946667Y-8921905D01*
X9950476Y-8918095D01*
X9954286Y-8910476D01*
X9954286Y-8899048D01*
X9950476Y-8891429D01*
X9946667Y-8887619D01*
X9939048Y-8883810D01*
X9908571Y-8883810D01*
X9908571Y-8963810D01*
X9935238Y-8963810D01*
X9942857Y-8960000D01*
X9946667Y-8956190D01*
X9950476Y-8948571D01*
X9950476Y-8940952D01*
X9946667Y-8933333D01*
X9942857Y-8929524D01*
X9935238Y-8925714D01*
X9908571Y-8925714D01*
X9988571Y-8883810D02*
X9988571Y-8963810D01*
X10007619Y-8963810D01*
X10019048Y-8960000D01*
X10026667Y-8952381D01*
X10030476Y-8944762D01*
X10034286Y-8929524D01*
X10034286Y-8918095D01*
X10030476Y-8902857D01*
X10026667Y-8895238D01*
X10019048Y-8887619D01*
X10007619Y-8883810D01*
X9988571Y-8883810D01*
X10057143Y-8963810D02*
X10102857Y-8963810D01*
X10080000Y-8883810D02*
X10080000Y-8963810D01*
D11*
X10200000Y-9270000D02*
X10160000Y-9230000D01*
X10160000Y-9230000D02*
X10160000Y-9310000D01*
X10160000Y-9310000D02*
X10200000Y-9270000D01*
D10*
X10170000Y-9240000D02*
X10170000Y-9300000D01*
D12*
X10080000Y-9270000D02*
X10190000Y-9270000D01*
D11*
X10200000Y-9130000D02*
X10160000Y-9090000D01*
D10*
X10170000Y-9160000D02*
X10170000Y-9100000D01*
D11*
X10160000Y-9090000D02*
X10160000Y-9170000D01*
X10160000Y-9170000D02*
X10200000Y-9130000D01*
D12*
X10080000Y-9130000D02*
X10190000Y-9130000D01*
X9790000Y-9130000D02*
X9900000Y-9130000D01*
D11*
X9870000Y-9170000D02*
X9910000Y-9130000D01*
X9870000Y-9090000D02*
X9870000Y-9170000D01*
D10*
X9880000Y-9160000D02*
X9880000Y-9100000D01*
D11*
X9910000Y-9130000D02*
X9870000Y-9090000D01*
X9910000Y-9270000D02*
X9870000Y-9230000D01*
D10*
X9880000Y-9300000D02*
X9880000Y-9240000D01*
D11*
X9870000Y-9230000D02*
X9870000Y-9310000D01*
X9870000Y-9310000D02*
X9910000Y-9270000D01*
D12*
X9790000Y-9270000D02*
X9900000Y-9270000D01*
X9790000Y-9970000D02*
X9900000Y-9970000D01*
D11*
X9870000Y-10010000D02*
X9910000Y-9970000D01*
X9870000Y-9930000D02*
X9870000Y-10010000D01*
D10*
X9880000Y-10000000D02*
X9880000Y-9940000D01*
D11*
X9910000Y-9970000D02*
X9870000Y-9930000D01*
X9910000Y-9830000D02*
X9870000Y-9790000D01*
D10*
X9880000Y-9860000D02*
X9880000Y-9800000D01*
D11*
X9870000Y-9790000D02*
X9870000Y-9870000D01*
X9870000Y-9870000D02*
X9910000Y-9830000D01*
D12*
X9790000Y-9830000D02*
X9900000Y-9830000D01*
X10080000Y-9830000D02*
X10190000Y-9830000D01*
D11*
X10160000Y-9870000D02*
X10200000Y-9830000D01*
X10160000Y-9790000D02*
X10160000Y-9870000D01*
D10*
X10170000Y-9860000D02*
X10170000Y-9800000D01*
D11*
X10200000Y-9830000D02*
X10160000Y-9790000D01*
D12*
X10080000Y-9970000D02*
X10190000Y-9970000D01*
D10*
X10170000Y-9940000D02*
X10170000Y-10000000D01*
D11*
X10160000Y-10010000D02*
X10200000Y-9970000D01*
X10160000Y-9930000D02*
X10160000Y-10010000D01*
X10200000Y-9970000D02*
X10160000Y-9930000D01*
D10*
X9935238Y-9625714D02*
X9946667Y-9621905D01*
X9950476Y-9618095D01*
X9954286Y-9610476D01*
X9954286Y-9599048D01*
X9950476Y-9591429D01*
X9946667Y-9587619D01*
X9939048Y-9583810D01*
X9908571Y-9583810D01*
X9908571Y-9663810D01*
X9935238Y-9663810D01*
X9942857Y-9660000D01*
X9946667Y-9656190D01*
X9950476Y-9648571D01*
X9950476Y-9640952D01*
X9946667Y-9633333D01*
X9942857Y-9629524D01*
X9935238Y-9625714D01*
X9908571Y-9625714D01*
X9988571Y-9583810D02*
X9988571Y-9663810D01*
X10007619Y-9663810D01*
X10019048Y-9660000D01*
X10026667Y-9652381D01*
X10030476Y-9644762D01*
X10034286Y-9629524D01*
X10034286Y-9618095D01*
X10030476Y-9602857D01*
X10026667Y-9595238D01*
X10019048Y-9587619D01*
X10007619Y-9583810D01*
X9988571Y-9583810D01*
X10057143Y-9663810D02*
X10102857Y-9663810D01*
X10080000Y-9583810D02*
X10080000Y-9663810D01*
X9914286Y-9703810D02*
X9914286Y-9783810D01*
X9933333Y-9783810D01*
X9944762Y-9780000D01*
X9952381Y-9772381D01*
X9956190Y-9764762D01*
X9960000Y-9749524D01*
X9960000Y-9738095D01*
X9956190Y-9722857D01*
X9952381Y-9715238D01*
X9944762Y-9707619D01*
X9933333Y-9703810D01*
X9914286Y-9703810D01*
X9990476Y-9726667D02*
X10028571Y-9726667D01*
X9982857Y-9703810D02*
X10009524Y-9783810D01*
X10036190Y-9703810D01*
X10051429Y-9783810D02*
X10097143Y-9783810D01*
X10074286Y-9703810D02*
X10074286Y-9783810D01*
X9939048Y-10100000D02*
X9931429Y-10103810D01*
X9920000Y-10103810D01*
X9908571Y-10100000D01*
X9900952Y-10092381D01*
X9897143Y-10084762D01*
X9893333Y-10069524D01*
X9893333Y-10058095D01*
X9897143Y-10042857D01*
X9900952Y-10035238D01*
X9908571Y-10027619D01*
X9920000Y-10023810D01*
X9927619Y-10023810D01*
X9939048Y-10027619D01*
X9942857Y-10031429D01*
X9942857Y-10058095D01*
X9927619Y-10058095D01*
X9977143Y-10023810D02*
X9977143Y-10103810D01*
X10022857Y-10023810D01*
X10022857Y-10103810D01*
X10060952Y-10023810D02*
X10060952Y-10103810D01*
X10080000Y-10103810D01*
X10091429Y-10100000D01*
X10099048Y-10092381D01*
X10102857Y-10084762D01*
X10106667Y-10069524D01*
X10106667Y-10058095D01*
X10102857Y-10042857D01*
X10099048Y-10035238D01*
X10091429Y-10027619D01*
X10080000Y-10023810D01*
X10060952Y-10023810D01*
X9893333Y-10223810D02*
X9920000Y-10143810D01*
X9946667Y-10223810D01*
X10019048Y-10151429D02*
X10015238Y-10147619D01*
X10003810Y-10143810D01*
X9996190Y-10143810D01*
X9984762Y-10147619D01*
X9977143Y-10155238D01*
X9973333Y-10162857D01*
X9969524Y-10178095D01*
X9969524Y-10189524D01*
X9973333Y-10204762D01*
X9977143Y-10212381D01*
X9984762Y-10220000D01*
X9996190Y-10223810D01*
X10003810Y-10223810D01*
X10015238Y-10220000D01*
X10019048Y-10216190D01*
X10099048Y-10151429D02*
X10095238Y-10147619D01*
X10083810Y-10143810D01*
X10076190Y-10143810D01*
X10064762Y-10147619D01*
X10057143Y-10155238D01*
X10053333Y-10162857D01*
X10049524Y-10178095D01*
X10049524Y-10189524D01*
X10053333Y-10204762D01*
X10057143Y-10212381D01*
X10064762Y-10220000D01*
X10076190Y-10223810D01*
X10083810Y-10223810D01*
X10095238Y-10220000D01*
X10099048Y-10216190D01*
X9893333Y-11623809D02*
X9920000Y-11543809D01*
X9946667Y-11623809D01*
X10019048Y-11551428D02*
X10015238Y-11547619D01*
X10003810Y-11543809D01*
X9996190Y-11543809D01*
X9984762Y-11547619D01*
X9977143Y-11555238D01*
X9973333Y-11562857D01*
X9969524Y-11578095D01*
X9969524Y-11589524D01*
X9973333Y-11604762D01*
X9977143Y-11612381D01*
X9984762Y-11620000D01*
X9996190Y-11623809D01*
X10003810Y-11623809D01*
X10015238Y-11620000D01*
X10019048Y-11616190D01*
X10099048Y-11551428D02*
X10095238Y-11547619D01*
X10083810Y-11543809D01*
X10076190Y-11543809D01*
X10064762Y-11547619D01*
X10057143Y-11555238D01*
X10053333Y-11562857D01*
X10049524Y-11578095D01*
X10049524Y-11589524D01*
X10053333Y-11604762D01*
X10057143Y-11612381D01*
X10064762Y-11620000D01*
X10076190Y-11623809D01*
X10083810Y-11623809D01*
X10095238Y-11620000D01*
X10099048Y-11616190D01*
X9939048Y-11500000D02*
X9931429Y-11503809D01*
X9920000Y-11503809D01*
X9908571Y-11500000D01*
X9900952Y-11492381D01*
X9897143Y-11484762D01*
X9893333Y-11469524D01*
X9893333Y-11458095D01*
X9897143Y-11442857D01*
X9900952Y-11435238D01*
X9908571Y-11427619D01*
X9920000Y-11423809D01*
X9927619Y-11423809D01*
X9939048Y-11427619D01*
X9942857Y-11431428D01*
X9942857Y-11458095D01*
X9927619Y-11458095D01*
X9977143Y-11423809D02*
X9977143Y-11503809D01*
X10022857Y-11423809D01*
X10022857Y-11503809D01*
X10060952Y-11423809D02*
X10060952Y-11503809D01*
X10080000Y-11503809D01*
X10091429Y-11500000D01*
X10099048Y-11492381D01*
X10102857Y-11484762D01*
X10106667Y-11469524D01*
X10106667Y-11458095D01*
X10102857Y-11442857D01*
X10099048Y-11435238D01*
X10091429Y-11427619D01*
X10080000Y-11423809D01*
X10060952Y-11423809D01*
X9914286Y-11103810D02*
X9914286Y-11183810D01*
X9933333Y-11183810D01*
X9944762Y-11180000D01*
X9952381Y-11172381D01*
X9956190Y-11164762D01*
X9960000Y-11149524D01*
X9960000Y-11138095D01*
X9956190Y-11122857D01*
X9952381Y-11115238D01*
X9944762Y-11107619D01*
X9933333Y-11103810D01*
X9914286Y-11103810D01*
X9990476Y-11126667D02*
X10028571Y-11126667D01*
X9982857Y-11103810D02*
X10009524Y-11183810D01*
X10036190Y-11103810D01*
X10051429Y-11183810D02*
X10097143Y-11183810D01*
X10074286Y-11103810D02*
X10074286Y-11183810D01*
X9935238Y-11025714D02*
X9946667Y-11021905D01*
X9950476Y-11018095D01*
X9954286Y-11010476D01*
X9954286Y-10999048D01*
X9950476Y-10991429D01*
X9946667Y-10987619D01*
X9939048Y-10983810D01*
X9908571Y-10983810D01*
X9908571Y-11063810D01*
X9935238Y-11063810D01*
X9942857Y-11060000D01*
X9946667Y-11056190D01*
X9950476Y-11048571D01*
X9950476Y-11040952D01*
X9946667Y-11033333D01*
X9942857Y-11029524D01*
X9935238Y-11025714D01*
X9908571Y-11025714D01*
X9988571Y-10983810D02*
X9988571Y-11063810D01*
X10007619Y-11063810D01*
X10019048Y-11060000D01*
X10026667Y-11052381D01*
X10030476Y-11044762D01*
X10034286Y-11029524D01*
X10034286Y-11018095D01*
X10030476Y-11002857D01*
X10026667Y-10995238D01*
X10019048Y-10987619D01*
X10007619Y-10983810D01*
X9988571Y-10983810D01*
X10057143Y-11063810D02*
X10102857Y-11063810D01*
X10080000Y-10983810D02*
X10080000Y-11063810D01*
D11*
X10200000Y-11370000D02*
X10160000Y-11330000D01*
X10160000Y-11330000D02*
X10160000Y-11410000D01*
X10160000Y-11410000D02*
X10200000Y-11370000D01*
D10*
X10170000Y-11340000D02*
X10170000Y-11400000D01*
D12*
X10080000Y-11370000D02*
X10190000Y-11370000D01*
D11*
X10200000Y-11230000D02*
X10160000Y-11190000D01*
D10*
X10170000Y-11260000D02*
X10170000Y-11200000D01*
D11*
X10160000Y-11190000D02*
X10160000Y-11270000D01*
X10160000Y-11270000D02*
X10200000Y-11230000D01*
D12*
X10080000Y-11230000D02*
X10190000Y-11230000D01*
X9790000Y-11230000D02*
X9900000Y-11230000D01*
D11*
X9870000Y-11270000D02*
X9910000Y-11230000D01*
X9870000Y-11190000D02*
X9870000Y-11270000D01*
D10*
X9880000Y-11260000D02*
X9880000Y-11200000D01*
D11*
X9910000Y-11230000D02*
X9870000Y-11190000D01*
X9910000Y-11370000D02*
X9870000Y-11330000D01*
D10*
X9880000Y-11400000D02*
X9880000Y-11340000D01*
D11*
X9870000Y-11330000D02*
X9870000Y-11410000D01*
X9870000Y-11410000D02*
X9910000Y-11370000D01*
D12*
X9790000Y-11370000D02*
X9900000Y-11370000D01*
X9790000Y-10670000D02*
X9900000Y-10670000D01*
D11*
X9870000Y-10710000D02*
X9910000Y-10670000D01*
X9870000Y-10630000D02*
X9870000Y-10710000D01*
D10*
X9880000Y-10700000D02*
X9880000Y-10640000D01*
D11*
X9910000Y-10670000D02*
X9870000Y-10630000D01*
X9910000Y-10530000D02*
X9870000Y-10490000D01*
D10*
X9880000Y-10560000D02*
X9880000Y-10500000D01*
D11*
X9870000Y-10490000D02*
X9870000Y-10570000D01*
X9870000Y-10570000D02*
X9910000Y-10530000D01*
D12*
X9790000Y-10530000D02*
X9900000Y-10530000D01*
X10080000Y-10530000D02*
X10190000Y-10530000D01*
D11*
X10160000Y-10570000D02*
X10200000Y-10530000D01*
X10160000Y-10490000D02*
X10160000Y-10570000D01*
D10*
X10170000Y-10560000D02*
X10170000Y-10500000D01*
D11*
X10200000Y-10530000D02*
X10160000Y-10490000D01*
D12*
X10080000Y-10670000D02*
X10190000Y-10670000D01*
D10*
X10170000Y-10640000D02*
X10170000Y-10700000D01*
D11*
X10160000Y-10710000D02*
X10200000Y-10670000D01*
X10160000Y-10630000D02*
X10160000Y-10710000D01*
X10200000Y-10670000D02*
X10160000Y-10630000D01*
D10*
X9935238Y-10325714D02*
X9946667Y-10321905D01*
X9950476Y-10318095D01*
X9954286Y-10310476D01*
X9954286Y-10299048D01*
X9950476Y-10291429D01*
X9946667Y-10287619D01*
X9939048Y-10283810D01*
X9908571Y-10283810D01*
X9908571Y-10363810D01*
X9935238Y-10363810D01*
X9942857Y-10360000D01*
X9946667Y-10356190D01*
X9950476Y-10348571D01*
X9950476Y-10340952D01*
X9946667Y-10333333D01*
X9942857Y-10329524D01*
X9935238Y-10325714D01*
X9908571Y-10325714D01*
X9988571Y-10283810D02*
X9988571Y-10363810D01*
X10007619Y-10363810D01*
X10019048Y-10360000D01*
X10026667Y-10352381D01*
X10030476Y-10344762D01*
X10034286Y-10329524D01*
X10034286Y-10318095D01*
X10030476Y-10302857D01*
X10026667Y-10295238D01*
X10019048Y-10287619D01*
X10007619Y-10283810D01*
X9988571Y-10283810D01*
X10057143Y-10363810D02*
X10102857Y-10363810D01*
X10080000Y-10283810D02*
X10080000Y-10363810D01*
X9914286Y-10403810D02*
X9914286Y-10483810D01*
X9933333Y-10483810D01*
X9944762Y-10480000D01*
X9952381Y-10472381D01*
X9956190Y-10464762D01*
X9960000Y-10449524D01*
X9960000Y-10438095D01*
X9956190Y-10422857D01*
X9952381Y-10415238D01*
X9944762Y-10407619D01*
X9933333Y-10403810D01*
X9914286Y-10403810D01*
X9990476Y-10426667D02*
X10028571Y-10426667D01*
X9982857Y-10403810D02*
X10009524Y-10483810D01*
X10036190Y-10403810D01*
X10051429Y-10483810D02*
X10097143Y-10483810D01*
X10074286Y-10403810D02*
X10074286Y-10483810D01*
X9939048Y-10800000D02*
X9931429Y-10803810D01*
X9920000Y-10803810D01*
X9908571Y-10800000D01*
X9900952Y-10792381D01*
X9897143Y-10784762D01*
X9893333Y-10769524D01*
X9893333Y-10758095D01*
X9897143Y-10742857D01*
X9900952Y-10735238D01*
X9908571Y-10727619D01*
X9920000Y-10723810D01*
X9927619Y-10723810D01*
X9939048Y-10727619D01*
X9942857Y-10731429D01*
X9942857Y-10758095D01*
X9927619Y-10758095D01*
X9977143Y-10723810D02*
X9977143Y-10803810D01*
X10022857Y-10723810D01*
X10022857Y-10803810D01*
X10060952Y-10723810D02*
X10060952Y-10803810D01*
X10080000Y-10803810D01*
X10091429Y-10800000D01*
X10099048Y-10792381D01*
X10102857Y-10784762D01*
X10106667Y-10769524D01*
X10106667Y-10758095D01*
X10102857Y-10742857D01*
X10099048Y-10735238D01*
X10091429Y-10727619D01*
X10080000Y-10723810D01*
X10060952Y-10723810D01*
X9893333Y-10923810D02*
X9920000Y-10843810D01*
X9946667Y-10923810D01*
X10019048Y-10851429D02*
X10015238Y-10847619D01*
X10003810Y-10843810D01*
X9996190Y-10843810D01*
X9984762Y-10847619D01*
X9977143Y-10855238D01*
X9973333Y-10862857D01*
X9969524Y-10878095D01*
X9969524Y-10889524D01*
X9973333Y-10904762D01*
X9977143Y-10912381D01*
X9984762Y-10920000D01*
X9996190Y-10923810D01*
X10003810Y-10923810D01*
X10015238Y-10920000D01*
X10019048Y-10916190D01*
X10099048Y-10851429D02*
X10095238Y-10847619D01*
X10083810Y-10843810D01*
X10076190Y-10843810D01*
X10064762Y-10847619D01*
X10057143Y-10855238D01*
X10053333Y-10862857D01*
X10049524Y-10878095D01*
X10049524Y-10889524D01*
X10053333Y-10904762D01*
X10057143Y-10912381D01*
X10064762Y-10920000D01*
X10076190Y-10923810D01*
X10083810Y-10923810D01*
X10095238Y-10920000D01*
X10099048Y-10916190D01*
X9893333Y-13023809D02*
X9920000Y-12943809D01*
X9946667Y-13023809D01*
X10019048Y-12951428D02*
X10015238Y-12947619D01*
X10003810Y-12943809D01*
X9996190Y-12943809D01*
X9984762Y-12947619D01*
X9977143Y-12955238D01*
X9973333Y-12962857D01*
X9969524Y-12978095D01*
X9969524Y-12989524D01*
X9973333Y-13004762D01*
X9977143Y-13012381D01*
X9984762Y-13020000D01*
X9996190Y-13023809D01*
X10003810Y-13023809D01*
X10015238Y-13020000D01*
X10019048Y-13016190D01*
X10099048Y-12951428D02*
X10095238Y-12947619D01*
X10083810Y-12943809D01*
X10076190Y-12943809D01*
X10064762Y-12947619D01*
X10057143Y-12955238D01*
X10053333Y-12962857D01*
X10049524Y-12978095D01*
X10049524Y-12989524D01*
X10053333Y-13004762D01*
X10057143Y-13012381D01*
X10064762Y-13020000D01*
X10076190Y-13023809D01*
X10083810Y-13023809D01*
X10095238Y-13020000D01*
X10099048Y-13016190D01*
X9939048Y-12900000D02*
X9931429Y-12903809D01*
X9920000Y-12903809D01*
X9908571Y-12900000D01*
X9900952Y-12892381D01*
X9897143Y-12884762D01*
X9893333Y-12869524D01*
X9893333Y-12858095D01*
X9897143Y-12842857D01*
X9900952Y-12835238D01*
X9908571Y-12827619D01*
X9920000Y-12823809D01*
X9927619Y-12823809D01*
X9939048Y-12827619D01*
X9942857Y-12831428D01*
X9942857Y-12858095D01*
X9927619Y-12858095D01*
X9977143Y-12823809D02*
X9977143Y-12903809D01*
X10022857Y-12823809D01*
X10022857Y-12903809D01*
X10060952Y-12823809D02*
X10060952Y-12903809D01*
X10080000Y-12903809D01*
X10091429Y-12900000D01*
X10099048Y-12892381D01*
X10102857Y-12884762D01*
X10106667Y-12869524D01*
X10106667Y-12858095D01*
X10102857Y-12842857D01*
X10099048Y-12835238D01*
X10091429Y-12827619D01*
X10080000Y-12823809D01*
X10060952Y-12823809D01*
X9914286Y-12503809D02*
X9914286Y-12583809D01*
X9933333Y-12583809D01*
X9944762Y-12580000D01*
X9952381Y-12572381D01*
X9956190Y-12564762D01*
X9960000Y-12549524D01*
X9960000Y-12538095D01*
X9956190Y-12522857D01*
X9952381Y-12515238D01*
X9944762Y-12507619D01*
X9933333Y-12503809D01*
X9914286Y-12503809D01*
X9990476Y-12526667D02*
X10028571Y-12526667D01*
X9982857Y-12503809D02*
X10009524Y-12583809D01*
X10036190Y-12503809D01*
X10051429Y-12583809D02*
X10097143Y-12583809D01*
X10074286Y-12503809D02*
X10074286Y-12583809D01*
X9935238Y-12425714D02*
X9946667Y-12421905D01*
X9950476Y-12418095D01*
X9954286Y-12410476D01*
X9954286Y-12399048D01*
X9950476Y-12391428D01*
X9946667Y-12387619D01*
X9939048Y-12383809D01*
X9908571Y-12383809D01*
X9908571Y-12463809D01*
X9935238Y-12463809D01*
X9942857Y-12460000D01*
X9946667Y-12456190D01*
X9950476Y-12448571D01*
X9950476Y-12440952D01*
X9946667Y-12433333D01*
X9942857Y-12429524D01*
X9935238Y-12425714D01*
X9908571Y-12425714D01*
X9988571Y-12383809D02*
X9988571Y-12463809D01*
X10007619Y-12463809D01*
X10019048Y-12460000D01*
X10026667Y-12452381D01*
X10030476Y-12444762D01*
X10034286Y-12429524D01*
X10034286Y-12418095D01*
X10030476Y-12402857D01*
X10026667Y-12395238D01*
X10019048Y-12387619D01*
X10007619Y-12383809D01*
X9988571Y-12383809D01*
X10057143Y-12463809D02*
X10102857Y-12463809D01*
X10080000Y-12383809D02*
X10080000Y-12463809D01*
D11*
X10200000Y-12770000D02*
X10160000Y-12730000D01*
X10160000Y-12730000D02*
X10160000Y-12810000D01*
X10160000Y-12810000D02*
X10200000Y-12770000D01*
D10*
X10170000Y-12740000D02*
X10170000Y-12800000D01*
D12*
X10080000Y-12770000D02*
X10190000Y-12770000D01*
D11*
X10200000Y-12630000D02*
X10160000Y-12590000D01*
D10*
X10170000Y-12660000D02*
X10170000Y-12600000D01*
D11*
X10160000Y-12590000D02*
X10160000Y-12670000D01*
X10160000Y-12670000D02*
X10200000Y-12630000D01*
D12*
X10080000Y-12630000D02*
X10190000Y-12630000D01*
X9790000Y-12630000D02*
X9900000Y-12630000D01*
D11*
X9870000Y-12670000D02*
X9910000Y-12630000D01*
X9870000Y-12590000D02*
X9870000Y-12670000D01*
D10*
X9880000Y-12660000D02*
X9880000Y-12600000D01*
D11*
X9910000Y-12630000D02*
X9870000Y-12590000D01*
X9910000Y-12770000D02*
X9870000Y-12730000D01*
D10*
X9880000Y-12800000D02*
X9880000Y-12740000D01*
D11*
X9870000Y-12730000D02*
X9870000Y-12810000D01*
X9870000Y-12810000D02*
X9910000Y-12770000D01*
D12*
X9790000Y-12770000D02*
X9900000Y-12770000D01*
X9790000Y-12070000D02*
X9900000Y-12070000D01*
D11*
X9870000Y-12110000D02*
X9910000Y-12070000D01*
X9870000Y-12030000D02*
X9870000Y-12110000D01*
D10*
X9880000Y-12100000D02*
X9880000Y-12040000D01*
D11*
X9910000Y-12070000D02*
X9870000Y-12030000D01*
X9910000Y-11930000D02*
X9870000Y-11890000D01*
D10*
X9880000Y-11960000D02*
X9880000Y-11900000D01*
D11*
X9870000Y-11890000D02*
X9870000Y-11970000D01*
X9870000Y-11970000D02*
X9910000Y-11930000D01*
D12*
X9790000Y-11930000D02*
X9900000Y-11930000D01*
X10080000Y-11930000D02*
X10190000Y-11930000D01*
D11*
X10160000Y-11970000D02*
X10200000Y-11930000D01*
X10160000Y-11890000D02*
X10160000Y-11970000D01*
D10*
X10170000Y-11960000D02*
X10170000Y-11900000D01*
D11*
X10200000Y-11930000D02*
X10160000Y-11890000D01*
D12*
X10080000Y-12070000D02*
X10190000Y-12070000D01*
D10*
X10170000Y-12040000D02*
X10170000Y-12100000D01*
D11*
X10160000Y-12110000D02*
X10200000Y-12070000D01*
X10160000Y-12030000D02*
X10160000Y-12110000D01*
X10200000Y-12070000D02*
X10160000Y-12030000D01*
D10*
X9935238Y-11725714D02*
X9946667Y-11721905D01*
X9950476Y-11718095D01*
X9954286Y-11710476D01*
X9954286Y-11699048D01*
X9950476Y-11691428D01*
X9946667Y-11687619D01*
X9939048Y-11683809D01*
X9908571Y-11683809D01*
X9908571Y-11763809D01*
X9935238Y-11763809D01*
X9942857Y-11760000D01*
X9946667Y-11756190D01*
X9950476Y-11748571D01*
X9950476Y-11740952D01*
X9946667Y-11733333D01*
X9942857Y-11729524D01*
X9935238Y-11725714D01*
X9908571Y-11725714D01*
X9988571Y-11683809D02*
X9988571Y-11763809D01*
X10007619Y-11763809D01*
X10019048Y-11760000D01*
X10026667Y-11752381D01*
X10030476Y-11744762D01*
X10034286Y-11729524D01*
X10034286Y-11718095D01*
X10030476Y-11702857D01*
X10026667Y-11695238D01*
X10019048Y-11687619D01*
X10007619Y-11683809D01*
X9988571Y-11683809D01*
X10057143Y-11763809D02*
X10102857Y-11763809D01*
X10080000Y-11683809D02*
X10080000Y-11763809D01*
X9914286Y-11803809D02*
X9914286Y-11883809D01*
X9933333Y-11883809D01*
X9944762Y-11880000D01*
X9952381Y-11872381D01*
X9956190Y-11864762D01*
X9960000Y-11849524D01*
X9960000Y-11838095D01*
X9956190Y-11822857D01*
X9952381Y-11815238D01*
X9944762Y-11807619D01*
X9933333Y-11803809D01*
X9914286Y-11803809D01*
X9990476Y-11826667D02*
X10028571Y-11826667D01*
X9982857Y-11803809D02*
X10009524Y-11883809D01*
X10036190Y-11803809D01*
X10051429Y-11883809D02*
X10097143Y-11883809D01*
X10074286Y-11803809D02*
X10074286Y-11883809D01*
X9939048Y-12200000D02*
X9931429Y-12203809D01*
X9920000Y-12203809D01*
X9908571Y-12200000D01*
X9900952Y-12192381D01*
X9897143Y-12184762D01*
X9893333Y-12169524D01*
X9893333Y-12158095D01*
X9897143Y-12142857D01*
X9900952Y-12135238D01*
X9908571Y-12127619D01*
X9920000Y-12123809D01*
X9927619Y-12123809D01*
X9939048Y-12127619D01*
X9942857Y-12131428D01*
X9942857Y-12158095D01*
X9927619Y-12158095D01*
X9977143Y-12123809D02*
X9977143Y-12203809D01*
X10022857Y-12123809D01*
X10022857Y-12203809D01*
X10060952Y-12123809D02*
X10060952Y-12203809D01*
X10080000Y-12203809D01*
X10091429Y-12200000D01*
X10099048Y-12192381D01*
X10102857Y-12184762D01*
X10106667Y-12169524D01*
X10106667Y-12158095D01*
X10102857Y-12142857D01*
X10099048Y-12135238D01*
X10091429Y-12127619D01*
X10080000Y-12123809D01*
X10060952Y-12123809D01*
X9893333Y-12323809D02*
X9920000Y-12243809D01*
X9946667Y-12323809D01*
X10019048Y-12251428D02*
X10015238Y-12247619D01*
X10003810Y-12243809D01*
X9996190Y-12243809D01*
X9984762Y-12247619D01*
X9977143Y-12255238D01*
X9973333Y-12262857D01*
X9969524Y-12278095D01*
X9969524Y-12289524D01*
X9973333Y-12304762D01*
X9977143Y-12312381D01*
X9984762Y-12320000D01*
X9996190Y-12323809D01*
X10003810Y-12323809D01*
X10015238Y-12320000D01*
X10019048Y-12316190D01*
X10099048Y-12251428D02*
X10095238Y-12247619D01*
X10083810Y-12243809D01*
X10076190Y-12243809D01*
X10064762Y-12247619D01*
X10057143Y-12255238D01*
X10053333Y-12262857D01*
X10049524Y-12278095D01*
X10049524Y-12289524D01*
X10053333Y-12304762D01*
X10057143Y-12312381D01*
X10064762Y-12320000D01*
X10076190Y-12323809D01*
X10083810Y-12323809D01*
X10095238Y-12320000D01*
X10099048Y-12316190D01*
X9893333Y-14423809D02*
X9920000Y-14343809D01*
X9946667Y-14423809D01*
X10019048Y-14351428D02*
X10015238Y-14347619D01*
X10003810Y-14343809D01*
X9996190Y-14343809D01*
X9984762Y-14347619D01*
X9977143Y-14355238D01*
X9973333Y-14362857D01*
X9969524Y-14378095D01*
X9969524Y-14389524D01*
X9973333Y-14404762D01*
X9977143Y-14412381D01*
X9984762Y-14420000D01*
X9996190Y-14423809D01*
X10003810Y-14423809D01*
X10015238Y-14420000D01*
X10019048Y-14416190D01*
X10099048Y-14351428D02*
X10095238Y-14347619D01*
X10083810Y-14343809D01*
X10076190Y-14343809D01*
X10064762Y-14347619D01*
X10057143Y-14355238D01*
X10053333Y-14362857D01*
X10049524Y-14378095D01*
X10049524Y-14389524D01*
X10053333Y-14404762D01*
X10057143Y-14412381D01*
X10064762Y-14420000D01*
X10076190Y-14423809D01*
X10083810Y-14423809D01*
X10095238Y-14420000D01*
X10099048Y-14416190D01*
X9939048Y-14300000D02*
X9931429Y-14303809D01*
X9920000Y-14303809D01*
X9908571Y-14300000D01*
X9900952Y-14292381D01*
X9897143Y-14284762D01*
X9893333Y-14269524D01*
X9893333Y-14258095D01*
X9897143Y-14242857D01*
X9900952Y-14235238D01*
X9908571Y-14227619D01*
X9920000Y-14223809D01*
X9927619Y-14223809D01*
X9939048Y-14227619D01*
X9942857Y-14231428D01*
X9942857Y-14258095D01*
X9927619Y-14258095D01*
X9977143Y-14223809D02*
X9977143Y-14303809D01*
X10022857Y-14223809D01*
X10022857Y-14303809D01*
X10060952Y-14223809D02*
X10060952Y-14303809D01*
X10080000Y-14303809D01*
X10091429Y-14300000D01*
X10099048Y-14292381D01*
X10102857Y-14284762D01*
X10106667Y-14269524D01*
X10106667Y-14258095D01*
X10102857Y-14242857D01*
X10099048Y-14235238D01*
X10091429Y-14227619D01*
X10080000Y-14223809D01*
X10060952Y-14223809D01*
X9914286Y-13903809D02*
X9914286Y-13983809D01*
X9933333Y-13983809D01*
X9944762Y-13980000D01*
X9952381Y-13972381D01*
X9956190Y-13964762D01*
X9960000Y-13949524D01*
X9960000Y-13938095D01*
X9956190Y-13922857D01*
X9952381Y-13915238D01*
X9944762Y-13907619D01*
X9933333Y-13903809D01*
X9914286Y-13903809D01*
X9990476Y-13926667D02*
X10028571Y-13926667D01*
X9982857Y-13903809D02*
X10009524Y-13983809D01*
X10036190Y-13903809D01*
X10051429Y-13983809D02*
X10097143Y-13983809D01*
X10074286Y-13903809D02*
X10074286Y-13983809D01*
X9935238Y-13825714D02*
X9946667Y-13821905D01*
X9950476Y-13818095D01*
X9954286Y-13810476D01*
X9954286Y-13799048D01*
X9950476Y-13791428D01*
X9946667Y-13787619D01*
X9939048Y-13783809D01*
X9908571Y-13783809D01*
X9908571Y-13863809D01*
X9935238Y-13863809D01*
X9942857Y-13860000D01*
X9946667Y-13856190D01*
X9950476Y-13848571D01*
X9950476Y-13840952D01*
X9946667Y-13833333D01*
X9942857Y-13829524D01*
X9935238Y-13825714D01*
X9908571Y-13825714D01*
X9988571Y-13783809D02*
X9988571Y-13863809D01*
X10007619Y-13863809D01*
X10019048Y-13860000D01*
X10026667Y-13852381D01*
X10030476Y-13844762D01*
X10034286Y-13829524D01*
X10034286Y-13818095D01*
X10030476Y-13802857D01*
X10026667Y-13795238D01*
X10019048Y-13787619D01*
X10007619Y-13783809D01*
X9988571Y-13783809D01*
X10057143Y-13863809D02*
X10102857Y-13863809D01*
X10080000Y-13783809D02*
X10080000Y-13863809D01*
D11*
X10200000Y-14170000D02*
X10160000Y-14130000D01*
X10160000Y-14130000D02*
X10160000Y-14210000D01*
X10160000Y-14210000D02*
X10200000Y-14170000D01*
D10*
X10170000Y-14140000D02*
X10170000Y-14200000D01*
D12*
X10080000Y-14170000D02*
X10190000Y-14170000D01*
D11*
X10200000Y-14030000D02*
X10160000Y-13990000D01*
D10*
X10170000Y-14060000D02*
X10170000Y-14000000D01*
D11*
X10160000Y-13990000D02*
X10160000Y-14070000D01*
X10160000Y-14070000D02*
X10200000Y-14030000D01*
D12*
X10080000Y-14030000D02*
X10190000Y-14030000D01*
X9790000Y-14030000D02*
X9900000Y-14030000D01*
D11*
X9870000Y-14070000D02*
X9910000Y-14030000D01*
X9870000Y-13990000D02*
X9870000Y-14070000D01*
D10*
X9880000Y-14060000D02*
X9880000Y-14000000D01*
D11*
X9910000Y-14030000D02*
X9870000Y-13990000D01*
X9910000Y-14170000D02*
X9870000Y-14130000D01*
D10*
X9880000Y-14200000D02*
X9880000Y-14140000D01*
D11*
X9870000Y-14130000D02*
X9870000Y-14210000D01*
X9870000Y-14210000D02*
X9910000Y-14170000D01*
D12*
X9790000Y-14170000D02*
X9900000Y-14170000D01*
X9790000Y-13470000D02*
X9900000Y-13470000D01*
D11*
X9870000Y-13510000D02*
X9910000Y-13470000D01*
X9870000Y-13430000D02*
X9870000Y-13510000D01*
D10*
X9880000Y-13500000D02*
X9880000Y-13440000D01*
D11*
X9910000Y-13470000D02*
X9870000Y-13430000D01*
X9910000Y-13330000D02*
X9870000Y-13290000D01*
D10*
X9880000Y-13360000D02*
X9880000Y-13300000D01*
D11*
X9870000Y-13290000D02*
X9870000Y-13370000D01*
X9870000Y-13370000D02*
X9910000Y-13330000D01*
D12*
X9790000Y-13330000D02*
X9900000Y-13330000D01*
X10080000Y-13330000D02*
X10190000Y-13330000D01*
D11*
X10160000Y-13370000D02*
X10200000Y-13330000D01*
X10160000Y-13290000D02*
X10160000Y-13370000D01*
D10*
X10170000Y-13360000D02*
X10170000Y-13300000D01*
D11*
X10200000Y-13330000D02*
X10160000Y-13290000D01*
D12*
X10080000Y-13470000D02*
X10190000Y-13470000D01*
D10*
X10170000Y-13440000D02*
X10170000Y-13500000D01*
D11*
X10160000Y-13510000D02*
X10200000Y-13470000D01*
X10160000Y-13430000D02*
X10160000Y-13510000D01*
X10200000Y-13470000D02*
X10160000Y-13430000D01*
D10*
X9935238Y-13125714D02*
X9946667Y-13121905D01*
X9950476Y-13118095D01*
X9954286Y-13110476D01*
X9954286Y-13099048D01*
X9950476Y-13091428D01*
X9946667Y-13087619D01*
X9939048Y-13083809D01*
X9908571Y-13083809D01*
X9908571Y-13163809D01*
X9935238Y-13163809D01*
X9942857Y-13160000D01*
X9946667Y-13156190D01*
X9950476Y-13148571D01*
X9950476Y-13140952D01*
X9946667Y-13133333D01*
X9942857Y-13129524D01*
X9935238Y-13125714D01*
X9908571Y-13125714D01*
X9988571Y-13083809D02*
X9988571Y-13163809D01*
X10007619Y-13163809D01*
X10019048Y-13160000D01*
X10026667Y-13152381D01*
X10030476Y-13144762D01*
X10034286Y-13129524D01*
X10034286Y-13118095D01*
X10030476Y-13102857D01*
X10026667Y-13095238D01*
X10019048Y-13087619D01*
X10007619Y-13083809D01*
X9988571Y-13083809D01*
X10057143Y-13163809D02*
X10102857Y-13163809D01*
X10080000Y-13083809D02*
X10080000Y-13163809D01*
X9914286Y-13203809D02*
X9914286Y-13283809D01*
X9933333Y-13283809D01*
X9944762Y-13280000D01*
X9952381Y-13272381D01*
X9956190Y-13264762D01*
X9960000Y-13249524D01*
X9960000Y-13238095D01*
X9956190Y-13222857D01*
X9952381Y-13215238D01*
X9944762Y-13207619D01*
X9933333Y-13203809D01*
X9914286Y-13203809D01*
X9990476Y-13226667D02*
X10028571Y-13226667D01*
X9982857Y-13203809D02*
X10009524Y-13283809D01*
X10036190Y-13203809D01*
X10051429Y-13283809D02*
X10097143Y-13283809D01*
X10074286Y-13203809D02*
X10074286Y-13283809D01*
X9939048Y-13600000D02*
X9931429Y-13603809D01*
X9920000Y-13603809D01*
X9908571Y-13600000D01*
X9900952Y-13592381D01*
X9897143Y-13584762D01*
X9893333Y-13569524D01*
X9893333Y-13558095D01*
X9897143Y-13542857D01*
X9900952Y-13535238D01*
X9908571Y-13527619D01*
X9920000Y-13523809D01*
X9927619Y-13523809D01*
X9939048Y-13527619D01*
X9942857Y-13531428D01*
X9942857Y-13558095D01*
X9927619Y-13558095D01*
X9977143Y-13523809D02*
X9977143Y-13603809D01*
X10022857Y-13523809D01*
X10022857Y-13603809D01*
X10060952Y-13523809D02*
X10060952Y-13603809D01*
X10080000Y-13603809D01*
X10091429Y-13600000D01*
X10099048Y-13592381D01*
X10102857Y-13584762D01*
X10106667Y-13569524D01*
X10106667Y-13558095D01*
X10102857Y-13542857D01*
X10099048Y-13535238D01*
X10091429Y-13527619D01*
X10080000Y-13523809D01*
X10060952Y-13523809D01*
X9893333Y-13723809D02*
X9920000Y-13643809D01*
X9946667Y-13723809D01*
X10019048Y-13651428D02*
X10015238Y-13647619D01*
X10003810Y-13643809D01*
X9996190Y-13643809D01*
X9984762Y-13647619D01*
X9977143Y-13655238D01*
X9973333Y-13662857D01*
X9969524Y-13678095D01*
X9969524Y-13689524D01*
X9973333Y-13704762D01*
X9977143Y-13712381D01*
X9984762Y-13720000D01*
X9996190Y-13723809D01*
X10003810Y-13723809D01*
X10015238Y-13720000D01*
X10019048Y-13716190D01*
X10099048Y-13651428D02*
X10095238Y-13647619D01*
X10083810Y-13643809D01*
X10076190Y-13643809D01*
X10064762Y-13647619D01*
X10057143Y-13655238D01*
X10053333Y-13662857D01*
X10049524Y-13678095D01*
X10049524Y-13689524D01*
X10053333Y-13704762D01*
X10057143Y-13712381D01*
X10064762Y-13720000D01*
X10076190Y-13723809D01*
X10083810Y-13723809D01*
X10095238Y-13720000D01*
X10099048Y-13716190D01*
X9893333Y-8123809D02*
X9920000Y-8043809D01*
X9946667Y-8123809D01*
X10019048Y-8051428D02*
X10015238Y-8047619D01*
X10003810Y-8043809D01*
X9996190Y-8043809D01*
X9984762Y-8047619D01*
X9977143Y-8055238D01*
X9973333Y-8062857D01*
X9969524Y-8078095D01*
X9969524Y-8089524D01*
X9973333Y-8104762D01*
X9977143Y-8112381D01*
X9984762Y-8120000D01*
X9996190Y-8123809D01*
X10003810Y-8123809D01*
X10015238Y-8120000D01*
X10019048Y-8116190D01*
X10099048Y-8051428D02*
X10095238Y-8047619D01*
X10083810Y-8043809D01*
X10076190Y-8043809D01*
X10064762Y-8047619D01*
X10057143Y-8055238D01*
X10053333Y-8062857D01*
X10049524Y-8078095D01*
X10049524Y-8089524D01*
X10053333Y-8104762D01*
X10057143Y-8112381D01*
X10064762Y-8120000D01*
X10076190Y-8123809D01*
X10083810Y-8123809D01*
X10095238Y-8120000D01*
X10099048Y-8116190D01*
X9939048Y-8000000D02*
X9931429Y-8003809D01*
X9920000Y-8003809D01*
X9908571Y-8000000D01*
X9900952Y-7992381D01*
X9897143Y-7984762D01*
X9893333Y-7969524D01*
X9893333Y-7958095D01*
X9897143Y-7942857D01*
X9900952Y-7935238D01*
X9908571Y-7927619D01*
X9920000Y-7923809D01*
X9927619Y-7923809D01*
X9939048Y-7927619D01*
X9942857Y-7931428D01*
X9942857Y-7958095D01*
X9927619Y-7958095D01*
X9977143Y-7923809D02*
X9977143Y-8003809D01*
X10022857Y-7923809D01*
X10022857Y-8003809D01*
X10060952Y-7923809D02*
X10060952Y-8003809D01*
X10080000Y-8003809D01*
X10091429Y-8000000D01*
X10099048Y-7992381D01*
X10102857Y-7984762D01*
X10106667Y-7969524D01*
X10106667Y-7958095D01*
X10102857Y-7942857D01*
X10099048Y-7935238D01*
X10091429Y-7927619D01*
X10080000Y-7923809D01*
X10060952Y-7923809D01*
X9914286Y-7603809D02*
X9914286Y-7683809D01*
X9933333Y-7683809D01*
X9944762Y-7680000D01*
X9952381Y-7672381D01*
X9956190Y-7664762D01*
X9960000Y-7649524D01*
X9960000Y-7638095D01*
X9956190Y-7622857D01*
X9952381Y-7615238D01*
X9944762Y-7607619D01*
X9933333Y-7603809D01*
X9914286Y-7603809D01*
X9990476Y-7626667D02*
X10028571Y-7626667D01*
X9982857Y-7603809D02*
X10009524Y-7683809D01*
X10036190Y-7603809D01*
X10051429Y-7683809D02*
X10097143Y-7683809D01*
X10074286Y-7603809D02*
X10074286Y-7683809D01*
X9935238Y-7525714D02*
X9946667Y-7521905D01*
X9950476Y-7518095D01*
X9954286Y-7510476D01*
X9954286Y-7499048D01*
X9950476Y-7491428D01*
X9946667Y-7487619D01*
X9939048Y-7483809D01*
X9908571Y-7483809D01*
X9908571Y-7563809D01*
X9935238Y-7563809D01*
X9942857Y-7560000D01*
X9946667Y-7556190D01*
X9950476Y-7548571D01*
X9950476Y-7540952D01*
X9946667Y-7533333D01*
X9942857Y-7529524D01*
X9935238Y-7525714D01*
X9908571Y-7525714D01*
X9988571Y-7483809D02*
X9988571Y-7563809D01*
X10007619Y-7563809D01*
X10019048Y-7560000D01*
X10026667Y-7552381D01*
X10030476Y-7544762D01*
X10034286Y-7529524D01*
X10034286Y-7518095D01*
X10030476Y-7502857D01*
X10026667Y-7495238D01*
X10019048Y-7487619D01*
X10007619Y-7483809D01*
X9988571Y-7483809D01*
X10057143Y-7563809D02*
X10102857Y-7563809D01*
X10080000Y-7483809D02*
X10080000Y-7563809D01*
D11*
X10200000Y-7870000D02*
X10160000Y-7830000D01*
X10160000Y-7830000D02*
X10160000Y-7910000D01*
X10160000Y-7910000D02*
X10200000Y-7870000D01*
D10*
X10170000Y-7840000D02*
X10170000Y-7900000D01*
D12*
X10080000Y-7870000D02*
X10190000Y-7870000D01*
D11*
X10200000Y-7730000D02*
X10160000Y-7690000D01*
D10*
X10170000Y-7760000D02*
X10170000Y-7700000D01*
D11*
X10160000Y-7690000D02*
X10160000Y-7770000D01*
X10160000Y-7770000D02*
X10200000Y-7730000D01*
D12*
X10080000Y-7730000D02*
X10190000Y-7730000D01*
X9790000Y-7730000D02*
X9900000Y-7730000D01*
D11*
X9870000Y-7770000D02*
X9910000Y-7730000D01*
X9870000Y-7690000D02*
X9870000Y-7770000D01*
D10*
X9880000Y-7760000D02*
X9880000Y-7700000D01*
D11*
X9910000Y-7730000D02*
X9870000Y-7690000D01*
X9910000Y-7870000D02*
X9870000Y-7830000D01*
D10*
X9880000Y-7900000D02*
X9880000Y-7840000D01*
D11*
X9870000Y-7830000D02*
X9870000Y-7910000D01*
X9870000Y-7910000D02*
X9910000Y-7870000D01*
D12*
X9790000Y-7870000D02*
X9900000Y-7870000D01*
X9790000Y-8570000D02*
X9900000Y-8570000D01*
D11*
X9870000Y-8610000D02*
X9910000Y-8570000D01*
X9870000Y-8530000D02*
X9870000Y-8610000D01*
D10*
X9880000Y-8600000D02*
X9880000Y-8540000D01*
D11*
X9910000Y-8570000D02*
X9870000Y-8530000D01*
X9910000Y-8430000D02*
X9870000Y-8390000D01*
D10*
X9880000Y-8460000D02*
X9880000Y-8400000D01*
D11*
X9870000Y-8390000D02*
X9870000Y-8470000D01*
X9870000Y-8470000D02*
X9910000Y-8430000D01*
D12*
X9790000Y-8430000D02*
X9900000Y-8430000D01*
X10080000Y-8430000D02*
X10190000Y-8430000D01*
D11*
X10160000Y-8470000D02*
X10200000Y-8430000D01*
X10160000Y-8390000D02*
X10160000Y-8470000D01*
D10*
X10170000Y-8460000D02*
X10170000Y-8400000D01*
D11*
X10200000Y-8430000D02*
X10160000Y-8390000D01*
D12*
X10080000Y-8570000D02*
X10190000Y-8570000D01*
D10*
X10170000Y-8540000D02*
X10170000Y-8600000D01*
D11*
X10160000Y-8610000D02*
X10200000Y-8570000D01*
X10160000Y-8530000D02*
X10160000Y-8610000D01*
X10200000Y-8570000D02*
X10160000Y-8530000D01*
D10*
X9935238Y-8225714D02*
X9946667Y-8221905D01*
X9950476Y-8218095D01*
X9954286Y-8210476D01*
X9954286Y-8199048D01*
X9950476Y-8191428D01*
X9946667Y-8187619D01*
X9939048Y-8183809D01*
X9908571Y-8183809D01*
X9908571Y-8263809D01*
X9935238Y-8263809D01*
X9942857Y-8260000D01*
X9946667Y-8256190D01*
X9950476Y-8248571D01*
X9950476Y-8240952D01*
X9946667Y-8233333D01*
X9942857Y-8229524D01*
X9935238Y-8225714D01*
X9908571Y-8225714D01*
X9988571Y-8183809D02*
X9988571Y-8263809D01*
X10007619Y-8263809D01*
X10019048Y-8260000D01*
X10026667Y-8252381D01*
X10030476Y-8244762D01*
X10034286Y-8229524D01*
X10034286Y-8218095D01*
X10030476Y-8202857D01*
X10026667Y-8195238D01*
X10019048Y-8187619D01*
X10007619Y-8183809D01*
X9988571Y-8183809D01*
X10057143Y-8263809D02*
X10102857Y-8263809D01*
X10080000Y-8183809D02*
X10080000Y-8263809D01*
X9914286Y-8303809D02*
X9914286Y-8383809D01*
X9933333Y-8383809D01*
X9944762Y-8380000D01*
X9952381Y-8372381D01*
X9956190Y-8364762D01*
X9960000Y-8349524D01*
X9960000Y-8338095D01*
X9956190Y-8322857D01*
X9952381Y-8315238D01*
X9944762Y-8307619D01*
X9933333Y-8303809D01*
X9914286Y-8303809D01*
X9990476Y-8326667D02*
X10028571Y-8326667D01*
X9982857Y-8303809D02*
X10009524Y-8383809D01*
X10036190Y-8303809D01*
X10051429Y-8383809D02*
X10097143Y-8383809D01*
X10074286Y-8303809D02*
X10074286Y-8383809D01*
X9939048Y-8700000D02*
X9931429Y-8703810D01*
X9920000Y-8703810D01*
X9908571Y-8700000D01*
X9900952Y-8692381D01*
X9897143Y-8684762D01*
X9893333Y-8669524D01*
X9893333Y-8658095D01*
X9897143Y-8642857D01*
X9900952Y-8635238D01*
X9908571Y-8627619D01*
X9920000Y-8623810D01*
X9927619Y-8623810D01*
X9939048Y-8627619D01*
X9942857Y-8631429D01*
X9942857Y-8658095D01*
X9927619Y-8658095D01*
X9977143Y-8623810D02*
X9977143Y-8703810D01*
X10022857Y-8623810D01*
X10022857Y-8703810D01*
X10060952Y-8623810D02*
X10060952Y-8703810D01*
X10080000Y-8703810D01*
X10091429Y-8700000D01*
X10099048Y-8692381D01*
X10102857Y-8684762D01*
X10106667Y-8669524D01*
X10106667Y-8658095D01*
X10102857Y-8642857D01*
X10099048Y-8635238D01*
X10091429Y-8627619D01*
X10080000Y-8623810D01*
X10060952Y-8623810D01*
X9893333Y-8823810D02*
X9920000Y-8743810D01*
X9946667Y-8823810D01*
X10019048Y-8751429D02*
X10015238Y-8747619D01*
X10003810Y-8743810D01*
X9996190Y-8743810D01*
X9984762Y-8747619D01*
X9977143Y-8755238D01*
X9973333Y-8762857D01*
X9969524Y-8778095D01*
X9969524Y-8789524D01*
X9973333Y-8804762D01*
X9977143Y-8812381D01*
X9984762Y-8820000D01*
X9996190Y-8823810D01*
X10003810Y-8823810D01*
X10015238Y-8820000D01*
X10019048Y-8816190D01*
X10099048Y-8751429D02*
X10095238Y-8747619D01*
X10083810Y-8743810D01*
X10076190Y-8743810D01*
X10064762Y-8747619D01*
X10057143Y-8755238D01*
X10053333Y-8762857D01*
X10049524Y-8778095D01*
X10049524Y-8789524D01*
X10053333Y-8804762D01*
X10057143Y-8812381D01*
X10064762Y-8820000D01*
X10076190Y-8823810D01*
X10083810Y-8823810D01*
X10095238Y-8820000D01*
X10099048Y-8816190D01*
X9893333Y-6723809D02*
X9920000Y-6643809D01*
X9946667Y-6723809D01*
X10019048Y-6651428D02*
X10015238Y-6647619D01*
X10003810Y-6643809D01*
X9996190Y-6643809D01*
X9984762Y-6647619D01*
X9977143Y-6655238D01*
X9973333Y-6662857D01*
X9969524Y-6678095D01*
X9969524Y-6689524D01*
X9973333Y-6704762D01*
X9977143Y-6712381D01*
X9984762Y-6720000D01*
X9996190Y-6723809D01*
X10003810Y-6723809D01*
X10015238Y-6720000D01*
X10019048Y-6716190D01*
X10099048Y-6651428D02*
X10095238Y-6647619D01*
X10083810Y-6643809D01*
X10076190Y-6643809D01*
X10064762Y-6647619D01*
X10057143Y-6655238D01*
X10053333Y-6662857D01*
X10049524Y-6678095D01*
X10049524Y-6689524D01*
X10053333Y-6704762D01*
X10057143Y-6712381D01*
X10064762Y-6720000D01*
X10076190Y-6723809D01*
X10083810Y-6723809D01*
X10095238Y-6720000D01*
X10099048Y-6716190D01*
X9939048Y-6600000D02*
X9931429Y-6603809D01*
X9920000Y-6603809D01*
X9908571Y-6600000D01*
X9900952Y-6592381D01*
X9897143Y-6584762D01*
X9893333Y-6569524D01*
X9893333Y-6558095D01*
X9897143Y-6542857D01*
X9900952Y-6535238D01*
X9908571Y-6527619D01*
X9920000Y-6523809D01*
X9927619Y-6523809D01*
X9939048Y-6527619D01*
X9942857Y-6531428D01*
X9942857Y-6558095D01*
X9927619Y-6558095D01*
X9977143Y-6523809D02*
X9977143Y-6603809D01*
X10022857Y-6523809D01*
X10022857Y-6603809D01*
X10060952Y-6523809D02*
X10060952Y-6603809D01*
X10080000Y-6603809D01*
X10091429Y-6600000D01*
X10099048Y-6592381D01*
X10102857Y-6584762D01*
X10106667Y-6569524D01*
X10106667Y-6558095D01*
X10102857Y-6542857D01*
X10099048Y-6535238D01*
X10091429Y-6527619D01*
X10080000Y-6523809D01*
X10060952Y-6523809D01*
X9914286Y-6203809D02*
X9914286Y-6283809D01*
X9933333Y-6283809D01*
X9944762Y-6280000D01*
X9952381Y-6272381D01*
X9956190Y-6264762D01*
X9960000Y-6249524D01*
X9960000Y-6238095D01*
X9956190Y-6222857D01*
X9952381Y-6215238D01*
X9944762Y-6207619D01*
X9933333Y-6203809D01*
X9914286Y-6203809D01*
X9990476Y-6226667D02*
X10028571Y-6226667D01*
X9982857Y-6203809D02*
X10009524Y-6283809D01*
X10036190Y-6203809D01*
X10051429Y-6283809D02*
X10097143Y-6283809D01*
X10074286Y-6203809D02*
X10074286Y-6283809D01*
X9935238Y-6125714D02*
X9946667Y-6121905D01*
X9950476Y-6118095D01*
X9954286Y-6110476D01*
X9954286Y-6099048D01*
X9950476Y-6091428D01*
X9946667Y-6087619D01*
X9939048Y-6083809D01*
X9908571Y-6083809D01*
X9908571Y-6163809D01*
X9935238Y-6163809D01*
X9942857Y-6160000D01*
X9946667Y-6156190D01*
X9950476Y-6148571D01*
X9950476Y-6140952D01*
X9946667Y-6133333D01*
X9942857Y-6129524D01*
X9935238Y-6125714D01*
X9908571Y-6125714D01*
X9988571Y-6083809D02*
X9988571Y-6163809D01*
X10007619Y-6163809D01*
X10019048Y-6160000D01*
X10026667Y-6152381D01*
X10030476Y-6144762D01*
X10034286Y-6129524D01*
X10034286Y-6118095D01*
X10030476Y-6102857D01*
X10026667Y-6095238D01*
X10019048Y-6087619D01*
X10007619Y-6083809D01*
X9988571Y-6083809D01*
X10057143Y-6163809D02*
X10102857Y-6163809D01*
X10080000Y-6083809D02*
X10080000Y-6163809D01*
D11*
X10200000Y-6470000D02*
X10160000Y-6430000D01*
X10160000Y-6430000D02*
X10160000Y-6510000D01*
X10160000Y-6510000D02*
X10200000Y-6470000D01*
D10*
X10170000Y-6440000D02*
X10170000Y-6500000D01*
D12*
X10080000Y-6470000D02*
X10190000Y-6470000D01*
D11*
X10200000Y-6330000D02*
X10160000Y-6290000D01*
D10*
X10170000Y-6360000D02*
X10170000Y-6300000D01*
D11*
X10160000Y-6290000D02*
X10160000Y-6370000D01*
X10160000Y-6370000D02*
X10200000Y-6330000D01*
D12*
X10080000Y-6330000D02*
X10190000Y-6330000D01*
X9790000Y-6330000D02*
X9900000Y-6330000D01*
D11*
X9870000Y-6370000D02*
X9910000Y-6330000D01*
X9870000Y-6290000D02*
X9870000Y-6370000D01*
D10*
X9880000Y-6360000D02*
X9880000Y-6300000D01*
D11*
X9910000Y-6330000D02*
X9870000Y-6290000D01*
X9910000Y-6470000D02*
X9870000Y-6430000D01*
D10*
X9880000Y-6500000D02*
X9880000Y-6440000D01*
D11*
X9870000Y-6430000D02*
X9870000Y-6510000D01*
X9870000Y-6510000D02*
X9910000Y-6470000D01*
D12*
X9790000Y-6470000D02*
X9900000Y-6470000D01*
X9790000Y-7170000D02*
X9900000Y-7170000D01*
D11*
X9870000Y-7210000D02*
X9910000Y-7170000D01*
X9870000Y-7130000D02*
X9870000Y-7210000D01*
D10*
X9880000Y-7200000D02*
X9880000Y-7140000D01*
D11*
X9910000Y-7170000D02*
X9870000Y-7130000D01*
X9910000Y-7030000D02*
X9870000Y-6990000D01*
D10*
X9880000Y-7060000D02*
X9880000Y-7000000D01*
D11*
X9870000Y-6990000D02*
X9870000Y-7070000D01*
X9870000Y-7070000D02*
X9910000Y-7030000D01*
D12*
X9790000Y-7030000D02*
X9900000Y-7030000D01*
X10080000Y-7030000D02*
X10190000Y-7030000D01*
D11*
X10160000Y-7070000D02*
X10200000Y-7030000D01*
X10160000Y-6990000D02*
X10160000Y-7070000D01*
D10*
X10170000Y-7060000D02*
X10170000Y-7000000D01*
D11*
X10200000Y-7030000D02*
X10160000Y-6990000D01*
D12*
X10080000Y-7170000D02*
X10190000Y-7170000D01*
D10*
X10170000Y-7140000D02*
X10170000Y-7200000D01*
D11*
X10160000Y-7210000D02*
X10200000Y-7170000D01*
X10160000Y-7130000D02*
X10160000Y-7210000D01*
X10200000Y-7170000D02*
X10160000Y-7130000D01*
D10*
X9935238Y-6825714D02*
X9946667Y-6821905D01*
X9950476Y-6818095D01*
X9954286Y-6810476D01*
X9954286Y-6799048D01*
X9950476Y-6791428D01*
X9946667Y-6787619D01*
X9939048Y-6783809D01*
X9908571Y-6783809D01*
X9908571Y-6863809D01*
X9935238Y-6863809D01*
X9942857Y-6860000D01*
X9946667Y-6856190D01*
X9950476Y-6848571D01*
X9950476Y-6840952D01*
X9946667Y-6833333D01*
X9942857Y-6829524D01*
X9935238Y-6825714D01*
X9908571Y-6825714D01*
X9988571Y-6783809D02*
X9988571Y-6863809D01*
X10007619Y-6863809D01*
X10019048Y-6860000D01*
X10026667Y-6852381D01*
X10030476Y-6844762D01*
X10034286Y-6829524D01*
X10034286Y-6818095D01*
X10030476Y-6802857D01*
X10026667Y-6795238D01*
X10019048Y-6787619D01*
X10007619Y-6783809D01*
X9988571Y-6783809D01*
X10057143Y-6863809D02*
X10102857Y-6863809D01*
X10080000Y-6783809D02*
X10080000Y-6863809D01*
X9914286Y-6903809D02*
X9914286Y-6983809D01*
X9933333Y-6983809D01*
X9944762Y-6980000D01*
X9952381Y-6972381D01*
X9956190Y-6964762D01*
X9960000Y-6949524D01*
X9960000Y-6938095D01*
X9956190Y-6922857D01*
X9952381Y-6915238D01*
X9944762Y-6907619D01*
X9933333Y-6903809D01*
X9914286Y-6903809D01*
X9990476Y-6926667D02*
X10028571Y-6926667D01*
X9982857Y-6903809D02*
X10009524Y-6983809D01*
X10036190Y-6903809D01*
X10051429Y-6983809D02*
X10097143Y-6983809D01*
X10074286Y-6903809D02*
X10074286Y-6983809D01*
X9939048Y-7300000D02*
X9931429Y-7303809D01*
X9920000Y-7303809D01*
X9908571Y-7300000D01*
X9900952Y-7292381D01*
X9897143Y-7284762D01*
X9893333Y-7269524D01*
X9893333Y-7258095D01*
X9897143Y-7242857D01*
X9900952Y-7235238D01*
X9908571Y-7227619D01*
X9920000Y-7223809D01*
X9927619Y-7223809D01*
X9939048Y-7227619D01*
X9942857Y-7231428D01*
X9942857Y-7258095D01*
X9927619Y-7258095D01*
X9977143Y-7223809D02*
X9977143Y-7303809D01*
X10022857Y-7223809D01*
X10022857Y-7303809D01*
X10060952Y-7223809D02*
X10060952Y-7303809D01*
X10080000Y-7303809D01*
X10091429Y-7300000D01*
X10099048Y-7292381D01*
X10102857Y-7284762D01*
X10106667Y-7269524D01*
X10106667Y-7258095D01*
X10102857Y-7242857D01*
X10099048Y-7235238D01*
X10091429Y-7227619D01*
X10080000Y-7223809D01*
X10060952Y-7223809D01*
X9893333Y-7423809D02*
X9920000Y-7343809D01*
X9946667Y-7423809D01*
X10019048Y-7351428D02*
X10015238Y-7347619D01*
X10003810Y-7343809D01*
X9996190Y-7343809D01*
X9984762Y-7347619D01*
X9977143Y-7355238D01*
X9973333Y-7362857D01*
X9969524Y-7378095D01*
X9969524Y-7389524D01*
X9973333Y-7404762D01*
X9977143Y-7412381D01*
X9984762Y-7420000D01*
X9996190Y-7423809D01*
X10003810Y-7423809D01*
X10015238Y-7420000D01*
X10019048Y-7416190D01*
X10099048Y-7351428D02*
X10095238Y-7347619D01*
X10083810Y-7343809D01*
X10076190Y-7343809D01*
X10064762Y-7347619D01*
X10057143Y-7355238D01*
X10053333Y-7362857D01*
X10049524Y-7378095D01*
X10049524Y-7389524D01*
X10053333Y-7404762D01*
X10057143Y-7412381D01*
X10064762Y-7420000D01*
X10076190Y-7423809D01*
X10083810Y-7423809D01*
X10095238Y-7420000D01*
X10099048Y-7416190D01*
X9893333Y-6023809D02*
X9920000Y-5943809D01*
X9946667Y-6023809D01*
X10019048Y-5951428D02*
X10015238Y-5947619D01*
X10003810Y-5943809D01*
X9996190Y-5943809D01*
X9984762Y-5947619D01*
X9977143Y-5955238D01*
X9973333Y-5962857D01*
X9969524Y-5978095D01*
X9969524Y-5989524D01*
X9973333Y-6004762D01*
X9977143Y-6012381D01*
X9984762Y-6020000D01*
X9996190Y-6023809D01*
X10003810Y-6023809D01*
X10015238Y-6020000D01*
X10019048Y-6016190D01*
X10099048Y-5951428D02*
X10095238Y-5947619D01*
X10083810Y-5943809D01*
X10076190Y-5943809D01*
X10064762Y-5947619D01*
X10057143Y-5955238D01*
X10053333Y-5962857D01*
X10049524Y-5978095D01*
X10049524Y-5989524D01*
X10053333Y-6004762D01*
X10057143Y-6012381D01*
X10064762Y-6020000D01*
X10076190Y-6023809D01*
X10083810Y-6023809D01*
X10095238Y-6020000D01*
X10099048Y-6016190D01*
X9939048Y-5900000D02*
X9931429Y-5903809D01*
X9920000Y-5903809D01*
X9908571Y-5900000D01*
X9900952Y-5892381D01*
X9897143Y-5884762D01*
X9893333Y-5869524D01*
X9893333Y-5858095D01*
X9897143Y-5842857D01*
X9900952Y-5835238D01*
X9908571Y-5827619D01*
X9920000Y-5823809D01*
X9927619Y-5823809D01*
X9939048Y-5827619D01*
X9942857Y-5831428D01*
X9942857Y-5858095D01*
X9927619Y-5858095D01*
X9977143Y-5823809D02*
X9977143Y-5903809D01*
X10022857Y-5823809D01*
X10022857Y-5903809D01*
X10060952Y-5823809D02*
X10060952Y-5903809D01*
X10080000Y-5903809D01*
X10091429Y-5900000D01*
X10099048Y-5892381D01*
X10102857Y-5884762D01*
X10106667Y-5869524D01*
X10106667Y-5858095D01*
X10102857Y-5842857D01*
X10099048Y-5835238D01*
X10091429Y-5827619D01*
X10080000Y-5823809D01*
X10060952Y-5823809D01*
X9914286Y-5503810D02*
X9914286Y-5583810D01*
X9933333Y-5583810D01*
X9944762Y-5580000D01*
X9952381Y-5572381D01*
X9956190Y-5564762D01*
X9960000Y-5549524D01*
X9960000Y-5538095D01*
X9956190Y-5522857D01*
X9952381Y-5515238D01*
X9944762Y-5507619D01*
X9933333Y-5503810D01*
X9914286Y-5503810D01*
X9990476Y-5526667D02*
X10028571Y-5526667D01*
X9982857Y-5503810D02*
X10009524Y-5583810D01*
X10036190Y-5503810D01*
X10051429Y-5583810D02*
X10097143Y-5583810D01*
X10074286Y-5503810D02*
X10074286Y-5583810D01*
X9935238Y-5425714D02*
X9946667Y-5421905D01*
X9950476Y-5418095D01*
X9954286Y-5410476D01*
X9954286Y-5399048D01*
X9950476Y-5391429D01*
X9946667Y-5387619D01*
X9939048Y-5383810D01*
X9908571Y-5383810D01*
X9908571Y-5463810D01*
X9935238Y-5463810D01*
X9942857Y-5460000D01*
X9946667Y-5456190D01*
X9950476Y-5448571D01*
X9950476Y-5440952D01*
X9946667Y-5433333D01*
X9942857Y-5429524D01*
X9935238Y-5425714D01*
X9908571Y-5425714D01*
X9988571Y-5383810D02*
X9988571Y-5463810D01*
X10007619Y-5463810D01*
X10019048Y-5460000D01*
X10026667Y-5452381D01*
X10030476Y-5444762D01*
X10034286Y-5429524D01*
X10034286Y-5418095D01*
X10030476Y-5402857D01*
X10026667Y-5395238D01*
X10019048Y-5387619D01*
X10007619Y-5383810D01*
X9988571Y-5383810D01*
X10057143Y-5463810D02*
X10102857Y-5463810D01*
X10080000Y-5383810D02*
X10080000Y-5463810D01*
D11*
X10200000Y-5770000D02*
X10160000Y-5730000D01*
X10160000Y-5730000D02*
X10160000Y-5810000D01*
X10160000Y-5810000D02*
X10200000Y-5770000D01*
D10*
X10170000Y-5740000D02*
X10170000Y-5800000D01*
D12*
X10080000Y-5770000D02*
X10190000Y-5770000D01*
D11*
X10200000Y-5630000D02*
X10160000Y-5590000D01*
D10*
X10170000Y-5660000D02*
X10170000Y-5600000D01*
D11*
X10160000Y-5590000D02*
X10160000Y-5670000D01*
X10160000Y-5670000D02*
X10200000Y-5630000D01*
D12*
X10080000Y-5630000D02*
X10190000Y-5630000D01*
X9790000Y-5630000D02*
X9900000Y-5630000D01*
D11*
X9870000Y-5670000D02*
X9910000Y-5630000D01*
X9870000Y-5590000D02*
X9870000Y-5670000D01*
D10*
X9880000Y-5660000D02*
X9880000Y-5600000D01*
D11*
X9910000Y-5630000D02*
X9870000Y-5590000D01*
X9910000Y-5770000D02*
X9870000Y-5730000D01*
D10*
X9880000Y-5800000D02*
X9880000Y-5740000D01*
D11*
X9870000Y-5730000D02*
X9870000Y-5810000D01*
X9870000Y-5810000D02*
X9910000Y-5770000D01*
D12*
X9790000Y-5770000D02*
X9900000Y-5770000D01*
X9790000Y-5070000D02*
X9900000Y-5070000D01*
D11*
X9870000Y-5110000D02*
X9910000Y-5070000D01*
X9870000Y-5030000D02*
X9870000Y-5110000D01*
D10*
X9880000Y-5100000D02*
X9880000Y-5040000D01*
D11*
X9910000Y-5070000D02*
X9870000Y-5030000D01*
X9910000Y-4930000D02*
X9870000Y-4890000D01*
D10*
X9880000Y-4960000D02*
X9880000Y-4900000D01*
D11*
X9870000Y-4890000D02*
X9870000Y-4970000D01*
X9870000Y-4970000D02*
X9910000Y-4930000D01*
D12*
X9790000Y-4930000D02*
X9900000Y-4930000D01*
X10080000Y-4930000D02*
X10190000Y-4930000D01*
D11*
X10160000Y-4970000D02*
X10200000Y-4930000D01*
X10160000Y-4890000D02*
X10160000Y-4970000D01*
D10*
X10170000Y-4960000D02*
X10170000Y-4900000D01*
D11*
X10200000Y-4930000D02*
X10160000Y-4890000D01*
D12*
X10080000Y-5070000D02*
X10190000Y-5070000D01*
D10*
X10170000Y-5040000D02*
X10170000Y-5100000D01*
D11*
X10160000Y-5110000D02*
X10200000Y-5070000D01*
X10160000Y-5030000D02*
X10160000Y-5110000D01*
X10200000Y-5070000D02*
X10160000Y-5030000D01*
D10*
X9935238Y-4725714D02*
X9946667Y-4721905D01*
X9950476Y-4718095D01*
X9954286Y-4710476D01*
X9954286Y-4699048D01*
X9950476Y-4691429D01*
X9946667Y-4687619D01*
X9939048Y-4683810D01*
X9908571Y-4683810D01*
X9908571Y-4763810D01*
X9935238Y-4763810D01*
X9942857Y-4760000D01*
X9946667Y-4756190D01*
X9950476Y-4748571D01*
X9950476Y-4740952D01*
X9946667Y-4733333D01*
X9942857Y-4729524D01*
X9935238Y-4725714D01*
X9908571Y-4725714D01*
X9988571Y-4683810D02*
X9988571Y-4763810D01*
X10007619Y-4763810D01*
X10019048Y-4760000D01*
X10026667Y-4752381D01*
X10030476Y-4744762D01*
X10034286Y-4729524D01*
X10034286Y-4718095D01*
X10030476Y-4702857D01*
X10026667Y-4695238D01*
X10019048Y-4687619D01*
X10007619Y-4683810D01*
X9988571Y-4683810D01*
X10057143Y-4763810D02*
X10102857Y-4763810D01*
X10080000Y-4683810D02*
X10080000Y-4763810D01*
X9914286Y-4803810D02*
X9914286Y-4883810D01*
X9933333Y-4883810D01*
X9944762Y-4880000D01*
X9952381Y-4872381D01*
X9956190Y-4864762D01*
X9960000Y-4849524D01*
X9960000Y-4838095D01*
X9956190Y-4822857D01*
X9952381Y-4815238D01*
X9944762Y-4807619D01*
X9933333Y-4803810D01*
X9914286Y-4803810D01*
X9990476Y-4826667D02*
X10028571Y-4826667D01*
X9982857Y-4803810D02*
X10009524Y-4883810D01*
X10036190Y-4803810D01*
X10051429Y-4883810D02*
X10097143Y-4883810D01*
X10074286Y-4803810D02*
X10074286Y-4883810D01*
X9939048Y-5200000D02*
X9931429Y-5203810D01*
X9920000Y-5203810D01*
X9908571Y-5200000D01*
X9900952Y-5192381D01*
X9897143Y-5184762D01*
X9893333Y-5169524D01*
X9893333Y-5158095D01*
X9897143Y-5142857D01*
X9900952Y-5135238D01*
X9908571Y-5127619D01*
X9920000Y-5123810D01*
X9927619Y-5123810D01*
X9939048Y-5127619D01*
X9942857Y-5131429D01*
X9942857Y-5158095D01*
X9927619Y-5158095D01*
X9977143Y-5123810D02*
X9977143Y-5203810D01*
X10022857Y-5123810D01*
X10022857Y-5203810D01*
X10060952Y-5123810D02*
X10060952Y-5203810D01*
X10080000Y-5203810D01*
X10091429Y-5200000D01*
X10099048Y-5192381D01*
X10102857Y-5184762D01*
X10106667Y-5169524D01*
X10106667Y-5158095D01*
X10102857Y-5142857D01*
X10099048Y-5135238D01*
X10091429Y-5127619D01*
X10080000Y-5123810D01*
X10060952Y-5123810D01*
X9893333Y-5323810D02*
X9920000Y-5243810D01*
X9946667Y-5323810D01*
X10019048Y-5251429D02*
X10015238Y-5247619D01*
X10003810Y-5243810D01*
X9996190Y-5243810D01*
X9984762Y-5247619D01*
X9977143Y-5255238D01*
X9973333Y-5262857D01*
X9969524Y-5278095D01*
X9969524Y-5289524D01*
X9973333Y-5304762D01*
X9977143Y-5312381D01*
X9984762Y-5320000D01*
X9996190Y-5323810D01*
X10003810Y-5323810D01*
X10015238Y-5320000D01*
X10019048Y-5316190D01*
X10099048Y-5251429D02*
X10095238Y-5247619D01*
X10083810Y-5243810D01*
X10076190Y-5243810D01*
X10064762Y-5247619D01*
X10057143Y-5255238D01*
X10053333Y-5262857D01*
X10049524Y-5278095D01*
X10049524Y-5289524D01*
X10053333Y-5304762D01*
X10057143Y-5312381D01*
X10064762Y-5320000D01*
X10076190Y-5323810D01*
X10083810Y-5323810D01*
X10095238Y-5320000D01*
X10099048Y-5316190D01*
M02*
