G04 #@! TF.GenerationSoftware,KiCad,Pcbnew,(5.0.0-rc2-dev-596-gcfd2f1d00)*
G04 #@! TF.CreationDate,2019-01-30T17:14:36+02:00*
G04 #@! TF.ProjectId,WS2813_single_side_conn,5753323831335F73696E676C655F7369,rev?*
G04 #@! TF.SameCoordinates,Original*
G04 #@! TF.FileFunction,Soldermask,Top*
G04 #@! TF.FilePolarity,Negative*
%FSLAX45Y45*%
G04 Gerber Fmt 4.5, Leading zero omitted, Abs format (unit mm)*
G04 Created by KiCad (PCBNEW (5.0.0-rc2-dev-596-gcfd2f1d00)) date 01/30/19 17:14:36*
%MOMM*%
%LPD*%
G01*
G04 APERTURE LIST*
%ADD10C,0.150000*%
%ADD11C,0.600000*%
%ADD12R,0.950000X1.600000*%
%ADD13O,2.000000X1.500000*%
%ADD14R,2.000000X1.500000*%
%ADD15C,2.200000*%
G04 APERTURE END LIST*
D10*
G36*
X9557941Y-4840145D02*
X9560853Y-4840576D01*
X9563709Y-4841292D01*
X9566481Y-4842284D01*
X9569142Y-4843542D01*
X9571667Y-4845056D01*
X9574032Y-4846810D01*
X9576213Y-4848787D01*
X9578190Y-4850968D01*
X9579944Y-4853333D01*
X9581458Y-4855858D01*
X9582717Y-4858520D01*
X9583708Y-4861292D01*
X9584424Y-4864147D01*
X9584856Y-4867060D01*
X9585000Y-4870000D01*
X9585000Y-4970000D01*
X9584856Y-4972941D01*
X9584424Y-4975853D01*
X9583708Y-4978709D01*
X9582717Y-4981481D01*
X9581458Y-4984142D01*
X9579944Y-4986667D01*
X9578190Y-4989032D01*
X9576213Y-4991213D01*
X9574032Y-4993190D01*
X9571667Y-4994944D01*
X9569142Y-4996458D01*
X9566481Y-4997716D01*
X9563709Y-4998708D01*
X9560853Y-4999424D01*
X9557941Y-4999856D01*
X9555000Y-5000000D01*
X9555000Y-5000000D01*
X9552059Y-4999856D01*
X9549147Y-4999424D01*
X9546291Y-4998708D01*
X9543519Y-4997716D01*
X9540858Y-4996458D01*
X9538333Y-4994944D01*
X9535968Y-4993190D01*
X9533787Y-4991213D01*
X9531810Y-4989032D01*
X9530056Y-4986667D01*
X9528542Y-4984142D01*
X9527284Y-4981481D01*
X9526292Y-4978709D01*
X9525576Y-4975853D01*
X9525144Y-4972941D01*
X9525000Y-4970000D01*
X9525000Y-4870000D01*
X9525144Y-4867060D01*
X9525576Y-4864147D01*
X9526292Y-4861292D01*
X9527284Y-4858520D01*
X9528542Y-4855858D01*
X9530056Y-4853333D01*
X9531810Y-4850968D01*
X9533787Y-4848787D01*
X9535968Y-4846810D01*
X9538333Y-4845056D01*
X9540858Y-4843542D01*
X9543519Y-4842284D01*
X9546291Y-4841292D01*
X9549147Y-4840576D01*
X9552059Y-4840145D01*
X9555000Y-4840000D01*
X9555000Y-4840000D01*
X9557941Y-4840145D01*
X9557941Y-4840145D01*
G37*
D11*
X9555000Y-4920000D03*
D12*
X9527500Y-4920000D03*
X9527500Y-4760000D03*
D10*
G36*
X9557941Y-4680145D02*
X9560853Y-4680576D01*
X9563709Y-4681292D01*
X9566481Y-4682284D01*
X9569142Y-4683542D01*
X9571667Y-4685056D01*
X9574032Y-4686810D01*
X9576213Y-4688787D01*
X9578190Y-4690968D01*
X9579944Y-4693333D01*
X9581458Y-4695858D01*
X9582717Y-4698520D01*
X9583708Y-4701292D01*
X9584424Y-4704147D01*
X9584856Y-4707060D01*
X9585000Y-4710000D01*
X9585000Y-4810000D01*
X9584856Y-4812941D01*
X9584424Y-4815853D01*
X9583708Y-4818709D01*
X9582717Y-4821481D01*
X9581458Y-4824142D01*
X9579944Y-4826667D01*
X9578190Y-4829032D01*
X9576213Y-4831213D01*
X9574032Y-4833190D01*
X9571667Y-4834944D01*
X9569142Y-4836458D01*
X9566481Y-4837716D01*
X9563709Y-4838708D01*
X9560853Y-4839424D01*
X9557941Y-4839856D01*
X9555000Y-4840000D01*
X9555000Y-4840000D01*
X9552059Y-4839856D01*
X9549147Y-4839424D01*
X9546291Y-4838708D01*
X9543519Y-4837716D01*
X9540858Y-4836458D01*
X9538333Y-4834944D01*
X9535968Y-4833190D01*
X9533787Y-4831213D01*
X9531810Y-4829032D01*
X9530056Y-4826667D01*
X9528542Y-4824142D01*
X9527284Y-4821481D01*
X9526292Y-4818709D01*
X9525576Y-4815853D01*
X9525144Y-4812941D01*
X9525000Y-4810000D01*
X9525000Y-4710000D01*
X9525144Y-4707060D01*
X9525576Y-4704147D01*
X9526292Y-4701292D01*
X9527284Y-4698520D01*
X9528542Y-4695858D01*
X9530056Y-4693333D01*
X9531810Y-4690968D01*
X9533787Y-4688787D01*
X9535968Y-4686810D01*
X9538333Y-4685056D01*
X9540858Y-4683542D01*
X9543519Y-4682284D01*
X9546291Y-4681292D01*
X9549147Y-4680576D01*
X9552059Y-4680145D01*
X9555000Y-4680000D01*
X9555000Y-4680000D01*
X9557941Y-4680145D01*
X9557941Y-4680145D01*
G37*
D11*
X9555000Y-4760000D03*
D10*
G36*
X9557941Y-5000145D02*
X9560853Y-5000576D01*
X9563709Y-5001292D01*
X9566481Y-5002284D01*
X9569142Y-5003542D01*
X9571667Y-5005056D01*
X9574032Y-5006810D01*
X9576213Y-5008787D01*
X9578190Y-5010968D01*
X9579944Y-5013333D01*
X9581458Y-5015858D01*
X9582717Y-5018520D01*
X9583708Y-5021292D01*
X9584424Y-5024147D01*
X9584856Y-5027060D01*
X9585000Y-5030000D01*
X9585000Y-5130000D01*
X9584856Y-5132941D01*
X9584424Y-5135853D01*
X9583708Y-5138709D01*
X9582717Y-5141481D01*
X9581458Y-5144142D01*
X9579944Y-5146667D01*
X9578190Y-5149032D01*
X9576213Y-5151213D01*
X9574032Y-5153190D01*
X9571667Y-5154944D01*
X9569142Y-5156458D01*
X9566481Y-5157716D01*
X9563709Y-5158708D01*
X9560853Y-5159424D01*
X9557941Y-5159856D01*
X9555000Y-5160000D01*
X9555000Y-5160000D01*
X9552059Y-5159856D01*
X9549147Y-5159424D01*
X9546291Y-5158708D01*
X9543519Y-5157716D01*
X9540858Y-5156458D01*
X9538333Y-5154944D01*
X9535968Y-5153190D01*
X9533787Y-5151213D01*
X9531810Y-5149032D01*
X9530056Y-5146667D01*
X9528542Y-5144142D01*
X9527284Y-5141481D01*
X9526292Y-5138709D01*
X9525576Y-5135853D01*
X9525144Y-5132941D01*
X9525000Y-5130000D01*
X9525000Y-5030000D01*
X9525144Y-5027060D01*
X9525576Y-5024147D01*
X9526292Y-5021292D01*
X9527284Y-5018520D01*
X9528542Y-5015858D01*
X9530056Y-5013333D01*
X9531810Y-5010968D01*
X9533787Y-5008787D01*
X9535968Y-5006810D01*
X9538333Y-5005056D01*
X9540858Y-5003542D01*
X9543519Y-5002284D01*
X9546291Y-5001292D01*
X9549147Y-5000576D01*
X9552059Y-5000145D01*
X9555000Y-5000000D01*
X9555000Y-5000000D01*
X9557941Y-5000145D01*
X9557941Y-5000145D01*
G37*
D11*
X9555000Y-5080000D03*
D12*
X9527500Y-5080000D03*
X9527500Y-5240000D03*
D10*
G36*
X9557941Y-5160145D02*
X9560853Y-5160576D01*
X9563709Y-5161292D01*
X9566481Y-5162284D01*
X9569142Y-5163542D01*
X9571667Y-5165056D01*
X9574032Y-5166810D01*
X9576213Y-5168787D01*
X9578190Y-5170968D01*
X9579944Y-5173333D01*
X9581458Y-5175858D01*
X9582717Y-5178520D01*
X9583708Y-5181292D01*
X9584424Y-5184147D01*
X9584856Y-5187060D01*
X9585000Y-5190000D01*
X9585000Y-5290000D01*
X9584856Y-5292941D01*
X9584424Y-5295853D01*
X9583708Y-5298709D01*
X9582717Y-5301481D01*
X9581458Y-5304142D01*
X9579944Y-5306667D01*
X9578190Y-5309032D01*
X9576213Y-5311213D01*
X9574032Y-5313190D01*
X9571667Y-5314944D01*
X9569142Y-5316458D01*
X9566481Y-5317716D01*
X9563709Y-5318708D01*
X9560853Y-5319424D01*
X9557941Y-5319856D01*
X9555000Y-5320000D01*
X9555000Y-5320000D01*
X9552059Y-5319856D01*
X9549147Y-5319424D01*
X9546291Y-5318708D01*
X9543519Y-5317716D01*
X9540858Y-5316458D01*
X9538333Y-5314944D01*
X9535968Y-5313190D01*
X9533787Y-5311213D01*
X9531810Y-5309032D01*
X9530056Y-5306667D01*
X9528542Y-5304142D01*
X9527284Y-5301481D01*
X9526292Y-5298709D01*
X9525576Y-5295853D01*
X9525144Y-5292941D01*
X9525000Y-5290000D01*
X9525000Y-5190000D01*
X9525144Y-5187060D01*
X9525576Y-5184147D01*
X9526292Y-5181292D01*
X9527284Y-5178520D01*
X9528542Y-5175858D01*
X9530056Y-5173333D01*
X9531810Y-5170968D01*
X9533787Y-5168787D01*
X9535968Y-5166810D01*
X9538333Y-5165056D01*
X9540858Y-5163542D01*
X9543519Y-5162284D01*
X9546291Y-5161292D01*
X9549147Y-5160576D01*
X9552059Y-5160145D01*
X9555000Y-5160000D01*
X9555000Y-5160000D01*
X9557941Y-5160145D01*
X9557941Y-5160145D01*
G37*
D11*
X9555000Y-5240000D03*
D10*
G36*
X10447941Y-4840145D02*
X10450853Y-4840576D01*
X10453709Y-4841292D01*
X10456481Y-4842284D01*
X10459142Y-4843542D01*
X10461667Y-4845056D01*
X10464032Y-4846810D01*
X10466213Y-4848787D01*
X10468190Y-4850968D01*
X10469944Y-4853333D01*
X10471458Y-4855858D01*
X10472717Y-4858520D01*
X10473708Y-4861292D01*
X10474424Y-4864147D01*
X10474856Y-4867060D01*
X10475000Y-4870000D01*
X10475000Y-4970000D01*
X10474856Y-4972941D01*
X10474424Y-4975853D01*
X10473708Y-4978709D01*
X10472717Y-4981481D01*
X10471458Y-4984142D01*
X10469944Y-4986667D01*
X10468190Y-4989032D01*
X10466213Y-4991213D01*
X10464032Y-4993190D01*
X10461667Y-4994944D01*
X10459142Y-4996458D01*
X10456481Y-4997716D01*
X10453709Y-4998708D01*
X10450853Y-4999424D01*
X10447941Y-4999856D01*
X10445000Y-5000000D01*
X10445000Y-5000000D01*
X10442059Y-4999856D01*
X10439147Y-4999424D01*
X10436291Y-4998708D01*
X10433519Y-4997716D01*
X10430858Y-4996458D01*
X10428333Y-4994944D01*
X10425968Y-4993190D01*
X10423787Y-4991213D01*
X10421810Y-4989032D01*
X10420056Y-4986667D01*
X10418542Y-4984142D01*
X10417284Y-4981481D01*
X10416292Y-4978709D01*
X10415576Y-4975853D01*
X10415144Y-4972941D01*
X10415000Y-4970000D01*
X10415000Y-4870000D01*
X10415144Y-4867060D01*
X10415576Y-4864147D01*
X10416292Y-4861292D01*
X10417284Y-4858520D01*
X10418542Y-4855858D01*
X10420056Y-4853333D01*
X10421810Y-4850968D01*
X10423787Y-4848787D01*
X10425968Y-4846810D01*
X10428333Y-4845056D01*
X10430858Y-4843542D01*
X10433519Y-4842284D01*
X10436291Y-4841292D01*
X10439147Y-4840576D01*
X10442059Y-4840145D01*
X10445000Y-4840000D01*
X10445000Y-4840000D01*
X10447941Y-4840145D01*
X10447941Y-4840145D01*
G37*
D11*
X10445000Y-4920000D03*
D12*
X10472500Y-4920000D03*
X10472500Y-4760000D03*
D10*
G36*
X10447941Y-4680145D02*
X10450853Y-4680576D01*
X10453709Y-4681292D01*
X10456481Y-4682284D01*
X10459142Y-4683542D01*
X10461667Y-4685056D01*
X10464032Y-4686810D01*
X10466213Y-4688787D01*
X10468190Y-4690968D01*
X10469944Y-4693333D01*
X10471458Y-4695858D01*
X10472717Y-4698520D01*
X10473708Y-4701292D01*
X10474424Y-4704147D01*
X10474856Y-4707060D01*
X10475000Y-4710000D01*
X10475000Y-4810000D01*
X10474856Y-4812941D01*
X10474424Y-4815853D01*
X10473708Y-4818709D01*
X10472717Y-4821481D01*
X10471458Y-4824142D01*
X10469944Y-4826667D01*
X10468190Y-4829032D01*
X10466213Y-4831213D01*
X10464032Y-4833190D01*
X10461667Y-4834944D01*
X10459142Y-4836458D01*
X10456481Y-4837716D01*
X10453709Y-4838708D01*
X10450853Y-4839424D01*
X10447941Y-4839856D01*
X10445000Y-4840000D01*
X10445000Y-4840000D01*
X10442059Y-4839856D01*
X10439147Y-4839424D01*
X10436291Y-4838708D01*
X10433519Y-4837716D01*
X10430858Y-4836458D01*
X10428333Y-4834944D01*
X10425968Y-4833190D01*
X10423787Y-4831213D01*
X10421810Y-4829032D01*
X10420056Y-4826667D01*
X10418542Y-4824142D01*
X10417284Y-4821481D01*
X10416292Y-4818709D01*
X10415576Y-4815853D01*
X10415144Y-4812941D01*
X10415000Y-4810000D01*
X10415000Y-4710000D01*
X10415144Y-4707060D01*
X10415576Y-4704147D01*
X10416292Y-4701292D01*
X10417284Y-4698520D01*
X10418542Y-4695858D01*
X10420056Y-4693333D01*
X10421810Y-4690968D01*
X10423787Y-4688787D01*
X10425968Y-4686810D01*
X10428333Y-4685056D01*
X10430858Y-4683542D01*
X10433519Y-4682284D01*
X10436291Y-4681292D01*
X10439147Y-4680576D01*
X10442059Y-4680145D01*
X10445000Y-4680000D01*
X10445000Y-4680000D01*
X10447941Y-4680145D01*
X10447941Y-4680145D01*
G37*
D11*
X10445000Y-4760000D03*
D10*
G36*
X10447941Y-5000145D02*
X10450853Y-5000576D01*
X10453709Y-5001292D01*
X10456481Y-5002284D01*
X10459142Y-5003542D01*
X10461667Y-5005056D01*
X10464032Y-5006810D01*
X10466213Y-5008787D01*
X10468190Y-5010968D01*
X10469944Y-5013333D01*
X10471458Y-5015858D01*
X10472717Y-5018520D01*
X10473708Y-5021292D01*
X10474424Y-5024147D01*
X10474856Y-5027060D01*
X10475000Y-5030000D01*
X10475000Y-5130000D01*
X10474856Y-5132941D01*
X10474424Y-5135853D01*
X10473708Y-5138709D01*
X10472717Y-5141481D01*
X10471458Y-5144142D01*
X10469944Y-5146667D01*
X10468190Y-5149032D01*
X10466213Y-5151213D01*
X10464032Y-5153190D01*
X10461667Y-5154944D01*
X10459142Y-5156458D01*
X10456481Y-5157716D01*
X10453709Y-5158708D01*
X10450853Y-5159424D01*
X10447941Y-5159856D01*
X10445000Y-5160000D01*
X10445000Y-5160000D01*
X10442059Y-5159856D01*
X10439147Y-5159424D01*
X10436291Y-5158708D01*
X10433519Y-5157716D01*
X10430858Y-5156458D01*
X10428333Y-5154944D01*
X10425968Y-5153190D01*
X10423787Y-5151213D01*
X10421810Y-5149032D01*
X10420056Y-5146667D01*
X10418542Y-5144142D01*
X10417284Y-5141481D01*
X10416292Y-5138709D01*
X10415576Y-5135853D01*
X10415144Y-5132941D01*
X10415000Y-5130000D01*
X10415000Y-5030000D01*
X10415144Y-5027060D01*
X10415576Y-5024147D01*
X10416292Y-5021292D01*
X10417284Y-5018520D01*
X10418542Y-5015858D01*
X10420056Y-5013333D01*
X10421810Y-5010968D01*
X10423787Y-5008787D01*
X10425968Y-5006810D01*
X10428333Y-5005056D01*
X10430858Y-5003542D01*
X10433519Y-5002284D01*
X10436291Y-5001292D01*
X10439147Y-5000576D01*
X10442059Y-5000145D01*
X10445000Y-5000000D01*
X10445000Y-5000000D01*
X10447941Y-5000145D01*
X10447941Y-5000145D01*
G37*
D11*
X10445000Y-5080000D03*
D12*
X10472500Y-5080000D03*
X10472500Y-5240000D03*
D10*
G36*
X10447941Y-5160145D02*
X10450853Y-5160576D01*
X10453709Y-5161292D01*
X10456481Y-5162284D01*
X10459142Y-5163542D01*
X10461667Y-5165056D01*
X10464032Y-5166810D01*
X10466213Y-5168787D01*
X10468190Y-5170968D01*
X10469944Y-5173333D01*
X10471458Y-5175858D01*
X10472717Y-5178520D01*
X10473708Y-5181292D01*
X10474424Y-5184147D01*
X10474856Y-5187060D01*
X10475000Y-5190000D01*
X10475000Y-5290000D01*
X10474856Y-5292941D01*
X10474424Y-5295853D01*
X10473708Y-5298709D01*
X10472717Y-5301481D01*
X10471458Y-5304142D01*
X10469944Y-5306667D01*
X10468190Y-5309032D01*
X10466213Y-5311213D01*
X10464032Y-5313190D01*
X10461667Y-5314944D01*
X10459142Y-5316458D01*
X10456481Y-5317716D01*
X10453709Y-5318708D01*
X10450853Y-5319424D01*
X10447941Y-5319856D01*
X10445000Y-5320000D01*
X10445000Y-5320000D01*
X10442059Y-5319856D01*
X10439147Y-5319424D01*
X10436291Y-5318708D01*
X10433519Y-5317716D01*
X10430858Y-5316458D01*
X10428333Y-5314944D01*
X10425968Y-5313190D01*
X10423787Y-5311213D01*
X10421810Y-5309032D01*
X10420056Y-5306667D01*
X10418542Y-5304142D01*
X10417284Y-5301481D01*
X10416292Y-5298709D01*
X10415576Y-5295853D01*
X10415144Y-5292941D01*
X10415000Y-5290000D01*
X10415000Y-5190000D01*
X10415144Y-5187060D01*
X10415576Y-5184147D01*
X10416292Y-5181292D01*
X10417284Y-5178520D01*
X10418542Y-5175858D01*
X10420056Y-5173333D01*
X10421810Y-5170968D01*
X10423787Y-5168787D01*
X10425968Y-5166810D01*
X10428333Y-5165056D01*
X10430858Y-5163542D01*
X10433519Y-5162284D01*
X10436291Y-5161292D01*
X10439147Y-5160576D01*
X10442059Y-5160145D01*
X10445000Y-5160000D01*
X10445000Y-5160000D01*
X10447941Y-5160145D01*
X10447941Y-5160145D01*
G37*
D11*
X10445000Y-5240000D03*
D13*
X10250000Y-4840000D03*
X9750000Y-5160000D03*
X9750000Y-4840000D03*
D14*
X10250000Y-5160000D03*
D13*
X10250000Y-5000000D03*
X9750000Y-5000000D03*
D15*
X10000000Y-5000000D03*
M02*
