G04 #@! TF.GenerationSoftware,KiCad,Pcbnew,(5.0.0-rc2-dev-596-gcfd2f1d00)*
G04 #@! TF.CreationDate,2019-02-28T14:34:01+02:00*
G04 #@! TF.ProjectId,WS2813_single_side_conn_small,5753323831335F73696E676C655F7369,rev?*
G04 #@! TF.SameCoordinates,Original*
G04 #@! TF.FileFunction,Legend,Bot*
G04 #@! TF.FilePolarity,Positive*
%FSLAX45Y45*%
G04 Gerber Fmt 4.5, Leading zero omitted, Abs format (unit mm)*
G04 Created by KiCad (PCBNEW (5.0.0-rc2-dev-596-gcfd2f1d00)) date 02/28/19 14:34:01*
%MOMM*%
%LPD*%
G01*
G04 APERTURE LIST*
%ADD10C,0.250000*%
%ADD11C,0.200000*%
%ADD12C,0.150000*%
G04 APERTURE END LIST*
D10*
X10070000Y-4590000D02*
X9920000Y-4590000D01*
D11*
X10080000Y-4590000D02*
X10040000Y-4550000D01*
D12*
X10050000Y-4620000D02*
X10050000Y-4560000D01*
D11*
X10040000Y-4550000D02*
X10040000Y-4630000D01*
X10040000Y-4630000D02*
X10080000Y-4590000D01*
X10040000Y-5450000D02*
X10080000Y-5410000D01*
X10040000Y-5370000D02*
X10040000Y-5450000D01*
D12*
X10050000Y-5440000D02*
X10050000Y-5380000D01*
D11*
X10080000Y-5410000D02*
X10040000Y-5370000D01*
D10*
X10070000Y-5410000D02*
X9920000Y-5410000D01*
D12*
X9943333Y-4725714D02*
X9953333Y-4721905D01*
X9956667Y-4718095D01*
X9960000Y-4710476D01*
X9960000Y-4699048D01*
X9956667Y-4691429D01*
X9953333Y-4687619D01*
X9946667Y-4683810D01*
X9920000Y-4683810D01*
X9920000Y-4763810D01*
X9943333Y-4763810D01*
X9950000Y-4760000D01*
X9953333Y-4756190D01*
X9956667Y-4748571D01*
X9956667Y-4740952D01*
X9953333Y-4733333D01*
X9950000Y-4729524D01*
X9943333Y-4725714D01*
X9920000Y-4725714D01*
X9990000Y-4683810D02*
X9990000Y-4763810D01*
X10006667Y-4763810D01*
X10016667Y-4760000D01*
X10023333Y-4752381D01*
X10026667Y-4744762D01*
X10030000Y-4729524D01*
X10030000Y-4718095D01*
X10026667Y-4702857D01*
X10023333Y-4695238D01*
X10016667Y-4687619D01*
X10006667Y-4683810D01*
X9990000Y-4683810D01*
X10050000Y-4763810D02*
X10090000Y-4763810D01*
X10070000Y-4683810D02*
X10070000Y-4763810D01*
X9925000Y-4803810D02*
X9925000Y-4883810D01*
X9941667Y-4883810D01*
X9951667Y-4880000D01*
X9958333Y-4872381D01*
X9961667Y-4864762D01*
X9965000Y-4849524D01*
X9965000Y-4838095D01*
X9961667Y-4822857D01*
X9958333Y-4815238D01*
X9951667Y-4807619D01*
X9941667Y-4803810D01*
X9925000Y-4803810D01*
X9991667Y-4826667D02*
X10025000Y-4826667D01*
X9985000Y-4803810D02*
X10008333Y-4883810D01*
X10031667Y-4803810D01*
X10045000Y-4883810D02*
X10085000Y-4883810D01*
X10065000Y-4803810D02*
X10065000Y-4883810D01*
X9946667Y-5200000D02*
X9940000Y-5203810D01*
X9930000Y-5203810D01*
X9920000Y-5200000D01*
X9913333Y-5192381D01*
X9910000Y-5184762D01*
X9906667Y-5169524D01*
X9906667Y-5158095D01*
X9910000Y-5142857D01*
X9913333Y-5135238D01*
X9920000Y-5127619D01*
X9930000Y-5123810D01*
X9936667Y-5123810D01*
X9946667Y-5127619D01*
X9950000Y-5131429D01*
X9950000Y-5158095D01*
X9936667Y-5158095D01*
X9980000Y-5123810D02*
X9980000Y-5203810D01*
X10020000Y-5123810D01*
X10020000Y-5203810D01*
X10053333Y-5123810D02*
X10053333Y-5203810D01*
X10070000Y-5203810D01*
X10080000Y-5200000D01*
X10086667Y-5192381D01*
X10090000Y-5184762D01*
X10093333Y-5169524D01*
X10093333Y-5158095D01*
X10090000Y-5142857D01*
X10086667Y-5135238D01*
X10080000Y-5127619D01*
X10070000Y-5123810D01*
X10053333Y-5123810D01*
X9906667Y-5323810D02*
X9930000Y-5243810D01*
X9953333Y-5323810D01*
X10016667Y-5251429D02*
X10013333Y-5247619D01*
X10003333Y-5243810D01*
X9996667Y-5243810D01*
X9986667Y-5247619D01*
X9980000Y-5255238D01*
X9976667Y-5262857D01*
X9973333Y-5278095D01*
X9973333Y-5289524D01*
X9976667Y-5304762D01*
X9980000Y-5312381D01*
X9986667Y-5320000D01*
X9996667Y-5323810D01*
X10003333Y-5323810D01*
X10013333Y-5320000D01*
X10016667Y-5316190D01*
X10086667Y-5251429D02*
X10083333Y-5247619D01*
X10073333Y-5243810D01*
X10066667Y-5243810D01*
X10056667Y-5247619D01*
X10050000Y-5255238D01*
X10046667Y-5262857D01*
X10043333Y-5278095D01*
X10043333Y-5289524D01*
X10046667Y-5304762D01*
X10050000Y-5312381D01*
X10056667Y-5320000D01*
X10066667Y-5323810D01*
X10073333Y-5323810D01*
X10083333Y-5320000D01*
X10086667Y-5316190D01*
M02*
