M48
;DRILL file {KiCad (5.0.0-rc2-dev-596-gcfd2f1d00)} date 01/30/19 18:25:05
;FORMAT={2:4/ absolute / inch / keep zeros}
FMAT,2
INCH,TZ
T1C0.0157
T2C0.0315
T3C0.0472
%
G90
G05
M72
T1
X039971Y-018729
X039971Y-021485
X039971Y-024241
X039971Y-026997
X039971Y-029753
X039971Y-032509
X039971Y-035265
X039971Y-038021
X039971Y-040776
X039971Y-043532
X039971Y-046288
X039971Y-049044
X039971Y-051800
X039971Y-054556
T2
X041339Y-021496
X041339Y-022126
X041339Y-022756
X041339Y-023386
X037402Y-029764
X037402Y-030394
X037402Y-031024
X037402Y-031654
X037402Y-040787
X037402Y-041417
X037402Y-042047
X037402Y-042677
X041339Y-049055
X041339Y-049685
X041339Y-050315
X041339Y-050945
X041339Y-046299
X041339Y-046929
X041339Y-047559
X041339Y-048189
X037402Y-021496
X037402Y-022126
X037402Y-022756
X037402Y-023386
X037402Y-032520
X037402Y-033150
X037402Y-033780
X037402Y-034409
X041339Y-027008
X041339Y-027638
X041339Y-028268
X041339Y-028898
X041339Y-043543
X041339Y-044173
X041339Y-044803
X041339Y-045433
X041339Y-051811
X041339Y-052441
X041339Y-053071
X041339Y-053701
X037402Y-054567
X037402Y-055197
X037402Y-055827
X037402Y-056457
X041339Y-032520
X041339Y-033150
X041339Y-033780
X041339Y-034409
X041339Y-018740
X041339Y-019370
X041339Y-020000
X041339Y-020630
X041339Y-035276
X041339Y-035906
X041339Y-036535
X041339Y-037165
X041339Y-054567
X041339Y-055197
X041339Y-055827
X041339Y-056457
X037402Y-038031
X037402Y-038661
X037402Y-039291
X037402Y-039921
X037402Y-035276
X037402Y-035906
X037402Y-036535
X037402Y-037165
X037402Y-051811
X037402Y-052441
X037402Y-053071
X037402Y-053701
X041339Y-029764
X041339Y-030394
X041339Y-031024
X041339Y-031654
X041339Y-040787
X041339Y-041417
X041339Y-042047
X041339Y-042677
X041339Y-038031
X041339Y-038661
X041339Y-039291
X041339Y-039921
X037402Y-049055
X037402Y-049685
X037402Y-050315
X037402Y-050945
X041339Y-024252
X041339Y-024882
X041339Y-025512
X041339Y-026142
X037402Y-027008
X037402Y-027638
X037402Y-028268
X037402Y-028898
X037402Y-024252
X037402Y-024882
X037402Y-025512
X037402Y-026142
X037402Y-043543
X037402Y-044173
X037402Y-044803
X037402Y-045433
X037402Y-046299
X037402Y-046929
X037402Y-047559
X037402Y-048189
X037402Y-018740
X037402Y-019370
X037402Y-020000
X037402Y-020630
T3
X039370Y-030709
X039370Y-022441
X039370Y-027953
X039370Y-047244
X039370Y-044488
X039370Y-055512
X039370Y-052756
X039370Y-019685
X039370Y-033465
X039370Y-038976
X039370Y-041732
X039370Y-050000
X039370Y-025197
X039370Y-036220
T0
M30
