G04 #@! TF.GenerationSoftware,KiCad,Pcbnew,(5.0.0-rc2-dev-596-gcfd2f1d00)*
G04 #@! TF.CreationDate,2019-01-30T15:03:03+02:00*
G04 #@! TF.ProjectId,WS2813_single,5753323831335F73696E676C652E6B69,rev?*
G04 #@! TF.SameCoordinates,Original*
G04 #@! TF.FileFunction,Legend,Top*
G04 #@! TF.FilePolarity,Positive*
%FSLAX45Y45*%
G04 Gerber Fmt 4.5, Leading zero omitted, Abs format (unit mm)*
G04 Created by KiCad (PCBNEW (5.0.0-rc2-dev-596-gcfd2f1d00)) date 01/30/19 15:03:03*
%MOMM*%
%LPD*%
G01*
G04 APERTURE LIST*
%ADD10C,0.150000*%
%ADD11C,0.149860*%
%ADD12C,0.500000*%
G04 APERTURE END LIST*
D10*
X9843052Y-5378333D02*
X9835969Y-5381667D01*
X9822635Y-5381667D01*
X9816385Y-5378333D01*
X9813885Y-5371667D01*
X9817219Y-5345000D01*
X9821385Y-5338333D01*
X9828469Y-5335000D01*
X9841802Y-5335000D01*
X9848052Y-5338333D01*
X9850552Y-5345000D01*
X9849719Y-5351667D01*
X9815552Y-5358333D01*
X9885969Y-5381667D02*
X9879719Y-5378333D01*
X9877219Y-5371667D01*
X9884719Y-5311667D01*
X9942635Y-5381667D02*
X9951385Y-5311667D01*
X9943052Y-5378333D02*
X9935969Y-5381667D01*
X9922635Y-5381667D01*
X9916385Y-5378333D01*
X9913469Y-5375000D01*
X9910969Y-5368333D01*
X9913469Y-5348333D01*
X9917635Y-5341667D01*
X9921385Y-5338333D01*
X9928469Y-5335000D01*
X9941802Y-5335000D01*
X9948052Y-5338333D01*
X10005969Y-5381667D02*
X10010552Y-5345000D01*
X10008052Y-5338333D01*
X10001802Y-5335000D01*
X9988469Y-5335000D01*
X9981385Y-5338333D01*
X10006385Y-5378333D02*
X9999302Y-5381667D01*
X9982635Y-5381667D01*
X9976385Y-5378333D01*
X9973885Y-5371667D01*
X9974719Y-5365000D01*
X9978885Y-5358333D01*
X9985969Y-5355000D01*
X10002635Y-5355000D01*
X10009719Y-5351667D01*
X10049302Y-5381667D02*
X10043052Y-5378333D01*
X10040552Y-5371667D01*
X10048052Y-5311667D01*
X10075969Y-5381667D02*
X10081802Y-5335000D01*
X10084719Y-5311667D02*
X10080969Y-5315000D01*
X10083885Y-5318333D01*
X10087635Y-5315000D01*
X10084719Y-5311667D01*
X10083885Y-5318333D01*
X10109302Y-5381667D02*
X10115135Y-5335000D01*
X10114302Y-5341667D02*
X10118052Y-5338333D01*
X10125135Y-5335000D01*
X10135135Y-5335000D01*
X10141385Y-5338333D01*
X10143885Y-5345000D01*
X10139302Y-5381667D01*
X10143885Y-5345000D02*
X10148052Y-5338333D01*
X10155135Y-5335000D01*
X10165135Y-5335000D01*
X10171385Y-5338333D01*
X10173885Y-5345000D01*
X10169302Y-5381667D01*
X9850000Y-4750000D02*
X9750000Y-4850000D01*
X9750000Y-4770000D02*
X9770000Y-4750000D01*
X9790000Y-4750000D02*
X9750000Y-4790000D01*
X9750000Y-4810000D02*
X9810000Y-4750000D01*
X9830000Y-4750000D02*
X9750000Y-4830000D01*
X9750000Y-4840000D02*
X9840000Y-4750000D01*
X10220000Y-5000000D02*
G75*
G03X10220000Y-5000000I-220000J0D01*
G01*
X9750000Y-5250000D02*
X9750000Y-4750000D01*
X9750000Y-4750000D02*
X10250000Y-4750000D01*
X10250000Y-4750000D02*
X10250000Y-5250000D01*
D11*
X10250000Y-5250000D02*
X9750000Y-5250000D01*
D10*
X9831429Y-4627143D02*
X9845714Y-4687143D01*
X9857143Y-4644286D01*
X9868571Y-4687143D01*
X9882857Y-4627143D01*
X9902857Y-4684286D02*
X9911429Y-4687143D01*
X9925714Y-4687143D01*
X9931429Y-4684286D01*
X9934286Y-4681429D01*
X9937143Y-4675714D01*
X9937143Y-4670000D01*
X9934286Y-4664286D01*
X9931429Y-4661429D01*
X9925714Y-4658571D01*
X9914286Y-4655714D01*
X9908571Y-4652857D01*
X9905714Y-4650000D01*
X9902857Y-4644286D01*
X9902857Y-4638571D01*
X9905714Y-4632857D01*
X9908571Y-4630000D01*
X9914286Y-4627143D01*
X9928571Y-4627143D01*
X9937143Y-4630000D01*
X9960000Y-4632857D02*
X9962857Y-4630000D01*
X9968571Y-4627143D01*
X9982857Y-4627143D01*
X9988571Y-4630000D01*
X9991429Y-4632857D01*
X9994286Y-4638571D01*
X9994286Y-4644286D01*
X9991429Y-4652857D01*
X9957143Y-4687143D01*
X9994286Y-4687143D01*
X10028571Y-4652857D02*
X10022857Y-4650000D01*
X10020000Y-4647143D01*
X10017143Y-4641429D01*
X10017143Y-4638571D01*
X10020000Y-4632857D01*
X10022857Y-4630000D01*
X10028571Y-4627143D01*
X10040000Y-4627143D01*
X10045714Y-4630000D01*
X10048571Y-4632857D01*
X10051429Y-4638571D01*
X10051429Y-4641429D01*
X10048571Y-4647143D01*
X10045714Y-4650000D01*
X10040000Y-4652857D01*
X10028571Y-4652857D01*
X10022857Y-4655714D01*
X10020000Y-4658571D01*
X10017143Y-4664286D01*
X10017143Y-4675714D01*
X10020000Y-4681429D01*
X10022857Y-4684286D01*
X10028571Y-4687143D01*
X10040000Y-4687143D01*
X10045714Y-4684286D01*
X10048571Y-4681429D01*
X10051429Y-4675714D01*
X10051429Y-4664286D01*
X10048571Y-4658571D01*
X10045714Y-4655714D01*
X10040000Y-4652857D01*
X10108571Y-4687143D02*
X10074286Y-4687143D01*
X10091429Y-4687143D02*
X10091429Y-4627143D01*
X10085714Y-4635714D01*
X10080000Y-4641429D01*
X10074286Y-4644286D01*
X10128571Y-4627143D02*
X10165714Y-4627143D01*
X10145714Y-4650000D01*
X10154286Y-4650000D01*
X10160000Y-4652857D01*
X10162857Y-4655714D01*
X10165714Y-4661429D01*
X10165714Y-4675714D01*
X10162857Y-4681429D01*
X10160000Y-4684286D01*
X10154286Y-4687143D01*
X10137143Y-4687143D01*
X10131429Y-4684286D01*
X10128571Y-4681429D01*
D12*
X9731429Y-4700000D02*
X9740952Y-4690476D01*
X9750476Y-4700000D01*
X9740952Y-4709524D01*
X9731429Y-4700000D01*
X9750476Y-4700000D01*
M02*
