G04 #@! TF.GenerationSoftware,KiCad,Pcbnew,(5.0.0-rc2-dev-596-gcfd2f1d00)*
G04 #@! TF.CreationDate,2019-01-30T18:25:03+02:00*
G04 #@! TF.ProjectId,WS2813_single_side_conn_x14,5753323831335F73696E676C655F7369,rev?*
G04 #@! TF.SameCoordinates,Original*
G04 #@! TF.FileFunction,Copper,L2,Bot,Signal*
G04 #@! TF.FilePolarity,Positive*
%FSLAX45Y45*%
G04 Gerber Fmt 4.5, Leading zero omitted, Abs format (unit mm)*
G04 Created by KiCad (PCBNEW (5.0.0-rc2-dev-596-gcfd2f1d00)) date 01/30/19 18:25:03*
%MOMM*%
%LPD*%
G01*
G04 APERTURE LIST*
%ADD10C,1.800000*%
%ADD11R,2.850000X1.200000*%
%ADD12C,0.800000*%
%ADD13C,0.700000*%
%ADD14C,1.200000*%
%ADD15C,0.200000*%
G04 APERTURE END LIST*
D10*
X10000000Y-9200000D03*
D11*
X10357500Y-9440000D03*
D12*
X10500000Y-9440000D03*
X10500000Y-9280000D03*
D11*
X10357500Y-9280000D03*
X10357500Y-8960000D03*
D12*
X10500000Y-8960000D03*
X10500000Y-9120000D03*
D11*
X10357500Y-9120000D03*
X9642500Y-9440000D03*
D12*
X9500000Y-9440000D03*
X9500000Y-9280000D03*
D11*
X9642500Y-9280000D03*
X9642500Y-8960000D03*
D12*
X9500000Y-8960000D03*
X9500000Y-9120000D03*
D11*
X9642500Y-9120000D03*
X9642500Y-9820000D03*
D12*
X9500000Y-9820000D03*
X9500000Y-9660000D03*
D11*
X9642500Y-9660000D03*
X9642500Y-9980000D03*
D12*
X9500000Y-9980000D03*
X9500000Y-10140000D03*
D11*
X9642500Y-10140000D03*
X10357500Y-9820000D03*
D12*
X10500000Y-9820000D03*
X10500000Y-9660000D03*
D11*
X10357500Y-9660000D03*
X10357500Y-9980000D03*
D12*
X10500000Y-9980000D03*
X10500000Y-10140000D03*
D11*
X10357500Y-10140000D03*
D10*
X10000000Y-9900000D03*
X10000000Y-11300000D03*
D11*
X10357500Y-11540000D03*
D12*
X10500000Y-11540000D03*
X10500000Y-11380000D03*
D11*
X10357500Y-11380000D03*
X10357500Y-11060000D03*
D12*
X10500000Y-11060000D03*
X10500000Y-11220000D03*
D11*
X10357500Y-11220000D03*
X9642500Y-11540000D03*
D12*
X9500000Y-11540000D03*
X9500000Y-11380000D03*
D11*
X9642500Y-11380000D03*
X9642500Y-11060000D03*
D12*
X9500000Y-11060000D03*
X9500000Y-11220000D03*
D11*
X9642500Y-11220000D03*
X9642500Y-10520000D03*
D12*
X9500000Y-10520000D03*
X9500000Y-10360000D03*
D11*
X9642500Y-10360000D03*
X9642500Y-10680000D03*
D12*
X9500000Y-10680000D03*
X9500000Y-10840000D03*
D11*
X9642500Y-10840000D03*
X10357500Y-10520000D03*
D12*
X10500000Y-10520000D03*
X10500000Y-10360000D03*
D11*
X10357500Y-10360000D03*
X10357500Y-10680000D03*
D12*
X10500000Y-10680000D03*
X10500000Y-10840000D03*
D11*
X10357500Y-10840000D03*
D10*
X10000000Y-10600000D03*
X10000000Y-12700000D03*
D11*
X10357500Y-12940000D03*
D12*
X10500000Y-12940000D03*
X10500000Y-12780000D03*
D11*
X10357500Y-12780000D03*
X10357500Y-12460000D03*
D12*
X10500000Y-12460000D03*
X10500000Y-12620000D03*
D11*
X10357500Y-12620000D03*
X9642500Y-12940000D03*
D12*
X9500000Y-12940000D03*
X9500000Y-12780000D03*
D11*
X9642500Y-12780000D03*
X9642500Y-12460000D03*
D12*
X9500000Y-12460000D03*
X9500000Y-12620000D03*
D11*
X9642500Y-12620000D03*
X9642500Y-11920000D03*
D12*
X9500000Y-11920000D03*
X9500000Y-11760000D03*
D11*
X9642500Y-11760000D03*
X9642500Y-12080000D03*
D12*
X9500000Y-12080000D03*
X9500000Y-12240000D03*
D11*
X9642500Y-12240000D03*
X10357500Y-11920000D03*
D12*
X10500000Y-11920000D03*
X10500000Y-11760000D03*
D11*
X10357500Y-11760000D03*
X10357500Y-12080000D03*
D12*
X10500000Y-12080000D03*
X10500000Y-12240000D03*
D11*
X10357500Y-12240000D03*
D10*
X10000000Y-12000000D03*
X10000000Y-14100000D03*
D11*
X10357500Y-14340000D03*
D12*
X10500000Y-14340000D03*
X10500000Y-14180000D03*
D11*
X10357500Y-14180000D03*
X10357500Y-13860000D03*
D12*
X10500000Y-13860000D03*
X10500000Y-14020000D03*
D11*
X10357500Y-14020000D03*
X9642500Y-14340000D03*
D12*
X9500000Y-14340000D03*
X9500000Y-14180000D03*
D11*
X9642500Y-14180000D03*
X9642500Y-13860000D03*
D12*
X9500000Y-13860000D03*
X9500000Y-14020000D03*
D11*
X9642500Y-14020000D03*
X9642500Y-13320000D03*
D12*
X9500000Y-13320000D03*
X9500000Y-13160000D03*
D11*
X9642500Y-13160000D03*
X9642500Y-13480000D03*
D12*
X9500000Y-13480000D03*
X9500000Y-13640000D03*
D11*
X9642500Y-13640000D03*
X10357500Y-13320000D03*
D12*
X10500000Y-13320000D03*
X10500000Y-13160000D03*
D11*
X10357500Y-13160000D03*
X10357500Y-13480000D03*
D12*
X10500000Y-13480000D03*
X10500000Y-13640000D03*
D11*
X10357500Y-13640000D03*
D10*
X10000000Y-13400000D03*
X10000000Y-7800000D03*
D11*
X10357500Y-8040000D03*
D12*
X10500000Y-8040000D03*
X10500000Y-7880000D03*
D11*
X10357500Y-7880000D03*
X10357500Y-7560000D03*
D12*
X10500000Y-7560000D03*
X10500000Y-7720000D03*
D11*
X10357500Y-7720000D03*
X9642500Y-8040000D03*
D12*
X9500000Y-8040000D03*
X9500000Y-7880000D03*
D11*
X9642500Y-7880000D03*
X9642500Y-7560000D03*
D12*
X9500000Y-7560000D03*
X9500000Y-7720000D03*
D11*
X9642500Y-7720000D03*
X9642500Y-8420000D03*
D12*
X9500000Y-8420000D03*
X9500000Y-8260000D03*
D11*
X9642500Y-8260000D03*
X9642500Y-8580000D03*
D12*
X9500000Y-8580000D03*
X9500000Y-8740000D03*
D11*
X9642500Y-8740000D03*
X10357500Y-8420000D03*
D12*
X10500000Y-8420000D03*
X10500000Y-8260000D03*
D11*
X10357500Y-8260000D03*
X10357500Y-8580000D03*
D12*
X10500000Y-8580000D03*
X10500000Y-8740000D03*
D11*
X10357500Y-8740000D03*
D10*
X10000000Y-8500000D03*
X10000000Y-6400000D03*
D11*
X10357500Y-6640000D03*
D12*
X10500000Y-6640000D03*
X10500000Y-6480000D03*
D11*
X10357500Y-6480000D03*
X10357500Y-6160000D03*
D12*
X10500000Y-6160000D03*
X10500000Y-6320000D03*
D11*
X10357500Y-6320000D03*
X9642500Y-6640000D03*
D12*
X9500000Y-6640000D03*
X9500000Y-6480000D03*
D11*
X9642500Y-6480000D03*
X9642500Y-6160000D03*
D12*
X9500000Y-6160000D03*
X9500000Y-6320000D03*
D11*
X9642500Y-6320000D03*
X9642500Y-7020000D03*
D12*
X9500000Y-7020000D03*
X9500000Y-6860000D03*
D11*
X9642500Y-6860000D03*
X9642500Y-7180000D03*
D12*
X9500000Y-7180000D03*
X9500000Y-7340000D03*
D11*
X9642500Y-7340000D03*
X10357500Y-7020000D03*
D12*
X10500000Y-7020000D03*
X10500000Y-6860000D03*
D11*
X10357500Y-6860000D03*
X10357500Y-7180000D03*
D12*
X10500000Y-7180000D03*
X10500000Y-7340000D03*
D11*
X10357500Y-7340000D03*
D10*
X10000000Y-7100000D03*
X10000000Y-5700000D03*
D11*
X10357500Y-5940000D03*
D12*
X10500000Y-5940000D03*
X10500000Y-5780000D03*
D11*
X10357500Y-5780000D03*
X10357500Y-5460000D03*
D12*
X10500000Y-5460000D03*
X10500000Y-5620000D03*
D11*
X10357500Y-5620000D03*
X9642500Y-5940000D03*
D12*
X9500000Y-5940000D03*
X9500000Y-5780000D03*
D11*
X9642500Y-5780000D03*
X9642500Y-5460000D03*
D12*
X9500000Y-5460000D03*
X9500000Y-5620000D03*
D11*
X9642500Y-5620000D03*
X9642500Y-4920000D03*
D12*
X9500000Y-4920000D03*
X9500000Y-4760000D03*
D11*
X9642500Y-4760000D03*
X9642500Y-5080000D03*
D12*
X9500000Y-5080000D03*
X9500000Y-5240000D03*
D11*
X9642500Y-5240000D03*
X10357500Y-4920000D03*
D12*
X10500000Y-4920000D03*
X10500000Y-4760000D03*
D11*
X10357500Y-4760000D03*
X10357500Y-5080000D03*
D12*
X10500000Y-5080000D03*
X10500000Y-5240000D03*
D11*
X10357500Y-5240000D03*
D10*
X10000000Y-5000000D03*
D13*
X10152740Y-4757220D03*
X10152740Y-5457220D03*
X10152740Y-6157220D03*
X10152740Y-6857220D03*
X10152740Y-7557220D03*
X10152740Y-8257220D03*
X10152740Y-13157220D03*
X10152740Y-13857220D03*
X10152740Y-8957220D03*
X10152740Y-9657220D03*
X10152740Y-10357220D03*
X10152740Y-11057220D03*
X10152740Y-11757220D03*
X10152740Y-12457220D03*
D14*
X10001900Y-5080000D02*
X10000000Y-5000000D01*
X10357500Y-5080000D02*
X10215000Y-5080000D01*
X10215000Y-5080000D02*
X10001900Y-5080000D01*
X10362500Y-5080000D02*
X10357500Y-5080000D01*
X9642500Y-5080000D02*
X9637500Y-5080000D01*
X10001900Y-5080000D02*
X9785000Y-5080000D01*
X9785000Y-5080000D02*
X9642500Y-5080000D01*
X10001900Y-5780000D02*
X10000000Y-5700000D01*
X10357500Y-5780000D02*
X10215000Y-5780000D01*
X10215000Y-5780000D02*
X10001900Y-5780000D01*
X10362500Y-5780000D02*
X10357500Y-5780000D01*
X9642500Y-5780000D02*
X9637500Y-5780000D01*
X10001900Y-5780000D02*
X9785000Y-5780000D01*
X9785000Y-5780000D02*
X9642500Y-5780000D01*
X10001900Y-6480000D02*
X10000000Y-6400000D01*
X10357500Y-6480000D02*
X10215000Y-6480000D01*
X10215000Y-6480000D02*
X10001900Y-6480000D01*
X10362500Y-6480000D02*
X10357500Y-6480000D01*
X9642500Y-6480000D02*
X9637500Y-6480000D01*
X10001900Y-6480000D02*
X9785000Y-6480000D01*
X9785000Y-6480000D02*
X9642500Y-6480000D01*
X10001900Y-7180000D02*
X10000000Y-7100000D01*
X10357500Y-7180000D02*
X10215000Y-7180000D01*
X10215000Y-7180000D02*
X10001900Y-7180000D01*
X10362500Y-7180000D02*
X10357500Y-7180000D01*
X9642500Y-7180000D02*
X9637500Y-7180000D01*
X10001900Y-7180000D02*
X9785000Y-7180000D01*
X9785000Y-7180000D02*
X9642500Y-7180000D01*
X10001900Y-7880000D02*
X10000000Y-7800000D01*
X10357500Y-7880000D02*
X10215000Y-7880000D01*
X10215000Y-7880000D02*
X10001900Y-7880000D01*
X10362500Y-7880000D02*
X10357500Y-7880000D01*
X9642500Y-7880000D02*
X9637500Y-7880000D01*
X10001900Y-7880000D02*
X9785000Y-7880000D01*
X9785000Y-7880000D02*
X9642500Y-7880000D01*
X10001900Y-8580000D02*
X10000000Y-8500000D01*
X10357500Y-8580000D02*
X10215000Y-8580000D01*
X10215000Y-8580000D02*
X10001900Y-8580000D01*
X10362500Y-8580000D02*
X10357500Y-8580000D01*
X9642500Y-8580000D02*
X9637500Y-8580000D01*
X10001900Y-8580000D02*
X9785000Y-8580000D01*
X9785000Y-8580000D02*
X9642500Y-8580000D01*
X10001900Y-13480000D02*
X10000000Y-13400000D01*
X10357500Y-13480000D02*
X10215000Y-13480000D01*
X10215000Y-13480000D02*
X10001900Y-13480000D01*
X10362500Y-13480000D02*
X10357500Y-13480000D01*
X9642500Y-13480000D02*
X9637500Y-13480000D01*
X10001900Y-13480000D02*
X9785000Y-13480000D01*
X9785000Y-13480000D02*
X9642500Y-13480000D01*
X10001900Y-14180000D02*
X10000000Y-14100000D01*
X10357500Y-14180000D02*
X10215000Y-14180000D01*
X10215000Y-14180000D02*
X10001900Y-14180000D01*
X10362500Y-14180000D02*
X10357500Y-14180000D01*
X9642500Y-14180000D02*
X9637500Y-14180000D01*
X10001900Y-14180000D02*
X9785000Y-14180000D01*
X9785000Y-14180000D02*
X9642500Y-14180000D01*
X10001900Y-9280000D02*
X10000000Y-9200000D01*
X10357500Y-9280000D02*
X10215000Y-9280000D01*
X10215000Y-9280000D02*
X10001900Y-9280000D01*
X10362500Y-9280000D02*
X10357500Y-9280000D01*
X9642500Y-9280000D02*
X9637500Y-9280000D01*
X10001900Y-9280000D02*
X9785000Y-9280000D01*
X9785000Y-9280000D02*
X9642500Y-9280000D01*
X10001900Y-9980000D02*
X10000000Y-9900000D01*
X10357500Y-9980000D02*
X10215000Y-9980000D01*
X10215000Y-9980000D02*
X10001900Y-9980000D01*
X10362500Y-9980000D02*
X10357500Y-9980000D01*
X9642500Y-9980000D02*
X9637500Y-9980000D01*
X10001900Y-9980000D02*
X9785000Y-9980000D01*
X9785000Y-9980000D02*
X9642500Y-9980000D01*
X10001900Y-10680000D02*
X10000000Y-10600000D01*
X10357500Y-10680000D02*
X10215000Y-10680000D01*
X10215000Y-10680000D02*
X10001900Y-10680000D01*
X10362500Y-10680000D02*
X10357500Y-10680000D01*
X9642500Y-10680000D02*
X9637500Y-10680000D01*
X10001900Y-10680000D02*
X9785000Y-10680000D01*
X9785000Y-10680000D02*
X9642500Y-10680000D01*
X10001900Y-11380000D02*
X10000000Y-11300000D01*
X10357500Y-11380000D02*
X10215000Y-11380000D01*
X10215000Y-11380000D02*
X10001900Y-11380000D01*
X10362500Y-11380000D02*
X10357500Y-11380000D01*
X9642500Y-11380000D02*
X9637500Y-11380000D01*
X10001900Y-11380000D02*
X9785000Y-11380000D01*
X9785000Y-11380000D02*
X9642500Y-11380000D01*
X10001900Y-12080000D02*
X10000000Y-12000000D01*
X10357500Y-12080000D02*
X10215000Y-12080000D01*
X10215000Y-12080000D02*
X10001900Y-12080000D01*
X10362500Y-12080000D02*
X10357500Y-12080000D01*
X9642500Y-12080000D02*
X9637500Y-12080000D01*
X10001900Y-12080000D02*
X9785000Y-12080000D01*
X9785000Y-12080000D02*
X9642500Y-12080000D01*
X10001900Y-12780000D02*
X10000000Y-12700000D01*
X10357500Y-12780000D02*
X10215000Y-12780000D01*
X10215000Y-12780000D02*
X10001900Y-12780000D01*
X10362500Y-12780000D02*
X10357500Y-12780000D01*
X9642500Y-12780000D02*
X9637500Y-12780000D01*
X10001900Y-12780000D02*
X9785000Y-12780000D01*
X9785000Y-12780000D02*
X9642500Y-12780000D01*
X9642500Y-5240000D02*
X9637500Y-5240000D01*
X10357500Y-5240000D02*
X10215000Y-5240000D01*
X10215000Y-5240000D02*
X9785000Y-5240000D01*
X9785000Y-5240000D02*
X9642500Y-5240000D01*
X10362500Y-5240000D02*
X10357500Y-5240000D01*
X9642500Y-5940000D02*
X9637500Y-5940000D01*
X10357500Y-5940000D02*
X10215000Y-5940000D01*
X10215000Y-5940000D02*
X9785000Y-5940000D01*
X9785000Y-5940000D02*
X9642500Y-5940000D01*
X10362500Y-5940000D02*
X10357500Y-5940000D01*
X9642500Y-6640000D02*
X9637500Y-6640000D01*
X10357500Y-6640000D02*
X10215000Y-6640000D01*
X10215000Y-6640000D02*
X9785000Y-6640000D01*
X9785000Y-6640000D02*
X9642500Y-6640000D01*
X10362500Y-6640000D02*
X10357500Y-6640000D01*
X9642500Y-7340000D02*
X9637500Y-7340000D01*
X10357500Y-7340000D02*
X10215000Y-7340000D01*
X10215000Y-7340000D02*
X9785000Y-7340000D01*
X9785000Y-7340000D02*
X9642500Y-7340000D01*
X10362500Y-7340000D02*
X10357500Y-7340000D01*
X9642500Y-8040000D02*
X9637500Y-8040000D01*
X10357500Y-8040000D02*
X10215000Y-8040000D01*
X10215000Y-8040000D02*
X9785000Y-8040000D01*
X9785000Y-8040000D02*
X9642500Y-8040000D01*
X10362500Y-8040000D02*
X10357500Y-8040000D01*
X9642500Y-8740000D02*
X9637500Y-8740000D01*
X10357500Y-8740000D02*
X10215000Y-8740000D01*
X10215000Y-8740000D02*
X9785000Y-8740000D01*
X9785000Y-8740000D02*
X9642500Y-8740000D01*
X10362500Y-8740000D02*
X10357500Y-8740000D01*
X9642500Y-13640000D02*
X9637500Y-13640000D01*
X10357500Y-13640000D02*
X10215000Y-13640000D01*
X10215000Y-13640000D02*
X9785000Y-13640000D01*
X9785000Y-13640000D02*
X9642500Y-13640000D01*
X10362500Y-13640000D02*
X10357500Y-13640000D01*
X9642500Y-14340000D02*
X9637500Y-14340000D01*
X10357500Y-14340000D02*
X10215000Y-14340000D01*
X10215000Y-14340000D02*
X9785000Y-14340000D01*
X9785000Y-14340000D02*
X9642500Y-14340000D01*
X10362500Y-14340000D02*
X10357500Y-14340000D01*
X9642500Y-9440000D02*
X9637500Y-9440000D01*
X10357500Y-9440000D02*
X10215000Y-9440000D01*
X10215000Y-9440000D02*
X9785000Y-9440000D01*
X9785000Y-9440000D02*
X9642500Y-9440000D01*
X10362500Y-9440000D02*
X10357500Y-9440000D01*
X9642500Y-10140000D02*
X9637500Y-10140000D01*
X10357500Y-10140000D02*
X10215000Y-10140000D01*
X10215000Y-10140000D02*
X9785000Y-10140000D01*
X9785000Y-10140000D02*
X9642500Y-10140000D01*
X10362500Y-10140000D02*
X10357500Y-10140000D01*
X9642500Y-10840000D02*
X9637500Y-10840000D01*
X10357500Y-10840000D02*
X10215000Y-10840000D01*
X10215000Y-10840000D02*
X9785000Y-10840000D01*
X9785000Y-10840000D02*
X9642500Y-10840000D01*
X10362500Y-10840000D02*
X10357500Y-10840000D01*
X9642500Y-11540000D02*
X9637500Y-11540000D01*
X10357500Y-11540000D02*
X10215000Y-11540000D01*
X10215000Y-11540000D02*
X9785000Y-11540000D01*
X9785000Y-11540000D02*
X9642500Y-11540000D01*
X10362500Y-11540000D02*
X10357500Y-11540000D01*
X9642500Y-12240000D02*
X9637500Y-12240000D01*
X10357500Y-12240000D02*
X10215000Y-12240000D01*
X10215000Y-12240000D02*
X9785000Y-12240000D01*
X9785000Y-12240000D02*
X9642500Y-12240000D01*
X10362500Y-12240000D02*
X10357500Y-12240000D01*
X9642500Y-12940000D02*
X9637500Y-12940000D01*
X10357500Y-12940000D02*
X10215000Y-12940000D01*
X10215000Y-12940000D02*
X9785000Y-12940000D01*
X9785000Y-12940000D02*
X9642500Y-12940000D01*
X10362500Y-12940000D02*
X10357500Y-12940000D01*
D15*
X9642500Y-4920000D02*
X9637500Y-4920000D01*
X10357500Y-4760000D02*
X10225000Y-4810000D01*
X10225000Y-4810000D02*
X10215000Y-4810000D01*
X10215000Y-4810000D02*
X10210860Y-4810000D01*
X10210860Y-4810000D02*
X10198430Y-4819990D01*
X10198430Y-4819990D02*
X10183810Y-4832230D01*
X10183810Y-4832230D02*
X9789140Y-4870000D01*
X9789140Y-4870000D02*
X9785000Y-4870000D01*
X9785000Y-4870000D02*
X9775000Y-4870000D01*
X9775000Y-4870000D02*
X9642500Y-4920000D01*
X10362500Y-4760000D02*
X10357500Y-4760000D01*
X9642500Y-5620000D02*
X9637500Y-5620000D01*
X10357500Y-5460000D02*
X10225000Y-5510000D01*
X10225000Y-5510000D02*
X10215000Y-5510000D01*
X10215000Y-5510000D02*
X10210860Y-5510000D01*
X10210860Y-5510000D02*
X10198430Y-5519990D01*
X10198430Y-5519990D02*
X10183810Y-5532230D01*
X10183810Y-5532230D02*
X9789140Y-5570000D01*
X9789140Y-5570000D02*
X9785000Y-5570000D01*
X9785000Y-5570000D02*
X9775000Y-5570000D01*
X9775000Y-5570000D02*
X9642500Y-5620000D01*
X10362500Y-5460000D02*
X10357500Y-5460000D01*
X9642500Y-6320000D02*
X9637500Y-6320000D01*
X10357500Y-6160000D02*
X10225000Y-6210000D01*
X10225000Y-6210000D02*
X10215000Y-6210000D01*
X10215000Y-6210000D02*
X10210860Y-6210000D01*
X10210860Y-6210000D02*
X10198430Y-6219990D01*
X10198430Y-6219990D02*
X10183810Y-6232230D01*
X10183810Y-6232230D02*
X9789140Y-6270000D01*
X9789140Y-6270000D02*
X9785000Y-6270000D01*
X9785000Y-6270000D02*
X9775000Y-6270000D01*
X9775000Y-6270000D02*
X9642500Y-6320000D01*
X10362500Y-6160000D02*
X10357500Y-6160000D01*
X9642500Y-7020000D02*
X9637500Y-7020000D01*
X10357500Y-6860000D02*
X10225000Y-6910000D01*
X10225000Y-6910000D02*
X10215000Y-6910000D01*
X10215000Y-6910000D02*
X10210860Y-6910000D01*
X10210860Y-6910000D02*
X10198430Y-6919990D01*
X10198430Y-6919990D02*
X10183810Y-6932230D01*
X10183810Y-6932230D02*
X9789140Y-6970000D01*
X9789140Y-6970000D02*
X9785000Y-6970000D01*
X9785000Y-6970000D02*
X9775000Y-6970000D01*
X9775000Y-6970000D02*
X9642500Y-7020000D01*
X10362500Y-6860000D02*
X10357500Y-6860000D01*
X9642500Y-7720000D02*
X9637500Y-7720000D01*
X10357500Y-7560000D02*
X10225000Y-7610000D01*
X10225000Y-7610000D02*
X10215000Y-7610000D01*
X10215000Y-7610000D02*
X10210860Y-7610000D01*
X10210860Y-7610000D02*
X10198430Y-7619990D01*
X10198430Y-7619990D02*
X10183810Y-7632230D01*
X10183810Y-7632230D02*
X9789140Y-7670000D01*
X9789140Y-7670000D02*
X9785000Y-7670000D01*
X9785000Y-7670000D02*
X9775000Y-7670000D01*
X9775000Y-7670000D02*
X9642500Y-7720000D01*
X10362500Y-7560000D02*
X10357500Y-7560000D01*
X9642500Y-8420000D02*
X9637500Y-8420000D01*
X10357500Y-8260000D02*
X10225000Y-8310000D01*
X10225000Y-8310000D02*
X10215000Y-8310000D01*
X10215000Y-8310000D02*
X10210860Y-8310000D01*
X10210860Y-8310000D02*
X10198430Y-8319990D01*
X10198430Y-8319990D02*
X10183810Y-8332230D01*
X10183810Y-8332230D02*
X9789140Y-8370000D01*
X9789140Y-8370000D02*
X9785000Y-8370000D01*
X9785000Y-8370000D02*
X9775000Y-8370000D01*
X9775000Y-8370000D02*
X9642500Y-8420000D01*
X10362500Y-8260000D02*
X10357500Y-8260000D01*
X9642500Y-13320000D02*
X9637500Y-13320000D01*
X10357500Y-13160000D02*
X10225000Y-13210000D01*
X10225000Y-13210000D02*
X10215000Y-13210000D01*
X10215000Y-13210000D02*
X10210860Y-13210000D01*
X10210860Y-13210000D02*
X10198430Y-13219990D01*
X10198430Y-13219990D02*
X10183810Y-13232230D01*
X10183810Y-13232230D02*
X9789140Y-13270000D01*
X9789140Y-13270000D02*
X9785000Y-13270000D01*
X9785000Y-13270000D02*
X9775000Y-13270000D01*
X9775000Y-13270000D02*
X9642500Y-13320000D01*
X10362500Y-13160000D02*
X10357500Y-13160000D01*
X9642500Y-14020000D02*
X9637500Y-14020000D01*
X10357500Y-13860000D02*
X10225000Y-13910000D01*
X10225000Y-13910000D02*
X10215000Y-13910000D01*
X10215000Y-13910000D02*
X10210860Y-13910000D01*
X10210860Y-13910000D02*
X10198430Y-13919990D01*
X10198430Y-13919990D02*
X10183810Y-13932230D01*
X10183810Y-13932230D02*
X9789140Y-13970000D01*
X9789140Y-13970000D02*
X9785000Y-13970000D01*
X9785000Y-13970000D02*
X9775000Y-13970000D01*
X9775000Y-13970000D02*
X9642500Y-14020000D01*
X10362500Y-13860000D02*
X10357500Y-13860000D01*
X9642500Y-9120000D02*
X9637500Y-9120000D01*
X10357500Y-8960000D02*
X10225000Y-9010000D01*
X10225000Y-9010000D02*
X10215000Y-9010000D01*
X10215000Y-9010000D02*
X10210860Y-9010000D01*
X10210860Y-9010000D02*
X10198430Y-9019990D01*
X10198430Y-9019990D02*
X10183810Y-9032230D01*
X10183810Y-9032230D02*
X9789140Y-9070000D01*
X9789140Y-9070000D02*
X9785000Y-9070000D01*
X9785000Y-9070000D02*
X9775000Y-9070000D01*
X9775000Y-9070000D02*
X9642500Y-9120000D01*
X10362500Y-8960000D02*
X10357500Y-8960000D01*
X9642500Y-9820000D02*
X9637500Y-9820000D01*
X10357500Y-9660000D02*
X10225000Y-9710000D01*
X10225000Y-9710000D02*
X10215000Y-9710000D01*
X10215000Y-9710000D02*
X10210860Y-9710000D01*
X10210860Y-9710000D02*
X10198430Y-9719990D01*
X10198430Y-9719990D02*
X10183810Y-9732230D01*
X10183810Y-9732230D02*
X9789140Y-9770000D01*
X9789140Y-9770000D02*
X9785000Y-9770000D01*
X9785000Y-9770000D02*
X9775000Y-9770000D01*
X9775000Y-9770000D02*
X9642500Y-9820000D01*
X10362500Y-9660000D02*
X10357500Y-9660000D01*
X9642500Y-10520000D02*
X9637500Y-10520000D01*
X10357500Y-10360000D02*
X10225000Y-10410000D01*
X10225000Y-10410000D02*
X10215000Y-10410000D01*
X10215000Y-10410000D02*
X10210860Y-10410000D01*
X10210860Y-10410000D02*
X10198430Y-10419990D01*
X10198430Y-10419990D02*
X10183810Y-10432230D01*
X10183810Y-10432230D02*
X9789140Y-10470000D01*
X9789140Y-10470000D02*
X9785000Y-10470000D01*
X9785000Y-10470000D02*
X9775000Y-10470000D01*
X9775000Y-10470000D02*
X9642500Y-10520000D01*
X10362500Y-10360000D02*
X10357500Y-10360000D01*
X9642500Y-11220000D02*
X9637500Y-11220000D01*
X10357500Y-11060000D02*
X10225000Y-11110000D01*
X10225000Y-11110000D02*
X10215000Y-11110000D01*
X10215000Y-11110000D02*
X10210860Y-11110000D01*
X10210860Y-11110000D02*
X10198430Y-11119990D01*
X10198430Y-11119990D02*
X10183810Y-11132230D01*
X10183810Y-11132230D02*
X9789140Y-11170000D01*
X9789140Y-11170000D02*
X9785000Y-11170000D01*
X9785000Y-11170000D02*
X9775000Y-11170000D01*
X9775000Y-11170000D02*
X9642500Y-11220000D01*
X10362500Y-11060000D02*
X10357500Y-11060000D01*
X9642500Y-11920000D02*
X9637500Y-11920000D01*
X10357500Y-11760000D02*
X10225000Y-11810000D01*
X10225000Y-11810000D02*
X10215000Y-11810000D01*
X10215000Y-11810000D02*
X10210860Y-11810000D01*
X10210860Y-11810000D02*
X10198430Y-11819990D01*
X10198430Y-11819990D02*
X10183810Y-11832230D01*
X10183810Y-11832230D02*
X9789140Y-11870000D01*
X9789140Y-11870000D02*
X9785000Y-11870000D01*
X9785000Y-11870000D02*
X9775000Y-11870000D01*
X9775000Y-11870000D02*
X9642500Y-11920000D01*
X10362500Y-11760000D02*
X10357500Y-11760000D01*
X9642500Y-12620000D02*
X9637500Y-12620000D01*
X10357500Y-12460000D02*
X10225000Y-12510000D01*
X10225000Y-12510000D02*
X10215000Y-12510000D01*
X10215000Y-12510000D02*
X10210860Y-12510000D01*
X10210860Y-12510000D02*
X10198430Y-12519990D01*
X10198430Y-12519990D02*
X10183810Y-12532230D01*
X10183810Y-12532230D02*
X9789140Y-12570000D01*
X9789140Y-12570000D02*
X9785000Y-12570000D01*
X9785000Y-12570000D02*
X9775000Y-12570000D01*
X9775000Y-12570000D02*
X9642500Y-12620000D01*
X10362500Y-12460000D02*
X10357500Y-12460000D01*
G36*
X10174216Y-4980000D02*
X10177321Y-4995607D01*
X10186162Y-5008838D01*
X10199393Y-5017679D01*
X10215000Y-5020784D01*
X10452500Y-5020784D01*
X10452500Y-5139216D01*
X10215000Y-5139216D01*
X10211061Y-5140000D01*
X9788939Y-5140000D01*
X9785000Y-5139216D01*
X9547500Y-5139216D01*
X9547500Y-5020784D01*
X9785000Y-5020784D01*
X9800607Y-5017679D01*
X9813838Y-5008838D01*
X9822679Y-4995607D01*
X9825784Y-4980000D01*
X9825784Y-4916722D01*
X10174216Y-4883377D01*
X10174216Y-4980000D01*
X10174216Y-4980000D01*
G37*
X10174216Y-4980000D02*
X10177321Y-4995607D01*
X10186162Y-5008838D01*
X10199393Y-5017679D01*
X10215000Y-5020784D01*
X10452500Y-5020784D01*
X10452500Y-5139216D01*
X10215000Y-5139216D01*
X10211061Y-5140000D01*
X9788939Y-5140000D01*
X9785000Y-5139216D01*
X9547500Y-5139216D01*
X9547500Y-5020784D01*
X9785000Y-5020784D01*
X9800607Y-5017679D01*
X9813838Y-5008838D01*
X9822679Y-4995607D01*
X9825784Y-4980000D01*
X9825784Y-4916722D01*
X10174216Y-4883377D01*
X10174216Y-4980000D01*
G36*
X10174216Y-4700000D02*
X10174216Y-4774843D01*
X10173552Y-4775837D01*
X10170552Y-4778249D01*
X10170109Y-4778491D01*
X10166719Y-4781329D01*
X10163459Y-4783949D01*
X9825784Y-4816265D01*
X9825784Y-4700000D01*
X9825286Y-4697500D01*
X10174714Y-4697500D01*
X10174216Y-4700000D01*
X10174216Y-4700000D01*
G37*
X10174216Y-4700000D02*
X10174216Y-4774843D01*
X10173552Y-4775837D01*
X10170552Y-4778249D01*
X10170109Y-4778491D01*
X10166719Y-4781329D01*
X10163459Y-4783949D01*
X9825784Y-4816265D01*
X9825784Y-4700000D01*
X9825286Y-4697500D01*
X10174714Y-4697500D01*
X10174216Y-4700000D01*
G36*
X10174216Y-5680000D02*
X10177321Y-5695607D01*
X10186162Y-5708838D01*
X10199393Y-5717679D01*
X10215000Y-5720784D01*
X10452500Y-5720784D01*
X10452500Y-5839216D01*
X10215000Y-5839216D01*
X10211061Y-5840000D01*
X9788939Y-5840000D01*
X9785000Y-5839216D01*
X9547500Y-5839216D01*
X9547500Y-5720784D01*
X9785000Y-5720784D01*
X9800607Y-5717679D01*
X9813838Y-5708838D01*
X9822679Y-5695607D01*
X9825784Y-5680000D01*
X9825784Y-5616722D01*
X10174216Y-5583377D01*
X10174216Y-5680000D01*
X10174216Y-5680000D01*
G37*
X10174216Y-5680000D02*
X10177321Y-5695607D01*
X10186162Y-5708838D01*
X10199393Y-5717679D01*
X10215000Y-5720784D01*
X10452500Y-5720784D01*
X10452500Y-5839216D01*
X10215000Y-5839216D01*
X10211061Y-5840000D01*
X9788939Y-5840000D01*
X9785000Y-5839216D01*
X9547500Y-5839216D01*
X9547500Y-5720784D01*
X9785000Y-5720784D01*
X9800607Y-5717679D01*
X9813838Y-5708838D01*
X9822679Y-5695607D01*
X9825784Y-5680000D01*
X9825784Y-5616722D01*
X10174216Y-5583377D01*
X10174216Y-5680000D01*
G36*
X10174216Y-5400000D02*
X10174216Y-5474843D01*
X10173552Y-5475837D01*
X10170552Y-5478249D01*
X10170109Y-5478491D01*
X10166719Y-5481329D01*
X10163459Y-5483949D01*
X9825784Y-5516265D01*
X9825784Y-5400000D01*
X9825286Y-5397500D01*
X10174714Y-5397500D01*
X10174216Y-5400000D01*
X10174216Y-5400000D01*
G37*
X10174216Y-5400000D02*
X10174216Y-5474843D01*
X10173552Y-5475837D01*
X10170552Y-5478249D01*
X10170109Y-5478491D01*
X10166719Y-5481329D01*
X10163459Y-5483949D01*
X9825784Y-5516265D01*
X9825784Y-5400000D01*
X9825286Y-5397500D01*
X10174714Y-5397500D01*
X10174216Y-5400000D01*
G36*
X10174216Y-6380000D02*
X10177321Y-6395607D01*
X10186162Y-6408838D01*
X10199393Y-6417679D01*
X10215000Y-6420784D01*
X10452500Y-6420784D01*
X10452500Y-6539216D01*
X10215000Y-6539216D01*
X10211061Y-6540000D01*
X9788939Y-6540000D01*
X9785000Y-6539216D01*
X9547500Y-6539216D01*
X9547500Y-6420784D01*
X9785000Y-6420784D01*
X9800607Y-6417679D01*
X9813838Y-6408838D01*
X9822679Y-6395607D01*
X9825784Y-6380000D01*
X9825784Y-6316722D01*
X10174216Y-6283376D01*
X10174216Y-6380000D01*
X10174216Y-6380000D01*
G37*
X10174216Y-6380000D02*
X10177321Y-6395607D01*
X10186162Y-6408838D01*
X10199393Y-6417679D01*
X10215000Y-6420784D01*
X10452500Y-6420784D01*
X10452500Y-6539216D01*
X10215000Y-6539216D01*
X10211061Y-6540000D01*
X9788939Y-6540000D01*
X9785000Y-6539216D01*
X9547500Y-6539216D01*
X9547500Y-6420784D01*
X9785000Y-6420784D01*
X9800607Y-6417679D01*
X9813838Y-6408838D01*
X9822679Y-6395607D01*
X9825784Y-6380000D01*
X9825784Y-6316722D01*
X10174216Y-6283376D01*
X10174216Y-6380000D01*
G36*
X10174216Y-6100000D02*
X10174216Y-6174843D01*
X10173552Y-6175837D01*
X10170552Y-6178249D01*
X10170109Y-6178491D01*
X10166719Y-6181329D01*
X10163459Y-6183949D01*
X9825784Y-6216265D01*
X9825784Y-6100000D01*
X9825286Y-6097500D01*
X10174714Y-6097500D01*
X10174216Y-6100000D01*
X10174216Y-6100000D01*
G37*
X10174216Y-6100000D02*
X10174216Y-6174843D01*
X10173552Y-6175837D01*
X10170552Y-6178249D01*
X10170109Y-6178491D01*
X10166719Y-6181329D01*
X10163459Y-6183949D01*
X9825784Y-6216265D01*
X9825784Y-6100000D01*
X9825286Y-6097500D01*
X10174714Y-6097500D01*
X10174216Y-6100000D01*
G36*
X10174216Y-7080000D02*
X10177321Y-7095607D01*
X10186162Y-7108838D01*
X10199393Y-7117679D01*
X10215000Y-7120784D01*
X10452500Y-7120784D01*
X10452500Y-7239216D01*
X10215000Y-7239216D01*
X10211061Y-7240000D01*
X9788939Y-7240000D01*
X9785000Y-7239216D01*
X9547500Y-7239216D01*
X9547500Y-7120784D01*
X9785000Y-7120784D01*
X9800607Y-7117679D01*
X9813838Y-7108838D01*
X9822679Y-7095607D01*
X9825784Y-7080000D01*
X9825784Y-7016722D01*
X10174216Y-6983376D01*
X10174216Y-7080000D01*
X10174216Y-7080000D01*
G37*
X10174216Y-7080000D02*
X10177321Y-7095607D01*
X10186162Y-7108838D01*
X10199393Y-7117679D01*
X10215000Y-7120784D01*
X10452500Y-7120784D01*
X10452500Y-7239216D01*
X10215000Y-7239216D01*
X10211061Y-7240000D01*
X9788939Y-7240000D01*
X9785000Y-7239216D01*
X9547500Y-7239216D01*
X9547500Y-7120784D01*
X9785000Y-7120784D01*
X9800607Y-7117679D01*
X9813838Y-7108838D01*
X9822679Y-7095607D01*
X9825784Y-7080000D01*
X9825784Y-7016722D01*
X10174216Y-6983376D01*
X10174216Y-7080000D01*
G36*
X10174216Y-6800000D02*
X10174216Y-6874843D01*
X10173552Y-6875837D01*
X10170552Y-6878249D01*
X10170109Y-6878491D01*
X10166719Y-6881329D01*
X10163459Y-6883949D01*
X9825784Y-6916265D01*
X9825784Y-6800000D01*
X9825286Y-6797500D01*
X10174714Y-6797500D01*
X10174216Y-6800000D01*
X10174216Y-6800000D01*
G37*
X10174216Y-6800000D02*
X10174216Y-6874843D01*
X10173552Y-6875837D01*
X10170552Y-6878249D01*
X10170109Y-6878491D01*
X10166719Y-6881329D01*
X10163459Y-6883949D01*
X9825784Y-6916265D01*
X9825784Y-6800000D01*
X9825286Y-6797500D01*
X10174714Y-6797500D01*
X10174216Y-6800000D01*
G36*
X10174216Y-7780000D02*
X10177321Y-7795607D01*
X10186162Y-7808838D01*
X10199393Y-7817679D01*
X10215000Y-7820784D01*
X10452500Y-7820784D01*
X10452500Y-7939216D01*
X10215000Y-7939216D01*
X10211061Y-7940000D01*
X9788939Y-7940000D01*
X9785000Y-7939216D01*
X9547500Y-7939216D01*
X9547500Y-7820784D01*
X9785000Y-7820784D01*
X9800607Y-7817679D01*
X9813838Y-7808838D01*
X9822679Y-7795607D01*
X9825784Y-7780000D01*
X9825784Y-7716722D01*
X10174216Y-7683376D01*
X10174216Y-7780000D01*
X10174216Y-7780000D01*
G37*
X10174216Y-7780000D02*
X10177321Y-7795607D01*
X10186162Y-7808838D01*
X10199393Y-7817679D01*
X10215000Y-7820784D01*
X10452500Y-7820784D01*
X10452500Y-7939216D01*
X10215000Y-7939216D01*
X10211061Y-7940000D01*
X9788939Y-7940000D01*
X9785000Y-7939216D01*
X9547500Y-7939216D01*
X9547500Y-7820784D01*
X9785000Y-7820784D01*
X9800607Y-7817679D01*
X9813838Y-7808838D01*
X9822679Y-7795607D01*
X9825784Y-7780000D01*
X9825784Y-7716722D01*
X10174216Y-7683376D01*
X10174216Y-7780000D01*
G36*
X10174216Y-7500000D02*
X10174216Y-7574843D01*
X10173552Y-7575837D01*
X10170552Y-7578249D01*
X10170109Y-7578491D01*
X10166719Y-7581329D01*
X10163459Y-7583949D01*
X9825784Y-7616265D01*
X9825784Y-7500000D01*
X9825286Y-7497500D01*
X10174714Y-7497500D01*
X10174216Y-7500000D01*
X10174216Y-7500000D01*
G37*
X10174216Y-7500000D02*
X10174216Y-7574843D01*
X10173552Y-7575837D01*
X10170552Y-7578249D01*
X10170109Y-7578491D01*
X10166719Y-7581329D01*
X10163459Y-7583949D01*
X9825784Y-7616265D01*
X9825784Y-7500000D01*
X9825286Y-7497500D01*
X10174714Y-7497500D01*
X10174216Y-7500000D01*
G36*
X10174216Y-8480000D02*
X10177321Y-8495607D01*
X10186162Y-8508838D01*
X10199393Y-8517679D01*
X10215000Y-8520784D01*
X10452500Y-8520784D01*
X10452500Y-8639216D01*
X10215000Y-8639216D01*
X10211061Y-8640000D01*
X9788939Y-8640000D01*
X9785000Y-8639216D01*
X9547500Y-8639216D01*
X9547500Y-8520784D01*
X9785000Y-8520784D01*
X9800607Y-8517679D01*
X9813838Y-8508838D01*
X9822679Y-8495607D01*
X9825784Y-8480000D01*
X9825784Y-8416722D01*
X10174216Y-8383376D01*
X10174216Y-8480000D01*
X10174216Y-8480000D01*
G37*
X10174216Y-8480000D02*
X10177321Y-8495607D01*
X10186162Y-8508838D01*
X10199393Y-8517679D01*
X10215000Y-8520784D01*
X10452500Y-8520784D01*
X10452500Y-8639216D01*
X10215000Y-8639216D01*
X10211061Y-8640000D01*
X9788939Y-8640000D01*
X9785000Y-8639216D01*
X9547500Y-8639216D01*
X9547500Y-8520784D01*
X9785000Y-8520784D01*
X9800607Y-8517679D01*
X9813838Y-8508838D01*
X9822679Y-8495607D01*
X9825784Y-8480000D01*
X9825784Y-8416722D01*
X10174216Y-8383376D01*
X10174216Y-8480000D01*
G36*
X10174216Y-8200000D02*
X10174216Y-8274843D01*
X10173552Y-8275837D01*
X10170552Y-8278249D01*
X10170109Y-8278491D01*
X10166719Y-8281329D01*
X10163459Y-8283949D01*
X9825784Y-8316265D01*
X9825784Y-8200000D01*
X9825286Y-8197500D01*
X10174714Y-8197500D01*
X10174216Y-8200000D01*
X10174216Y-8200000D01*
G37*
X10174216Y-8200000D02*
X10174216Y-8274843D01*
X10173552Y-8275837D01*
X10170552Y-8278249D01*
X10170109Y-8278491D01*
X10166719Y-8281329D01*
X10163459Y-8283949D01*
X9825784Y-8316265D01*
X9825784Y-8200000D01*
X9825286Y-8197500D01*
X10174714Y-8197500D01*
X10174216Y-8200000D01*
G36*
X10174216Y-13380000D02*
X10177321Y-13395607D01*
X10186162Y-13408838D01*
X10199393Y-13417679D01*
X10215000Y-13420784D01*
X10452500Y-13420784D01*
X10452500Y-13539216D01*
X10215000Y-13539216D01*
X10211061Y-13540000D01*
X9788939Y-13540000D01*
X9785000Y-13539216D01*
X9547500Y-13539216D01*
X9547500Y-13420784D01*
X9785000Y-13420784D01*
X9800607Y-13417679D01*
X9813838Y-13408838D01*
X9822679Y-13395607D01*
X9825784Y-13380000D01*
X9825784Y-13316722D01*
X10174216Y-13283376D01*
X10174216Y-13380000D01*
X10174216Y-13380000D01*
G37*
X10174216Y-13380000D02*
X10177321Y-13395607D01*
X10186162Y-13408838D01*
X10199393Y-13417679D01*
X10215000Y-13420784D01*
X10452500Y-13420784D01*
X10452500Y-13539216D01*
X10215000Y-13539216D01*
X10211061Y-13540000D01*
X9788939Y-13540000D01*
X9785000Y-13539216D01*
X9547500Y-13539216D01*
X9547500Y-13420784D01*
X9785000Y-13420784D01*
X9800607Y-13417679D01*
X9813838Y-13408838D01*
X9822679Y-13395607D01*
X9825784Y-13380000D01*
X9825784Y-13316722D01*
X10174216Y-13283376D01*
X10174216Y-13380000D01*
G36*
X10174216Y-13100000D02*
X10174216Y-13174843D01*
X10173552Y-13175837D01*
X10170552Y-13178249D01*
X10170109Y-13178491D01*
X10166719Y-13181329D01*
X10163459Y-13183949D01*
X9825784Y-13216265D01*
X9825784Y-13100000D01*
X9825286Y-13097500D01*
X10174714Y-13097500D01*
X10174216Y-13100000D01*
X10174216Y-13100000D01*
G37*
X10174216Y-13100000D02*
X10174216Y-13174843D01*
X10173552Y-13175837D01*
X10170552Y-13178249D01*
X10170109Y-13178491D01*
X10166719Y-13181329D01*
X10163459Y-13183949D01*
X9825784Y-13216265D01*
X9825784Y-13100000D01*
X9825286Y-13097500D01*
X10174714Y-13097500D01*
X10174216Y-13100000D01*
G36*
X10174216Y-14080000D02*
X10177321Y-14095607D01*
X10186162Y-14108838D01*
X10199393Y-14117679D01*
X10215000Y-14120784D01*
X10452500Y-14120784D01*
X10452500Y-14239216D01*
X10215000Y-14239216D01*
X10211061Y-14240000D01*
X9788939Y-14240000D01*
X9785000Y-14239216D01*
X9547500Y-14239216D01*
X9547500Y-14120784D01*
X9785000Y-14120784D01*
X9800607Y-14117679D01*
X9813838Y-14108838D01*
X9822679Y-14095607D01*
X9825784Y-14080000D01*
X9825784Y-14016722D01*
X10174216Y-13983376D01*
X10174216Y-14080000D01*
X10174216Y-14080000D01*
G37*
X10174216Y-14080000D02*
X10177321Y-14095607D01*
X10186162Y-14108838D01*
X10199393Y-14117679D01*
X10215000Y-14120784D01*
X10452500Y-14120784D01*
X10452500Y-14239216D01*
X10215000Y-14239216D01*
X10211061Y-14240000D01*
X9788939Y-14240000D01*
X9785000Y-14239216D01*
X9547500Y-14239216D01*
X9547500Y-14120784D01*
X9785000Y-14120784D01*
X9800607Y-14117679D01*
X9813838Y-14108838D01*
X9822679Y-14095607D01*
X9825784Y-14080000D01*
X9825784Y-14016722D01*
X10174216Y-13983376D01*
X10174216Y-14080000D01*
G36*
X10174216Y-13800000D02*
X10174216Y-13874843D01*
X10173552Y-13875837D01*
X10170552Y-13878249D01*
X10170109Y-13878491D01*
X10166719Y-13881329D01*
X10163459Y-13883949D01*
X9825784Y-13916265D01*
X9825784Y-13800000D01*
X9825286Y-13797500D01*
X10174714Y-13797500D01*
X10174216Y-13800000D01*
X10174216Y-13800000D01*
G37*
X10174216Y-13800000D02*
X10174216Y-13874843D01*
X10173552Y-13875837D01*
X10170552Y-13878249D01*
X10170109Y-13878491D01*
X10166719Y-13881329D01*
X10163459Y-13883949D01*
X9825784Y-13916265D01*
X9825784Y-13800000D01*
X9825286Y-13797500D01*
X10174714Y-13797500D01*
X10174216Y-13800000D01*
G36*
X10174216Y-9180000D02*
X10177321Y-9195607D01*
X10186162Y-9208838D01*
X10199393Y-9217679D01*
X10215000Y-9220784D01*
X10452500Y-9220784D01*
X10452500Y-9339216D01*
X10215000Y-9339216D01*
X10211061Y-9340000D01*
X9788939Y-9340000D01*
X9785000Y-9339216D01*
X9547500Y-9339216D01*
X9547500Y-9220784D01*
X9785000Y-9220784D01*
X9800607Y-9217679D01*
X9813838Y-9208838D01*
X9822679Y-9195607D01*
X9825784Y-9180000D01*
X9825784Y-9116722D01*
X10174216Y-9083377D01*
X10174216Y-9180000D01*
X10174216Y-9180000D01*
G37*
X10174216Y-9180000D02*
X10177321Y-9195607D01*
X10186162Y-9208838D01*
X10199393Y-9217679D01*
X10215000Y-9220784D01*
X10452500Y-9220784D01*
X10452500Y-9339216D01*
X10215000Y-9339216D01*
X10211061Y-9340000D01*
X9788939Y-9340000D01*
X9785000Y-9339216D01*
X9547500Y-9339216D01*
X9547500Y-9220784D01*
X9785000Y-9220784D01*
X9800607Y-9217679D01*
X9813838Y-9208838D01*
X9822679Y-9195607D01*
X9825784Y-9180000D01*
X9825784Y-9116722D01*
X10174216Y-9083377D01*
X10174216Y-9180000D01*
G36*
X10174216Y-8900000D02*
X10174216Y-8974843D01*
X10173552Y-8975837D01*
X10170552Y-8978249D01*
X10170109Y-8978491D01*
X10166719Y-8981329D01*
X10163459Y-8983949D01*
X9825784Y-9016265D01*
X9825784Y-8900000D01*
X9825286Y-8897500D01*
X10174714Y-8897500D01*
X10174216Y-8900000D01*
X10174216Y-8900000D01*
G37*
X10174216Y-8900000D02*
X10174216Y-8974843D01*
X10173552Y-8975837D01*
X10170552Y-8978249D01*
X10170109Y-8978491D01*
X10166719Y-8981329D01*
X10163459Y-8983949D01*
X9825784Y-9016265D01*
X9825784Y-8900000D01*
X9825286Y-8897500D01*
X10174714Y-8897500D01*
X10174216Y-8900000D01*
G36*
X10174216Y-9880000D02*
X10177321Y-9895607D01*
X10186162Y-9908838D01*
X10199393Y-9917679D01*
X10215000Y-9920784D01*
X10452500Y-9920784D01*
X10452500Y-10039216D01*
X10215000Y-10039216D01*
X10211061Y-10040000D01*
X9788939Y-10040000D01*
X9785000Y-10039216D01*
X9547500Y-10039216D01*
X9547500Y-9920784D01*
X9785000Y-9920784D01*
X9800607Y-9917679D01*
X9813838Y-9908838D01*
X9822679Y-9895607D01*
X9825784Y-9880000D01*
X9825784Y-9816722D01*
X10174216Y-9783377D01*
X10174216Y-9880000D01*
X10174216Y-9880000D01*
G37*
X10174216Y-9880000D02*
X10177321Y-9895607D01*
X10186162Y-9908838D01*
X10199393Y-9917679D01*
X10215000Y-9920784D01*
X10452500Y-9920784D01*
X10452500Y-10039216D01*
X10215000Y-10039216D01*
X10211061Y-10040000D01*
X9788939Y-10040000D01*
X9785000Y-10039216D01*
X9547500Y-10039216D01*
X9547500Y-9920784D01*
X9785000Y-9920784D01*
X9800607Y-9917679D01*
X9813838Y-9908838D01*
X9822679Y-9895607D01*
X9825784Y-9880000D01*
X9825784Y-9816722D01*
X10174216Y-9783377D01*
X10174216Y-9880000D01*
G36*
X10174216Y-9600000D02*
X10174216Y-9674843D01*
X10173552Y-9675837D01*
X10170552Y-9678249D01*
X10170109Y-9678491D01*
X10166719Y-9681329D01*
X10163459Y-9683949D01*
X9825784Y-9716265D01*
X9825784Y-9600000D01*
X9825286Y-9597500D01*
X10174714Y-9597500D01*
X10174216Y-9600000D01*
X10174216Y-9600000D01*
G37*
X10174216Y-9600000D02*
X10174216Y-9674843D01*
X10173552Y-9675837D01*
X10170552Y-9678249D01*
X10170109Y-9678491D01*
X10166719Y-9681329D01*
X10163459Y-9683949D01*
X9825784Y-9716265D01*
X9825784Y-9600000D01*
X9825286Y-9597500D01*
X10174714Y-9597500D01*
X10174216Y-9600000D01*
G36*
X10174216Y-10580000D02*
X10177321Y-10595607D01*
X10186162Y-10608838D01*
X10199393Y-10617679D01*
X10215000Y-10620784D01*
X10452500Y-10620784D01*
X10452500Y-10739216D01*
X10215000Y-10739216D01*
X10211061Y-10740000D01*
X9788939Y-10740000D01*
X9785000Y-10739216D01*
X9547500Y-10739216D01*
X9547500Y-10620784D01*
X9785000Y-10620784D01*
X9800607Y-10617679D01*
X9813838Y-10608838D01*
X9822679Y-10595607D01*
X9825784Y-10580000D01*
X9825784Y-10516722D01*
X10174216Y-10483377D01*
X10174216Y-10580000D01*
X10174216Y-10580000D01*
G37*
X10174216Y-10580000D02*
X10177321Y-10595607D01*
X10186162Y-10608838D01*
X10199393Y-10617679D01*
X10215000Y-10620784D01*
X10452500Y-10620784D01*
X10452500Y-10739216D01*
X10215000Y-10739216D01*
X10211061Y-10740000D01*
X9788939Y-10740000D01*
X9785000Y-10739216D01*
X9547500Y-10739216D01*
X9547500Y-10620784D01*
X9785000Y-10620784D01*
X9800607Y-10617679D01*
X9813838Y-10608838D01*
X9822679Y-10595607D01*
X9825784Y-10580000D01*
X9825784Y-10516722D01*
X10174216Y-10483377D01*
X10174216Y-10580000D01*
G36*
X10174216Y-10300000D02*
X10174216Y-10374843D01*
X10173552Y-10375837D01*
X10170552Y-10378249D01*
X10170109Y-10378491D01*
X10166719Y-10381329D01*
X10163459Y-10383949D01*
X9825784Y-10416265D01*
X9825784Y-10300000D01*
X9825286Y-10297500D01*
X10174714Y-10297500D01*
X10174216Y-10300000D01*
X10174216Y-10300000D01*
G37*
X10174216Y-10300000D02*
X10174216Y-10374843D01*
X10173552Y-10375837D01*
X10170552Y-10378249D01*
X10170109Y-10378491D01*
X10166719Y-10381329D01*
X10163459Y-10383949D01*
X9825784Y-10416265D01*
X9825784Y-10300000D01*
X9825286Y-10297500D01*
X10174714Y-10297500D01*
X10174216Y-10300000D01*
G36*
X10174216Y-11280000D02*
X10177321Y-11295607D01*
X10186162Y-11308838D01*
X10199393Y-11317679D01*
X10215000Y-11320784D01*
X10452500Y-11320784D01*
X10452500Y-11439216D01*
X10215000Y-11439216D01*
X10211061Y-11440000D01*
X9788939Y-11440000D01*
X9785000Y-11439216D01*
X9547500Y-11439216D01*
X9547500Y-11320784D01*
X9785000Y-11320784D01*
X9800607Y-11317679D01*
X9813838Y-11308838D01*
X9822679Y-11295607D01*
X9825784Y-11280000D01*
X9825784Y-11216722D01*
X10174216Y-11183377D01*
X10174216Y-11280000D01*
X10174216Y-11280000D01*
G37*
X10174216Y-11280000D02*
X10177321Y-11295607D01*
X10186162Y-11308838D01*
X10199393Y-11317679D01*
X10215000Y-11320784D01*
X10452500Y-11320784D01*
X10452500Y-11439216D01*
X10215000Y-11439216D01*
X10211061Y-11440000D01*
X9788939Y-11440000D01*
X9785000Y-11439216D01*
X9547500Y-11439216D01*
X9547500Y-11320784D01*
X9785000Y-11320784D01*
X9800607Y-11317679D01*
X9813838Y-11308838D01*
X9822679Y-11295607D01*
X9825784Y-11280000D01*
X9825784Y-11216722D01*
X10174216Y-11183377D01*
X10174216Y-11280000D01*
G36*
X10174216Y-11000000D02*
X10174216Y-11074843D01*
X10173552Y-11075837D01*
X10170552Y-11078249D01*
X10170109Y-11078491D01*
X10166719Y-11081329D01*
X10163459Y-11083949D01*
X9825784Y-11116265D01*
X9825784Y-11000000D01*
X9825286Y-10997500D01*
X10174714Y-10997500D01*
X10174216Y-11000000D01*
X10174216Y-11000000D01*
G37*
X10174216Y-11000000D02*
X10174216Y-11074843D01*
X10173552Y-11075837D01*
X10170552Y-11078249D01*
X10170109Y-11078491D01*
X10166719Y-11081329D01*
X10163459Y-11083949D01*
X9825784Y-11116265D01*
X9825784Y-11000000D01*
X9825286Y-10997500D01*
X10174714Y-10997500D01*
X10174216Y-11000000D01*
G36*
X10174216Y-11980000D02*
X10177321Y-11995607D01*
X10186162Y-12008838D01*
X10199393Y-12017679D01*
X10215000Y-12020784D01*
X10452500Y-12020784D01*
X10452500Y-12139216D01*
X10215000Y-12139216D01*
X10211061Y-12140000D01*
X9788939Y-12140000D01*
X9785000Y-12139216D01*
X9547500Y-12139216D01*
X9547500Y-12020784D01*
X9785000Y-12020784D01*
X9800607Y-12017679D01*
X9813838Y-12008838D01*
X9822679Y-11995607D01*
X9825784Y-11980000D01*
X9825784Y-11916722D01*
X10174216Y-11883376D01*
X10174216Y-11980000D01*
X10174216Y-11980000D01*
G37*
X10174216Y-11980000D02*
X10177321Y-11995607D01*
X10186162Y-12008838D01*
X10199393Y-12017679D01*
X10215000Y-12020784D01*
X10452500Y-12020784D01*
X10452500Y-12139216D01*
X10215000Y-12139216D01*
X10211061Y-12140000D01*
X9788939Y-12140000D01*
X9785000Y-12139216D01*
X9547500Y-12139216D01*
X9547500Y-12020784D01*
X9785000Y-12020784D01*
X9800607Y-12017679D01*
X9813838Y-12008838D01*
X9822679Y-11995607D01*
X9825784Y-11980000D01*
X9825784Y-11916722D01*
X10174216Y-11883376D01*
X10174216Y-11980000D01*
G36*
X10174216Y-11700000D02*
X10174216Y-11774843D01*
X10173552Y-11775837D01*
X10170552Y-11778249D01*
X10170109Y-11778491D01*
X10166719Y-11781329D01*
X10163459Y-11783949D01*
X9825784Y-11816265D01*
X9825784Y-11700000D01*
X9825286Y-11697500D01*
X10174714Y-11697500D01*
X10174216Y-11700000D01*
X10174216Y-11700000D01*
G37*
X10174216Y-11700000D02*
X10174216Y-11774843D01*
X10173552Y-11775837D01*
X10170552Y-11778249D01*
X10170109Y-11778491D01*
X10166719Y-11781329D01*
X10163459Y-11783949D01*
X9825784Y-11816265D01*
X9825784Y-11700000D01*
X9825286Y-11697500D01*
X10174714Y-11697500D01*
X10174216Y-11700000D01*
G36*
X10174216Y-12680000D02*
X10177321Y-12695607D01*
X10186162Y-12708838D01*
X10199393Y-12717679D01*
X10215000Y-12720784D01*
X10452500Y-12720784D01*
X10452500Y-12839216D01*
X10215000Y-12839216D01*
X10211061Y-12840000D01*
X9788939Y-12840000D01*
X9785000Y-12839216D01*
X9547500Y-12839216D01*
X9547500Y-12720784D01*
X9785000Y-12720784D01*
X9800607Y-12717679D01*
X9813838Y-12708838D01*
X9822679Y-12695607D01*
X9825784Y-12680000D01*
X9825784Y-12616722D01*
X10174216Y-12583376D01*
X10174216Y-12680000D01*
X10174216Y-12680000D01*
G37*
X10174216Y-12680000D02*
X10177321Y-12695607D01*
X10186162Y-12708838D01*
X10199393Y-12717679D01*
X10215000Y-12720784D01*
X10452500Y-12720784D01*
X10452500Y-12839216D01*
X10215000Y-12839216D01*
X10211061Y-12840000D01*
X9788939Y-12840000D01*
X9785000Y-12839216D01*
X9547500Y-12839216D01*
X9547500Y-12720784D01*
X9785000Y-12720784D01*
X9800607Y-12717679D01*
X9813838Y-12708838D01*
X9822679Y-12695607D01*
X9825784Y-12680000D01*
X9825784Y-12616722D01*
X10174216Y-12583376D01*
X10174216Y-12680000D01*
G36*
X10174216Y-12400000D02*
X10174216Y-12474843D01*
X10173552Y-12475837D01*
X10170552Y-12478249D01*
X10170109Y-12478491D01*
X10166719Y-12481329D01*
X10163459Y-12483949D01*
X9825784Y-12516265D01*
X9825784Y-12400000D01*
X9825286Y-12397500D01*
X10174714Y-12397500D01*
X10174216Y-12400000D01*
X10174216Y-12400000D01*
G37*
X10174216Y-12400000D02*
X10174216Y-12474843D01*
X10173552Y-12475837D01*
X10170552Y-12478249D01*
X10170109Y-12478491D01*
X10166719Y-12481329D01*
X10163459Y-12483949D01*
X9825784Y-12516265D01*
X9825784Y-12400000D01*
X9825286Y-12397500D01*
X10174714Y-12397500D01*
X10174216Y-12400000D01*
M02*
