G04 #@! TF.GenerationSoftware,KiCad,Pcbnew,(5.0.0-rc2-dev-596-gcfd2f1d00)*
G04 #@! TF.CreationDate,2018-11-17T14:23:37+02:00*
G04 #@! TF.ProjectId,WS2813_module,5753323831335F6D6F64756C652E6B69,rev?*
G04 #@! TF.SameCoordinates,Original*
G04 #@! TF.FileFunction,Legend,Top*
G04 #@! TF.FilePolarity,Positive*
%FSLAX45Y45*%
G04 Gerber Fmt 4.5, Leading zero omitted, Abs format (unit mm)*
G04 Created by KiCad (PCBNEW (5.0.0-rc2-dev-596-gcfd2f1d00)) date 11/17/18 14:23:37*
%MOMM*%
%LPD*%
G01*
G04 APERTURE LIST*
%ADD10C,0.150000*%
%ADD11C,0.149860*%
%ADD12C,0.100000*%
%ADD13C,0.500000*%
G04 APERTURE END LIST*
D10*
X10250000Y-4395000D02*
X10225000Y-4420000D01*
X10200000Y-4420000D02*
X10250000Y-4395000D01*
X10250000Y-4445000D02*
X10225000Y-4420000D01*
X10200000Y-4420000D02*
X10250000Y-4445000D01*
X10200000Y-4420000D02*
X10425000Y-4420000D01*
D11*
X10250000Y-5250000D02*
X9750000Y-5250000D01*
D10*
X10250000Y-4750000D02*
X10250000Y-5250000D01*
X9750000Y-4750000D02*
X10250000Y-4750000D01*
X9750000Y-5250000D02*
X9750000Y-4750000D01*
X10220000Y-5000000D02*
G75*
G03X10220000Y-5000000I-220000J0D01*
G01*
X9750000Y-4840000D02*
X9840000Y-4750000D01*
X9830000Y-4750000D02*
X9750000Y-4830000D01*
X9750000Y-4810000D02*
X9810000Y-4750000D01*
X9790000Y-4750000D02*
X9750000Y-4790000D01*
X9750000Y-4770000D02*
X9770000Y-4750000D01*
X9850000Y-4750000D02*
X9750000Y-4850000D01*
X9805000Y-4325000D02*
X9805000Y-4625000D01*
X9805000Y-4625000D02*
X9645000Y-4625000D01*
X9645000Y-4625000D02*
X9645000Y-4325000D01*
X9645000Y-4325000D02*
X9805000Y-4325000D01*
X9890000Y-4530000D02*
X9890000Y-4370000D01*
X9855000Y-4530000D02*
X9855000Y-4370000D01*
X9855000Y-4370000D02*
X10145000Y-4370000D01*
X10145000Y-4370000D02*
X10145000Y-4530000D01*
X10145000Y-4530000D02*
X9855000Y-4530000D01*
X9905000Y-4370000D02*
X10150000Y-4370000D01*
X10150000Y-4370000D02*
X10150000Y-4530000D01*
X10150000Y-4530000D02*
X9905000Y-4530000D01*
X9905000Y-4530000D02*
X9905000Y-4370000D01*
D12*
G36*
X9916010Y-5845022D02*
X9914339Y-5847255D01*
X9910913Y-5850033D01*
X9906104Y-5853152D01*
X9900283Y-5856407D01*
X9893823Y-5859596D01*
X9887094Y-5862513D01*
X9880468Y-5864955D01*
X9874317Y-5866717D01*
X9872722Y-5867062D01*
X9866634Y-5867937D01*
X9858960Y-5868548D01*
X9850360Y-5868893D01*
X9841496Y-5868971D01*
X9833029Y-5868780D01*
X9825619Y-5868319D01*
X9819927Y-5867586D01*
X9818190Y-5867192D01*
X9808386Y-5863563D01*
X9800995Y-5858798D01*
X9796000Y-5852881D01*
X9793388Y-5845799D01*
X9793084Y-5843625D01*
X9793576Y-5835309D01*
X9796650Y-5827454D01*
X9802242Y-5820126D01*
X9810288Y-5813392D01*
X9820726Y-5807318D01*
X9832529Y-5802317D01*
X9845501Y-5798266D01*
X9858098Y-5795639D01*
X9869859Y-5794486D01*
X9880318Y-5794860D01*
X9887337Y-5796262D01*
X9893627Y-5799081D01*
X9898401Y-5803105D01*
X9901412Y-5807894D01*
X9902411Y-5813004D01*
X9901148Y-5817992D01*
X9900317Y-5819362D01*
X9896176Y-5823193D01*
X9889416Y-5826616D01*
X9884748Y-5828117D01*
X9884748Y-5813880D01*
X9884527Y-5811245D01*
X9881742Y-5808690D01*
X9880687Y-5808098D01*
X9873915Y-5805852D01*
X9865607Y-5805084D01*
X9856416Y-5805738D01*
X9846997Y-5807757D01*
X9838003Y-5811086D01*
X9836277Y-5811922D01*
X9832020Y-5814353D01*
X9827754Y-5817238D01*
X9823955Y-5820186D01*
X9821100Y-5822805D01*
X9819665Y-5824704D01*
X9819836Y-5825433D01*
X9822887Y-5826007D01*
X9827959Y-5826272D01*
X9834419Y-5826253D01*
X9841636Y-5825975D01*
X9848977Y-5825463D01*
X9855810Y-5824741D01*
X9861504Y-5823835D01*
X9861718Y-5823791D01*
X9870893Y-5821549D01*
X9877846Y-5819102D01*
X9882493Y-5816522D01*
X9884748Y-5813880D01*
X9884748Y-5828117D01*
X9880065Y-5829624D01*
X9868148Y-5832209D01*
X9853690Y-5834363D01*
X9847890Y-5835029D01*
X9835632Y-5836530D01*
X9826006Y-5838129D01*
X9818976Y-5839837D01*
X9814501Y-5841661D01*
X9812977Y-5842874D01*
X9812632Y-5845165D01*
X9814281Y-5848165D01*
X9817517Y-5851408D01*
X9821932Y-5854429D01*
X9824040Y-5855519D01*
X9829804Y-5857733D01*
X9835862Y-5858960D01*
X9842561Y-5859160D01*
X9850249Y-5858295D01*
X9859277Y-5856326D01*
X9869990Y-5853213D01*
X9882555Y-5848983D01*
X9893465Y-5845419D01*
X9902200Y-5843201D01*
X9908886Y-5842309D01*
X9913646Y-5842721D01*
X9915554Y-5843538D01*
X9916010Y-5845022D01*
X9916010Y-5845022D01*
G37*
X9916010Y-5845022D02*
X9914339Y-5847255D01*
X9910913Y-5850033D01*
X9906104Y-5853152D01*
X9900283Y-5856407D01*
X9893823Y-5859596D01*
X9887094Y-5862513D01*
X9880468Y-5864955D01*
X9874317Y-5866717D01*
X9872722Y-5867062D01*
X9866634Y-5867937D01*
X9858960Y-5868548D01*
X9850360Y-5868893D01*
X9841496Y-5868971D01*
X9833029Y-5868780D01*
X9825619Y-5868319D01*
X9819927Y-5867586D01*
X9818190Y-5867192D01*
X9808386Y-5863563D01*
X9800995Y-5858798D01*
X9796000Y-5852881D01*
X9793388Y-5845799D01*
X9793084Y-5843625D01*
X9793576Y-5835309D01*
X9796650Y-5827454D01*
X9802242Y-5820126D01*
X9810288Y-5813392D01*
X9820726Y-5807318D01*
X9832529Y-5802317D01*
X9845501Y-5798266D01*
X9858098Y-5795639D01*
X9869859Y-5794486D01*
X9880318Y-5794860D01*
X9887337Y-5796262D01*
X9893627Y-5799081D01*
X9898401Y-5803105D01*
X9901412Y-5807894D01*
X9902411Y-5813004D01*
X9901148Y-5817992D01*
X9900317Y-5819362D01*
X9896176Y-5823193D01*
X9889416Y-5826616D01*
X9884748Y-5828117D01*
X9884748Y-5813880D01*
X9884527Y-5811245D01*
X9881742Y-5808690D01*
X9880687Y-5808098D01*
X9873915Y-5805852D01*
X9865607Y-5805084D01*
X9856416Y-5805738D01*
X9846997Y-5807757D01*
X9838003Y-5811086D01*
X9836277Y-5811922D01*
X9832020Y-5814353D01*
X9827754Y-5817238D01*
X9823955Y-5820186D01*
X9821100Y-5822805D01*
X9819665Y-5824704D01*
X9819836Y-5825433D01*
X9822887Y-5826007D01*
X9827959Y-5826272D01*
X9834419Y-5826253D01*
X9841636Y-5825975D01*
X9848977Y-5825463D01*
X9855810Y-5824741D01*
X9861504Y-5823835D01*
X9861718Y-5823791D01*
X9870893Y-5821549D01*
X9877846Y-5819102D01*
X9882493Y-5816522D01*
X9884748Y-5813880D01*
X9884748Y-5828117D01*
X9880065Y-5829624D01*
X9868148Y-5832209D01*
X9853690Y-5834363D01*
X9847890Y-5835029D01*
X9835632Y-5836530D01*
X9826006Y-5838129D01*
X9818976Y-5839837D01*
X9814501Y-5841661D01*
X9812977Y-5842874D01*
X9812632Y-5845165D01*
X9814281Y-5848165D01*
X9817517Y-5851408D01*
X9821932Y-5854429D01*
X9824040Y-5855519D01*
X9829804Y-5857733D01*
X9835862Y-5858960D01*
X9842561Y-5859160D01*
X9850249Y-5858295D01*
X9859277Y-5856326D01*
X9869990Y-5853213D01*
X9882555Y-5848983D01*
X9893465Y-5845419D01*
X9902200Y-5843201D01*
X9908886Y-5842309D01*
X9913646Y-5842721D01*
X9915554Y-5843538D01*
X9916010Y-5845022D01*
G36*
X9998461Y-5841348D02*
X9997561Y-5842731D01*
X9997416Y-5842909D01*
X9993084Y-5846456D01*
X9986712Y-5849462D01*
X9978899Y-5851826D01*
X9970243Y-5853450D01*
X9961341Y-5854232D01*
X9952792Y-5854073D01*
X9945192Y-5852872D01*
X9942587Y-5852090D01*
X9938053Y-5849786D01*
X9933087Y-5846187D01*
X9930414Y-5843762D01*
X9924822Y-5836727D01*
X9921357Y-5828814D01*
X9919997Y-5819826D01*
X9920721Y-5809563D01*
X9923506Y-5797827D01*
X9924881Y-5793574D01*
X9927375Y-5786058D01*
X9928886Y-5780604D01*
X9929382Y-5776773D01*
X9928830Y-5774128D01*
X9927197Y-5772231D01*
X9924451Y-5770644D01*
X9923132Y-5770041D01*
X9919657Y-5768330D01*
X9917485Y-5766926D01*
X9917117Y-5766440D01*
X9918237Y-5765575D01*
X9921253Y-5763847D01*
X9925651Y-5761508D01*
X9930916Y-5758816D01*
X9936534Y-5756022D01*
X9941992Y-5753384D01*
X9946775Y-5751154D01*
X9950369Y-5749588D01*
X9952260Y-5748941D01*
X9952416Y-5748960D01*
X9952143Y-5750332D01*
X9951078Y-5753669D01*
X9949400Y-5758443D01*
X9947646Y-5763173D01*
X9944039Y-5773035D01*
X9941419Y-5781141D01*
X9939641Y-5788157D01*
X9938558Y-5794749D01*
X9938025Y-5801583D01*
X9937895Y-5807610D01*
X9937922Y-5814065D01*
X9938158Y-5818605D01*
X9938745Y-5821991D01*
X9939823Y-5824981D01*
X9941535Y-5828335D01*
X9941847Y-5828903D01*
X9947125Y-5835980D01*
X9953904Y-5841182D01*
X9961709Y-5844162D01*
X9963338Y-5844459D01*
X9967982Y-5844683D01*
X9974498Y-5844361D01*
X9982157Y-5843563D01*
X9990230Y-5842356D01*
X9994653Y-5841528D01*
X9997638Y-5841020D01*
X9998461Y-5841348D01*
X9998461Y-5841348D01*
G37*
X9998461Y-5841348D02*
X9997561Y-5842731D01*
X9997416Y-5842909D01*
X9993084Y-5846456D01*
X9986712Y-5849462D01*
X9978899Y-5851826D01*
X9970243Y-5853450D01*
X9961341Y-5854232D01*
X9952792Y-5854073D01*
X9945192Y-5852872D01*
X9942587Y-5852090D01*
X9938053Y-5849786D01*
X9933087Y-5846187D01*
X9930414Y-5843762D01*
X9924822Y-5836727D01*
X9921357Y-5828814D01*
X9919997Y-5819826D01*
X9920721Y-5809563D01*
X9923506Y-5797827D01*
X9924881Y-5793574D01*
X9927375Y-5786058D01*
X9928886Y-5780604D01*
X9929382Y-5776773D01*
X9928830Y-5774128D01*
X9927197Y-5772231D01*
X9924451Y-5770644D01*
X9923132Y-5770041D01*
X9919657Y-5768330D01*
X9917485Y-5766926D01*
X9917117Y-5766440D01*
X9918237Y-5765575D01*
X9921253Y-5763847D01*
X9925651Y-5761508D01*
X9930916Y-5758816D01*
X9936534Y-5756022D01*
X9941992Y-5753384D01*
X9946775Y-5751154D01*
X9950369Y-5749588D01*
X9952260Y-5748941D01*
X9952416Y-5748960D01*
X9952143Y-5750332D01*
X9951078Y-5753669D01*
X9949400Y-5758443D01*
X9947646Y-5763173D01*
X9944039Y-5773035D01*
X9941419Y-5781141D01*
X9939641Y-5788157D01*
X9938558Y-5794749D01*
X9938025Y-5801583D01*
X9937895Y-5807610D01*
X9937922Y-5814065D01*
X9938158Y-5818605D01*
X9938745Y-5821991D01*
X9939823Y-5824981D01*
X9941535Y-5828335D01*
X9941847Y-5828903D01*
X9947125Y-5835980D01*
X9953904Y-5841182D01*
X9961709Y-5844162D01*
X9963338Y-5844459D01*
X9967982Y-5844683D01*
X9974498Y-5844361D01*
X9982157Y-5843563D01*
X9990230Y-5842356D01*
X9994653Y-5841528D01*
X9997638Y-5841020D01*
X9998461Y-5841348D01*
G36*
X10110268Y-5790266D02*
X10108911Y-5791355D01*
X10105826Y-5793402D01*
X10101597Y-5796023D01*
X10100128Y-5796904D01*
X10095213Y-5799699D01*
X10092063Y-5801130D01*
X10090239Y-5801354D01*
X10089429Y-5800747D01*
X10088385Y-5798585D01*
X10088252Y-5797957D01*
X10087370Y-5798388D01*
X10085023Y-5800349D01*
X10081992Y-5803145D01*
X10081992Y-5786685D01*
X10073414Y-5771084D01*
X10069526Y-5764319D01*
X10066182Y-5759105D01*
X10063590Y-5755750D01*
X10062163Y-5754598D01*
X10057524Y-5753874D01*
X10051254Y-5753992D01*
X10044231Y-5754875D01*
X10037336Y-5756448D01*
X10035996Y-5756856D01*
X10026187Y-5761076D01*
X10018198Y-5766726D01*
X10012174Y-5773532D01*
X10008256Y-5781222D01*
X10006590Y-5789523D01*
X10007318Y-5798161D01*
X10010141Y-5806002D01*
X10015064Y-5813287D01*
X10021350Y-5818347D01*
X10028811Y-5821132D01*
X10037255Y-5821591D01*
X10046491Y-5819674D01*
X10052651Y-5817214D01*
X10061453Y-5812033D01*
X10069383Y-5805397D01*
X10075732Y-5797952D01*
X10078240Y-5793850D01*
X10081992Y-5786685D01*
X10081992Y-5803145D01*
X10081633Y-5803476D01*
X10079734Y-5805310D01*
X10067896Y-5815266D01*
X10055357Y-5822646D01*
X10042099Y-5827455D01*
X10028108Y-5829704D01*
X10026068Y-5829815D01*
X10016879Y-5829810D01*
X10009936Y-5828904D01*
X10007980Y-5828369D01*
X9999854Y-5824493D01*
X9993562Y-5818918D01*
X9989261Y-5812030D01*
X9987111Y-5804215D01*
X9987271Y-5795858D01*
X9989900Y-5787345D01*
X9990541Y-5786031D01*
X9995662Y-5778415D01*
X10002946Y-5770859D01*
X10011895Y-5763688D01*
X10022011Y-5757223D01*
X10032798Y-5751787D01*
X10043757Y-5747703D01*
X10053019Y-5745506D01*
X10058580Y-5744585D01*
X10054356Y-5737377D01*
X10050683Y-5732073D01*
X10046826Y-5728977D01*
X10042052Y-5727734D01*
X10035629Y-5727987D01*
X10035145Y-5728046D01*
X10027481Y-5729003D01*
X10036945Y-5719040D01*
X10041487Y-5713959D01*
X10045738Y-5708682D01*
X10049047Y-5704037D01*
X10050132Y-5702235D01*
X10052271Y-5698677D01*
X10054012Y-5696436D01*
X10054824Y-5695993D01*
X10055549Y-5697573D01*
X10056239Y-5700851D01*
X10056456Y-5702478D01*
X10056954Y-5704752D01*
X10058089Y-5707757D01*
X10059998Y-5711746D01*
X10062818Y-5716973D01*
X10066684Y-5723692D01*
X10071735Y-5732155D01*
X10077898Y-5742280D01*
X10083306Y-5751107D01*
X10088394Y-5759413D01*
X10092958Y-5766864D01*
X10096791Y-5773122D01*
X10099687Y-5777852D01*
X10101441Y-5780717D01*
X10101665Y-5781084D01*
X10104305Y-5784603D01*
X10107127Y-5787238D01*
X10107761Y-5787635D01*
X10109853Y-5789174D01*
X10110268Y-5790266D01*
X10110268Y-5790266D01*
G37*
X10110268Y-5790266D02*
X10108911Y-5791355D01*
X10105826Y-5793402D01*
X10101597Y-5796023D01*
X10100128Y-5796904D01*
X10095213Y-5799699D01*
X10092063Y-5801130D01*
X10090239Y-5801354D01*
X10089429Y-5800747D01*
X10088385Y-5798585D01*
X10088252Y-5797957D01*
X10087370Y-5798388D01*
X10085023Y-5800349D01*
X10081992Y-5803145D01*
X10081992Y-5786685D01*
X10073414Y-5771084D01*
X10069526Y-5764319D01*
X10066182Y-5759105D01*
X10063590Y-5755750D01*
X10062163Y-5754598D01*
X10057524Y-5753874D01*
X10051254Y-5753992D01*
X10044231Y-5754875D01*
X10037336Y-5756448D01*
X10035996Y-5756856D01*
X10026187Y-5761076D01*
X10018198Y-5766726D01*
X10012174Y-5773532D01*
X10008256Y-5781222D01*
X10006590Y-5789523D01*
X10007318Y-5798161D01*
X10010141Y-5806002D01*
X10015064Y-5813287D01*
X10021350Y-5818347D01*
X10028811Y-5821132D01*
X10037255Y-5821591D01*
X10046491Y-5819674D01*
X10052651Y-5817214D01*
X10061453Y-5812033D01*
X10069383Y-5805397D01*
X10075732Y-5797952D01*
X10078240Y-5793850D01*
X10081992Y-5786685D01*
X10081992Y-5803145D01*
X10081633Y-5803476D01*
X10079734Y-5805310D01*
X10067896Y-5815266D01*
X10055357Y-5822646D01*
X10042099Y-5827455D01*
X10028108Y-5829704D01*
X10026068Y-5829815D01*
X10016879Y-5829810D01*
X10009936Y-5828904D01*
X10007980Y-5828369D01*
X9999854Y-5824493D01*
X9993562Y-5818918D01*
X9989261Y-5812030D01*
X9987111Y-5804215D01*
X9987271Y-5795858D01*
X9989900Y-5787345D01*
X9990541Y-5786031D01*
X9995662Y-5778415D01*
X10002946Y-5770859D01*
X10011895Y-5763688D01*
X10022011Y-5757223D01*
X10032798Y-5751787D01*
X10043757Y-5747703D01*
X10053019Y-5745506D01*
X10058580Y-5744585D01*
X10054356Y-5737377D01*
X10050683Y-5732073D01*
X10046826Y-5728977D01*
X10042052Y-5727734D01*
X10035629Y-5727987D01*
X10035145Y-5728046D01*
X10027481Y-5729003D01*
X10036945Y-5719040D01*
X10041487Y-5713959D01*
X10045738Y-5708682D01*
X10049047Y-5704037D01*
X10050132Y-5702235D01*
X10052271Y-5698677D01*
X10054012Y-5696436D01*
X10054824Y-5695993D01*
X10055549Y-5697573D01*
X10056239Y-5700851D01*
X10056456Y-5702478D01*
X10056954Y-5704752D01*
X10058089Y-5707757D01*
X10059998Y-5711746D01*
X10062818Y-5716973D01*
X10066684Y-5723692D01*
X10071735Y-5732155D01*
X10077898Y-5742280D01*
X10083306Y-5751107D01*
X10088394Y-5759413D01*
X10092958Y-5766864D01*
X10096791Y-5773122D01*
X10099687Y-5777852D01*
X10101441Y-5780717D01*
X10101665Y-5781084D01*
X10104305Y-5784603D01*
X10107127Y-5787238D01*
X10107761Y-5787635D01*
X10109853Y-5789174D01*
X10110268Y-5790266D01*
G36*
X10233947Y-5306481D02*
X10233228Y-5309020D01*
X10231260Y-5313264D01*
X10228332Y-5318731D01*
X10224728Y-5324937D01*
X10220735Y-5331398D01*
X10216641Y-5337629D01*
X10212732Y-5343149D01*
X10210551Y-5345971D01*
X10199252Y-5358556D01*
X10187489Y-5368764D01*
X10174813Y-5376890D01*
X10160773Y-5383231D01*
X10147550Y-5387408D01*
X10142406Y-5388693D01*
X10137646Y-5389652D01*
X10132682Y-5390348D01*
X10126926Y-5390842D01*
X10119790Y-5391196D01*
X10110687Y-5391473D01*
X10108570Y-5391525D01*
X10093034Y-5391665D01*
X10079420Y-5391253D01*
X10067027Y-5390239D01*
X10055150Y-5388572D01*
X10046898Y-5387016D01*
X10037608Y-5384865D01*
X10026767Y-5381985D01*
X10015304Y-5378646D01*
X10004147Y-5375122D01*
X9994225Y-5371684D01*
X9992981Y-5371222D01*
X9980408Y-5366513D01*
X9968480Y-5369782D01*
X9947769Y-5376619D01*
X9928906Y-5385300D01*
X9911719Y-5395921D01*
X9896035Y-5408578D01*
X9893218Y-5411213D01*
X9881423Y-5423921D01*
X9872228Y-5437028D01*
X9865608Y-5450644D01*
X9861537Y-5464876D01*
X9859990Y-5479835D01*
X9860940Y-5495627D01*
X9864363Y-5512363D01*
X9867129Y-5521526D01*
X9871981Y-5533938D01*
X9877817Y-5544507D01*
X9885130Y-5554020D01*
X9891824Y-5560880D01*
X9904938Y-5571458D01*
X9919447Y-5579881D01*
X9935020Y-5586007D01*
X9951328Y-5589697D01*
X9961900Y-5590710D01*
X9970635Y-5590866D01*
X9978376Y-5590543D01*
X9984302Y-5589776D01*
X9984351Y-5589766D01*
X9992097Y-5588154D01*
X10003629Y-5572554D01*
X10012682Y-5560986D01*
X10021154Y-5551532D01*
X10028954Y-5544272D01*
X10035990Y-5539284D01*
X10042170Y-5536650D01*
X10045340Y-5536232D01*
X10048101Y-5537149D01*
X10051513Y-5539477D01*
X10052939Y-5540777D01*
X10056033Y-5544745D01*
X10057408Y-5549055D01*
X10057061Y-5554175D01*
X10054989Y-5560573D01*
X10052816Y-5565433D01*
X10045107Y-5578660D01*
X10035607Y-5590002D01*
X10024440Y-5599325D01*
X10015013Y-5604931D01*
X10010561Y-5607756D01*
X10004988Y-5612177D01*
X9998873Y-5617720D01*
X9996297Y-5620253D01*
X9985941Y-5629746D01*
X9975446Y-5637273D01*
X9963931Y-5643393D01*
X9952765Y-5647879D01*
X9947057Y-5649865D01*
X9941524Y-5651654D01*
X9935784Y-5653341D01*
X9929456Y-5655019D01*
X9922159Y-5656785D01*
X9913512Y-5658733D01*
X9903135Y-5660957D01*
X9890645Y-5663553D01*
X9885700Y-5664568D01*
X9861775Y-5669523D01*
X9840304Y-5674100D01*
X9821102Y-5678350D01*
X9803986Y-5682328D01*
X9788771Y-5686087D01*
X9775273Y-5689679D01*
X9763307Y-5693157D01*
X9752688Y-5696574D01*
X9743233Y-5699984D01*
X9734757Y-5703438D01*
X9727075Y-5706991D01*
X9720004Y-5710696D01*
X9714979Y-5713611D01*
X9700765Y-5723021D01*
X9688853Y-5732784D01*
X9678871Y-5743291D01*
X9670447Y-5754932D01*
X9663324Y-5767861D01*
X9660464Y-5773632D01*
X9657815Y-5778720D01*
X9655706Y-5782509D01*
X9654607Y-5784216D01*
X9653062Y-5785995D01*
X9652538Y-5785467D01*
X9652464Y-5783447D01*
X9652971Y-5779840D01*
X9654395Y-5774530D01*
X9656496Y-5768223D01*
X9659033Y-5761629D01*
X9661767Y-5755454D01*
X9662413Y-5754137D01*
X9672079Y-5737841D01*
X9683931Y-5723068D01*
X9697936Y-5709849D01*
X9714058Y-5698220D01*
X9728621Y-5689999D01*
X9739232Y-5685010D01*
X9750666Y-5680371D01*
X9763260Y-5675977D01*
X9777355Y-5671721D01*
X9793286Y-5667497D01*
X9811394Y-5663199D01*
X9820195Y-5661244D01*
X9832952Y-5658408D01*
X9846341Y-5655336D01*
X9860011Y-5652116D01*
X9873612Y-5648835D01*
X9886792Y-5645581D01*
X9899201Y-5642443D01*
X9910487Y-5639507D01*
X9920302Y-5636862D01*
X9928292Y-5634596D01*
X9934109Y-5632797D01*
X9935163Y-5632437D01*
X9945992Y-5628242D01*
X9955464Y-5623783D01*
X9963055Y-5619320D01*
X9965800Y-5617313D01*
X9969700Y-5614198D01*
X9959784Y-5613342D01*
X9944144Y-5610734D01*
X9927865Y-5605564D01*
X9917620Y-5601148D01*
X9900667Y-5591868D01*
X9885848Y-5581036D01*
X9873118Y-5568592D01*
X9862433Y-5554478D01*
X9853749Y-5538634D01*
X9847024Y-5521000D01*
X9842212Y-5501517D01*
X9841628Y-5498291D01*
X9839755Y-5480199D01*
X9840461Y-5462748D01*
X9843711Y-5446011D01*
X9849471Y-5430064D01*
X9857705Y-5414980D01*
X9868379Y-5400834D01*
X9881458Y-5387700D01*
X9896909Y-5375653D01*
X9899450Y-5373931D01*
X9911344Y-5366635D01*
X9923829Y-5360085D01*
X9935964Y-5354754D01*
X9942279Y-5352469D01*
X9945155Y-5351536D01*
X9947045Y-5350757D01*
X9947747Y-5349909D01*
X9947058Y-5348770D01*
X9944777Y-5347115D01*
X9940700Y-5344723D01*
X9934625Y-5341369D01*
X9929816Y-5338737D01*
X9912782Y-5329618D01*
X9897579Y-5321978D01*
X9883893Y-5315697D01*
X9871413Y-5310652D01*
X9859827Y-5306722D01*
X9848823Y-5303785D01*
X9838090Y-5301721D01*
X9832930Y-5301002D01*
X9811872Y-5299594D01*
X9791688Y-5300681D01*
X9772229Y-5304284D01*
X9753343Y-5310430D01*
X9741990Y-5315462D01*
X9731324Y-5321475D01*
X9723172Y-5327944D01*
X9717388Y-5335060D01*
X9713825Y-5343016D01*
X9712336Y-5352006D01*
X9712270Y-5354562D01*
X9711953Y-5359036D01*
X9710985Y-5360995D01*
X9710563Y-5361105D01*
X9709120Y-5360607D01*
X9708053Y-5358778D01*
X9707153Y-5355115D01*
X9706548Y-5351442D01*
X9706548Y-5344195D01*
X9708334Y-5336158D01*
X9711638Y-5328255D01*
X9714664Y-5323361D01*
X9721640Y-5315627D01*
X9730949Y-5308239D01*
X9742252Y-5301370D01*
X9755216Y-5295192D01*
X9769504Y-5289876D01*
X9784780Y-5285594D01*
X9791330Y-5284161D01*
X9798539Y-5283159D01*
X9807752Y-5282551D01*
X9818332Y-5282319D01*
X9829641Y-5282449D01*
X9841040Y-5282923D01*
X9851893Y-5283725D01*
X9861561Y-5284840D01*
X9868894Y-5286134D01*
X9880017Y-5288888D01*
X9891337Y-5292298D01*
X9903167Y-5296493D01*
X9915821Y-5301603D01*
X9929612Y-5307759D01*
X9944855Y-5315089D01*
X9961862Y-5323725D01*
X9970108Y-5328036D01*
X9984678Y-5335678D01*
X9997214Y-5342161D01*
X10008024Y-5347613D01*
X10017416Y-5352164D01*
X10025699Y-5355942D01*
X10033181Y-5359077D01*
X10040170Y-5361698D01*
X10046974Y-5363933D01*
X10053903Y-5365912D01*
X10061263Y-5367764D01*
X10069364Y-5369618D01*
X10069516Y-5369651D01*
X10091177Y-5373471D01*
X10111460Y-5375018D01*
X10130437Y-5374268D01*
X10148180Y-5371197D01*
X10164758Y-5365780D01*
X10180244Y-5357992D01*
X10194708Y-5347808D01*
X10208222Y-5335203D01*
X10220857Y-5320153D01*
X10223900Y-5315987D01*
X10228105Y-5310254D01*
X10231067Y-5306678D01*
X10232924Y-5305125D01*
X10233817Y-5305464D01*
X10233947Y-5306481D01*
X10233947Y-5306481D01*
G37*
X10233947Y-5306481D02*
X10233228Y-5309020D01*
X10231260Y-5313264D01*
X10228332Y-5318731D01*
X10224728Y-5324937D01*
X10220735Y-5331398D01*
X10216641Y-5337629D01*
X10212732Y-5343149D01*
X10210551Y-5345971D01*
X10199252Y-5358556D01*
X10187489Y-5368764D01*
X10174813Y-5376890D01*
X10160773Y-5383231D01*
X10147550Y-5387408D01*
X10142406Y-5388693D01*
X10137646Y-5389652D01*
X10132682Y-5390348D01*
X10126926Y-5390842D01*
X10119790Y-5391196D01*
X10110687Y-5391473D01*
X10108570Y-5391525D01*
X10093034Y-5391665D01*
X10079420Y-5391253D01*
X10067027Y-5390239D01*
X10055150Y-5388572D01*
X10046898Y-5387016D01*
X10037608Y-5384865D01*
X10026767Y-5381985D01*
X10015304Y-5378646D01*
X10004147Y-5375122D01*
X9994225Y-5371684D01*
X9992981Y-5371222D01*
X9980408Y-5366513D01*
X9968480Y-5369782D01*
X9947769Y-5376619D01*
X9928906Y-5385300D01*
X9911719Y-5395921D01*
X9896035Y-5408578D01*
X9893218Y-5411213D01*
X9881423Y-5423921D01*
X9872228Y-5437028D01*
X9865608Y-5450644D01*
X9861537Y-5464876D01*
X9859990Y-5479835D01*
X9860940Y-5495627D01*
X9864363Y-5512363D01*
X9867129Y-5521526D01*
X9871981Y-5533938D01*
X9877817Y-5544507D01*
X9885130Y-5554020D01*
X9891824Y-5560880D01*
X9904938Y-5571458D01*
X9919447Y-5579881D01*
X9935020Y-5586007D01*
X9951328Y-5589697D01*
X9961900Y-5590710D01*
X9970635Y-5590866D01*
X9978376Y-5590543D01*
X9984302Y-5589776D01*
X9984351Y-5589766D01*
X9992097Y-5588154D01*
X10003629Y-5572554D01*
X10012682Y-5560986D01*
X10021154Y-5551532D01*
X10028954Y-5544272D01*
X10035990Y-5539284D01*
X10042170Y-5536650D01*
X10045340Y-5536232D01*
X10048101Y-5537149D01*
X10051513Y-5539477D01*
X10052939Y-5540777D01*
X10056033Y-5544745D01*
X10057408Y-5549055D01*
X10057061Y-5554175D01*
X10054989Y-5560573D01*
X10052816Y-5565433D01*
X10045107Y-5578660D01*
X10035607Y-5590002D01*
X10024440Y-5599325D01*
X10015013Y-5604931D01*
X10010561Y-5607756D01*
X10004988Y-5612177D01*
X9998873Y-5617720D01*
X9996297Y-5620253D01*
X9985941Y-5629746D01*
X9975446Y-5637273D01*
X9963931Y-5643393D01*
X9952765Y-5647879D01*
X9947057Y-5649865D01*
X9941524Y-5651654D01*
X9935784Y-5653341D01*
X9929456Y-5655019D01*
X9922159Y-5656785D01*
X9913512Y-5658733D01*
X9903135Y-5660957D01*
X9890645Y-5663553D01*
X9885700Y-5664568D01*
X9861775Y-5669523D01*
X9840304Y-5674100D01*
X9821102Y-5678350D01*
X9803986Y-5682328D01*
X9788771Y-5686087D01*
X9775273Y-5689679D01*
X9763307Y-5693157D01*
X9752688Y-5696574D01*
X9743233Y-5699984D01*
X9734757Y-5703438D01*
X9727075Y-5706991D01*
X9720004Y-5710696D01*
X9714979Y-5713611D01*
X9700765Y-5723021D01*
X9688853Y-5732784D01*
X9678871Y-5743291D01*
X9670447Y-5754932D01*
X9663324Y-5767861D01*
X9660464Y-5773632D01*
X9657815Y-5778720D01*
X9655706Y-5782509D01*
X9654607Y-5784216D01*
X9653062Y-5785995D01*
X9652538Y-5785467D01*
X9652464Y-5783447D01*
X9652971Y-5779840D01*
X9654395Y-5774530D01*
X9656496Y-5768223D01*
X9659033Y-5761629D01*
X9661767Y-5755454D01*
X9662413Y-5754137D01*
X9672079Y-5737841D01*
X9683931Y-5723068D01*
X9697936Y-5709849D01*
X9714058Y-5698220D01*
X9728621Y-5689999D01*
X9739232Y-5685010D01*
X9750666Y-5680371D01*
X9763260Y-5675977D01*
X9777355Y-5671721D01*
X9793286Y-5667497D01*
X9811394Y-5663199D01*
X9820195Y-5661244D01*
X9832952Y-5658408D01*
X9846341Y-5655336D01*
X9860011Y-5652116D01*
X9873612Y-5648835D01*
X9886792Y-5645581D01*
X9899201Y-5642443D01*
X9910487Y-5639507D01*
X9920302Y-5636862D01*
X9928292Y-5634596D01*
X9934109Y-5632797D01*
X9935163Y-5632437D01*
X9945992Y-5628242D01*
X9955464Y-5623783D01*
X9963055Y-5619320D01*
X9965800Y-5617313D01*
X9969700Y-5614198D01*
X9959784Y-5613342D01*
X9944144Y-5610734D01*
X9927865Y-5605564D01*
X9917620Y-5601148D01*
X9900667Y-5591868D01*
X9885848Y-5581036D01*
X9873118Y-5568592D01*
X9862433Y-5554478D01*
X9853749Y-5538634D01*
X9847024Y-5521000D01*
X9842212Y-5501517D01*
X9841628Y-5498291D01*
X9839755Y-5480199D01*
X9840461Y-5462748D01*
X9843711Y-5446011D01*
X9849471Y-5430064D01*
X9857705Y-5414980D01*
X9868379Y-5400834D01*
X9881458Y-5387700D01*
X9896909Y-5375653D01*
X9899450Y-5373931D01*
X9911344Y-5366635D01*
X9923829Y-5360085D01*
X9935964Y-5354754D01*
X9942279Y-5352469D01*
X9945155Y-5351536D01*
X9947045Y-5350757D01*
X9947747Y-5349909D01*
X9947058Y-5348770D01*
X9944777Y-5347115D01*
X9940700Y-5344723D01*
X9934625Y-5341369D01*
X9929816Y-5338737D01*
X9912782Y-5329618D01*
X9897579Y-5321978D01*
X9883893Y-5315697D01*
X9871413Y-5310652D01*
X9859827Y-5306722D01*
X9848823Y-5303785D01*
X9838090Y-5301721D01*
X9832930Y-5301002D01*
X9811872Y-5299594D01*
X9791688Y-5300681D01*
X9772229Y-5304284D01*
X9753343Y-5310430D01*
X9741990Y-5315462D01*
X9731324Y-5321475D01*
X9723172Y-5327944D01*
X9717388Y-5335060D01*
X9713825Y-5343016D01*
X9712336Y-5352006D01*
X9712270Y-5354562D01*
X9711953Y-5359036D01*
X9710985Y-5360995D01*
X9710563Y-5361105D01*
X9709120Y-5360607D01*
X9708053Y-5358778D01*
X9707153Y-5355115D01*
X9706548Y-5351442D01*
X9706548Y-5344195D01*
X9708334Y-5336158D01*
X9711638Y-5328255D01*
X9714664Y-5323361D01*
X9721640Y-5315627D01*
X9730949Y-5308239D01*
X9742252Y-5301370D01*
X9755216Y-5295192D01*
X9769504Y-5289876D01*
X9784780Y-5285594D01*
X9791330Y-5284161D01*
X9798539Y-5283159D01*
X9807752Y-5282551D01*
X9818332Y-5282319D01*
X9829641Y-5282449D01*
X9841040Y-5282923D01*
X9851893Y-5283725D01*
X9861561Y-5284840D01*
X9868894Y-5286134D01*
X9880017Y-5288888D01*
X9891337Y-5292298D01*
X9903167Y-5296493D01*
X9915821Y-5301603D01*
X9929612Y-5307759D01*
X9944855Y-5315089D01*
X9961862Y-5323725D01*
X9970108Y-5328036D01*
X9984678Y-5335678D01*
X9997214Y-5342161D01*
X10008024Y-5347613D01*
X10017416Y-5352164D01*
X10025699Y-5355942D01*
X10033181Y-5359077D01*
X10040170Y-5361698D01*
X10046974Y-5363933D01*
X10053903Y-5365912D01*
X10061263Y-5367764D01*
X10069364Y-5369618D01*
X10069516Y-5369651D01*
X10091177Y-5373471D01*
X10111460Y-5375018D01*
X10130437Y-5374268D01*
X10148180Y-5371197D01*
X10164758Y-5365780D01*
X10180244Y-5357992D01*
X10194708Y-5347808D01*
X10208222Y-5335203D01*
X10220857Y-5320153D01*
X10223900Y-5315987D01*
X10228105Y-5310254D01*
X10231067Y-5306678D01*
X10232924Y-5305125D01*
X10233817Y-5305464D01*
X10233947Y-5306481D01*
G36*
X10224511Y-5694798D02*
X10223929Y-5695952D01*
X10221856Y-5698489D01*
X10218704Y-5701916D01*
X10217827Y-5702821D01*
X10210553Y-5710261D01*
X10199247Y-5709380D01*
X10193950Y-5708951D01*
X10189678Y-5708573D01*
X10187132Y-5708310D01*
X10186780Y-5708258D01*
X10185916Y-5709338D01*
X10184586Y-5712434D01*
X10183022Y-5716977D01*
X10182305Y-5719333D01*
X10180213Y-5725557D01*
X10180213Y-5708344D01*
X10179999Y-5707764D01*
X10178458Y-5707262D01*
X10174834Y-5706460D01*
X10169683Y-5705473D01*
X10164158Y-5704512D01*
X10149058Y-5702001D01*
X10142172Y-5709273D01*
X10136679Y-5715910D01*
X10132119Y-5723051D01*
X10128661Y-5730241D01*
X10126475Y-5737028D01*
X10125730Y-5742958D01*
X10126596Y-5747577D01*
X10127377Y-5748886D01*
X10131751Y-5752474D01*
X10137467Y-5753969D01*
X10144149Y-5753328D01*
X10149485Y-5751458D01*
X10155105Y-5747972D01*
X10161116Y-5742689D01*
X10166876Y-5736277D01*
X10171742Y-5729405D01*
X10173294Y-5726678D01*
X10176183Y-5720769D01*
X10178423Y-5715395D01*
X10179828Y-5711079D01*
X10180213Y-5708344D01*
X10180213Y-5725557D01*
X10178931Y-5729370D01*
X10175028Y-5737672D01*
X10170068Y-5745177D01*
X10163520Y-5752825D01*
X10163309Y-5753050D01*
X10154756Y-5760993D01*
X10146337Y-5766398D01*
X10137835Y-5769377D01*
X10130463Y-5770088D01*
X10125564Y-5769810D01*
X10121380Y-5769184D01*
X10119383Y-5768579D01*
X10116351Y-5765888D01*
X10113877Y-5761520D01*
X10112458Y-5756474D01*
X10112295Y-5754299D01*
X10113272Y-5747763D01*
X10116049Y-5739926D01*
X10120399Y-5731227D01*
X10126092Y-5722105D01*
X10132898Y-5712999D01*
X10135395Y-5710021D01*
X10142894Y-5701331D01*
X10137286Y-5699611D01*
X10130675Y-5698487D01*
X10124756Y-5699605D01*
X10118955Y-5703114D01*
X10116854Y-5704927D01*
X10113466Y-5707874D01*
X10111625Y-5708927D01*
X10111263Y-5707969D01*
X10112313Y-5704885D01*
X10114287Y-5700462D01*
X10116164Y-5695557D01*
X10117378Y-5690715D01*
X10117629Y-5688297D01*
X10117642Y-5683284D01*
X10126755Y-5683284D01*
X10131349Y-5683499D01*
X10137845Y-5684090D01*
X10145507Y-5684976D01*
X10153603Y-5686078D01*
X10156975Y-5686589D01*
X10166218Y-5687938D01*
X10176962Y-5689351D01*
X10188041Y-5690683D01*
X10198289Y-5691790D01*
X10201002Y-5692054D01*
X10208532Y-5692793D01*
X10215092Y-5693492D01*
X10220236Y-5694099D01*
X10223520Y-5694564D01*
X10224511Y-5694798D01*
X10224511Y-5694798D01*
G37*
X10224511Y-5694798D02*
X10223929Y-5695952D01*
X10221856Y-5698489D01*
X10218704Y-5701916D01*
X10217827Y-5702821D01*
X10210553Y-5710261D01*
X10199247Y-5709380D01*
X10193950Y-5708951D01*
X10189678Y-5708573D01*
X10187132Y-5708310D01*
X10186780Y-5708258D01*
X10185916Y-5709338D01*
X10184586Y-5712434D01*
X10183022Y-5716977D01*
X10182305Y-5719333D01*
X10180213Y-5725557D01*
X10180213Y-5708344D01*
X10179999Y-5707764D01*
X10178458Y-5707262D01*
X10174834Y-5706460D01*
X10169683Y-5705473D01*
X10164158Y-5704512D01*
X10149058Y-5702001D01*
X10142172Y-5709273D01*
X10136679Y-5715910D01*
X10132119Y-5723051D01*
X10128661Y-5730241D01*
X10126475Y-5737028D01*
X10125730Y-5742958D01*
X10126596Y-5747577D01*
X10127377Y-5748886D01*
X10131751Y-5752474D01*
X10137467Y-5753969D01*
X10144149Y-5753328D01*
X10149485Y-5751458D01*
X10155105Y-5747972D01*
X10161116Y-5742689D01*
X10166876Y-5736277D01*
X10171742Y-5729405D01*
X10173294Y-5726678D01*
X10176183Y-5720769D01*
X10178423Y-5715395D01*
X10179828Y-5711079D01*
X10180213Y-5708344D01*
X10180213Y-5725557D01*
X10178931Y-5729370D01*
X10175028Y-5737672D01*
X10170068Y-5745177D01*
X10163520Y-5752825D01*
X10163309Y-5753050D01*
X10154756Y-5760993D01*
X10146337Y-5766398D01*
X10137835Y-5769377D01*
X10130463Y-5770088D01*
X10125564Y-5769810D01*
X10121380Y-5769184D01*
X10119383Y-5768579D01*
X10116351Y-5765888D01*
X10113877Y-5761520D01*
X10112458Y-5756474D01*
X10112295Y-5754299D01*
X10113272Y-5747763D01*
X10116049Y-5739926D01*
X10120399Y-5731227D01*
X10126092Y-5722105D01*
X10132898Y-5712999D01*
X10135395Y-5710021D01*
X10142894Y-5701331D01*
X10137286Y-5699611D01*
X10130675Y-5698487D01*
X10124756Y-5699605D01*
X10118955Y-5703114D01*
X10116854Y-5704927D01*
X10113466Y-5707874D01*
X10111625Y-5708927D01*
X10111263Y-5707969D01*
X10112313Y-5704885D01*
X10114287Y-5700462D01*
X10116164Y-5695557D01*
X10117378Y-5690715D01*
X10117629Y-5688297D01*
X10117642Y-5683284D01*
X10126755Y-5683284D01*
X10131349Y-5683499D01*
X10137845Y-5684090D01*
X10145507Y-5684976D01*
X10153603Y-5686078D01*
X10156975Y-5686589D01*
X10166218Y-5687938D01*
X10176962Y-5689351D01*
X10188041Y-5690683D01*
X10198289Y-5691790D01*
X10201002Y-5692054D01*
X10208532Y-5692793D01*
X10215092Y-5693492D01*
X10220236Y-5694099D01*
X10223520Y-5694564D01*
X10224511Y-5694798D01*
G36*
X10270493Y-5631816D02*
X10269687Y-5636804D01*
X10268092Y-5641644D01*
X10264906Y-5647577D01*
X10260552Y-5653939D01*
X10255454Y-5660066D01*
X10253590Y-5662014D01*
X10245238Y-5668707D01*
X10235986Y-5673129D01*
X10226217Y-5675208D01*
X10216318Y-5674872D01*
X10206676Y-5672048D01*
X10204757Y-5671152D01*
X10198884Y-5667747D01*
X10193978Y-5663707D01*
X10189716Y-5658601D01*
X10185777Y-5651998D01*
X10181839Y-5643467D01*
X10179279Y-5637081D01*
X10176041Y-5629610D01*
X10172927Y-5624233D01*
X10170069Y-5621147D01*
X10168211Y-5620453D01*
X10166072Y-5620813D01*
X10162581Y-5621709D01*
X10161570Y-5622004D01*
X10158167Y-5622829D01*
X10155997Y-5622996D01*
X10155726Y-5622887D01*
X10156039Y-5621514D01*
X10157344Y-5618178D01*
X10159457Y-5613314D01*
X10162191Y-5607361D01*
X10163647Y-5604292D01*
X10166942Y-5597632D01*
X10169669Y-5592563D01*
X10171676Y-5589343D01*
X10172812Y-5588228D01*
X10172971Y-5588368D01*
X10173715Y-5590428D01*
X10175128Y-5594362D01*
X10176979Y-5599525D01*
X10178295Y-5603202D01*
X10181753Y-5612423D01*
X10184973Y-5619878D01*
X10188360Y-5626394D01*
X10192317Y-5632800D01*
X10193903Y-5635158D01*
X10201779Y-5645068D01*
X10210085Y-5652448D01*
X10218763Y-5657258D01*
X10227750Y-5659457D01*
X10230787Y-5659603D01*
X10236229Y-5659029D01*
X10241581Y-5657148D01*
X10247244Y-5653723D01*
X10253615Y-5648518D01*
X10260337Y-5642064D01*
X10270493Y-5631816D01*
X10270493Y-5631816D01*
G37*
X10270493Y-5631816D02*
X10269687Y-5636804D01*
X10268092Y-5641644D01*
X10264906Y-5647577D01*
X10260552Y-5653939D01*
X10255454Y-5660066D01*
X10253590Y-5662014D01*
X10245238Y-5668707D01*
X10235986Y-5673129D01*
X10226217Y-5675208D01*
X10216318Y-5674872D01*
X10206676Y-5672048D01*
X10204757Y-5671152D01*
X10198884Y-5667747D01*
X10193978Y-5663707D01*
X10189716Y-5658601D01*
X10185777Y-5651998D01*
X10181839Y-5643467D01*
X10179279Y-5637081D01*
X10176041Y-5629610D01*
X10172927Y-5624233D01*
X10170069Y-5621147D01*
X10168211Y-5620453D01*
X10166072Y-5620813D01*
X10162581Y-5621709D01*
X10161570Y-5622004D01*
X10158167Y-5622829D01*
X10155997Y-5622996D01*
X10155726Y-5622887D01*
X10156039Y-5621514D01*
X10157344Y-5618178D01*
X10159457Y-5613314D01*
X10162191Y-5607361D01*
X10163647Y-5604292D01*
X10166942Y-5597632D01*
X10169669Y-5592563D01*
X10171676Y-5589343D01*
X10172812Y-5588228D01*
X10172971Y-5588368D01*
X10173715Y-5590428D01*
X10175128Y-5594362D01*
X10176979Y-5599525D01*
X10178295Y-5603202D01*
X10181753Y-5612423D01*
X10184973Y-5619878D01*
X10188360Y-5626394D01*
X10192317Y-5632800D01*
X10193903Y-5635158D01*
X10201779Y-5645068D01*
X10210085Y-5652448D01*
X10218763Y-5657258D01*
X10227750Y-5659457D01*
X10230787Y-5659603D01*
X10236229Y-5659029D01*
X10241581Y-5657148D01*
X10247244Y-5653723D01*
X10253615Y-5648518D01*
X10260337Y-5642064D01*
X10270493Y-5631816D01*
G36*
X10287421Y-5606778D02*
X10286762Y-5608457D01*
X10285042Y-5611728D01*
X10282652Y-5615938D01*
X10279980Y-5620432D01*
X10277415Y-5624555D01*
X10275347Y-5627654D01*
X10274170Y-5629069D01*
X10272856Y-5628624D01*
X10272012Y-5627025D01*
X10270606Y-5625363D01*
X10267280Y-5622577D01*
X10262401Y-5618923D01*
X10256338Y-5614658D01*
X10249461Y-5610036D01*
X10242138Y-5605316D01*
X10234739Y-5600752D01*
X10230889Y-5598471D01*
X10225088Y-5595904D01*
X10219925Y-5595640D01*
X10214702Y-5597729D01*
X10211667Y-5599811D01*
X10208966Y-5601590D01*
X10207383Y-5602090D01*
X10207211Y-5601846D01*
X10207893Y-5600149D01*
X10209703Y-5596858D01*
X10212288Y-5592606D01*
X10213046Y-5591418D01*
X10216157Y-5586471D01*
X10218971Y-5581801D01*
X10220936Y-5578325D01*
X10221101Y-5578008D01*
X10222917Y-5575150D01*
X10224529Y-5573706D01*
X10224751Y-5573663D01*
X10226261Y-5574319D01*
X10229725Y-5576161D01*
X10234804Y-5578997D01*
X10241160Y-5582637D01*
X10248454Y-5586890D01*
X10253223Y-5589705D01*
X10262332Y-5595016D01*
X10270172Y-5599400D01*
X10276504Y-5602732D01*
X10281089Y-5604887D01*
X10283688Y-5605738D01*
X10283843Y-5605747D01*
X10286468Y-5606079D01*
X10287421Y-5606778D01*
X10287421Y-5606778D01*
G37*
X10287421Y-5606778D02*
X10286762Y-5608457D01*
X10285042Y-5611728D01*
X10282652Y-5615938D01*
X10279980Y-5620432D01*
X10277415Y-5624555D01*
X10275347Y-5627654D01*
X10274170Y-5629069D01*
X10272856Y-5628624D01*
X10272012Y-5627025D01*
X10270606Y-5625363D01*
X10267280Y-5622577D01*
X10262401Y-5618923D01*
X10256338Y-5614658D01*
X10249461Y-5610036D01*
X10242138Y-5605316D01*
X10234739Y-5600752D01*
X10230889Y-5598471D01*
X10225088Y-5595904D01*
X10219925Y-5595640D01*
X10214702Y-5597729D01*
X10211667Y-5599811D01*
X10208966Y-5601590D01*
X10207383Y-5602090D01*
X10207211Y-5601846D01*
X10207893Y-5600149D01*
X10209703Y-5596858D01*
X10212288Y-5592606D01*
X10213046Y-5591418D01*
X10216157Y-5586471D01*
X10218971Y-5581801D01*
X10220936Y-5578325D01*
X10221101Y-5578008D01*
X10222917Y-5575150D01*
X10224529Y-5573706D01*
X10224751Y-5573663D01*
X10226261Y-5574319D01*
X10229725Y-5576161D01*
X10234804Y-5578997D01*
X10241160Y-5582637D01*
X10248454Y-5586890D01*
X10253223Y-5589705D01*
X10262332Y-5595016D01*
X10270172Y-5599400D01*
X10276504Y-5602732D01*
X10281089Y-5604887D01*
X10283688Y-5605738D01*
X10283843Y-5605747D01*
X10286468Y-5606079D01*
X10287421Y-5606778D01*
G36*
X10347944Y-5410895D02*
X10347091Y-5420983D01*
X10346612Y-5425884D01*
X10346124Y-5429640D01*
X10345721Y-5431550D01*
X10345666Y-5431643D01*
X10344352Y-5431268D01*
X10341562Y-5429699D01*
X10338998Y-5428022D01*
X10332209Y-5423920D01*
X10325559Y-5421296D01*
X10318125Y-5419881D01*
X10309479Y-5419410D01*
X10303350Y-5419429D01*
X10299046Y-5419769D01*
X10295722Y-5420582D01*
X10292536Y-5422016D01*
X10291432Y-5422618D01*
X10284598Y-5427935D01*
X10279406Y-5435259D01*
X10275926Y-5444432D01*
X10274232Y-5455296D01*
X10274071Y-5460432D01*
X10274127Y-5466631D01*
X10274572Y-5470616D01*
X10275867Y-5472843D01*
X10278473Y-5473770D01*
X10282854Y-5473855D01*
X10287414Y-5473649D01*
X10300923Y-5474283D01*
X10314143Y-5477521D01*
X10324819Y-5482113D01*
X10329926Y-5484785D01*
X10333009Y-5486845D01*
X10334402Y-5488947D01*
X10334433Y-5491745D01*
X10333436Y-5495895D01*
X10332849Y-5497989D01*
X10331481Y-5502622D01*
X10330310Y-5506160D01*
X10329575Y-5507886D01*
X10329543Y-5507923D01*
X10328244Y-5507532D01*
X10325795Y-5505708D01*
X10324498Y-5504540D01*
X10317491Y-5499341D01*
X10308792Y-5495089D01*
X10299313Y-5492131D01*
X10289968Y-5490815D01*
X10288302Y-5490779D01*
X10279126Y-5491937D01*
X10271290Y-5495406D01*
X10264804Y-5501181D01*
X10259676Y-5509255D01*
X10257863Y-5513505D01*
X10256137Y-5519696D01*
X10255244Y-5526367D01*
X10255226Y-5532633D01*
X10256124Y-5537610D01*
X10256675Y-5538907D01*
X10258446Y-5540536D01*
X10262204Y-5542961D01*
X10267471Y-5545947D01*
X10273767Y-5549262D01*
X10280613Y-5552671D01*
X10287528Y-5555941D01*
X10294034Y-5558837D01*
X10299651Y-5561125D01*
X10303899Y-5562573D01*
X10306010Y-5562968D01*
X10309975Y-5562968D01*
X10304599Y-5574666D01*
X10302169Y-5579833D01*
X10300063Y-5584090D01*
X10298581Y-5586839D01*
X10298137Y-5587497D01*
X10296892Y-5587260D01*
X10295345Y-5585144D01*
X10295244Y-5584943D01*
X10293901Y-5583179D01*
X10291291Y-5581047D01*
X10287131Y-5578367D01*
X10281137Y-5574958D01*
X10273023Y-5570637D01*
X10272047Y-5570128D01*
X10264989Y-5566536D01*
X10258585Y-5563424D01*
X10253272Y-5560994D01*
X10249492Y-5559449D01*
X10247786Y-5558980D01*
X10245129Y-5559573D01*
X10241097Y-5561139D01*
X10237232Y-5562998D01*
X10233238Y-5564992D01*
X10230286Y-5566264D01*
X10229052Y-5566540D01*
X10229315Y-5565176D01*
X10230414Y-5561869D01*
X10232162Y-5557146D01*
X10233924Y-5552654D01*
X10236136Y-5546932D01*
X10237905Y-5541957D01*
X10239019Y-5538354D01*
X10239295Y-5536925D01*
X10240317Y-5535306D01*
X10243322Y-5535375D01*
X10247391Y-5536772D01*
X10248293Y-5536780D01*
X10249055Y-5535704D01*
X10249774Y-5533173D01*
X10250546Y-5528819D01*
X10251470Y-5522271D01*
X10251745Y-5520171D01*
X10253443Y-5508945D01*
X10255370Y-5500001D01*
X10257657Y-5492950D01*
X10260432Y-5487404D01*
X10263825Y-5482974D01*
X10264255Y-5482523D01*
X10269175Y-5477486D01*
X10269334Y-5457730D01*
X10269462Y-5449389D01*
X10269743Y-5443067D01*
X10270247Y-5438111D01*
X10271048Y-5433868D01*
X10272218Y-5429685D01*
X10272562Y-5428616D01*
X10276862Y-5417994D01*
X10282007Y-5409836D01*
X10288060Y-5404049D01*
X10289926Y-5402841D01*
X10293156Y-5401101D01*
X10296162Y-5400022D01*
X10299743Y-5399451D01*
X10304699Y-5399232D01*
X10308811Y-5399207D01*
X10319698Y-5399813D01*
X10329125Y-5401792D01*
X10338053Y-5405382D01*
X10342080Y-5407540D01*
X10347944Y-5410895D01*
X10347944Y-5410895D01*
G37*
X10347944Y-5410895D02*
X10347091Y-5420983D01*
X10346612Y-5425884D01*
X10346124Y-5429640D01*
X10345721Y-5431550D01*
X10345666Y-5431643D01*
X10344352Y-5431268D01*
X10341562Y-5429699D01*
X10338998Y-5428022D01*
X10332209Y-5423920D01*
X10325559Y-5421296D01*
X10318125Y-5419881D01*
X10309479Y-5419410D01*
X10303350Y-5419429D01*
X10299046Y-5419769D01*
X10295722Y-5420582D01*
X10292536Y-5422016D01*
X10291432Y-5422618D01*
X10284598Y-5427935D01*
X10279406Y-5435259D01*
X10275926Y-5444432D01*
X10274232Y-5455296D01*
X10274071Y-5460432D01*
X10274127Y-5466631D01*
X10274572Y-5470616D01*
X10275867Y-5472843D01*
X10278473Y-5473770D01*
X10282854Y-5473855D01*
X10287414Y-5473649D01*
X10300923Y-5474283D01*
X10314143Y-5477521D01*
X10324819Y-5482113D01*
X10329926Y-5484785D01*
X10333009Y-5486845D01*
X10334402Y-5488947D01*
X10334433Y-5491745D01*
X10333436Y-5495895D01*
X10332849Y-5497989D01*
X10331481Y-5502622D01*
X10330310Y-5506160D01*
X10329575Y-5507886D01*
X10329543Y-5507923D01*
X10328244Y-5507532D01*
X10325795Y-5505708D01*
X10324498Y-5504540D01*
X10317491Y-5499341D01*
X10308792Y-5495089D01*
X10299313Y-5492131D01*
X10289968Y-5490815D01*
X10288302Y-5490779D01*
X10279126Y-5491937D01*
X10271290Y-5495406D01*
X10264804Y-5501181D01*
X10259676Y-5509255D01*
X10257863Y-5513505D01*
X10256137Y-5519696D01*
X10255244Y-5526367D01*
X10255226Y-5532633D01*
X10256124Y-5537610D01*
X10256675Y-5538907D01*
X10258446Y-5540536D01*
X10262204Y-5542961D01*
X10267471Y-5545947D01*
X10273767Y-5549262D01*
X10280613Y-5552671D01*
X10287528Y-5555941D01*
X10294034Y-5558837D01*
X10299651Y-5561125D01*
X10303899Y-5562573D01*
X10306010Y-5562968D01*
X10309975Y-5562968D01*
X10304599Y-5574666D01*
X10302169Y-5579833D01*
X10300063Y-5584090D01*
X10298581Y-5586839D01*
X10298137Y-5587497D01*
X10296892Y-5587260D01*
X10295345Y-5585144D01*
X10295244Y-5584943D01*
X10293901Y-5583179D01*
X10291291Y-5581047D01*
X10287131Y-5578367D01*
X10281137Y-5574958D01*
X10273023Y-5570637D01*
X10272047Y-5570128D01*
X10264989Y-5566536D01*
X10258585Y-5563424D01*
X10253272Y-5560994D01*
X10249492Y-5559449D01*
X10247786Y-5558980D01*
X10245129Y-5559573D01*
X10241097Y-5561139D01*
X10237232Y-5562998D01*
X10233238Y-5564992D01*
X10230286Y-5566264D01*
X10229052Y-5566540D01*
X10229315Y-5565176D01*
X10230414Y-5561869D01*
X10232162Y-5557146D01*
X10233924Y-5552654D01*
X10236136Y-5546932D01*
X10237905Y-5541957D01*
X10239019Y-5538354D01*
X10239295Y-5536925D01*
X10240317Y-5535306D01*
X10243322Y-5535375D01*
X10247391Y-5536772D01*
X10248293Y-5536780D01*
X10249055Y-5535704D01*
X10249774Y-5533173D01*
X10250546Y-5528819D01*
X10251470Y-5522271D01*
X10251745Y-5520171D01*
X10253443Y-5508945D01*
X10255370Y-5500001D01*
X10257657Y-5492950D01*
X10260432Y-5487404D01*
X10263825Y-5482974D01*
X10264255Y-5482523D01*
X10269175Y-5477486D01*
X10269334Y-5457730D01*
X10269462Y-5449389D01*
X10269743Y-5443067D01*
X10270247Y-5438111D01*
X10271048Y-5433868D01*
X10272218Y-5429685D01*
X10272562Y-5428616D01*
X10276862Y-5417994D01*
X10282007Y-5409836D01*
X10288060Y-5404049D01*
X10289926Y-5402841D01*
X10293156Y-5401101D01*
X10296162Y-5400022D01*
X10299743Y-5399451D01*
X10304699Y-5399232D01*
X10308811Y-5399207D01*
X10319698Y-5399813D01*
X10329125Y-5401792D01*
X10338053Y-5405382D01*
X10342080Y-5407540D01*
X10347944Y-5410895D01*
G36*
X10204537Y-5566853D02*
X10203611Y-5571788D01*
X10201183Y-5575888D01*
X10197774Y-5578846D01*
X10193908Y-5580357D01*
X10190106Y-5580114D01*
X10186891Y-5577811D01*
X10186565Y-5577376D01*
X10184523Y-5572362D01*
X10185008Y-5567095D01*
X10187960Y-5561987D01*
X10189030Y-5560829D01*
X10193691Y-5557365D01*
X10197930Y-5556389D01*
X10201389Y-5557762D01*
X10203710Y-5561344D01*
X10204537Y-5566853D01*
X10204537Y-5566853D01*
G37*
X10204537Y-5566853D02*
X10203611Y-5571788D01*
X10201183Y-5575888D01*
X10197774Y-5578846D01*
X10193908Y-5580357D01*
X10190106Y-5580114D01*
X10186891Y-5577811D01*
X10186565Y-5577376D01*
X10184523Y-5572362D01*
X10185008Y-5567095D01*
X10187960Y-5561987D01*
X10189030Y-5560829D01*
X10193691Y-5557365D01*
X10197930Y-5556389D01*
X10201389Y-5557762D01*
X10203710Y-5561344D01*
X10204537Y-5566853D01*
D10*
X10030000Y-5575000D02*
G75*
G03X10030000Y-5575000I-10000J0D01*
G01*
X10580000Y-5300000D02*
X10500000Y-5300000D01*
X10580000Y-5000000D02*
X10580000Y-5300000D01*
X10420000Y-5000000D02*
X10580000Y-5000000D01*
X10420000Y-5300000D02*
X10420000Y-5000000D01*
X10500000Y-5300000D02*
X10420000Y-5300000D01*
X10500000Y-4675000D02*
X10580000Y-4675000D01*
X10580000Y-4675000D02*
X10580000Y-4975000D01*
X10580000Y-4975000D02*
X10420000Y-4975000D01*
X10420000Y-4975000D02*
X10420000Y-4675000D01*
X10420000Y-4675000D02*
X10500000Y-4675000D01*
X9567143Y-5168571D02*
X9627143Y-5154286D01*
X9584286Y-5142857D01*
X9627143Y-5131429D01*
X9567143Y-5117143D01*
X9624286Y-5097143D02*
X9627143Y-5088571D01*
X9627143Y-5074286D01*
X9624286Y-5068571D01*
X9621429Y-5065714D01*
X9615714Y-5062857D01*
X9610000Y-5062857D01*
X9604286Y-5065714D01*
X9601429Y-5068571D01*
X9598571Y-5074286D01*
X9595714Y-5085714D01*
X9592857Y-5091429D01*
X9590000Y-5094286D01*
X9584286Y-5097143D01*
X9578571Y-5097143D01*
X9572857Y-5094286D01*
X9570000Y-5091429D01*
X9567143Y-5085714D01*
X9567143Y-5071429D01*
X9570000Y-5062857D01*
X9572857Y-5040000D02*
X9570000Y-5037143D01*
X9567143Y-5031429D01*
X9567143Y-5017143D01*
X9570000Y-5011429D01*
X9572857Y-5008571D01*
X9578571Y-5005714D01*
X9584286Y-5005714D01*
X9592857Y-5008571D01*
X9627143Y-5042857D01*
X9627143Y-5005714D01*
X9592857Y-4971429D02*
X9590000Y-4977143D01*
X9587143Y-4980000D01*
X9581429Y-4982857D01*
X9578571Y-4982857D01*
X9572857Y-4980000D01*
X9570000Y-4977143D01*
X9567143Y-4971429D01*
X9567143Y-4960000D01*
X9570000Y-4954286D01*
X9572857Y-4951429D01*
X9578571Y-4948571D01*
X9581429Y-4948571D01*
X9587143Y-4951429D01*
X9590000Y-4954286D01*
X9592857Y-4960000D01*
X9592857Y-4971429D01*
X9595714Y-4977143D01*
X9598571Y-4980000D01*
X9604286Y-4982857D01*
X9615714Y-4982857D01*
X9621429Y-4980000D01*
X9624286Y-4977143D01*
X9627143Y-4971429D01*
X9627143Y-4960000D01*
X9624286Y-4954286D01*
X9621429Y-4951429D01*
X9615714Y-4948571D01*
X9604286Y-4948571D01*
X9598571Y-4951429D01*
X9595714Y-4954286D01*
X9592857Y-4960000D01*
X9627143Y-4891429D02*
X9627143Y-4925714D01*
X9627143Y-4908571D02*
X9567143Y-4908571D01*
X9575714Y-4914286D01*
X9581429Y-4920000D01*
X9584286Y-4925714D01*
X9567143Y-4871429D02*
X9567143Y-4834286D01*
X9590000Y-4854286D01*
X9590000Y-4845714D01*
X9592857Y-4840000D01*
X9595714Y-4837143D01*
X9601429Y-4834286D01*
X9615714Y-4834286D01*
X9621429Y-4837143D01*
X9624286Y-4840000D01*
X9627143Y-4845714D01*
X9627143Y-4862857D01*
X9624286Y-4868571D01*
X9621429Y-4871429D01*
D13*
X9628571Y-4740000D02*
X9619048Y-4749524D01*
X9609524Y-4740000D01*
X9619048Y-4730476D01*
X9628571Y-4740000D01*
X9609524Y-4740000D01*
D10*
X9501429Y-4580000D02*
X9504286Y-4582857D01*
X9507143Y-4591429D01*
X9507143Y-4597143D01*
X9504286Y-4605714D01*
X9498571Y-4611429D01*
X9492857Y-4614286D01*
X9481429Y-4617143D01*
X9472857Y-4617143D01*
X9461429Y-4614286D01*
X9455714Y-4611429D01*
X9450000Y-4605714D01*
X9447143Y-4597143D01*
X9447143Y-4591429D01*
X9450000Y-4582857D01*
X9452857Y-4580000D01*
X9507143Y-4522857D02*
X9507143Y-4557143D01*
X9507143Y-4540000D02*
X9447143Y-4540000D01*
X9455714Y-4545714D01*
X9461429Y-4551429D01*
X9464286Y-4557143D01*
X9547143Y-4608571D02*
X9547143Y-4602857D01*
X9550000Y-4597143D01*
X9552857Y-4594286D01*
X9558571Y-4591429D01*
X9570000Y-4588571D01*
X9584286Y-4588571D01*
X9595714Y-4591429D01*
X9601429Y-4594286D01*
X9604286Y-4597143D01*
X9607143Y-4602857D01*
X9607143Y-4608571D01*
X9604286Y-4614286D01*
X9601429Y-4617143D01*
X9595714Y-4620000D01*
X9584286Y-4622857D01*
X9570000Y-4622857D01*
X9558571Y-4620000D01*
X9552857Y-4617143D01*
X9550000Y-4614286D01*
X9547143Y-4608571D01*
X9601429Y-4562857D02*
X9604286Y-4560000D01*
X9607143Y-4562857D01*
X9604286Y-4565714D01*
X9601429Y-4562857D01*
X9607143Y-4562857D01*
X9607143Y-4502857D02*
X9607143Y-4537143D01*
X9607143Y-4520000D02*
X9547143Y-4520000D01*
X9555714Y-4525714D01*
X9561429Y-4531429D01*
X9564286Y-4537143D01*
X9567143Y-4451429D02*
X9607143Y-4451429D01*
X9567143Y-4477143D02*
X9598571Y-4477143D01*
X9604286Y-4474286D01*
X9607143Y-4468571D01*
X9607143Y-4460000D01*
X9604286Y-4454286D01*
X9601429Y-4451429D01*
X9575714Y-4402857D02*
X9575714Y-4422857D01*
X9607143Y-4422857D02*
X9547143Y-4422857D01*
X9547143Y-4394286D01*
X9930000Y-4252143D02*
X9930000Y-4192143D01*
X9944286Y-4192143D01*
X9952857Y-4195000D01*
X9958571Y-4200714D01*
X9961429Y-4206429D01*
X9964286Y-4217857D01*
X9964286Y-4226429D01*
X9961429Y-4237857D01*
X9958571Y-4243571D01*
X9952857Y-4249286D01*
X9944286Y-4252143D01*
X9930000Y-4252143D01*
X9987143Y-4235000D02*
X10015714Y-4235000D01*
X9981429Y-4252143D02*
X10001429Y-4192143D01*
X10021429Y-4252143D01*
X10038571Y-4197857D02*
X10041429Y-4195000D01*
X10047143Y-4192143D01*
X10061429Y-4192143D01*
X10067143Y-4195000D01*
X10070000Y-4197857D01*
X10072857Y-4203571D01*
X10072857Y-4209286D01*
X10070000Y-4217857D01*
X10035714Y-4252143D01*
X10072857Y-4252143D01*
X9668571Y-4727143D02*
X9668571Y-4667143D01*
X9688571Y-4710000D01*
X9708571Y-4667143D01*
X9708571Y-4727143D01*
X9731429Y-4667143D02*
X9771429Y-4667143D01*
X9745714Y-4727143D01*
X9820000Y-4687143D02*
X9820000Y-4727143D01*
X9805714Y-4664286D02*
X9791429Y-4707143D01*
X9828571Y-4707143D01*
X9842857Y-4667143D02*
X9862857Y-4727143D01*
X9882857Y-4667143D01*
X9902857Y-4727143D02*
X9902857Y-4667143D01*
X9902857Y-4695714D02*
X9937143Y-4695714D01*
X9937143Y-4727143D02*
X9937143Y-4667143D01*
X10000000Y-4721429D02*
X9997143Y-4724286D01*
X9988571Y-4727143D01*
X9982857Y-4727143D01*
X9974286Y-4724286D01*
X9968571Y-4718571D01*
X9965714Y-4712857D01*
X9962857Y-4701429D01*
X9962857Y-4692857D01*
X9965714Y-4681429D01*
X9968571Y-4675714D01*
X9974286Y-4670000D01*
X9982857Y-4667143D01*
X9988571Y-4667143D01*
X9997143Y-4670000D01*
X10000000Y-4672857D01*
X10057143Y-4727143D02*
X10022857Y-4727143D01*
X10040000Y-4727143D02*
X10040000Y-4667143D01*
X10034286Y-4675714D01*
X10028571Y-4681429D01*
X10022857Y-4684286D01*
X10114286Y-4670000D02*
X10108571Y-4667143D01*
X10100000Y-4667143D01*
X10091429Y-4670000D01*
X10085714Y-4675714D01*
X10082857Y-4681429D01*
X10080000Y-4692857D01*
X10080000Y-4701429D01*
X10082857Y-4712857D01*
X10085714Y-4718571D01*
X10091429Y-4724286D01*
X10100000Y-4727143D01*
X10105714Y-4727143D01*
X10114286Y-4724286D01*
X10117143Y-4721429D01*
X10117143Y-4701429D01*
X10105714Y-4701429D01*
X10134286Y-4667143D02*
X10168571Y-4667143D01*
X10151429Y-4727143D02*
X10151429Y-4667143D01*
X10220000Y-4727143D02*
X10185714Y-4727143D01*
X10202857Y-4727143D02*
X10202857Y-4667143D01*
X10197143Y-4675714D01*
X10191429Y-4681429D01*
X10185714Y-4684286D01*
X10242857Y-4672857D02*
X10245714Y-4670000D01*
X10251429Y-4667143D01*
X10265714Y-4667143D01*
X10271429Y-4670000D01*
X10274286Y-4672857D01*
X10277143Y-4678571D01*
X10277143Y-4684286D01*
X10274286Y-4692857D01*
X10240000Y-4727143D01*
X10277143Y-4727143D01*
X10331429Y-4667143D02*
X10302857Y-4667143D01*
X10300000Y-4695714D01*
X10302857Y-4692857D01*
X10308571Y-4690000D01*
X10322857Y-4690000D01*
X10328571Y-4692857D01*
X10331429Y-4695714D01*
X10334286Y-4701429D01*
X10334286Y-4715714D01*
X10331429Y-4721429D01*
X10328571Y-4724286D01*
X10322857Y-4727143D01*
X10308571Y-4727143D01*
X10302857Y-4724286D01*
X10300000Y-4721429D01*
X10179286Y-4487143D02*
X10179286Y-4527143D01*
X10179286Y-4492857D02*
X10182143Y-4490000D01*
X10187857Y-4487143D01*
X10196429Y-4487143D01*
X10202143Y-4490000D01*
X10205000Y-4495714D01*
X10205000Y-4527143D01*
X10242143Y-4527143D02*
X10236429Y-4524286D01*
X10233571Y-4521429D01*
X10230714Y-4515714D01*
X10230714Y-4498571D01*
X10233571Y-4492857D01*
X10236429Y-4490000D01*
X10242143Y-4487143D01*
X10250714Y-4487143D01*
X10256429Y-4490000D01*
X10259286Y-4492857D01*
X10262143Y-4498571D01*
X10262143Y-4515714D01*
X10259286Y-4521429D01*
X10256429Y-4524286D01*
X10250714Y-4527143D01*
X10242143Y-4527143D01*
X10333571Y-4527143D02*
X10333571Y-4467143D01*
X10333571Y-4490000D02*
X10339286Y-4487143D01*
X10350714Y-4487143D01*
X10356429Y-4490000D01*
X10359286Y-4492857D01*
X10362143Y-4498571D01*
X10362143Y-4515714D01*
X10359286Y-4521429D01*
X10356429Y-4524286D01*
X10350714Y-4527143D01*
X10339286Y-4527143D01*
X10333571Y-4524286D01*
X10413571Y-4487143D02*
X10413571Y-4527143D01*
X10387857Y-4487143D02*
X10387857Y-4518571D01*
X10390714Y-4524286D01*
X10396429Y-4527143D01*
X10405000Y-4527143D01*
X10410714Y-4524286D01*
X10413571Y-4521429D01*
X10433571Y-4487143D02*
X10456429Y-4487143D01*
X10442143Y-4527143D02*
X10442143Y-4475714D01*
X10445000Y-4470000D01*
X10450714Y-4467143D01*
X10456429Y-4467143D01*
X10467857Y-4487143D02*
X10490714Y-4487143D01*
X10476429Y-4527143D02*
X10476429Y-4475714D01*
X10479286Y-4470000D01*
X10485000Y-4467143D01*
X10490714Y-4467143D01*
X10533571Y-4524286D02*
X10527857Y-4527143D01*
X10516429Y-4527143D01*
X10510714Y-4524286D01*
X10507857Y-4518571D01*
X10507857Y-4495714D01*
X10510714Y-4490000D01*
X10516429Y-4487143D01*
X10527857Y-4487143D01*
X10533571Y-4490000D01*
X10536429Y-4495714D01*
X10536429Y-4501429D01*
X10507857Y-4507143D01*
X10562143Y-4527143D02*
X10562143Y-4487143D01*
X10562143Y-4498571D02*
X10565000Y-4492857D01*
X10567857Y-4490000D01*
X10573571Y-4487143D01*
X10579286Y-4487143D01*
X10387143Y-5090000D02*
X10358571Y-5110000D01*
X10387143Y-5124286D02*
X10327143Y-5124286D01*
X10327143Y-5101429D01*
X10330000Y-5095714D01*
X10332857Y-5092857D01*
X10338571Y-5090000D01*
X10347143Y-5090000D01*
X10352857Y-5092857D01*
X10355714Y-5095714D01*
X10358571Y-5101429D01*
X10358571Y-5124286D01*
X10387143Y-5032857D02*
X10387143Y-5067143D01*
X10387143Y-5050000D02*
X10327143Y-5050000D01*
X10335714Y-5055714D01*
X10341429Y-5061429D01*
X10344286Y-5067143D01*
X10492857Y-5387143D02*
X10458571Y-5387143D01*
X10475714Y-5387143D02*
X10475714Y-5327143D01*
X10470000Y-5335714D01*
X10464286Y-5341429D01*
X10458571Y-5344286D01*
X10518571Y-5387143D02*
X10518571Y-5327143D01*
X10524286Y-5364286D02*
X10541429Y-5387143D01*
X10541429Y-5347143D02*
X10518571Y-5370000D01*
X10387143Y-4930000D02*
X10358571Y-4950000D01*
X10387143Y-4964286D02*
X10327143Y-4964286D01*
X10327143Y-4941429D01*
X10330000Y-4935714D01*
X10332857Y-4932857D01*
X10338571Y-4930000D01*
X10347143Y-4930000D01*
X10352857Y-4932857D01*
X10355714Y-4935714D01*
X10358571Y-4941429D01*
X10358571Y-4964286D01*
X10332857Y-4907143D02*
X10330000Y-4904286D01*
X10327143Y-4898571D01*
X10327143Y-4884286D01*
X10330000Y-4878571D01*
X10332857Y-4875714D01*
X10338571Y-4872857D01*
X10344286Y-4872857D01*
X10352857Y-4875714D01*
X10387143Y-4910000D01*
X10387143Y-4872857D01*
X10492857Y-4647143D02*
X10458571Y-4647143D01*
X10475714Y-4647143D02*
X10475714Y-4587143D01*
X10470000Y-4595714D01*
X10464286Y-4601429D01*
X10458571Y-4604286D01*
X10518571Y-4647143D02*
X10518571Y-4587143D01*
X10524286Y-4624286D02*
X10541429Y-4647143D01*
X10541429Y-4607143D02*
X10518571Y-4630000D01*
M02*
