G04 #@! TF.GenerationSoftware,KiCad,Pcbnew,(5.0.0-rc2-dev-596-gcfd2f1d00)*
G04 #@! TF.CreationDate,2019-01-30T17:14:36+02:00*
G04 #@! TF.ProjectId,WS2813_single_side_conn,5753323831335F73696E676C655F7369,rev?*
G04 #@! TF.SameCoordinates,Original*
G04 #@! TF.FileFunction,Copper,L1,Top,Signal*
G04 #@! TF.FilePolarity,Positive*
%FSLAX45Y45*%
G04 Gerber Fmt 4.5, Leading zero omitted, Abs format (unit mm)*
G04 Created by KiCad (PCBNEW (5.0.0-rc2-dev-596-gcfd2f1d00)) date 01/30/19 17:14:36*
%MOMM*%
%LPD*%
G01*
G04 APERTURE LIST*
%ADD10C,0.150000*%
%ADD11C,0.200000*%
%ADD12R,0.550000X1.200000*%
%ADD13C,0.800000*%
%ADD14O,1.600000X1.100000*%
%ADD15R,1.600000X1.100000*%
%ADD16C,1.800000*%
%ADD17C,0.700000*%
%ADD18C,0.500000*%
%ADD19C,0.200000*%
G04 APERTURE END LIST*
D10*
G36*
X9555980Y-4860048D02*
X9556951Y-4860192D01*
X9557903Y-4860431D01*
X9558827Y-4860761D01*
X9559714Y-4861181D01*
X9560556Y-4861685D01*
X9561344Y-4862270D01*
X9562071Y-4862929D01*
X9562730Y-4863656D01*
X9563315Y-4864444D01*
X9563819Y-4865286D01*
X9564239Y-4866173D01*
X9564570Y-4867097D01*
X9564808Y-4868049D01*
X9564952Y-4869020D01*
X9565000Y-4870000D01*
X9565000Y-4970000D01*
X9564952Y-4970980D01*
X9564808Y-4971951D01*
X9564570Y-4972903D01*
X9564239Y-4973827D01*
X9563819Y-4974714D01*
X9563315Y-4975556D01*
X9562730Y-4976344D01*
X9562071Y-4977071D01*
X9561344Y-4977730D01*
X9560556Y-4978315D01*
X9559714Y-4978819D01*
X9558827Y-4979239D01*
X9557903Y-4979569D01*
X9556951Y-4979808D01*
X9555980Y-4979952D01*
X9555000Y-4980000D01*
X9555000Y-4980000D01*
X9554020Y-4979952D01*
X9553049Y-4979808D01*
X9552097Y-4979569D01*
X9551173Y-4979239D01*
X9550286Y-4978819D01*
X9549444Y-4978315D01*
X9548656Y-4977730D01*
X9547929Y-4977071D01*
X9547270Y-4976344D01*
X9546685Y-4975556D01*
X9546181Y-4974714D01*
X9545761Y-4973827D01*
X9545431Y-4972903D01*
X9545192Y-4971951D01*
X9545048Y-4970980D01*
X9545000Y-4970000D01*
X9545000Y-4870000D01*
X9545048Y-4869020D01*
X9545192Y-4868049D01*
X9545431Y-4867097D01*
X9545761Y-4866173D01*
X9546181Y-4865286D01*
X9546685Y-4864444D01*
X9547270Y-4863656D01*
X9547929Y-4862929D01*
X9548656Y-4862270D01*
X9549444Y-4861685D01*
X9550286Y-4861181D01*
X9551173Y-4860761D01*
X9552097Y-4860431D01*
X9553049Y-4860192D01*
X9554020Y-4860048D01*
X9555000Y-4860000D01*
X9555000Y-4860000D01*
X9555980Y-4860048D01*
X9555980Y-4860048D01*
G37*
D11*
X9555000Y-4920000D03*
D12*
X9527500Y-4920000D03*
D13*
X9500000Y-4920000D03*
X9500000Y-4760000D03*
D12*
X9527500Y-4760000D03*
D10*
G36*
X9555980Y-4700048D02*
X9556951Y-4700192D01*
X9557903Y-4700431D01*
X9558827Y-4700761D01*
X9559714Y-4701181D01*
X9560556Y-4701685D01*
X9561344Y-4702270D01*
X9562071Y-4702929D01*
X9562730Y-4703656D01*
X9563315Y-4704444D01*
X9563819Y-4705286D01*
X9564239Y-4706173D01*
X9564570Y-4707097D01*
X9564808Y-4708049D01*
X9564952Y-4709020D01*
X9565000Y-4710000D01*
X9565000Y-4810000D01*
X9564952Y-4810980D01*
X9564808Y-4811951D01*
X9564570Y-4812903D01*
X9564239Y-4813827D01*
X9563819Y-4814714D01*
X9563315Y-4815556D01*
X9562730Y-4816344D01*
X9562071Y-4817071D01*
X9561344Y-4817730D01*
X9560556Y-4818315D01*
X9559714Y-4818819D01*
X9558827Y-4819239D01*
X9557903Y-4819569D01*
X9556951Y-4819808D01*
X9555980Y-4819952D01*
X9555000Y-4820000D01*
X9555000Y-4820000D01*
X9554020Y-4819952D01*
X9553049Y-4819808D01*
X9552097Y-4819569D01*
X9551173Y-4819239D01*
X9550286Y-4818819D01*
X9549444Y-4818315D01*
X9548656Y-4817730D01*
X9547929Y-4817071D01*
X9547270Y-4816344D01*
X9546685Y-4815556D01*
X9546181Y-4814714D01*
X9545761Y-4813827D01*
X9545431Y-4812903D01*
X9545192Y-4811951D01*
X9545048Y-4810980D01*
X9545000Y-4810000D01*
X9545000Y-4710000D01*
X9545048Y-4709020D01*
X9545192Y-4708049D01*
X9545431Y-4707097D01*
X9545761Y-4706173D01*
X9546181Y-4705286D01*
X9546685Y-4704444D01*
X9547270Y-4703656D01*
X9547929Y-4702929D01*
X9548656Y-4702270D01*
X9549444Y-4701685D01*
X9550286Y-4701181D01*
X9551173Y-4700761D01*
X9552097Y-4700431D01*
X9553049Y-4700192D01*
X9554020Y-4700048D01*
X9555000Y-4700000D01*
X9555000Y-4700000D01*
X9555980Y-4700048D01*
X9555980Y-4700048D01*
G37*
D11*
X9555000Y-4760000D03*
D10*
G36*
X9555980Y-5020048D02*
X9556951Y-5020192D01*
X9557903Y-5020431D01*
X9558827Y-5020761D01*
X9559714Y-5021181D01*
X9560556Y-5021685D01*
X9561344Y-5022270D01*
X9562071Y-5022929D01*
X9562730Y-5023656D01*
X9563315Y-5024444D01*
X9563819Y-5025286D01*
X9564239Y-5026173D01*
X9564570Y-5027097D01*
X9564808Y-5028049D01*
X9564952Y-5029020D01*
X9565000Y-5030000D01*
X9565000Y-5130000D01*
X9564952Y-5130980D01*
X9564808Y-5131951D01*
X9564570Y-5132903D01*
X9564239Y-5133827D01*
X9563819Y-5134714D01*
X9563315Y-5135556D01*
X9562730Y-5136344D01*
X9562071Y-5137071D01*
X9561344Y-5137730D01*
X9560556Y-5138315D01*
X9559714Y-5138819D01*
X9558827Y-5139239D01*
X9557903Y-5139569D01*
X9556951Y-5139808D01*
X9555980Y-5139952D01*
X9555000Y-5140000D01*
X9555000Y-5140000D01*
X9554020Y-5139952D01*
X9553049Y-5139808D01*
X9552097Y-5139569D01*
X9551173Y-5139239D01*
X9550286Y-5138819D01*
X9549444Y-5138315D01*
X9548656Y-5137730D01*
X9547929Y-5137071D01*
X9547270Y-5136344D01*
X9546685Y-5135556D01*
X9546181Y-5134714D01*
X9545761Y-5133827D01*
X9545431Y-5132903D01*
X9545192Y-5131951D01*
X9545048Y-5130980D01*
X9545000Y-5130000D01*
X9545000Y-5030000D01*
X9545048Y-5029020D01*
X9545192Y-5028049D01*
X9545431Y-5027097D01*
X9545761Y-5026173D01*
X9546181Y-5025286D01*
X9546685Y-5024444D01*
X9547270Y-5023656D01*
X9547929Y-5022929D01*
X9548656Y-5022270D01*
X9549444Y-5021685D01*
X9550286Y-5021181D01*
X9551173Y-5020761D01*
X9552097Y-5020431D01*
X9553049Y-5020192D01*
X9554020Y-5020048D01*
X9555000Y-5020000D01*
X9555000Y-5020000D01*
X9555980Y-5020048D01*
X9555980Y-5020048D01*
G37*
D11*
X9555000Y-5080000D03*
D12*
X9527500Y-5080000D03*
D13*
X9500000Y-5080000D03*
X9500000Y-5240000D03*
D12*
X9527500Y-5240000D03*
D10*
G36*
X9555980Y-5180048D02*
X9556951Y-5180192D01*
X9557903Y-5180431D01*
X9558827Y-5180761D01*
X9559714Y-5181181D01*
X9560556Y-5181685D01*
X9561344Y-5182270D01*
X9562071Y-5182929D01*
X9562730Y-5183656D01*
X9563315Y-5184444D01*
X9563819Y-5185286D01*
X9564239Y-5186173D01*
X9564570Y-5187097D01*
X9564808Y-5188049D01*
X9564952Y-5189020D01*
X9565000Y-5190000D01*
X9565000Y-5290000D01*
X9564952Y-5290980D01*
X9564808Y-5291951D01*
X9564570Y-5292903D01*
X9564239Y-5293827D01*
X9563819Y-5294714D01*
X9563315Y-5295556D01*
X9562730Y-5296344D01*
X9562071Y-5297071D01*
X9561344Y-5297730D01*
X9560556Y-5298315D01*
X9559714Y-5298819D01*
X9558827Y-5299239D01*
X9557903Y-5299569D01*
X9556951Y-5299808D01*
X9555980Y-5299952D01*
X9555000Y-5300000D01*
X9555000Y-5300000D01*
X9554020Y-5299952D01*
X9553049Y-5299808D01*
X9552097Y-5299569D01*
X9551173Y-5299239D01*
X9550286Y-5298819D01*
X9549444Y-5298315D01*
X9548656Y-5297730D01*
X9547929Y-5297071D01*
X9547270Y-5296344D01*
X9546685Y-5295556D01*
X9546181Y-5294714D01*
X9545761Y-5293827D01*
X9545431Y-5292903D01*
X9545192Y-5291951D01*
X9545048Y-5290980D01*
X9545000Y-5290000D01*
X9545000Y-5190000D01*
X9545048Y-5189020D01*
X9545192Y-5188049D01*
X9545431Y-5187097D01*
X9545761Y-5186173D01*
X9546181Y-5185286D01*
X9546685Y-5184444D01*
X9547270Y-5183656D01*
X9547929Y-5182929D01*
X9548656Y-5182270D01*
X9549444Y-5181685D01*
X9550286Y-5181181D01*
X9551173Y-5180761D01*
X9552097Y-5180431D01*
X9553049Y-5180192D01*
X9554020Y-5180048D01*
X9555000Y-5180000D01*
X9555000Y-5180000D01*
X9555980Y-5180048D01*
X9555980Y-5180048D01*
G37*
D11*
X9555000Y-5240000D03*
D10*
G36*
X10445980Y-4860048D02*
X10446951Y-4860192D01*
X10447903Y-4860431D01*
X10448827Y-4860761D01*
X10449714Y-4861181D01*
X10450556Y-4861685D01*
X10451344Y-4862270D01*
X10452071Y-4862929D01*
X10452730Y-4863656D01*
X10453315Y-4864444D01*
X10453819Y-4865286D01*
X10454239Y-4866173D01*
X10454570Y-4867097D01*
X10454808Y-4868049D01*
X10454952Y-4869020D01*
X10455000Y-4870000D01*
X10455000Y-4970000D01*
X10454952Y-4970980D01*
X10454808Y-4971951D01*
X10454570Y-4972903D01*
X10454239Y-4973827D01*
X10453819Y-4974714D01*
X10453315Y-4975556D01*
X10452730Y-4976344D01*
X10452071Y-4977071D01*
X10451344Y-4977730D01*
X10450556Y-4978315D01*
X10449714Y-4978819D01*
X10448827Y-4979239D01*
X10447903Y-4979569D01*
X10446951Y-4979808D01*
X10445980Y-4979952D01*
X10445000Y-4980000D01*
X10445000Y-4980000D01*
X10444020Y-4979952D01*
X10443049Y-4979808D01*
X10442097Y-4979569D01*
X10441173Y-4979239D01*
X10440286Y-4978819D01*
X10439444Y-4978315D01*
X10438656Y-4977730D01*
X10437929Y-4977071D01*
X10437270Y-4976344D01*
X10436685Y-4975556D01*
X10436181Y-4974714D01*
X10435761Y-4973827D01*
X10435431Y-4972903D01*
X10435192Y-4971951D01*
X10435048Y-4970980D01*
X10435000Y-4970000D01*
X10435000Y-4870000D01*
X10435048Y-4869020D01*
X10435192Y-4868049D01*
X10435431Y-4867097D01*
X10435761Y-4866173D01*
X10436181Y-4865286D01*
X10436685Y-4864444D01*
X10437270Y-4863656D01*
X10437929Y-4862929D01*
X10438656Y-4862270D01*
X10439444Y-4861685D01*
X10440286Y-4861181D01*
X10441173Y-4860761D01*
X10442097Y-4860431D01*
X10443049Y-4860192D01*
X10444020Y-4860048D01*
X10445000Y-4860000D01*
X10445000Y-4860000D01*
X10445980Y-4860048D01*
X10445980Y-4860048D01*
G37*
D11*
X10445000Y-4920000D03*
D12*
X10472500Y-4920000D03*
D13*
X10500000Y-4920000D03*
X10500000Y-4760000D03*
D12*
X10472500Y-4760000D03*
D10*
G36*
X10445980Y-4700048D02*
X10446951Y-4700192D01*
X10447903Y-4700431D01*
X10448827Y-4700761D01*
X10449714Y-4701181D01*
X10450556Y-4701685D01*
X10451344Y-4702270D01*
X10452071Y-4702929D01*
X10452730Y-4703656D01*
X10453315Y-4704444D01*
X10453819Y-4705286D01*
X10454239Y-4706173D01*
X10454570Y-4707097D01*
X10454808Y-4708049D01*
X10454952Y-4709020D01*
X10455000Y-4710000D01*
X10455000Y-4810000D01*
X10454952Y-4810980D01*
X10454808Y-4811951D01*
X10454570Y-4812903D01*
X10454239Y-4813827D01*
X10453819Y-4814714D01*
X10453315Y-4815556D01*
X10452730Y-4816344D01*
X10452071Y-4817071D01*
X10451344Y-4817730D01*
X10450556Y-4818315D01*
X10449714Y-4818819D01*
X10448827Y-4819239D01*
X10447903Y-4819569D01*
X10446951Y-4819808D01*
X10445980Y-4819952D01*
X10445000Y-4820000D01*
X10445000Y-4820000D01*
X10444020Y-4819952D01*
X10443049Y-4819808D01*
X10442097Y-4819569D01*
X10441173Y-4819239D01*
X10440286Y-4818819D01*
X10439444Y-4818315D01*
X10438656Y-4817730D01*
X10437929Y-4817071D01*
X10437270Y-4816344D01*
X10436685Y-4815556D01*
X10436181Y-4814714D01*
X10435761Y-4813827D01*
X10435431Y-4812903D01*
X10435192Y-4811951D01*
X10435048Y-4810980D01*
X10435000Y-4810000D01*
X10435000Y-4710000D01*
X10435048Y-4709020D01*
X10435192Y-4708049D01*
X10435431Y-4707097D01*
X10435761Y-4706173D01*
X10436181Y-4705286D01*
X10436685Y-4704444D01*
X10437270Y-4703656D01*
X10437929Y-4702929D01*
X10438656Y-4702270D01*
X10439444Y-4701685D01*
X10440286Y-4701181D01*
X10441173Y-4700761D01*
X10442097Y-4700431D01*
X10443049Y-4700192D01*
X10444020Y-4700048D01*
X10445000Y-4700000D01*
X10445000Y-4700000D01*
X10445980Y-4700048D01*
X10445980Y-4700048D01*
G37*
D11*
X10445000Y-4760000D03*
D10*
G36*
X10445980Y-5020048D02*
X10446951Y-5020192D01*
X10447903Y-5020431D01*
X10448827Y-5020761D01*
X10449714Y-5021181D01*
X10450556Y-5021685D01*
X10451344Y-5022270D01*
X10452071Y-5022929D01*
X10452730Y-5023656D01*
X10453315Y-5024444D01*
X10453819Y-5025286D01*
X10454239Y-5026173D01*
X10454570Y-5027097D01*
X10454808Y-5028049D01*
X10454952Y-5029020D01*
X10455000Y-5030000D01*
X10455000Y-5130000D01*
X10454952Y-5130980D01*
X10454808Y-5131951D01*
X10454570Y-5132903D01*
X10454239Y-5133827D01*
X10453819Y-5134714D01*
X10453315Y-5135556D01*
X10452730Y-5136344D01*
X10452071Y-5137071D01*
X10451344Y-5137730D01*
X10450556Y-5138315D01*
X10449714Y-5138819D01*
X10448827Y-5139239D01*
X10447903Y-5139569D01*
X10446951Y-5139808D01*
X10445980Y-5139952D01*
X10445000Y-5140000D01*
X10445000Y-5140000D01*
X10444020Y-5139952D01*
X10443049Y-5139808D01*
X10442097Y-5139569D01*
X10441173Y-5139239D01*
X10440286Y-5138819D01*
X10439444Y-5138315D01*
X10438656Y-5137730D01*
X10437929Y-5137071D01*
X10437270Y-5136344D01*
X10436685Y-5135556D01*
X10436181Y-5134714D01*
X10435761Y-5133827D01*
X10435431Y-5132903D01*
X10435192Y-5131951D01*
X10435048Y-5130980D01*
X10435000Y-5130000D01*
X10435000Y-5030000D01*
X10435048Y-5029020D01*
X10435192Y-5028049D01*
X10435431Y-5027097D01*
X10435761Y-5026173D01*
X10436181Y-5025286D01*
X10436685Y-5024444D01*
X10437270Y-5023656D01*
X10437929Y-5022929D01*
X10438656Y-5022270D01*
X10439444Y-5021685D01*
X10440286Y-5021181D01*
X10441173Y-5020761D01*
X10442097Y-5020431D01*
X10443049Y-5020192D01*
X10444020Y-5020048D01*
X10445000Y-5020000D01*
X10445000Y-5020000D01*
X10445980Y-5020048D01*
X10445980Y-5020048D01*
G37*
D11*
X10445000Y-5080000D03*
D12*
X10472500Y-5080000D03*
D13*
X10500000Y-5080000D03*
X10500000Y-5240000D03*
D12*
X10472500Y-5240000D03*
D10*
G36*
X10445980Y-5180048D02*
X10446951Y-5180192D01*
X10447903Y-5180431D01*
X10448827Y-5180761D01*
X10449714Y-5181181D01*
X10450556Y-5181685D01*
X10451344Y-5182270D01*
X10452071Y-5182929D01*
X10452730Y-5183656D01*
X10453315Y-5184444D01*
X10453819Y-5185286D01*
X10454239Y-5186173D01*
X10454570Y-5187097D01*
X10454808Y-5188049D01*
X10454952Y-5189020D01*
X10455000Y-5190000D01*
X10455000Y-5290000D01*
X10454952Y-5290980D01*
X10454808Y-5291951D01*
X10454570Y-5292903D01*
X10454239Y-5293827D01*
X10453819Y-5294714D01*
X10453315Y-5295556D01*
X10452730Y-5296344D01*
X10452071Y-5297071D01*
X10451344Y-5297730D01*
X10450556Y-5298315D01*
X10449714Y-5298819D01*
X10448827Y-5299239D01*
X10447903Y-5299569D01*
X10446951Y-5299808D01*
X10445980Y-5299952D01*
X10445000Y-5300000D01*
X10445000Y-5300000D01*
X10444020Y-5299952D01*
X10443049Y-5299808D01*
X10442097Y-5299569D01*
X10441173Y-5299239D01*
X10440286Y-5298819D01*
X10439444Y-5298315D01*
X10438656Y-5297730D01*
X10437929Y-5297071D01*
X10437270Y-5296344D01*
X10436685Y-5295556D01*
X10436181Y-5294714D01*
X10435761Y-5293827D01*
X10435431Y-5292903D01*
X10435192Y-5291951D01*
X10435048Y-5290980D01*
X10435000Y-5290000D01*
X10435000Y-5190000D01*
X10435048Y-5189020D01*
X10435192Y-5188049D01*
X10435431Y-5187097D01*
X10435761Y-5186173D01*
X10436181Y-5185286D01*
X10436685Y-5184444D01*
X10437270Y-5183656D01*
X10437929Y-5182929D01*
X10438656Y-5182270D01*
X10439444Y-5181685D01*
X10440286Y-5181181D01*
X10441173Y-5180761D01*
X10442097Y-5180431D01*
X10443049Y-5180192D01*
X10444020Y-5180048D01*
X10445000Y-5180000D01*
X10445000Y-5180000D01*
X10445980Y-5180048D01*
X10445980Y-5180048D01*
G37*
D11*
X10445000Y-5240000D03*
D14*
X10250000Y-4840000D03*
X9750000Y-5160000D03*
X9750000Y-4840000D03*
D15*
X10250000Y-5160000D03*
D14*
X10250000Y-5000000D03*
X9750000Y-5000000D03*
D16*
X10000000Y-5000000D03*
D17*
X10152740Y-4757220D03*
D18*
X9555000Y-5080000D02*
X9704900Y-4999490D01*
X9704900Y-4999490D02*
X9725000Y-5000000D01*
X9725000Y-5000000D02*
X9750000Y-5000000D01*
X10000000Y-5000000D02*
X10115480Y-4794640D01*
X10115480Y-4794640D02*
X10152740Y-4757220D01*
X10250000Y-5160000D02*
X10305000Y-5190000D01*
X10305000Y-5190000D02*
X10330000Y-5190000D01*
X10330000Y-5190000D02*
X10340360Y-5190000D01*
X10340360Y-5190000D02*
X10371900Y-5203650D01*
X10371900Y-5203650D02*
X10434960Y-5203650D01*
X10434960Y-5203650D02*
X10459960Y-5203650D01*
X10459960Y-5203650D02*
X10445000Y-5240000D01*
X10371900Y-5203650D02*
X10382480Y-5172590D01*
X10382480Y-5172590D02*
X10382480Y-5129110D01*
X10382480Y-5129110D02*
X10382480Y-5083260D01*
X10382480Y-5083260D02*
X10351740Y-5052520D01*
X10351740Y-5052520D02*
X10275000Y-5000000D01*
X10275000Y-5000000D02*
X10250000Y-5000000D01*
X9555000Y-5240000D02*
X9540040Y-5270010D01*
X9540040Y-5270010D02*
X9565040Y-5270010D01*
X9565040Y-5270010D02*
X9820570Y-5270010D01*
X9820570Y-5270010D02*
X10159640Y-5190000D01*
X10159640Y-5190000D02*
X10170000Y-5190000D01*
X10170000Y-5190000D02*
X10195000Y-5190000D01*
X10195000Y-5190000D02*
X10250000Y-5160000D01*
D19*
X9750000Y-4840000D02*
X9725000Y-4840000D01*
X9725000Y-4840000D02*
X9564660Y-4867410D01*
X9564660Y-4867410D02*
X9555000Y-4920000D01*
X9750000Y-5160000D02*
X9775000Y-5160000D01*
X9775000Y-5160000D02*
X9870000Y-5039350D01*
X9870000Y-5039350D02*
X9870010Y-4800650D01*
X9870010Y-4800650D02*
X9814350Y-4744990D01*
X9814350Y-4744990D02*
X9565040Y-4744990D01*
X9565040Y-4744990D02*
X9555040Y-4744990D01*
X9555040Y-4744990D02*
X9555000Y-4760000D01*
X10445000Y-4920000D02*
X10435030Y-4869130D01*
X10435030Y-4869130D02*
X10434630Y-4869130D01*
X10434630Y-4869130D02*
X10275000Y-4840000D01*
X10275000Y-4840000D02*
X10250000Y-4840000D01*
G36*
X9656509Y-4908491D02*
X9687933Y-4929488D01*
X9715644Y-4935000D01*
X9784356Y-4935000D01*
X9812067Y-4929488D01*
X9820005Y-4924184D01*
X9820001Y-5022027D01*
X9785919Y-5065311D01*
X9784356Y-5065000D01*
X9715644Y-5065000D01*
X9687933Y-5070512D01*
X9656509Y-5091509D01*
X9635512Y-5122933D01*
X9628139Y-5160000D01*
X9635512Y-5197067D01*
X9640819Y-5205010D01*
X9609869Y-5205010D01*
X9605784Y-5197864D01*
X9605784Y-5190000D01*
X9601918Y-5170566D01*
X9590910Y-5154091D01*
X9574434Y-5143082D01*
X9555000Y-5139216D01*
X9547500Y-5139216D01*
X9547500Y-5020784D01*
X9555000Y-5020784D01*
X9574434Y-5016918D01*
X9590910Y-5005909D01*
X9601918Y-4989434D01*
X9605784Y-4970000D01*
X9605784Y-4920287D01*
X9607525Y-4910808D01*
X9652876Y-4903055D01*
X9656509Y-4908491D01*
X9656509Y-4908491D01*
G37*
X9656509Y-4908491D02*
X9687933Y-4929488D01*
X9715644Y-4935000D01*
X9784356Y-4935000D01*
X9812067Y-4929488D01*
X9820005Y-4924184D01*
X9820001Y-5022027D01*
X9785919Y-5065311D01*
X9784356Y-5065000D01*
X9715644Y-5065000D01*
X9687933Y-5070512D01*
X9656509Y-5091509D01*
X9635512Y-5122933D01*
X9628139Y-5160000D01*
X9635512Y-5197067D01*
X9640819Y-5205010D01*
X9609869Y-5205010D01*
X9605784Y-5197864D01*
X9605784Y-5190000D01*
X9601918Y-5170566D01*
X9590910Y-5154091D01*
X9574434Y-5143082D01*
X9555000Y-5139216D01*
X9547500Y-5139216D01*
X9547500Y-5020784D01*
X9555000Y-5020784D01*
X9574434Y-5016918D01*
X9590910Y-5005909D01*
X9601918Y-4989434D01*
X9605784Y-4970000D01*
X9605784Y-4920287D01*
X9607525Y-4910808D01*
X9652876Y-4903055D01*
X9656509Y-4908491D01*
G36*
X10394216Y-4710000D02*
X10394216Y-4810000D01*
X10394408Y-4810965D01*
X10365019Y-4805601D01*
X10364488Y-4802933D01*
X10343491Y-4771509D01*
X10312067Y-4750512D01*
X10284356Y-4745000D01*
X10215644Y-4745000D01*
X10187933Y-4750512D01*
X10156509Y-4771509D01*
X10135512Y-4802933D01*
X10128139Y-4840000D01*
X10135512Y-4877067D01*
X10156509Y-4908491D01*
X10173733Y-4920000D01*
X10156509Y-4931509D01*
X10135512Y-4962933D01*
X10128139Y-5000000D01*
X10135512Y-5037067D01*
X10155571Y-5067087D01*
X10154393Y-5067321D01*
X10141162Y-5076162D01*
X10132321Y-5089393D01*
X10129216Y-5105000D01*
X10129216Y-5130394D01*
X9865366Y-5192655D01*
X9871861Y-5160000D01*
X9865161Y-5126318D01*
X9904375Y-5076516D01*
X9906046Y-5075400D01*
X9910489Y-5068752D01*
X9912330Y-5066413D01*
X9913219Y-5064665D01*
X9917098Y-5058861D01*
X9917692Y-5055874D01*
X9919073Y-5053160D01*
X9919617Y-5046199D01*
X9920000Y-5044276D01*
X9920000Y-5041302D01*
X9920623Y-5033329D01*
X9920000Y-5031417D01*
X9920010Y-4805575D01*
X9920990Y-4800650D01*
X9918904Y-4790164D01*
X9917110Y-4781143D01*
X9917109Y-4781142D01*
X9917109Y-4781141D01*
X9910673Y-4771509D01*
X9906060Y-4764604D01*
X9901884Y-4761814D01*
X9853188Y-4713117D01*
X9850398Y-4708942D01*
X9833859Y-4697891D01*
X9831893Y-4697500D01*
X10396703Y-4697500D01*
X10394216Y-4710000D01*
X10394216Y-4710000D01*
G37*
X10394216Y-4710000D02*
X10394216Y-4810000D01*
X10394408Y-4810965D01*
X10365019Y-4805601D01*
X10364488Y-4802933D01*
X10343491Y-4771509D01*
X10312067Y-4750512D01*
X10284356Y-4745000D01*
X10215644Y-4745000D01*
X10187933Y-4750512D01*
X10156509Y-4771509D01*
X10135512Y-4802933D01*
X10128139Y-4840000D01*
X10135512Y-4877067D01*
X10156509Y-4908491D01*
X10173733Y-4920000D01*
X10156509Y-4931509D01*
X10135512Y-4962933D01*
X10128139Y-5000000D01*
X10135512Y-5037067D01*
X10155571Y-5067087D01*
X10154393Y-5067321D01*
X10141162Y-5076162D01*
X10132321Y-5089393D01*
X10129216Y-5105000D01*
X10129216Y-5130394D01*
X9865366Y-5192655D01*
X9871861Y-5160000D01*
X9865161Y-5126318D01*
X9904375Y-5076516D01*
X9906046Y-5075400D01*
X9910489Y-5068752D01*
X9912330Y-5066413D01*
X9913219Y-5064665D01*
X9917098Y-5058861D01*
X9917692Y-5055874D01*
X9919073Y-5053160D01*
X9919617Y-5046199D01*
X9920000Y-5044276D01*
X9920000Y-5041302D01*
X9920623Y-5033329D01*
X9920000Y-5031417D01*
X9920010Y-4805575D01*
X9920990Y-4800650D01*
X9918904Y-4790164D01*
X9917110Y-4781143D01*
X9917109Y-4781142D01*
X9917109Y-4781141D01*
X9910673Y-4771509D01*
X9906060Y-4764604D01*
X9901884Y-4761814D01*
X9853188Y-4713117D01*
X9850398Y-4708942D01*
X9833859Y-4697891D01*
X9831893Y-4697500D01*
X10396703Y-4697500D01*
X10394216Y-4710000D01*
G36*
X10392535Y-4912274D02*
X10394216Y-4920855D01*
X10394216Y-4970000D01*
X10398082Y-4989434D01*
X10409091Y-5005909D01*
X10425566Y-5016918D01*
X10445000Y-5020784D01*
X10452500Y-5020784D01*
X10452500Y-5138650D01*
X10447480Y-5138650D01*
X10447480Y-5089662D01*
X10448753Y-5083260D01*
X10446218Y-5070512D01*
X10443709Y-5057898D01*
X10429342Y-5036398D01*
X10423915Y-5032771D01*
X10397962Y-5006818D01*
X10393734Y-5002495D01*
X10393433Y-5002289D01*
X10393175Y-5002031D01*
X10388162Y-4998682D01*
X10368989Y-4985560D01*
X10364488Y-4962933D01*
X10343491Y-4931509D01*
X10326267Y-4920000D01*
X10343491Y-4908491D01*
X10346568Y-4903886D01*
X10392535Y-4912274D01*
X10392535Y-4912274D01*
G37*
X10392535Y-4912274D02*
X10394216Y-4920855D01*
X10394216Y-4970000D01*
X10398082Y-4989434D01*
X10409091Y-5005909D01*
X10425566Y-5016918D01*
X10445000Y-5020784D01*
X10452500Y-5020784D01*
X10452500Y-5138650D01*
X10447480Y-5138650D01*
X10447480Y-5089662D01*
X10448753Y-5083260D01*
X10446218Y-5070512D01*
X10443709Y-5057898D01*
X10429342Y-5036398D01*
X10423915Y-5032771D01*
X10397962Y-5006818D01*
X10393734Y-5002495D01*
X10393433Y-5002289D01*
X10393175Y-5002031D01*
X10388162Y-4998682D01*
X10368989Y-4985560D01*
X10364488Y-4962933D01*
X10343491Y-4931509D01*
X10326267Y-4920000D01*
X10343491Y-4908491D01*
X10346568Y-4903886D01*
X10392535Y-4912274D01*
M02*
