G04 #@! TF.GenerationSoftware,KiCad,Pcbnew,(5.0.0-rc2-dev-596-gcfd2f1d00)*
G04 #@! TF.CreationDate,2018-11-17T14:23:37+02:00*
G04 #@! TF.ProjectId,WS2813_module,5753323831335F6D6F64756C652E6B69,rev?*
G04 #@! TF.SameCoordinates,Original*
G04 #@! TF.FileFunction,Soldermask,Bot*
G04 #@! TF.FilePolarity,Negative*
%FSLAX45Y45*%
G04 Gerber Fmt 4.5, Leading zero omitted, Abs format (unit mm)*
G04 Created by KiCad (PCBNEW (5.0.0-rc2-dev-596-gcfd2f1d00)) date 11/17/18 14:23:37*
%MOMM*%
%LPD*%
G01*
G04 APERTURE LIST*
%ADD10C,0.150000*%
%ADD11C,2.900000*%
%ADD12R,3.100000X2.900000*%
%ADD13C,2.400000*%
G04 APERTURE END LIST*
D10*
G36*
X10489606Y-5335349D02*
X10496644Y-5336393D01*
X10503546Y-5338122D01*
X10510245Y-5340519D01*
X10516676Y-5343561D01*
X10522779Y-5347219D01*
X10528494Y-5351457D01*
X10533765Y-5356235D01*
X10538543Y-5361507D01*
X10542782Y-5367221D01*
X10546439Y-5373324D01*
X10549481Y-5379756D01*
X10551878Y-5386454D01*
X10553607Y-5393356D01*
X10554651Y-5400394D01*
X10555000Y-5407500D01*
X10555000Y-5552500D01*
X10554651Y-5559606D01*
X10553607Y-5566644D01*
X10551878Y-5573546D01*
X10549481Y-5580245D01*
X10546439Y-5586676D01*
X10542782Y-5592779D01*
X10538543Y-5598493D01*
X10533765Y-5603765D01*
X10528494Y-5608543D01*
X10522779Y-5612781D01*
X10516676Y-5616439D01*
X10510245Y-5619481D01*
X10503546Y-5621878D01*
X10496644Y-5623607D01*
X10489606Y-5624651D01*
X10482500Y-5625000D01*
X10317500Y-5625000D01*
X10310394Y-5624651D01*
X10303356Y-5623607D01*
X10296454Y-5621878D01*
X10289756Y-5619481D01*
X10283324Y-5616439D01*
X10277221Y-5612781D01*
X10271507Y-5608543D01*
X10266235Y-5603765D01*
X10261457Y-5598493D01*
X10257219Y-5592779D01*
X10253561Y-5586676D01*
X10250519Y-5580245D01*
X10248122Y-5573546D01*
X10246393Y-5566644D01*
X10245349Y-5559606D01*
X10245000Y-5552500D01*
X10245000Y-5407500D01*
X10245349Y-5400394D01*
X10246393Y-5393356D01*
X10248122Y-5386454D01*
X10250519Y-5379756D01*
X10253561Y-5373324D01*
X10257219Y-5367221D01*
X10261457Y-5361507D01*
X10266235Y-5356235D01*
X10271507Y-5351457D01*
X10277221Y-5347219D01*
X10283324Y-5343561D01*
X10289756Y-5340519D01*
X10296454Y-5338122D01*
X10303356Y-5336393D01*
X10310394Y-5335349D01*
X10317500Y-5335000D01*
X10482500Y-5335000D01*
X10489606Y-5335349D01*
X10489606Y-5335349D01*
G37*
D11*
X10400000Y-5480000D03*
D10*
G36*
X10489606Y-5015349D02*
X10496644Y-5016393D01*
X10503546Y-5018122D01*
X10510245Y-5020519D01*
X10516676Y-5023561D01*
X10522779Y-5027219D01*
X10528494Y-5031457D01*
X10533765Y-5036235D01*
X10538543Y-5041507D01*
X10542782Y-5047221D01*
X10546439Y-5053324D01*
X10549481Y-5059756D01*
X10551878Y-5066454D01*
X10553607Y-5073356D01*
X10554651Y-5080394D01*
X10555000Y-5087500D01*
X10555000Y-5232500D01*
X10554651Y-5239606D01*
X10553607Y-5246644D01*
X10551878Y-5253546D01*
X10549481Y-5260245D01*
X10546439Y-5266676D01*
X10542782Y-5272779D01*
X10538543Y-5278494D01*
X10533765Y-5283765D01*
X10528494Y-5288543D01*
X10522779Y-5292782D01*
X10516676Y-5296439D01*
X10510245Y-5299481D01*
X10503546Y-5301878D01*
X10496644Y-5303607D01*
X10489606Y-5304651D01*
X10482500Y-5305000D01*
X10317500Y-5305000D01*
X10310394Y-5304651D01*
X10303356Y-5303607D01*
X10296454Y-5301878D01*
X10289756Y-5299481D01*
X10283324Y-5296439D01*
X10277221Y-5292782D01*
X10271507Y-5288543D01*
X10266235Y-5283765D01*
X10261457Y-5278494D01*
X10257219Y-5272779D01*
X10253561Y-5266676D01*
X10250519Y-5260245D01*
X10248122Y-5253546D01*
X10246393Y-5246644D01*
X10245349Y-5239606D01*
X10245000Y-5232500D01*
X10245000Y-5087500D01*
X10245349Y-5080394D01*
X10246393Y-5073356D01*
X10248122Y-5066454D01*
X10250519Y-5059756D01*
X10253561Y-5053324D01*
X10257219Y-5047221D01*
X10261457Y-5041507D01*
X10266235Y-5036235D01*
X10271507Y-5031457D01*
X10277221Y-5027219D01*
X10283324Y-5023561D01*
X10289756Y-5020519D01*
X10296454Y-5018122D01*
X10303356Y-5016393D01*
X10310394Y-5015349D01*
X10317500Y-5015000D01*
X10482500Y-5015000D01*
X10489606Y-5015349D01*
X10489606Y-5015349D01*
G37*
D11*
X10400000Y-5160000D03*
D10*
G36*
X10489606Y-4695349D02*
X10496644Y-4696393D01*
X10503546Y-4698122D01*
X10510245Y-4700519D01*
X10516676Y-4703561D01*
X10522779Y-4707219D01*
X10528494Y-4711457D01*
X10533765Y-4716235D01*
X10538543Y-4721507D01*
X10542782Y-4727221D01*
X10546439Y-4733324D01*
X10549481Y-4739756D01*
X10551878Y-4746454D01*
X10553607Y-4753356D01*
X10554651Y-4760394D01*
X10555000Y-4767500D01*
X10555000Y-4912500D01*
X10554651Y-4919606D01*
X10553607Y-4926644D01*
X10551878Y-4933546D01*
X10549481Y-4940245D01*
X10546439Y-4946676D01*
X10542782Y-4952779D01*
X10538543Y-4958494D01*
X10533765Y-4963765D01*
X10528494Y-4968543D01*
X10522779Y-4972782D01*
X10516676Y-4976439D01*
X10510245Y-4979481D01*
X10503546Y-4981878D01*
X10496644Y-4983607D01*
X10489606Y-4984651D01*
X10482500Y-4985000D01*
X10317500Y-4985000D01*
X10310394Y-4984651D01*
X10303356Y-4983607D01*
X10296454Y-4981878D01*
X10289756Y-4979481D01*
X10283324Y-4976439D01*
X10277221Y-4972782D01*
X10271507Y-4968543D01*
X10266235Y-4963765D01*
X10261457Y-4958494D01*
X10257219Y-4952779D01*
X10253561Y-4946676D01*
X10250519Y-4940245D01*
X10248122Y-4933546D01*
X10246393Y-4926644D01*
X10245349Y-4919606D01*
X10245000Y-4912500D01*
X10245000Y-4767500D01*
X10245349Y-4760394D01*
X10246393Y-4753356D01*
X10248122Y-4746454D01*
X10250519Y-4739756D01*
X10253561Y-4733324D01*
X10257219Y-4727221D01*
X10261457Y-4721507D01*
X10266235Y-4716235D01*
X10271507Y-4711457D01*
X10277221Y-4707219D01*
X10283324Y-4703561D01*
X10289756Y-4700519D01*
X10296454Y-4698122D01*
X10303356Y-4696393D01*
X10310394Y-4695349D01*
X10317500Y-4695000D01*
X10482500Y-4695000D01*
X10489606Y-4695349D01*
X10489606Y-4695349D01*
G37*
D11*
X10400000Y-4840000D03*
D12*
X10400000Y-4520000D03*
D10*
G36*
X9689606Y-5335349D02*
X9696644Y-5336393D01*
X9703546Y-5338122D01*
X9710245Y-5340519D01*
X9716676Y-5343561D01*
X9722779Y-5347219D01*
X9728494Y-5351457D01*
X9733765Y-5356235D01*
X9738543Y-5361507D01*
X9742782Y-5367221D01*
X9746439Y-5373324D01*
X9749481Y-5379756D01*
X9751878Y-5386454D01*
X9753607Y-5393356D01*
X9754651Y-5400394D01*
X9755000Y-5407500D01*
X9755000Y-5552500D01*
X9754651Y-5559606D01*
X9753607Y-5566644D01*
X9751878Y-5573546D01*
X9749481Y-5580245D01*
X9746439Y-5586676D01*
X9742782Y-5592779D01*
X9738543Y-5598493D01*
X9733765Y-5603765D01*
X9728494Y-5608543D01*
X9722779Y-5612781D01*
X9716676Y-5616439D01*
X9710245Y-5619481D01*
X9703546Y-5621878D01*
X9696644Y-5623607D01*
X9689606Y-5624651D01*
X9682500Y-5625000D01*
X9517500Y-5625000D01*
X9510394Y-5624651D01*
X9503356Y-5623607D01*
X9496454Y-5621878D01*
X9489756Y-5619481D01*
X9483324Y-5616439D01*
X9477221Y-5612781D01*
X9471507Y-5608543D01*
X9466235Y-5603765D01*
X9461457Y-5598493D01*
X9457219Y-5592779D01*
X9453561Y-5586676D01*
X9450519Y-5580245D01*
X9448122Y-5573546D01*
X9446393Y-5566644D01*
X9445349Y-5559606D01*
X9445000Y-5552500D01*
X9445000Y-5407500D01*
X9445349Y-5400394D01*
X9446393Y-5393356D01*
X9448122Y-5386454D01*
X9450519Y-5379756D01*
X9453561Y-5373324D01*
X9457219Y-5367221D01*
X9461457Y-5361507D01*
X9466235Y-5356235D01*
X9471507Y-5351457D01*
X9477221Y-5347219D01*
X9483324Y-5343561D01*
X9489756Y-5340519D01*
X9496454Y-5338122D01*
X9503356Y-5336393D01*
X9510394Y-5335349D01*
X9517500Y-5335000D01*
X9682500Y-5335000D01*
X9689606Y-5335349D01*
X9689606Y-5335349D01*
G37*
D11*
X9600000Y-5480000D03*
D10*
G36*
X9689606Y-5015349D02*
X9696644Y-5016393D01*
X9703546Y-5018122D01*
X9710245Y-5020519D01*
X9716676Y-5023561D01*
X9722779Y-5027219D01*
X9728494Y-5031457D01*
X9733765Y-5036235D01*
X9738543Y-5041507D01*
X9742782Y-5047221D01*
X9746439Y-5053324D01*
X9749481Y-5059756D01*
X9751878Y-5066454D01*
X9753607Y-5073356D01*
X9754651Y-5080394D01*
X9755000Y-5087500D01*
X9755000Y-5232500D01*
X9754651Y-5239606D01*
X9753607Y-5246644D01*
X9751878Y-5253546D01*
X9749481Y-5260245D01*
X9746439Y-5266676D01*
X9742782Y-5272779D01*
X9738543Y-5278494D01*
X9733765Y-5283765D01*
X9728494Y-5288543D01*
X9722779Y-5292782D01*
X9716676Y-5296439D01*
X9710245Y-5299481D01*
X9703546Y-5301878D01*
X9696644Y-5303607D01*
X9689606Y-5304651D01*
X9682500Y-5305000D01*
X9517500Y-5305000D01*
X9510394Y-5304651D01*
X9503356Y-5303607D01*
X9496454Y-5301878D01*
X9489756Y-5299481D01*
X9483324Y-5296439D01*
X9477221Y-5292782D01*
X9471507Y-5288543D01*
X9466235Y-5283765D01*
X9461457Y-5278494D01*
X9457219Y-5272779D01*
X9453561Y-5266676D01*
X9450519Y-5260245D01*
X9448122Y-5253546D01*
X9446393Y-5246644D01*
X9445349Y-5239606D01*
X9445000Y-5232500D01*
X9445000Y-5087500D01*
X9445349Y-5080394D01*
X9446393Y-5073356D01*
X9448122Y-5066454D01*
X9450519Y-5059756D01*
X9453561Y-5053324D01*
X9457219Y-5047221D01*
X9461457Y-5041507D01*
X9466235Y-5036235D01*
X9471507Y-5031457D01*
X9477221Y-5027219D01*
X9483324Y-5023561D01*
X9489756Y-5020519D01*
X9496454Y-5018122D01*
X9503356Y-5016393D01*
X9510394Y-5015349D01*
X9517500Y-5015000D01*
X9682500Y-5015000D01*
X9689606Y-5015349D01*
X9689606Y-5015349D01*
G37*
D11*
X9600000Y-5160000D03*
D10*
G36*
X9689606Y-4695349D02*
X9696644Y-4696393D01*
X9703546Y-4698122D01*
X9710245Y-4700519D01*
X9716676Y-4703561D01*
X9722779Y-4707219D01*
X9728494Y-4711457D01*
X9733765Y-4716235D01*
X9738543Y-4721507D01*
X9742782Y-4727221D01*
X9746439Y-4733324D01*
X9749481Y-4739756D01*
X9751878Y-4746454D01*
X9753607Y-4753356D01*
X9754651Y-4760394D01*
X9755000Y-4767500D01*
X9755000Y-4912500D01*
X9754651Y-4919606D01*
X9753607Y-4926644D01*
X9751878Y-4933546D01*
X9749481Y-4940245D01*
X9746439Y-4946676D01*
X9742782Y-4952779D01*
X9738543Y-4958494D01*
X9733765Y-4963765D01*
X9728494Y-4968543D01*
X9722779Y-4972782D01*
X9716676Y-4976439D01*
X9710245Y-4979481D01*
X9703546Y-4981878D01*
X9696644Y-4983607D01*
X9689606Y-4984651D01*
X9682500Y-4985000D01*
X9517500Y-4985000D01*
X9510394Y-4984651D01*
X9503356Y-4983607D01*
X9496454Y-4981878D01*
X9489756Y-4979481D01*
X9483324Y-4976439D01*
X9477221Y-4972782D01*
X9471507Y-4968543D01*
X9466235Y-4963765D01*
X9461457Y-4958494D01*
X9457219Y-4952779D01*
X9453561Y-4946676D01*
X9450519Y-4940245D01*
X9448122Y-4933546D01*
X9446393Y-4926644D01*
X9445349Y-4919606D01*
X9445000Y-4912500D01*
X9445000Y-4767500D01*
X9445349Y-4760394D01*
X9446393Y-4753356D01*
X9448122Y-4746454D01*
X9450519Y-4739756D01*
X9453561Y-4733324D01*
X9457219Y-4727221D01*
X9461457Y-4721507D01*
X9466235Y-4716235D01*
X9471507Y-4711457D01*
X9477221Y-4707219D01*
X9483324Y-4703561D01*
X9489756Y-4700519D01*
X9496454Y-4698122D01*
X9503356Y-4696393D01*
X9510394Y-4695349D01*
X9517500Y-4695000D01*
X9682500Y-4695000D01*
X9689606Y-4695349D01*
X9689606Y-4695349D01*
G37*
D11*
X9600000Y-4840000D03*
D12*
X9600000Y-4520000D03*
D13*
X10000000Y-5000000D03*
M02*
