G04 #@! TF.GenerationSoftware,KiCad,Pcbnew,(5.0.0-rc2-dev-596-gcfd2f1d00)*
G04 #@! TF.CreationDate,2018-11-17T14:23:37+02:00*
G04 #@! TF.ProjectId,WS2813_module,5753323831335F6D6F64756C652E6B69,rev?*
G04 #@! TF.SameCoordinates,Original*
G04 #@! TF.FileFunction,Copper,L2,Bot,Signal*
G04 #@! TF.FilePolarity,Positive*
%FSLAX45Y45*%
G04 Gerber Fmt 4.5, Leading zero omitted, Abs format (unit mm)*
G04 Created by KiCad (PCBNEW (5.0.0-rc2-dev-596-gcfd2f1d00)) date 11/17/18 14:23:37*
%MOMM*%
%LPD*%
G01*
G04 APERTURE LIST*
%ADD10C,0.150000*%
%ADD11C,2.500000*%
%ADD12R,2.700000X2.500000*%
%ADD13C,2.000000*%
%ADD14C,0.700000*%
%ADD15C,0.500000*%
%ADD16C,2.500000*%
%ADD17C,0.200000*%
G04 APERTURE END LIST*
D10*
G36*
X10478626Y-5355301D02*
X10484693Y-5356201D01*
X10490643Y-5357691D01*
X10496418Y-5359758D01*
X10501962Y-5362380D01*
X10507223Y-5365533D01*
X10512150Y-5369187D01*
X10516694Y-5373306D01*
X10520813Y-5377850D01*
X10524467Y-5382777D01*
X10527620Y-5388038D01*
X10530243Y-5393582D01*
X10532309Y-5399357D01*
X10533799Y-5405307D01*
X10534699Y-5411374D01*
X10535000Y-5417500D01*
X10535000Y-5542500D01*
X10534699Y-5548626D01*
X10533799Y-5554693D01*
X10532309Y-5560643D01*
X10530243Y-5566418D01*
X10527620Y-5571962D01*
X10524467Y-5577223D01*
X10520813Y-5582150D01*
X10516694Y-5586694D01*
X10512150Y-5590813D01*
X10507223Y-5594467D01*
X10501962Y-5597620D01*
X10496418Y-5600242D01*
X10490643Y-5602309D01*
X10484693Y-5603799D01*
X10478626Y-5604699D01*
X10472500Y-5605000D01*
X10327500Y-5605000D01*
X10321374Y-5604699D01*
X10315307Y-5603799D01*
X10309357Y-5602309D01*
X10303582Y-5600242D01*
X10298038Y-5597620D01*
X10292777Y-5594467D01*
X10287850Y-5590813D01*
X10283306Y-5586694D01*
X10279187Y-5582150D01*
X10275533Y-5577223D01*
X10272380Y-5571962D01*
X10269758Y-5566418D01*
X10267691Y-5560643D01*
X10266201Y-5554693D01*
X10265301Y-5548626D01*
X10265000Y-5542500D01*
X10265000Y-5417500D01*
X10265301Y-5411374D01*
X10266201Y-5405307D01*
X10267691Y-5399357D01*
X10269758Y-5393582D01*
X10272380Y-5388038D01*
X10275533Y-5382777D01*
X10279187Y-5377850D01*
X10283306Y-5373306D01*
X10287850Y-5369187D01*
X10292777Y-5365533D01*
X10298038Y-5362380D01*
X10303582Y-5359758D01*
X10309357Y-5357691D01*
X10315307Y-5356201D01*
X10321374Y-5355301D01*
X10327500Y-5355000D01*
X10472500Y-5355000D01*
X10478626Y-5355301D01*
X10478626Y-5355301D01*
G37*
D11*
X10400000Y-5480000D03*
D10*
G36*
X10478626Y-5035301D02*
X10484693Y-5036201D01*
X10490643Y-5037691D01*
X10496418Y-5039758D01*
X10501962Y-5042380D01*
X10507223Y-5045533D01*
X10512150Y-5049187D01*
X10516694Y-5053306D01*
X10520813Y-5057850D01*
X10524467Y-5062777D01*
X10527620Y-5068038D01*
X10530243Y-5073582D01*
X10532309Y-5079357D01*
X10533799Y-5085307D01*
X10534699Y-5091374D01*
X10535000Y-5097500D01*
X10535000Y-5222500D01*
X10534699Y-5228626D01*
X10533799Y-5234693D01*
X10532309Y-5240643D01*
X10530243Y-5246418D01*
X10527620Y-5251962D01*
X10524467Y-5257223D01*
X10520813Y-5262150D01*
X10516694Y-5266694D01*
X10512150Y-5270813D01*
X10507223Y-5274467D01*
X10501962Y-5277620D01*
X10496418Y-5280243D01*
X10490643Y-5282309D01*
X10484693Y-5283799D01*
X10478626Y-5284699D01*
X10472500Y-5285000D01*
X10327500Y-5285000D01*
X10321374Y-5284699D01*
X10315307Y-5283799D01*
X10309357Y-5282309D01*
X10303582Y-5280243D01*
X10298038Y-5277620D01*
X10292777Y-5274467D01*
X10287850Y-5270813D01*
X10283306Y-5266694D01*
X10279187Y-5262150D01*
X10275533Y-5257223D01*
X10272380Y-5251962D01*
X10269758Y-5246418D01*
X10267691Y-5240643D01*
X10266201Y-5234693D01*
X10265301Y-5228626D01*
X10265000Y-5222500D01*
X10265000Y-5097500D01*
X10265301Y-5091374D01*
X10266201Y-5085307D01*
X10267691Y-5079357D01*
X10269758Y-5073582D01*
X10272380Y-5068038D01*
X10275533Y-5062777D01*
X10279187Y-5057850D01*
X10283306Y-5053306D01*
X10287850Y-5049187D01*
X10292777Y-5045533D01*
X10298038Y-5042380D01*
X10303582Y-5039758D01*
X10309357Y-5037691D01*
X10315307Y-5036201D01*
X10321374Y-5035301D01*
X10327500Y-5035000D01*
X10472500Y-5035000D01*
X10478626Y-5035301D01*
X10478626Y-5035301D01*
G37*
D11*
X10400000Y-5160000D03*
D10*
G36*
X10478626Y-4715301D02*
X10484693Y-4716201D01*
X10490643Y-4717691D01*
X10496418Y-4719758D01*
X10501962Y-4722380D01*
X10507223Y-4725533D01*
X10512150Y-4729187D01*
X10516694Y-4733306D01*
X10520813Y-4737850D01*
X10524467Y-4742777D01*
X10527620Y-4748038D01*
X10530243Y-4753582D01*
X10532309Y-4759357D01*
X10533799Y-4765307D01*
X10534699Y-4771374D01*
X10535000Y-4777500D01*
X10535000Y-4902500D01*
X10534699Y-4908626D01*
X10533799Y-4914693D01*
X10532309Y-4920643D01*
X10530243Y-4926418D01*
X10527620Y-4931962D01*
X10524467Y-4937223D01*
X10520813Y-4942150D01*
X10516694Y-4946694D01*
X10512150Y-4950813D01*
X10507223Y-4954467D01*
X10501962Y-4957620D01*
X10496418Y-4960243D01*
X10490643Y-4962309D01*
X10484693Y-4963799D01*
X10478626Y-4964699D01*
X10472500Y-4965000D01*
X10327500Y-4965000D01*
X10321374Y-4964699D01*
X10315307Y-4963799D01*
X10309357Y-4962309D01*
X10303582Y-4960243D01*
X10298038Y-4957620D01*
X10292777Y-4954467D01*
X10287850Y-4950813D01*
X10283306Y-4946694D01*
X10279187Y-4942150D01*
X10275533Y-4937223D01*
X10272380Y-4931962D01*
X10269758Y-4926418D01*
X10267691Y-4920643D01*
X10266201Y-4914693D01*
X10265301Y-4908626D01*
X10265000Y-4902500D01*
X10265000Y-4777500D01*
X10265301Y-4771374D01*
X10266201Y-4765307D01*
X10267691Y-4759357D01*
X10269758Y-4753582D01*
X10272380Y-4748038D01*
X10275533Y-4742777D01*
X10279187Y-4737850D01*
X10283306Y-4733306D01*
X10287850Y-4729187D01*
X10292777Y-4725533D01*
X10298038Y-4722380D01*
X10303582Y-4719758D01*
X10309357Y-4717691D01*
X10315307Y-4716201D01*
X10321374Y-4715301D01*
X10327500Y-4715000D01*
X10472500Y-4715000D01*
X10478626Y-4715301D01*
X10478626Y-4715301D01*
G37*
D11*
X10400000Y-4840000D03*
D12*
X10400000Y-4520000D03*
D10*
G36*
X9678626Y-5355301D02*
X9684693Y-5356201D01*
X9690643Y-5357691D01*
X9696418Y-5359758D01*
X9701962Y-5362380D01*
X9707223Y-5365533D01*
X9712150Y-5369187D01*
X9716694Y-5373306D01*
X9720813Y-5377850D01*
X9724467Y-5382777D01*
X9727620Y-5388038D01*
X9730243Y-5393582D01*
X9732309Y-5399357D01*
X9733799Y-5405307D01*
X9734699Y-5411374D01*
X9735000Y-5417500D01*
X9735000Y-5542500D01*
X9734699Y-5548626D01*
X9733799Y-5554693D01*
X9732309Y-5560643D01*
X9730243Y-5566418D01*
X9727620Y-5571962D01*
X9724467Y-5577223D01*
X9720813Y-5582150D01*
X9716694Y-5586694D01*
X9712150Y-5590813D01*
X9707223Y-5594467D01*
X9701962Y-5597620D01*
X9696418Y-5600242D01*
X9690643Y-5602309D01*
X9684693Y-5603799D01*
X9678626Y-5604699D01*
X9672500Y-5605000D01*
X9527500Y-5605000D01*
X9521374Y-5604699D01*
X9515307Y-5603799D01*
X9509357Y-5602309D01*
X9503582Y-5600242D01*
X9498038Y-5597620D01*
X9492777Y-5594467D01*
X9487850Y-5590813D01*
X9483306Y-5586694D01*
X9479187Y-5582150D01*
X9475533Y-5577223D01*
X9472380Y-5571962D01*
X9469758Y-5566418D01*
X9467691Y-5560643D01*
X9466201Y-5554693D01*
X9465301Y-5548626D01*
X9465000Y-5542500D01*
X9465000Y-5417500D01*
X9465301Y-5411374D01*
X9466201Y-5405307D01*
X9467691Y-5399357D01*
X9469758Y-5393582D01*
X9472380Y-5388038D01*
X9475533Y-5382777D01*
X9479187Y-5377850D01*
X9483306Y-5373306D01*
X9487850Y-5369187D01*
X9492777Y-5365533D01*
X9498038Y-5362380D01*
X9503582Y-5359758D01*
X9509357Y-5357691D01*
X9515307Y-5356201D01*
X9521374Y-5355301D01*
X9527500Y-5355000D01*
X9672500Y-5355000D01*
X9678626Y-5355301D01*
X9678626Y-5355301D01*
G37*
D11*
X9600000Y-5480000D03*
D10*
G36*
X9678626Y-5035301D02*
X9684693Y-5036201D01*
X9690643Y-5037691D01*
X9696418Y-5039758D01*
X9701962Y-5042380D01*
X9707223Y-5045533D01*
X9712150Y-5049187D01*
X9716694Y-5053306D01*
X9720813Y-5057850D01*
X9724467Y-5062777D01*
X9727620Y-5068038D01*
X9730243Y-5073582D01*
X9732309Y-5079357D01*
X9733799Y-5085307D01*
X9734699Y-5091374D01*
X9735000Y-5097500D01*
X9735000Y-5222500D01*
X9734699Y-5228626D01*
X9733799Y-5234693D01*
X9732309Y-5240643D01*
X9730243Y-5246418D01*
X9727620Y-5251962D01*
X9724467Y-5257223D01*
X9720813Y-5262150D01*
X9716694Y-5266694D01*
X9712150Y-5270813D01*
X9707223Y-5274467D01*
X9701962Y-5277620D01*
X9696418Y-5280243D01*
X9690643Y-5282309D01*
X9684693Y-5283799D01*
X9678626Y-5284699D01*
X9672500Y-5285000D01*
X9527500Y-5285000D01*
X9521374Y-5284699D01*
X9515307Y-5283799D01*
X9509357Y-5282309D01*
X9503582Y-5280243D01*
X9498038Y-5277620D01*
X9492777Y-5274467D01*
X9487850Y-5270813D01*
X9483306Y-5266694D01*
X9479187Y-5262150D01*
X9475533Y-5257223D01*
X9472380Y-5251962D01*
X9469758Y-5246418D01*
X9467691Y-5240643D01*
X9466201Y-5234693D01*
X9465301Y-5228626D01*
X9465000Y-5222500D01*
X9465000Y-5097500D01*
X9465301Y-5091374D01*
X9466201Y-5085307D01*
X9467691Y-5079357D01*
X9469758Y-5073582D01*
X9472380Y-5068038D01*
X9475533Y-5062777D01*
X9479187Y-5057850D01*
X9483306Y-5053306D01*
X9487850Y-5049187D01*
X9492777Y-5045533D01*
X9498038Y-5042380D01*
X9503582Y-5039758D01*
X9509357Y-5037691D01*
X9515307Y-5036201D01*
X9521374Y-5035301D01*
X9527500Y-5035000D01*
X9672500Y-5035000D01*
X9678626Y-5035301D01*
X9678626Y-5035301D01*
G37*
D11*
X9600000Y-5160000D03*
D10*
G36*
X9678626Y-4715301D02*
X9684693Y-4716201D01*
X9690643Y-4717691D01*
X9696418Y-4719758D01*
X9701962Y-4722380D01*
X9707223Y-4725533D01*
X9712150Y-4729187D01*
X9716694Y-4733306D01*
X9720813Y-4737850D01*
X9724467Y-4742777D01*
X9727620Y-4748038D01*
X9730243Y-4753582D01*
X9732309Y-4759357D01*
X9733799Y-4765307D01*
X9734699Y-4771374D01*
X9735000Y-4777500D01*
X9735000Y-4902500D01*
X9734699Y-4908626D01*
X9733799Y-4914693D01*
X9732309Y-4920643D01*
X9730243Y-4926418D01*
X9727620Y-4931962D01*
X9724467Y-4937223D01*
X9720813Y-4942150D01*
X9716694Y-4946694D01*
X9712150Y-4950813D01*
X9707223Y-4954467D01*
X9701962Y-4957620D01*
X9696418Y-4960243D01*
X9690643Y-4962309D01*
X9684693Y-4963799D01*
X9678626Y-4964699D01*
X9672500Y-4965000D01*
X9527500Y-4965000D01*
X9521374Y-4964699D01*
X9515307Y-4963799D01*
X9509357Y-4962309D01*
X9503582Y-4960243D01*
X9498038Y-4957620D01*
X9492777Y-4954467D01*
X9487850Y-4950813D01*
X9483306Y-4946694D01*
X9479187Y-4942150D01*
X9475533Y-4937223D01*
X9472380Y-4931962D01*
X9469758Y-4926418D01*
X9467691Y-4920643D01*
X9466201Y-4914693D01*
X9465301Y-4908626D01*
X9465000Y-4902500D01*
X9465000Y-4777500D01*
X9465301Y-4771374D01*
X9466201Y-4765307D01*
X9467691Y-4759357D01*
X9469758Y-4753582D01*
X9472380Y-4748038D01*
X9475533Y-4742777D01*
X9479187Y-4737850D01*
X9483306Y-4733306D01*
X9487850Y-4729187D01*
X9492777Y-4725533D01*
X9498038Y-4722380D01*
X9503582Y-4719758D01*
X9509357Y-4717691D01*
X9515307Y-4716201D01*
X9521374Y-4715301D01*
X9527500Y-4715000D01*
X9672500Y-4715000D01*
X9678626Y-4715301D01*
X9678626Y-4715301D01*
G37*
D11*
X9600000Y-4840000D03*
D12*
X9600000Y-4520000D03*
D13*
X10000000Y-5000000D03*
D14*
X9467700Y-4991400D03*
X10050000Y-5225000D03*
X9824480Y-5287760D03*
X9500000Y-5675000D03*
X9725000Y-5800000D03*
X10000000Y-5850000D03*
X10275000Y-5800000D03*
X10525000Y-5650000D03*
X10225000Y-4725000D03*
X10375000Y-4325000D03*
X10000000Y-4225000D03*
X9852510Y-4727990D03*
X10524000Y-4988690D03*
X9625000Y-4325000D03*
X9825000Y-4400000D03*
X10225000Y-5300000D03*
X10200000Y-5400000D03*
X10117700Y-4890920D03*
D15*
X10400000Y-4840000D02*
X10508350Y-4953690D01*
X10508350Y-4953690D02*
X10509250Y-4954600D01*
X10509250Y-4954600D02*
X10524000Y-4988690D01*
X10375000Y-4325000D02*
X10000000Y-4225000D01*
X9500000Y-5675000D02*
X9725000Y-5800000D01*
X10000000Y-5000000D02*
X10027690Y-4853640D01*
X10027690Y-4853640D02*
X10080420Y-4800910D01*
X10080420Y-4800910D02*
X10154980Y-4800910D01*
X10154980Y-4800910D02*
X10187720Y-4815010D01*
X10187720Y-4815010D02*
X10264760Y-4815010D01*
X10264760Y-4815010D02*
X10289760Y-4815010D01*
X10289760Y-4815010D02*
X10400000Y-4840000D01*
X10000000Y-4225000D02*
X9625000Y-4325000D01*
X10000000Y-5850000D02*
X10275000Y-5800000D01*
X10000000Y-5000000D02*
X9733640Y-4918670D01*
X9733640Y-4918670D02*
X9732870Y-4918670D01*
X9732870Y-4918670D02*
X9600000Y-4840000D01*
X9824480Y-5287760D02*
X10050000Y-5225000D01*
X9600000Y-4840000D02*
X9732870Y-4761320D01*
X9732870Y-4761320D02*
X9733640Y-4761320D01*
X9733640Y-4761320D02*
X9852510Y-4727990D01*
X10400000Y-4840000D02*
X10270860Y-4751080D01*
X10270860Y-4751080D02*
X10225000Y-4725000D01*
X9600000Y-4840000D02*
X9467700Y-4991400D01*
D16*
X9828620Y-4520000D02*
X9825000Y-4500000D01*
X9600000Y-4520000D02*
X9735000Y-4520000D01*
X9735000Y-4520000D02*
X9828620Y-4520000D01*
X9828620Y-4520000D02*
X10265000Y-4520000D01*
X10265000Y-4520000D02*
X10400000Y-4520000D01*
D15*
X9825000Y-4400000D02*
X9845000Y-4491720D01*
X9845000Y-4491720D02*
X9845000Y-4508280D01*
X9845000Y-4508280D02*
X9833280Y-4520000D01*
X9833280Y-4520000D02*
X9828620Y-4520000D01*
D17*
X10225000Y-5300000D02*
X9733640Y-5401320D01*
X9733640Y-5401320D02*
X9732870Y-5401320D01*
X9732870Y-5401320D02*
X9600000Y-5480000D01*
X10400000Y-5160000D02*
X10276300Y-5258350D01*
X10276300Y-5258350D02*
X10225000Y-5300000D01*
X10200000Y-5400000D02*
X10263460Y-5412050D01*
X10263460Y-5412050D02*
X10265230Y-5412050D01*
X10265230Y-5412050D02*
X10400000Y-5480000D01*
X10117700Y-4890920D02*
X10138060Y-4939880D01*
X10138060Y-4939880D02*
X10140010Y-4944590D01*
X10140010Y-4944590D02*
X10140010Y-5055410D01*
X10140010Y-5055410D02*
X10138060Y-5060120D01*
X10138060Y-5060120D02*
X10060120Y-5138060D01*
X10060120Y-5138060D02*
X10055410Y-5140010D01*
X10055410Y-5140010D02*
X9735240Y-5140010D01*
X9735240Y-5140010D02*
X9725240Y-5140010D01*
X9725240Y-5140010D02*
X9600000Y-5160000D01*
G36*
X10125000Y-5385082D02*
X10125000Y-5414918D01*
X10136418Y-5442484D01*
X10157516Y-5463582D01*
X10185082Y-5475000D01*
X10214918Y-5475000D01*
X10224216Y-5471149D01*
X10224216Y-5542500D01*
X10232078Y-5582025D01*
X10254468Y-5615532D01*
X10287975Y-5637922D01*
X10327500Y-5645784D01*
X10472500Y-5645784D01*
X10512025Y-5637922D01*
X10545533Y-5615532D01*
X10552500Y-5605105D01*
X10552500Y-5653403D01*
X10484234Y-5712955D01*
X10393173Y-5772771D01*
X10294837Y-5819675D01*
X10191046Y-5852799D01*
X10083719Y-5871530D01*
X9974842Y-5875523D01*
X9866432Y-5864702D01*
X9760492Y-5839268D01*
X9658986Y-5799692D01*
X9563789Y-5746706D01*
X9476065Y-5680841D01*
X9447500Y-5654297D01*
X9447500Y-5605105D01*
X9454468Y-5615532D01*
X9487975Y-5637922D01*
X9527500Y-5645784D01*
X9672500Y-5645784D01*
X9712025Y-5637922D01*
X9745533Y-5615532D01*
X9767922Y-5582025D01*
X9775784Y-5542500D01*
X9775784Y-5443682D01*
X10131073Y-5370420D01*
X10125000Y-5385082D01*
X10125000Y-5385082D01*
G37*
X10125000Y-5385082D02*
X10125000Y-5414918D01*
X10136418Y-5442484D01*
X10157516Y-5463582D01*
X10185082Y-5475000D01*
X10214918Y-5475000D01*
X10224216Y-5471149D01*
X10224216Y-5542500D01*
X10232078Y-5582025D01*
X10254468Y-5615532D01*
X10287975Y-5637922D01*
X10327500Y-5645784D01*
X10472500Y-5645784D01*
X10512025Y-5637922D01*
X10545533Y-5615532D01*
X10552500Y-5605105D01*
X10552500Y-5653403D01*
X10484234Y-5712955D01*
X10393173Y-5772771D01*
X10294837Y-5819675D01*
X10191046Y-5852799D01*
X10083719Y-5871530D01*
X9974842Y-5875523D01*
X9866432Y-5864702D01*
X9760492Y-5839268D01*
X9658986Y-5799692D01*
X9563789Y-5746706D01*
X9476065Y-5680841D01*
X9447500Y-5654297D01*
X9447500Y-5605105D01*
X9454468Y-5615532D01*
X9487975Y-5637922D01*
X9527500Y-5645784D01*
X9672500Y-5645784D01*
X9712025Y-5637922D01*
X9745533Y-5615532D01*
X9767922Y-5582025D01*
X9775784Y-5542500D01*
X9775784Y-5443682D01*
X10131073Y-5370420D01*
X10125000Y-5385082D01*
G36*
X10552500Y-5034895D02*
X10545533Y-5024468D01*
X10512025Y-5002078D01*
X10472500Y-4994216D01*
X10327500Y-4994216D01*
X10287975Y-5002078D01*
X10254468Y-5024468D01*
X10232078Y-5057975D01*
X10224216Y-5097500D01*
X10224216Y-5222500D01*
X10224714Y-5225000D01*
X10210082Y-5225000D01*
X10182516Y-5236418D01*
X10161418Y-5257516D01*
X10159361Y-5262483D01*
X9747499Y-5347410D01*
X9745533Y-5344468D01*
X9712025Y-5322078D01*
X9701576Y-5320000D01*
X9712025Y-5317922D01*
X9745533Y-5295533D01*
X9767922Y-5262025D01*
X9775784Y-5222500D01*
X9775784Y-5190010D01*
X10050482Y-5190010D01*
X10055401Y-5190989D01*
X10060330Y-5190010D01*
X10060334Y-5190010D01*
X10065430Y-5188996D01*
X10069986Y-5188091D01*
X10069990Y-5188089D01*
X10074919Y-5187109D01*
X10077078Y-5185666D01*
X10079629Y-5185159D01*
X10087952Y-5179598D01*
X10096162Y-5174114D01*
X10098954Y-5169936D01*
X10169937Y-5098954D01*
X10174114Y-5096162D01*
X10179416Y-5088224D01*
X10185159Y-5079629D01*
X10185666Y-5077078D01*
X10187109Y-5074919D01*
X10188089Y-5069990D01*
X10188091Y-5069986D01*
X10188996Y-5065430D01*
X10190010Y-5060334D01*
X10190010Y-5060330D01*
X10190989Y-5055401D01*
X10190010Y-5050482D01*
X10190010Y-4949518D01*
X10190989Y-4944599D01*
X10190010Y-4939670D01*
X10190010Y-4939666D01*
X10188996Y-4934570D01*
X10188091Y-4930014D01*
X10188089Y-4930010D01*
X10187109Y-4925081D01*
X10185640Y-4922883D01*
X10192700Y-4905838D01*
X10192700Y-4876002D01*
X10181282Y-4848436D01*
X10160184Y-4827338D01*
X10132618Y-4815920D01*
X10102782Y-4815920D01*
X10075216Y-4827338D01*
X10054118Y-4848436D01*
X10042700Y-4876002D01*
X10042700Y-4905838D01*
X10054118Y-4933404D01*
X10075216Y-4954502D01*
X10090010Y-4960630D01*
X10090010Y-5037459D01*
X10037459Y-5090010D01*
X9774294Y-5090010D01*
X9767922Y-5057975D01*
X9745533Y-5024468D01*
X9712025Y-5002078D01*
X9672500Y-4994216D01*
X9527500Y-4994216D01*
X9487975Y-5002078D01*
X9454468Y-5024468D01*
X9447500Y-5034895D01*
X9447500Y-4681414D01*
X9449393Y-4682679D01*
X9465000Y-4685784D01*
X9735000Y-4685784D01*
X9738939Y-4685000D01*
X9827196Y-4685000D01*
X9858583Y-4685543D01*
X9859960Y-4685000D01*
X10261061Y-4685000D01*
X10265000Y-4685784D01*
X10535000Y-4685784D01*
X10550607Y-4682679D01*
X10552500Y-4681414D01*
X10552500Y-5034895D01*
X10552500Y-5034895D01*
G37*
X10552500Y-5034895D02*
X10545533Y-5024468D01*
X10512025Y-5002078D01*
X10472500Y-4994216D01*
X10327500Y-4994216D01*
X10287975Y-5002078D01*
X10254468Y-5024468D01*
X10232078Y-5057975D01*
X10224216Y-5097500D01*
X10224216Y-5222500D01*
X10224714Y-5225000D01*
X10210082Y-5225000D01*
X10182516Y-5236418D01*
X10161418Y-5257516D01*
X10159361Y-5262483D01*
X9747499Y-5347410D01*
X9745533Y-5344468D01*
X9712025Y-5322078D01*
X9701576Y-5320000D01*
X9712025Y-5317922D01*
X9745533Y-5295533D01*
X9767922Y-5262025D01*
X9775784Y-5222500D01*
X9775784Y-5190010D01*
X10050482Y-5190010D01*
X10055401Y-5190989D01*
X10060330Y-5190010D01*
X10060334Y-5190010D01*
X10065430Y-5188996D01*
X10069986Y-5188091D01*
X10069990Y-5188089D01*
X10074919Y-5187109D01*
X10077078Y-5185666D01*
X10079629Y-5185159D01*
X10087952Y-5179598D01*
X10096162Y-5174114D01*
X10098954Y-5169936D01*
X10169937Y-5098954D01*
X10174114Y-5096162D01*
X10179416Y-5088224D01*
X10185159Y-5079629D01*
X10185666Y-5077078D01*
X10187109Y-5074919D01*
X10188089Y-5069990D01*
X10188091Y-5069986D01*
X10188996Y-5065430D01*
X10190010Y-5060334D01*
X10190010Y-5060330D01*
X10190989Y-5055401D01*
X10190010Y-5050482D01*
X10190010Y-4949518D01*
X10190989Y-4944599D01*
X10190010Y-4939670D01*
X10190010Y-4939666D01*
X10188996Y-4934570D01*
X10188091Y-4930014D01*
X10188089Y-4930010D01*
X10187109Y-4925081D01*
X10185640Y-4922883D01*
X10192700Y-4905838D01*
X10192700Y-4876002D01*
X10181282Y-4848436D01*
X10160184Y-4827338D01*
X10132618Y-4815920D01*
X10102782Y-4815920D01*
X10075216Y-4827338D01*
X10054118Y-4848436D01*
X10042700Y-4876002D01*
X10042700Y-4905838D01*
X10054118Y-4933404D01*
X10075216Y-4954502D01*
X10090010Y-4960630D01*
X10090010Y-5037459D01*
X10037459Y-5090010D01*
X9774294Y-5090010D01*
X9767922Y-5057975D01*
X9745533Y-5024468D01*
X9712025Y-5002078D01*
X9672500Y-4994216D01*
X9527500Y-4994216D01*
X9487975Y-5002078D01*
X9454468Y-5024468D01*
X9447500Y-5034895D01*
X9447500Y-4681414D01*
X9449393Y-4682679D01*
X9465000Y-4685784D01*
X9735000Y-4685784D01*
X9738939Y-4685000D01*
X9827196Y-4685000D01*
X9858583Y-4685543D01*
X9859960Y-4685000D01*
X10261061Y-4685000D01*
X10265000Y-4685784D01*
X10535000Y-4685784D01*
X10550607Y-4682679D01*
X10552500Y-4681414D01*
X10552500Y-5034895D01*
G36*
X10133568Y-4210298D02*
X10239508Y-4235732D01*
X10341014Y-4275308D01*
X10436211Y-4328294D01*
X10470737Y-4354216D01*
X10265000Y-4354216D01*
X10261061Y-4355000D01*
X9905323Y-4355000D01*
X9871263Y-4340197D01*
X9867484Y-4336418D01*
X9839918Y-4325000D01*
X9810082Y-4325000D01*
X9782516Y-4336418D01*
X9777608Y-4341326D01*
X9742912Y-4355000D01*
X9738939Y-4355000D01*
X9735000Y-4354216D01*
X9527684Y-4354216D01*
X9606826Y-4302229D01*
X9705163Y-4255325D01*
X9808954Y-4222201D01*
X9916281Y-4203470D01*
X10025158Y-4199477D01*
X10133568Y-4210298D01*
X10133568Y-4210298D01*
G37*
X10133568Y-4210298D02*
X10239508Y-4235732D01*
X10341014Y-4275308D01*
X10436211Y-4328294D01*
X10470737Y-4354216D01*
X10265000Y-4354216D01*
X10261061Y-4355000D01*
X9905323Y-4355000D01*
X9871263Y-4340197D01*
X9867484Y-4336418D01*
X9839918Y-4325000D01*
X9810082Y-4325000D01*
X9782516Y-4336418D01*
X9777608Y-4341326D01*
X9742912Y-4355000D01*
X9738939Y-4355000D01*
X9735000Y-4354216D01*
X9527684Y-4354216D01*
X9606826Y-4302229D01*
X9705163Y-4255325D01*
X9808954Y-4222201D01*
X9916281Y-4203470D01*
X10025158Y-4199477D01*
X10133568Y-4210298D01*
M02*
