G04 #@! TF.GenerationSoftware,KiCad,Pcbnew,(5.1.5)-1*
G04 #@! TF.CreationDate,2020-06-21T00:53:37+02:00*
G04 #@! TF.ProjectId,MP2611,4d503236-3131-42e6-9b69-6361645f7063,rev?*
G04 #@! TF.SameCoordinates,Original*
G04 #@! TF.FileFunction,Legend,Bot*
G04 #@! TF.FilePolarity,Positive*
%FSLAX45Y45*%
G04 Gerber Fmt 4.5, Leading zero omitted, Abs format (unit mm)*
G04 Created by KiCad (PCBNEW (5.1.5)-1) date 2020-06-21 00:53:37*
%MOMM*%
%LPD*%
G04 APERTURE LIST*
%ADD10C,0.300000*%
%ADD11C,0.150000*%
%ADD12C,0.100000*%
G04 APERTURE END LIST*
D10*
X9541557Y-5583686D02*
X9391557Y-5583686D01*
X9498700Y-5633686D01*
X9391557Y-5683686D01*
X9541557Y-5683686D01*
X9541557Y-5755114D02*
X9391557Y-5755114D01*
X9391557Y-5812257D01*
X9398700Y-5826543D01*
X9405843Y-5833686D01*
X9420129Y-5840828D01*
X9441557Y-5840828D01*
X9455843Y-5833686D01*
X9462986Y-5826543D01*
X9470129Y-5812257D01*
X9470129Y-5755114D01*
X9405843Y-5897971D02*
X9398700Y-5905114D01*
X9391557Y-5919400D01*
X9391557Y-5955114D01*
X9398700Y-5969400D01*
X9405843Y-5976543D01*
X9420129Y-5983686D01*
X9434414Y-5983686D01*
X9455843Y-5976543D01*
X9541557Y-5890828D01*
X9541557Y-5983686D01*
X9391557Y-6112257D02*
X9391557Y-6083686D01*
X9398700Y-6069400D01*
X9405843Y-6062257D01*
X9427271Y-6047971D01*
X9455843Y-6040828D01*
X9512986Y-6040828D01*
X9527271Y-6047971D01*
X9534414Y-6055114D01*
X9541557Y-6069400D01*
X9541557Y-6097971D01*
X9534414Y-6112257D01*
X9527271Y-6119400D01*
X9512986Y-6126543D01*
X9477271Y-6126543D01*
X9462986Y-6119400D01*
X9455843Y-6112257D01*
X9448700Y-6097971D01*
X9448700Y-6069400D01*
X9455843Y-6055114D01*
X9462986Y-6047971D01*
X9477271Y-6040828D01*
X9541557Y-6269400D02*
X9541557Y-6183686D01*
X9541557Y-6226543D02*
X9391557Y-6226543D01*
X9412986Y-6212257D01*
X9427271Y-6197971D01*
X9434414Y-6183686D01*
X9541557Y-6412257D02*
X9541557Y-6326543D01*
X9541557Y-6369400D02*
X9391557Y-6369400D01*
X9412986Y-6355114D01*
X9427271Y-6340828D01*
X9434414Y-6326543D01*
X9796557Y-5622971D02*
X9696557Y-5622971D01*
X9710843Y-5622971D02*
X9703700Y-5630114D01*
X9696557Y-5644400D01*
X9696557Y-5665828D01*
X9703700Y-5680114D01*
X9717986Y-5687257D01*
X9796557Y-5687257D01*
X9717986Y-5687257D02*
X9703700Y-5694400D01*
X9696557Y-5708686D01*
X9696557Y-5730114D01*
X9703700Y-5744400D01*
X9717986Y-5751543D01*
X9796557Y-5751543D01*
X9796557Y-5844400D02*
X9789414Y-5830114D01*
X9782271Y-5822971D01*
X9767986Y-5815828D01*
X9725129Y-5815828D01*
X9710843Y-5822971D01*
X9703700Y-5830114D01*
X9696557Y-5844400D01*
X9696557Y-5865828D01*
X9703700Y-5880114D01*
X9710843Y-5887257D01*
X9725129Y-5894400D01*
X9767986Y-5894400D01*
X9782271Y-5887257D01*
X9789414Y-5880114D01*
X9796557Y-5865828D01*
X9796557Y-5844400D01*
X9796557Y-6022971D02*
X9646557Y-6022971D01*
X9789414Y-6022971D02*
X9796557Y-6008686D01*
X9796557Y-5980114D01*
X9789414Y-5965828D01*
X9782271Y-5958686D01*
X9767986Y-5951543D01*
X9725129Y-5951543D01*
X9710843Y-5958686D01*
X9703700Y-5965828D01*
X9696557Y-5980114D01*
X9696557Y-6008686D01*
X9703700Y-6022971D01*
X9696557Y-6158686D02*
X9796557Y-6158686D01*
X9696557Y-6094400D02*
X9775129Y-6094400D01*
X9789414Y-6101543D01*
X9796557Y-6115828D01*
X9796557Y-6137257D01*
X9789414Y-6151543D01*
X9782271Y-6158686D01*
X9796557Y-6251543D02*
X9789414Y-6237257D01*
X9775129Y-6230114D01*
X9646557Y-6230114D01*
X9789414Y-6365828D02*
X9796557Y-6351543D01*
X9796557Y-6322971D01*
X9789414Y-6308686D01*
X9775129Y-6301543D01*
X9717986Y-6301543D01*
X9703700Y-6308686D01*
X9696557Y-6322971D01*
X9696557Y-6351543D01*
X9703700Y-6365828D01*
X9717986Y-6372971D01*
X9732271Y-6372971D01*
X9746557Y-6301543D01*
D11*
X12750800Y-5753100D02*
X12750800Y-5626100D01*
X13004800Y-5626100D02*
X13004800Y-5753100D01*
X12941300Y-5816600D02*
X12814300Y-5816600D01*
X12814300Y-5816600D02*
X12750800Y-5753100D01*
X13004800Y-5626100D02*
X12941300Y-5562600D01*
X12941300Y-5816600D02*
X13004800Y-5753100D01*
X12750800Y-5626100D02*
X12814300Y-5562600D01*
X12750800Y-5372100D02*
X12814300Y-5308600D01*
X12941300Y-5562600D02*
X13004800Y-5499100D01*
X13004800Y-5372100D02*
X12941300Y-5308600D01*
X12814300Y-5562600D02*
X12750800Y-5499100D01*
X12941300Y-5562600D02*
X12814300Y-5562600D01*
X13004800Y-5372100D02*
X13004800Y-5499100D01*
X12750800Y-5499100D02*
X12750800Y-5372100D01*
X12814300Y-5308600D02*
X12941300Y-5308600D01*
X13004800Y-5880100D02*
X13004800Y-6007100D01*
X12750800Y-6007100D02*
X12750800Y-5880100D01*
X12814300Y-5816600D02*
X12941300Y-5816600D01*
X12941300Y-5816600D02*
X13004800Y-5880100D01*
X12750800Y-6007100D02*
X12814300Y-6070600D01*
X12814300Y-5816600D02*
X12750800Y-5880100D01*
X13004800Y-6007100D02*
X12941300Y-6070600D01*
X13004800Y-6261100D02*
X12941300Y-6324600D01*
X12814300Y-6070600D02*
X12750800Y-6134100D01*
X12750800Y-6261100D02*
X12814300Y-6324600D01*
X12941300Y-6070600D02*
X13004800Y-6134100D01*
X12814300Y-6070600D02*
X12941300Y-6070600D01*
X12750800Y-6261100D02*
X12750800Y-6134100D01*
X13004800Y-6134100D02*
X13004800Y-6261100D01*
X12941300Y-6324600D02*
X12814300Y-6324600D01*
X8813800Y-5219700D02*
X8813800Y-5346700D01*
X9004300Y-5410200D02*
X8877300Y-5410200D01*
X8877300Y-5156200D02*
X9004300Y-5156200D01*
X9067800Y-5346700D02*
X9004300Y-5410200D01*
X9067800Y-5219700D02*
X9067800Y-5346700D01*
X8813800Y-5346700D02*
X8877300Y-5410200D01*
X8877300Y-5156200D02*
X8813800Y-5219700D01*
X9067800Y-5219700D02*
X9004300Y-5156200D01*
X8813800Y-6642100D02*
X8813800Y-6769100D01*
X9004300Y-6832600D02*
X8877300Y-6832600D01*
X8877300Y-6578600D02*
X9004300Y-6578600D01*
X9067800Y-6769100D02*
X9004300Y-6832600D01*
X9067800Y-6642100D02*
X9067800Y-6769100D01*
X8813800Y-6769100D02*
X8877300Y-6832600D01*
X8877300Y-6578600D02*
X8813800Y-6642100D01*
X9067800Y-6642100D02*
X9004300Y-6578600D01*
X12750800Y-6388100D02*
X12750800Y-6515100D01*
X12941300Y-6578600D02*
X12814300Y-6578600D01*
X12814300Y-6324600D02*
X12941300Y-6324600D01*
X13004800Y-6515100D02*
X12941300Y-6578600D01*
X13004800Y-6388100D02*
X13004800Y-6515100D01*
X12750800Y-6515100D02*
X12814300Y-6578600D01*
X12814300Y-6324600D02*
X12750800Y-6388100D01*
X13004800Y-6388100D02*
X12941300Y-6324600D01*
D12*
G36*
X10475812Y-5369484D02*
G01*
X10480650Y-5350871D01*
X10491362Y-5335250D01*
X10508052Y-5322524D01*
X10530824Y-5312598D01*
X10541107Y-5309537D01*
X10553338Y-5307448D01*
X10570619Y-5306059D01*
X10591262Y-5305360D01*
X10613581Y-5305341D01*
X10635888Y-5305992D01*
X10656497Y-5307303D01*
X10673720Y-5309264D01*
X10679960Y-5310365D01*
X10694578Y-5314277D01*
X10710737Y-5320087D01*
X10727480Y-5327264D01*
X10743855Y-5335271D01*
X10758906Y-5343577D01*
X10771680Y-5351646D01*
X10781221Y-5358946D01*
X10786575Y-5364942D01*
X10786788Y-5369101D01*
X10786071Y-5369703D01*
X10776669Y-5372620D01*
X10762568Y-5372261D01*
X10743454Y-5368574D01*
X10719013Y-5361507D01*
X10702472Y-5355909D01*
X10670249Y-5345069D01*
X10643171Y-5337223D01*
X10620353Y-5332271D01*
X10600914Y-5330116D01*
X10583971Y-5330659D01*
X10568641Y-5333801D01*
X10554235Y-5339352D01*
X10542103Y-5346416D01*
X10532525Y-5354540D01*
X10526533Y-5362542D01*
X10525161Y-5369244D01*
X10526210Y-5371386D01*
X10533516Y-5376205D01*
X10542985Y-5379316D01*
X10542985Y-5417525D01*
X10545641Y-5421608D01*
X10553319Y-5428396D01*
X10555509Y-5430148D01*
X10577500Y-5445346D01*
X10600703Y-5456451D01*
X10618833Y-5462511D01*
X10635575Y-5465929D01*
X10653140Y-5467082D01*
X10670253Y-5466186D01*
X10685641Y-5463460D01*
X10698031Y-5459120D01*
X10706147Y-5453384D01*
X10708747Y-5447155D01*
X10705518Y-5440636D01*
X10696458Y-5434270D01*
X10682512Y-5428315D01*
X10664620Y-5423029D01*
X10643725Y-5418672D01*
X10620771Y-5415502D01*
X10596698Y-5413778D01*
X10586257Y-5413545D01*
X10570824Y-5413631D01*
X10557586Y-5414053D01*
X10548217Y-5414735D01*
X10544779Y-5415359D01*
X10542985Y-5417525D01*
X10542985Y-5379316D01*
X10547237Y-5380714D01*
X10567468Y-5384936D01*
X10594309Y-5388893D01*
X10614655Y-5391260D01*
X10653573Y-5396321D01*
X10686079Y-5402480D01*
X10712109Y-5409717D01*
X10731595Y-5418014D01*
X10744473Y-5427350D01*
X10747470Y-5430948D01*
X10752460Y-5443284D01*
X10751538Y-5456255D01*
X10745335Y-5468739D01*
X10734479Y-5479617D01*
X10719601Y-5487766D01*
X10714587Y-5489470D01*
X10691511Y-5493553D01*
X10664215Y-5493667D01*
X10633874Y-5489943D01*
X10601660Y-5482510D01*
X10575740Y-5474129D01*
X10543804Y-5460446D01*
X10517778Y-5444935D01*
X10497822Y-5427766D01*
X10484096Y-5409104D01*
X10476759Y-5389118D01*
X10475812Y-5369484D01*
G37*
X10475812Y-5369484D02*
X10480650Y-5350871D01*
X10491362Y-5335250D01*
X10508052Y-5322524D01*
X10530824Y-5312598D01*
X10541107Y-5309537D01*
X10553338Y-5307448D01*
X10570619Y-5306059D01*
X10591262Y-5305360D01*
X10613581Y-5305341D01*
X10635888Y-5305992D01*
X10656497Y-5307303D01*
X10673720Y-5309264D01*
X10679960Y-5310365D01*
X10694578Y-5314277D01*
X10710737Y-5320087D01*
X10727480Y-5327264D01*
X10743855Y-5335271D01*
X10758906Y-5343577D01*
X10771680Y-5351646D01*
X10781221Y-5358946D01*
X10786575Y-5364942D01*
X10786788Y-5369101D01*
X10786071Y-5369703D01*
X10776669Y-5372620D01*
X10762568Y-5372261D01*
X10743454Y-5368574D01*
X10719013Y-5361507D01*
X10702472Y-5355909D01*
X10670249Y-5345069D01*
X10643171Y-5337223D01*
X10620353Y-5332271D01*
X10600914Y-5330116D01*
X10583971Y-5330659D01*
X10568641Y-5333801D01*
X10554235Y-5339352D01*
X10542103Y-5346416D01*
X10532525Y-5354540D01*
X10526533Y-5362542D01*
X10525161Y-5369244D01*
X10526210Y-5371386D01*
X10533516Y-5376205D01*
X10542985Y-5379316D01*
X10542985Y-5417525D01*
X10545641Y-5421608D01*
X10553319Y-5428396D01*
X10555509Y-5430148D01*
X10577500Y-5445346D01*
X10600703Y-5456451D01*
X10618833Y-5462511D01*
X10635575Y-5465929D01*
X10653140Y-5467082D01*
X10670253Y-5466186D01*
X10685641Y-5463460D01*
X10698031Y-5459120D01*
X10706147Y-5453384D01*
X10708747Y-5447155D01*
X10705518Y-5440636D01*
X10696458Y-5434270D01*
X10682512Y-5428315D01*
X10664620Y-5423029D01*
X10643725Y-5418672D01*
X10620771Y-5415502D01*
X10596698Y-5413778D01*
X10586257Y-5413545D01*
X10570824Y-5413631D01*
X10557586Y-5414053D01*
X10548217Y-5414735D01*
X10544779Y-5415359D01*
X10542985Y-5417525D01*
X10542985Y-5379316D01*
X10547237Y-5380714D01*
X10567468Y-5384936D01*
X10594309Y-5388893D01*
X10614655Y-5391260D01*
X10653573Y-5396321D01*
X10686079Y-5402480D01*
X10712109Y-5409717D01*
X10731595Y-5418014D01*
X10744473Y-5427350D01*
X10747470Y-5430948D01*
X10752460Y-5443284D01*
X10751538Y-5456255D01*
X10745335Y-5468739D01*
X10734479Y-5479617D01*
X10719601Y-5487766D01*
X10714587Y-5489470D01*
X10691511Y-5493553D01*
X10664215Y-5493667D01*
X10633874Y-5489943D01*
X10601660Y-5482510D01*
X10575740Y-5474129D01*
X10543804Y-5460446D01*
X10517778Y-5444935D01*
X10497822Y-5427766D01*
X10484096Y-5409104D01*
X10476759Y-5389118D01*
X10475812Y-5369484D01*
G36*
X10790030Y-5565018D02*
G01*
X10792847Y-5562396D01*
X10800032Y-5558357D01*
X10805267Y-5555896D01*
X10813299Y-5551884D01*
X10818480Y-5547502D01*
X10820893Y-5541640D01*
X10820621Y-5533189D01*
X10817745Y-5521040D01*
X10812349Y-5504084D01*
X10809700Y-5496280D01*
X10800921Y-5465180D01*
X10797354Y-5437975D01*
X10799052Y-5414169D01*
X10806070Y-5393267D01*
X10818463Y-5374770D01*
X10823654Y-5369197D01*
X10839284Y-5356352D01*
X10855353Y-5348038D01*
X10855943Y-5347833D01*
X10873050Y-5344078D01*
X10894046Y-5342568D01*
X10916433Y-5343281D01*
X10937717Y-5346199D01*
X10947507Y-5348576D01*
X10969964Y-5356328D01*
X10985803Y-5364592D01*
X10993473Y-5371321D01*
X10996061Y-5375068D01*
X10994380Y-5376100D01*
X10987316Y-5374969D01*
X10986453Y-5374795D01*
X10966224Y-5371234D01*
X10946008Y-5368611D01*
X10927653Y-5367100D01*
X10913007Y-5366873D01*
X10907122Y-5367371D01*
X10886978Y-5373700D01*
X10869192Y-5385830D01*
X10854972Y-5402886D01*
X10852680Y-5406779D01*
X10848079Y-5415572D01*
X10845134Y-5423162D01*
X10843486Y-5431472D01*
X10842780Y-5442425D01*
X10842659Y-5457944D01*
X10842668Y-5460720D01*
X10843180Y-5479715D01*
X10844790Y-5496761D01*
X10847868Y-5513545D01*
X10852785Y-5531754D01*
X10859910Y-5553074D01*
X10867371Y-5573296D01*
X10872583Y-5587414D01*
X10876616Y-5599012D01*
X10879020Y-5606755D01*
X10879453Y-5609300D01*
X10876147Y-5608449D01*
X10868151Y-5605085D01*
X10856768Y-5599855D01*
X10843300Y-5593402D01*
X10829050Y-5586373D01*
X10815320Y-5579412D01*
X10803413Y-5573164D01*
X10794632Y-5568274D01*
X10790278Y-5565387D01*
X10790030Y-5565018D01*
G37*
X10790030Y-5565018D02*
X10792847Y-5562396D01*
X10800032Y-5558357D01*
X10805267Y-5555896D01*
X10813299Y-5551884D01*
X10818480Y-5547502D01*
X10820893Y-5541640D01*
X10820621Y-5533189D01*
X10817745Y-5521040D01*
X10812349Y-5504084D01*
X10809700Y-5496280D01*
X10800921Y-5465180D01*
X10797354Y-5437975D01*
X10799052Y-5414169D01*
X10806070Y-5393267D01*
X10818463Y-5374770D01*
X10823654Y-5369197D01*
X10839284Y-5356352D01*
X10855353Y-5348038D01*
X10855943Y-5347833D01*
X10873050Y-5344078D01*
X10894046Y-5342568D01*
X10916433Y-5343281D01*
X10937717Y-5346199D01*
X10947507Y-5348576D01*
X10969964Y-5356328D01*
X10985803Y-5364592D01*
X10993473Y-5371321D01*
X10996061Y-5375068D01*
X10994380Y-5376100D01*
X10987316Y-5374969D01*
X10986453Y-5374795D01*
X10966224Y-5371234D01*
X10946008Y-5368611D01*
X10927653Y-5367100D01*
X10913007Y-5366873D01*
X10907122Y-5367371D01*
X10886978Y-5373700D01*
X10869192Y-5385830D01*
X10854972Y-5402886D01*
X10852680Y-5406779D01*
X10848079Y-5415572D01*
X10845134Y-5423162D01*
X10843486Y-5431472D01*
X10842780Y-5442425D01*
X10842659Y-5457944D01*
X10842668Y-5460720D01*
X10843180Y-5479715D01*
X10844790Y-5496761D01*
X10847868Y-5513545D01*
X10852785Y-5531754D01*
X10859910Y-5553074D01*
X10867371Y-5573296D01*
X10872583Y-5587414D01*
X10876616Y-5599012D01*
X10879020Y-5606755D01*
X10879453Y-5609300D01*
X10876147Y-5608449D01*
X10868151Y-5605085D01*
X10856768Y-5599855D01*
X10843300Y-5593402D01*
X10829050Y-5586373D01*
X10815320Y-5579412D01*
X10803413Y-5573164D01*
X10794632Y-5568274D01*
X10790278Y-5565387D01*
X10790030Y-5565018D01*
G36*
X10966946Y-5472561D02*
G01*
X10971474Y-5452582D01*
X10981508Y-5434833D01*
X10996643Y-5420272D01*
X11016471Y-5409854D01*
X11016712Y-5409775D01*
X11016712Y-5507334D01*
X11021102Y-5528232D01*
X11031170Y-5547593D01*
X11046557Y-5564722D01*
X11066905Y-5578926D01*
X11091190Y-5589298D01*
X11108310Y-5593623D01*
X11126218Y-5596241D01*
X11142684Y-5596959D01*
X11155481Y-5595586D01*
X11157480Y-5595019D01*
X11162061Y-5591012D01*
X11168990Y-5581652D01*
X11177736Y-5567716D01*
X11185983Y-5553253D01*
X11207712Y-5513732D01*
X11198209Y-5495580D01*
X11190239Y-5483177D01*
X11179587Y-5470110D01*
X11171576Y-5462028D01*
X11147934Y-5443890D01*
X11124273Y-5431752D01*
X11101074Y-5425718D01*
X11078817Y-5425891D01*
X11057982Y-5432374D01*
X11051141Y-5436137D01*
X11037356Y-5447497D01*
X11026599Y-5463314D01*
X11026396Y-5463699D01*
X11018358Y-5485591D01*
X11016712Y-5507334D01*
X11016712Y-5409775D01*
X11021633Y-5408150D01*
X11041603Y-5404441D01*
X11064726Y-5403643D01*
X11088049Y-5405740D01*
X11101600Y-5408564D01*
X11125269Y-5416690D01*
X11149565Y-5428202D01*
X11172775Y-5442049D01*
X11193185Y-5457181D01*
X11209084Y-5472544D01*
X11212357Y-5476564D01*
X11218058Y-5483551D01*
X11221396Y-5485625D01*
X11223844Y-5483453D01*
X11224600Y-5482121D01*
X11227705Y-5476587D01*
X11228840Y-5474808D01*
X11231929Y-5475848D01*
X11239104Y-5479566D01*
X11248740Y-5485003D01*
X11259211Y-5491197D01*
X11268891Y-5497188D01*
X11276155Y-5502014D01*
X11279345Y-5504659D01*
X11277903Y-5507835D01*
X11272993Y-5511324D01*
X11266187Y-5516912D01*
X11259108Y-5525529D01*
X11257552Y-5527921D01*
X11253866Y-5533944D01*
X11247162Y-5544891D01*
X11237964Y-5559911D01*
X11226791Y-5578152D01*
X11214166Y-5598761D01*
X11200610Y-5620889D01*
X11197341Y-5626224D01*
X11181306Y-5652570D01*
X11168605Y-5673873D01*
X11158893Y-5690774D01*
X11151823Y-5703915D01*
X11147049Y-5713938D01*
X11144225Y-5721487D01*
X11143023Y-5727055D01*
X11141495Y-5736423D01*
X11139621Y-5742506D01*
X11138888Y-5743485D01*
X11136113Y-5741601D01*
X11131421Y-5735166D01*
X11127002Y-5727670D01*
X11120398Y-5717464D01*
X11110598Y-5704622D01*
X11099249Y-5691243D01*
X11093594Y-5685099D01*
X11069618Y-5659858D01*
X11089034Y-5662284D01*
X11105635Y-5663138D01*
X11117940Y-5660257D01*
X11127804Y-5652742D01*
X11137083Y-5639689D01*
X11137701Y-5638644D01*
X11148402Y-5620385D01*
X11134314Y-5618051D01*
X11107196Y-5611341D01*
X11079419Y-5600496D01*
X11052245Y-5586334D01*
X11026935Y-5569672D01*
X11004750Y-5551328D01*
X10986951Y-5532120D01*
X10976038Y-5515388D01*
X10968332Y-5493815D01*
X10966946Y-5472561D01*
G37*
X10966946Y-5472561D02*
X10971474Y-5452582D01*
X10981508Y-5434833D01*
X10996643Y-5420272D01*
X11016471Y-5409854D01*
X11016712Y-5409775D01*
X11016712Y-5507334D01*
X11021102Y-5528232D01*
X11031170Y-5547593D01*
X11046557Y-5564722D01*
X11066905Y-5578926D01*
X11091190Y-5589298D01*
X11108310Y-5593623D01*
X11126218Y-5596241D01*
X11142684Y-5596959D01*
X11155481Y-5595586D01*
X11157480Y-5595019D01*
X11162061Y-5591012D01*
X11168990Y-5581652D01*
X11177736Y-5567716D01*
X11185983Y-5553253D01*
X11207712Y-5513732D01*
X11198209Y-5495580D01*
X11190239Y-5483177D01*
X11179587Y-5470110D01*
X11171576Y-5462028D01*
X11147934Y-5443890D01*
X11124273Y-5431752D01*
X11101074Y-5425718D01*
X11078817Y-5425891D01*
X11057982Y-5432374D01*
X11051141Y-5436137D01*
X11037356Y-5447497D01*
X11026599Y-5463314D01*
X11026396Y-5463699D01*
X11018358Y-5485591D01*
X11016712Y-5507334D01*
X11016712Y-5409775D01*
X11021633Y-5408150D01*
X11041603Y-5404441D01*
X11064726Y-5403643D01*
X11088049Y-5405740D01*
X11101600Y-5408564D01*
X11125269Y-5416690D01*
X11149565Y-5428202D01*
X11172775Y-5442049D01*
X11193185Y-5457181D01*
X11209084Y-5472544D01*
X11212357Y-5476564D01*
X11218058Y-5483551D01*
X11221396Y-5485625D01*
X11223844Y-5483453D01*
X11224600Y-5482121D01*
X11227705Y-5476587D01*
X11228840Y-5474808D01*
X11231929Y-5475848D01*
X11239104Y-5479566D01*
X11248740Y-5485003D01*
X11259211Y-5491197D01*
X11268891Y-5497188D01*
X11276155Y-5502014D01*
X11279345Y-5504659D01*
X11277903Y-5507835D01*
X11272993Y-5511324D01*
X11266187Y-5516912D01*
X11259108Y-5525529D01*
X11257552Y-5527921D01*
X11253866Y-5533944D01*
X11247162Y-5544891D01*
X11237964Y-5559911D01*
X11226791Y-5578152D01*
X11214166Y-5598761D01*
X11200610Y-5620889D01*
X11197341Y-5626224D01*
X11181306Y-5652570D01*
X11168605Y-5673873D01*
X11158893Y-5690774D01*
X11151823Y-5703915D01*
X11147049Y-5713938D01*
X11144225Y-5721487D01*
X11143023Y-5727055D01*
X11141495Y-5736423D01*
X11139621Y-5742506D01*
X11138888Y-5743485D01*
X11136113Y-5741601D01*
X11131421Y-5735166D01*
X11127002Y-5727670D01*
X11120398Y-5717464D01*
X11110598Y-5704622D01*
X11099249Y-5691243D01*
X11093594Y-5685099D01*
X11069618Y-5659858D01*
X11089034Y-5662284D01*
X11105635Y-5663138D01*
X11117940Y-5660257D01*
X11127804Y-5652742D01*
X11137083Y-5639689D01*
X11137701Y-5638644D01*
X11148402Y-5620385D01*
X11134314Y-5618051D01*
X11107196Y-5611341D01*
X11079419Y-5600496D01*
X11052245Y-5586334D01*
X11026935Y-5569672D01*
X11004750Y-5551328D01*
X10986951Y-5532120D01*
X10976038Y-5515388D01*
X10968332Y-5493815D01*
X10966946Y-5472561D01*
G36*
X10119965Y-5522247D02*
G01*
X10120066Y-5520921D01*
X10121063Y-5516580D01*
X10122939Y-5516879D01*
X10126781Y-5522354D01*
X10128467Y-5525067D01*
X10133212Y-5533489D01*
X10139676Y-5545917D01*
X10146754Y-5560200D01*
X10149707Y-5566368D01*
X10170619Y-5602673D01*
X10197575Y-5636065D01*
X10230473Y-5666469D01*
X10269207Y-5693811D01*
X10313672Y-5718015D01*
X10363764Y-5739007D01*
X10414018Y-5755217D01*
X10438227Y-5761743D01*
X10468224Y-5769305D01*
X10503139Y-5777702D01*
X10542102Y-5786736D01*
X10584240Y-5796207D01*
X10628683Y-5805915D01*
X10674560Y-5815662D01*
X10710440Y-5823093D01*
X10744183Y-5830057D01*
X10772237Y-5835995D01*
X10795568Y-5841147D01*
X10815141Y-5845755D01*
X10831922Y-5850057D01*
X10846876Y-5854295D01*
X10860968Y-5858709D01*
X10875163Y-5863539D01*
X10880339Y-5865373D01*
X10913432Y-5878976D01*
X10942054Y-5894944D01*
X10968439Y-5914695D01*
X10990620Y-5935359D01*
X11006208Y-5950191D01*
X11021052Y-5962710D01*
X11033685Y-5971713D01*
X11038034Y-5974185D01*
X11069337Y-5993774D01*
X11096630Y-6018712D01*
X11119598Y-6048668D01*
X11133761Y-6074156D01*
X11141755Y-6093003D01*
X11145386Y-6107863D01*
X11144661Y-6119921D01*
X11139586Y-6130366D01*
X11134112Y-6136699D01*
X11125599Y-6143650D01*
X11117549Y-6147738D01*
X11114861Y-6148213D01*
X11100576Y-6145106D01*
X11083987Y-6135921D01*
X11065327Y-6120859D01*
X11044829Y-6100122D01*
X11022724Y-6073913D01*
X11009194Y-6056198D01*
X10979978Y-6016675D01*
X10960356Y-6012592D01*
X10945400Y-6010638D01*
X10925827Y-6009808D01*
X10903712Y-6010191D01*
X10903480Y-6010201D01*
X10861422Y-6015449D01*
X10820693Y-6027095D01*
X10782130Y-6044784D01*
X10746570Y-6068161D01*
X10725955Y-6085771D01*
X10703831Y-6109171D01*
X10686380Y-6133765D01*
X10672353Y-6161545D01*
X10663394Y-6185467D01*
X10651473Y-6229222D01*
X10645781Y-6270445D01*
X10646384Y-6309410D01*
X10653345Y-6346393D01*
X10666730Y-6381669D01*
X10686605Y-6415513D01*
X10713034Y-6448202D01*
X10729486Y-6464927D01*
X10768548Y-6497995D01*
X10811334Y-6525861D01*
X10858282Y-6548766D01*
X10909830Y-6566951D01*
X10920151Y-6569884D01*
X10950368Y-6578166D01*
X10982217Y-6566237D01*
X11006724Y-6557612D01*
X11034689Y-6548673D01*
X11063762Y-6540108D01*
X11091590Y-6532606D01*
X11115821Y-6526856D01*
X11118809Y-6526227D01*
X11149034Y-6520786D01*
X11179339Y-6517090D01*
X11211505Y-6515011D01*
X11247316Y-6514416D01*
X11275043Y-6514803D01*
X11299285Y-6515484D01*
X11318243Y-6516330D01*
X11333407Y-6517497D01*
X11346266Y-6519144D01*
X11358309Y-6521428D01*
X11371025Y-6524506D01*
X11373792Y-6525234D01*
X11413159Y-6538070D01*
X11448108Y-6554796D01*
X11479781Y-6576161D01*
X11509319Y-6602917D01*
X11533395Y-6630206D01*
X11542654Y-6642478D01*
X11552825Y-6657305D01*
X11563183Y-6673462D01*
X11573002Y-6689724D01*
X11581556Y-6704866D01*
X11588118Y-6717662D01*
X11591965Y-6726887D01*
X11592667Y-6730248D01*
X11591666Y-6733745D01*
X11588428Y-6732644D01*
X11582599Y-6726612D01*
X11573825Y-6715314D01*
X11567213Y-6706167D01*
X11535736Y-6666475D01*
X11502078Y-6632994D01*
X11466057Y-6605660D01*
X11427493Y-6584411D01*
X11386206Y-6569185D01*
X11342016Y-6559918D01*
X11294742Y-6556549D01*
X11244205Y-6559013D01*
X11190225Y-6567250D01*
X11176107Y-6570217D01*
X11155544Y-6574916D01*
X11136871Y-6579605D01*
X11119306Y-6584610D01*
X11102070Y-6590258D01*
X11084379Y-6596876D01*
X11065454Y-6604792D01*
X11044513Y-6614332D01*
X11020776Y-6625823D01*
X10993461Y-6639593D01*
X10961788Y-6655967D01*
X10924975Y-6675274D01*
X10924273Y-6675643D01*
X10878936Y-6699101D01*
X10838424Y-6719107D01*
X10801942Y-6735990D01*
X10768697Y-6750078D01*
X10737894Y-6761700D01*
X10708738Y-6771185D01*
X10680436Y-6778863D01*
X10667865Y-6781793D01*
X10647589Y-6785311D01*
X10622816Y-6788077D01*
X10595163Y-6790048D01*
X10566246Y-6791185D01*
X10537680Y-6791446D01*
X10511081Y-6790789D01*
X10488065Y-6789175D01*
X10471369Y-6786792D01*
X10431881Y-6777159D01*
X10394544Y-6764726D01*
X10360206Y-6749927D01*
X10329721Y-6733199D01*
X10303939Y-6714976D01*
X10283712Y-6695695D01*
X10277150Y-6687485D01*
X10266519Y-6669064D01*
X10259268Y-6648688D01*
X10256073Y-6628697D01*
X10256588Y-6616347D01*
X10258879Y-6603299D01*
X10261244Y-6595736D01*
X10264210Y-6592387D01*
X10266758Y-6591867D01*
X10269717Y-6594950D01*
X10271013Y-6604341D01*
X10271085Y-6608443D01*
X10273540Y-6631986D01*
X10281151Y-6652783D01*
X10294291Y-6671321D01*
X10313330Y-6688091D01*
X10338642Y-6703581D01*
X10346373Y-6707497D01*
X10393512Y-6727041D01*
X10441873Y-6740108D01*
X10491837Y-6746761D01*
X10543781Y-6747059D01*
X10576756Y-6744128D01*
X10603897Y-6739851D01*
X10631344Y-6733514D01*
X10659886Y-6724807D01*
X10690314Y-6713424D01*
X10723416Y-6699057D01*
X10759983Y-6681397D01*
X10800805Y-6660138D01*
X10822200Y-6648534D01*
X10840952Y-6638263D01*
X10854328Y-6630774D01*
X10862840Y-6625501D01*
X10867003Y-6621879D01*
X10867328Y-6619345D01*
X10864328Y-6617331D01*
X10858517Y-6615274D01*
X10853774Y-6613745D01*
X10824581Y-6602501D01*
X10793157Y-6587498D01*
X10761890Y-6569930D01*
X10745273Y-6559375D01*
X10705230Y-6529289D01*
X10671181Y-6496421D01*
X10643213Y-6460960D01*
X10621413Y-6423095D01*
X10605869Y-6383014D01*
X10596669Y-6340905D01*
X10593900Y-6296957D01*
X10597651Y-6251357D01*
X10598791Y-6244330D01*
X10610231Y-6194225D01*
X10626502Y-6148827D01*
X10647715Y-6107988D01*
X10673981Y-6071554D01*
X10705412Y-6039378D01*
X10742117Y-6011307D01*
X10784210Y-5987191D01*
X10791305Y-5983759D01*
X10833454Y-5966717D01*
X10874085Y-5956135D01*
X10898119Y-5952867D01*
X10923239Y-5950697D01*
X10913359Y-5942806D01*
X10896799Y-5931716D01*
X10874857Y-5920334D01*
X10848859Y-5909314D01*
X10835747Y-5904492D01*
X10822497Y-5900258D01*
X10803522Y-5894786D01*
X10779710Y-5888301D01*
X10751949Y-5881024D01*
X10721128Y-5873179D01*
X10688135Y-5864987D01*
X10653860Y-5856671D01*
X10619190Y-5848455D01*
X10585014Y-5840560D01*
X10552221Y-5833209D01*
X10544493Y-5831515D01*
X10495906Y-5820456D01*
X10453210Y-5809705D01*
X10415550Y-5798992D01*
X10382067Y-5788048D01*
X10351905Y-5776604D01*
X10324207Y-5764391D01*
X10312507Y-5758668D01*
X10267255Y-5732458D01*
X10227423Y-5702203D01*
X10193023Y-5667914D01*
X10164066Y-5629603D01*
X10144043Y-5594493D01*
X10136645Y-5578264D01*
X10130011Y-5561310D01*
X10124669Y-5545245D01*
X10121145Y-5531685D01*
X10119965Y-5522247D01*
G37*
X10119965Y-5522247D02*
X10120066Y-5520921D01*
X10121063Y-5516580D01*
X10122939Y-5516879D01*
X10126781Y-5522354D01*
X10128467Y-5525067D01*
X10133212Y-5533489D01*
X10139676Y-5545917D01*
X10146754Y-5560200D01*
X10149707Y-5566368D01*
X10170619Y-5602673D01*
X10197575Y-5636065D01*
X10230473Y-5666469D01*
X10269207Y-5693811D01*
X10313672Y-5718015D01*
X10363764Y-5739007D01*
X10414018Y-5755217D01*
X10438227Y-5761743D01*
X10468224Y-5769305D01*
X10503139Y-5777702D01*
X10542102Y-5786736D01*
X10584240Y-5796207D01*
X10628683Y-5805915D01*
X10674560Y-5815662D01*
X10710440Y-5823093D01*
X10744183Y-5830057D01*
X10772237Y-5835995D01*
X10795568Y-5841147D01*
X10815141Y-5845755D01*
X10831922Y-5850057D01*
X10846876Y-5854295D01*
X10860968Y-5858709D01*
X10875163Y-5863539D01*
X10880339Y-5865373D01*
X10913432Y-5878976D01*
X10942054Y-5894944D01*
X10968439Y-5914695D01*
X10990620Y-5935359D01*
X11006208Y-5950191D01*
X11021052Y-5962710D01*
X11033685Y-5971713D01*
X11038034Y-5974185D01*
X11069337Y-5993774D01*
X11096630Y-6018712D01*
X11119598Y-6048668D01*
X11133761Y-6074156D01*
X11141755Y-6093003D01*
X11145386Y-6107863D01*
X11144661Y-6119921D01*
X11139586Y-6130366D01*
X11134112Y-6136699D01*
X11125599Y-6143650D01*
X11117549Y-6147738D01*
X11114861Y-6148213D01*
X11100576Y-6145106D01*
X11083987Y-6135921D01*
X11065327Y-6120859D01*
X11044829Y-6100122D01*
X11022724Y-6073913D01*
X11009194Y-6056198D01*
X10979978Y-6016675D01*
X10960356Y-6012592D01*
X10945400Y-6010638D01*
X10925827Y-6009808D01*
X10903712Y-6010191D01*
X10903480Y-6010201D01*
X10861422Y-6015449D01*
X10820693Y-6027095D01*
X10782130Y-6044784D01*
X10746570Y-6068161D01*
X10725955Y-6085771D01*
X10703831Y-6109171D01*
X10686380Y-6133765D01*
X10672353Y-6161545D01*
X10663394Y-6185467D01*
X10651473Y-6229222D01*
X10645781Y-6270445D01*
X10646384Y-6309410D01*
X10653345Y-6346393D01*
X10666730Y-6381669D01*
X10686605Y-6415513D01*
X10713034Y-6448202D01*
X10729486Y-6464927D01*
X10768548Y-6497995D01*
X10811334Y-6525861D01*
X10858282Y-6548766D01*
X10909830Y-6566951D01*
X10920151Y-6569884D01*
X10950368Y-6578166D01*
X10982217Y-6566237D01*
X11006724Y-6557612D01*
X11034689Y-6548673D01*
X11063762Y-6540108D01*
X11091590Y-6532606D01*
X11115821Y-6526856D01*
X11118809Y-6526227D01*
X11149034Y-6520786D01*
X11179339Y-6517090D01*
X11211505Y-6515011D01*
X11247316Y-6514416D01*
X11275043Y-6514803D01*
X11299285Y-6515484D01*
X11318243Y-6516330D01*
X11333407Y-6517497D01*
X11346266Y-6519144D01*
X11358309Y-6521428D01*
X11371025Y-6524506D01*
X11373792Y-6525234D01*
X11413159Y-6538070D01*
X11448108Y-6554796D01*
X11479781Y-6576161D01*
X11509319Y-6602917D01*
X11533395Y-6630206D01*
X11542654Y-6642478D01*
X11552825Y-6657305D01*
X11563183Y-6673462D01*
X11573002Y-6689724D01*
X11581556Y-6704866D01*
X11588118Y-6717662D01*
X11591965Y-6726887D01*
X11592667Y-6730248D01*
X11591666Y-6733745D01*
X11588428Y-6732644D01*
X11582599Y-6726612D01*
X11573825Y-6715314D01*
X11567213Y-6706167D01*
X11535736Y-6666475D01*
X11502078Y-6632994D01*
X11466057Y-6605660D01*
X11427493Y-6584411D01*
X11386206Y-6569185D01*
X11342016Y-6559918D01*
X11294742Y-6556549D01*
X11244205Y-6559013D01*
X11190225Y-6567250D01*
X11176107Y-6570217D01*
X11155544Y-6574916D01*
X11136871Y-6579605D01*
X11119306Y-6584610D01*
X11102070Y-6590258D01*
X11084379Y-6596876D01*
X11065454Y-6604792D01*
X11044513Y-6614332D01*
X11020776Y-6625823D01*
X10993461Y-6639593D01*
X10961788Y-6655967D01*
X10924975Y-6675274D01*
X10924273Y-6675643D01*
X10878936Y-6699101D01*
X10838424Y-6719107D01*
X10801942Y-6735990D01*
X10768697Y-6750078D01*
X10737894Y-6761700D01*
X10708738Y-6771185D01*
X10680436Y-6778863D01*
X10667865Y-6781793D01*
X10647589Y-6785311D01*
X10622816Y-6788077D01*
X10595163Y-6790048D01*
X10566246Y-6791185D01*
X10537680Y-6791446D01*
X10511081Y-6790789D01*
X10488065Y-6789175D01*
X10471369Y-6786792D01*
X10431881Y-6777159D01*
X10394544Y-6764726D01*
X10360206Y-6749927D01*
X10329721Y-6733199D01*
X10303939Y-6714976D01*
X10283712Y-6695695D01*
X10277150Y-6687485D01*
X10266519Y-6669064D01*
X10259268Y-6648688D01*
X10256073Y-6628697D01*
X10256588Y-6616347D01*
X10258879Y-6603299D01*
X10261244Y-6595736D01*
X10264210Y-6592387D01*
X10266758Y-6591867D01*
X10269717Y-6594950D01*
X10271013Y-6604341D01*
X10271085Y-6608443D01*
X10273540Y-6631986D01*
X10281151Y-6652783D01*
X10294291Y-6671321D01*
X10313330Y-6688091D01*
X10338642Y-6703581D01*
X10346373Y-6707497D01*
X10393512Y-6727041D01*
X10441873Y-6740108D01*
X10491837Y-6746761D01*
X10543781Y-6747059D01*
X10576756Y-6744128D01*
X10603897Y-6739851D01*
X10631344Y-6733514D01*
X10659886Y-6724807D01*
X10690314Y-6713424D01*
X10723416Y-6699057D01*
X10759983Y-6681397D01*
X10800805Y-6660138D01*
X10822200Y-6648534D01*
X10840952Y-6638263D01*
X10854328Y-6630774D01*
X10862840Y-6625501D01*
X10867003Y-6621879D01*
X10867328Y-6619345D01*
X10864328Y-6617331D01*
X10858517Y-6615274D01*
X10853774Y-6613745D01*
X10824581Y-6602501D01*
X10793157Y-6587498D01*
X10761890Y-6569930D01*
X10745273Y-6559375D01*
X10705230Y-6529289D01*
X10671181Y-6496421D01*
X10643213Y-6460960D01*
X10621413Y-6423095D01*
X10605869Y-6383014D01*
X10596669Y-6340905D01*
X10593900Y-6296957D01*
X10597651Y-6251357D01*
X10598791Y-6244330D01*
X10610231Y-6194225D01*
X10626502Y-6148827D01*
X10647715Y-6107988D01*
X10673981Y-6071554D01*
X10705412Y-6039378D01*
X10742117Y-6011307D01*
X10784210Y-5987191D01*
X10791305Y-5983759D01*
X10833454Y-5966717D01*
X10874085Y-5956135D01*
X10898119Y-5952867D01*
X10923239Y-5950697D01*
X10913359Y-5942806D01*
X10896799Y-5931716D01*
X10874857Y-5920334D01*
X10848859Y-5909314D01*
X10835747Y-5904492D01*
X10822497Y-5900258D01*
X10803522Y-5894786D01*
X10779710Y-5888301D01*
X10751949Y-5881024D01*
X10721128Y-5873179D01*
X10688135Y-5864987D01*
X10653860Y-5856671D01*
X10619190Y-5848455D01*
X10585014Y-5840560D01*
X10552221Y-5833209D01*
X10544493Y-5831515D01*
X10495906Y-5820456D01*
X10453210Y-5809705D01*
X10415550Y-5798992D01*
X10382067Y-5788048D01*
X10351905Y-5776604D01*
X10324207Y-5764391D01*
X10312507Y-5758668D01*
X10267255Y-5732458D01*
X10227423Y-5702203D01*
X10193023Y-5667914D01*
X10164066Y-5629603D01*
X10144043Y-5594493D01*
X10136645Y-5578264D01*
X10130011Y-5561310D01*
X10124669Y-5545245D01*
X10121145Y-5531685D01*
X10119965Y-5522247D01*
G36*
X11281773Y-5712473D02*
G01*
X11283216Y-5710794D01*
X11288431Y-5714166D01*
X11296029Y-5720851D01*
X11310964Y-5731940D01*
X11325690Y-5736841D01*
X11341662Y-5735933D01*
X11347792Y-5734319D01*
X11361997Y-5729960D01*
X11342999Y-5707947D01*
X11324939Y-5685143D01*
X11309505Y-5661924D01*
X11297278Y-5639402D01*
X11288838Y-5618690D01*
X11284766Y-5600900D01*
X11284480Y-5595774D01*
X11286662Y-5582392D01*
X11292369Y-5570069D01*
X11300338Y-5561227D01*
X11303429Y-5559403D01*
X11318454Y-5555635D01*
X11318454Y-5628752D01*
X11320647Y-5642403D01*
X11326821Y-5659072D01*
X11336100Y-5677056D01*
X11347607Y-5694651D01*
X11360169Y-5709841D01*
X11377613Y-5728264D01*
X11415866Y-5721903D01*
X11431199Y-5719225D01*
X11443947Y-5716754D01*
X11452699Y-5714781D01*
X11455997Y-5713665D01*
X11456357Y-5709004D01*
X11453919Y-5699733D01*
X11449152Y-5687178D01*
X11442525Y-5672662D01*
X11439012Y-5665748D01*
X11426050Y-5645098D01*
X11410780Y-5627358D01*
X11394098Y-5613090D01*
X11376901Y-5602854D01*
X11360086Y-5597214D01*
X11344551Y-5596731D01*
X11334211Y-5600126D01*
X11324436Y-5607595D01*
X11319537Y-5617853D01*
X11318454Y-5628752D01*
X11318454Y-5555635D01*
X11318641Y-5555588D01*
X11337013Y-5555779D01*
X11356398Y-5559774D01*
X11371688Y-5565819D01*
X11387926Y-5576120D01*
X11405293Y-5590763D01*
X11422015Y-5607968D01*
X11436320Y-5625956D01*
X11444314Y-5638737D01*
X11449671Y-5650268D01*
X11455584Y-5665441D01*
X11460931Y-5681334D01*
X11461838Y-5684357D01*
X11465881Y-5697043D01*
X11469588Y-5706706D01*
X11472378Y-5711909D01*
X11473177Y-5712413D01*
X11477710Y-5711885D01*
X11487225Y-5711010D01*
X11499950Y-5709949D01*
X11504759Y-5709569D01*
X11533400Y-5707338D01*
X11551828Y-5726185D01*
X11560316Y-5735222D01*
X11566324Y-5742309D01*
X11568807Y-5746194D01*
X11568762Y-5746512D01*
X11565063Y-5747298D01*
X11555744Y-5748554D01*
X11541930Y-5750149D01*
X11524749Y-5751949D01*
X11509204Y-5753463D01*
X11484435Y-5756027D01*
X11456685Y-5759270D01*
X11428907Y-5762827D01*
X11404053Y-5766331D01*
X11397669Y-5767308D01*
X11377255Y-5770269D01*
X11357153Y-5772770D01*
X11339222Y-5774608D01*
X11325321Y-5775579D01*
X11321111Y-5775680D01*
X11298027Y-5775680D01*
X11297994Y-5762980D01*
X11296500Y-5752658D01*
X11292706Y-5739928D01*
X11289527Y-5732164D01*
X11283933Y-5719498D01*
X11281773Y-5712473D01*
G37*
X11281773Y-5712473D02*
X11283216Y-5710794D01*
X11288431Y-5714166D01*
X11296029Y-5720851D01*
X11310964Y-5731940D01*
X11325690Y-5736841D01*
X11341662Y-5735933D01*
X11347792Y-5734319D01*
X11361997Y-5729960D01*
X11342999Y-5707947D01*
X11324939Y-5685143D01*
X11309505Y-5661924D01*
X11297278Y-5639402D01*
X11288838Y-5618690D01*
X11284766Y-5600900D01*
X11284480Y-5595774D01*
X11286662Y-5582392D01*
X11292369Y-5570069D01*
X11300338Y-5561227D01*
X11303429Y-5559403D01*
X11318454Y-5555635D01*
X11318454Y-5628752D01*
X11320647Y-5642403D01*
X11326821Y-5659072D01*
X11336100Y-5677056D01*
X11347607Y-5694651D01*
X11360169Y-5709841D01*
X11377613Y-5728264D01*
X11415866Y-5721903D01*
X11431199Y-5719225D01*
X11443947Y-5716754D01*
X11452699Y-5714781D01*
X11455997Y-5713665D01*
X11456357Y-5709004D01*
X11453919Y-5699733D01*
X11449152Y-5687178D01*
X11442525Y-5672662D01*
X11439012Y-5665748D01*
X11426050Y-5645098D01*
X11410780Y-5627358D01*
X11394098Y-5613090D01*
X11376901Y-5602854D01*
X11360086Y-5597214D01*
X11344551Y-5596731D01*
X11334211Y-5600126D01*
X11324436Y-5607595D01*
X11319537Y-5617853D01*
X11318454Y-5628752D01*
X11318454Y-5555635D01*
X11318641Y-5555588D01*
X11337013Y-5555779D01*
X11356398Y-5559774D01*
X11371688Y-5565819D01*
X11387926Y-5576120D01*
X11405293Y-5590763D01*
X11422015Y-5607968D01*
X11436320Y-5625956D01*
X11444314Y-5638737D01*
X11449671Y-5650268D01*
X11455584Y-5665441D01*
X11460931Y-5681334D01*
X11461838Y-5684357D01*
X11465881Y-5697043D01*
X11469588Y-5706706D01*
X11472378Y-5711909D01*
X11473177Y-5712413D01*
X11477710Y-5711885D01*
X11487225Y-5711010D01*
X11499950Y-5709949D01*
X11504759Y-5709569D01*
X11533400Y-5707338D01*
X11551828Y-5726185D01*
X11560316Y-5735222D01*
X11566324Y-5742309D01*
X11568807Y-5746194D01*
X11568762Y-5746512D01*
X11565063Y-5747298D01*
X11555744Y-5748554D01*
X11541930Y-5750149D01*
X11524749Y-5751949D01*
X11509204Y-5753463D01*
X11484435Y-5756027D01*
X11456685Y-5759270D01*
X11428907Y-5762827D01*
X11404053Y-5766331D01*
X11397669Y-5767308D01*
X11377255Y-5770269D01*
X11357153Y-5772770D01*
X11339222Y-5774608D01*
X11325321Y-5775579D01*
X11321111Y-5775680D01*
X11298027Y-5775680D01*
X11297994Y-5762980D01*
X11296500Y-5752658D01*
X11292706Y-5739928D01*
X11289527Y-5732164D01*
X11283933Y-5719498D01*
X11281773Y-5712473D01*
G36*
X11394506Y-5928685D02*
G01*
X11398502Y-5928501D01*
X11406409Y-5930107D01*
X11409311Y-5930924D01*
X11418556Y-5933436D01*
X11425189Y-5934781D01*
X11426134Y-5934853D01*
X11432691Y-5931605D01*
X11440137Y-5922190D01*
X11448141Y-5907104D01*
X11454174Y-5892728D01*
X11459688Y-5878789D01*
X11464967Y-5866074D01*
X11469066Y-5856842D01*
X11469835Y-5855267D01*
X11484458Y-5833146D01*
X11502992Y-5815818D01*
X11524487Y-5803625D01*
X11547990Y-5796909D01*
X11572551Y-5796012D01*
X11597216Y-5801276D01*
X11607907Y-5805655D01*
X11625203Y-5816105D01*
X11642258Y-5830350D01*
X11657847Y-5846963D01*
X11670748Y-5864519D01*
X11679735Y-5881590D01*
X11683207Y-5893430D01*
X11685248Y-5906067D01*
X11659519Y-5880104D01*
X11640875Y-5862310D01*
X11624946Y-5849572D01*
X11610718Y-5841288D01*
X11597180Y-5836859D01*
X11584659Y-5835672D01*
X11561663Y-5839029D01*
X11539403Y-5849034D01*
X11518032Y-5865583D01*
X11497702Y-5888577D01*
X11491222Y-5897600D01*
X11480453Y-5914224D01*
X11471487Y-5930397D01*
X11463299Y-5948216D01*
X11454864Y-5969779D01*
X11451680Y-5978556D01*
X11446587Y-5992781D01*
X11442226Y-6004940D01*
X11439182Y-6013402D01*
X11438192Y-6016133D01*
X11436132Y-6015227D01*
X11431739Y-6008769D01*
X11425395Y-5997412D01*
X11417482Y-5981807D01*
X11414572Y-5975794D01*
X11407065Y-5959790D01*
X11400909Y-5946026D01*
X11396576Y-5935608D01*
X11394537Y-5929640D01*
X11394506Y-5928685D01*
G37*
X11394506Y-5928685D02*
X11398502Y-5928501D01*
X11406409Y-5930107D01*
X11409311Y-5930924D01*
X11418556Y-5933436D01*
X11425189Y-5934781D01*
X11426134Y-5934853D01*
X11432691Y-5931605D01*
X11440137Y-5922190D01*
X11448141Y-5907104D01*
X11454174Y-5892728D01*
X11459688Y-5878789D01*
X11464967Y-5866074D01*
X11469066Y-5856842D01*
X11469835Y-5855267D01*
X11484458Y-5833146D01*
X11502992Y-5815818D01*
X11524487Y-5803625D01*
X11547990Y-5796909D01*
X11572551Y-5796012D01*
X11597216Y-5801276D01*
X11607907Y-5805655D01*
X11625203Y-5816105D01*
X11642258Y-5830350D01*
X11657847Y-5846963D01*
X11670748Y-5864519D01*
X11679735Y-5881590D01*
X11683207Y-5893430D01*
X11685248Y-5906067D01*
X11659519Y-5880104D01*
X11640875Y-5862310D01*
X11624946Y-5849572D01*
X11610718Y-5841288D01*
X11597180Y-5836859D01*
X11584659Y-5835672D01*
X11561663Y-5839029D01*
X11539403Y-5849034D01*
X11518032Y-5865583D01*
X11497702Y-5888577D01*
X11491222Y-5897600D01*
X11480453Y-5914224D01*
X11471487Y-5930397D01*
X11463299Y-5948216D01*
X11454864Y-5969779D01*
X11451680Y-5978556D01*
X11446587Y-5992781D01*
X11442226Y-6004940D01*
X11439182Y-6013402D01*
X11438192Y-6016133D01*
X11436132Y-6015227D01*
X11431739Y-6008769D01*
X11425395Y-5997412D01*
X11417482Y-5981807D01*
X11414572Y-5975794D01*
X11407065Y-5959790D01*
X11400909Y-5946026D01*
X11396576Y-5935608D01*
X11394537Y-5929640D01*
X11394506Y-5928685D01*
G36*
X11524933Y-5981989D02*
G01*
X11527259Y-5981669D01*
X11533120Y-5984913D01*
X11536223Y-5987146D01*
X11550617Y-5995403D01*
X11564465Y-5998302D01*
X11576166Y-5995671D01*
X11588042Y-5988993D01*
X11602594Y-5980116D01*
X11618747Y-5969777D01*
X11635423Y-5958712D01*
X11651547Y-5947657D01*
X11666041Y-5937348D01*
X11677829Y-5928521D01*
X11685836Y-5921913D01*
X11688843Y-5918628D01*
X11693478Y-5909782D01*
X11705242Y-5928244D01*
X11713639Y-5941879D01*
X11720754Y-5954283D01*
X11725824Y-5964053D01*
X11728084Y-5969786D01*
X11728133Y-5970245D01*
X11725211Y-5971611D01*
X11719070Y-5972107D01*
X11713079Y-5973880D01*
X11701991Y-5978988D01*
X11686409Y-5987115D01*
X11666941Y-5997942D01*
X11644191Y-6011152D01*
X11641498Y-6012747D01*
X11621990Y-6024231D01*
X11604336Y-6034457D01*
X11589392Y-6042942D01*
X11578017Y-6049203D01*
X11571068Y-6052755D01*
X11569368Y-6053387D01*
X11565588Y-6050652D01*
X11560943Y-6043918D01*
X11560122Y-6042380D01*
X11555525Y-6034138D01*
X11548597Y-6022569D01*
X11540734Y-6009997D01*
X11539715Y-6008408D01*
X11532801Y-5997262D01*
X11527617Y-5988136D01*
X11525058Y-5982631D01*
X11524933Y-5981989D01*
G37*
X11524933Y-5981989D02*
X11527259Y-5981669D01*
X11533120Y-5984913D01*
X11536223Y-5987146D01*
X11550617Y-5995403D01*
X11564465Y-5998302D01*
X11576166Y-5995671D01*
X11588042Y-5988993D01*
X11602594Y-5980116D01*
X11618747Y-5969777D01*
X11635423Y-5958712D01*
X11651547Y-5947657D01*
X11666041Y-5937348D01*
X11677829Y-5928521D01*
X11685836Y-5921913D01*
X11688843Y-5918628D01*
X11693478Y-5909782D01*
X11705242Y-5928244D01*
X11713639Y-5941879D01*
X11720754Y-5954283D01*
X11725824Y-5964053D01*
X11728084Y-5969786D01*
X11728133Y-5970245D01*
X11725211Y-5971611D01*
X11719070Y-5972107D01*
X11713079Y-5973880D01*
X11701991Y-5978988D01*
X11686409Y-5987115D01*
X11666941Y-5997942D01*
X11644191Y-6011152D01*
X11641498Y-6012747D01*
X11621990Y-6024231D01*
X11604336Y-6034457D01*
X11589392Y-6042942D01*
X11578017Y-6049203D01*
X11571068Y-6052755D01*
X11569368Y-6053387D01*
X11565588Y-6050652D01*
X11560943Y-6043918D01*
X11560122Y-6042380D01*
X11555525Y-6034138D01*
X11548597Y-6022569D01*
X11540734Y-6009997D01*
X11539715Y-6008408D01*
X11532801Y-5997262D01*
X11527617Y-5988136D01*
X11525058Y-5982631D01*
X11524933Y-5981989D01*
G36*
X11580266Y-6071432D02*
G01*
X11583660Y-6072232D01*
X11591302Y-6075557D01*
X11600989Y-6080404D01*
X11612287Y-6085766D01*
X11622167Y-6089451D01*
X11627724Y-6090584D01*
X11633891Y-6088959D01*
X11644532Y-6084565D01*
X11658450Y-6078041D01*
X11674450Y-6070027D01*
X11691337Y-6061161D01*
X11707915Y-6052083D01*
X11722988Y-6043433D01*
X11735360Y-6035848D01*
X11743837Y-6029969D01*
X11747102Y-6026759D01*
X11750813Y-6020210D01*
X11752936Y-6017295D01*
X11755120Y-6019269D01*
X11759375Y-6026255D01*
X11765030Y-6037070D01*
X11769787Y-6046989D01*
X11784534Y-6078787D01*
X11772421Y-6080682D01*
X11763962Y-6083052D01*
X11751439Y-6087875D01*
X11736065Y-6094549D01*
X11719049Y-6102471D01*
X11701603Y-6111039D01*
X11684937Y-6119652D01*
X11670262Y-6127707D01*
X11658790Y-6134601D01*
X11651731Y-6139734D01*
X11650237Y-6141446D01*
X11647112Y-6152333D01*
X11646341Y-6167290D01*
X11647822Y-6184073D01*
X11651447Y-6200443D01*
X11653252Y-6205787D01*
X11664731Y-6228781D01*
X11679661Y-6245958D01*
X11698019Y-6257303D01*
X11719784Y-6262799D01*
X11730366Y-6263360D01*
X11753718Y-6260905D01*
X11777843Y-6254126D01*
X11800429Y-6243903D01*
X11819162Y-6231116D01*
X11822063Y-6228499D01*
X11828991Y-6222638D01*
X11833828Y-6219850D01*
X11834843Y-6219927D01*
X11836597Y-6223874D01*
X11839499Y-6232549D01*
X11842947Y-6244138D01*
X11843217Y-6245096D01*
X11846523Y-6257366D01*
X11847543Y-6265575D01*
X11845441Y-6271382D01*
X11839375Y-6276444D01*
X11828508Y-6282422D01*
X11822875Y-6285315D01*
X11789666Y-6298967D01*
X11756073Y-6305943D01*
X11728115Y-6306757D01*
X11713018Y-6306148D01*
X11703264Y-6306831D01*
X11697685Y-6309964D01*
X11695110Y-6316707D01*
X11694369Y-6328219D01*
X11694313Y-6340240D01*
X11696608Y-6369473D01*
X11703506Y-6394597D01*
X11714823Y-6415210D01*
X11730375Y-6430909D01*
X11738293Y-6436036D01*
X11746695Y-6440242D01*
X11754775Y-6442753D01*
X11764670Y-6443949D01*
X11778518Y-6444211D01*
X11784013Y-6444161D01*
X11806907Y-6442856D01*
X11825589Y-6439138D01*
X11842399Y-6432325D01*
X11858795Y-6422344D01*
X11867485Y-6416767D01*
X11873708Y-6413523D01*
X11875686Y-6413171D01*
X11876647Y-6417007D01*
X11877862Y-6425828D01*
X11879096Y-6437863D01*
X11879297Y-6440177D01*
X11881457Y-6465733D01*
X11866602Y-6474231D01*
X11843769Y-6485323D01*
X11820746Y-6492061D01*
X11795096Y-6495055D01*
X11782320Y-6495343D01*
X11766588Y-6495149D01*
X11755596Y-6494301D01*
X11747318Y-6492410D01*
X11739726Y-6489086D01*
X11734479Y-6486136D01*
X11718473Y-6473115D01*
X11704811Y-6454153D01*
X11693334Y-6429016D01*
X11690491Y-6420840D01*
X11687275Y-6410033D01*
X11685038Y-6399472D01*
X11683597Y-6387503D01*
X11682767Y-6372471D01*
X11682365Y-6352721D01*
X11682312Y-6347085D01*
X11681909Y-6297036D01*
X11669447Y-6284274D01*
X11660653Y-6273308D01*
X11653462Y-6259629D01*
X11647545Y-6242251D01*
X11642575Y-6220188D01*
X11638225Y-6192454D01*
X11637755Y-6188899D01*
X11635276Y-6170717D01*
X11633244Y-6158337D01*
X11631411Y-6150820D01*
X11629533Y-6147229D01*
X11627363Y-6146628D01*
X11626723Y-6146845D01*
X11615002Y-6150676D01*
X11608107Y-6150227D01*
X11606213Y-6146456D01*
X11604999Y-6140986D01*
X11601716Y-6130849D01*
X11596906Y-6117629D01*
X11592607Y-6106610D01*
X11587190Y-6092724D01*
X11583040Y-6081342D01*
X11580626Y-6073803D01*
X11580266Y-6071432D01*
G37*
X11580266Y-6071432D02*
X11583660Y-6072232D01*
X11591302Y-6075557D01*
X11600989Y-6080404D01*
X11612287Y-6085766D01*
X11622167Y-6089451D01*
X11627724Y-6090584D01*
X11633891Y-6088959D01*
X11644532Y-6084565D01*
X11658450Y-6078041D01*
X11674450Y-6070027D01*
X11691337Y-6061161D01*
X11707915Y-6052083D01*
X11722988Y-6043433D01*
X11735360Y-6035848D01*
X11743837Y-6029969D01*
X11747102Y-6026759D01*
X11750813Y-6020210D01*
X11752936Y-6017295D01*
X11755120Y-6019269D01*
X11759375Y-6026255D01*
X11765030Y-6037070D01*
X11769787Y-6046989D01*
X11784534Y-6078787D01*
X11772421Y-6080682D01*
X11763962Y-6083052D01*
X11751439Y-6087875D01*
X11736065Y-6094549D01*
X11719049Y-6102471D01*
X11701603Y-6111039D01*
X11684937Y-6119652D01*
X11670262Y-6127707D01*
X11658790Y-6134601D01*
X11651731Y-6139734D01*
X11650237Y-6141446D01*
X11647112Y-6152333D01*
X11646341Y-6167290D01*
X11647822Y-6184073D01*
X11651447Y-6200443D01*
X11653252Y-6205787D01*
X11664731Y-6228781D01*
X11679661Y-6245958D01*
X11698019Y-6257303D01*
X11719784Y-6262799D01*
X11730366Y-6263360D01*
X11753718Y-6260905D01*
X11777843Y-6254126D01*
X11800429Y-6243903D01*
X11819162Y-6231116D01*
X11822063Y-6228499D01*
X11828991Y-6222638D01*
X11833828Y-6219850D01*
X11834843Y-6219927D01*
X11836597Y-6223874D01*
X11839499Y-6232549D01*
X11842947Y-6244138D01*
X11843217Y-6245096D01*
X11846523Y-6257366D01*
X11847543Y-6265575D01*
X11845441Y-6271382D01*
X11839375Y-6276444D01*
X11828508Y-6282422D01*
X11822875Y-6285315D01*
X11789666Y-6298967D01*
X11756073Y-6305943D01*
X11728115Y-6306757D01*
X11713018Y-6306148D01*
X11703264Y-6306831D01*
X11697685Y-6309964D01*
X11695110Y-6316707D01*
X11694369Y-6328219D01*
X11694313Y-6340240D01*
X11696608Y-6369473D01*
X11703506Y-6394597D01*
X11714823Y-6415210D01*
X11730375Y-6430909D01*
X11738293Y-6436036D01*
X11746695Y-6440242D01*
X11754775Y-6442753D01*
X11764670Y-6443949D01*
X11778518Y-6444211D01*
X11784013Y-6444161D01*
X11806907Y-6442856D01*
X11825589Y-6439138D01*
X11842399Y-6432325D01*
X11858795Y-6422344D01*
X11867485Y-6416767D01*
X11873708Y-6413523D01*
X11875686Y-6413171D01*
X11876647Y-6417007D01*
X11877862Y-6425828D01*
X11879096Y-6437863D01*
X11879297Y-6440177D01*
X11881457Y-6465733D01*
X11866602Y-6474231D01*
X11843769Y-6485323D01*
X11820746Y-6492061D01*
X11795096Y-6495055D01*
X11782320Y-6495343D01*
X11766588Y-6495149D01*
X11755596Y-6494301D01*
X11747318Y-6492410D01*
X11739726Y-6489086D01*
X11734479Y-6486136D01*
X11718473Y-6473115D01*
X11704811Y-6454153D01*
X11693334Y-6429016D01*
X11690491Y-6420840D01*
X11687275Y-6410033D01*
X11685038Y-6399472D01*
X11683597Y-6387503D01*
X11682767Y-6372471D01*
X11682365Y-6352721D01*
X11682312Y-6347085D01*
X11681909Y-6297036D01*
X11669447Y-6284274D01*
X11660653Y-6273308D01*
X11653462Y-6259629D01*
X11647545Y-6242251D01*
X11642575Y-6220188D01*
X11638225Y-6192454D01*
X11637755Y-6188899D01*
X11635276Y-6170717D01*
X11633244Y-6158337D01*
X11631411Y-6150820D01*
X11629533Y-6147229D01*
X11627363Y-6146628D01*
X11626723Y-6146845D01*
X11615002Y-6150676D01*
X11608107Y-6150227D01*
X11606213Y-6146456D01*
X11604999Y-6140986D01*
X11601716Y-6130849D01*
X11596906Y-6117629D01*
X11592607Y-6106610D01*
X11587190Y-6092724D01*
X11583040Y-6081342D01*
X11580626Y-6073803D01*
X11580266Y-6071432D01*
G36*
X11467360Y-6062945D02*
G01*
X11469819Y-6049282D01*
X11476377Y-6040299D01*
X11485802Y-6036495D01*
X11496864Y-6038371D01*
X11508260Y-6046353D01*
X11515583Y-6057052D01*
X11518615Y-6068954D01*
X11517670Y-6080484D01*
X11513064Y-6090063D01*
X11505110Y-6096116D01*
X11498081Y-6097413D01*
X11489052Y-6094504D01*
X11479813Y-6087097D01*
X11472133Y-6077175D01*
X11467777Y-6066718D01*
X11467360Y-6062945D01*
G37*
X11467360Y-6062945D02*
X11469819Y-6049282D01*
X11476377Y-6040299D01*
X11485802Y-6036495D01*
X11496864Y-6038371D01*
X11508260Y-6046353D01*
X11515583Y-6057052D01*
X11518615Y-6068954D01*
X11517670Y-6080484D01*
X11513064Y-6090063D01*
X11505110Y-6096116D01*
X11498081Y-6097413D01*
X11489052Y-6094504D01*
X11479813Y-6087097D01*
X11472133Y-6077175D01*
X11467777Y-6066718D01*
X11467360Y-6062945D01*
M02*
