%FSLAX45Y45*%
G04 Gerber Fmt 4.5, Leading zero omitted, Abs format (unit mm)*
G04 Created by KiCad (PCBNEW (2014-07-12 BZR 4289 GOST-COMMITTERS)-product) date 07.04.2017 13:29:06*
%MOMM*%
G01*
G04 APERTURE LIST*
%ADD10C,0.150000*%
%ADD11C,1.100000*%
%ADD12C,1.300000*%
%ADD13R,2.900000X2.400000*%
%ADD14R,2.900000X0.900000*%
%ADD15C,0.800000*%
%ADD16R,1.800000X2.000000*%
%ADD17R,2.300000X2.300000*%
%ADD18R,1.750000X0.800000*%
%ADD19R,1.416000X1.289000*%
%ADD20R,1.800000X1.500000*%
%ADD21R,1.289000X1.416000*%
%ADD22R,1.500000X1.800000*%
%ADD23R,2.400000X6.700000*%
%ADD24R,1.300000X1.400000*%
%ADD25R,1.400000X1.300000*%
%ADD26R,2.100000X1.543000*%
%ADD27C,1.900000*%
%ADD28R,1.500000X1.400000*%
%ADD29R,1.500000X1.100000*%
%ADD30R,1.500000X1.300000*%
%ADD31R,1.314400X1.314400*%
%ADD32R,1.900000X1.900000*%
%ADD33C,5.400000*%
%ADD34R,1.200000X1.200000*%
%ADD35O,1.400000X0.650000*%
%ADD36R,1.400000X0.650000*%
G04 APERTURE END LIST*
D10*
D11*
X10637400Y-6147480D02*
X10637400Y-6437480D01*
D12*
X9296400Y-6214400D03*
D13*
X8996400Y-5549400D03*
X8996400Y-6439400D03*
X9546400Y-5549400D03*
X9546400Y-6439400D03*
D14*
X9546400Y-5834400D03*
X9546400Y-5914400D03*
X9546400Y-5994400D03*
X9546400Y-6074400D03*
X9546400Y-6154400D03*
D12*
X9296400Y-5774400D03*
D15*
X9130400Y-5799400D03*
D16*
X9150400Y-5674400D03*
X9150400Y-6314400D03*
D17*
X8915400Y-5589400D03*
X8915400Y-5849400D03*
X8915400Y-6139400D03*
X8915400Y-6399400D03*
D18*
X9184400Y-5864400D03*
X9184400Y-5929400D03*
X9184400Y-5994400D03*
X9184400Y-6059400D03*
X9184400Y-6124400D03*
D15*
X9130400Y-6189400D03*
D19*
X9931400Y-6096000D03*
X9931400Y-5943600D03*
D20*
X10820400Y-6150200D03*
X10820400Y-5940200D03*
X10820400Y-6448200D03*
X10820400Y-6658200D03*
D21*
X11361920Y-6732990D03*
X11514320Y-6732990D03*
D22*
X11672800Y-5272570D03*
X11882800Y-5272570D03*
D20*
X12420600Y-6524400D03*
X12420600Y-6734400D03*
D19*
X12192000Y-6578600D03*
X12192000Y-6731000D03*
D21*
X10769600Y-5600700D03*
X10617200Y-5600700D03*
X10769600Y-5435600D03*
X10617200Y-5435600D03*
X10769600Y-5270500D03*
X10617200Y-5270500D03*
D23*
X11421130Y-5713780D03*
X11836130Y-5713780D03*
D24*
X10923200Y-5600700D03*
X11073200Y-5600700D03*
X11073200Y-5435600D03*
X10923200Y-5435600D03*
X11073200Y-5270500D03*
X10923200Y-5270500D03*
D25*
X12235000Y-5462200D03*
X12235000Y-5612200D03*
X12455200Y-5610900D03*
X12455200Y-5460900D03*
D22*
X12449400Y-5281330D03*
X12239400Y-5281330D03*
D26*
X12189100Y-6012200D03*
X12189100Y-6332200D03*
X12420600Y-6012200D03*
X12420600Y-6332200D03*
D27*
X8940800Y-5283200D03*
X8940800Y-6705600D03*
D28*
X10637400Y-6142480D03*
D29*
X10637400Y-6297480D03*
D30*
X10637400Y-6452480D03*
D25*
X10160000Y-5843200D03*
X10160000Y-5993200D03*
D31*
X10337800Y-6007100D03*
X10337800Y-5829300D03*
X10541000Y-5918200D03*
D32*
X12877800Y-6451600D03*
X12877800Y-6197600D03*
D27*
X12877800Y-5943600D03*
D32*
X12877800Y-5435600D03*
D27*
X12877800Y-5689600D03*
D33*
X10007600Y-6575990D03*
X10010200Y-5418040D03*
D34*
X11498210Y-6433810D03*
X11578210Y-6193810D03*
D35*
X11698210Y-6203810D03*
X11698210Y-6353810D03*
X11698210Y-6303810D03*
X11698210Y-6253810D03*
X11698210Y-6453810D03*
X11698210Y-6503810D03*
X11698210Y-6403810D03*
X11378210Y-6403810D03*
X11378210Y-6503810D03*
X11378210Y-6453810D03*
D36*
X11378210Y-6203810D03*
D35*
X11378210Y-6253810D03*
X11378210Y-6303810D03*
X11378210Y-6353810D03*
D34*
X11578210Y-6273810D03*
X11578210Y-6353810D03*
X11578210Y-6433810D03*
X11578210Y-6513810D03*
X11498210Y-6193810D03*
X11498210Y-6273810D03*
X11498210Y-6353810D03*
X11498210Y-6513810D03*
M02*
