%FSLAX45Y45*%
G04 Gerber Fmt 4.5, Leading zero omitted, Abs format (unit mm)*
G04 Created by KiCad (PCBNEW (2014-07-12 BZR 4289 GOST-COMMITTERS)-product) date 07.04.2017 13:29:06*
%MOMM*%
G01*
G04 APERTURE LIST*
%ADD10C,0.150000*%
%ADD11C,0.300000*%
%ADD12C,0.100000*%
G04 APERTURE END LIST*
D10*
D11*
X9549057Y-5583686D02*
X9399057Y-5583686D01*
X9506200Y-5633686D01*
X9399057Y-5683686D01*
X9549057Y-5683686D01*
X9549057Y-5755114D02*
X9399057Y-5755114D01*
X9399057Y-5812257D01*
X9406200Y-5826543D01*
X9413343Y-5833686D01*
X9427629Y-5840829D01*
X9449057Y-5840829D01*
X9463343Y-5833686D01*
X9470486Y-5826543D01*
X9477629Y-5812257D01*
X9477629Y-5755114D01*
X9413343Y-5897971D02*
X9406200Y-5905114D01*
X9399057Y-5919400D01*
X9399057Y-5955114D01*
X9406200Y-5969400D01*
X9413343Y-5976543D01*
X9427629Y-5983686D01*
X9441914Y-5983686D01*
X9463343Y-5976543D01*
X9549057Y-5890829D01*
X9549057Y-5983686D01*
X9399057Y-6112257D02*
X9399057Y-6083686D01*
X9406200Y-6069400D01*
X9413343Y-6062257D01*
X9434771Y-6047971D01*
X9463343Y-6040829D01*
X9520486Y-6040829D01*
X9534771Y-6047971D01*
X9541914Y-6055114D01*
X9549057Y-6069400D01*
X9549057Y-6097971D01*
X9541914Y-6112257D01*
X9534771Y-6119400D01*
X9520486Y-6126543D01*
X9484771Y-6126543D01*
X9470486Y-6119400D01*
X9463343Y-6112257D01*
X9456200Y-6097971D01*
X9456200Y-6069400D01*
X9463343Y-6055114D01*
X9470486Y-6047971D01*
X9484771Y-6040829D01*
X9549057Y-6269400D02*
X9549057Y-6183686D01*
X9549057Y-6226543D02*
X9399057Y-6226543D01*
X9420486Y-6212257D01*
X9434771Y-6197971D01*
X9441914Y-6183686D01*
X9549057Y-6412257D02*
X9549057Y-6326543D01*
X9549057Y-6369400D02*
X9399057Y-6369400D01*
X9420486Y-6355114D01*
X9434771Y-6340828D01*
X9441914Y-6326543D01*
X9789057Y-5622971D02*
X9689057Y-5622971D01*
X9703343Y-5622971D02*
X9696200Y-5630114D01*
X9689057Y-5644400D01*
X9689057Y-5665829D01*
X9696200Y-5680114D01*
X9710486Y-5687257D01*
X9789057Y-5687257D01*
X9710486Y-5687257D02*
X9696200Y-5694400D01*
X9689057Y-5708686D01*
X9689057Y-5730114D01*
X9696200Y-5744400D01*
X9710486Y-5751543D01*
X9789057Y-5751543D01*
X9789057Y-5844400D02*
X9781914Y-5830114D01*
X9774771Y-5822971D01*
X9760486Y-5815829D01*
X9717629Y-5815829D01*
X9703343Y-5822971D01*
X9696200Y-5830114D01*
X9689057Y-5844400D01*
X9689057Y-5865829D01*
X9696200Y-5880114D01*
X9703343Y-5887257D01*
X9717629Y-5894400D01*
X9760486Y-5894400D01*
X9774771Y-5887257D01*
X9781914Y-5880114D01*
X9789057Y-5865829D01*
X9789057Y-5844400D01*
X9789057Y-6022971D02*
X9639057Y-6022971D01*
X9781914Y-6022971D02*
X9789057Y-6008686D01*
X9789057Y-5980114D01*
X9781914Y-5965829D01*
X9774771Y-5958686D01*
X9760486Y-5951543D01*
X9717629Y-5951543D01*
X9703343Y-5958686D01*
X9696200Y-5965829D01*
X9689057Y-5980114D01*
X9689057Y-6008686D01*
X9696200Y-6022971D01*
X9689057Y-6158686D02*
X9789057Y-6158686D01*
X9689057Y-6094400D02*
X9767629Y-6094400D01*
X9781914Y-6101543D01*
X9789057Y-6115829D01*
X9789057Y-6137257D01*
X9781914Y-6151543D01*
X9774771Y-6158686D01*
X9789057Y-6251543D02*
X9781914Y-6237257D01*
X9767629Y-6230114D01*
X9639057Y-6230114D01*
X9781914Y-6365829D02*
X9789057Y-6351543D01*
X9789057Y-6322971D01*
X9781914Y-6308686D01*
X9767629Y-6301543D01*
X9710486Y-6301543D01*
X9696200Y-6308686D01*
X9689057Y-6322971D01*
X9689057Y-6351543D01*
X9696200Y-6365829D01*
X9710486Y-6372971D01*
X9724771Y-6372971D01*
X9739057Y-6301543D01*
D10*
X9067800Y-5219700D02*
X9004300Y-5156200D01*
X8877300Y-5156200D02*
X8813800Y-5219700D01*
X8813800Y-5346700D02*
X8877300Y-5410200D01*
X9067800Y-5219700D02*
X9067800Y-5346700D01*
X9067800Y-5346700D02*
X9004300Y-5410200D01*
X8877300Y-5156200D02*
X9004300Y-5156200D01*
X9004300Y-5410200D02*
X8877300Y-5410200D01*
X8813800Y-5219700D02*
X8813800Y-5346700D01*
X9067800Y-6642100D02*
X9004300Y-6578600D01*
X8877300Y-6578600D02*
X8813800Y-6642100D01*
X8813800Y-6769100D02*
X8877300Y-6832600D01*
X9067800Y-6642100D02*
X9067800Y-6769100D01*
X9067800Y-6769100D02*
X9004300Y-6832600D01*
X8877300Y-6578600D02*
X9004300Y-6578600D01*
X9004300Y-6832600D02*
X8877300Y-6832600D01*
X8813800Y-6642100D02*
X8813800Y-6769100D01*
X13004800Y-6388100D02*
X12941300Y-6324600D01*
X12814300Y-6324600D02*
X12750800Y-6388100D01*
X12750800Y-6515100D02*
X12814300Y-6578600D01*
X13004800Y-6388100D02*
X13004800Y-6515100D01*
X13004800Y-6515100D02*
X12941300Y-6578600D01*
X12814300Y-6324600D02*
X12941300Y-6324600D01*
X12941300Y-6578600D02*
X12814300Y-6578600D01*
X12750800Y-6388100D02*
X12750800Y-6515100D01*
X13004800Y-5880100D02*
X13004800Y-6007100D01*
X12750800Y-6007100D02*
X12750800Y-5880100D01*
X12814300Y-5816600D02*
X12941300Y-5816600D01*
X12941300Y-5816600D02*
X13004800Y-5880100D01*
X12750800Y-6007100D02*
X12814300Y-6070600D01*
X12814300Y-5816600D02*
X12750800Y-5880100D01*
X13004800Y-6007100D02*
X12941300Y-6070600D01*
X13004800Y-6261100D02*
X12941300Y-6324600D01*
X12814300Y-6070600D02*
X12750800Y-6134100D01*
X12750800Y-6261100D02*
X12814300Y-6324600D01*
X12941300Y-6070600D02*
X13004800Y-6134100D01*
X12814300Y-6070600D02*
X12941300Y-6070600D01*
X12750800Y-6261100D02*
X12750800Y-6134100D01*
X13004800Y-6134100D02*
X13004800Y-6261100D01*
X12941300Y-6324600D02*
X12814300Y-6324600D01*
X12750800Y-5753100D02*
X12750800Y-5626100D01*
X13004800Y-5626100D02*
X13004800Y-5753100D01*
X12941300Y-5816600D02*
X12814300Y-5816600D01*
X12814300Y-5816600D02*
X12750800Y-5753100D01*
X13004800Y-5626100D02*
X12941300Y-5562600D01*
X12941300Y-5816600D02*
X13004800Y-5753100D01*
X12750800Y-5626100D02*
X12814300Y-5562600D01*
X12750800Y-5372100D02*
X12814300Y-5308600D01*
X12941300Y-5562600D02*
X13004800Y-5499100D01*
X13004800Y-5372100D02*
X12941300Y-5308600D01*
X12814300Y-5562600D02*
X12750800Y-5499100D01*
X12941300Y-5562600D02*
X12814300Y-5562600D01*
X13004800Y-5372100D02*
X13004800Y-5499100D01*
X12750800Y-5499100D02*
X12750800Y-5372100D01*
X12814300Y-5308600D02*
X12941300Y-5308600D01*
D12*
G36*
X11496988Y-6674916D02*
X11492150Y-6693529D01*
X11481438Y-6709150D01*
X11464748Y-6721876D01*
X11441976Y-6731802D01*
X11431693Y-6734863D01*
X11419462Y-6736952D01*
X11402181Y-6738341D01*
X11381538Y-6739040D01*
X11359219Y-6739059D01*
X11336912Y-6738408D01*
X11316303Y-6737097D01*
X11299080Y-6735136D01*
X11292840Y-6734035D01*
X11278222Y-6730123D01*
X11262063Y-6724313D01*
X11245320Y-6717136D01*
X11228945Y-6709129D01*
X11213894Y-6700823D01*
X11201120Y-6692754D01*
X11191579Y-6685454D01*
X11186225Y-6679458D01*
X11186012Y-6675299D01*
X11186729Y-6674697D01*
X11196131Y-6671780D01*
X11210232Y-6672139D01*
X11229346Y-6675826D01*
X11253787Y-6682893D01*
X11270328Y-6688491D01*
X11302551Y-6699331D01*
X11329629Y-6707177D01*
X11352447Y-6712129D01*
X11371886Y-6714284D01*
X11388829Y-6713741D01*
X11404159Y-6710599D01*
X11418565Y-6705048D01*
X11430697Y-6697984D01*
X11440275Y-6689860D01*
X11446267Y-6681858D01*
X11447639Y-6675156D01*
X11446590Y-6673014D01*
X11439284Y-6668195D01*
X11429815Y-6665084D01*
X11429815Y-6626875D01*
X11427159Y-6622792D01*
X11419481Y-6616004D01*
X11417291Y-6614252D01*
X11395300Y-6599054D01*
X11372097Y-6587949D01*
X11353967Y-6581889D01*
X11337225Y-6578471D01*
X11319660Y-6577318D01*
X11302547Y-6578214D01*
X11287159Y-6580940D01*
X11274769Y-6585280D01*
X11266653Y-6591016D01*
X11264053Y-6597245D01*
X11267282Y-6603764D01*
X11276342Y-6610130D01*
X11290288Y-6616085D01*
X11308180Y-6621371D01*
X11329075Y-6625728D01*
X11352029Y-6628898D01*
X11376102Y-6630622D01*
X11386543Y-6630855D01*
X11401976Y-6630769D01*
X11415214Y-6630347D01*
X11424583Y-6629665D01*
X11428021Y-6629041D01*
X11429815Y-6626875D01*
X11429815Y-6665084D01*
X11425563Y-6663686D01*
X11405332Y-6659464D01*
X11378491Y-6655507D01*
X11358145Y-6653140D01*
X11319227Y-6648079D01*
X11286721Y-6641920D01*
X11260691Y-6634683D01*
X11241205Y-6626386D01*
X11228327Y-6617050D01*
X11225330Y-6613452D01*
X11220340Y-6601116D01*
X11221262Y-6588145D01*
X11227465Y-6575661D01*
X11238321Y-6564783D01*
X11253199Y-6556634D01*
X11258213Y-6554930D01*
X11281289Y-6550847D01*
X11308585Y-6550733D01*
X11338926Y-6554457D01*
X11371140Y-6561890D01*
X11397060Y-6570271D01*
X11428996Y-6583954D01*
X11455022Y-6599465D01*
X11474978Y-6616634D01*
X11488704Y-6635296D01*
X11496041Y-6655282D01*
X11496988Y-6674916D01*
X11496988Y-6674916D01*
X11496988Y-6674916D01*
G37*
X11496988Y-6674916D02*
X11492150Y-6693529D01*
X11481438Y-6709150D01*
X11464748Y-6721876D01*
X11441976Y-6731802D01*
X11431693Y-6734863D01*
X11419462Y-6736952D01*
X11402181Y-6738341D01*
X11381538Y-6739040D01*
X11359219Y-6739059D01*
X11336912Y-6738408D01*
X11316303Y-6737097D01*
X11299080Y-6735136D01*
X11292840Y-6734035D01*
X11278222Y-6730123D01*
X11262063Y-6724313D01*
X11245320Y-6717136D01*
X11228945Y-6709129D01*
X11213894Y-6700823D01*
X11201120Y-6692754D01*
X11191579Y-6685454D01*
X11186225Y-6679458D01*
X11186012Y-6675299D01*
X11186729Y-6674697D01*
X11196131Y-6671780D01*
X11210232Y-6672139D01*
X11229346Y-6675826D01*
X11253787Y-6682893D01*
X11270328Y-6688491D01*
X11302551Y-6699331D01*
X11329629Y-6707177D01*
X11352447Y-6712129D01*
X11371886Y-6714284D01*
X11388829Y-6713741D01*
X11404159Y-6710599D01*
X11418565Y-6705048D01*
X11430697Y-6697984D01*
X11440275Y-6689860D01*
X11446267Y-6681858D01*
X11447639Y-6675156D01*
X11446590Y-6673014D01*
X11439284Y-6668195D01*
X11429815Y-6665084D01*
X11429815Y-6626875D01*
X11427159Y-6622792D01*
X11419481Y-6616004D01*
X11417291Y-6614252D01*
X11395300Y-6599054D01*
X11372097Y-6587949D01*
X11353967Y-6581889D01*
X11337225Y-6578471D01*
X11319660Y-6577318D01*
X11302547Y-6578214D01*
X11287159Y-6580940D01*
X11274769Y-6585280D01*
X11266653Y-6591016D01*
X11264053Y-6597245D01*
X11267282Y-6603764D01*
X11276342Y-6610130D01*
X11290288Y-6616085D01*
X11308180Y-6621371D01*
X11329075Y-6625728D01*
X11352029Y-6628898D01*
X11376102Y-6630622D01*
X11386543Y-6630855D01*
X11401976Y-6630769D01*
X11415214Y-6630347D01*
X11424583Y-6629665D01*
X11428021Y-6629041D01*
X11429815Y-6626875D01*
X11429815Y-6665084D01*
X11425563Y-6663686D01*
X11405332Y-6659464D01*
X11378491Y-6655507D01*
X11358145Y-6653140D01*
X11319227Y-6648079D01*
X11286721Y-6641920D01*
X11260691Y-6634683D01*
X11241205Y-6626386D01*
X11228327Y-6617050D01*
X11225330Y-6613452D01*
X11220340Y-6601116D01*
X11221262Y-6588145D01*
X11227465Y-6575661D01*
X11238321Y-6564783D01*
X11253199Y-6556634D01*
X11258213Y-6554930D01*
X11281289Y-6550847D01*
X11308585Y-6550733D01*
X11338926Y-6554457D01*
X11371140Y-6561890D01*
X11397060Y-6570271D01*
X11428996Y-6583954D01*
X11455022Y-6599465D01*
X11474978Y-6616634D01*
X11488704Y-6635296D01*
X11496041Y-6655282D01*
X11496988Y-6674916D01*
X11496988Y-6674916D01*
G36*
X11182770Y-6479382D02*
X11179953Y-6482004D01*
X11172769Y-6486043D01*
X11167533Y-6488504D01*
X11159501Y-6492516D01*
X11154320Y-6496898D01*
X11151907Y-6502760D01*
X11152179Y-6511211D01*
X11155055Y-6523360D01*
X11160451Y-6540316D01*
X11163100Y-6548120D01*
X11171879Y-6579220D01*
X11175446Y-6606425D01*
X11173748Y-6630231D01*
X11166730Y-6651133D01*
X11154337Y-6669630D01*
X11149146Y-6675203D01*
X11133516Y-6688048D01*
X11117447Y-6696362D01*
X11116858Y-6696567D01*
X11099750Y-6700322D01*
X11078754Y-6701832D01*
X11056367Y-6701119D01*
X11035083Y-6698201D01*
X11025293Y-6695824D01*
X11002836Y-6688072D01*
X10986997Y-6679808D01*
X10979327Y-6673079D01*
X10976739Y-6669332D01*
X10978420Y-6668300D01*
X10985484Y-6669431D01*
X10986347Y-6669605D01*
X11006576Y-6673166D01*
X11026792Y-6675789D01*
X11045147Y-6677300D01*
X11059793Y-6677527D01*
X11065678Y-6677029D01*
X11085823Y-6670700D01*
X11103608Y-6658570D01*
X11117828Y-6641514D01*
X11120120Y-6637621D01*
X11124721Y-6628828D01*
X11127666Y-6621238D01*
X11129314Y-6612928D01*
X11130020Y-6601975D01*
X11130142Y-6586456D01*
X11130132Y-6583680D01*
X11129620Y-6564685D01*
X11128010Y-6547639D01*
X11124932Y-6530855D01*
X11120015Y-6512646D01*
X11112890Y-6491326D01*
X11105429Y-6471104D01*
X11100217Y-6456986D01*
X11096185Y-6445388D01*
X11093781Y-6437645D01*
X11093347Y-6435100D01*
X11096653Y-6435951D01*
X11104649Y-6439315D01*
X11116032Y-6444545D01*
X11129500Y-6450997D01*
X11143750Y-6458027D01*
X11157480Y-6464988D01*
X11169387Y-6471236D01*
X11178168Y-6476126D01*
X11182522Y-6479013D01*
X11182770Y-6479382D01*
X11182770Y-6479382D01*
X11182770Y-6479382D01*
G37*
X11182770Y-6479382D02*
X11179953Y-6482004D01*
X11172769Y-6486043D01*
X11167533Y-6488504D01*
X11159501Y-6492516D01*
X11154320Y-6496898D01*
X11151907Y-6502760D01*
X11152179Y-6511211D01*
X11155055Y-6523360D01*
X11160451Y-6540316D01*
X11163100Y-6548120D01*
X11171879Y-6579220D01*
X11175446Y-6606425D01*
X11173748Y-6630231D01*
X11166730Y-6651133D01*
X11154337Y-6669630D01*
X11149146Y-6675203D01*
X11133516Y-6688048D01*
X11117447Y-6696362D01*
X11116858Y-6696567D01*
X11099750Y-6700322D01*
X11078754Y-6701832D01*
X11056367Y-6701119D01*
X11035083Y-6698201D01*
X11025293Y-6695824D01*
X11002836Y-6688072D01*
X10986997Y-6679808D01*
X10979327Y-6673079D01*
X10976739Y-6669332D01*
X10978420Y-6668300D01*
X10985484Y-6669431D01*
X10986347Y-6669605D01*
X11006576Y-6673166D01*
X11026792Y-6675789D01*
X11045147Y-6677300D01*
X11059793Y-6677527D01*
X11065678Y-6677029D01*
X11085823Y-6670700D01*
X11103608Y-6658570D01*
X11117828Y-6641514D01*
X11120120Y-6637621D01*
X11124721Y-6628828D01*
X11127666Y-6621238D01*
X11129314Y-6612928D01*
X11130020Y-6601975D01*
X11130142Y-6586456D01*
X11130132Y-6583680D01*
X11129620Y-6564685D01*
X11128010Y-6547639D01*
X11124932Y-6530855D01*
X11120015Y-6512646D01*
X11112890Y-6491326D01*
X11105429Y-6471104D01*
X11100217Y-6456986D01*
X11096185Y-6445388D01*
X11093781Y-6437645D01*
X11093347Y-6435100D01*
X11096653Y-6435951D01*
X11104649Y-6439315D01*
X11116032Y-6444545D01*
X11129500Y-6450997D01*
X11143750Y-6458027D01*
X11157480Y-6464988D01*
X11169387Y-6471236D01*
X11178168Y-6476126D01*
X11182522Y-6479013D01*
X11182770Y-6479382D01*
X11182770Y-6479382D01*
G36*
X11005854Y-6571839D02*
X11001326Y-6591818D01*
X10991292Y-6609567D01*
X10976157Y-6624128D01*
X10956329Y-6634546D01*
X10956088Y-6634625D01*
X10956088Y-6537066D01*
X10951698Y-6516168D01*
X10941630Y-6496807D01*
X10926243Y-6479678D01*
X10905895Y-6465474D01*
X10881610Y-6455102D01*
X10864490Y-6450777D01*
X10846583Y-6448159D01*
X10830116Y-6447441D01*
X10817319Y-6448814D01*
X10815320Y-6449381D01*
X10810739Y-6453388D01*
X10803810Y-6462748D01*
X10795064Y-6476684D01*
X10786817Y-6491147D01*
X10765088Y-6530668D01*
X10774591Y-6548820D01*
X10782561Y-6561223D01*
X10793213Y-6574290D01*
X10801224Y-6582372D01*
X10824866Y-6600510D01*
X10848527Y-6612648D01*
X10871726Y-6618682D01*
X10893983Y-6618509D01*
X10914818Y-6612026D01*
X10921660Y-6608263D01*
X10935444Y-6596903D01*
X10946202Y-6581086D01*
X10946404Y-6580701D01*
X10954442Y-6558809D01*
X10956088Y-6537066D01*
X10956088Y-6634625D01*
X10951167Y-6636250D01*
X10931197Y-6639959D01*
X10908074Y-6640757D01*
X10884751Y-6638660D01*
X10871200Y-6635836D01*
X10847531Y-6627710D01*
X10823235Y-6616198D01*
X10800025Y-6602351D01*
X10779615Y-6587219D01*
X10763716Y-6571856D01*
X10760443Y-6567836D01*
X10754742Y-6560849D01*
X10751404Y-6558775D01*
X10748956Y-6560947D01*
X10748200Y-6562279D01*
X10745095Y-6567813D01*
X10743960Y-6569592D01*
X10740871Y-6568552D01*
X10733696Y-6564834D01*
X10724060Y-6559397D01*
X10713589Y-6553203D01*
X10703909Y-6547212D01*
X10696645Y-6542386D01*
X10693455Y-6539741D01*
X10694897Y-6536565D01*
X10699807Y-6533076D01*
X10706613Y-6527488D01*
X10713692Y-6518871D01*
X10715248Y-6516479D01*
X10718934Y-6510456D01*
X10725638Y-6499509D01*
X10734836Y-6484489D01*
X10746009Y-6466248D01*
X10758634Y-6445639D01*
X10772190Y-6423511D01*
X10775459Y-6418176D01*
X10791494Y-6391829D01*
X10804195Y-6370527D01*
X10813907Y-6353626D01*
X10820978Y-6340485D01*
X10825751Y-6330461D01*
X10828575Y-6322913D01*
X10829777Y-6317345D01*
X10831305Y-6307977D01*
X10833179Y-6301894D01*
X10833912Y-6300915D01*
X10836687Y-6302799D01*
X10841379Y-6309234D01*
X10845798Y-6316730D01*
X10852402Y-6326936D01*
X10862202Y-6339778D01*
X10873551Y-6353157D01*
X10879207Y-6359301D01*
X10903182Y-6384542D01*
X10883766Y-6382116D01*
X10867165Y-6381262D01*
X10854860Y-6384143D01*
X10844996Y-6391658D01*
X10835717Y-6404710D01*
X10835099Y-6405756D01*
X10824398Y-6424015D01*
X10838486Y-6426349D01*
X10865605Y-6433059D01*
X10893381Y-6443904D01*
X10920555Y-6458066D01*
X10945865Y-6474728D01*
X10968050Y-6493072D01*
X10985849Y-6512280D01*
X10996762Y-6529012D01*
X11004468Y-6550585D01*
X11005854Y-6571839D01*
X11005854Y-6571839D01*
X11005854Y-6571839D01*
G37*
X11005854Y-6571839D02*
X11001326Y-6591818D01*
X10991292Y-6609567D01*
X10976157Y-6624128D01*
X10956329Y-6634546D01*
X10956088Y-6634625D01*
X10956088Y-6537066D01*
X10951698Y-6516168D01*
X10941630Y-6496807D01*
X10926243Y-6479678D01*
X10905895Y-6465474D01*
X10881610Y-6455102D01*
X10864490Y-6450777D01*
X10846583Y-6448159D01*
X10830116Y-6447441D01*
X10817319Y-6448814D01*
X10815320Y-6449381D01*
X10810739Y-6453388D01*
X10803810Y-6462748D01*
X10795064Y-6476684D01*
X10786817Y-6491147D01*
X10765088Y-6530668D01*
X10774591Y-6548820D01*
X10782561Y-6561223D01*
X10793213Y-6574290D01*
X10801224Y-6582372D01*
X10824866Y-6600510D01*
X10848527Y-6612648D01*
X10871726Y-6618682D01*
X10893983Y-6618509D01*
X10914818Y-6612026D01*
X10921660Y-6608263D01*
X10935444Y-6596903D01*
X10946202Y-6581086D01*
X10946404Y-6580701D01*
X10954442Y-6558809D01*
X10956088Y-6537066D01*
X10956088Y-6634625D01*
X10951167Y-6636250D01*
X10931197Y-6639959D01*
X10908074Y-6640757D01*
X10884751Y-6638660D01*
X10871200Y-6635836D01*
X10847531Y-6627710D01*
X10823235Y-6616198D01*
X10800025Y-6602351D01*
X10779615Y-6587219D01*
X10763716Y-6571856D01*
X10760443Y-6567836D01*
X10754742Y-6560849D01*
X10751404Y-6558775D01*
X10748956Y-6560947D01*
X10748200Y-6562279D01*
X10745095Y-6567813D01*
X10743960Y-6569592D01*
X10740871Y-6568552D01*
X10733696Y-6564834D01*
X10724060Y-6559397D01*
X10713589Y-6553203D01*
X10703909Y-6547212D01*
X10696645Y-6542386D01*
X10693455Y-6539741D01*
X10694897Y-6536565D01*
X10699807Y-6533076D01*
X10706613Y-6527488D01*
X10713692Y-6518871D01*
X10715248Y-6516479D01*
X10718934Y-6510456D01*
X10725638Y-6499509D01*
X10734836Y-6484489D01*
X10746009Y-6466248D01*
X10758634Y-6445639D01*
X10772190Y-6423511D01*
X10775459Y-6418176D01*
X10791494Y-6391829D01*
X10804195Y-6370527D01*
X10813907Y-6353626D01*
X10820978Y-6340485D01*
X10825751Y-6330461D01*
X10828575Y-6322913D01*
X10829777Y-6317345D01*
X10831305Y-6307977D01*
X10833179Y-6301894D01*
X10833912Y-6300915D01*
X10836687Y-6302799D01*
X10841379Y-6309234D01*
X10845798Y-6316730D01*
X10852402Y-6326936D01*
X10862202Y-6339778D01*
X10873551Y-6353157D01*
X10879207Y-6359301D01*
X10903182Y-6384542D01*
X10883766Y-6382116D01*
X10867165Y-6381262D01*
X10854860Y-6384143D01*
X10844996Y-6391658D01*
X10835717Y-6404710D01*
X10835099Y-6405756D01*
X10824398Y-6424015D01*
X10838486Y-6426349D01*
X10865605Y-6433059D01*
X10893381Y-6443904D01*
X10920555Y-6458066D01*
X10945865Y-6474728D01*
X10968050Y-6493072D01*
X10985849Y-6512280D01*
X10996762Y-6529012D01*
X11004468Y-6550585D01*
X11005854Y-6571839D01*
X11005854Y-6571839D01*
G36*
X11852835Y-6522153D02*
X11852734Y-6523479D01*
X11851737Y-6527820D01*
X11849861Y-6527521D01*
X11846019Y-6522046D01*
X11844333Y-6519333D01*
X11839588Y-6510911D01*
X11833124Y-6498483D01*
X11826046Y-6484200D01*
X11823093Y-6478032D01*
X11802181Y-6441727D01*
X11775225Y-6408335D01*
X11742327Y-6377931D01*
X11703593Y-6350589D01*
X11659128Y-6326385D01*
X11609036Y-6305393D01*
X11558782Y-6289182D01*
X11534573Y-6282657D01*
X11504576Y-6275095D01*
X11469661Y-6266698D01*
X11430698Y-6257664D01*
X11388560Y-6248193D01*
X11344117Y-6238485D01*
X11298240Y-6228738D01*
X11262360Y-6221306D01*
X11228617Y-6214343D01*
X11200563Y-6208405D01*
X11177232Y-6203253D01*
X11157659Y-6198645D01*
X11140878Y-6194343D01*
X11125925Y-6190105D01*
X11111833Y-6185691D01*
X11097637Y-6180861D01*
X11092461Y-6179027D01*
X11059368Y-6165424D01*
X11030746Y-6149456D01*
X11004361Y-6129705D01*
X10982180Y-6109041D01*
X10966592Y-6094209D01*
X10951748Y-6081690D01*
X10939115Y-6072687D01*
X10934767Y-6070215D01*
X10903463Y-6050626D01*
X10876170Y-6025688D01*
X10853202Y-5995732D01*
X10839039Y-5970244D01*
X10831045Y-5951396D01*
X10827414Y-5936537D01*
X10828139Y-5924479D01*
X10833214Y-5914034D01*
X10838688Y-5907701D01*
X10847201Y-5900750D01*
X10855251Y-5896662D01*
X10857939Y-5896187D01*
X10872224Y-5899293D01*
X10888813Y-5908479D01*
X10907473Y-5923541D01*
X10927971Y-5944278D01*
X10950076Y-5970487D01*
X10963606Y-5988202D01*
X10992822Y-6027725D01*
X11012444Y-6031808D01*
X11027400Y-6033762D01*
X11046973Y-6034592D01*
X11069088Y-6034209D01*
X11069320Y-6034198D01*
X11111378Y-6028951D01*
X11152107Y-6017305D01*
X11190670Y-5999616D01*
X11226230Y-5976239D01*
X11246845Y-5958629D01*
X11268969Y-5935229D01*
X11286420Y-5910634D01*
X11300447Y-5882855D01*
X11309406Y-5858933D01*
X11321327Y-5815178D01*
X11327019Y-5773955D01*
X11326416Y-5734990D01*
X11319455Y-5698007D01*
X11306070Y-5662731D01*
X11286195Y-5628887D01*
X11259766Y-5596198D01*
X11243314Y-5579473D01*
X11204252Y-5546405D01*
X11161466Y-5518539D01*
X11114518Y-5495634D01*
X11062970Y-5477449D01*
X11052650Y-5474516D01*
X11022432Y-5466234D01*
X10990583Y-5478163D01*
X10966076Y-5486788D01*
X10938111Y-5495727D01*
X10909038Y-5504292D01*
X10881210Y-5511794D01*
X10856979Y-5517544D01*
X10853991Y-5518173D01*
X10823766Y-5523614D01*
X10793461Y-5527310D01*
X10761295Y-5529389D01*
X10725484Y-5529984D01*
X10697757Y-5529597D01*
X10673515Y-5528916D01*
X10654557Y-5528070D01*
X10639393Y-5526903D01*
X10626534Y-5525256D01*
X10614491Y-5522972D01*
X10601775Y-5519894D01*
X10599008Y-5519166D01*
X10559641Y-5506330D01*
X10524692Y-5489604D01*
X10493019Y-5468239D01*
X10463481Y-5441483D01*
X10439405Y-5414194D01*
X10430146Y-5401922D01*
X10419975Y-5387095D01*
X10409617Y-5370938D01*
X10399798Y-5354676D01*
X10391244Y-5339534D01*
X10384682Y-5326738D01*
X10380835Y-5317513D01*
X10380133Y-5314152D01*
X10381134Y-5310655D01*
X10384372Y-5311756D01*
X10390201Y-5317788D01*
X10398975Y-5329086D01*
X10405587Y-5338233D01*
X10437064Y-5377925D01*
X10470722Y-5411406D01*
X10506743Y-5438740D01*
X10545307Y-5459989D01*
X10586594Y-5475215D01*
X10630784Y-5484482D01*
X10678058Y-5487851D01*
X10728595Y-5485387D01*
X10782575Y-5477150D01*
X10796693Y-5474183D01*
X10817256Y-5469484D01*
X10835929Y-5464795D01*
X10853494Y-5459790D01*
X10870731Y-5454142D01*
X10888421Y-5447524D01*
X10907346Y-5439608D01*
X10928287Y-5430068D01*
X10952024Y-5418577D01*
X10979339Y-5404807D01*
X11011012Y-5388433D01*
X11047825Y-5369126D01*
X11048527Y-5368757D01*
X11093864Y-5345299D01*
X11134376Y-5325293D01*
X11170858Y-5308410D01*
X11204103Y-5294322D01*
X11234906Y-5282700D01*
X11264062Y-5273215D01*
X11292364Y-5265537D01*
X11304935Y-5262607D01*
X11325211Y-5259089D01*
X11349984Y-5256323D01*
X11377637Y-5254352D01*
X11406554Y-5253215D01*
X11435120Y-5252954D01*
X11461719Y-5253611D01*
X11484735Y-5255225D01*
X11501431Y-5257608D01*
X11540919Y-5267241D01*
X11578256Y-5279674D01*
X11612594Y-5294473D01*
X11643079Y-5311201D01*
X11668861Y-5329424D01*
X11689088Y-5348705D01*
X11695650Y-5356915D01*
X11706281Y-5375336D01*
X11713532Y-5395712D01*
X11716727Y-5415703D01*
X11716212Y-5428053D01*
X11713921Y-5441101D01*
X11711556Y-5448664D01*
X11708590Y-5452013D01*
X11706042Y-5452533D01*
X11703083Y-5449450D01*
X11701787Y-5440059D01*
X11701715Y-5435957D01*
X11699260Y-5412414D01*
X11691649Y-5391617D01*
X11678509Y-5373079D01*
X11659470Y-5356309D01*
X11634158Y-5340819D01*
X11626427Y-5336903D01*
X11579288Y-5317359D01*
X11530927Y-5304292D01*
X11480963Y-5297639D01*
X11429019Y-5297341D01*
X11396044Y-5300272D01*
X11368903Y-5304549D01*
X11341456Y-5310886D01*
X11312914Y-5319593D01*
X11282486Y-5330976D01*
X11249384Y-5345343D01*
X11212817Y-5363003D01*
X11171995Y-5384262D01*
X11150600Y-5395866D01*
X11131848Y-5406137D01*
X11118472Y-5413626D01*
X11109960Y-5418899D01*
X11105797Y-5422521D01*
X11105472Y-5425055D01*
X11108472Y-5427069D01*
X11114283Y-5429126D01*
X11119026Y-5430655D01*
X11148219Y-5441899D01*
X11179643Y-5456902D01*
X11210910Y-5474470D01*
X11227527Y-5485025D01*
X11267570Y-5515111D01*
X11301619Y-5547979D01*
X11329587Y-5583440D01*
X11351387Y-5621305D01*
X11366931Y-5661386D01*
X11376131Y-5703495D01*
X11378900Y-5747443D01*
X11375149Y-5793042D01*
X11374009Y-5800070D01*
X11362569Y-5850175D01*
X11346298Y-5895572D01*
X11325085Y-5936412D01*
X11298819Y-5972845D01*
X11267388Y-6005022D01*
X11230683Y-6033093D01*
X11188590Y-6057209D01*
X11181495Y-6060641D01*
X11139346Y-6077683D01*
X11098715Y-6088265D01*
X11074681Y-6091533D01*
X11049561Y-6093703D01*
X11059441Y-6101594D01*
X11076001Y-6112683D01*
X11097943Y-6124065D01*
X11123941Y-6135086D01*
X11137053Y-6139908D01*
X11150303Y-6144142D01*
X11169278Y-6149613D01*
X11193090Y-6156099D01*
X11220851Y-6163375D01*
X11251672Y-6171221D01*
X11284665Y-6179413D01*
X11318940Y-6187729D01*
X11353610Y-6195945D01*
X11387786Y-6203840D01*
X11420579Y-6211191D01*
X11428307Y-6212885D01*
X11476894Y-6223943D01*
X11519590Y-6234695D01*
X11557250Y-6245408D01*
X11590733Y-6256352D01*
X11620895Y-6267796D01*
X11648593Y-6280009D01*
X11660293Y-6285732D01*
X11705545Y-6311942D01*
X11745377Y-6342197D01*
X11779777Y-6376486D01*
X11808734Y-6414797D01*
X11828757Y-6449907D01*
X11836155Y-6466136D01*
X11842789Y-6483090D01*
X11848131Y-6499155D01*
X11851655Y-6512715D01*
X11852835Y-6522153D01*
X11852835Y-6522153D01*
X11852835Y-6522153D01*
G37*
X11852835Y-6522153D02*
X11852734Y-6523479D01*
X11851737Y-6527820D01*
X11849861Y-6527521D01*
X11846019Y-6522046D01*
X11844333Y-6519333D01*
X11839588Y-6510911D01*
X11833124Y-6498483D01*
X11826046Y-6484200D01*
X11823093Y-6478032D01*
X11802181Y-6441727D01*
X11775225Y-6408335D01*
X11742327Y-6377931D01*
X11703593Y-6350589D01*
X11659128Y-6326385D01*
X11609036Y-6305393D01*
X11558782Y-6289182D01*
X11534573Y-6282657D01*
X11504576Y-6275095D01*
X11469661Y-6266698D01*
X11430698Y-6257664D01*
X11388560Y-6248193D01*
X11344117Y-6238485D01*
X11298240Y-6228738D01*
X11262360Y-6221306D01*
X11228617Y-6214343D01*
X11200563Y-6208405D01*
X11177232Y-6203253D01*
X11157659Y-6198645D01*
X11140878Y-6194343D01*
X11125925Y-6190105D01*
X11111833Y-6185691D01*
X11097637Y-6180861D01*
X11092461Y-6179027D01*
X11059368Y-6165424D01*
X11030746Y-6149456D01*
X11004361Y-6129705D01*
X10982180Y-6109041D01*
X10966592Y-6094209D01*
X10951748Y-6081690D01*
X10939115Y-6072687D01*
X10934767Y-6070215D01*
X10903463Y-6050626D01*
X10876170Y-6025688D01*
X10853202Y-5995732D01*
X10839039Y-5970244D01*
X10831045Y-5951396D01*
X10827414Y-5936537D01*
X10828139Y-5924479D01*
X10833214Y-5914034D01*
X10838688Y-5907701D01*
X10847201Y-5900750D01*
X10855251Y-5896662D01*
X10857939Y-5896187D01*
X10872224Y-5899293D01*
X10888813Y-5908479D01*
X10907473Y-5923541D01*
X10927971Y-5944278D01*
X10950076Y-5970487D01*
X10963606Y-5988202D01*
X10992822Y-6027725D01*
X11012444Y-6031808D01*
X11027400Y-6033762D01*
X11046973Y-6034592D01*
X11069088Y-6034209D01*
X11069320Y-6034198D01*
X11111378Y-6028951D01*
X11152107Y-6017305D01*
X11190670Y-5999616D01*
X11226230Y-5976239D01*
X11246845Y-5958629D01*
X11268969Y-5935229D01*
X11286420Y-5910634D01*
X11300447Y-5882855D01*
X11309406Y-5858933D01*
X11321327Y-5815178D01*
X11327019Y-5773955D01*
X11326416Y-5734990D01*
X11319455Y-5698007D01*
X11306070Y-5662731D01*
X11286195Y-5628887D01*
X11259766Y-5596198D01*
X11243314Y-5579473D01*
X11204252Y-5546405D01*
X11161466Y-5518539D01*
X11114518Y-5495634D01*
X11062970Y-5477449D01*
X11052650Y-5474516D01*
X11022432Y-5466234D01*
X10990583Y-5478163D01*
X10966076Y-5486788D01*
X10938111Y-5495727D01*
X10909038Y-5504292D01*
X10881210Y-5511794D01*
X10856979Y-5517544D01*
X10853991Y-5518173D01*
X10823766Y-5523614D01*
X10793461Y-5527310D01*
X10761295Y-5529389D01*
X10725484Y-5529984D01*
X10697757Y-5529597D01*
X10673515Y-5528916D01*
X10654557Y-5528070D01*
X10639393Y-5526903D01*
X10626534Y-5525256D01*
X10614491Y-5522972D01*
X10601775Y-5519894D01*
X10599008Y-5519166D01*
X10559641Y-5506330D01*
X10524692Y-5489604D01*
X10493019Y-5468239D01*
X10463481Y-5441483D01*
X10439405Y-5414194D01*
X10430146Y-5401922D01*
X10419975Y-5387095D01*
X10409617Y-5370938D01*
X10399798Y-5354676D01*
X10391244Y-5339534D01*
X10384682Y-5326738D01*
X10380835Y-5317513D01*
X10380133Y-5314152D01*
X10381134Y-5310655D01*
X10384372Y-5311756D01*
X10390201Y-5317788D01*
X10398975Y-5329086D01*
X10405587Y-5338233D01*
X10437064Y-5377925D01*
X10470722Y-5411406D01*
X10506743Y-5438740D01*
X10545307Y-5459989D01*
X10586594Y-5475215D01*
X10630784Y-5484482D01*
X10678058Y-5487851D01*
X10728595Y-5485387D01*
X10782575Y-5477150D01*
X10796693Y-5474183D01*
X10817256Y-5469484D01*
X10835929Y-5464795D01*
X10853494Y-5459790D01*
X10870731Y-5454142D01*
X10888421Y-5447524D01*
X10907346Y-5439608D01*
X10928287Y-5430068D01*
X10952024Y-5418577D01*
X10979339Y-5404807D01*
X11011012Y-5388433D01*
X11047825Y-5369126D01*
X11048527Y-5368757D01*
X11093864Y-5345299D01*
X11134376Y-5325293D01*
X11170858Y-5308410D01*
X11204103Y-5294322D01*
X11234906Y-5282700D01*
X11264062Y-5273215D01*
X11292364Y-5265537D01*
X11304935Y-5262607D01*
X11325211Y-5259089D01*
X11349984Y-5256323D01*
X11377637Y-5254352D01*
X11406554Y-5253215D01*
X11435120Y-5252954D01*
X11461719Y-5253611D01*
X11484735Y-5255225D01*
X11501431Y-5257608D01*
X11540919Y-5267241D01*
X11578256Y-5279674D01*
X11612594Y-5294473D01*
X11643079Y-5311201D01*
X11668861Y-5329424D01*
X11689088Y-5348705D01*
X11695650Y-5356915D01*
X11706281Y-5375336D01*
X11713532Y-5395712D01*
X11716727Y-5415703D01*
X11716212Y-5428053D01*
X11713921Y-5441101D01*
X11711556Y-5448664D01*
X11708590Y-5452013D01*
X11706042Y-5452533D01*
X11703083Y-5449450D01*
X11701787Y-5440059D01*
X11701715Y-5435957D01*
X11699260Y-5412414D01*
X11691649Y-5391617D01*
X11678509Y-5373079D01*
X11659470Y-5356309D01*
X11634158Y-5340819D01*
X11626427Y-5336903D01*
X11579288Y-5317359D01*
X11530927Y-5304292D01*
X11480963Y-5297639D01*
X11429019Y-5297341D01*
X11396044Y-5300272D01*
X11368903Y-5304549D01*
X11341456Y-5310886D01*
X11312914Y-5319593D01*
X11282486Y-5330976D01*
X11249384Y-5345343D01*
X11212817Y-5363003D01*
X11171995Y-5384262D01*
X11150600Y-5395866D01*
X11131848Y-5406137D01*
X11118472Y-5413626D01*
X11109960Y-5418899D01*
X11105797Y-5422521D01*
X11105472Y-5425055D01*
X11108472Y-5427069D01*
X11114283Y-5429126D01*
X11119026Y-5430655D01*
X11148219Y-5441899D01*
X11179643Y-5456902D01*
X11210910Y-5474470D01*
X11227527Y-5485025D01*
X11267570Y-5515111D01*
X11301619Y-5547979D01*
X11329587Y-5583440D01*
X11351387Y-5621305D01*
X11366931Y-5661386D01*
X11376131Y-5703495D01*
X11378900Y-5747443D01*
X11375149Y-5793042D01*
X11374009Y-5800070D01*
X11362569Y-5850175D01*
X11346298Y-5895572D01*
X11325085Y-5936412D01*
X11298819Y-5972845D01*
X11267388Y-6005022D01*
X11230683Y-6033093D01*
X11188590Y-6057209D01*
X11181495Y-6060641D01*
X11139346Y-6077683D01*
X11098715Y-6088265D01*
X11074681Y-6091533D01*
X11049561Y-6093703D01*
X11059441Y-6101594D01*
X11076001Y-6112683D01*
X11097943Y-6124065D01*
X11123941Y-6135086D01*
X11137053Y-6139908D01*
X11150303Y-6144142D01*
X11169278Y-6149613D01*
X11193090Y-6156099D01*
X11220851Y-6163375D01*
X11251672Y-6171221D01*
X11284665Y-6179413D01*
X11318940Y-6187729D01*
X11353610Y-6195945D01*
X11387786Y-6203840D01*
X11420579Y-6211191D01*
X11428307Y-6212885D01*
X11476894Y-6223943D01*
X11519590Y-6234695D01*
X11557250Y-6245408D01*
X11590733Y-6256352D01*
X11620895Y-6267796D01*
X11648593Y-6280009D01*
X11660293Y-6285732D01*
X11705545Y-6311942D01*
X11745377Y-6342197D01*
X11779777Y-6376486D01*
X11808734Y-6414797D01*
X11828757Y-6449907D01*
X11836155Y-6466136D01*
X11842789Y-6483090D01*
X11848131Y-6499155D01*
X11851655Y-6512715D01*
X11852835Y-6522153D01*
X11852835Y-6522153D01*
G36*
X10691027Y-6331927D02*
X10689584Y-6333606D01*
X10684369Y-6330234D01*
X10676771Y-6323548D01*
X10661836Y-6312460D01*
X10647110Y-6307559D01*
X10631138Y-6308467D01*
X10625008Y-6310080D01*
X10610803Y-6314440D01*
X10629801Y-6336453D01*
X10647861Y-6359257D01*
X10663295Y-6382476D01*
X10675522Y-6404998D01*
X10683962Y-6425710D01*
X10688034Y-6443500D01*
X10688320Y-6448625D01*
X10686138Y-6462008D01*
X10680431Y-6474331D01*
X10672462Y-6483173D01*
X10669371Y-6484997D01*
X10654346Y-6488765D01*
X10654346Y-6415648D01*
X10652153Y-6401997D01*
X10645979Y-6385328D01*
X10636700Y-6367344D01*
X10625193Y-6349749D01*
X10612631Y-6334559D01*
X10595187Y-6316136D01*
X10556934Y-6322496D01*
X10541601Y-6325175D01*
X10528853Y-6327646D01*
X10520101Y-6329619D01*
X10516803Y-6330735D01*
X10516443Y-6335396D01*
X10518881Y-6344667D01*
X10523648Y-6357222D01*
X10530275Y-6371738D01*
X10533788Y-6378652D01*
X10546750Y-6399302D01*
X10562020Y-6417042D01*
X10578702Y-6431310D01*
X10595899Y-6441545D01*
X10612714Y-6447186D01*
X10628249Y-6447669D01*
X10638589Y-6444273D01*
X10648364Y-6436805D01*
X10653263Y-6426547D01*
X10654346Y-6415648D01*
X10654346Y-6488765D01*
X10654159Y-6488812D01*
X10635787Y-6488621D01*
X10616402Y-6484626D01*
X10601112Y-6478581D01*
X10584874Y-6468280D01*
X10567507Y-6453637D01*
X10550785Y-6436432D01*
X10536480Y-6418444D01*
X10528486Y-6405663D01*
X10523129Y-6394132D01*
X10517216Y-6378959D01*
X10511869Y-6363066D01*
X10510962Y-6360043D01*
X10506919Y-6347357D01*
X10503212Y-6337694D01*
X10500422Y-6332491D01*
X10499623Y-6331986D01*
X10495090Y-6332515D01*
X10485575Y-6333390D01*
X10472850Y-6334451D01*
X10468041Y-6334831D01*
X10439400Y-6337062D01*
X10420972Y-6318215D01*
X10412484Y-6309178D01*
X10406476Y-6302091D01*
X10403993Y-6298206D01*
X10404038Y-6297888D01*
X10407737Y-6297102D01*
X10417056Y-6295846D01*
X10430870Y-6294251D01*
X10448051Y-6292450D01*
X10463596Y-6290937D01*
X10488365Y-6288373D01*
X10516115Y-6285130D01*
X10543893Y-6281573D01*
X10568747Y-6278069D01*
X10575131Y-6277092D01*
X10595545Y-6274131D01*
X10615647Y-6271630D01*
X10633578Y-6269792D01*
X10647479Y-6268821D01*
X10651689Y-6268720D01*
X10674773Y-6268720D01*
X10674806Y-6281420D01*
X10676300Y-6291742D01*
X10680094Y-6304472D01*
X10683273Y-6312236D01*
X10688867Y-6324902D01*
X10691027Y-6331927D01*
X10691027Y-6331927D01*
X10691027Y-6331927D01*
G37*
X10691027Y-6331927D02*
X10689584Y-6333606D01*
X10684369Y-6330234D01*
X10676771Y-6323548D01*
X10661836Y-6312460D01*
X10647110Y-6307559D01*
X10631138Y-6308467D01*
X10625008Y-6310080D01*
X10610803Y-6314440D01*
X10629801Y-6336453D01*
X10647861Y-6359257D01*
X10663295Y-6382476D01*
X10675522Y-6404998D01*
X10683962Y-6425710D01*
X10688034Y-6443500D01*
X10688320Y-6448625D01*
X10686138Y-6462008D01*
X10680431Y-6474331D01*
X10672462Y-6483173D01*
X10669371Y-6484997D01*
X10654346Y-6488765D01*
X10654346Y-6415648D01*
X10652153Y-6401997D01*
X10645979Y-6385328D01*
X10636700Y-6367344D01*
X10625193Y-6349749D01*
X10612631Y-6334559D01*
X10595187Y-6316136D01*
X10556934Y-6322496D01*
X10541601Y-6325175D01*
X10528853Y-6327646D01*
X10520101Y-6329619D01*
X10516803Y-6330735D01*
X10516443Y-6335396D01*
X10518881Y-6344667D01*
X10523648Y-6357222D01*
X10530275Y-6371738D01*
X10533788Y-6378652D01*
X10546750Y-6399302D01*
X10562020Y-6417042D01*
X10578702Y-6431310D01*
X10595899Y-6441545D01*
X10612714Y-6447186D01*
X10628249Y-6447669D01*
X10638589Y-6444273D01*
X10648364Y-6436805D01*
X10653263Y-6426547D01*
X10654346Y-6415648D01*
X10654346Y-6488765D01*
X10654159Y-6488812D01*
X10635787Y-6488621D01*
X10616402Y-6484626D01*
X10601112Y-6478581D01*
X10584874Y-6468280D01*
X10567507Y-6453637D01*
X10550785Y-6436432D01*
X10536480Y-6418444D01*
X10528486Y-6405663D01*
X10523129Y-6394132D01*
X10517216Y-6378959D01*
X10511869Y-6363066D01*
X10510962Y-6360043D01*
X10506919Y-6347357D01*
X10503212Y-6337694D01*
X10500422Y-6332491D01*
X10499623Y-6331986D01*
X10495090Y-6332515D01*
X10485575Y-6333390D01*
X10472850Y-6334451D01*
X10468041Y-6334831D01*
X10439400Y-6337062D01*
X10420972Y-6318215D01*
X10412484Y-6309178D01*
X10406476Y-6302091D01*
X10403993Y-6298206D01*
X10404038Y-6297888D01*
X10407737Y-6297102D01*
X10417056Y-6295846D01*
X10430870Y-6294251D01*
X10448051Y-6292450D01*
X10463596Y-6290937D01*
X10488365Y-6288373D01*
X10516115Y-6285130D01*
X10543893Y-6281573D01*
X10568747Y-6278069D01*
X10575131Y-6277092D01*
X10595545Y-6274131D01*
X10615647Y-6271630D01*
X10633578Y-6269792D01*
X10647479Y-6268821D01*
X10651689Y-6268720D01*
X10674773Y-6268720D01*
X10674806Y-6281420D01*
X10676300Y-6291742D01*
X10680094Y-6304472D01*
X10683273Y-6312236D01*
X10688867Y-6324902D01*
X10691027Y-6331927D01*
X10691027Y-6331927D01*
G36*
X10578294Y-6115715D02*
X10574298Y-6115899D01*
X10566391Y-6114293D01*
X10563489Y-6113476D01*
X10554244Y-6110964D01*
X10547611Y-6109618D01*
X10546666Y-6109547D01*
X10540109Y-6112795D01*
X10532663Y-6122210D01*
X10524659Y-6137296D01*
X10518626Y-6151672D01*
X10513112Y-6165611D01*
X10507833Y-6178326D01*
X10503734Y-6187557D01*
X10502965Y-6189133D01*
X10488342Y-6211254D01*
X10469808Y-6228582D01*
X10448313Y-6240775D01*
X10424810Y-6247491D01*
X10400249Y-6248388D01*
X10375584Y-6243124D01*
X10364893Y-6238745D01*
X10347597Y-6228295D01*
X10330542Y-6214050D01*
X10314953Y-6197436D01*
X10302052Y-6179881D01*
X10293065Y-6162810D01*
X10289593Y-6150970D01*
X10287552Y-6138333D01*
X10313281Y-6164296D01*
X10331925Y-6182090D01*
X10347854Y-6194828D01*
X10362082Y-6203111D01*
X10375620Y-6207540D01*
X10388141Y-6208728D01*
X10411137Y-6205370D01*
X10433397Y-6195366D01*
X10454768Y-6178817D01*
X10475098Y-6155823D01*
X10481578Y-6146800D01*
X10492347Y-6130175D01*
X10501313Y-6114003D01*
X10509501Y-6096184D01*
X10517936Y-6074621D01*
X10521120Y-6065844D01*
X10526213Y-6051619D01*
X10530574Y-6039460D01*
X10533618Y-6030998D01*
X10534608Y-6028267D01*
X10536668Y-6029173D01*
X10541061Y-6035631D01*
X10547405Y-6046988D01*
X10555318Y-6062593D01*
X10558228Y-6068606D01*
X10565735Y-6084609D01*
X10571891Y-6098374D01*
X10576224Y-6108792D01*
X10578263Y-6114760D01*
X10578294Y-6115715D01*
X10578294Y-6115715D01*
X10578294Y-6115715D01*
G37*
X10578294Y-6115715D02*
X10574298Y-6115899D01*
X10566391Y-6114293D01*
X10563489Y-6113476D01*
X10554244Y-6110964D01*
X10547611Y-6109618D01*
X10546666Y-6109547D01*
X10540109Y-6112795D01*
X10532663Y-6122210D01*
X10524659Y-6137296D01*
X10518626Y-6151672D01*
X10513112Y-6165611D01*
X10507833Y-6178326D01*
X10503734Y-6187557D01*
X10502965Y-6189133D01*
X10488342Y-6211254D01*
X10469808Y-6228582D01*
X10448313Y-6240775D01*
X10424810Y-6247491D01*
X10400249Y-6248388D01*
X10375584Y-6243124D01*
X10364893Y-6238745D01*
X10347597Y-6228295D01*
X10330542Y-6214050D01*
X10314953Y-6197436D01*
X10302052Y-6179881D01*
X10293065Y-6162810D01*
X10289593Y-6150970D01*
X10287552Y-6138333D01*
X10313281Y-6164296D01*
X10331925Y-6182090D01*
X10347854Y-6194828D01*
X10362082Y-6203111D01*
X10375620Y-6207540D01*
X10388141Y-6208728D01*
X10411137Y-6205370D01*
X10433397Y-6195366D01*
X10454768Y-6178817D01*
X10475098Y-6155823D01*
X10481578Y-6146800D01*
X10492347Y-6130175D01*
X10501313Y-6114003D01*
X10509501Y-6096184D01*
X10517936Y-6074621D01*
X10521120Y-6065844D01*
X10526213Y-6051619D01*
X10530574Y-6039460D01*
X10533618Y-6030998D01*
X10534608Y-6028267D01*
X10536668Y-6029173D01*
X10541061Y-6035631D01*
X10547405Y-6046988D01*
X10555318Y-6062593D01*
X10558228Y-6068606D01*
X10565735Y-6084609D01*
X10571891Y-6098374D01*
X10576224Y-6108792D01*
X10578263Y-6114760D01*
X10578294Y-6115715D01*
X10578294Y-6115715D01*
G36*
X10447867Y-6062411D02*
X10445541Y-6062731D01*
X10439680Y-6059487D01*
X10436577Y-6057254D01*
X10422183Y-6048997D01*
X10408335Y-6046098D01*
X10396634Y-6048729D01*
X10384758Y-6055407D01*
X10370206Y-6064284D01*
X10354053Y-6074622D01*
X10337377Y-6085687D01*
X10321253Y-6096743D01*
X10306759Y-6107052D01*
X10294971Y-6115879D01*
X10286964Y-6122487D01*
X10283957Y-6125772D01*
X10279322Y-6134618D01*
X10267558Y-6116156D01*
X10259161Y-6102521D01*
X10252046Y-6090117D01*
X10246976Y-6080347D01*
X10244716Y-6074614D01*
X10244667Y-6074155D01*
X10247589Y-6072789D01*
X10253730Y-6072293D01*
X10259721Y-6070520D01*
X10270809Y-6065411D01*
X10286391Y-6057285D01*
X10305859Y-6046458D01*
X10328609Y-6033248D01*
X10331302Y-6031653D01*
X10350810Y-6020169D01*
X10368464Y-6009943D01*
X10383408Y-6001458D01*
X10394783Y-5995197D01*
X10401732Y-5991644D01*
X10403432Y-5991013D01*
X10407212Y-5993748D01*
X10411857Y-6000482D01*
X10412678Y-6002020D01*
X10417275Y-6010261D01*
X10424203Y-6021831D01*
X10432066Y-6034403D01*
X10433085Y-6035992D01*
X10439999Y-6047138D01*
X10445183Y-6056264D01*
X10447742Y-6061769D01*
X10447867Y-6062411D01*
X10447867Y-6062411D01*
X10447867Y-6062411D01*
G37*
X10447867Y-6062411D02*
X10445541Y-6062731D01*
X10439680Y-6059487D01*
X10436577Y-6057254D01*
X10422183Y-6048997D01*
X10408335Y-6046098D01*
X10396634Y-6048729D01*
X10384758Y-6055407D01*
X10370206Y-6064284D01*
X10354053Y-6074622D01*
X10337377Y-6085687D01*
X10321253Y-6096743D01*
X10306759Y-6107052D01*
X10294971Y-6115879D01*
X10286964Y-6122487D01*
X10283957Y-6125772D01*
X10279322Y-6134618D01*
X10267558Y-6116156D01*
X10259161Y-6102521D01*
X10252046Y-6090117D01*
X10246976Y-6080347D01*
X10244716Y-6074614D01*
X10244667Y-6074155D01*
X10247589Y-6072789D01*
X10253730Y-6072293D01*
X10259721Y-6070520D01*
X10270809Y-6065411D01*
X10286391Y-6057285D01*
X10305859Y-6046458D01*
X10328609Y-6033248D01*
X10331302Y-6031653D01*
X10350810Y-6020169D01*
X10368464Y-6009943D01*
X10383408Y-6001458D01*
X10394783Y-5995197D01*
X10401732Y-5991644D01*
X10403432Y-5991013D01*
X10407212Y-5993748D01*
X10411857Y-6000482D01*
X10412678Y-6002020D01*
X10417275Y-6010261D01*
X10424203Y-6021831D01*
X10432066Y-6034403D01*
X10433085Y-6035992D01*
X10439999Y-6047138D01*
X10445183Y-6056264D01*
X10447742Y-6061769D01*
X10447867Y-6062411D01*
X10447867Y-6062411D01*
G36*
X10392534Y-5972968D02*
X10389140Y-5972168D01*
X10381498Y-5968843D01*
X10371811Y-5963996D01*
X10360513Y-5958634D01*
X10350633Y-5954949D01*
X10345076Y-5953816D01*
X10338909Y-5955441D01*
X10328268Y-5959835D01*
X10314350Y-5966359D01*
X10298350Y-5974373D01*
X10281463Y-5983239D01*
X10264885Y-5992317D01*
X10249812Y-6000967D01*
X10237440Y-6008552D01*
X10228963Y-6014431D01*
X10225698Y-6017641D01*
X10221987Y-6024189D01*
X10219864Y-6027105D01*
X10217680Y-6025131D01*
X10213425Y-6018145D01*
X10207770Y-6007329D01*
X10203013Y-5997411D01*
X10188266Y-5965613D01*
X10200379Y-5963718D01*
X10208838Y-5961348D01*
X10221361Y-5956525D01*
X10236735Y-5949851D01*
X10253751Y-5941929D01*
X10271197Y-5933361D01*
X10287863Y-5924748D01*
X10302538Y-5916693D01*
X10314010Y-5909798D01*
X10321069Y-5904666D01*
X10322563Y-5902954D01*
X10325688Y-5892067D01*
X10326459Y-5877110D01*
X10324978Y-5860326D01*
X10321353Y-5843957D01*
X10319548Y-5838613D01*
X10308069Y-5815619D01*
X10293139Y-5798442D01*
X10274781Y-5787097D01*
X10253016Y-5781601D01*
X10242434Y-5781040D01*
X10219082Y-5783495D01*
X10194957Y-5790274D01*
X10172371Y-5800497D01*
X10153638Y-5813284D01*
X10150737Y-5815901D01*
X10143809Y-5821762D01*
X10138972Y-5824550D01*
X10137957Y-5824473D01*
X10136203Y-5820526D01*
X10133301Y-5811850D01*
X10129853Y-5800262D01*
X10129583Y-5799304D01*
X10126277Y-5787034D01*
X10125257Y-5778824D01*
X10127359Y-5773018D01*
X10133425Y-5767956D01*
X10144292Y-5761978D01*
X10149925Y-5759085D01*
X10183134Y-5745433D01*
X10216727Y-5738457D01*
X10244685Y-5737643D01*
X10259782Y-5738252D01*
X10269536Y-5737569D01*
X10275115Y-5734436D01*
X10277690Y-5727693D01*
X10278431Y-5716181D01*
X10278487Y-5704160D01*
X10276192Y-5674927D01*
X10269294Y-5649803D01*
X10257977Y-5629190D01*
X10242425Y-5613491D01*
X10234507Y-5608364D01*
X10226105Y-5604158D01*
X10218025Y-5601647D01*
X10208130Y-5600450D01*
X10194282Y-5600189D01*
X10188787Y-5600239D01*
X10165893Y-5601544D01*
X10147211Y-5605262D01*
X10130401Y-5612075D01*
X10114005Y-5622056D01*
X10105315Y-5627633D01*
X10099092Y-5630877D01*
X10097114Y-5631229D01*
X10096153Y-5627393D01*
X10094938Y-5618572D01*
X10093704Y-5606537D01*
X10093503Y-5604223D01*
X10091343Y-5578667D01*
X10106198Y-5570169D01*
X10129031Y-5559077D01*
X10152054Y-5552339D01*
X10177704Y-5549345D01*
X10190480Y-5549057D01*
X10206212Y-5549251D01*
X10217204Y-5550099D01*
X10225482Y-5551990D01*
X10233074Y-5555314D01*
X10238321Y-5558264D01*
X10254327Y-5571285D01*
X10267989Y-5590247D01*
X10279466Y-5615384D01*
X10282309Y-5623560D01*
X10285525Y-5634367D01*
X10287762Y-5644928D01*
X10289203Y-5656897D01*
X10290033Y-5671929D01*
X10290435Y-5691679D01*
X10290488Y-5697315D01*
X10290891Y-5747364D01*
X10303353Y-5760126D01*
X10312147Y-5771091D01*
X10319338Y-5784771D01*
X10325255Y-5802149D01*
X10330225Y-5824212D01*
X10334575Y-5851946D01*
X10335045Y-5855501D01*
X10337524Y-5873682D01*
X10339556Y-5886063D01*
X10341389Y-5893580D01*
X10343267Y-5897170D01*
X10345437Y-5897771D01*
X10346077Y-5897555D01*
X10357798Y-5893724D01*
X10364693Y-5894173D01*
X10366587Y-5897944D01*
X10367801Y-5903414D01*
X10371084Y-5913551D01*
X10375894Y-5926771D01*
X10380193Y-5937790D01*
X10385610Y-5951676D01*
X10389760Y-5963058D01*
X10392174Y-5970597D01*
X10392534Y-5972968D01*
X10392534Y-5972968D01*
X10392534Y-5972968D01*
G37*
X10392534Y-5972968D02*
X10389140Y-5972168D01*
X10381498Y-5968843D01*
X10371811Y-5963996D01*
X10360513Y-5958634D01*
X10350633Y-5954949D01*
X10345076Y-5953816D01*
X10338909Y-5955441D01*
X10328268Y-5959835D01*
X10314350Y-5966359D01*
X10298350Y-5974373D01*
X10281463Y-5983239D01*
X10264885Y-5992317D01*
X10249812Y-6000967D01*
X10237440Y-6008552D01*
X10228963Y-6014431D01*
X10225698Y-6017641D01*
X10221987Y-6024189D01*
X10219864Y-6027105D01*
X10217680Y-6025131D01*
X10213425Y-6018145D01*
X10207770Y-6007329D01*
X10203013Y-5997411D01*
X10188266Y-5965613D01*
X10200379Y-5963718D01*
X10208838Y-5961348D01*
X10221361Y-5956525D01*
X10236735Y-5949851D01*
X10253751Y-5941929D01*
X10271197Y-5933361D01*
X10287863Y-5924748D01*
X10302538Y-5916693D01*
X10314010Y-5909798D01*
X10321069Y-5904666D01*
X10322563Y-5902954D01*
X10325688Y-5892067D01*
X10326459Y-5877110D01*
X10324978Y-5860326D01*
X10321353Y-5843957D01*
X10319548Y-5838613D01*
X10308069Y-5815619D01*
X10293139Y-5798442D01*
X10274781Y-5787097D01*
X10253016Y-5781601D01*
X10242434Y-5781040D01*
X10219082Y-5783495D01*
X10194957Y-5790274D01*
X10172371Y-5800497D01*
X10153638Y-5813284D01*
X10150737Y-5815901D01*
X10143809Y-5821762D01*
X10138972Y-5824550D01*
X10137957Y-5824473D01*
X10136203Y-5820526D01*
X10133301Y-5811850D01*
X10129853Y-5800262D01*
X10129583Y-5799304D01*
X10126277Y-5787034D01*
X10125257Y-5778824D01*
X10127359Y-5773018D01*
X10133425Y-5767956D01*
X10144292Y-5761978D01*
X10149925Y-5759085D01*
X10183134Y-5745433D01*
X10216727Y-5738457D01*
X10244685Y-5737643D01*
X10259782Y-5738252D01*
X10269536Y-5737569D01*
X10275115Y-5734436D01*
X10277690Y-5727693D01*
X10278431Y-5716181D01*
X10278487Y-5704160D01*
X10276192Y-5674927D01*
X10269294Y-5649803D01*
X10257977Y-5629190D01*
X10242425Y-5613491D01*
X10234507Y-5608364D01*
X10226105Y-5604158D01*
X10218025Y-5601647D01*
X10208130Y-5600450D01*
X10194282Y-5600189D01*
X10188787Y-5600239D01*
X10165893Y-5601544D01*
X10147211Y-5605262D01*
X10130401Y-5612075D01*
X10114005Y-5622056D01*
X10105315Y-5627633D01*
X10099092Y-5630877D01*
X10097114Y-5631229D01*
X10096153Y-5627393D01*
X10094938Y-5618572D01*
X10093704Y-5606537D01*
X10093503Y-5604223D01*
X10091343Y-5578667D01*
X10106198Y-5570169D01*
X10129031Y-5559077D01*
X10152054Y-5552339D01*
X10177704Y-5549345D01*
X10190480Y-5549057D01*
X10206212Y-5549251D01*
X10217204Y-5550099D01*
X10225482Y-5551990D01*
X10233074Y-5555314D01*
X10238321Y-5558264D01*
X10254327Y-5571285D01*
X10267989Y-5590247D01*
X10279466Y-5615384D01*
X10282309Y-5623560D01*
X10285525Y-5634367D01*
X10287762Y-5644928D01*
X10289203Y-5656897D01*
X10290033Y-5671929D01*
X10290435Y-5691679D01*
X10290488Y-5697315D01*
X10290891Y-5747364D01*
X10303353Y-5760126D01*
X10312147Y-5771091D01*
X10319338Y-5784771D01*
X10325255Y-5802149D01*
X10330225Y-5824212D01*
X10334575Y-5851946D01*
X10335045Y-5855501D01*
X10337524Y-5873682D01*
X10339556Y-5886063D01*
X10341389Y-5893580D01*
X10343267Y-5897170D01*
X10345437Y-5897771D01*
X10346077Y-5897555D01*
X10357798Y-5893724D01*
X10364693Y-5894173D01*
X10366587Y-5897944D01*
X10367801Y-5903414D01*
X10371084Y-5913551D01*
X10375894Y-5926771D01*
X10380193Y-5937790D01*
X10385610Y-5951676D01*
X10389760Y-5963058D01*
X10392174Y-5970597D01*
X10392534Y-5972968D01*
X10392534Y-5972968D01*
G36*
X10505440Y-5981454D02*
X10502981Y-5995118D01*
X10496423Y-6004101D01*
X10486998Y-6007905D01*
X10475936Y-6006029D01*
X10464540Y-5998047D01*
X10457217Y-5987348D01*
X10454185Y-5975445D01*
X10455130Y-5963916D01*
X10459736Y-5954337D01*
X10467690Y-5948284D01*
X10474719Y-5946987D01*
X10483748Y-5949896D01*
X10492987Y-5957303D01*
X10500667Y-5967225D01*
X10505023Y-5977682D01*
X10505440Y-5981454D01*
X10505440Y-5981454D01*
X10505440Y-5981454D01*
G37*
X10505440Y-5981454D02*
X10502981Y-5995118D01*
X10496423Y-6004101D01*
X10486998Y-6007905D01*
X10475936Y-6006029D01*
X10464540Y-5998047D01*
X10457217Y-5987348D01*
X10454185Y-5975445D01*
X10455130Y-5963916D01*
X10459736Y-5954337D01*
X10467690Y-5948284D01*
X10474719Y-5946987D01*
X10483748Y-5949896D01*
X10492987Y-5957303D01*
X10500667Y-5967225D01*
X10505023Y-5977682D01*
X10505440Y-5981454D01*
X10505440Y-5981454D01*
M02*
