%FSLAX45Y45*%
G04 Gerber Fmt 4.5, Leading zero omitted, Abs format (unit mm)*
G04 Created by KiCad (PCBNEW (2014-07-12 BZR 4289 GOST-COMMITTERS)-product) date 07.04.2017 13:29:06*
%MOMM*%
G01*
G04 APERTURE LIST*
%ADD10C,0.150000*%
%ADD11C,0.100000*%
%ADD12C,0.900000*%
%ADD13R,2.500000X2.000000*%
%ADD14R,2.500000X0.500000*%
%ADD15C,0.400000*%
%ADD16R,1.400000X1.600000*%
%ADD17R,1.900000X1.900000*%
%ADD18R,1.350000X0.400000*%
%ADD19R,1.016000X0.889000*%
%ADD20R,1.400000X1.100000*%
%ADD21R,0.889000X1.016000*%
%ADD22R,1.100000X1.400000*%
%ADD23R,2.000000X6.300000*%
%ADD24R,0.900000X1.000000*%
%ADD25R,1.000000X0.900000*%
%ADD26R,1.700000X1.143000*%
%ADD27C,1.500000*%
%ADD28R,1.100000X1.000000*%
%ADD29R,1.100000X0.700000*%
%ADD30R,1.100000X0.900000*%
%ADD31R,0.914400X0.914400*%
%ADD32R,1.500000X1.500000*%
%ADD33C,5.000000*%
%ADD34R,0.800000X0.800000*%
%ADD35O,1.000000X0.250000*%
%ADD36R,1.000000X0.250000*%
%ADD37C,0.300000*%
%ADD38C,0.700000*%
%ADD39C,1.200000*%
%ADD40C,1.000000*%
%ADD41C,0.200000*%
G04 APERTURE END LIST*
D10*
D11*
X10587400Y-6407480D02*
X10687400Y-6407480D01*
X10612400Y-6382480D02*
X10587400Y-6407480D01*
X10637400Y-6407480D02*
X10612400Y-6382480D01*
X10662400Y-6382480D02*
X10637400Y-6407480D01*
X10687400Y-6407480D02*
X10662400Y-6382480D01*
X10672400Y-6402480D02*
X10662400Y-6402480D01*
X10662400Y-6392480D02*
X10672400Y-6402480D01*
X10652400Y-6402480D02*
X10662400Y-6392480D01*
X10622400Y-6402480D02*
X10607400Y-6402480D01*
X10612400Y-6392480D02*
X10622400Y-6402480D01*
X10597400Y-6402480D02*
X10612400Y-6392480D01*
X10662400Y-6337480D02*
X10687400Y-6362480D01*
X10637400Y-6362480D02*
X10662400Y-6337480D01*
X10612400Y-6337480D02*
X10587400Y-6362480D01*
X10637400Y-6362480D02*
X10612400Y-6337480D01*
X10587400Y-6332480D02*
X10587400Y-6362480D01*
X10687400Y-6332480D02*
X10587400Y-6332480D01*
X10687400Y-6362480D02*
X10687400Y-6332480D01*
X10682400Y-6347480D02*
X10672400Y-6337480D01*
X10682400Y-6337480D02*
X10682400Y-6347480D01*
X10602400Y-6337480D02*
X10597400Y-6342480D01*
X10592400Y-6337480D02*
X10602400Y-6337480D01*
X10592400Y-6352480D02*
X10592400Y-6337480D01*
X10627400Y-6342480D02*
X10637400Y-6342480D01*
X10637400Y-6352480D02*
X10627400Y-6342480D01*
X10652400Y-6337480D02*
X10637400Y-6352480D01*
X10617400Y-6337480D02*
X10652400Y-6337480D01*
X10617400Y-6192480D02*
X10652400Y-6192480D01*
X10652400Y-6192480D02*
X10637400Y-6207480D01*
X10637400Y-6207480D02*
X10627400Y-6197480D01*
X10627400Y-6197480D02*
X10637400Y-6197480D01*
X10592400Y-6207480D02*
X10592400Y-6192480D01*
X10592400Y-6192480D02*
X10602400Y-6192480D01*
X10602400Y-6192480D02*
X10597400Y-6197480D01*
X10597400Y-6257480D02*
X10612400Y-6247480D01*
X10612400Y-6247480D02*
X10622400Y-6257480D01*
X10622400Y-6257480D02*
X10607400Y-6257480D01*
X10652400Y-6257480D02*
X10662400Y-6247480D01*
X10662400Y-6247480D02*
X10672400Y-6257480D01*
X10672400Y-6257480D02*
X10662400Y-6257480D01*
X10682400Y-6192480D02*
X10682400Y-6202480D01*
X10682400Y-6202480D02*
X10672400Y-6192480D01*
X10687400Y-6217480D02*
X10687400Y-6187480D01*
X10687400Y-6187480D02*
X10587400Y-6187480D01*
X10587400Y-6187480D02*
X10587400Y-6217480D01*
X10687400Y-6262480D02*
X10662400Y-6237480D01*
X10662400Y-6237480D02*
X10637400Y-6262480D01*
X10637400Y-6262480D02*
X10612400Y-6237480D01*
X10612400Y-6237480D02*
X10587400Y-6262480D01*
X10587400Y-6262480D02*
X10687400Y-6262480D01*
X10637400Y-6217480D02*
X10612400Y-6192480D01*
X10612400Y-6192480D02*
X10587400Y-6217480D01*
X10637400Y-6217480D02*
X10662400Y-6192480D01*
X10662400Y-6192480D02*
X10687400Y-6217480D01*
D12*
X9296400Y-6214400D03*
D13*
X8996400Y-5549400D03*
X8996400Y-6439400D03*
X9546400Y-5549400D03*
X9546400Y-6439400D03*
D14*
X9546400Y-5834400D03*
X9546400Y-5914400D03*
X9546400Y-5994400D03*
X9546400Y-6074400D03*
X9546400Y-6154400D03*
D12*
X9296400Y-5774400D03*
D15*
X9130400Y-5799400D03*
D16*
X9150400Y-5674400D03*
X9150400Y-6314400D03*
D17*
X8915400Y-5589400D03*
X8915400Y-5849400D03*
X8915400Y-6139400D03*
X8915400Y-6399400D03*
D18*
X9184400Y-5864400D03*
X9184400Y-5929400D03*
X9184400Y-5994400D03*
X9184400Y-6059400D03*
X9184400Y-6124400D03*
D15*
X9130400Y-6189400D03*
D19*
X9931400Y-6096000D03*
X9931400Y-5943600D03*
D20*
X10820400Y-6150200D03*
X10820400Y-5940200D03*
X10820400Y-6448200D03*
X10820400Y-6658200D03*
D21*
X11361920Y-6732990D03*
X11514320Y-6732990D03*
D22*
X11672800Y-5272570D03*
X11882800Y-5272570D03*
D20*
X12420600Y-6524400D03*
X12420600Y-6734400D03*
D19*
X12192000Y-6578600D03*
X12192000Y-6731000D03*
D21*
X10769600Y-5600700D03*
X10617200Y-5600700D03*
X10769600Y-5435600D03*
X10617200Y-5435600D03*
X10769600Y-5270500D03*
X10617200Y-5270500D03*
D23*
X11421130Y-5713780D03*
X11836130Y-5713780D03*
D24*
X10923200Y-5600700D03*
X11073200Y-5600700D03*
X11073200Y-5435600D03*
X10923200Y-5435600D03*
X11073200Y-5270500D03*
X10923200Y-5270500D03*
D25*
X12235000Y-5462200D03*
X12235000Y-5612200D03*
X12455200Y-5610900D03*
X12455200Y-5460900D03*
D22*
X12449400Y-5281330D03*
X12239400Y-5281330D03*
D26*
X12189100Y-6012200D03*
X12189100Y-6332200D03*
X12420600Y-6012200D03*
X12420600Y-6332200D03*
D27*
X8940800Y-5283200D03*
X8940800Y-6705600D03*
D28*
X10637400Y-6142480D03*
D29*
X10637400Y-6297480D03*
D30*
X10637400Y-6452480D03*
D25*
X10160000Y-5843200D03*
X10160000Y-5993200D03*
D31*
X10337800Y-6007100D03*
X10337800Y-5829300D03*
X10541000Y-5918200D03*
D32*
X12877800Y-6451600D03*
X12877800Y-6197600D03*
D27*
X12877800Y-5943600D03*
D32*
X12877800Y-5435600D03*
D27*
X12877800Y-5689600D03*
D33*
X10007600Y-6575990D03*
X10010200Y-5418040D03*
D34*
X11498210Y-6433810D03*
X11578210Y-6193810D03*
D35*
X11698210Y-6203810D03*
X11698210Y-6353810D03*
X11698210Y-6303810D03*
X11698210Y-6253810D03*
X11698210Y-6453810D03*
X11698210Y-6503810D03*
X11698210Y-6403810D03*
X11378210Y-6403810D03*
X11378210Y-6503810D03*
X11378210Y-6453810D03*
D36*
X11378210Y-6203810D03*
D35*
X11378210Y-6253810D03*
X11378210Y-6303810D03*
X11378210Y-6353810D03*
D34*
X11578210Y-6273810D03*
X11578210Y-6353810D03*
X11578210Y-6433810D03*
X11578210Y-6513810D03*
X11498210Y-6193810D03*
X11498210Y-6273810D03*
X11498210Y-6353810D03*
X11498210Y-6513810D03*
D12*
X10827000Y-6300120D03*
X9150000Y-5210000D03*
X9550000Y-5210000D03*
X10500000Y-5210000D03*
X11330520Y-5210000D03*
X11550000Y-5210000D03*
X12000000Y-5210000D03*
X12600000Y-5210000D03*
X12950000Y-5210000D03*
X12950000Y-6780000D03*
X12650000Y-6780000D03*
X12300000Y-6780000D03*
X11950000Y-6780000D03*
X11100000Y-6780000D03*
X10700000Y-6780000D03*
X10300000Y-6780000D03*
X9550000Y-6780000D03*
X9150000Y-6780000D03*
X11595430Y-6781350D03*
X10687600Y-5759590D03*
X10660600Y-6010000D03*
X12061800Y-5560340D03*
X12307500Y-6190370D03*
X9785020Y-5999000D03*
X9831640Y-6093630D03*
X10832800Y-5797860D03*
X12045100Y-5415830D03*
X11307070Y-5331260D03*
X11092000Y-5756410D03*
X11141600Y-6660920D03*
X10516300Y-5511920D03*
X11871250Y-6319540D03*
X10507800Y-5358070D03*
X11845770Y-6105330D03*
X12244200Y-5722390D03*
X11732270Y-6104480D03*
X12560100Y-5366470D03*
X11763180Y-6655920D03*
X11266300Y-5840070D03*
X11171000Y-6306440D03*
X11264200Y-5762090D03*
X11094800Y-6302550D03*
D37*
X11698210Y-6403810D02*
X11576840Y-6404420D01*
X11576840Y-6404420D02*
X11578210Y-6353810D01*
X11498210Y-6273810D02*
X11498900Y-6252080D01*
X11498900Y-6252080D02*
X11378210Y-6253810D01*
X11498210Y-6433810D02*
X11496240Y-6424200D01*
X11496240Y-6424200D02*
X11494470Y-6401760D01*
X11494470Y-6401760D02*
X11378210Y-6403810D01*
X11579220Y-6423030D02*
X11578050Y-6426540D01*
X11486890Y-6274610D02*
X11498210Y-6273810D01*
D38*
X11978500Y-5280930D02*
X12000000Y-5210000D01*
X9996610Y-6611250D02*
X9977840Y-6608110D01*
D37*
X10000000Y-5380000D02*
X9989500Y-5380190D01*
X9989500Y-5380190D02*
X9983370Y-5380190D01*
X9983370Y-5380190D02*
X9978860Y-5381210D01*
X9978860Y-5381210D02*
X9985540Y-5385430D01*
D38*
X9986460Y-5372860D02*
X9977930Y-5372210D01*
D37*
X9977930Y-5372210D02*
X9987330Y-5364520D01*
X9546400Y-6439400D02*
X9436400Y-6376900D01*
X9436400Y-6376900D02*
X9421400Y-6376900D01*
X9421400Y-6376900D02*
X9220400Y-6376900D01*
X9220400Y-6376900D02*
X9205400Y-6376900D01*
X9205400Y-6376900D02*
X9150400Y-6314400D01*
X9546400Y-6439400D02*
X9546400Y-6354400D01*
X9546400Y-6354400D02*
X9546400Y-6339400D01*
X9546400Y-6339400D02*
X9546400Y-6179400D01*
X9546400Y-6179400D02*
X9546400Y-6164400D01*
X9546400Y-6164400D02*
X9546400Y-6154400D01*
D38*
X12877800Y-5689600D02*
X12877800Y-5829610D01*
D37*
X9993890Y-5424800D02*
X9993890Y-5411280D01*
X9993890Y-5411280D02*
X10003440Y-5401730D01*
X10003440Y-5401730D02*
X10017600Y-5389470D01*
X9953270Y-6589040D02*
X9677610Y-6524400D01*
X9677610Y-6524400D02*
X9671400Y-6524400D01*
X9671400Y-6524400D02*
X9656400Y-6524400D01*
X9656400Y-6524400D02*
X9546400Y-6439400D01*
D38*
X12387000Y-6750520D02*
X12405600Y-6734400D01*
X12405600Y-6734400D02*
X12420600Y-6734400D01*
X12877800Y-5943600D02*
X12877800Y-5829610D01*
D37*
X10820400Y-5940200D02*
X10765400Y-5900200D01*
X10765400Y-5900200D02*
X10765400Y-5885200D01*
X10765400Y-5885200D02*
X10765400Y-5878990D01*
X10765400Y-5878990D02*
X10687600Y-5759590D01*
D38*
X9977930Y-5372210D02*
X9550000Y-5210000D01*
D37*
X9975830Y-5381210D02*
X9677610Y-5464400D01*
X9677610Y-5464400D02*
X9671400Y-5464400D01*
X9671400Y-5464400D02*
X9656400Y-5464400D01*
X9656400Y-5464400D02*
X9546400Y-5549400D01*
D38*
X12299900Y-6725000D02*
X12300000Y-6780000D01*
D37*
X10160000Y-5993200D02*
X10195000Y-6000150D01*
X10195000Y-6000150D02*
X10210000Y-6000150D01*
X10210000Y-6000150D02*
X10292080Y-6000150D01*
X10292080Y-6000150D02*
X10307080Y-6000150D01*
X10307080Y-6000150D02*
X10337800Y-6007100D01*
D38*
X11978500Y-5280930D02*
X12184400Y-5280930D01*
X12184400Y-5280930D02*
X12219400Y-5280930D01*
X12219400Y-5280930D02*
X12239400Y-5281330D01*
X12650000Y-6780000D02*
X12950000Y-6780000D01*
D37*
X8915400Y-5849400D02*
X8915400Y-5769400D01*
X8915400Y-5769400D02*
X8915400Y-5754400D01*
X8915400Y-5754400D02*
X8915400Y-5684400D01*
X8915400Y-5684400D02*
X8915400Y-5669400D01*
X8915400Y-5669400D02*
X8915400Y-5589400D01*
X9150400Y-5674400D02*
X9205400Y-5611900D01*
X9205400Y-5611900D02*
X9220400Y-5611900D01*
X9220400Y-5611900D02*
X9421400Y-5611900D01*
X9421400Y-5611900D02*
X9436400Y-5611900D01*
X9436400Y-5611900D02*
X9546400Y-5549400D01*
D38*
X11514320Y-6732990D02*
X11523770Y-6748790D01*
X11523770Y-6748790D02*
X11558770Y-6748790D01*
X11558770Y-6748790D02*
X11573270Y-6748790D01*
X11573270Y-6748790D02*
X11593770Y-6769290D01*
X11593770Y-6769290D02*
X11595430Y-6781350D01*
X11882800Y-5272570D02*
X11902800Y-5280930D01*
X11902800Y-5280930D02*
X11937800Y-5280930D01*
X11937800Y-5280930D02*
X11978500Y-5280930D01*
X12877800Y-5829610D02*
X12830580Y-5829610D01*
X12830580Y-5829610D02*
X12289770Y-5832400D01*
X12289770Y-5832400D02*
X12198630Y-5832400D01*
X12198630Y-5832400D02*
X12134190Y-5767960D01*
X12134190Y-5767960D02*
X12061800Y-5560340D01*
D37*
X8940800Y-6705600D02*
X8940800Y-6539400D01*
X8940800Y-6539400D02*
X8940800Y-6524400D01*
X8940800Y-6524400D02*
X8996400Y-6439400D01*
X9953270Y-6589040D02*
X9953270Y-6597980D01*
X9953270Y-6597980D02*
X9958290Y-6612320D01*
X9977840Y-6608110D02*
X9987740Y-6615800D01*
X8915400Y-6399400D02*
X8915400Y-6319400D01*
X8915400Y-6319400D02*
X8915400Y-6304400D01*
X8915400Y-6304400D02*
X8915400Y-6234400D01*
X8915400Y-6234400D02*
X8915400Y-6219400D01*
X8915400Y-6219400D02*
X8915400Y-6139400D01*
X9977840Y-6608110D02*
X9970770Y-6603320D01*
X9970770Y-6603320D02*
X9964590Y-6597120D01*
X9964590Y-6597120D02*
X9953270Y-6589040D01*
D38*
X10700000Y-6780000D02*
X11100000Y-6780000D01*
X12950000Y-5210000D02*
X12600000Y-5210000D01*
X12192000Y-6731000D02*
X12207800Y-6725000D01*
X12207800Y-6725000D02*
X12242800Y-6725000D01*
X12242800Y-6725000D02*
X12299900Y-6725000D01*
D37*
X9931400Y-5943600D02*
X9967200Y-5914150D01*
X9967200Y-5914150D02*
X9967200Y-5899150D01*
X9967200Y-5899150D02*
X9967200Y-5892940D01*
X9967200Y-5892940D02*
X9993890Y-5424800D01*
X8915400Y-6139400D02*
X8915400Y-6059400D01*
X8915400Y-6059400D02*
X8915400Y-6044400D01*
X8915400Y-6044400D02*
X8915400Y-5944400D01*
X8915400Y-5944400D02*
X8915400Y-5929400D01*
X8915400Y-5929400D02*
X8915400Y-5849400D01*
D38*
X9977840Y-6608110D02*
X9975310Y-6610650D01*
X9975310Y-6610650D02*
X9973020Y-6618420D01*
X9973020Y-6618420D02*
X9964390Y-6627050D01*
X9964390Y-6627050D02*
X9550000Y-6780000D01*
D37*
X8915400Y-6139400D02*
X8995400Y-6129400D01*
X8995400Y-6129400D02*
X9010400Y-6129400D01*
X9010400Y-6129400D02*
X9116900Y-6129400D01*
X9116900Y-6129400D02*
X9131900Y-6129400D01*
X9131900Y-6129400D02*
X9184400Y-6124400D01*
D38*
X10500000Y-5210000D02*
X10009670Y-5370330D01*
X10009670Y-5370330D02*
X10000000Y-5380000D01*
D37*
X9931400Y-5943600D02*
X9967200Y-5968400D01*
X9967200Y-5968400D02*
X9982200Y-5968400D01*
X9982200Y-5968400D02*
X10110000Y-5968400D01*
X10110000Y-5968400D02*
X10125000Y-5968400D01*
X10125000Y-5968400D02*
X10160000Y-5993200D01*
X9546400Y-5549400D02*
X9571400Y-5549400D01*
X9571400Y-5549400D02*
X9614940Y-5521140D01*
D38*
X9996610Y-6611250D02*
X10300000Y-6780000D01*
X10820400Y-6658200D02*
X10785400Y-6638200D01*
X10785400Y-6638200D02*
X10750400Y-6638200D01*
X10750400Y-6638200D02*
X10735900Y-6638200D01*
X10735900Y-6638200D02*
X9996610Y-6611250D01*
D37*
X9953270Y-6589040D02*
X9977070Y-6588120D01*
D38*
X12455200Y-5610900D02*
X12470200Y-5620900D01*
X12470200Y-5620900D02*
X12505200Y-5620900D01*
X12505200Y-5620900D02*
X12519700Y-5620900D01*
X12519700Y-5620900D02*
X12877800Y-5689600D01*
X10000000Y-5380000D02*
X9986460Y-5372860D01*
X12420600Y-6734400D02*
X12385600Y-6725000D01*
X12385600Y-6725000D02*
X12350600Y-6725000D01*
X12350600Y-6725000D02*
X12299900Y-6725000D01*
D37*
X9986460Y-5372860D02*
X9978860Y-5381210D01*
X9981330Y-5387170D02*
X9993890Y-5424800D01*
X9699230Y-5851320D02*
X9707880Y-5851320D01*
X9707880Y-5851320D02*
X9735380Y-5863410D01*
X9735380Y-5863410D02*
X9738640Y-5863410D01*
X9738640Y-5863410D02*
X9744950Y-5865950D01*
X11073200Y-5435600D02*
X11073200Y-5400600D01*
X11073200Y-5400600D02*
X11073200Y-5385600D01*
X11073200Y-5385600D02*
X11073200Y-5320500D01*
X11073200Y-5320500D02*
X11073200Y-5305500D01*
X11073200Y-5305500D02*
X11073200Y-5270500D01*
X10832800Y-5797860D02*
X11034410Y-5665700D01*
X11034410Y-5665700D02*
X11043200Y-5656910D01*
X11043200Y-5656910D02*
X11043200Y-5650700D01*
X11043200Y-5650700D02*
X11043200Y-5635700D01*
X11043200Y-5635700D02*
X11073200Y-5600700D01*
D38*
X9785020Y-5999000D02*
X9783040Y-6001970D01*
D37*
X11073200Y-5435600D02*
X11073200Y-5470600D01*
X11073200Y-5470600D02*
X11073200Y-5485600D01*
X11073200Y-5485600D02*
X11073200Y-5550700D01*
X11073200Y-5550700D02*
X11073200Y-5565700D01*
X11073200Y-5565700D02*
X11073200Y-5600700D01*
D38*
X9831640Y-6093630D02*
X9880600Y-6093630D01*
X9880600Y-6093630D02*
X9915600Y-6093630D01*
X9915600Y-6093630D02*
X9931400Y-6096000D01*
D37*
X9546400Y-5834400D02*
X9656400Y-5844400D01*
X9656400Y-5844400D02*
X9671400Y-5844400D01*
X9671400Y-5844400D02*
X9677610Y-5844400D01*
X9677610Y-5844400D02*
X9699230Y-5851320D01*
X9742550Y-5846090D02*
X9717120Y-5846090D01*
X9717120Y-5846090D02*
X9699230Y-5851320D01*
D38*
X9783040Y-6001970D02*
X9816230Y-6078210D01*
X9816230Y-6078210D02*
X9831640Y-6093630D01*
X9783040Y-6001970D02*
X9781520Y-6000450D01*
X9781520Y-6000450D02*
X9751450Y-5872450D01*
X9751450Y-5872450D02*
X9744950Y-5865950D01*
D37*
X9184400Y-5864400D02*
X9236900Y-5859400D01*
X9236900Y-5859400D02*
X9251900Y-5859400D01*
X9251900Y-5859400D02*
X9258110Y-5859400D01*
X9258110Y-5859400D02*
X9402760Y-5844390D01*
X9402760Y-5844390D02*
X9421400Y-5844390D01*
X9421400Y-5844390D02*
X9436400Y-5844390D01*
X9436400Y-5844390D02*
X9546400Y-5834400D01*
X9699230Y-5851320D02*
X9707910Y-5860440D01*
X9707910Y-5860440D02*
X9728200Y-5880730D01*
X9728200Y-5880730D02*
X9731470Y-5880730D01*
D38*
X9931400Y-6096000D02*
X9947200Y-6105450D01*
X9947200Y-6105450D02*
X9982200Y-6105450D01*
X9982200Y-6105450D02*
X9996700Y-6105450D01*
X9996700Y-6105450D02*
X10567900Y-6297480D01*
X10567900Y-6297480D02*
X10582400Y-6297480D01*
X10582400Y-6297480D02*
X10617400Y-6297480D01*
X10617400Y-6297480D02*
X10637400Y-6297480D01*
D37*
X11307070Y-5331260D02*
X11276120Y-5380140D01*
X11276120Y-5380140D02*
X11163210Y-5669340D01*
X11163210Y-5669340D02*
X11092000Y-5756410D01*
X11141600Y-6660920D02*
X11311260Y-6697190D01*
X11311260Y-6697190D02*
X11317470Y-6697190D01*
X11317470Y-6697190D02*
X11332470Y-6697190D01*
X11332470Y-6697190D02*
X11361920Y-6732990D01*
X11361920Y-6732990D02*
X11332470Y-6697190D01*
X11332470Y-6697190D02*
X11332470Y-6682190D01*
X11332470Y-6682190D02*
X11332470Y-6675980D01*
X11332470Y-6675980D02*
X11290710Y-6524520D01*
X11290710Y-6524520D02*
X11290710Y-6483100D01*
X11290710Y-6483100D02*
X11320000Y-6453810D01*
X11320000Y-6453810D02*
X11340710Y-6453810D01*
X11340710Y-6453810D02*
X11378210Y-6453810D01*
X12045100Y-5415830D02*
X12178790Y-5432200D01*
X12178790Y-5432200D02*
X12185000Y-5432200D01*
X12185000Y-5432200D02*
X12200000Y-5432200D01*
X12200000Y-5432200D02*
X12235000Y-5462200D01*
X11698210Y-6203810D02*
X11660710Y-6203810D01*
X11660710Y-6203810D02*
X11655280Y-6141020D01*
X11655280Y-6141020D02*
X11653480Y-6139200D01*
X11653480Y-6139200D02*
X11652000Y-6137730D01*
X11652000Y-6137730D02*
X11652000Y-5342570D01*
X11652000Y-5342570D02*
X11652000Y-5327570D01*
X11652000Y-5327570D02*
X11672800Y-5272570D01*
X11871250Y-6319540D02*
X11802910Y-6346750D01*
X11802910Y-6346750D02*
X11800700Y-6348960D01*
X11800700Y-6348960D02*
X11792390Y-6352400D01*
X11792390Y-6352400D02*
X11777130Y-6353810D01*
X11777130Y-6353810D02*
X11735710Y-6353810D01*
X11735710Y-6353810D02*
X11698210Y-6353810D01*
X10516300Y-5511920D02*
X10566540Y-5471400D01*
X10566540Y-5471400D02*
X10572750Y-5471400D01*
X10572750Y-5471400D02*
X10587750Y-5471400D01*
X10587750Y-5471400D02*
X10617200Y-5435600D01*
X10337800Y-5829300D02*
X10368520Y-5798580D01*
X10368520Y-5798580D02*
X10368520Y-5783580D01*
X10368520Y-5783580D02*
X10368520Y-5777370D01*
X10368520Y-5777370D02*
X10516300Y-5511920D01*
X10160000Y-5843200D02*
X10195000Y-5836250D01*
X10195000Y-5836250D02*
X10210000Y-5836250D01*
X10210000Y-5836250D02*
X10292080Y-5836250D01*
X10292080Y-5836250D02*
X10307080Y-5836250D01*
X10307080Y-5836250D02*
X10337800Y-5829300D01*
X10507800Y-5358070D02*
X10566540Y-5306300D01*
X10566540Y-5306300D02*
X10572750Y-5306300D01*
X10572750Y-5306300D02*
X10587750Y-5306300D01*
X10587750Y-5306300D02*
X10617200Y-5270500D01*
X11845770Y-6105330D02*
X11833320Y-6244240D01*
X11833320Y-6244240D02*
X11776140Y-6301420D01*
X11776140Y-6301420D02*
X11756420Y-6303810D01*
X11756420Y-6303810D02*
X11735710Y-6303810D01*
X11735710Y-6303810D02*
X11698210Y-6303810D01*
X12235000Y-5612200D02*
X12270000Y-5582200D01*
X12270000Y-5582200D02*
X12285000Y-5582200D01*
X12285000Y-5582200D02*
X12291210Y-5582200D01*
X12291210Y-5582200D02*
X12398990Y-5490900D01*
X12398990Y-5490900D02*
X12405200Y-5490900D01*
X12405200Y-5490900D02*
X12420200Y-5490900D01*
X12420200Y-5490900D02*
X12455200Y-5460900D01*
X12455200Y-5460900D02*
X12490200Y-5456480D01*
X12490200Y-5456480D02*
X12505200Y-5456480D01*
X12505200Y-5456480D02*
X12802800Y-5456480D01*
X12802800Y-5456480D02*
X12817800Y-5456480D01*
X12817800Y-5456480D02*
X12877800Y-5435600D01*
X11732270Y-6104480D02*
X11755790Y-6142600D01*
X11755790Y-6142600D02*
X11783270Y-6184110D01*
X11783270Y-6184110D02*
X11783270Y-6223510D01*
X11783270Y-6223510D02*
X11755410Y-6251370D01*
X11755410Y-6251370D02*
X11735710Y-6253810D01*
X11735710Y-6253810D02*
X11698210Y-6253810D01*
X12244200Y-5722390D02*
X12244200Y-5657200D01*
X12244200Y-5657200D02*
X12244200Y-5642200D01*
X12244200Y-5642200D02*
X12235000Y-5612200D01*
X12560100Y-5366470D02*
X12510610Y-5336330D01*
X12510610Y-5336330D02*
X12504400Y-5336330D01*
X12504400Y-5336330D02*
X12489400Y-5336330D01*
X12489400Y-5336330D02*
X12449400Y-5281330D01*
X11763180Y-6655920D02*
X11439570Y-6598820D01*
X11439570Y-6598820D02*
X11413200Y-6572450D01*
X11413200Y-6572450D02*
X11413200Y-6503810D01*
X11413200Y-6503810D02*
X11378210Y-6503810D01*
X11295940Y-6193450D02*
X11265370Y-6162310D01*
X11295940Y-6193450D02*
X11252390Y-6196270D01*
D38*
X10637400Y-6142480D02*
X10657400Y-6146340D01*
X10657400Y-6146340D02*
X10692400Y-6146340D01*
X10692400Y-6146340D02*
X10750400Y-6146340D01*
X10750400Y-6146340D02*
X10785400Y-6146340D01*
X10785400Y-6146340D02*
X10820400Y-6150200D01*
D37*
X11251100Y-6176310D02*
X11323030Y-6203810D01*
X11323030Y-6203810D02*
X11328210Y-6203810D01*
X11328210Y-6203810D02*
X11343210Y-6203810D01*
X11343210Y-6203810D02*
X11378210Y-6203810D01*
D38*
X10820400Y-6150200D02*
X10855400Y-6170200D01*
X10855400Y-6170200D02*
X10890400Y-6170200D01*
X10890400Y-6170200D02*
X10904900Y-6170200D01*
X10904900Y-6170200D02*
X11251100Y-6176310D01*
D37*
X11272520Y-6394010D02*
X11230160Y-6404480D01*
X11272520Y-6394010D02*
X11252800Y-6432940D01*
X11234960Y-6423900D02*
X11320750Y-6355630D01*
X11320750Y-6355630D02*
X11331940Y-6355630D01*
X11331940Y-6355630D02*
X11340710Y-6353810D01*
X11340710Y-6353810D02*
X11378210Y-6353810D01*
D38*
X10637400Y-6452480D02*
X10657400Y-6450340D01*
X10657400Y-6450340D02*
X10692400Y-6450340D01*
X10692400Y-6450340D02*
X10750400Y-6450340D01*
X10750400Y-6450340D02*
X10785400Y-6450340D01*
X10785400Y-6450340D02*
X10820400Y-6448200D01*
X10820400Y-6448200D02*
X10855400Y-6428200D01*
X10855400Y-6428200D02*
X10890400Y-6428200D01*
X10890400Y-6428200D02*
X10904900Y-6428200D01*
X10904900Y-6428200D02*
X11234960Y-6423900D01*
D37*
X11756420Y-6453810D02*
X11824480Y-6483390D01*
X11756420Y-6453810D02*
X11814100Y-6407130D01*
D39*
X12047130Y-6007050D02*
X11960980Y-5968780D01*
X11960980Y-5968780D02*
X11936130Y-5968780D01*
X11936130Y-5968780D02*
X11876130Y-5968780D01*
X11876130Y-5968780D02*
X11836130Y-5713780D01*
D37*
X11698210Y-6453810D02*
X11735710Y-6453810D01*
X11735710Y-6453810D02*
X11756420Y-6453810D01*
X11756420Y-6453810D02*
X11842410Y-6442110D01*
D40*
X12189100Y-6012200D02*
X12154100Y-6007050D01*
X12154100Y-6007050D02*
X12104100Y-6007050D01*
X12104100Y-6007050D02*
X12047130Y-6007050D01*
X12420600Y-6012200D02*
X12385600Y-6012200D01*
X12385600Y-6012200D02*
X12335600Y-6012200D01*
X12335600Y-6012200D02*
X12274100Y-6012200D01*
X12274100Y-6012200D02*
X12224100Y-6012200D01*
X12224100Y-6012200D02*
X12189100Y-6012200D01*
D39*
X11836130Y-5713780D02*
X11876130Y-5968780D01*
X11876130Y-5968780D02*
X11936130Y-5968780D01*
X11936130Y-5968780D02*
X11974260Y-6009810D01*
X11974260Y-6009810D02*
X11976500Y-6012060D01*
X11976500Y-6012060D02*
X11976500Y-6036310D01*
X11976500Y-6036310D02*
X11980780Y-6051350D01*
X11980780Y-6051350D02*
X11993820Y-6268770D01*
X11993820Y-6268770D02*
X11993820Y-6370310D01*
X11993820Y-6370310D02*
X11922020Y-6442110D01*
X11922020Y-6442110D02*
X11842410Y-6442110D01*
D37*
X11289990Y-6305480D02*
X11249460Y-6289300D01*
X11289990Y-6305480D02*
X11251280Y-6325620D01*
X11242050Y-6307880D02*
X11295190Y-6305220D01*
X11295190Y-6305220D02*
X11378210Y-6303810D01*
D38*
X11371000Y-5838150D02*
X11418200Y-5838150D01*
X11418200Y-5838150D02*
X11421130Y-5713780D01*
X11171000Y-6306440D02*
X11094800Y-6302550D01*
X11242050Y-6307880D02*
X11171000Y-6306440D01*
D40*
X11264200Y-5762090D02*
X11341700Y-5767440D01*
X11266300Y-5840070D02*
X11371000Y-5838150D01*
D37*
X11770610Y-6528410D02*
X11792570Y-6566120D01*
X11770610Y-6528410D02*
X11813510Y-6536400D01*
D38*
X12192000Y-6578600D02*
X12207800Y-6569150D01*
X12207800Y-6569150D02*
X12242800Y-6569150D01*
X12242800Y-6569150D02*
X12278700Y-6564050D01*
X12189100Y-6332200D02*
X12190550Y-6354350D01*
X12190550Y-6354350D02*
X12190550Y-6389350D01*
X12190550Y-6389350D02*
X12190550Y-6534150D01*
X12190550Y-6534150D02*
X12190550Y-6569150D01*
X12190550Y-6569150D02*
X12192000Y-6578600D01*
D40*
X12420600Y-6332200D02*
X12385600Y-6332200D01*
X12385600Y-6332200D02*
X12335600Y-6332200D01*
X12335600Y-6332200D02*
X12274100Y-6332200D01*
X12274100Y-6332200D02*
X12224100Y-6332200D01*
X12224100Y-6332200D02*
X12189100Y-6332200D01*
X12420600Y-6524400D02*
X12440600Y-6519410D01*
X12440600Y-6519410D02*
X12490600Y-6519410D01*
X12490600Y-6519410D02*
X12511310Y-6519410D01*
X12511310Y-6519410D02*
X12782090Y-6476600D01*
X12782090Y-6476600D02*
X12802800Y-6476600D01*
X12802800Y-6476600D02*
X12852800Y-6476600D01*
X12852800Y-6476600D02*
X12877800Y-6451600D01*
D37*
X11809850Y-6556060D02*
X11735710Y-6503810D01*
X11735710Y-6503810D02*
X11698210Y-6503810D01*
D40*
X12877800Y-6451600D02*
X12877800Y-6426600D01*
X12877800Y-6426600D02*
X12877800Y-6376600D01*
X12877800Y-6376600D02*
X12877800Y-6272600D01*
X12877800Y-6272600D02*
X12877800Y-6222600D01*
X12877800Y-6222600D02*
X12877800Y-6197600D01*
D38*
X12192000Y-6578600D02*
X12176200Y-6569150D01*
X12176200Y-6569150D02*
X12141200Y-6569150D01*
X12141200Y-6569150D02*
X12126700Y-6569150D01*
X12126700Y-6569150D02*
X11809850Y-6556060D01*
D40*
X12278700Y-6564050D02*
X12329890Y-6529390D01*
X12329890Y-6529390D02*
X12350600Y-6529390D01*
X12350600Y-6529390D02*
X12400600Y-6529390D01*
X12400600Y-6529390D02*
X12420600Y-6524400D01*
D37*
X10541000Y-5918200D02*
X10571720Y-5887480D01*
X10571720Y-5887480D02*
X10571720Y-5872480D01*
X10571720Y-5872480D02*
X10571720Y-5866270D01*
X10571720Y-5866270D02*
X10587750Y-5657710D01*
X10587750Y-5657710D02*
X10587750Y-5651500D01*
X10587750Y-5651500D02*
X10587750Y-5636500D01*
X10587750Y-5636500D02*
X10617200Y-5600700D01*
X10923200Y-5435600D02*
X10893200Y-5435600D01*
X10893200Y-5435600D02*
X10878200Y-5435600D01*
X10878200Y-5435600D02*
X10814050Y-5435600D01*
X10814050Y-5435600D02*
X10799050Y-5435600D01*
X10799050Y-5435600D02*
X10769600Y-5435600D01*
X10769600Y-5600700D02*
X10799050Y-5600700D01*
X10799050Y-5600700D02*
X10814050Y-5600700D01*
X10814050Y-5600700D02*
X10878200Y-5600700D01*
X10878200Y-5600700D02*
X10893200Y-5600700D01*
X10893200Y-5600700D02*
X10923200Y-5600700D01*
X10923200Y-5270500D02*
X10893200Y-5270500D01*
X10893200Y-5270500D02*
X10878200Y-5270500D01*
X10878200Y-5270500D02*
X10814050Y-5270500D01*
X10814050Y-5270500D02*
X10799050Y-5270500D01*
X10799050Y-5270500D02*
X10769600Y-5270500D01*
D41*
G36*
X11029719Y-6247414D02*
X11022783Y-6254338D01*
X11009815Y-6285568D01*
X11009785Y-6319383D01*
X11022699Y-6350636D01*
X11023707Y-6351646D01*
X10904414Y-6353200D01*
X10898357Y-6353200D01*
X10890400Y-6353200D01*
X10882444Y-6353200D01*
X10855400Y-6353200D01*
X10742444Y-6353200D01*
X10732400Y-6357360D01*
X10732400Y-6340436D01*
X10732400Y-6332480D01*
X10732400Y-6324523D01*
X10732400Y-6262480D01*
X10732400Y-6254523D01*
X10729355Y-6247173D01*
X10728975Y-6245259D01*
X10727891Y-6243637D01*
X10726310Y-6239822D01*
X10725856Y-6239368D01*
X10726715Y-6238083D01*
X10727742Y-6239110D01*
X10742444Y-6245200D01*
X10758357Y-6245200D01*
X10855400Y-6245200D01*
X10890400Y-6245200D01*
X10898357Y-6245200D01*
X10904239Y-6245200D01*
X11029719Y-6247414D01*
X11029719Y-6247414D01*
G37*
X11029719Y-6247414D02*
X11022783Y-6254338D01*
X11009815Y-6285568D01*
X11009785Y-6319383D01*
X11022699Y-6350636D01*
X11023707Y-6351646D01*
X10904414Y-6353200D01*
X10898357Y-6353200D01*
X10890400Y-6353200D01*
X10882444Y-6353200D01*
X10855400Y-6353200D01*
X10742444Y-6353200D01*
X10732400Y-6357360D01*
X10732400Y-6340436D01*
X10732400Y-6332480D01*
X10732400Y-6324523D01*
X10732400Y-6262480D01*
X10732400Y-6254523D01*
X10729355Y-6247173D01*
X10728975Y-6245259D01*
X10727891Y-6243637D01*
X10726310Y-6239822D01*
X10725856Y-6239368D01*
X10726715Y-6238083D01*
X10727742Y-6239110D01*
X10742444Y-6245200D01*
X10758357Y-6245200D01*
X10855400Y-6245200D01*
X10890400Y-6245200D01*
X10898357Y-6245200D01*
X10904239Y-6245200D01*
X11029719Y-6247414D01*
G36*
X11734549Y-6575780D02*
X11715094Y-6583818D01*
X11708482Y-6590419D01*
X11561130Y-6564419D01*
X11561130Y-6036736D01*
X11561130Y-6020823D01*
X11561130Y-5390824D01*
X11555040Y-5376122D01*
X11543788Y-5364870D01*
X11529086Y-5358780D01*
X11513173Y-5358780D01*
X11387679Y-5358780D01*
X11392055Y-5348242D01*
X11392085Y-5314427D01*
X11379171Y-5283174D01*
X11355281Y-5259243D01*
X11324052Y-5246275D01*
X11290237Y-5246245D01*
X11258984Y-5259159D01*
X11235053Y-5283049D01*
X11222085Y-5314278D01*
X11222055Y-5348093D01*
X11226189Y-5358098D01*
X11224886Y-5360137D01*
X11155828Y-5537018D01*
X11152110Y-5528042D01*
X11142219Y-5518150D01*
X11152110Y-5508258D01*
X11158200Y-5493557D01*
X11158200Y-5477644D01*
X11158200Y-5377644D01*
X11152110Y-5362942D01*
X11142219Y-5353050D01*
X11152110Y-5343158D01*
X11158200Y-5328457D01*
X11158200Y-5312544D01*
X11158200Y-5212544D01*
X11152110Y-5197842D01*
X11140858Y-5186590D01*
X11126157Y-5180500D01*
X11110244Y-5180500D01*
X11020244Y-5180500D01*
X11005542Y-5186590D01*
X10998200Y-5193931D01*
X10990858Y-5186590D01*
X10976157Y-5180500D01*
X10960244Y-5180500D01*
X10870244Y-5180500D01*
X10855542Y-5186590D01*
X10846525Y-5195606D01*
X10836708Y-5185790D01*
X10822007Y-5179700D01*
X10806094Y-5179700D01*
X10717194Y-5179700D01*
X10702492Y-5185790D01*
X10693400Y-5194881D01*
X10684308Y-5185790D01*
X10669607Y-5179700D01*
X10653694Y-5179700D01*
X10564794Y-5179700D01*
X10550092Y-5185790D01*
X10538840Y-5197042D01*
X10532750Y-5211744D01*
X10532750Y-5227657D01*
X10532750Y-5263543D01*
X10530174Y-5265038D01*
X10521048Y-5273082D01*
X10490967Y-5273055D01*
X10459714Y-5285969D01*
X10435783Y-5309859D01*
X10422815Y-5341088D01*
X10422785Y-5374903D01*
X10435699Y-5406156D01*
X10459589Y-5430087D01*
X10475637Y-5436751D01*
X10468214Y-5439819D01*
X10444283Y-5463709D01*
X10431315Y-5494938D01*
X10431285Y-5528753D01*
X10436693Y-5541842D01*
X10324383Y-5743580D01*
X10284124Y-5743580D01*
X10269422Y-5749670D01*
X10258170Y-5760922D01*
X10252080Y-5775623D01*
X10252080Y-5781250D01*
X10246275Y-5781250D01*
X10243910Y-5775542D01*
X10232658Y-5764290D01*
X10217957Y-5758200D01*
X10202044Y-5758200D01*
X10102044Y-5758200D01*
X10087342Y-5764290D01*
X10076090Y-5775542D01*
X10070000Y-5790243D01*
X10070000Y-5806156D01*
X10070000Y-5896156D01*
X10076090Y-5910858D01*
X10087342Y-5922110D01*
X10102044Y-5928200D01*
X10117957Y-5928200D01*
X10217957Y-5928200D01*
X10232658Y-5922110D01*
X10243910Y-5910858D01*
X10250000Y-5896156D01*
X10250000Y-5891250D01*
X10255507Y-5891250D01*
X10258170Y-5897678D01*
X10269422Y-5908930D01*
X10284124Y-5915020D01*
X10300037Y-5915020D01*
X10391477Y-5915020D01*
X10406178Y-5908930D01*
X10417430Y-5897678D01*
X10423520Y-5882976D01*
X10423520Y-5867063D01*
X10423520Y-5798580D01*
X10423520Y-5791648D01*
X10531920Y-5596934D01*
X10532750Y-5596934D01*
X10532750Y-5636500D01*
X10532750Y-5651500D01*
X10532750Y-5655599D01*
X10519155Y-5832480D01*
X10487324Y-5832480D01*
X10472622Y-5838570D01*
X10461370Y-5849822D01*
X10455280Y-5864523D01*
X10455280Y-5880436D01*
X10455280Y-5971876D01*
X10461370Y-5986578D01*
X10472622Y-5997830D01*
X10487324Y-6003920D01*
X10503237Y-6003920D01*
X10594677Y-6003920D01*
X10609378Y-5997830D01*
X10620630Y-5986578D01*
X10626720Y-5971876D01*
X10626720Y-5955963D01*
X10626720Y-5887480D01*
X10626720Y-5872480D01*
X10626720Y-5868381D01*
X10640315Y-5691500D01*
X10669607Y-5691500D01*
X10684308Y-5685410D01*
X10693400Y-5676319D01*
X10702492Y-5685410D01*
X10717194Y-5691500D01*
X10733107Y-5691500D01*
X10822007Y-5691500D01*
X10836708Y-5685410D01*
X10846525Y-5675594D01*
X10855542Y-5684610D01*
X10870244Y-5690700D01*
X10886157Y-5690700D01*
X10895950Y-5690700D01*
X10857337Y-5716012D01*
X10849782Y-5712875D01*
X10815967Y-5712845D01*
X10784714Y-5725758D01*
X10760783Y-5749648D01*
X10747815Y-5780878D01*
X10747785Y-5814693D01*
X10760699Y-5845946D01*
X10784589Y-5869877D01*
X10815818Y-5882845D01*
X10849633Y-5882875D01*
X10880886Y-5869961D01*
X10904817Y-5846071D01*
X10917785Y-5814842D01*
X10917791Y-5807910D01*
X11007006Y-5749428D01*
X11006985Y-5773243D01*
X11019899Y-5804496D01*
X11043789Y-5828427D01*
X11075018Y-5841395D01*
X11108833Y-5841425D01*
X11140086Y-5828511D01*
X11164017Y-5804621D01*
X11176733Y-5773998D01*
X11178876Y-5790723D01*
X11185575Y-5802420D01*
X11182533Y-5807159D01*
X11176315Y-5841720D01*
X11183796Y-5876030D01*
X11203838Y-5904866D01*
X11233389Y-5923837D01*
X11267950Y-5930055D01*
X11281130Y-5929813D01*
X11281130Y-6036736D01*
X11287220Y-6051438D01*
X11298472Y-6062690D01*
X11313173Y-6068780D01*
X11329086Y-6068780D01*
X11529086Y-6068780D01*
X11543788Y-6062690D01*
X11555040Y-6051438D01*
X11561130Y-6036736D01*
X11561130Y-6564419D01*
X11468200Y-6548022D01*
X11468200Y-6512724D01*
X11469973Y-6503810D01*
X11465977Y-6483719D01*
X11462697Y-6478810D01*
X11465977Y-6473901D01*
X11469973Y-6453810D01*
X11465977Y-6433719D01*
X11454596Y-6416687D01*
X11437564Y-6405306D01*
X11430042Y-6403810D01*
X11437564Y-6402314D01*
X11454596Y-6390933D01*
X11465977Y-6373901D01*
X11469973Y-6353810D01*
X11465977Y-6333719D01*
X11462697Y-6328810D01*
X11465977Y-6323901D01*
X11469973Y-6303810D01*
X11465977Y-6283719D01*
X11454596Y-6266687D01*
X11437956Y-6255568D01*
X11450868Y-6250220D01*
X11462120Y-6238968D01*
X11468210Y-6224266D01*
X11468210Y-6208353D01*
X11468210Y-6183353D01*
X11462120Y-6168652D01*
X11450868Y-6157400D01*
X11436166Y-6151310D01*
X11420253Y-6151310D01*
X11390778Y-6151310D01*
X11378210Y-6148810D01*
X11343210Y-6148810D01*
X11333185Y-6148810D01*
X11326790Y-6146365D01*
X11305078Y-6124248D01*
X11305061Y-6124221D01*
X11305032Y-6124201D01*
X11304618Y-6123780D01*
X11293786Y-6116396D01*
X11281019Y-6107536D01*
X11252423Y-6101322D01*
X10930400Y-6095638D01*
X10930400Y-6087243D01*
X10924310Y-6072542D01*
X10913058Y-6061290D01*
X10898357Y-6055200D01*
X10882444Y-6055200D01*
X10742444Y-6055200D01*
X10727742Y-6061290D01*
X10722760Y-6066271D01*
X10715058Y-6058570D01*
X10700357Y-6052480D01*
X10684444Y-6052480D01*
X10574444Y-6052480D01*
X10559742Y-6058570D01*
X10548490Y-6069822D01*
X10542400Y-6084523D01*
X10542400Y-6100436D01*
X10542400Y-6187480D01*
X10542400Y-6200436D01*
X10542400Y-6209782D01*
X10020600Y-6034360D01*
X10018250Y-6034057D01*
X10016110Y-6028892D01*
X10004858Y-6017640D01*
X9990157Y-6011550D01*
X9974244Y-6011550D01*
X9872644Y-6011550D01*
X9870008Y-6012642D01*
X9870035Y-5982167D01*
X9857122Y-5950914D01*
X9843787Y-5937556D01*
X9824462Y-5855298D01*
X9821933Y-5849739D01*
X9820741Y-5843749D01*
X9815929Y-5836547D01*
X9812341Y-5828663D01*
X9807876Y-5824495D01*
X9804483Y-5819417D01*
X9797983Y-5812917D01*
X9773651Y-5796659D01*
X9744950Y-5790950D01*
X9743398Y-5791259D01*
X9742550Y-5791090D01*
X9717120Y-5791090D01*
X9709463Y-5792613D01*
X9707803Y-5792759D01*
X9705310Y-5786742D01*
X9694058Y-5775490D01*
X9679357Y-5769400D01*
X9663444Y-5769400D01*
X9413444Y-5769400D01*
X9398742Y-5775490D01*
X9387490Y-5786742D01*
X9385785Y-5790856D01*
X9381385Y-5791313D01*
X9381415Y-5757567D01*
X9368502Y-5726314D01*
X9344612Y-5702383D01*
X9313382Y-5689415D01*
X9279567Y-5689385D01*
X9248314Y-5702298D01*
X9224383Y-5726188D01*
X9211415Y-5757418D01*
X9211385Y-5791233D01*
X9216826Y-5804400D01*
X9190396Y-5804400D01*
X9190410Y-5787518D01*
X9181295Y-5765457D01*
X9164432Y-5748564D01*
X9142387Y-5739410D01*
X9118518Y-5739390D01*
X9096457Y-5748505D01*
X9079564Y-5765368D01*
X9070410Y-5787413D01*
X9070390Y-5811282D01*
X9078845Y-5831747D01*
X9076900Y-5836443D01*
X9076900Y-5852356D01*
X9076900Y-5892356D01*
X9078782Y-5896900D01*
X9076900Y-5901443D01*
X9076900Y-5917356D01*
X9076900Y-5957356D01*
X9078782Y-5961900D01*
X9076900Y-5966443D01*
X9076900Y-5982356D01*
X9076900Y-6022356D01*
X9078782Y-6026900D01*
X9076900Y-6031443D01*
X9076900Y-6047356D01*
X9076900Y-6087356D01*
X9082990Y-6102058D01*
X9094242Y-6113310D01*
X9108944Y-6119400D01*
X9124857Y-6119400D01*
X9259857Y-6119400D01*
X9274558Y-6113310D01*
X9285810Y-6102058D01*
X9291900Y-6087356D01*
X9291900Y-6071443D01*
X9291900Y-6031443D01*
X9290018Y-6026900D01*
X9291900Y-6022356D01*
X9291900Y-6006443D01*
X9291900Y-5966443D01*
X9290018Y-5961900D01*
X9291900Y-5957356D01*
X9291900Y-5941443D01*
X9291900Y-5911189D01*
X9381400Y-5901902D01*
X9381400Y-5947356D01*
X9384317Y-5954400D01*
X9381400Y-5961443D01*
X9381400Y-5977356D01*
X9381400Y-6027356D01*
X9384317Y-6034400D01*
X9381400Y-6041443D01*
X9381400Y-6057356D01*
X9381400Y-6107356D01*
X9387490Y-6122058D01*
X9398742Y-6133310D01*
X9413444Y-6139400D01*
X9429357Y-6139400D01*
X9679357Y-6139400D01*
X9694058Y-6133310D01*
X9705310Y-6122058D01*
X9711400Y-6107356D01*
X9711400Y-6091443D01*
X9711400Y-6043411D01*
X9712919Y-6047086D01*
X9727040Y-6061232D01*
X9746629Y-6106229D01*
X9746625Y-6110463D01*
X9759539Y-6141716D01*
X9783429Y-6165647D01*
X9814658Y-6178615D01*
X9848473Y-6178645D01*
X9858391Y-6174547D01*
X9872644Y-6180450D01*
X9888557Y-6180450D01*
X9947200Y-6180450D01*
X9982200Y-6180450D01*
X9984430Y-6180450D01*
X10543584Y-6368430D01*
X10545825Y-6379701D01*
X10548944Y-6384368D01*
X10548490Y-6384822D01*
X10546909Y-6388637D01*
X10546909Y-6388637D01*
X10545825Y-6390259D01*
X10545445Y-6392172D01*
X10545445Y-6392173D01*
X10542400Y-6399523D01*
X10542400Y-6407480D01*
X10542400Y-6415436D01*
X10542400Y-6505436D01*
X10548490Y-6520138D01*
X10559742Y-6531390D01*
X10574444Y-6537480D01*
X10590357Y-6537480D01*
X10700357Y-6537480D01*
X10715058Y-6531390D01*
X10718540Y-6527909D01*
X10727742Y-6537110D01*
X10742444Y-6543200D01*
X10758357Y-6543200D01*
X10898357Y-6543200D01*
X10913058Y-6537110D01*
X10924310Y-6525858D01*
X10930400Y-6511156D01*
X10930400Y-6502874D01*
X11235710Y-6498896D01*
X11235710Y-6524520D01*
X11237152Y-6531768D01*
X11237688Y-6539139D01*
X11262909Y-6630611D01*
X11216990Y-6620794D01*
X11213701Y-6612834D01*
X11189812Y-6588903D01*
X11158582Y-6575935D01*
X11124767Y-6575905D01*
X11093514Y-6588818D01*
X11069583Y-6612708D01*
X11056615Y-6643938D01*
X11056585Y-6677753D01*
X11069499Y-6709006D01*
X11093389Y-6732937D01*
X11124618Y-6745905D01*
X11158433Y-6745935D01*
X11189686Y-6733021D01*
X11194289Y-6728426D01*
X11277470Y-6746209D01*
X11277470Y-6791746D01*
X11283560Y-6806448D01*
X11287611Y-6810500D01*
X9381415Y-6810500D01*
X9381415Y-6197567D01*
X9368502Y-6166314D01*
X9344612Y-6142383D01*
X9313382Y-6129415D01*
X9279567Y-6129385D01*
X9248314Y-6142298D01*
X9224383Y-6166188D01*
X9211415Y-6197418D01*
X9211385Y-6231233D01*
X9224299Y-6262486D01*
X9248189Y-6286417D01*
X9279418Y-6299385D01*
X9313233Y-6299415D01*
X9344486Y-6286501D01*
X9368417Y-6262611D01*
X9381385Y-6231382D01*
X9381415Y-6197567D01*
X9381415Y-6810500D01*
X9190410Y-6810500D01*
X9190410Y-6177518D01*
X9181295Y-6155457D01*
X9164432Y-6138564D01*
X9142387Y-6129410D01*
X9118518Y-6129390D01*
X9096457Y-6138505D01*
X9079564Y-6155368D01*
X9070410Y-6177413D01*
X9070390Y-6201282D01*
X9079505Y-6223343D01*
X9096368Y-6240236D01*
X9118413Y-6249390D01*
X9142282Y-6249410D01*
X9164343Y-6240295D01*
X9181236Y-6223432D01*
X9190390Y-6201387D01*
X9190410Y-6177518D01*
X9190410Y-6810500D01*
X8810500Y-6810500D01*
X8810500Y-5178300D01*
X8893533Y-5178300D01*
X8875743Y-5185651D01*
X8843365Y-5217973D01*
X8825820Y-5260225D01*
X8825780Y-5305975D01*
X8843251Y-5348257D01*
X8875573Y-5380635D01*
X8917825Y-5398180D01*
X8963575Y-5398220D01*
X9005857Y-5380749D01*
X9038235Y-5348427D01*
X9055780Y-5306175D01*
X9055820Y-5260425D01*
X9038349Y-5218143D01*
X9006027Y-5185765D01*
X8988051Y-5178300D01*
X11585501Y-5178300D01*
X11583890Y-5179912D01*
X11577800Y-5194614D01*
X11577800Y-5210527D01*
X11577800Y-5350527D01*
X11583890Y-5365228D01*
X11595142Y-5376480D01*
X11597000Y-5377250D01*
X11597000Y-6137730D01*
X11597018Y-6137823D01*
X11597000Y-6137916D01*
X11599112Y-6148349D01*
X11601187Y-6158778D01*
X11601239Y-6158856D01*
X11601258Y-6158950D01*
X11601679Y-6159575D01*
X11605914Y-6208549D01*
X11608257Y-6216617D01*
X11609897Y-6224858D01*
X11611230Y-6226853D01*
X11611899Y-6229157D01*
X11612767Y-6230241D01*
X11610443Y-6233719D01*
X11606447Y-6253810D01*
X11610443Y-6273901D01*
X11613723Y-6278810D01*
X11610443Y-6283719D01*
X11606447Y-6303810D01*
X11610443Y-6323901D01*
X11613723Y-6328810D01*
X11610443Y-6333719D01*
X11606447Y-6353810D01*
X11610443Y-6373901D01*
X11621824Y-6390933D01*
X11638856Y-6402314D01*
X11646378Y-6403810D01*
X11638856Y-6405306D01*
X11621824Y-6416687D01*
X11610443Y-6433719D01*
X11606447Y-6453810D01*
X11610443Y-6473901D01*
X11613723Y-6478810D01*
X11610443Y-6483719D01*
X11606447Y-6503810D01*
X11610443Y-6523901D01*
X11621824Y-6540933D01*
X11638856Y-6552314D01*
X11658947Y-6556310D01*
X11685641Y-6556310D01*
X11698210Y-6558810D01*
X11718276Y-6558810D01*
X11729115Y-6566448D01*
X11734549Y-6575780D01*
X11734549Y-6575780D01*
G37*
X11734549Y-6575780D02*
X11715094Y-6583818D01*
X11708482Y-6590419D01*
X11561130Y-6564419D01*
X11561130Y-6036736D01*
X11561130Y-6020823D01*
X11561130Y-5390824D01*
X11555040Y-5376122D01*
X11543788Y-5364870D01*
X11529086Y-5358780D01*
X11513173Y-5358780D01*
X11387679Y-5358780D01*
X11392055Y-5348242D01*
X11392085Y-5314427D01*
X11379171Y-5283174D01*
X11355281Y-5259243D01*
X11324052Y-5246275D01*
X11290237Y-5246245D01*
X11258984Y-5259159D01*
X11235053Y-5283049D01*
X11222085Y-5314278D01*
X11222055Y-5348093D01*
X11226189Y-5358098D01*
X11224886Y-5360137D01*
X11155828Y-5537018D01*
X11152110Y-5528042D01*
X11142219Y-5518150D01*
X11152110Y-5508258D01*
X11158200Y-5493557D01*
X11158200Y-5477644D01*
X11158200Y-5377644D01*
X11152110Y-5362942D01*
X11142219Y-5353050D01*
X11152110Y-5343158D01*
X11158200Y-5328457D01*
X11158200Y-5312544D01*
X11158200Y-5212544D01*
X11152110Y-5197842D01*
X11140858Y-5186590D01*
X11126157Y-5180500D01*
X11110244Y-5180500D01*
X11020244Y-5180500D01*
X11005542Y-5186590D01*
X10998200Y-5193931D01*
X10990858Y-5186590D01*
X10976157Y-5180500D01*
X10960244Y-5180500D01*
X10870244Y-5180500D01*
X10855542Y-5186590D01*
X10846525Y-5195606D01*
X10836708Y-5185790D01*
X10822007Y-5179700D01*
X10806094Y-5179700D01*
X10717194Y-5179700D01*
X10702492Y-5185790D01*
X10693400Y-5194881D01*
X10684308Y-5185790D01*
X10669607Y-5179700D01*
X10653694Y-5179700D01*
X10564794Y-5179700D01*
X10550092Y-5185790D01*
X10538840Y-5197042D01*
X10532750Y-5211744D01*
X10532750Y-5227657D01*
X10532750Y-5263543D01*
X10530174Y-5265038D01*
X10521048Y-5273082D01*
X10490967Y-5273055D01*
X10459714Y-5285969D01*
X10435783Y-5309859D01*
X10422815Y-5341088D01*
X10422785Y-5374903D01*
X10435699Y-5406156D01*
X10459589Y-5430087D01*
X10475637Y-5436751D01*
X10468214Y-5439819D01*
X10444283Y-5463709D01*
X10431315Y-5494938D01*
X10431285Y-5528753D01*
X10436693Y-5541842D01*
X10324383Y-5743580D01*
X10284124Y-5743580D01*
X10269422Y-5749670D01*
X10258170Y-5760922D01*
X10252080Y-5775623D01*
X10252080Y-5781250D01*
X10246275Y-5781250D01*
X10243910Y-5775542D01*
X10232658Y-5764290D01*
X10217957Y-5758200D01*
X10202044Y-5758200D01*
X10102044Y-5758200D01*
X10087342Y-5764290D01*
X10076090Y-5775542D01*
X10070000Y-5790243D01*
X10070000Y-5806156D01*
X10070000Y-5896156D01*
X10076090Y-5910858D01*
X10087342Y-5922110D01*
X10102044Y-5928200D01*
X10117957Y-5928200D01*
X10217957Y-5928200D01*
X10232658Y-5922110D01*
X10243910Y-5910858D01*
X10250000Y-5896156D01*
X10250000Y-5891250D01*
X10255507Y-5891250D01*
X10258170Y-5897678D01*
X10269422Y-5908930D01*
X10284124Y-5915020D01*
X10300037Y-5915020D01*
X10391477Y-5915020D01*
X10406178Y-5908930D01*
X10417430Y-5897678D01*
X10423520Y-5882976D01*
X10423520Y-5867063D01*
X10423520Y-5798580D01*
X10423520Y-5791648D01*
X10531920Y-5596934D01*
X10532750Y-5596934D01*
X10532750Y-5636500D01*
X10532750Y-5651500D01*
X10532750Y-5655599D01*
X10519155Y-5832480D01*
X10487324Y-5832480D01*
X10472622Y-5838570D01*
X10461370Y-5849822D01*
X10455280Y-5864523D01*
X10455280Y-5880436D01*
X10455280Y-5971876D01*
X10461370Y-5986578D01*
X10472622Y-5997830D01*
X10487324Y-6003920D01*
X10503237Y-6003920D01*
X10594677Y-6003920D01*
X10609378Y-5997830D01*
X10620630Y-5986578D01*
X10626720Y-5971876D01*
X10626720Y-5955963D01*
X10626720Y-5887480D01*
X10626720Y-5872480D01*
X10626720Y-5868381D01*
X10640315Y-5691500D01*
X10669607Y-5691500D01*
X10684308Y-5685410D01*
X10693400Y-5676319D01*
X10702492Y-5685410D01*
X10717194Y-5691500D01*
X10733107Y-5691500D01*
X10822007Y-5691500D01*
X10836708Y-5685410D01*
X10846525Y-5675594D01*
X10855542Y-5684610D01*
X10870244Y-5690700D01*
X10886157Y-5690700D01*
X10895950Y-5690700D01*
X10857337Y-5716012D01*
X10849782Y-5712875D01*
X10815967Y-5712845D01*
X10784714Y-5725758D01*
X10760783Y-5749648D01*
X10747815Y-5780878D01*
X10747785Y-5814693D01*
X10760699Y-5845946D01*
X10784589Y-5869877D01*
X10815818Y-5882845D01*
X10849633Y-5882875D01*
X10880886Y-5869961D01*
X10904817Y-5846071D01*
X10917785Y-5814842D01*
X10917791Y-5807910D01*
X11007006Y-5749428D01*
X11006985Y-5773243D01*
X11019899Y-5804496D01*
X11043789Y-5828427D01*
X11075018Y-5841395D01*
X11108833Y-5841425D01*
X11140086Y-5828511D01*
X11164017Y-5804621D01*
X11176733Y-5773998D01*
X11178876Y-5790723D01*
X11185575Y-5802420D01*
X11182533Y-5807159D01*
X11176315Y-5841720D01*
X11183796Y-5876030D01*
X11203838Y-5904866D01*
X11233389Y-5923837D01*
X11267950Y-5930055D01*
X11281130Y-5929813D01*
X11281130Y-6036736D01*
X11287220Y-6051438D01*
X11298472Y-6062690D01*
X11313173Y-6068780D01*
X11329086Y-6068780D01*
X11529086Y-6068780D01*
X11543788Y-6062690D01*
X11555040Y-6051438D01*
X11561130Y-6036736D01*
X11561130Y-6564419D01*
X11468200Y-6548022D01*
X11468200Y-6512724D01*
X11469973Y-6503810D01*
X11465977Y-6483719D01*
X11462697Y-6478810D01*
X11465977Y-6473901D01*
X11469973Y-6453810D01*
X11465977Y-6433719D01*
X11454596Y-6416687D01*
X11437564Y-6405306D01*
X11430042Y-6403810D01*
X11437564Y-6402314D01*
X11454596Y-6390933D01*
X11465977Y-6373901D01*
X11469973Y-6353810D01*
X11465977Y-6333719D01*
X11462697Y-6328810D01*
X11465977Y-6323901D01*
X11469973Y-6303810D01*
X11465977Y-6283719D01*
X11454596Y-6266687D01*
X11437956Y-6255568D01*
X11450868Y-6250220D01*
X11462120Y-6238968D01*
X11468210Y-6224266D01*
X11468210Y-6208353D01*
X11468210Y-6183353D01*
X11462120Y-6168652D01*
X11450868Y-6157400D01*
X11436166Y-6151310D01*
X11420253Y-6151310D01*
X11390778Y-6151310D01*
X11378210Y-6148810D01*
X11343210Y-6148810D01*
X11333185Y-6148810D01*
X11326790Y-6146365D01*
X11305078Y-6124248D01*
X11305061Y-6124221D01*
X11305032Y-6124201D01*
X11304618Y-6123780D01*
X11293786Y-6116396D01*
X11281019Y-6107536D01*
X11252423Y-6101322D01*
X10930400Y-6095638D01*
X10930400Y-6087243D01*
X10924310Y-6072542D01*
X10913058Y-6061290D01*
X10898357Y-6055200D01*
X10882444Y-6055200D01*
X10742444Y-6055200D01*
X10727742Y-6061290D01*
X10722760Y-6066271D01*
X10715058Y-6058570D01*
X10700357Y-6052480D01*
X10684444Y-6052480D01*
X10574444Y-6052480D01*
X10559742Y-6058570D01*
X10548490Y-6069822D01*
X10542400Y-6084523D01*
X10542400Y-6100436D01*
X10542400Y-6187480D01*
X10542400Y-6200436D01*
X10542400Y-6209782D01*
X10020600Y-6034360D01*
X10018250Y-6034057D01*
X10016110Y-6028892D01*
X10004858Y-6017640D01*
X9990157Y-6011550D01*
X9974244Y-6011550D01*
X9872644Y-6011550D01*
X9870008Y-6012642D01*
X9870035Y-5982167D01*
X9857122Y-5950914D01*
X9843787Y-5937556D01*
X9824462Y-5855298D01*
X9821933Y-5849739D01*
X9820741Y-5843749D01*
X9815929Y-5836547D01*
X9812341Y-5828663D01*
X9807876Y-5824495D01*
X9804483Y-5819417D01*
X9797983Y-5812917D01*
X9773651Y-5796659D01*
X9744950Y-5790950D01*
X9743398Y-5791259D01*
X9742550Y-5791090D01*
X9717120Y-5791090D01*
X9709463Y-5792613D01*
X9707803Y-5792759D01*
X9705310Y-5786742D01*
X9694058Y-5775490D01*
X9679357Y-5769400D01*
X9663444Y-5769400D01*
X9413444Y-5769400D01*
X9398742Y-5775490D01*
X9387490Y-5786742D01*
X9385785Y-5790856D01*
X9381385Y-5791313D01*
X9381415Y-5757567D01*
X9368502Y-5726314D01*
X9344612Y-5702383D01*
X9313382Y-5689415D01*
X9279567Y-5689385D01*
X9248314Y-5702298D01*
X9224383Y-5726188D01*
X9211415Y-5757418D01*
X9211385Y-5791233D01*
X9216826Y-5804400D01*
X9190396Y-5804400D01*
X9190410Y-5787518D01*
X9181295Y-5765457D01*
X9164432Y-5748564D01*
X9142387Y-5739410D01*
X9118518Y-5739390D01*
X9096457Y-5748505D01*
X9079564Y-5765368D01*
X9070410Y-5787413D01*
X9070390Y-5811282D01*
X9078845Y-5831747D01*
X9076900Y-5836443D01*
X9076900Y-5852356D01*
X9076900Y-5892356D01*
X9078782Y-5896900D01*
X9076900Y-5901443D01*
X9076900Y-5917356D01*
X9076900Y-5957356D01*
X9078782Y-5961900D01*
X9076900Y-5966443D01*
X9076900Y-5982356D01*
X9076900Y-6022356D01*
X9078782Y-6026900D01*
X9076900Y-6031443D01*
X9076900Y-6047356D01*
X9076900Y-6087356D01*
X9082990Y-6102058D01*
X9094242Y-6113310D01*
X9108944Y-6119400D01*
X9124857Y-6119400D01*
X9259857Y-6119400D01*
X9274558Y-6113310D01*
X9285810Y-6102058D01*
X9291900Y-6087356D01*
X9291900Y-6071443D01*
X9291900Y-6031443D01*
X9290018Y-6026900D01*
X9291900Y-6022356D01*
X9291900Y-6006443D01*
X9291900Y-5966443D01*
X9290018Y-5961900D01*
X9291900Y-5957356D01*
X9291900Y-5941443D01*
X9291900Y-5911189D01*
X9381400Y-5901902D01*
X9381400Y-5947356D01*
X9384317Y-5954400D01*
X9381400Y-5961443D01*
X9381400Y-5977356D01*
X9381400Y-6027356D01*
X9384317Y-6034400D01*
X9381400Y-6041443D01*
X9381400Y-6057356D01*
X9381400Y-6107356D01*
X9387490Y-6122058D01*
X9398742Y-6133310D01*
X9413444Y-6139400D01*
X9429357Y-6139400D01*
X9679357Y-6139400D01*
X9694058Y-6133310D01*
X9705310Y-6122058D01*
X9711400Y-6107356D01*
X9711400Y-6091443D01*
X9711400Y-6043411D01*
X9712919Y-6047086D01*
X9727040Y-6061232D01*
X9746629Y-6106229D01*
X9746625Y-6110463D01*
X9759539Y-6141716D01*
X9783429Y-6165647D01*
X9814658Y-6178615D01*
X9848473Y-6178645D01*
X9858391Y-6174547D01*
X9872644Y-6180450D01*
X9888557Y-6180450D01*
X9947200Y-6180450D01*
X9982200Y-6180450D01*
X9984430Y-6180450D01*
X10543584Y-6368430D01*
X10545825Y-6379701D01*
X10548944Y-6384368D01*
X10548490Y-6384822D01*
X10546909Y-6388637D01*
X10546909Y-6388637D01*
X10545825Y-6390259D01*
X10545445Y-6392172D01*
X10545445Y-6392173D01*
X10542400Y-6399523D01*
X10542400Y-6407480D01*
X10542400Y-6415436D01*
X10542400Y-6505436D01*
X10548490Y-6520138D01*
X10559742Y-6531390D01*
X10574444Y-6537480D01*
X10590357Y-6537480D01*
X10700357Y-6537480D01*
X10715058Y-6531390D01*
X10718540Y-6527909D01*
X10727742Y-6537110D01*
X10742444Y-6543200D01*
X10758357Y-6543200D01*
X10898357Y-6543200D01*
X10913058Y-6537110D01*
X10924310Y-6525858D01*
X10930400Y-6511156D01*
X10930400Y-6502874D01*
X11235710Y-6498896D01*
X11235710Y-6524520D01*
X11237152Y-6531768D01*
X11237688Y-6539139D01*
X11262909Y-6630611D01*
X11216990Y-6620794D01*
X11213701Y-6612834D01*
X11189812Y-6588903D01*
X11158582Y-6575935D01*
X11124767Y-6575905D01*
X11093514Y-6588818D01*
X11069583Y-6612708D01*
X11056615Y-6643938D01*
X11056585Y-6677753D01*
X11069499Y-6709006D01*
X11093389Y-6732937D01*
X11124618Y-6745905D01*
X11158433Y-6745935D01*
X11189686Y-6733021D01*
X11194289Y-6728426D01*
X11277470Y-6746209D01*
X11277470Y-6791746D01*
X11283560Y-6806448D01*
X11287611Y-6810500D01*
X9381415Y-6810500D01*
X9381415Y-6197567D01*
X9368502Y-6166314D01*
X9344612Y-6142383D01*
X9313382Y-6129415D01*
X9279567Y-6129385D01*
X9248314Y-6142298D01*
X9224383Y-6166188D01*
X9211415Y-6197418D01*
X9211385Y-6231233D01*
X9224299Y-6262486D01*
X9248189Y-6286417D01*
X9279418Y-6299385D01*
X9313233Y-6299415D01*
X9344486Y-6286501D01*
X9368417Y-6262611D01*
X9381385Y-6231382D01*
X9381415Y-6197567D01*
X9381415Y-6810500D01*
X9190410Y-6810500D01*
X9190410Y-6177518D01*
X9181295Y-6155457D01*
X9164432Y-6138564D01*
X9142387Y-6129410D01*
X9118518Y-6129390D01*
X9096457Y-6138505D01*
X9079564Y-6155368D01*
X9070410Y-6177413D01*
X9070390Y-6201282D01*
X9079505Y-6223343D01*
X9096368Y-6240236D01*
X9118413Y-6249390D01*
X9142282Y-6249410D01*
X9164343Y-6240295D01*
X9181236Y-6223432D01*
X9190390Y-6201387D01*
X9190410Y-6177518D01*
X9190410Y-6810500D01*
X8810500Y-6810500D01*
X8810500Y-5178300D01*
X8893533Y-5178300D01*
X8875743Y-5185651D01*
X8843365Y-5217973D01*
X8825820Y-5260225D01*
X8825780Y-5305975D01*
X8843251Y-5348257D01*
X8875573Y-5380635D01*
X8917825Y-5398180D01*
X8963575Y-5398220D01*
X9005857Y-5380749D01*
X9038235Y-5348427D01*
X9055780Y-5306175D01*
X9055820Y-5260425D01*
X9038349Y-5218143D01*
X9006027Y-5185765D01*
X8988051Y-5178300D01*
X11585501Y-5178300D01*
X11583890Y-5179912D01*
X11577800Y-5194614D01*
X11577800Y-5210527D01*
X11577800Y-5350527D01*
X11583890Y-5365228D01*
X11595142Y-5376480D01*
X11597000Y-5377250D01*
X11597000Y-6137730D01*
X11597018Y-6137823D01*
X11597000Y-6137916D01*
X11599112Y-6148349D01*
X11601187Y-6158778D01*
X11601239Y-6158856D01*
X11601258Y-6158950D01*
X11601679Y-6159575D01*
X11605914Y-6208549D01*
X11608257Y-6216617D01*
X11609897Y-6224858D01*
X11611230Y-6226853D01*
X11611899Y-6229157D01*
X11612767Y-6230241D01*
X11610443Y-6233719D01*
X11606447Y-6253810D01*
X11610443Y-6273901D01*
X11613723Y-6278810D01*
X11610443Y-6283719D01*
X11606447Y-6303810D01*
X11610443Y-6323901D01*
X11613723Y-6328810D01*
X11610443Y-6333719D01*
X11606447Y-6353810D01*
X11610443Y-6373901D01*
X11621824Y-6390933D01*
X11638856Y-6402314D01*
X11646378Y-6403810D01*
X11638856Y-6405306D01*
X11621824Y-6416687D01*
X11610443Y-6433719D01*
X11606447Y-6453810D01*
X11610443Y-6473901D01*
X11613723Y-6478810D01*
X11610443Y-6483719D01*
X11606447Y-6503810D01*
X11610443Y-6523901D01*
X11621824Y-6540933D01*
X11638856Y-6552314D01*
X11658947Y-6556310D01*
X11685641Y-6556310D01*
X11698210Y-6558810D01*
X11718276Y-6558810D01*
X11729115Y-6566448D01*
X11734549Y-6575780D01*
G36*
X12377080Y-5387451D02*
X12371290Y-5393242D01*
X12365200Y-5407944D01*
X12365200Y-5423857D01*
X12365200Y-5447957D01*
X12363440Y-5448933D01*
X12325000Y-5481496D01*
X12325000Y-5409244D01*
X12318910Y-5394542D01*
X12307658Y-5383290D01*
X12292956Y-5377200D01*
X12277043Y-5377200D01*
X12200000Y-5377200D01*
X12185000Y-5377200D01*
X12182145Y-5377200D01*
X12117856Y-5369328D01*
X12117201Y-5367744D01*
X12093311Y-5343813D01*
X12062082Y-5330845D01*
X12028267Y-5330815D01*
X11997014Y-5343729D01*
X11973083Y-5367619D01*
X11969695Y-5375776D01*
X11958788Y-5364870D01*
X11944086Y-5358780D01*
X11928173Y-5358780D01*
X11764381Y-5358780D01*
X11767800Y-5350527D01*
X11767800Y-5334614D01*
X11767800Y-5194614D01*
X11761710Y-5179912D01*
X11760099Y-5178300D01*
X12370861Y-5178300D01*
X12360490Y-5188672D01*
X12354400Y-5203374D01*
X12354400Y-5219287D01*
X12354400Y-5359287D01*
X12360490Y-5373988D01*
X12371742Y-5385240D01*
X12377080Y-5387451D01*
X12377080Y-5387451D01*
G37*
X12377080Y-5387451D02*
X12371290Y-5393242D01*
X12365200Y-5407944D01*
X12365200Y-5423857D01*
X12365200Y-5447957D01*
X12363440Y-5448933D01*
X12325000Y-5481496D01*
X12325000Y-5409244D01*
X12318910Y-5394542D01*
X12307658Y-5383290D01*
X12292956Y-5377200D01*
X12277043Y-5377200D01*
X12200000Y-5377200D01*
X12185000Y-5377200D01*
X12182145Y-5377200D01*
X12117856Y-5369328D01*
X12117201Y-5367744D01*
X12093311Y-5343813D01*
X12062082Y-5330845D01*
X12028267Y-5330815D01*
X11997014Y-5343729D01*
X11973083Y-5367619D01*
X11969695Y-5375776D01*
X11958788Y-5364870D01*
X11944086Y-5358780D01*
X11928173Y-5358780D01*
X11764381Y-5358780D01*
X11767800Y-5350527D01*
X11767800Y-5334614D01*
X11767800Y-5194614D01*
X11761710Y-5179912D01*
X11760099Y-5178300D01*
X12370861Y-5178300D01*
X12360490Y-5188672D01*
X12354400Y-5203374D01*
X12354400Y-5219287D01*
X12354400Y-5359287D01*
X12360490Y-5373988D01*
X12371742Y-5385240D01*
X12377080Y-5387451D01*
G36*
X13008100Y-6810500D02*
X11436229Y-6810500D01*
X11440280Y-6806448D01*
X11446370Y-6791746D01*
X11446370Y-6775833D01*
X11446370Y-6674233D01*
X11440280Y-6659532D01*
X11434529Y-6653780D01*
X11688869Y-6698657D01*
X11691078Y-6704006D01*
X11714968Y-6727937D01*
X11746198Y-6740905D01*
X11780013Y-6740935D01*
X11811266Y-6728021D01*
X11835197Y-6704131D01*
X11848165Y-6672902D01*
X11848195Y-6639087D01*
X11845513Y-6632597D01*
X12106322Y-6643372D01*
X12107290Y-6645708D01*
X12118542Y-6656960D01*
X12133243Y-6663050D01*
X12149156Y-6663050D01*
X12250756Y-6663050D01*
X12265458Y-6656960D01*
X12270043Y-6652375D01*
X12296799Y-6652211D01*
X12329159Y-6638574D01*
X12357478Y-6619400D01*
X12358556Y-6619400D01*
X12498556Y-6619400D01*
X12513258Y-6613310D01*
X12518533Y-6608035D01*
X12525364Y-6608306D01*
X12789161Y-6566600D01*
X12794843Y-6566600D01*
X12802800Y-6566600D01*
X12810756Y-6566600D01*
X12852800Y-6566600D01*
X12960756Y-6566600D01*
X12975458Y-6560510D01*
X12986710Y-6549258D01*
X12992800Y-6534556D01*
X12992800Y-6518643D01*
X12992800Y-6368643D01*
X12986710Y-6353942D01*
X12975458Y-6342690D01*
X12967800Y-6339517D01*
X12967800Y-6309682D01*
X12975458Y-6306510D01*
X12986710Y-6295258D01*
X12992800Y-6280556D01*
X12992800Y-6264643D01*
X12992800Y-6114643D01*
X12986710Y-6099942D01*
X12975458Y-6088690D01*
X12960756Y-6082600D01*
X12944843Y-6082600D01*
X12794843Y-6082600D01*
X12780142Y-6088690D01*
X12768890Y-6099942D01*
X12762800Y-6114643D01*
X12762800Y-6130556D01*
X12762800Y-6280556D01*
X12768890Y-6295258D01*
X12780142Y-6306510D01*
X12787800Y-6309682D01*
X12787800Y-6339517D01*
X12780142Y-6342690D01*
X12768890Y-6353942D01*
X12762800Y-6368643D01*
X12762800Y-6384556D01*
X12762800Y-6388532D01*
X12519074Y-6427065D01*
X12528258Y-6423260D01*
X12539510Y-6412008D01*
X12545600Y-6397306D01*
X12545600Y-6381393D01*
X12545600Y-6267093D01*
X12539510Y-6252392D01*
X12528258Y-6241140D01*
X12513556Y-6235050D01*
X12497643Y-6235050D01*
X12327643Y-6235050D01*
X12312942Y-6241140D01*
X12311881Y-6242200D01*
X12297819Y-6242200D01*
X12296758Y-6241140D01*
X12282056Y-6235050D01*
X12266143Y-6235050D01*
X12096143Y-6235050D01*
X12092078Y-6236734D01*
X12084140Y-6104378D01*
X12096143Y-6109350D01*
X12112056Y-6109350D01*
X12282056Y-6109350D01*
X12296758Y-6103260D01*
X12297819Y-6102200D01*
X12311881Y-6102200D01*
X12312942Y-6103260D01*
X12327643Y-6109350D01*
X12343556Y-6109350D01*
X12513556Y-6109350D01*
X12528258Y-6103260D01*
X12539510Y-6092008D01*
X12545600Y-6077306D01*
X12545600Y-6061393D01*
X12545600Y-5947093D01*
X12539510Y-5932392D01*
X12528258Y-5921140D01*
X12513556Y-5915050D01*
X12497643Y-5915050D01*
X12327643Y-5915050D01*
X12312942Y-5921140D01*
X12311881Y-5922200D01*
X12297819Y-5922200D01*
X12296758Y-5921140D01*
X12282056Y-5915050D01*
X12266143Y-5915050D01*
X12096143Y-5915050D01*
X12091315Y-5917050D01*
X12089695Y-5917050D01*
X12087727Y-5915661D01*
X12001577Y-5877391D01*
X12000320Y-5877108D01*
X11999248Y-5876392D01*
X11981333Y-5872828D01*
X11976130Y-5871656D01*
X11976130Y-5467053D01*
X11996888Y-5487847D01*
X12028118Y-5500815D01*
X12061933Y-5500845D01*
X12093186Y-5487932D01*
X12102825Y-5478309D01*
X12145000Y-5483473D01*
X12145000Y-5515157D01*
X12151090Y-5529858D01*
X12158431Y-5537200D01*
X12151090Y-5544542D01*
X12145000Y-5559244D01*
X12145000Y-5575157D01*
X12145000Y-5665156D01*
X12151090Y-5679858D01*
X12162342Y-5691110D01*
X12164739Y-5692103D01*
X12159215Y-5705408D01*
X12159185Y-5739223D01*
X12172098Y-5770476D01*
X12195988Y-5794407D01*
X12227218Y-5807375D01*
X12261033Y-5807405D01*
X12292286Y-5794491D01*
X12316217Y-5770601D01*
X12329185Y-5739372D01*
X12329215Y-5705557D01*
X12318688Y-5680080D01*
X12318910Y-5679858D01*
X12325000Y-5665156D01*
X12325000Y-5649243D01*
X12325000Y-5625143D01*
X12326760Y-5624167D01*
X12419154Y-5545900D01*
X12420200Y-5545900D01*
X12513156Y-5545900D01*
X12527858Y-5539810D01*
X12539110Y-5528558D01*
X12545200Y-5513857D01*
X12545200Y-5511480D01*
X12762800Y-5511480D01*
X12762800Y-5518557D01*
X12768890Y-5533258D01*
X12780142Y-5544510D01*
X12794843Y-5550600D01*
X12810756Y-5550600D01*
X12960756Y-5550600D01*
X12975458Y-5544510D01*
X12986710Y-5533258D01*
X12992800Y-5518557D01*
X12992800Y-5502644D01*
X12992800Y-5352644D01*
X12986710Y-5337942D01*
X12975458Y-5326690D01*
X12960756Y-5320600D01*
X12944843Y-5320600D01*
X12794843Y-5320600D01*
X12780142Y-5326690D01*
X12768890Y-5337942D01*
X12762800Y-5352644D01*
X12762800Y-5368557D01*
X12762800Y-5401480D01*
X12637599Y-5401480D01*
X12645085Y-5383452D01*
X12645115Y-5349637D01*
X12632201Y-5318384D01*
X12608311Y-5294453D01*
X12577082Y-5281485D01*
X12544400Y-5281456D01*
X12544400Y-5203374D01*
X12538310Y-5188672D01*
X12527939Y-5178300D01*
X13008100Y-5178300D01*
X13008100Y-6810500D01*
X13008100Y-6810500D01*
G37*
X13008100Y-6810500D02*
X11436229Y-6810500D01*
X11440280Y-6806448D01*
X11446370Y-6791746D01*
X11446370Y-6775833D01*
X11446370Y-6674233D01*
X11440280Y-6659532D01*
X11434529Y-6653780D01*
X11688869Y-6698657D01*
X11691078Y-6704006D01*
X11714968Y-6727937D01*
X11746198Y-6740905D01*
X11780013Y-6740935D01*
X11811266Y-6728021D01*
X11835197Y-6704131D01*
X11848165Y-6672902D01*
X11848195Y-6639087D01*
X11845513Y-6632597D01*
X12106322Y-6643372D01*
X12107290Y-6645708D01*
X12118542Y-6656960D01*
X12133243Y-6663050D01*
X12149156Y-6663050D01*
X12250756Y-6663050D01*
X12265458Y-6656960D01*
X12270043Y-6652375D01*
X12296799Y-6652211D01*
X12329159Y-6638574D01*
X12357478Y-6619400D01*
X12358556Y-6619400D01*
X12498556Y-6619400D01*
X12513258Y-6613310D01*
X12518533Y-6608035D01*
X12525364Y-6608306D01*
X12789161Y-6566600D01*
X12794843Y-6566600D01*
X12802800Y-6566600D01*
X12810756Y-6566600D01*
X12852800Y-6566600D01*
X12960756Y-6566600D01*
X12975458Y-6560510D01*
X12986710Y-6549258D01*
X12992800Y-6534556D01*
X12992800Y-6518643D01*
X12992800Y-6368643D01*
X12986710Y-6353942D01*
X12975458Y-6342690D01*
X12967800Y-6339517D01*
X12967800Y-6309682D01*
X12975458Y-6306510D01*
X12986710Y-6295258D01*
X12992800Y-6280556D01*
X12992800Y-6264643D01*
X12992800Y-6114643D01*
X12986710Y-6099942D01*
X12975458Y-6088690D01*
X12960756Y-6082600D01*
X12944843Y-6082600D01*
X12794843Y-6082600D01*
X12780142Y-6088690D01*
X12768890Y-6099942D01*
X12762800Y-6114643D01*
X12762800Y-6130556D01*
X12762800Y-6280556D01*
X12768890Y-6295258D01*
X12780142Y-6306510D01*
X12787800Y-6309682D01*
X12787800Y-6339517D01*
X12780142Y-6342690D01*
X12768890Y-6353942D01*
X12762800Y-6368643D01*
X12762800Y-6384556D01*
X12762800Y-6388532D01*
X12519074Y-6427065D01*
X12528258Y-6423260D01*
X12539510Y-6412008D01*
X12545600Y-6397306D01*
X12545600Y-6381393D01*
X12545600Y-6267093D01*
X12539510Y-6252392D01*
X12528258Y-6241140D01*
X12513556Y-6235050D01*
X12497643Y-6235050D01*
X12327643Y-6235050D01*
X12312942Y-6241140D01*
X12311881Y-6242200D01*
X12297819Y-6242200D01*
X12296758Y-6241140D01*
X12282056Y-6235050D01*
X12266143Y-6235050D01*
X12096143Y-6235050D01*
X12092078Y-6236734D01*
X12084140Y-6104378D01*
X12096143Y-6109350D01*
X12112056Y-6109350D01*
X12282056Y-6109350D01*
X12296758Y-6103260D01*
X12297819Y-6102200D01*
X12311881Y-6102200D01*
X12312942Y-6103260D01*
X12327643Y-6109350D01*
X12343556Y-6109350D01*
X12513556Y-6109350D01*
X12528258Y-6103260D01*
X12539510Y-6092008D01*
X12545600Y-6077306D01*
X12545600Y-6061393D01*
X12545600Y-5947093D01*
X12539510Y-5932392D01*
X12528258Y-5921140D01*
X12513556Y-5915050D01*
X12497643Y-5915050D01*
X12327643Y-5915050D01*
X12312942Y-5921140D01*
X12311881Y-5922200D01*
X12297819Y-5922200D01*
X12296758Y-5921140D01*
X12282056Y-5915050D01*
X12266143Y-5915050D01*
X12096143Y-5915050D01*
X12091315Y-5917050D01*
X12089695Y-5917050D01*
X12087727Y-5915661D01*
X12001577Y-5877391D01*
X12000320Y-5877108D01*
X11999248Y-5876392D01*
X11981333Y-5872828D01*
X11976130Y-5871656D01*
X11976130Y-5467053D01*
X11996888Y-5487847D01*
X12028118Y-5500815D01*
X12061933Y-5500845D01*
X12093186Y-5487932D01*
X12102825Y-5478309D01*
X12145000Y-5483473D01*
X12145000Y-5515157D01*
X12151090Y-5529858D01*
X12158431Y-5537200D01*
X12151090Y-5544542D01*
X12145000Y-5559244D01*
X12145000Y-5575157D01*
X12145000Y-5665156D01*
X12151090Y-5679858D01*
X12162342Y-5691110D01*
X12164739Y-5692103D01*
X12159215Y-5705408D01*
X12159185Y-5739223D01*
X12172098Y-5770476D01*
X12195988Y-5794407D01*
X12227218Y-5807375D01*
X12261033Y-5807405D01*
X12292286Y-5794491D01*
X12316217Y-5770601D01*
X12329185Y-5739372D01*
X12329215Y-5705557D01*
X12318688Y-5680080D01*
X12318910Y-5679858D01*
X12325000Y-5665156D01*
X12325000Y-5649243D01*
X12325000Y-5625143D01*
X12326760Y-5624167D01*
X12419154Y-5545900D01*
X12420200Y-5545900D01*
X12513156Y-5545900D01*
X12527858Y-5539810D01*
X12539110Y-5528558D01*
X12545200Y-5513857D01*
X12545200Y-5511480D01*
X12762800Y-5511480D01*
X12762800Y-5518557D01*
X12768890Y-5533258D01*
X12780142Y-5544510D01*
X12794843Y-5550600D01*
X12810756Y-5550600D01*
X12960756Y-5550600D01*
X12975458Y-5544510D01*
X12986710Y-5533258D01*
X12992800Y-5518557D01*
X12992800Y-5502644D01*
X12992800Y-5352644D01*
X12986710Y-5337942D01*
X12975458Y-5326690D01*
X12960756Y-5320600D01*
X12944843Y-5320600D01*
X12794843Y-5320600D01*
X12780142Y-5326690D01*
X12768890Y-5337942D01*
X12762800Y-5352644D01*
X12762800Y-5368557D01*
X12762800Y-5401480D01*
X12637599Y-5401480D01*
X12645085Y-5383452D01*
X12645115Y-5349637D01*
X12632201Y-5318384D01*
X12608311Y-5294453D01*
X12577082Y-5281485D01*
X12544400Y-5281456D01*
X12544400Y-5203374D01*
X12538310Y-5188672D01*
X12527939Y-5178300D01*
X13008100Y-5178300D01*
X13008100Y-6810500D01*
M02*
