G04 #@! TF.GenerationSoftware,KiCad,Pcbnew,(5.1.5)-1*
G04 #@! TF.CreationDate,2020-06-21T00:53:37+02:00*
G04 #@! TF.ProjectId,MP2611,4d503236-3131-42e6-9b69-6361645f7063,rev?*
G04 #@! TF.SameCoordinates,Original*
G04 #@! TF.FileFunction,Legend,Top*
G04 #@! TF.FilePolarity,Positive*
%FSLAX45Y45*%
G04 Gerber Fmt 4.5, Leading zero omitted, Abs format (unit mm)*
G04 Created by KiCad (PCBNEW (5.1.5)-1) date 2020-06-21 00:53:37*
%MOMM*%
%LPD*%
G04 APERTURE LIST*
%ADD10C,0.300000*%
%ADD11C,0.150000*%
%ADD12C,0.127000*%
%ADD13C,0.149860*%
%ADD14C,0.158750*%
%ADD15C,0.160020*%
G04 APERTURE END LIST*
D10*
X12659914Y-5848343D02*
X12659914Y-5734057D01*
X12592057Y-6386114D02*
X12706343Y-6386114D01*
X12649200Y-6443257D02*
X12649200Y-6328971D01*
D11*
X8806400Y-5609400D02*
X8806400Y-6379400D01*
X8706400Y-5609400D02*
X8706400Y-6379400D01*
X9606400Y-6379400D02*
X8706400Y-6379400D01*
X9606400Y-5609400D02*
X9606400Y-6379400D01*
X8706400Y-5609400D02*
X9606400Y-5609400D01*
X8695000Y-6365000D02*
X8695000Y-5615000D01*
X9195000Y-6365000D02*
X8695000Y-6365000D01*
X8695000Y-5615000D02*
X9195000Y-5615000D01*
X8765000Y-6365000D02*
X8765000Y-5615000D01*
X9195000Y-6365000D02*
X9195000Y-5615000D01*
X12814300Y-5816600D02*
X12750800Y-5753100D01*
X12941300Y-5816600D02*
X12814300Y-5816600D01*
X13004800Y-5753100D02*
X13004800Y-5626100D01*
X12750800Y-5753100D02*
X12750800Y-5626100D01*
X13004800Y-5626100D02*
X12941300Y-5562600D01*
X12941300Y-5816600D02*
X13004800Y-5753100D01*
X12750800Y-5626100D02*
X12814300Y-5562600D01*
X12750800Y-5372100D02*
X12814300Y-5308600D01*
X12941300Y-5562600D02*
X13004800Y-5499100D01*
X13004800Y-5372100D02*
X12941300Y-5308600D01*
X12814300Y-5308600D02*
X12941300Y-5308600D01*
X12750800Y-5499100D02*
X12750800Y-5372100D01*
X13004800Y-5499100D02*
X13004800Y-5372100D01*
X12941300Y-5562600D02*
X12814300Y-5562600D01*
X12814300Y-5562600D02*
X12750800Y-5499100D01*
X12941300Y-5816600D02*
X13004800Y-5880100D01*
X12814300Y-5816600D02*
X12941300Y-5816600D01*
X12750800Y-5880100D02*
X12750800Y-6007100D01*
X13004800Y-5880100D02*
X13004800Y-6007100D01*
X12750800Y-6007100D02*
X12814300Y-6070600D01*
X12814300Y-5816600D02*
X12750800Y-5880100D01*
X13004800Y-6007100D02*
X12941300Y-6070600D01*
X13004800Y-6261100D02*
X12941300Y-6324600D01*
X12814300Y-6070600D02*
X12750800Y-6134100D01*
X12750800Y-6261100D02*
X12814300Y-6324600D01*
X12941300Y-6324600D02*
X12814300Y-6324600D01*
X13004800Y-6134100D02*
X13004800Y-6261100D01*
X12750800Y-6134100D02*
X12750800Y-6261100D01*
X12814300Y-6070600D02*
X12941300Y-6070600D01*
X12941300Y-6070600D02*
X13004800Y-6134100D01*
X8813800Y-5219700D02*
X8813800Y-5346700D01*
X9067800Y-5219700D02*
X9067800Y-5346700D01*
X9004300Y-5156200D02*
X8877300Y-5156200D01*
X9004300Y-5410200D02*
X8877300Y-5410200D01*
X9067800Y-5346700D02*
X9004300Y-5410200D01*
X9067800Y-5219700D02*
X9004300Y-5156200D01*
X8877300Y-5156200D02*
X8813800Y-5219700D01*
X8813800Y-5346700D02*
X8877300Y-5410200D01*
X8813800Y-6642100D02*
X8813800Y-6769100D01*
X9067800Y-6642100D02*
X9067800Y-6769100D01*
X9004300Y-6578600D02*
X8877300Y-6578600D01*
X9004300Y-6832600D02*
X8877300Y-6832600D01*
X9067800Y-6769100D02*
X9004300Y-6832600D01*
X9067800Y-6642100D02*
X9004300Y-6578600D01*
X8877300Y-6578600D02*
X8813800Y-6642100D01*
X8813800Y-6769100D02*
X8877300Y-6832600D01*
X12750800Y-6388100D02*
X12750800Y-6515100D01*
X13004800Y-6388100D02*
X13004800Y-6515100D01*
X12941300Y-6324600D02*
X12814300Y-6324600D01*
X12941300Y-6578600D02*
X12814300Y-6578600D01*
X13004800Y-6515100D02*
X12941300Y-6578600D01*
X13004800Y-6388100D02*
X12941300Y-6324600D01*
X12814300Y-6324600D02*
X12750800Y-6388100D01*
X12750800Y-6515100D02*
X12814300Y-6578600D01*
X11688210Y-6153810D02*
X11688210Y-6553810D01*
X11388210Y-6153810D02*
X11688210Y-6153810D01*
X11388210Y-6553810D02*
X11388210Y-6153810D01*
X11688210Y-6553810D02*
X11388210Y-6553810D01*
X11788210Y-6053810D02*
X11788210Y-6653810D01*
X11288210Y-6053810D02*
X11288210Y-6653810D01*
X11788210Y-6053810D02*
X11288210Y-6053810D01*
X11788210Y-6653810D02*
X11288210Y-6653810D01*
X11428210Y-6153810D02*
X11388210Y-6193810D01*
X11408210Y-6153810D02*
X11388210Y-6173810D01*
X11388210Y-6053810D02*
X11288210Y-6153810D01*
X9931400Y-6169800D02*
X9851400Y-6169800D01*
X9851400Y-6169800D02*
X9851400Y-5869800D01*
X9851400Y-5869800D02*
X10011400Y-5869800D01*
X10011400Y-5869800D02*
X10011400Y-6169800D01*
X10011400Y-6169800D02*
X9931400Y-6169800D01*
X10720400Y-6235200D02*
X10720400Y-5855200D01*
X10720400Y-5855200D02*
X10920400Y-5855200D01*
X10920400Y-5855200D02*
X10920400Y-6235200D01*
X10920400Y-6235200D02*
X10720400Y-6235200D01*
X10920400Y-6363200D02*
X10920400Y-6743200D01*
X10920400Y-6743200D02*
X10720400Y-6743200D01*
X10720400Y-6743200D02*
X10720400Y-6363200D01*
X10720400Y-6363200D02*
X10920400Y-6363200D01*
X11288120Y-6732990D02*
X11288120Y-6652990D01*
X11288120Y-6652990D02*
X11588120Y-6652990D01*
X11588120Y-6652990D02*
X11588120Y-6812990D01*
X11588120Y-6812990D02*
X11288120Y-6812990D01*
X11288120Y-6812990D02*
X11288120Y-6732990D01*
X11587800Y-5172570D02*
X11967800Y-5172570D01*
X11967800Y-5172570D02*
X11967800Y-5372570D01*
X11967800Y-5372570D02*
X11587800Y-5372570D01*
X11587800Y-5372570D02*
X11587800Y-5172570D01*
X12520600Y-6439400D02*
X12520600Y-6819400D01*
X12520600Y-6819400D02*
X12320600Y-6819400D01*
X12320600Y-6819400D02*
X12320600Y-6439400D01*
X12320600Y-6439400D02*
X12520600Y-6439400D01*
X12192000Y-6504800D02*
X12272000Y-6504800D01*
X12272000Y-6504800D02*
X12272000Y-6804800D01*
X12272000Y-6804800D02*
X12112000Y-6804800D01*
X12112000Y-6804800D02*
X12112000Y-6504800D01*
X12112000Y-6504800D02*
X12192000Y-6504800D01*
X10523400Y-5680700D02*
X10503400Y-5680700D01*
X10503400Y-5680700D02*
X10503400Y-5520700D01*
X10503400Y-5520700D02*
X10523400Y-5520700D01*
X10543400Y-5680700D02*
X10528400Y-5680700D01*
X10528400Y-5680700D02*
X10528400Y-5520700D01*
X10528400Y-5520700D02*
X10543400Y-5520700D01*
X10543400Y-5520700D02*
X10518400Y-5520700D01*
X10518400Y-5520700D02*
X10518400Y-5680700D01*
X10518400Y-5680700D02*
X10528400Y-5680700D01*
X10843400Y-5600700D02*
X10843400Y-5680700D01*
X10843400Y-5680700D02*
X10543400Y-5680700D01*
X10543400Y-5680700D02*
X10543400Y-5520700D01*
X10543400Y-5520700D02*
X10843400Y-5520700D01*
X10843400Y-5520700D02*
X10843400Y-5610700D01*
X10523400Y-5515600D02*
X10503400Y-5515600D01*
X10503400Y-5515600D02*
X10503400Y-5355600D01*
X10503400Y-5355600D02*
X10523400Y-5355600D01*
X10543400Y-5515600D02*
X10528400Y-5515600D01*
X10528400Y-5515600D02*
X10528400Y-5355600D01*
X10528400Y-5355600D02*
X10543400Y-5355600D01*
X10543400Y-5355600D02*
X10518400Y-5355600D01*
X10518400Y-5355600D02*
X10518400Y-5515600D01*
X10518400Y-5515600D02*
X10528400Y-5515600D01*
X10843400Y-5435600D02*
X10843400Y-5515600D01*
X10843400Y-5515600D02*
X10543400Y-5515600D01*
X10543400Y-5515600D02*
X10543400Y-5355600D01*
X10543400Y-5355600D02*
X10843400Y-5355600D01*
X10843400Y-5355600D02*
X10843400Y-5445600D01*
X10523400Y-5350500D02*
X10503400Y-5350500D01*
X10503400Y-5350500D02*
X10503400Y-5190500D01*
X10503400Y-5190500D02*
X10523400Y-5190500D01*
X10543400Y-5350500D02*
X10528400Y-5350500D01*
X10528400Y-5350500D02*
X10528400Y-5190500D01*
X10528400Y-5190500D02*
X10543400Y-5190500D01*
X10543400Y-5190500D02*
X10518400Y-5190500D01*
X10518400Y-5190500D02*
X10518400Y-5350500D01*
X10518400Y-5350500D02*
X10528400Y-5350500D01*
X10843400Y-5270500D02*
X10843400Y-5350500D01*
X10843400Y-5350500D02*
X10543400Y-5350500D01*
X10543400Y-5350500D02*
X10543400Y-5190500D01*
X10543400Y-5190500D02*
X10843400Y-5190500D01*
X10843400Y-5190500D02*
X10843400Y-5280500D01*
X11968630Y-5373780D02*
X11968630Y-6053780D01*
X11968630Y-6053780D02*
X11288630Y-6053780D01*
X11288630Y-6053780D02*
X11288630Y-5373780D01*
X11288630Y-5373780D02*
X11968630Y-5373780D01*
X10848200Y-5600700D02*
X10848200Y-5520700D01*
X10848200Y-5520700D02*
X11148200Y-5520700D01*
X11148200Y-5520700D02*
X11148200Y-5680700D01*
X11148200Y-5680700D02*
X10848200Y-5680700D01*
X10848200Y-5680700D02*
X10848200Y-5600700D01*
X11148200Y-5435600D02*
X11148200Y-5515600D01*
X11148200Y-5515600D02*
X10848200Y-5515600D01*
X10848200Y-5515600D02*
X10848200Y-5355600D01*
X10848200Y-5355600D02*
X11148200Y-5355600D01*
X11148200Y-5355600D02*
X11148200Y-5435600D01*
X11148200Y-5270500D02*
X11148200Y-5350500D01*
X11148200Y-5350500D02*
X10848200Y-5350500D01*
X10848200Y-5350500D02*
X10848200Y-5190500D01*
X10848200Y-5190500D02*
X11148200Y-5190500D01*
X11148200Y-5190500D02*
X11148200Y-5270500D01*
X12235000Y-5387200D02*
X12315000Y-5387200D01*
X12315000Y-5387200D02*
X12315000Y-5687200D01*
X12315000Y-5687200D02*
X12155000Y-5687200D01*
X12155000Y-5687200D02*
X12155000Y-5387200D01*
X12155000Y-5387200D02*
X12235000Y-5387200D01*
X12455200Y-5685900D02*
X12375200Y-5685900D01*
X12375200Y-5685900D02*
X12375200Y-5385900D01*
X12375200Y-5385900D02*
X12535200Y-5385900D01*
X12535200Y-5385900D02*
X12535200Y-5685900D01*
X12535200Y-5685900D02*
X12455200Y-5685900D01*
X12534400Y-5281330D02*
X12534400Y-5381330D01*
X12534400Y-5381330D02*
X12154400Y-5381330D01*
X12154400Y-5381330D02*
X12154400Y-5181330D01*
X12154400Y-5181330D02*
X12534400Y-5181330D01*
X12534400Y-5181330D02*
X12534400Y-5301330D01*
X12304100Y-5925200D02*
X12074100Y-5925200D01*
X12304100Y-5925200D02*
X12304100Y-6419200D01*
X12304100Y-6419200D02*
X12074100Y-6419200D01*
X12074100Y-6419200D02*
X12074100Y-5925200D01*
X12535600Y-5925200D02*
X12305600Y-5925200D01*
X12535600Y-5925200D02*
X12535600Y-6419200D01*
X12535600Y-6419200D02*
X12305600Y-6419200D01*
X12305600Y-6419200D02*
X12305600Y-5925200D01*
X10637400Y-6067480D02*
X10717400Y-6067480D01*
X10717400Y-6067480D02*
X10717400Y-6527480D01*
X10717400Y-6527480D02*
X10557400Y-6527480D01*
X10557400Y-6527480D02*
X10557400Y-6067480D01*
X10557400Y-6067480D02*
X10637400Y-6067480D01*
X10160000Y-5768200D02*
X10240000Y-5768200D01*
X10240000Y-5768200D02*
X10240000Y-6068200D01*
X10240000Y-6068200D02*
X10080000Y-6068200D01*
X10080000Y-6068200D02*
X10080000Y-5768200D01*
X10080000Y-5768200D02*
X10160000Y-5768200D01*
D12*
X10401300Y-6070600D02*
X10401300Y-5765800D01*
X10401300Y-5765800D02*
X10477500Y-5765800D01*
X10477500Y-5765800D02*
X10477500Y-6070600D01*
X10477500Y-6070600D02*
X10401300Y-6070600D01*
D11*
X12719838Y-5528933D02*
X12619838Y-5528933D01*
X12719838Y-5483219D01*
X12619838Y-5483219D01*
X12619838Y-5456552D02*
X12619838Y-5410838D01*
X12719838Y-5433695D02*
X12619838Y-5433695D01*
X12710314Y-5338457D02*
X12715076Y-5342267D01*
X12719838Y-5353695D01*
X12719838Y-5361314D01*
X12715076Y-5372743D01*
X12705552Y-5380362D01*
X12696028Y-5384171D01*
X12676981Y-5387981D01*
X12662695Y-5387981D01*
X12643648Y-5384171D01*
X12634124Y-5380362D01*
X12624600Y-5372743D01*
X12619838Y-5361314D01*
X12619838Y-5353695D01*
X12624600Y-5342267D01*
X12629362Y-5338457D01*
X12694438Y-6231238D02*
X12694438Y-6269333D01*
X12594438Y-6269333D01*
X12694438Y-6204571D02*
X12627771Y-6204571D01*
X12594438Y-6204571D02*
X12599200Y-6208381D01*
X12603962Y-6204571D01*
X12599200Y-6200762D01*
X12594438Y-6204571D01*
X12603962Y-6204571D01*
X12656343Y-6166476D02*
X12656343Y-6105524D01*
X12694438Y-6067428D02*
X12627771Y-6067428D01*
X12594438Y-6067428D02*
X12599200Y-6071238D01*
X12603962Y-6067428D01*
X12599200Y-6063619D01*
X12594438Y-6067428D01*
X12603962Y-6067428D01*
X12694438Y-6017905D02*
X12689676Y-6025524D01*
X12684914Y-6029333D01*
X12675390Y-6033143D01*
X12646819Y-6033143D01*
X12637295Y-6029333D01*
X12632533Y-6025524D01*
X12627771Y-6017905D01*
X12627771Y-6006476D01*
X12632533Y-5998857D01*
X12637295Y-5995048D01*
X12646819Y-5991238D01*
X12675390Y-5991238D01*
X12684914Y-5995048D01*
X12689676Y-5998857D01*
X12694438Y-6006476D01*
X12694438Y-6017905D01*
X12627771Y-5956952D02*
X12694438Y-5956952D01*
X12637295Y-5956952D02*
X12632533Y-5953143D01*
X12627771Y-5945524D01*
X12627771Y-5934095D01*
X12632533Y-5926476D01*
X12642057Y-5922667D01*
X12694438Y-5922667D01*
X9116400Y-5291771D02*
X9207829Y-5291771D01*
X9162114Y-5337486D02*
X9162114Y-5246057D01*
X9247829Y-5217486D02*
X9287829Y-5337486D01*
X9327829Y-5217486D01*
X9367829Y-5337486D02*
X9367829Y-5257486D01*
X9367829Y-5217486D02*
X9362114Y-5223200D01*
X9367829Y-5228914D01*
X9373543Y-5223200D01*
X9367829Y-5217486D01*
X9367829Y-5228914D01*
X9424971Y-5257486D02*
X9424971Y-5337486D01*
X9424971Y-5268914D02*
X9430686Y-5263200D01*
X9442114Y-5257486D01*
X9459257Y-5257486D01*
X9470686Y-5263200D01*
X9476400Y-5274629D01*
X9476400Y-5337486D01*
X9116400Y-6714171D02*
X9207829Y-6714171D01*
X9247829Y-6639886D02*
X9287829Y-6759886D01*
X9327829Y-6639886D01*
X9367829Y-6759886D02*
X9367829Y-6679886D01*
X9367829Y-6639886D02*
X9362114Y-6645600D01*
X9367829Y-6651314D01*
X9373543Y-6645600D01*
X9367829Y-6639886D01*
X9367829Y-6651314D01*
X9424971Y-6679886D02*
X9424971Y-6759886D01*
X9424971Y-6691314D02*
X9430686Y-6685600D01*
X9442114Y-6679886D01*
X9459257Y-6679886D01*
X9470686Y-6685600D01*
X9476400Y-6697028D01*
X9476400Y-6759886D01*
X11468210Y-6133303D02*
X11468210Y-6073303D01*
X11482496Y-6073303D01*
X11491067Y-6076160D01*
X11496781Y-6081874D01*
X11499638Y-6087588D01*
X11502496Y-6099017D01*
X11502496Y-6107588D01*
X11499638Y-6119017D01*
X11496781Y-6124731D01*
X11491067Y-6130446D01*
X11482496Y-6133303D01*
X11468210Y-6133303D01*
X11525353Y-6116160D02*
X11553924Y-6116160D01*
X11519638Y-6133303D02*
X11539638Y-6073303D01*
X11559638Y-6133303D01*
X11611067Y-6133303D02*
X11576781Y-6133303D01*
X11593924Y-6133303D02*
X11593924Y-6073303D01*
X11588210Y-6081874D01*
X11582496Y-6087588D01*
X11576781Y-6090446D01*
X11373924Y-6634953D02*
X11373924Y-6574953D01*
X11393924Y-6617810D01*
X11413924Y-6574953D01*
X11413924Y-6634953D01*
X11442496Y-6634953D02*
X11442496Y-6574953D01*
X11465353Y-6574953D01*
X11471067Y-6577810D01*
X11473924Y-6580667D01*
X11476781Y-6586381D01*
X11476781Y-6594953D01*
X11473924Y-6600667D01*
X11471067Y-6603524D01*
X11465353Y-6606381D01*
X11442496Y-6606381D01*
X11499638Y-6580667D02*
X11502496Y-6577810D01*
X11508210Y-6574953D01*
X11522496Y-6574953D01*
X11528210Y-6577810D01*
X11531067Y-6580667D01*
X11533924Y-6586381D01*
X11533924Y-6592096D01*
X11531067Y-6600667D01*
X11496781Y-6634953D01*
X11533924Y-6634953D01*
X11585353Y-6574953D02*
X11573924Y-6574953D01*
X11568210Y-6577810D01*
X11565353Y-6580667D01*
X11559638Y-6589238D01*
X11556781Y-6600667D01*
X11556781Y-6623524D01*
X11559638Y-6629238D01*
X11562496Y-6632096D01*
X11568210Y-6634953D01*
X11579638Y-6634953D01*
X11585353Y-6632096D01*
X11588210Y-6629238D01*
X11591067Y-6623524D01*
X11591067Y-6609238D01*
X11588210Y-6603524D01*
X11585353Y-6600667D01*
X11579638Y-6597810D01*
X11568210Y-6597810D01*
X11562496Y-6600667D01*
X11559638Y-6603524D01*
X11556781Y-6609238D01*
X11648210Y-6634953D02*
X11613924Y-6634953D01*
X11631067Y-6634953D02*
X11631067Y-6574953D01*
X11625353Y-6583524D01*
X11619638Y-6589238D01*
X11613924Y-6592096D01*
X11705353Y-6634953D02*
X11671067Y-6634953D01*
X11688210Y-6634953D02*
X11688210Y-6574953D01*
X11682496Y-6583524D01*
X11676781Y-6589238D01*
X11671067Y-6592096D01*
X9921400Y-5838028D02*
X9918543Y-5840886D01*
X9909971Y-5843743D01*
X9904257Y-5843743D01*
X9895686Y-5840886D01*
X9889971Y-5835171D01*
X9887114Y-5829457D01*
X9884257Y-5818028D01*
X9884257Y-5809457D01*
X9887114Y-5798028D01*
X9889971Y-5792314D01*
X9895686Y-5786600D01*
X9904257Y-5783743D01*
X9909971Y-5783743D01*
X9918543Y-5786600D01*
X9921400Y-5789457D01*
X9978543Y-5843743D02*
X9944257Y-5843743D01*
X9961400Y-5843743D02*
X9961400Y-5783743D01*
X9955686Y-5792314D01*
X9949971Y-5798028D01*
X9944257Y-5800886D01*
X9782029Y-6215543D02*
X9787743Y-6215543D01*
X9793457Y-6218400D01*
X9796314Y-6221257D01*
X9799171Y-6226971D01*
X9802029Y-6238400D01*
X9802029Y-6252686D01*
X9799171Y-6264114D01*
X9796314Y-6269828D01*
X9793457Y-6272686D01*
X9787743Y-6275543D01*
X9782029Y-6275543D01*
X9776314Y-6272686D01*
X9773457Y-6269828D01*
X9770600Y-6264114D01*
X9767743Y-6252686D01*
X9767743Y-6238400D01*
X9770600Y-6226971D01*
X9773457Y-6221257D01*
X9776314Y-6218400D01*
X9782029Y-6215543D01*
X9830600Y-6272686D02*
X9830600Y-6275543D01*
X9827743Y-6281257D01*
X9824886Y-6284114D01*
X9887743Y-6275543D02*
X9853457Y-6275543D01*
X9870600Y-6275543D02*
X9870600Y-6215543D01*
X9864886Y-6224114D01*
X9859171Y-6229828D01*
X9853457Y-6232686D01*
X9939171Y-6235543D02*
X9939171Y-6275543D01*
X9913457Y-6235543D02*
X9913457Y-6266971D01*
X9916314Y-6272686D01*
X9922029Y-6275543D01*
X9930600Y-6275543D01*
X9936314Y-6272686D01*
X9939171Y-6269828D01*
X9987743Y-6244114D02*
X9967743Y-6244114D01*
X9967743Y-6275543D02*
X9967743Y-6215543D01*
X9996314Y-6215543D01*
X10689429Y-5928200D02*
X10692286Y-5931057D01*
X10695143Y-5939628D01*
X10695143Y-5945343D01*
X10692286Y-5953914D01*
X10686571Y-5959628D01*
X10680857Y-5962486D01*
X10669429Y-5965343D01*
X10660857Y-5965343D01*
X10649429Y-5962486D01*
X10643714Y-5959628D01*
X10638000Y-5953914D01*
X10635143Y-5945343D01*
X10635143Y-5939628D01*
X10638000Y-5931057D01*
X10640857Y-5928200D01*
X10640857Y-5905343D02*
X10638000Y-5902486D01*
X10635143Y-5896771D01*
X10635143Y-5882486D01*
X10638000Y-5876771D01*
X10640857Y-5873914D01*
X10646571Y-5871057D01*
X10652286Y-5871057D01*
X10660857Y-5873914D01*
X10695143Y-5908200D01*
X10695143Y-5871057D01*
X10971057Y-6248686D02*
X10968200Y-6245828D01*
X10965343Y-6240114D01*
X10965343Y-6225828D01*
X10968200Y-6220114D01*
X10971057Y-6217257D01*
X10976771Y-6214400D01*
X10982486Y-6214400D01*
X10991057Y-6217257D01*
X11025343Y-6251543D01*
X11025343Y-6214400D01*
X10971057Y-6191543D02*
X10968200Y-6188686D01*
X10965343Y-6182971D01*
X10965343Y-6168686D01*
X10968200Y-6162971D01*
X10971057Y-6160114D01*
X10976771Y-6157257D01*
X10982486Y-6157257D01*
X10991057Y-6160114D01*
X11025343Y-6194400D01*
X11025343Y-6157257D01*
X10985343Y-6105828D02*
X11025343Y-6105828D01*
X10985343Y-6131543D02*
X11016771Y-6131543D01*
X11022486Y-6128686D01*
X11025343Y-6122971D01*
X11025343Y-6114400D01*
X11022486Y-6108686D01*
X11019629Y-6105828D01*
X10993914Y-6057257D02*
X10993914Y-6077257D01*
X11025343Y-6077257D02*
X10965343Y-6077257D01*
X10965343Y-6048686D01*
X10962486Y-5982971D02*
X11039629Y-6034400D01*
X10985343Y-5937257D02*
X11025343Y-5937257D01*
X10962486Y-5951543D02*
X11005343Y-5965828D01*
X11005343Y-5928686D01*
X11022486Y-5902971D02*
X11025343Y-5902971D01*
X11031057Y-5905828D01*
X11033914Y-5908686D01*
X10965343Y-5882971D02*
X10965343Y-5842971D01*
X11025343Y-5868686D01*
X10985343Y-5794400D02*
X11025343Y-5794400D01*
X10985343Y-5820114D02*
X11016771Y-5820114D01*
X11022486Y-5817257D01*
X11025343Y-5811543D01*
X11025343Y-5802971D01*
X11022486Y-5797257D01*
X11019629Y-5794400D01*
X10993914Y-5745828D02*
X10993914Y-5765828D01*
X11025343Y-5765828D02*
X10965343Y-5765828D01*
X10965343Y-5737257D01*
X10689429Y-6690200D02*
X10692286Y-6693057D01*
X10695143Y-6701628D01*
X10695143Y-6707343D01*
X10692286Y-6715914D01*
X10686571Y-6721628D01*
X10680857Y-6724486D01*
X10669429Y-6727343D01*
X10660857Y-6727343D01*
X10649429Y-6724486D01*
X10643714Y-6721628D01*
X10638000Y-6715914D01*
X10635143Y-6707343D01*
X10635143Y-6701628D01*
X10638000Y-6693057D01*
X10640857Y-6690200D01*
X10635143Y-6670200D02*
X10635143Y-6633057D01*
X10658000Y-6653057D01*
X10658000Y-6644486D01*
X10660857Y-6638771D01*
X10663714Y-6635914D01*
X10669429Y-6633057D01*
X10683714Y-6633057D01*
X10689429Y-6635914D01*
X10692286Y-6638771D01*
X10695143Y-6644486D01*
X10695143Y-6661628D01*
X10692286Y-6667343D01*
X10689429Y-6670200D01*
X10985343Y-6804314D02*
X11025343Y-6804314D01*
X10962486Y-6818600D02*
X11005343Y-6832886D01*
X11005343Y-6795743D01*
X11022486Y-6770028D02*
X11025343Y-6770028D01*
X11031057Y-6772886D01*
X11033914Y-6775743D01*
X10965343Y-6750028D02*
X10965343Y-6710028D01*
X11025343Y-6735743D01*
X10985343Y-6661457D02*
X11025343Y-6661457D01*
X10985343Y-6687171D02*
X11016771Y-6687171D01*
X11022486Y-6684314D01*
X11025343Y-6678600D01*
X11025343Y-6670028D01*
X11022486Y-6664314D01*
X11019629Y-6661457D01*
X10993914Y-6612886D02*
X10993914Y-6632886D01*
X11025343Y-6632886D02*
X10965343Y-6632886D01*
X10965343Y-6604314D01*
X10962486Y-6538600D02*
X11039629Y-6590028D01*
X10971057Y-6521457D02*
X10968200Y-6518600D01*
X10965343Y-6512886D01*
X10965343Y-6498600D01*
X10968200Y-6492886D01*
X10971057Y-6490028D01*
X10976771Y-6487171D01*
X10982486Y-6487171D01*
X10991057Y-6490028D01*
X11025343Y-6524314D01*
X11025343Y-6487171D01*
X10971057Y-6464314D02*
X10968200Y-6461457D01*
X10965343Y-6455743D01*
X10965343Y-6441457D01*
X10968200Y-6435743D01*
X10971057Y-6432886D01*
X10976771Y-6430028D01*
X10982486Y-6430028D01*
X10991057Y-6432886D01*
X11025343Y-6467171D01*
X11025343Y-6430028D01*
X10985343Y-6378600D02*
X11025343Y-6378600D01*
X10985343Y-6404314D02*
X11016771Y-6404314D01*
X11022486Y-6401457D01*
X11025343Y-6395743D01*
X11025343Y-6387171D01*
X11022486Y-6381457D01*
X11019629Y-6378600D01*
X10993914Y-6330028D02*
X10993914Y-6350028D01*
X11025343Y-6350028D02*
X10965343Y-6350028D01*
X10965343Y-6321457D01*
X11676920Y-6727298D02*
X11674063Y-6730156D01*
X11665491Y-6733013D01*
X11659777Y-6733013D01*
X11651206Y-6730156D01*
X11645491Y-6724441D01*
X11642634Y-6718727D01*
X11639777Y-6707298D01*
X11639777Y-6698727D01*
X11642634Y-6687298D01*
X11645491Y-6681584D01*
X11651206Y-6675870D01*
X11659777Y-6673013D01*
X11665491Y-6673013D01*
X11674063Y-6675870D01*
X11676920Y-6678727D01*
X11728348Y-6693013D02*
X11728348Y-6733013D01*
X11714063Y-6670156D02*
X11699777Y-6713013D01*
X11736920Y-6713013D01*
X11676606Y-6809213D02*
X11642320Y-6809213D01*
X11659463Y-6809213D02*
X11659463Y-6749213D01*
X11653748Y-6757784D01*
X11648034Y-6763498D01*
X11642320Y-6766356D01*
X11728034Y-6769213D02*
X11728034Y-6809213D01*
X11702320Y-6769213D02*
X11702320Y-6800641D01*
X11705177Y-6806356D01*
X11710891Y-6809213D01*
X11719463Y-6809213D01*
X11725177Y-6806356D01*
X11728034Y-6803498D01*
X11776606Y-6777784D02*
X11756606Y-6777784D01*
X11756606Y-6809213D02*
X11756606Y-6749213D01*
X11785177Y-6749213D01*
X11445440Y-5243199D02*
X11442583Y-5246056D01*
X11434011Y-5248913D01*
X11428297Y-5248913D01*
X11419726Y-5246056D01*
X11414011Y-5240341D01*
X11411154Y-5234627D01*
X11408297Y-5223199D01*
X11408297Y-5214627D01*
X11411154Y-5203199D01*
X11414011Y-5197484D01*
X11419726Y-5191770D01*
X11428297Y-5188913D01*
X11434011Y-5188913D01*
X11442583Y-5191770D01*
X11445440Y-5194627D01*
X11499726Y-5188913D02*
X11471154Y-5188913D01*
X11468297Y-5217484D01*
X11471154Y-5214627D01*
X11476868Y-5211770D01*
X11491154Y-5211770D01*
X11496868Y-5214627D01*
X11499726Y-5217484D01*
X11502583Y-5223199D01*
X11502583Y-5237484D01*
X11499726Y-5243199D01*
X11496868Y-5246056D01*
X11491154Y-5248913D01*
X11476868Y-5248913D01*
X11471154Y-5246056D01*
X11468297Y-5243199D01*
X11328297Y-5265113D02*
X11334011Y-5265113D01*
X11339726Y-5267970D01*
X11342583Y-5270827D01*
X11345440Y-5276541D01*
X11348297Y-5287970D01*
X11348297Y-5302256D01*
X11345440Y-5313684D01*
X11342583Y-5319399D01*
X11339726Y-5322256D01*
X11334011Y-5325113D01*
X11328297Y-5325113D01*
X11322583Y-5322256D01*
X11319726Y-5319399D01*
X11316868Y-5313684D01*
X11314011Y-5302256D01*
X11314011Y-5287970D01*
X11316868Y-5276541D01*
X11319726Y-5270827D01*
X11322583Y-5267970D01*
X11328297Y-5265113D01*
X11376868Y-5322256D02*
X11376868Y-5325113D01*
X11374011Y-5330827D01*
X11371154Y-5333684D01*
X11434011Y-5325113D02*
X11399726Y-5325113D01*
X11416868Y-5325113D02*
X11416868Y-5265113D01*
X11411154Y-5273684D01*
X11405440Y-5279399D01*
X11399726Y-5282256D01*
X11488297Y-5265113D02*
X11459726Y-5265113D01*
X11456868Y-5293684D01*
X11459726Y-5290827D01*
X11465440Y-5287970D01*
X11479726Y-5287970D01*
X11485440Y-5290827D01*
X11488297Y-5293684D01*
X11491154Y-5299399D01*
X11491154Y-5313684D01*
X11488297Y-5319399D01*
X11485440Y-5322256D01*
X11479726Y-5325113D01*
X11465440Y-5325113D01*
X11459726Y-5322256D01*
X11456868Y-5319399D01*
X11542583Y-5285113D02*
X11542583Y-5325113D01*
X11516868Y-5285113D02*
X11516868Y-5316541D01*
X11519726Y-5322256D01*
X11525440Y-5325113D01*
X11534011Y-5325113D01*
X11539726Y-5322256D01*
X11542583Y-5319399D01*
X11591154Y-5293684D02*
X11571154Y-5293684D01*
X11571154Y-5325113D02*
X11571154Y-5265113D01*
X11599726Y-5265113D01*
X12588400Y-6600028D02*
X12585543Y-6602886D01*
X12576971Y-6605743D01*
X12571257Y-6605743D01*
X12562686Y-6602886D01*
X12556971Y-6597171D01*
X12554114Y-6591457D01*
X12551257Y-6580028D01*
X12551257Y-6571457D01*
X12554114Y-6560028D01*
X12556971Y-6554314D01*
X12562686Y-6548600D01*
X12571257Y-6545743D01*
X12576971Y-6545743D01*
X12585543Y-6548600D01*
X12588400Y-6551457D01*
X12639828Y-6545743D02*
X12628400Y-6545743D01*
X12622686Y-6548600D01*
X12619828Y-6551457D01*
X12614114Y-6560028D01*
X12611257Y-6571457D01*
X12611257Y-6594314D01*
X12614114Y-6600028D01*
X12616971Y-6602886D01*
X12622686Y-6605743D01*
X12634114Y-6605743D01*
X12639828Y-6602886D01*
X12642686Y-6600028D01*
X12645543Y-6594314D01*
X12645543Y-6580028D01*
X12642686Y-6574314D01*
X12639828Y-6571457D01*
X12634114Y-6568600D01*
X12622686Y-6568600D01*
X12616971Y-6571457D01*
X12614114Y-6574314D01*
X12611257Y-6580028D01*
X12550628Y-6653057D02*
X12553486Y-6650200D01*
X12559200Y-6647343D01*
X12573486Y-6647343D01*
X12579200Y-6650200D01*
X12582057Y-6653057D01*
X12584914Y-6658771D01*
X12584914Y-6664486D01*
X12582057Y-6673057D01*
X12547771Y-6707343D01*
X12584914Y-6707343D01*
X12607771Y-6653057D02*
X12610628Y-6650200D01*
X12616343Y-6647343D01*
X12630628Y-6647343D01*
X12636343Y-6650200D01*
X12639200Y-6653057D01*
X12642057Y-6658771D01*
X12642057Y-6664486D01*
X12639200Y-6673057D01*
X12604914Y-6707343D01*
X12642057Y-6707343D01*
X12693486Y-6667343D02*
X12693486Y-6707343D01*
X12667771Y-6667343D02*
X12667771Y-6698771D01*
X12670628Y-6704486D01*
X12676343Y-6707343D01*
X12684914Y-6707343D01*
X12690628Y-6704486D01*
X12693486Y-6701628D01*
X12742057Y-6675914D02*
X12722057Y-6675914D01*
X12722057Y-6707343D02*
X12722057Y-6647343D01*
X12750628Y-6647343D01*
X12029600Y-6600028D02*
X12026743Y-6602886D01*
X12018171Y-6605743D01*
X12012457Y-6605743D01*
X12003886Y-6602886D01*
X11998171Y-6597171D01*
X11995314Y-6591457D01*
X11992457Y-6580028D01*
X11992457Y-6571457D01*
X11995314Y-6560028D01*
X11998171Y-6554314D01*
X12003886Y-6548600D01*
X12012457Y-6545743D01*
X12018171Y-6545743D01*
X12026743Y-6548600D01*
X12029600Y-6551457D01*
X12049600Y-6545743D02*
X12089600Y-6545743D01*
X12063886Y-6605743D01*
X11864828Y-6647343D02*
X11870543Y-6647343D01*
X11876257Y-6650200D01*
X11879114Y-6653057D01*
X11881971Y-6658771D01*
X11884828Y-6670200D01*
X11884828Y-6684486D01*
X11881971Y-6695914D01*
X11879114Y-6701628D01*
X11876257Y-6704486D01*
X11870543Y-6707343D01*
X11864828Y-6707343D01*
X11859114Y-6704486D01*
X11856257Y-6701628D01*
X11853400Y-6695914D01*
X11850543Y-6684486D01*
X11850543Y-6670200D01*
X11853400Y-6658771D01*
X11856257Y-6653057D01*
X11859114Y-6650200D01*
X11864828Y-6647343D01*
X11913400Y-6704486D02*
X11913400Y-6707343D01*
X11910543Y-6713057D01*
X11907686Y-6715914D01*
X11970543Y-6707343D02*
X11936257Y-6707343D01*
X11953400Y-6707343D02*
X11953400Y-6647343D01*
X11947686Y-6655914D01*
X11941971Y-6661628D01*
X11936257Y-6664486D01*
X12021971Y-6667343D02*
X12021971Y-6707343D01*
X11996257Y-6667343D02*
X11996257Y-6698771D01*
X11999114Y-6704486D01*
X12004828Y-6707343D01*
X12013400Y-6707343D01*
X12019114Y-6704486D01*
X12021971Y-6701628D01*
X12070543Y-6675914D02*
X12050543Y-6675914D01*
X12050543Y-6707343D02*
X12050543Y-6647343D01*
X12079114Y-6647343D01*
X10318600Y-5602443D02*
X10318600Y-5542443D01*
X10318600Y-5571014D02*
X10352886Y-5571014D01*
X10352886Y-5602443D02*
X10352886Y-5542443D01*
X10410029Y-5602443D02*
X10381457Y-5602443D01*
X10381457Y-5542443D01*
X10461457Y-5602443D02*
X10427171Y-5602443D01*
X10444314Y-5602443D02*
X10444314Y-5542443D01*
X10438600Y-5551014D01*
X10432886Y-5556729D01*
X10427171Y-5559586D01*
X10307171Y-5621500D02*
X10301457Y-5618643D01*
X10292886Y-5618643D01*
X10284314Y-5621500D01*
X10278600Y-5627214D01*
X10275743Y-5632928D01*
X10272886Y-5644357D01*
X10272886Y-5652928D01*
X10275743Y-5664357D01*
X10278600Y-5670071D01*
X10284314Y-5675786D01*
X10292886Y-5678643D01*
X10298600Y-5678643D01*
X10307171Y-5675786D01*
X10310029Y-5672928D01*
X10310029Y-5652928D01*
X10298600Y-5652928D01*
X10335743Y-5678643D02*
X10335743Y-5638643D01*
X10335743Y-5650071D02*
X10338600Y-5644357D01*
X10341457Y-5641500D01*
X10347171Y-5638643D01*
X10352886Y-5638643D01*
X10395743Y-5675786D02*
X10390029Y-5678643D01*
X10378600Y-5678643D01*
X10372886Y-5675786D01*
X10370029Y-5670071D01*
X10370029Y-5647214D01*
X10372886Y-5641500D01*
X10378600Y-5638643D01*
X10390029Y-5638643D01*
X10395743Y-5641500D01*
X10398600Y-5647214D01*
X10398600Y-5652928D01*
X10370029Y-5658643D01*
X10447171Y-5675786D02*
X10441457Y-5678643D01*
X10430029Y-5678643D01*
X10424314Y-5675786D01*
X10421457Y-5670071D01*
X10421457Y-5647214D01*
X10424314Y-5641500D01*
X10430029Y-5638643D01*
X10441457Y-5638643D01*
X10447171Y-5641500D01*
X10450029Y-5647214D01*
X10450029Y-5652928D01*
X10421457Y-5658643D01*
X10475743Y-5638643D02*
X10475743Y-5678643D01*
X10475743Y-5644357D02*
X10478600Y-5641500D01*
X10484314Y-5638643D01*
X10492886Y-5638643D01*
X10498600Y-5641500D01*
X10501457Y-5647214D01*
X10501457Y-5678643D01*
X10318600Y-5411943D02*
X10318600Y-5351943D01*
X10318600Y-5380514D02*
X10352886Y-5380514D01*
X10352886Y-5411943D02*
X10352886Y-5351943D01*
X10410029Y-5411943D02*
X10381457Y-5411943D01*
X10381457Y-5351943D01*
X10427171Y-5357657D02*
X10430029Y-5354800D01*
X10435743Y-5351943D01*
X10450029Y-5351943D01*
X10455743Y-5354800D01*
X10458600Y-5357657D01*
X10461457Y-5363371D01*
X10461457Y-5369086D01*
X10458600Y-5377657D01*
X10424314Y-5411943D01*
X10461457Y-5411943D01*
X10328914Y-5488143D02*
X10308914Y-5459571D01*
X10294629Y-5488143D02*
X10294629Y-5428143D01*
X10317486Y-5428143D01*
X10323200Y-5431000D01*
X10326057Y-5433857D01*
X10328914Y-5439571D01*
X10328914Y-5448143D01*
X10326057Y-5453857D01*
X10323200Y-5456714D01*
X10317486Y-5459571D01*
X10294629Y-5459571D01*
X10377486Y-5485286D02*
X10371771Y-5488143D01*
X10360343Y-5488143D01*
X10354629Y-5485286D01*
X10351771Y-5479571D01*
X10351771Y-5456714D01*
X10354629Y-5451000D01*
X10360343Y-5448143D01*
X10371771Y-5448143D01*
X10377486Y-5451000D01*
X10380343Y-5456714D01*
X10380343Y-5462429D01*
X10351771Y-5468143D01*
X10431771Y-5488143D02*
X10431771Y-5428143D01*
X10431771Y-5485286D02*
X10426057Y-5488143D01*
X10414629Y-5488143D01*
X10408914Y-5485286D01*
X10406057Y-5482429D01*
X10403200Y-5476714D01*
X10403200Y-5459571D01*
X10406057Y-5453857D01*
X10408914Y-5451000D01*
X10414629Y-5448143D01*
X10426057Y-5448143D01*
X10431771Y-5451000D01*
X10318600Y-5234143D02*
X10318600Y-5174143D01*
X10318600Y-5202714D02*
X10352886Y-5202714D01*
X10352886Y-5234143D02*
X10352886Y-5174143D01*
X10410029Y-5234143D02*
X10381457Y-5234143D01*
X10381457Y-5174143D01*
X10424314Y-5174143D02*
X10461457Y-5174143D01*
X10441457Y-5197000D01*
X10450029Y-5197000D01*
X10455743Y-5199857D01*
X10458600Y-5202714D01*
X10461457Y-5208429D01*
X10461457Y-5222714D01*
X10458600Y-5228429D01*
X10455743Y-5231286D01*
X10450029Y-5234143D01*
X10432886Y-5234143D01*
X10427171Y-5231286D01*
X10424314Y-5228429D01*
X10247486Y-5281771D02*
X10247486Y-5310343D01*
X10227486Y-5250343D02*
X10247486Y-5281771D01*
X10267486Y-5250343D01*
X10310343Y-5307486D02*
X10304629Y-5310343D01*
X10293200Y-5310343D01*
X10287486Y-5307486D01*
X10284629Y-5301771D01*
X10284629Y-5278914D01*
X10287486Y-5273200D01*
X10293200Y-5270343D01*
X10304629Y-5270343D01*
X10310343Y-5273200D01*
X10313200Y-5278914D01*
X10313200Y-5284629D01*
X10284629Y-5290343D01*
X10347486Y-5310343D02*
X10341771Y-5307486D01*
X10338914Y-5301771D01*
X10338914Y-5250343D01*
X10378914Y-5310343D02*
X10373200Y-5307486D01*
X10370343Y-5301771D01*
X10370343Y-5250343D01*
X10410343Y-5310343D02*
X10404629Y-5307486D01*
X10401771Y-5304629D01*
X10398914Y-5298914D01*
X10398914Y-5281771D01*
X10401771Y-5276057D01*
X10404629Y-5273200D01*
X10410343Y-5270343D01*
X10418914Y-5270343D01*
X10424629Y-5273200D01*
X10427486Y-5276057D01*
X10430343Y-5281771D01*
X10430343Y-5298914D01*
X10427486Y-5304629D01*
X10424629Y-5307486D01*
X10418914Y-5310343D01*
X10410343Y-5310343D01*
X10450343Y-5270343D02*
X10461771Y-5310343D01*
X10473200Y-5281771D01*
X10484629Y-5310343D01*
X10496057Y-5270343D01*
D13*
X11626139Y-5513798D02*
X11597594Y-5513798D01*
X11597594Y-5453854D01*
X11677520Y-5513798D02*
X11643266Y-5513798D01*
X11660393Y-5513798D02*
X11660393Y-5453854D01*
X11654684Y-5462417D01*
X11648975Y-5468126D01*
X11643266Y-5470980D01*
D14*
X11607404Y-5891568D02*
X11604380Y-5888544D01*
X11601356Y-5882497D01*
X11601356Y-5867378D01*
X11604380Y-5861330D01*
X11607404Y-5858306D01*
X11613451Y-5855282D01*
X11619499Y-5855282D01*
X11628570Y-5858306D01*
X11664856Y-5894592D01*
X11664856Y-5855282D01*
X11661832Y-5825044D02*
X11664856Y-5825044D01*
X11670904Y-5828068D01*
X11673928Y-5831092D01*
X11607404Y-5800854D02*
X11604380Y-5797830D01*
X11601356Y-5791782D01*
X11601356Y-5776663D01*
X11604380Y-5770616D01*
X11607404Y-5767592D01*
X11613451Y-5764568D01*
X11619499Y-5764568D01*
X11628570Y-5767592D01*
X11664856Y-5803878D01*
X11664856Y-5764568D01*
X11622523Y-5710139D02*
X11664856Y-5710139D01*
X11622523Y-5737354D02*
X11655785Y-5737354D01*
X11661832Y-5734330D01*
X11664856Y-5728282D01*
X11664856Y-5719211D01*
X11661832Y-5713163D01*
X11658808Y-5710139D01*
X11664856Y-5679901D02*
X11601356Y-5679901D01*
X11631594Y-5679901D02*
X11631594Y-5643616D01*
X11664856Y-5643616D02*
X11601356Y-5643616D01*
D15*
D11*
X11216800Y-5602443D02*
X11196800Y-5573871D01*
X11182514Y-5602443D02*
X11182514Y-5542443D01*
X11205371Y-5542443D01*
X11211086Y-5545300D01*
X11213943Y-5548157D01*
X11216800Y-5553871D01*
X11216800Y-5562443D01*
X11213943Y-5568157D01*
X11211086Y-5571014D01*
X11205371Y-5573871D01*
X11182514Y-5573871D01*
X11273943Y-5602443D02*
X11239657Y-5602443D01*
X11256800Y-5602443D02*
X11256800Y-5542443D01*
X11251086Y-5551014D01*
X11245371Y-5556729D01*
X11239657Y-5559586D01*
X11219657Y-5678643D02*
X11185371Y-5678643D01*
X11202514Y-5678643D02*
X11202514Y-5618643D01*
X11196800Y-5627214D01*
X11191086Y-5632928D01*
X11185371Y-5635786D01*
X11245371Y-5678643D02*
X11245371Y-5618643D01*
X11251086Y-5655786D02*
X11268228Y-5678643D01*
X11268228Y-5638643D02*
X11245371Y-5661500D01*
X11216800Y-5411943D02*
X11196800Y-5383371D01*
X11182514Y-5411943D02*
X11182514Y-5351943D01*
X11205371Y-5351943D01*
X11211086Y-5354800D01*
X11213943Y-5357657D01*
X11216800Y-5363371D01*
X11216800Y-5371943D01*
X11213943Y-5377657D01*
X11211086Y-5380514D01*
X11205371Y-5383371D01*
X11182514Y-5383371D01*
X11239657Y-5357657D02*
X11242514Y-5354800D01*
X11248228Y-5351943D01*
X11262514Y-5351943D01*
X11268228Y-5354800D01*
X11271086Y-5357657D01*
X11273943Y-5363371D01*
X11273943Y-5369086D01*
X11271086Y-5377657D01*
X11236800Y-5411943D01*
X11273943Y-5411943D01*
X11219657Y-5488143D02*
X11185371Y-5488143D01*
X11202514Y-5488143D02*
X11202514Y-5428143D01*
X11196800Y-5436714D01*
X11191086Y-5442429D01*
X11185371Y-5445286D01*
X11245371Y-5488143D02*
X11245371Y-5428143D01*
X11251086Y-5465286D02*
X11268228Y-5488143D01*
X11268228Y-5448143D02*
X11245371Y-5471000D01*
X11216800Y-5246843D02*
X11196800Y-5218271D01*
X11182514Y-5246843D02*
X11182514Y-5186843D01*
X11205371Y-5186843D01*
X11211086Y-5189700D01*
X11213943Y-5192557D01*
X11216800Y-5198271D01*
X11216800Y-5206843D01*
X11213943Y-5212557D01*
X11211086Y-5215414D01*
X11205371Y-5218271D01*
X11182514Y-5218271D01*
X11236800Y-5186843D02*
X11273943Y-5186843D01*
X11253943Y-5209700D01*
X11262514Y-5209700D01*
X11268228Y-5212557D01*
X11271086Y-5215414D01*
X11273943Y-5221129D01*
X11273943Y-5235414D01*
X11271086Y-5241129D01*
X11268228Y-5243986D01*
X11262514Y-5246843D01*
X11245371Y-5246843D01*
X11239657Y-5243986D01*
X11236800Y-5241129D01*
X11219657Y-5323043D02*
X11185371Y-5323043D01*
X11202514Y-5323043D02*
X11202514Y-5263043D01*
X11196800Y-5271614D01*
X11191086Y-5277329D01*
X11185371Y-5280186D01*
X11245371Y-5323043D02*
X11245371Y-5263043D01*
X11251086Y-5300186D02*
X11268228Y-5323043D01*
X11268228Y-5283043D02*
X11245371Y-5305900D01*
X12055050Y-5691343D02*
X12035050Y-5662771D01*
X12020764Y-5691343D02*
X12020764Y-5631343D01*
X12043621Y-5631343D01*
X12049336Y-5634200D01*
X12052193Y-5637057D01*
X12055050Y-5642771D01*
X12055050Y-5651343D01*
X12052193Y-5657057D01*
X12049336Y-5659914D01*
X12043621Y-5662771D01*
X12020764Y-5662771D01*
X12106478Y-5651343D02*
X12106478Y-5691343D01*
X12092193Y-5628486D02*
X12077907Y-5671343D01*
X12115050Y-5671343D01*
X12042993Y-5758657D02*
X12037278Y-5755800D01*
X12034421Y-5752943D01*
X12031564Y-5747228D01*
X12031564Y-5744371D01*
X12034421Y-5738657D01*
X12037278Y-5735800D01*
X12042993Y-5732943D01*
X12054421Y-5732943D01*
X12060136Y-5735800D01*
X12062993Y-5738657D01*
X12065850Y-5744371D01*
X12065850Y-5747228D01*
X12062993Y-5752943D01*
X12060136Y-5755800D01*
X12054421Y-5758657D01*
X12042993Y-5758657D01*
X12037278Y-5761514D01*
X12034421Y-5764371D01*
X12031564Y-5770086D01*
X12031564Y-5781514D01*
X12034421Y-5787228D01*
X12037278Y-5790086D01*
X12042993Y-5792943D01*
X12054421Y-5792943D01*
X12060136Y-5790086D01*
X12062993Y-5787228D01*
X12065850Y-5781514D01*
X12065850Y-5770086D01*
X12062993Y-5764371D01*
X12060136Y-5761514D01*
X12054421Y-5758657D01*
X12094421Y-5790086D02*
X12094421Y-5792943D01*
X12091564Y-5798657D01*
X12088707Y-5801514D01*
X12117278Y-5738657D02*
X12120136Y-5735800D01*
X12125850Y-5732943D01*
X12140136Y-5732943D01*
X12145850Y-5735800D01*
X12148707Y-5738657D01*
X12151564Y-5744371D01*
X12151564Y-5750086D01*
X12148707Y-5758657D01*
X12114421Y-5792943D01*
X12151564Y-5792943D01*
X12177278Y-5792943D02*
X12177278Y-5732943D01*
X12182993Y-5770086D02*
X12200136Y-5792943D01*
X12200136Y-5752943D02*
X12177278Y-5775800D01*
X12436050Y-5767543D02*
X12416050Y-5738971D01*
X12401764Y-5767543D02*
X12401764Y-5707543D01*
X12424621Y-5707543D01*
X12430336Y-5710400D01*
X12433193Y-5713257D01*
X12436050Y-5718971D01*
X12436050Y-5727543D01*
X12433193Y-5733257D01*
X12430336Y-5736114D01*
X12424621Y-5738971D01*
X12401764Y-5738971D01*
X12490336Y-5707543D02*
X12461764Y-5707543D01*
X12458907Y-5736114D01*
X12461764Y-5733257D01*
X12467478Y-5730400D01*
X12481764Y-5730400D01*
X12487478Y-5733257D01*
X12490336Y-5736114D01*
X12493193Y-5741828D01*
X12493193Y-5756114D01*
X12490336Y-5761828D01*
X12487478Y-5764686D01*
X12481764Y-5767543D01*
X12467478Y-5767543D01*
X12461764Y-5764686D01*
X12458907Y-5761828D01*
X12317478Y-5843743D02*
X12283193Y-5843743D01*
X12300336Y-5843743D02*
X12300336Y-5783743D01*
X12294621Y-5792314D01*
X12288907Y-5798028D01*
X12283193Y-5800886D01*
X12354621Y-5783743D02*
X12360336Y-5783743D01*
X12366050Y-5786600D01*
X12368907Y-5789457D01*
X12371764Y-5795171D01*
X12374621Y-5806600D01*
X12374621Y-5820886D01*
X12371764Y-5832314D01*
X12368907Y-5838028D01*
X12366050Y-5840886D01*
X12360336Y-5843743D01*
X12354621Y-5843743D01*
X12348907Y-5840886D01*
X12346050Y-5838028D01*
X12343193Y-5832314D01*
X12340336Y-5820886D01*
X12340336Y-5806600D01*
X12343193Y-5795171D01*
X12346050Y-5789457D01*
X12348907Y-5786600D01*
X12354621Y-5783743D01*
X12400336Y-5843743D02*
X12400336Y-5783743D01*
X12406050Y-5820886D02*
X12423193Y-5843743D01*
X12423193Y-5803743D02*
X12400336Y-5826600D01*
X12491764Y-5780886D02*
X12440336Y-5858028D01*
X12511764Y-5843743D02*
X12511764Y-5783743D01*
X12546050Y-5843743D01*
X12546050Y-5783743D01*
X12608907Y-5838028D02*
X12606050Y-5840886D01*
X12597478Y-5843743D01*
X12591764Y-5843743D01*
X12583193Y-5840886D01*
X12577478Y-5835171D01*
X12574621Y-5829457D01*
X12571764Y-5818028D01*
X12571764Y-5809457D01*
X12574621Y-5798028D01*
X12577478Y-5792314D01*
X12583193Y-5786600D01*
X12591764Y-5783743D01*
X12597478Y-5783743D01*
X12606050Y-5786600D01*
X12608907Y-5789457D01*
X12080400Y-5284943D02*
X12060400Y-5256371D01*
X12046114Y-5284943D02*
X12046114Y-5224943D01*
X12068971Y-5224943D01*
X12074686Y-5227800D01*
X12077543Y-5230657D01*
X12080400Y-5236371D01*
X12080400Y-5244943D01*
X12077543Y-5250657D01*
X12074686Y-5253514D01*
X12068971Y-5256371D01*
X12046114Y-5256371D01*
X12131828Y-5224943D02*
X12120400Y-5224943D01*
X12114686Y-5227800D01*
X12111828Y-5230657D01*
X12106114Y-5239229D01*
X12103257Y-5250657D01*
X12103257Y-5273514D01*
X12106114Y-5279229D01*
X12108971Y-5282086D01*
X12114686Y-5284943D01*
X12126114Y-5284943D01*
X12131828Y-5282086D01*
X12134686Y-5279229D01*
X12137543Y-5273514D01*
X12137543Y-5259229D01*
X12134686Y-5253514D01*
X12131828Y-5250657D01*
X12126114Y-5247800D01*
X12114686Y-5247800D01*
X12108971Y-5250657D01*
X12106114Y-5253514D01*
X12103257Y-5259229D01*
X11992143Y-5301143D02*
X12029286Y-5301143D01*
X12009286Y-5324000D01*
X12017857Y-5324000D01*
X12023571Y-5326857D01*
X12026428Y-5329714D01*
X12029286Y-5335429D01*
X12029286Y-5349714D01*
X12026428Y-5355429D01*
X12023571Y-5358286D01*
X12017857Y-5361143D01*
X12000714Y-5361143D01*
X11995000Y-5358286D01*
X11992143Y-5355429D01*
X12049286Y-5301143D02*
X12086428Y-5301143D01*
X12066428Y-5324000D01*
X12075000Y-5324000D01*
X12080714Y-5326857D01*
X12083571Y-5329714D01*
X12086428Y-5335429D01*
X12086428Y-5349714D01*
X12083571Y-5355429D01*
X12080714Y-5358286D01*
X12075000Y-5361143D01*
X12057857Y-5361143D01*
X12052143Y-5358286D01*
X12049286Y-5355429D01*
X12112143Y-5361143D02*
X12112143Y-5301143D01*
X12117857Y-5338286D02*
X12135000Y-5361143D01*
X12135000Y-5321143D02*
X12112143Y-5344000D01*
X12219143Y-6182200D02*
X12190571Y-6202200D01*
X12219143Y-6216486D02*
X12159143Y-6216486D01*
X12159143Y-6193628D01*
X12162000Y-6187914D01*
X12164857Y-6185057D01*
X12170571Y-6182200D01*
X12179143Y-6182200D01*
X12184857Y-6185057D01*
X12187714Y-6187914D01*
X12190571Y-6193628D01*
X12190571Y-6216486D01*
X12159143Y-6162200D02*
X12159143Y-6122200D01*
X12219143Y-6147914D01*
X11905143Y-6388886D02*
X11905143Y-6383171D01*
X11908000Y-6377457D01*
X11910857Y-6374600D01*
X11916571Y-6371743D01*
X11928000Y-6368886D01*
X11942286Y-6368886D01*
X11953714Y-6371743D01*
X11959428Y-6374600D01*
X11962286Y-6377457D01*
X11965143Y-6383171D01*
X11965143Y-6388886D01*
X11962286Y-6394600D01*
X11959428Y-6397457D01*
X11953714Y-6400314D01*
X11942286Y-6403171D01*
X11928000Y-6403171D01*
X11916571Y-6400314D01*
X11910857Y-6397457D01*
X11908000Y-6394600D01*
X11905143Y-6388886D01*
X11962286Y-6340314D02*
X11965143Y-6340314D01*
X11970857Y-6343171D01*
X11973714Y-6346028D01*
X11965143Y-6283171D02*
X11965143Y-6317457D01*
X11965143Y-6300314D02*
X11905143Y-6300314D01*
X11913714Y-6306028D01*
X11919428Y-6311743D01*
X11922286Y-6317457D01*
X11965143Y-6257457D02*
X11925143Y-6257457D01*
X11936571Y-6257457D02*
X11930857Y-6254600D01*
X11928000Y-6251743D01*
X11925143Y-6246028D01*
X11925143Y-6240314D01*
X12447743Y-6182200D02*
X12419171Y-6202200D01*
X12447743Y-6216486D02*
X12387743Y-6216486D01*
X12387743Y-6193628D01*
X12390600Y-6187914D01*
X12393457Y-6185057D01*
X12399171Y-6182200D01*
X12407743Y-6182200D01*
X12413457Y-6185057D01*
X12416314Y-6187914D01*
X12419171Y-6193628D01*
X12419171Y-6216486D01*
X12413457Y-6147914D02*
X12410600Y-6153628D01*
X12407743Y-6156486D01*
X12402028Y-6159343D01*
X12399171Y-6159343D01*
X12393457Y-6156486D01*
X12390600Y-6153628D01*
X12387743Y-6147914D01*
X12387743Y-6136486D01*
X12390600Y-6130771D01*
X12393457Y-6127914D01*
X12399171Y-6125057D01*
X12402028Y-6125057D01*
X12407743Y-6127914D01*
X12410600Y-6130771D01*
X12413457Y-6136486D01*
X12413457Y-6147914D01*
X12416314Y-6153628D01*
X12419171Y-6156486D01*
X12424886Y-6159343D01*
X12436314Y-6159343D01*
X12442028Y-6156486D01*
X12444886Y-6153628D01*
X12447743Y-6147914D01*
X12447743Y-6136486D01*
X12444886Y-6130771D01*
X12442028Y-6127914D01*
X12436314Y-6125057D01*
X12424886Y-6125057D01*
X12419171Y-6127914D01*
X12416314Y-6130771D01*
X12413457Y-6136486D01*
X11981343Y-6388886D02*
X11981343Y-6383171D01*
X11984200Y-6377457D01*
X11987057Y-6374600D01*
X11992771Y-6371743D01*
X12004200Y-6368886D01*
X12018486Y-6368886D01*
X12029914Y-6371743D01*
X12035628Y-6374600D01*
X12038486Y-6377457D01*
X12041343Y-6383171D01*
X12041343Y-6388886D01*
X12038486Y-6394600D01*
X12035628Y-6397457D01*
X12029914Y-6400314D01*
X12018486Y-6403171D01*
X12004200Y-6403171D01*
X11992771Y-6400314D01*
X11987057Y-6397457D01*
X11984200Y-6394600D01*
X11981343Y-6388886D01*
X12038486Y-6340314D02*
X12041343Y-6340314D01*
X12047057Y-6343171D01*
X12049914Y-6346028D01*
X12041343Y-6283171D02*
X12041343Y-6317457D01*
X12041343Y-6300314D02*
X11981343Y-6300314D01*
X11989914Y-6306028D01*
X11995628Y-6311743D01*
X11998486Y-6317457D01*
X12041343Y-6257457D02*
X12001343Y-6257457D01*
X12012771Y-6257457D02*
X12007057Y-6254600D01*
X12004200Y-6251743D01*
X12001343Y-6246028D01*
X12001343Y-6240314D01*
X10452143Y-6503194D02*
X10500714Y-6503194D01*
X10506429Y-6500337D01*
X10509286Y-6497480D01*
X10512143Y-6491766D01*
X10512143Y-6480337D01*
X10509286Y-6474623D01*
X10506429Y-6471766D01*
X10500714Y-6468908D01*
X10452143Y-6468908D01*
X10509286Y-6443194D02*
X10512143Y-6434623D01*
X10512143Y-6420337D01*
X10509286Y-6414623D01*
X10506429Y-6411766D01*
X10500714Y-6408908D01*
X10495000Y-6408908D01*
X10489286Y-6411766D01*
X10486429Y-6414623D01*
X10483571Y-6420337D01*
X10480714Y-6431766D01*
X10477857Y-6437480D01*
X10475000Y-6440337D01*
X10469286Y-6443194D01*
X10463571Y-6443194D01*
X10457857Y-6440337D01*
X10455000Y-6437480D01*
X10452143Y-6431766D01*
X10452143Y-6417480D01*
X10455000Y-6408908D01*
X10480714Y-6363194D02*
X10483571Y-6354623D01*
X10486429Y-6351766D01*
X10492143Y-6348908D01*
X10500714Y-6348908D01*
X10506429Y-6351766D01*
X10509286Y-6354623D01*
X10512143Y-6360337D01*
X10512143Y-6383194D01*
X10452143Y-6383194D01*
X10452143Y-6363194D01*
X10455000Y-6357480D01*
X10457857Y-6354623D01*
X10463571Y-6351766D01*
X10469286Y-6351766D01*
X10475000Y-6354623D01*
X10477857Y-6357480D01*
X10480714Y-6363194D01*
X10480714Y-6383194D01*
X10532143Y-6263194D02*
X10446429Y-6263194D01*
X10495000Y-6177480D02*
X10495000Y-6148908D01*
X10512143Y-6183194D02*
X10452143Y-6163194D01*
X10512143Y-6143194D01*
X10506429Y-6088908D02*
X10509286Y-6091766D01*
X10512143Y-6100337D01*
X10512143Y-6106051D01*
X10509286Y-6114623D01*
X10503571Y-6120337D01*
X10497857Y-6123194D01*
X10486429Y-6126051D01*
X10477857Y-6126051D01*
X10466429Y-6123194D01*
X10460714Y-6120337D01*
X10455000Y-6114623D01*
X10452143Y-6106051D01*
X10452143Y-6100337D01*
X10455000Y-6091766D01*
X10457857Y-6088908D01*
X10150000Y-5742143D02*
X10130000Y-5713571D01*
X10115714Y-5742143D02*
X10115714Y-5682143D01*
X10138571Y-5682143D01*
X10144286Y-5685000D01*
X10147143Y-5687857D01*
X10150000Y-5693571D01*
X10150000Y-5702143D01*
X10147143Y-5707857D01*
X10144286Y-5710714D01*
X10138571Y-5713571D01*
X10115714Y-5713571D01*
X10178571Y-5742143D02*
X10190000Y-5742143D01*
X10195714Y-5739286D01*
X10198571Y-5736428D01*
X10204286Y-5727857D01*
X10207143Y-5716428D01*
X10207143Y-5693571D01*
X10204286Y-5687857D01*
X10201429Y-5685000D01*
X10195714Y-5682143D01*
X10184286Y-5682143D01*
X10178571Y-5685000D01*
X10175714Y-5687857D01*
X10172857Y-5693571D01*
X10172857Y-5707857D01*
X10175714Y-5713571D01*
X10178571Y-5716428D01*
X10184286Y-5719286D01*
X10195714Y-5719286D01*
X10201429Y-5716428D01*
X10204286Y-5713571D01*
X10207143Y-5707857D01*
X10095714Y-6173943D02*
X10061429Y-6173943D01*
X10078571Y-6173943D02*
X10078571Y-6113943D01*
X10072857Y-6122514D01*
X10067143Y-6128228D01*
X10061429Y-6131086D01*
X10132857Y-6113943D02*
X10138571Y-6113943D01*
X10144286Y-6116800D01*
X10147143Y-6119657D01*
X10150000Y-6125371D01*
X10152857Y-6136800D01*
X10152857Y-6151086D01*
X10150000Y-6162514D01*
X10147143Y-6168228D01*
X10144286Y-6171086D01*
X10138571Y-6173943D01*
X10132857Y-6173943D01*
X10127143Y-6171086D01*
X10124286Y-6168228D01*
X10121429Y-6162514D01*
X10118571Y-6151086D01*
X10118571Y-6136800D01*
X10121429Y-6125371D01*
X10124286Y-6119657D01*
X10127143Y-6116800D01*
X10132857Y-6113943D01*
X10190000Y-6113943D02*
X10195714Y-6113943D01*
X10201429Y-6116800D01*
X10204286Y-6119657D01*
X10207143Y-6125371D01*
X10210000Y-6136800D01*
X10210000Y-6151086D01*
X10207143Y-6162514D01*
X10204286Y-6168228D01*
X10201429Y-6171086D01*
X10195714Y-6173943D01*
X10190000Y-6173943D01*
X10184286Y-6171086D01*
X10181429Y-6168228D01*
X10178571Y-6162514D01*
X10175714Y-6151086D01*
X10175714Y-6136800D01*
X10178571Y-6125371D01*
X10181429Y-6119657D01*
X10184286Y-6116800D01*
X10190000Y-6113943D01*
X10235714Y-6173943D02*
X10235714Y-6113943D01*
X10241429Y-6151086D02*
X10258571Y-6173943D01*
X10258571Y-6133943D02*
X10235714Y-6156800D01*
X10203343Y-6396028D02*
X10263343Y-6376028D01*
X10203343Y-6356028D01*
X10203343Y-6344600D02*
X10203343Y-6310314D01*
X10263343Y-6327457D02*
X10203343Y-6327457D01*
X10263343Y-6258886D02*
X10263343Y-6293171D01*
X10263343Y-6276028D02*
X10203343Y-6276028D01*
X10211914Y-6281743D01*
X10217629Y-6287457D01*
X10220486Y-6293171D01*
D13*
X10364918Y-6551531D02*
X10304974Y-6551531D01*
X10364918Y-6488732D02*
X10336373Y-6508714D01*
X10364918Y-6522986D02*
X10304974Y-6522986D01*
X10304974Y-6500150D01*
X10307828Y-6494441D01*
X10310682Y-6491587D01*
X10316391Y-6488732D01*
X10324955Y-6488732D01*
X10330664Y-6491587D01*
X10333518Y-6494441D01*
X10336373Y-6500150D01*
X10336373Y-6522986D01*
X10364918Y-6434497D02*
X10364918Y-6463042D01*
X10304974Y-6463042D01*
X10364918Y-6414516D02*
X10304974Y-6414516D01*
X10347791Y-6394535D01*
X10304974Y-6374553D01*
X10364918Y-6374553D01*
X10364918Y-6317464D02*
X10364918Y-6346008D01*
X10304974Y-6346008D01*
X10310682Y-6300337D02*
X10307828Y-6297482D01*
X10304974Y-6291773D01*
X10304974Y-6277501D01*
X10307828Y-6271792D01*
X10310682Y-6268938D01*
X10316391Y-6266083D01*
X10322100Y-6266083D01*
X10330664Y-6268938D01*
X10364918Y-6303191D01*
X10364918Y-6266083D01*
X10304974Y-6211848D02*
X10304974Y-6240393D01*
X10333518Y-6243247D01*
X10330664Y-6240393D01*
X10327809Y-6234684D01*
X10327809Y-6220412D01*
X10330664Y-6214703D01*
X10333518Y-6211848D01*
X10339227Y-6208994D01*
X10353500Y-6208994D01*
X10359209Y-6211848D01*
X10362063Y-6214703D01*
X10364918Y-6220412D01*
X10364918Y-6234684D01*
X10362063Y-6240393D01*
X10359209Y-6243247D01*
X10304974Y-6171885D02*
X10304974Y-6166176D01*
X10307828Y-6160468D01*
X10310682Y-6157613D01*
X10316391Y-6154759D01*
X10327809Y-6151904D01*
X10342082Y-6151904D01*
X10353500Y-6154759D01*
X10359209Y-6157613D01*
X10362063Y-6160468D01*
X10364918Y-6166176D01*
X10364918Y-6171885D01*
X10362063Y-6177594D01*
X10359209Y-6180449D01*
X10353500Y-6183303D01*
X10342082Y-6186158D01*
X10327809Y-6186158D01*
X10316391Y-6183303D01*
X10310682Y-6180449D01*
X10307828Y-6177594D01*
X10304974Y-6171885D01*
X10310682Y-6129068D02*
X10307828Y-6126214D01*
X10304974Y-6120505D01*
X10304974Y-6106232D01*
X10307828Y-6100524D01*
X10310682Y-6097669D01*
X10316391Y-6094815D01*
X10322100Y-6094815D01*
X10330664Y-6097669D01*
X10364918Y-6131923D01*
X10364918Y-6094815D01*
M02*
