M48
; DRILL file {KiCad (5.1.5)-1} date 21.06.2020 0:53:36
; FORMAT={2:4/ absolute / inch / keep zeros}
; #@! TF.CreationDate,2020-06-21T00:53:36+02:00
; #@! TF.GenerationSoftware,Kicad,Pcbnew,(5.1.5)-1
; #@! TF.FileFunction,Plated,1,2,PTH
FMAT,2
INCH
T1C0.0157
T2C0.0315
T3C0.0354
T4C0.0472
T5C0.1260
%
G90
G05
T1
X036024Y-020512
X036024Y-026693
X037598Y-020512
X037598Y-026693
X038524Y-023618
X038707Y-023991
X040551Y-026693
X041339Y-020512
X041369Y-021095
X041403Y-021700
X041971Y-023661
X042077Y-022676
X042126Y-026693
X042626Y-024804
X042649Y-022826
X043669Y-022663
X043680Y-024813
X043701Y-026693
X043865Y-026224
X043980Y-024829
X044347Y-022685
X044356Y-022992
X044516Y-020989
X044608Y-020512
X045472Y-020512
X045651Y-026698
X046190Y-024033
X046312Y-026204
X046637Y-024037
X046737Y-024880
X047047Y-026693
X047244Y-020512
X047422Y-021322
X047487Y-021891
X048206Y-022529
X048425Y-026693
X048455Y-024372
X049449Y-021128
X049606Y-020512
X049803Y-026693
X050984Y-020512
X050984Y-026693
X045269Y-024385
X045269Y-024700
X045269Y-025015
X045269Y-025330
X045269Y-025645
X045584Y-024385
X045584Y-024700
X045584Y-025015
X045584Y-025330
X045584Y-025645
T2
X036004Y-022323
X036004Y-024843
T3
X050700Y-021400
X050700Y-022400
X050700Y-023400
X050700Y-024400
X050700Y-025400
X035200Y-026400
X035200Y-020800
T4
X035079Y-021988
X035079Y-025177
T5
X039410Y-021331
X039400Y-025890
T0
M30
