M48
;DRILL file {pcbnew (2014-07-12 BZR 4289 GOST-COMMITTERS)-product} date 07.04.2017 13:29:09
;FORMAT={2:4/ absolute / inch / keep zeros}
FMAT,2
INCH,TZ
T1C0.016
T2C0.035
T3C0.126
%
G90
G05
M72
T1
X035946Y-022832
X035946Y-024368
X036024Y-020512
X036024Y-026693
X037598Y-020512
X037598Y-026693
X038524Y-023618
X038707Y-023991
X040551Y-026693
X041339Y-020512
X041369Y-021095
X041403Y-021700
X041971Y-023661
X042077Y-022676
X042126Y-026693
X042626Y-024804
X042649Y-022826
X043669Y-022663
X043680Y-024813
X043701Y-026693
X043865Y-026224
X043980Y-024829
X044347Y-022685
X044356Y-022992
X044516Y-020989
X044608Y-020512
X045269Y-024385
X045269Y-024700
X045269Y-025015
X045269Y-025330
X045269Y-025645
X045472Y-020512
X045584Y-024385
X045584Y-024700
X045584Y-025015
X045584Y-025330
X045584Y-025645
X045651Y-026698
X046190Y-024033
X046312Y-026204
X046637Y-024037
X046737Y-024880
X047047Y-026693
X047244Y-020512
X047422Y-021322
X047487Y-021891
X048206Y-022529
X048425Y-026693
X048455Y-024372
X049449Y-021128
X049606Y-020512
X049803Y-026693
X050984Y-020512
X050984Y-026693
T2
X035200Y-020800
X035200Y-026400
X036600Y-022734
X036600Y-024466
X050700Y-021400
X050700Y-022400
X050700Y-023400
X050700Y-024400
X050700Y-025400
T3
X039400Y-025890
X039410Y-021331
T0
M30
