M48
;DRILL file {kicad (2014-07-12 BZR 4289 GOST-COMMITTERS)-product} date 15.03.2017 23:13:39
;FORMAT={2:4/ absolute / inch / keep zeros}
FMAT,2
INCH,TZ
T1C0.016
T2C0.035
T3C0.126
%
G90
G05
M72
T1
X040024Y-034217
X040024Y-040713
X040576Y-034894
X040576Y-041390
X040944Y-035834
X040944Y-042330
X041092Y-037448
X041092Y-043944
X043629Y-035891
X043629Y-042387
T2
X047300Y-034704
X047300Y-035704
X047300Y-036704
X047300Y-041200
X047300Y-042200
X047300Y-043200
T3
X042600Y-034004
X042600Y-037304
X042600Y-040500
X042600Y-043800
T0
M30
