%FSLAX45Y45*%
G04 Gerber Fmt 4.5, Leading zero omitted, Abs format (unit mm)*
G04 Created by KiCad (PCBNEW (2014-07-12 BZR 4289 GOST-COMMITTERS)-product) date 15.03.2017 23:13:34*
%MOMM*%
G01*
G04 APERTURE LIST*
%ADD10C,0.150000*%
%ADD11C,0.100000*%
%ADD12R,0.900000X1.000000*%
%ADD13R,0.889000X1.016000*%
%ADD14C,5.000000*%
%ADD15R,0.700000X0.900000*%
%ADD16O,0.700000X0.900000*%
%ADD17C,1.500000*%
%ADD18R,1.500000X1.500000*%
%ADD19R,0.800000X0.900000*%
%ADD20R,0.900000X0.800000*%
%ADD21R,1.016000X0.889000*%
%ADD22C,0.900000*%
%ADD23C,0.500000*%
%ADD24C,0.200000*%
G04 APERTURE END LIST*
D10*
D11*
X11199080Y-8925720D02*
X11234080Y-8925720D01*
X11234080Y-8925720D02*
X11219080Y-8940720D01*
X11219080Y-8940720D02*
X11209080Y-8930720D01*
X11209080Y-8930720D02*
X11219080Y-8930720D01*
X11174080Y-8940720D02*
X11174080Y-8925720D01*
X11174080Y-8925720D02*
X11184080Y-8925720D01*
X11184080Y-8925720D02*
X11179080Y-8930720D01*
X11179080Y-8990720D02*
X11194080Y-8980720D01*
X11194080Y-8980720D02*
X11204080Y-8990720D01*
X11204080Y-8990720D02*
X11189080Y-8990720D01*
X11234080Y-8990720D02*
X11244080Y-8980720D01*
X11244080Y-8980720D02*
X11254080Y-8990720D01*
X11254080Y-8990720D02*
X11244080Y-8990720D01*
X11264080Y-8925720D02*
X11264080Y-8935720D01*
X11264080Y-8935720D02*
X11254080Y-8925720D01*
X11269080Y-8950720D02*
X11269080Y-8920720D01*
X11269080Y-8920720D02*
X11169080Y-8920720D01*
X11169080Y-8920720D02*
X11169080Y-8950720D01*
X11269080Y-8995720D02*
X11244080Y-8970720D01*
X11244080Y-8970720D02*
X11219080Y-8995720D01*
X11219080Y-8995720D02*
X11194080Y-8970720D01*
X11194080Y-8970720D02*
X11169080Y-8995720D01*
X11169080Y-8995720D02*
X11269080Y-8995720D01*
X11219080Y-8950720D02*
X11194080Y-8925720D01*
X11194080Y-8925720D02*
X11169080Y-8950720D01*
X11219080Y-8950720D02*
X11244080Y-8925720D01*
X11244080Y-8925720D02*
X11269080Y-8950720D01*
X11199080Y-10575720D02*
X11234080Y-10575720D01*
X11234080Y-10575720D02*
X11219080Y-10590720D01*
X11219080Y-10590720D02*
X11209080Y-10580720D01*
X11209080Y-10580720D02*
X11219080Y-10580720D01*
X11174080Y-10590720D02*
X11174080Y-10575720D01*
X11174080Y-10575720D02*
X11184080Y-10575720D01*
X11184080Y-10575720D02*
X11179080Y-10580720D01*
X11179080Y-10640720D02*
X11194080Y-10630720D01*
X11194080Y-10630720D02*
X11204080Y-10640720D01*
X11204080Y-10640720D02*
X11189080Y-10640720D01*
X11234080Y-10640720D02*
X11244080Y-10630720D01*
X11244080Y-10630720D02*
X11254080Y-10640720D01*
X11254080Y-10640720D02*
X11244080Y-10640720D01*
X11264080Y-10575720D02*
X11264080Y-10585720D01*
X11264080Y-10585720D02*
X11254080Y-10575720D01*
X11269080Y-10600720D02*
X11269080Y-10570720D01*
X11269080Y-10570720D02*
X11169080Y-10570720D01*
X11169080Y-10570720D02*
X11169080Y-10600720D01*
X11269080Y-10645720D02*
X11244080Y-10620720D01*
X11244080Y-10620720D02*
X11219080Y-10645720D01*
X11219080Y-10645720D02*
X11194080Y-10620720D01*
X11194080Y-10620720D02*
X11169080Y-10645720D01*
X11169080Y-10645720D02*
X11269080Y-10645720D01*
X11219080Y-10600720D02*
X11194080Y-10575720D01*
X11194080Y-10575720D02*
X11169080Y-10600720D01*
X11219080Y-10600720D02*
X11244080Y-10575720D01*
X11244080Y-10575720D02*
X11269080Y-10600720D01*
D12*
X10186600Y-9424400D03*
X10336600Y-9424400D03*
D13*
X10337800Y-9602200D03*
X10185400Y-9602200D03*
D14*
X10820400Y-8637000D03*
X10820400Y-9475200D03*
D15*
X10275800Y-8973800D03*
D16*
X10145800Y-8973800D03*
X10145800Y-9163800D03*
X10275800Y-9163800D03*
D17*
X12014200Y-8814800D03*
D18*
X12014200Y-9322800D03*
D17*
X12014200Y-9068800D03*
D19*
X11582830Y-9036260D03*
X11392830Y-9036260D03*
X11487830Y-8836260D03*
D12*
X11479950Y-8599650D03*
X11629950Y-8599650D03*
X11228000Y-9322800D03*
X11378000Y-9322800D03*
X11228000Y-9500600D03*
X11378000Y-9500600D03*
D10*
G36*
X11164080Y-8920720D02*
X11189080Y-8860720D01*
X11249080Y-8860720D01*
X11274080Y-8920720D01*
X11164080Y-8920720D01*
X11164080Y-8920720D01*
G37*
G36*
X11274080Y-8995720D02*
X11249080Y-9055720D01*
X11189080Y-9055720D01*
X11164080Y-8995720D01*
X11274080Y-8995720D01*
X11274080Y-8995720D01*
G37*
D20*
X10336200Y-8491200D03*
X10336200Y-8681200D03*
X10136200Y-8586200D03*
D21*
X10515600Y-8992600D03*
X10515600Y-9145000D03*
X10515600Y-10642600D03*
X10515600Y-10795000D03*
D20*
X10336200Y-10141200D03*
X10336200Y-10331200D03*
X10136200Y-10236200D03*
D10*
G36*
X11164080Y-10570720D02*
X11189080Y-10510720D01*
X11249080Y-10510720D01*
X11274080Y-10570720D01*
X11164080Y-10570720D01*
X11164080Y-10570720D01*
G37*
G36*
X11274080Y-10645720D02*
X11249080Y-10705720D01*
X11189080Y-10705720D01*
X11164080Y-10645720D01*
X11274080Y-10645720D01*
X11274080Y-10645720D01*
G37*
D12*
X11228000Y-11150600D03*
X11378000Y-11150600D03*
X11228000Y-10972800D03*
X11378000Y-10972800D03*
X11479950Y-10249650D03*
X11629950Y-10249650D03*
D19*
X11582830Y-10686260D03*
X11392830Y-10686260D03*
X11487830Y-10486260D03*
D17*
X12014200Y-10464800D03*
D18*
X12014200Y-10972800D03*
D17*
X12014200Y-10718800D03*
D15*
X10275800Y-10623800D03*
D16*
X10145800Y-10623800D03*
X10145800Y-10813800D03*
X10275800Y-10813800D03*
D14*
X10820400Y-11125200D03*
X10820400Y-10287000D03*
D13*
X10337800Y-11252200D03*
X10185400Y-11252200D03*
D12*
X10186600Y-11074400D03*
X10336600Y-11074400D03*
D22*
X10166200Y-8691200D03*
X10399800Y-9101800D03*
X10306200Y-8863000D03*
X11081800Y-9116300D03*
X10437400Y-9511900D03*
X10437400Y-11161900D03*
X11081800Y-10766300D03*
X10306200Y-10513000D03*
X10399800Y-10751800D03*
X10166200Y-10341200D03*
D23*
X10515600Y-9145000D02*
X10489800Y-9125550D01*
X10489800Y-9125550D02*
X10464800Y-9125550D01*
X10464800Y-9125550D02*
X10454440Y-9125550D01*
X10454440Y-9125550D02*
X10399800Y-9101800D01*
X10275800Y-9163800D02*
X10275800Y-9153800D01*
X10275800Y-9153800D02*
X10399800Y-9101800D01*
X10166200Y-8691200D02*
X10156200Y-8636560D01*
X10156200Y-8636560D02*
X10156200Y-8626200D01*
X10156200Y-8626200D02*
X10156200Y-8601200D01*
X10156200Y-8601200D02*
X10136200Y-8586200D01*
X12014200Y-9068800D02*
X12136990Y-8865660D01*
X12136990Y-8865660D02*
X12136990Y-8763940D01*
X12136990Y-8763940D02*
X12065060Y-8692010D01*
X12065060Y-8692010D02*
X11685310Y-8624650D01*
X11685310Y-8624650D02*
X11674950Y-8624650D01*
X11674950Y-8624650D02*
X11649950Y-8624650D01*
X11649950Y-8624650D02*
X11629950Y-8599650D01*
X11649950Y-10274650D02*
X11629950Y-10249650D01*
X11674950Y-10274650D02*
X11649950Y-10274650D01*
X11685310Y-10274650D02*
X11674950Y-10274650D01*
X12065060Y-10342010D02*
X11685310Y-10274650D01*
X12136990Y-10413940D02*
X12065060Y-10342010D01*
X12136990Y-10515660D02*
X12136990Y-10413940D01*
X12014200Y-10718800D02*
X12136990Y-10515660D01*
X10156200Y-10251200D02*
X10136200Y-10236200D01*
X10156200Y-10276200D02*
X10156200Y-10251200D01*
X10156200Y-10286560D02*
X10156200Y-10276200D01*
X10166200Y-10341200D02*
X10156200Y-10286560D01*
X10275800Y-10803800D02*
X10399800Y-10751800D01*
X10275800Y-10813800D02*
X10275800Y-10803800D01*
X10454440Y-10775550D02*
X10399800Y-10751800D01*
X10464800Y-10775550D02*
X10454440Y-10775550D01*
X10489800Y-10775550D02*
X10464800Y-10775550D01*
X10515600Y-10795000D02*
X10489800Y-10775550D01*
X11228000Y-9500600D02*
X11228000Y-9475600D01*
X11228000Y-9475600D02*
X11228000Y-9450600D01*
X11228000Y-9450600D02*
X11228000Y-9372800D01*
X11228000Y-9372800D02*
X11228000Y-9347800D01*
X11228000Y-9347800D02*
X11228000Y-9322800D01*
X10186600Y-9424400D02*
X10206600Y-9399400D01*
X10206600Y-9399400D02*
X10206600Y-9374400D01*
X10206600Y-9374400D02*
X10206600Y-9364040D01*
X10206600Y-9364040D02*
X10221240Y-9349400D01*
X10221240Y-9349400D02*
X10268810Y-9319390D01*
X10268810Y-9319390D02*
X10589190Y-9244460D01*
X10589190Y-9244460D02*
X10621410Y-9212240D01*
X10621410Y-9212240D02*
X10653600Y-9158200D01*
X10653600Y-9158200D02*
X10621410Y-9077760D01*
X10621410Y-9077760D02*
X10591400Y-9026690D01*
X10591400Y-9026690D02*
X10576760Y-9012050D01*
X10576760Y-9012050D02*
X10566400Y-9012050D01*
X10566400Y-9012050D02*
X10541400Y-9012050D01*
X10541400Y-9012050D02*
X10515600Y-8992600D01*
X11228000Y-9322800D02*
X11208000Y-9297800D01*
X11208000Y-9297800D02*
X11183000Y-9297800D01*
X11183000Y-9297800D02*
X11172640Y-9297800D01*
X11172640Y-9297800D02*
X10973990Y-9197440D01*
X10973990Y-9197440D02*
X10908200Y-9170190D01*
X10908200Y-9170190D02*
X10653600Y-9158200D01*
X10515600Y-8992600D02*
X10489800Y-8983200D01*
X10489800Y-8983200D02*
X10464800Y-8983200D01*
X10464800Y-8983200D02*
X10310800Y-8983200D01*
X10310800Y-8983200D02*
X10285800Y-8983200D01*
X10285800Y-8983200D02*
X10275800Y-8973800D01*
X10515600Y-8992600D02*
X10489800Y-8973150D01*
X10489800Y-8973150D02*
X10489800Y-8948150D01*
X10489800Y-8948150D02*
X10489800Y-8937790D01*
X10489800Y-8937790D02*
X10356200Y-8731560D01*
X10356200Y-8731560D02*
X10356200Y-8721200D01*
X10356200Y-8721200D02*
X10356200Y-8696200D01*
X10356200Y-8696200D02*
X10336200Y-8681200D01*
X11228000Y-9500600D02*
X11248000Y-9525600D01*
X11248000Y-9525600D02*
X11248000Y-9550600D01*
X11248000Y-9550600D02*
X11248000Y-9560960D01*
X11248000Y-9560960D02*
X11262640Y-9575600D01*
X11262640Y-9575600D02*
X11310210Y-9605610D01*
X11310210Y-9605610D02*
X11400210Y-9605610D01*
X11400210Y-9605610D02*
X11445790Y-9605610D01*
X11445790Y-9605610D02*
X11928840Y-9372800D01*
X11928840Y-9372800D02*
X11939200Y-9372800D01*
X11939200Y-9372800D02*
X11964200Y-9372800D01*
X11964200Y-9372800D02*
X12014200Y-9322800D01*
X11964200Y-11022800D02*
X12014200Y-10972800D01*
X11939200Y-11022800D02*
X11964200Y-11022800D01*
X11928840Y-11022800D02*
X11939200Y-11022800D01*
X11445790Y-11255610D02*
X11928840Y-11022800D01*
X11400210Y-11255610D02*
X11445790Y-11255610D01*
X11310210Y-11255610D02*
X11400210Y-11255610D01*
X11262640Y-11225600D02*
X11310210Y-11255610D01*
X11248000Y-11210960D02*
X11262640Y-11225600D01*
X11248000Y-11200600D02*
X11248000Y-11210960D01*
X11248000Y-11175600D02*
X11248000Y-11200600D01*
X11228000Y-11150600D02*
X11248000Y-11175600D01*
X10356200Y-10346200D02*
X10336200Y-10331200D01*
X10356200Y-10371200D02*
X10356200Y-10346200D01*
X10356200Y-10381560D02*
X10356200Y-10371200D01*
X10489800Y-10587790D02*
X10356200Y-10381560D01*
X10489800Y-10598150D02*
X10489800Y-10587790D01*
X10489800Y-10623150D02*
X10489800Y-10598150D01*
X10515600Y-10642600D02*
X10489800Y-10623150D01*
X10285800Y-10633200D02*
X10275800Y-10623800D01*
X10310800Y-10633200D02*
X10285800Y-10633200D01*
X10464800Y-10633200D02*
X10310800Y-10633200D01*
X10489800Y-10633200D02*
X10464800Y-10633200D01*
X10515600Y-10642600D02*
X10489800Y-10633200D01*
X10908200Y-10820190D02*
X10653600Y-10808200D01*
X10973990Y-10847440D02*
X10908200Y-10820190D01*
X11172640Y-10947800D02*
X10973990Y-10847440D01*
X11183000Y-10947800D02*
X11172640Y-10947800D01*
X11208000Y-10947800D02*
X11183000Y-10947800D01*
X11228000Y-10972800D02*
X11208000Y-10947800D01*
X10541400Y-10662050D02*
X10515600Y-10642600D01*
X10566400Y-10662050D02*
X10541400Y-10662050D01*
X10576760Y-10662050D02*
X10566400Y-10662050D01*
X10591400Y-10676690D02*
X10576760Y-10662050D01*
X10621410Y-10727760D02*
X10591400Y-10676690D01*
X10653600Y-10808200D02*
X10621410Y-10727760D01*
X10621410Y-10862240D02*
X10653600Y-10808200D01*
X10589190Y-10894460D02*
X10621410Y-10862240D01*
X10268810Y-10969390D02*
X10589190Y-10894460D01*
X10221240Y-10999400D02*
X10268810Y-10969390D01*
X10206600Y-11014040D02*
X10221240Y-10999400D01*
X10206600Y-11024400D02*
X10206600Y-11014040D01*
X10206600Y-11049400D02*
X10206600Y-11024400D01*
X10186600Y-11074400D02*
X10206600Y-11049400D01*
X11228000Y-10997800D02*
X11228000Y-10972800D01*
X11228000Y-11022800D02*
X11228000Y-10997800D01*
X11228000Y-11100600D02*
X11228000Y-11022800D01*
X11228000Y-11125600D02*
X11228000Y-11100600D01*
X11228000Y-11150600D02*
X11228000Y-11125600D01*
D24*
X10185400Y-9602200D02*
X10150950Y-9561400D01*
X10150950Y-9561400D02*
X10150950Y-9551400D01*
X10150950Y-9551400D02*
X10150950Y-9547260D01*
X10150950Y-9547260D02*
X10103100Y-9490350D01*
X10103100Y-9490350D02*
X10070790Y-9204870D01*
X10070790Y-9204870D02*
X10070790Y-9142730D01*
X10070790Y-9142730D02*
X10070790Y-9122730D01*
X10070790Y-9122730D02*
X10145800Y-8983800D01*
X10145800Y-8983800D02*
X10145800Y-8973800D01*
X10336200Y-8491200D02*
X10371200Y-8521200D01*
X10371200Y-8521200D02*
X10371200Y-8531200D01*
X10371200Y-8531200D02*
X10371200Y-8535340D01*
X10371200Y-8535340D02*
X10555360Y-8782100D01*
X10555360Y-8782100D02*
X10675300Y-8902040D01*
X10675300Y-8902040D02*
X10735590Y-8927010D01*
X10735590Y-8927010D02*
X11160250Y-9004970D01*
X11160250Y-9004970D02*
X11167930Y-9004960D01*
X11167930Y-9004960D02*
X11177160Y-9001110D01*
X11177160Y-9001110D02*
X11219080Y-9025720D01*
X10145800Y-8973800D02*
X10145800Y-8963800D01*
X10145800Y-8963800D02*
X10251200Y-8726410D01*
X10251200Y-8726410D02*
X10251200Y-8624630D01*
X10251200Y-8624630D02*
X10301200Y-8535340D01*
X10301200Y-8535340D02*
X10301200Y-8531200D01*
X10301200Y-8531200D02*
X10301200Y-8521200D01*
X10301200Y-8521200D02*
X10336200Y-8491200D01*
X11219080Y-9025720D02*
X11261000Y-9001110D01*
X11261000Y-9001110D02*
X11270230Y-9004960D01*
X11270230Y-9004960D02*
X11352830Y-9011010D01*
X11352830Y-9011010D02*
X11362830Y-9011010D01*
X11362830Y-9011010D02*
X11392830Y-9036260D01*
X11219080Y-9025720D02*
X11239080Y-9045720D01*
X11239080Y-9045720D02*
X11239080Y-9055720D01*
X11239080Y-9055720D02*
X11239080Y-9059860D01*
X11239080Y-9059860D02*
X11343000Y-9268660D01*
X11343000Y-9268660D02*
X11343000Y-9272800D01*
X11343000Y-9272800D02*
X11343000Y-9282800D01*
X11343000Y-9282800D02*
X11378000Y-9322800D01*
X11343000Y-10932800D02*
X11378000Y-10972800D01*
X11343000Y-10922800D02*
X11343000Y-10932800D01*
X11343000Y-10918660D02*
X11343000Y-10922800D01*
X11239080Y-10709860D02*
X11343000Y-10918660D01*
X11239080Y-10705720D02*
X11239080Y-10709860D01*
X11239080Y-10695720D02*
X11239080Y-10705720D01*
X11219080Y-10675720D02*
X11239080Y-10695720D01*
X11362830Y-10661010D02*
X11392830Y-10686260D01*
X11352830Y-10661010D02*
X11362830Y-10661010D01*
X11270230Y-10654960D02*
X11352830Y-10661010D01*
X11261000Y-10651110D02*
X11270230Y-10654960D01*
X11219080Y-10675720D02*
X11261000Y-10651110D01*
X10301200Y-10171200D02*
X10336200Y-10141200D01*
X10301200Y-10181200D02*
X10301200Y-10171200D01*
X10301200Y-10185340D02*
X10301200Y-10181200D01*
X10251200Y-10274630D02*
X10301200Y-10185340D01*
X10251200Y-10376410D02*
X10251200Y-10274630D01*
X10145800Y-10613800D02*
X10251200Y-10376410D01*
X10145800Y-10623800D02*
X10145800Y-10613800D01*
X11177160Y-10651110D02*
X11219080Y-10675720D01*
X11167930Y-10654960D02*
X11177160Y-10651110D01*
X11160250Y-10654970D02*
X11167930Y-10654960D01*
X10735590Y-10577010D02*
X11160250Y-10654970D01*
X10675300Y-10552040D02*
X10735590Y-10577010D01*
X10555360Y-10432100D02*
X10675300Y-10552040D01*
X10371200Y-10185340D02*
X10555360Y-10432100D01*
X10371200Y-10181200D02*
X10371200Y-10185340D01*
X10371200Y-10171200D02*
X10371200Y-10181200D01*
X10336200Y-10141200D02*
X10371200Y-10171200D01*
X10145800Y-10633800D02*
X10145800Y-10623800D01*
X10070790Y-10772730D02*
X10145800Y-10633800D01*
X10070790Y-10792730D02*
X10070790Y-10772730D01*
X10070790Y-10854870D02*
X10070790Y-10792730D01*
X10103100Y-11140350D02*
X10070790Y-10854870D01*
X10150950Y-11197260D02*
X10103100Y-11140350D01*
X10150950Y-11201400D02*
X10150950Y-11197260D01*
X10150950Y-11211400D02*
X10150950Y-11201400D01*
X10185400Y-11252200D02*
X10150950Y-11211400D01*
X12014200Y-8814800D02*
X11527830Y-8814800D01*
X11527830Y-8814800D02*
X11517830Y-8814800D01*
X11517830Y-8814800D02*
X11487830Y-8836260D01*
X11479950Y-8599650D02*
X11483890Y-8639650D01*
X11483890Y-8639650D02*
X11483890Y-8649650D01*
X11483890Y-8649650D02*
X11483890Y-8791260D01*
X11483890Y-8791260D02*
X11483890Y-8801260D01*
X11483890Y-8801260D02*
X11487830Y-8836260D01*
X11219080Y-8890720D02*
X11261000Y-8915330D01*
X11261000Y-8915330D02*
X11270230Y-8911480D01*
X11270230Y-8911480D02*
X11443690Y-8871260D01*
X11443690Y-8871260D02*
X11447830Y-8871260D01*
X11447830Y-8871260D02*
X11457830Y-8871260D01*
X11457830Y-8871260D02*
X11487830Y-8836260D01*
X11457830Y-10521260D02*
X11487830Y-10486260D01*
X11447830Y-10521260D02*
X11457830Y-10521260D01*
X11443690Y-10521260D02*
X11447830Y-10521260D01*
X11270230Y-10561480D02*
X11443690Y-10521260D01*
X11261000Y-10565330D02*
X11270230Y-10561480D01*
X11219080Y-10540720D02*
X11261000Y-10565330D01*
X11483890Y-10451260D02*
X11487830Y-10486260D01*
X11483890Y-10441260D02*
X11483890Y-10451260D01*
X11483890Y-10299650D02*
X11483890Y-10441260D01*
X11483890Y-10289650D02*
X11483890Y-10299650D01*
X11479950Y-10249650D02*
X11483890Y-10289650D01*
X11517830Y-10464800D02*
X11487830Y-10486260D01*
X11527830Y-10464800D02*
X11517830Y-10464800D01*
X12014200Y-10464800D02*
X11527830Y-10464800D01*
X11378000Y-9500600D02*
X11413000Y-9460600D01*
X11413000Y-9460600D02*
X11423000Y-9460600D01*
X11423000Y-9460600D02*
X11427140Y-9460600D01*
X11427140Y-9460600D02*
X11433000Y-9454740D01*
X11433000Y-9454740D02*
X11463010Y-9389370D01*
X11463010Y-9389370D02*
X11552830Y-9085400D01*
X11552830Y-9085400D02*
X11552830Y-9081260D01*
X11552830Y-9081260D02*
X11552830Y-9071260D01*
X11552830Y-9071260D02*
X11582830Y-9036260D01*
X11552830Y-10721260D02*
X11582830Y-10686260D01*
X11552830Y-10731260D02*
X11552830Y-10721260D01*
X11552830Y-10735400D02*
X11552830Y-10731260D01*
X11463010Y-11039370D02*
X11552830Y-10735400D01*
X11433000Y-11104740D02*
X11463010Y-11039370D01*
X11427140Y-11110600D02*
X11433000Y-11104740D01*
X11423000Y-11110600D02*
X11427140Y-11110600D01*
X11413000Y-11110600D02*
X11423000Y-11110600D01*
X11378000Y-11150600D02*
X11413000Y-11110600D01*
X10337800Y-9602200D02*
X10337200Y-9561400D01*
X10337200Y-9561400D02*
X10337200Y-9551400D01*
X10337200Y-9551400D02*
X10337200Y-9474400D01*
X10337200Y-9474400D02*
X10337200Y-9464400D01*
X10337200Y-9464400D02*
X10336600Y-9424400D01*
X10337200Y-11114400D02*
X10336600Y-11074400D01*
X10337200Y-11124400D02*
X10337200Y-11114400D01*
X10337200Y-11201400D02*
X10337200Y-11124400D01*
X10337200Y-11211400D02*
X10337200Y-11201400D01*
X10337800Y-11252200D02*
X10337200Y-11211400D01*
G36*
X10399662Y-10568200D02*
X10349705Y-10568200D01*
X10344710Y-10556142D01*
X10333458Y-10544890D01*
X10318757Y-10538800D01*
X10302844Y-10538800D01*
X10233806Y-10538800D01*
X10290460Y-10411200D01*
X10299157Y-10411200D01*
X10299332Y-10411200D01*
X10299450Y-10411377D01*
X10301647Y-10416901D01*
X10399662Y-10568200D01*
X10399662Y-10568200D01*
G37*
X10399662Y-10568200D02*
X10349705Y-10568200D01*
X10344710Y-10556142D01*
X10333458Y-10544890D01*
X10318757Y-10538800D01*
X10302844Y-10538800D01*
X10233806Y-10538800D01*
X10290460Y-10411200D01*
X10299157Y-10411200D01*
X10299332Y-10411200D01*
X10299450Y-10411377D01*
X10301647Y-10416901D01*
X10399662Y-10568200D01*
G36*
X10532600Y-10810000D02*
X10530600Y-10810000D01*
X10530600Y-10812000D01*
X10500600Y-10812000D01*
X10500600Y-10810000D01*
X10427300Y-10810000D01*
X10414800Y-10822500D01*
X10414800Y-10849396D01*
X10422011Y-10866805D01*
X10328091Y-10888771D01*
X10345285Y-10872245D01*
X10358535Y-10841966D01*
X10358535Y-10785634D01*
X10345285Y-10755355D01*
X10321457Y-10732452D01*
X10303704Y-10723511D01*
X10290800Y-10732869D01*
X10290800Y-10798800D01*
X10347858Y-10798800D01*
X10358535Y-10785634D01*
X10358535Y-10841966D01*
X10347858Y-10828800D01*
X10290800Y-10828800D01*
X10290800Y-10830800D01*
X10260800Y-10830800D01*
X10260800Y-10828800D01*
X10258800Y-10828800D01*
X10258800Y-10798800D01*
X10260800Y-10798800D01*
X10260800Y-10732869D01*
X10247896Y-10723511D01*
X10230143Y-10732452D01*
X10206315Y-10755355D01*
X10205007Y-10758342D01*
X10198833Y-10749102D01*
X10174501Y-10732844D01*
X10151606Y-10728290D01*
X10163086Y-10707027D01*
X10174501Y-10704756D01*
X10198833Y-10688498D01*
X10203050Y-10682188D01*
X10206890Y-10691458D01*
X10218142Y-10702710D01*
X10232844Y-10708800D01*
X10248757Y-10708800D01*
X10318757Y-10708800D01*
X10333458Y-10702710D01*
X10337969Y-10698200D01*
X10426123Y-10698200D01*
X10430890Y-10709708D01*
X10432910Y-10711729D01*
X10422412Y-10722227D01*
X10414800Y-10740604D01*
X10414800Y-10767500D01*
X10427300Y-10780000D01*
X10500600Y-10780000D01*
X10500600Y-10778000D01*
X10530600Y-10778000D01*
X10530600Y-10780000D01*
X10532600Y-10780000D01*
X10532600Y-10810000D01*
X10532600Y-10810000D01*
G37*
X10532600Y-10810000D02*
X10530600Y-10810000D01*
X10530600Y-10812000D01*
X10500600Y-10812000D01*
X10500600Y-10810000D01*
X10427300Y-10810000D01*
X10414800Y-10822500D01*
X10414800Y-10849396D01*
X10422011Y-10866805D01*
X10328091Y-10888771D01*
X10345285Y-10872245D01*
X10358535Y-10841966D01*
X10358535Y-10785634D01*
X10345285Y-10755355D01*
X10321457Y-10732452D01*
X10303704Y-10723511D01*
X10290800Y-10732869D01*
X10290800Y-10798800D01*
X10347858Y-10798800D01*
X10358535Y-10785634D01*
X10358535Y-10841966D01*
X10347858Y-10828800D01*
X10290800Y-10828800D01*
X10290800Y-10830800D01*
X10260800Y-10830800D01*
X10260800Y-10828800D01*
X10258800Y-10828800D01*
X10258800Y-10798800D01*
X10260800Y-10798800D01*
X10260800Y-10732869D01*
X10247896Y-10723511D01*
X10230143Y-10732452D01*
X10206315Y-10755355D01*
X10205007Y-10758342D01*
X10198833Y-10749102D01*
X10174501Y-10732844D01*
X10151606Y-10728290D01*
X10163086Y-10707027D01*
X10174501Y-10704756D01*
X10198833Y-10688498D01*
X10203050Y-10682188D01*
X10206890Y-10691458D01*
X10218142Y-10702710D01*
X10232844Y-10708800D01*
X10248757Y-10708800D01*
X10318757Y-10708800D01*
X10333458Y-10702710D01*
X10337969Y-10698200D01*
X10426123Y-10698200D01*
X10430890Y-10709708D01*
X10432910Y-10711729D01*
X10422412Y-10722227D01*
X10414800Y-10740604D01*
X10414800Y-10767500D01*
X10427300Y-10780000D01*
X10500600Y-10780000D01*
X10500600Y-10778000D01*
X10530600Y-10778000D01*
X10530600Y-10780000D01*
X10532600Y-10780000D01*
X10532600Y-10810000D01*
G36*
X10642131Y-11357100D02*
X10055100Y-11357100D01*
X10055100Y-11152455D01*
X10055429Y-11155433D01*
X10057833Y-11159805D01*
X10059351Y-11164558D01*
X10062488Y-11168269D01*
X10064830Y-11172528D01*
X10100950Y-11215487D01*
X10100950Y-11310956D01*
X10107040Y-11325658D01*
X10118292Y-11336910D01*
X10132994Y-11343000D01*
X10148907Y-11343000D01*
X10237807Y-11343000D01*
X10252508Y-11336910D01*
X10261600Y-11327819D01*
X10270692Y-11336910D01*
X10285394Y-11343000D01*
X10301307Y-11343000D01*
X10390207Y-11343000D01*
X10404908Y-11336910D01*
X10416160Y-11325658D01*
X10422250Y-11310956D01*
X10422250Y-11295043D01*
X10422250Y-11193443D01*
X10416160Y-11178742D01*
X10404908Y-11167490D01*
X10393503Y-11162765D01*
X10404258Y-11158310D01*
X10415510Y-11147058D01*
X10421600Y-11132357D01*
X10421600Y-11116444D01*
X10421600Y-11016444D01*
X10415545Y-11001826D01*
X10572904Y-10965023D01*
X10530451Y-11067262D01*
X10530350Y-11182632D01*
X10574407Y-11289257D01*
X10642131Y-11357100D01*
X10642131Y-11357100D01*
G37*
X10642131Y-11357100D02*
X10055100Y-11357100D01*
X10055100Y-11152455D01*
X10055429Y-11155433D01*
X10057833Y-11159805D01*
X10059351Y-11164558D01*
X10062488Y-11168269D01*
X10064830Y-11172528D01*
X10100950Y-11215487D01*
X10100950Y-11310956D01*
X10107040Y-11325658D01*
X10118292Y-11336910D01*
X10132994Y-11343000D01*
X10148907Y-11343000D01*
X10237807Y-11343000D01*
X10252508Y-11336910D01*
X10261600Y-11327819D01*
X10270692Y-11336910D01*
X10285394Y-11343000D01*
X10301307Y-11343000D01*
X10390207Y-11343000D01*
X10404908Y-11336910D01*
X10416160Y-11325658D01*
X10422250Y-11310956D01*
X10422250Y-11295043D01*
X10422250Y-11193443D01*
X10416160Y-11178742D01*
X10404908Y-11167490D01*
X10393503Y-11162765D01*
X10404258Y-11158310D01*
X10415510Y-11147058D01*
X10421600Y-11132357D01*
X10421600Y-11116444D01*
X10421600Y-11016444D01*
X10415545Y-11001826D01*
X10572904Y-10965023D01*
X10530451Y-11067262D01*
X10530350Y-11182632D01*
X10574407Y-11289257D01*
X10642131Y-11357100D01*
G36*
X10642225Y-10055100D02*
X10574693Y-10122514D01*
X10530451Y-10229062D01*
X10530375Y-10315026D01*
X10421200Y-10168739D01*
X10421200Y-10093244D01*
X10415110Y-10078542D01*
X10403858Y-10067290D01*
X10389157Y-10061200D01*
X10373244Y-10061200D01*
X10283244Y-10061200D01*
X10268542Y-10067290D01*
X10257290Y-10078542D01*
X10251200Y-10093244D01*
X10251200Y-10109157D01*
X10251200Y-10171200D01*
X10251200Y-10172294D01*
X10231200Y-10208010D01*
X10231200Y-10186254D01*
X10223588Y-10167877D01*
X10209523Y-10153812D01*
X10191146Y-10146200D01*
X10171254Y-10146200D01*
X10163700Y-10146200D01*
X10151200Y-10158700D01*
X10151200Y-10221200D01*
X10153200Y-10221200D01*
X10153200Y-10251200D01*
X10151200Y-10251200D01*
X10151200Y-10313700D01*
X10163700Y-10326200D01*
X10171254Y-10326200D01*
X10191146Y-10326200D01*
X10201200Y-10322035D01*
X10201200Y-10365809D01*
X10123130Y-10541644D01*
X10117099Y-10542844D01*
X10092767Y-10559102D01*
X10076509Y-10583434D01*
X10070800Y-10612135D01*
X10070800Y-10635465D01*
X10075452Y-10658852D01*
X10055100Y-10696547D01*
X10055100Y-10310811D01*
X10062877Y-10318588D01*
X10081254Y-10326200D01*
X10101146Y-10326200D01*
X10108700Y-10326200D01*
X10121200Y-10313700D01*
X10121200Y-10251200D01*
X10119200Y-10251200D01*
X10119200Y-10221200D01*
X10121200Y-10221200D01*
X10121200Y-10158700D01*
X10108700Y-10146200D01*
X10101146Y-10146200D01*
X10081254Y-10146200D01*
X10062877Y-10153812D01*
X10055100Y-10161589D01*
X10055100Y-10055100D01*
X10642225Y-10055100D01*
X10642225Y-10055100D01*
G37*
X10642225Y-10055100D02*
X10574693Y-10122514D01*
X10530451Y-10229062D01*
X10530375Y-10315026D01*
X10421200Y-10168739D01*
X10421200Y-10093244D01*
X10415110Y-10078542D01*
X10403858Y-10067290D01*
X10389157Y-10061200D01*
X10373244Y-10061200D01*
X10283244Y-10061200D01*
X10268542Y-10067290D01*
X10257290Y-10078542D01*
X10251200Y-10093244D01*
X10251200Y-10109157D01*
X10251200Y-10171200D01*
X10251200Y-10172294D01*
X10231200Y-10208010D01*
X10231200Y-10186254D01*
X10223588Y-10167877D01*
X10209523Y-10153812D01*
X10191146Y-10146200D01*
X10171254Y-10146200D01*
X10163700Y-10146200D01*
X10151200Y-10158700D01*
X10151200Y-10221200D01*
X10153200Y-10221200D01*
X10153200Y-10251200D01*
X10151200Y-10251200D01*
X10151200Y-10313700D01*
X10163700Y-10326200D01*
X10171254Y-10326200D01*
X10191146Y-10326200D01*
X10201200Y-10322035D01*
X10201200Y-10365809D01*
X10123130Y-10541644D01*
X10117099Y-10542844D01*
X10092767Y-10559102D01*
X10076509Y-10583434D01*
X10070800Y-10612135D01*
X10070800Y-10635465D01*
X10075452Y-10658852D01*
X10055100Y-10696547D01*
X10055100Y-10310811D01*
X10062877Y-10318588D01*
X10081254Y-10326200D01*
X10101146Y-10326200D01*
X10108700Y-10326200D01*
X10121200Y-10313700D01*
X10121200Y-10251200D01*
X10119200Y-10251200D01*
X10119200Y-10221200D01*
X10121200Y-10221200D01*
X10121200Y-10158700D01*
X10108700Y-10146200D01*
X10101146Y-10146200D01*
X10081254Y-10146200D01*
X10062877Y-10153812D01*
X10055100Y-10161589D01*
X10055100Y-10055100D01*
X10642225Y-10055100D01*
G36*
X11269302Y-10882800D02*
X11265043Y-10882800D01*
X11208000Y-10882800D01*
X11188127Y-10882800D01*
X11003301Y-10789424D01*
X11000919Y-10788761D01*
X10998864Y-10787388D01*
X10933074Y-10760138D01*
X10922108Y-10757957D01*
X10911258Y-10755262D01*
X10698416Y-10745239D01*
X10681757Y-10703611D01*
X10679070Y-10699482D01*
X10677451Y-10694829D01*
X10647441Y-10643759D01*
X10641949Y-10637593D01*
X10637362Y-10630728D01*
X10622722Y-10616088D01*
X10606400Y-10605182D01*
X10606400Y-10590194D01*
X10600310Y-10575492D01*
X10589058Y-10564240D01*
X10574357Y-10558150D01*
X10558444Y-10558150D01*
X10546668Y-10558150D01*
X10546550Y-10557973D01*
X10544353Y-10552449D01*
X10421200Y-10362346D01*
X10421200Y-10346200D01*
X10421200Y-10335933D01*
X10515289Y-10462005D01*
X10517987Y-10464436D01*
X10520005Y-10467455D01*
X10639945Y-10587395D01*
X10639946Y-10587396D01*
X10639946Y-10587397D01*
X10648014Y-10592787D01*
X10656166Y-10598234D01*
X10656167Y-10598234D01*
X10656168Y-10598235D01*
X10716458Y-10623205D01*
X10721645Y-10624236D01*
X10726562Y-10626188D01*
X11124080Y-10699165D01*
X11124080Y-10713677D01*
X11130170Y-10728378D01*
X11141422Y-10739630D01*
X11156124Y-10745720D01*
X11172037Y-10745720D01*
X11201077Y-10745720D01*
X11269302Y-10882800D01*
X11269302Y-10882800D01*
G37*
X11269302Y-10882800D02*
X11265043Y-10882800D01*
X11208000Y-10882800D01*
X11188127Y-10882800D01*
X11003301Y-10789424D01*
X11000919Y-10788761D01*
X10998864Y-10787388D01*
X10933074Y-10760138D01*
X10922108Y-10757957D01*
X10911258Y-10755262D01*
X10698416Y-10745239D01*
X10681757Y-10703611D01*
X10679070Y-10699482D01*
X10677451Y-10694829D01*
X10647441Y-10643759D01*
X10641949Y-10637593D01*
X10637362Y-10630728D01*
X10622722Y-10616088D01*
X10606400Y-10605182D01*
X10606400Y-10590194D01*
X10600310Y-10575492D01*
X10589058Y-10564240D01*
X10574357Y-10558150D01*
X10558444Y-10558150D01*
X10546668Y-10558150D01*
X10546550Y-10557973D01*
X10544353Y-10552449D01*
X10421200Y-10362346D01*
X10421200Y-10346200D01*
X10421200Y-10335933D01*
X10515289Y-10462005D01*
X10517987Y-10464436D01*
X10520005Y-10467455D01*
X10639945Y-10587395D01*
X10639946Y-10587396D01*
X10639946Y-10587397D01*
X10648014Y-10592787D01*
X10656166Y-10598234D01*
X10656167Y-10598234D01*
X10656168Y-10598235D01*
X10716458Y-10623205D01*
X10721645Y-10624236D01*
X10726562Y-10626188D01*
X11124080Y-10699165D01*
X11124080Y-10713677D01*
X11130170Y-10728378D01*
X11141422Y-10739630D01*
X11156124Y-10745720D01*
X11172037Y-10745720D01*
X11201077Y-10745720D01*
X11269302Y-10882800D01*
G36*
X12144500Y-11357100D02*
X12140768Y-11357100D01*
X12140768Y-10733760D01*
X12136858Y-10684186D01*
X12125408Y-10656543D01*
X12105393Y-10648821D01*
X12084179Y-10670034D01*
X12084179Y-10627607D01*
X12076457Y-10607592D01*
X12029160Y-10592232D01*
X11979586Y-10596142D01*
X11951943Y-10607592D01*
X11944220Y-10627607D01*
X12014200Y-10697587D01*
X12084179Y-10627607D01*
X12084179Y-10670034D01*
X12035413Y-10718800D01*
X12105393Y-10788780D01*
X12125408Y-10781057D01*
X12140768Y-10733760D01*
X12140768Y-11357100D01*
X10998575Y-11357100D01*
X11066107Y-11289686D01*
X11110350Y-11183138D01*
X11110450Y-11067769D01*
X11069425Y-10968479D01*
X11143000Y-11005650D01*
X11143000Y-11030757D01*
X11149090Y-11045458D01*
X11160342Y-11056710D01*
X11163000Y-11057811D01*
X11163000Y-11065589D01*
X11160342Y-11066690D01*
X11149090Y-11077942D01*
X11143000Y-11092644D01*
X11143000Y-11108557D01*
X11143000Y-11208556D01*
X11149090Y-11223258D01*
X11160342Y-11234510D01*
X11175044Y-11240600D01*
X11190956Y-11240600D01*
X11191132Y-11240600D01*
X11202038Y-11256922D01*
X11216678Y-11271562D01*
X11222703Y-11275587D01*
X11227959Y-11280575D01*
X11275529Y-11310585D01*
X11280716Y-11312575D01*
X11285336Y-11315662D01*
X11292442Y-11317076D01*
X11299206Y-11319672D01*
X11304761Y-11319526D01*
X11310210Y-11320610D01*
X11400210Y-11320610D01*
X11445790Y-11320610D01*
X11447614Y-11320247D01*
X11449455Y-11320507D01*
X11459991Y-11317785D01*
X11470664Y-11315662D01*
X11472210Y-11314629D01*
X11474011Y-11314164D01*
X11943686Y-11087800D01*
X11947156Y-11087800D01*
X11964200Y-11087800D01*
X12097156Y-11087800D01*
X12111858Y-11081710D01*
X12123110Y-11070458D01*
X12129200Y-11055757D01*
X12129200Y-11039844D01*
X12129200Y-10889844D01*
X12123110Y-10875142D01*
X12111858Y-10863890D01*
X12097156Y-10857800D01*
X12084179Y-10857800D01*
X12084179Y-10809993D01*
X12014200Y-10740013D01*
X11992987Y-10761226D01*
X11992987Y-10718800D01*
X11923007Y-10648821D01*
X11902991Y-10656543D01*
X11887632Y-10703840D01*
X11891542Y-10753414D01*
X11902991Y-10781057D01*
X11923007Y-10788780D01*
X11992987Y-10718800D01*
X11992987Y-10761226D01*
X11944220Y-10809993D01*
X11951943Y-10830009D01*
X11999240Y-10845368D01*
X12048814Y-10841458D01*
X12076457Y-10830009D01*
X12084179Y-10809993D01*
X12084179Y-10857800D01*
X12081243Y-10857800D01*
X11931243Y-10857800D01*
X11916542Y-10863890D01*
X11905290Y-10875142D01*
X11899200Y-10889844D01*
X11899200Y-10905757D01*
X11899200Y-10964930D01*
X11463000Y-11175160D01*
X11463000Y-11145451D01*
X11468355Y-11140095D01*
X11473261Y-11132753D01*
X11478440Y-11125601D01*
X11508450Y-11060231D01*
X11509285Y-11056727D01*
X11510960Y-11053539D01*
X11594371Y-10771260D01*
X11630786Y-10771260D01*
X11645488Y-10765170D01*
X11656740Y-10753918D01*
X11662830Y-10739217D01*
X11662830Y-10723304D01*
X11662830Y-10633304D01*
X11656740Y-10618602D01*
X11645488Y-10607350D01*
X11630786Y-10601260D01*
X11614873Y-10601260D01*
X11534873Y-10601260D01*
X11520172Y-10607350D01*
X11508920Y-10618602D01*
X11502830Y-10633304D01*
X11502830Y-10649217D01*
X11502830Y-10721260D01*
X11502830Y-10728167D01*
X11453130Y-10896362D01*
X11445658Y-10888890D01*
X11430956Y-10882800D01*
X11415043Y-10882800D01*
X11381003Y-10882800D01*
X11305424Y-10730944D01*
X11307990Y-10728378D01*
X11312830Y-10716694D01*
X11312830Y-10739217D01*
X11318920Y-10753918D01*
X11330172Y-10765170D01*
X11344873Y-10771260D01*
X11360786Y-10771260D01*
X11440786Y-10771260D01*
X11455488Y-10765170D01*
X11466740Y-10753918D01*
X11472830Y-10739217D01*
X11472830Y-10723304D01*
X11472830Y-10633304D01*
X11466740Y-10618602D01*
X11455488Y-10607350D01*
X11440786Y-10601260D01*
X11424873Y-10601260D01*
X11344873Y-10601260D01*
X11330172Y-10607350D01*
X11328432Y-10609089D01*
X11312645Y-10607933D01*
X11313680Y-10602732D01*
X11449411Y-10571260D01*
X11455786Y-10571260D01*
X11457830Y-10571260D01*
X11535786Y-10571260D01*
X11550488Y-10565170D01*
X11561740Y-10553918D01*
X11567830Y-10539217D01*
X11567830Y-10523304D01*
X11567830Y-10514800D01*
X11910429Y-10514800D01*
X11916651Y-10529857D01*
X11948973Y-10562235D01*
X11991225Y-10579780D01*
X12036975Y-10579820D01*
X12079257Y-10562349D01*
X12111635Y-10530027D01*
X12129180Y-10487775D01*
X12129220Y-10442025D01*
X12111749Y-10399743D01*
X12079427Y-10367365D01*
X12037175Y-10349820D01*
X11991425Y-10349780D01*
X11949143Y-10367251D01*
X11916765Y-10399573D01*
X11910442Y-10414800D01*
X11724950Y-10414800D01*
X11724950Y-10309596D01*
X11724950Y-10289704D01*
X11724950Y-10277150D01*
X11724950Y-10222150D01*
X11724950Y-10209596D01*
X11724950Y-10189704D01*
X11717338Y-10171327D01*
X11703273Y-10157262D01*
X11684896Y-10149650D01*
X11657450Y-10149650D01*
X11644950Y-10162150D01*
X11644950Y-10234650D01*
X11712450Y-10234650D01*
X11724950Y-10222150D01*
X11724950Y-10277150D01*
X11712450Y-10264650D01*
X11644950Y-10264650D01*
X11644950Y-10337150D01*
X11657450Y-10349650D01*
X11684896Y-10349650D01*
X11703273Y-10342038D01*
X11717338Y-10327973D01*
X11724950Y-10309596D01*
X11724950Y-10414800D01*
X11557939Y-10414800D01*
X11550488Y-10407350D01*
X11535786Y-10401260D01*
X11533890Y-10401260D01*
X11533890Y-10339243D01*
X11547608Y-10333560D01*
X11547879Y-10333290D01*
X11556627Y-10342038D01*
X11575004Y-10349650D01*
X11602450Y-10349650D01*
X11614950Y-10337150D01*
X11614950Y-10264650D01*
X11612950Y-10264650D01*
X11612950Y-10234650D01*
X11614950Y-10234650D01*
X11614950Y-10162150D01*
X11602450Y-10149650D01*
X11575004Y-10149650D01*
X11556627Y-10157262D01*
X11547879Y-10166010D01*
X11547608Y-10165740D01*
X11532906Y-10159650D01*
X11516993Y-10159650D01*
X11426993Y-10159650D01*
X11412292Y-10165740D01*
X11401040Y-10176992D01*
X11394950Y-10191694D01*
X11394950Y-10207607D01*
X11394950Y-10307607D01*
X11401040Y-10322308D01*
X11412292Y-10333560D01*
X11426993Y-10339650D01*
X11433890Y-10339650D01*
X11433890Y-10403738D01*
X11425172Y-10407350D01*
X11413920Y-10418602D01*
X11407830Y-10433304D01*
X11407830Y-10449217D01*
X11407830Y-10478248D01*
X11313030Y-10500229D01*
X11307990Y-10488062D01*
X11296738Y-10476810D01*
X11282036Y-10470720D01*
X11266123Y-10470720D01*
X11156124Y-10470720D01*
X11141422Y-10476810D01*
X11130170Y-10488062D01*
X11124080Y-10502764D01*
X11124080Y-10518677D01*
X11124080Y-10570720D01*
X11124080Y-10578677D01*
X11124080Y-10597494D01*
X10919326Y-10559905D01*
X10984457Y-10532993D01*
X11066107Y-10451486D01*
X11110350Y-10344938D01*
X11110450Y-10229569D01*
X11066393Y-10122943D01*
X10998669Y-10055100D01*
X12144500Y-10055100D01*
X12144500Y-11357100D01*
X12144500Y-11357100D01*
G37*
X12144500Y-11357100D02*
X12140768Y-11357100D01*
X12140768Y-10733760D01*
X12136858Y-10684186D01*
X12125408Y-10656543D01*
X12105393Y-10648821D01*
X12084179Y-10670034D01*
X12084179Y-10627607D01*
X12076457Y-10607592D01*
X12029160Y-10592232D01*
X11979586Y-10596142D01*
X11951943Y-10607592D01*
X11944220Y-10627607D01*
X12014200Y-10697587D01*
X12084179Y-10627607D01*
X12084179Y-10670034D01*
X12035413Y-10718800D01*
X12105393Y-10788780D01*
X12125408Y-10781057D01*
X12140768Y-10733760D01*
X12140768Y-11357100D01*
X10998575Y-11357100D01*
X11066107Y-11289686D01*
X11110350Y-11183138D01*
X11110450Y-11067769D01*
X11069425Y-10968479D01*
X11143000Y-11005650D01*
X11143000Y-11030757D01*
X11149090Y-11045458D01*
X11160342Y-11056710D01*
X11163000Y-11057811D01*
X11163000Y-11065589D01*
X11160342Y-11066690D01*
X11149090Y-11077942D01*
X11143000Y-11092644D01*
X11143000Y-11108557D01*
X11143000Y-11208556D01*
X11149090Y-11223258D01*
X11160342Y-11234510D01*
X11175044Y-11240600D01*
X11190956Y-11240600D01*
X11191132Y-11240600D01*
X11202038Y-11256922D01*
X11216678Y-11271562D01*
X11222703Y-11275587D01*
X11227959Y-11280575D01*
X11275529Y-11310585D01*
X11280716Y-11312575D01*
X11285336Y-11315662D01*
X11292442Y-11317076D01*
X11299206Y-11319672D01*
X11304761Y-11319526D01*
X11310210Y-11320610D01*
X11400210Y-11320610D01*
X11445790Y-11320610D01*
X11447614Y-11320247D01*
X11449455Y-11320507D01*
X11459991Y-11317785D01*
X11470664Y-11315662D01*
X11472210Y-11314629D01*
X11474011Y-11314164D01*
X11943686Y-11087800D01*
X11947156Y-11087800D01*
X11964200Y-11087800D01*
X12097156Y-11087800D01*
X12111858Y-11081710D01*
X12123110Y-11070458D01*
X12129200Y-11055757D01*
X12129200Y-11039844D01*
X12129200Y-10889844D01*
X12123110Y-10875142D01*
X12111858Y-10863890D01*
X12097156Y-10857800D01*
X12084179Y-10857800D01*
X12084179Y-10809993D01*
X12014200Y-10740013D01*
X11992987Y-10761226D01*
X11992987Y-10718800D01*
X11923007Y-10648821D01*
X11902991Y-10656543D01*
X11887632Y-10703840D01*
X11891542Y-10753414D01*
X11902991Y-10781057D01*
X11923007Y-10788780D01*
X11992987Y-10718800D01*
X11992987Y-10761226D01*
X11944220Y-10809993D01*
X11951943Y-10830009D01*
X11999240Y-10845368D01*
X12048814Y-10841458D01*
X12076457Y-10830009D01*
X12084179Y-10809993D01*
X12084179Y-10857800D01*
X12081243Y-10857800D01*
X11931243Y-10857800D01*
X11916542Y-10863890D01*
X11905290Y-10875142D01*
X11899200Y-10889844D01*
X11899200Y-10905757D01*
X11899200Y-10964930D01*
X11463000Y-11175160D01*
X11463000Y-11145451D01*
X11468355Y-11140095D01*
X11473261Y-11132753D01*
X11478440Y-11125601D01*
X11508450Y-11060231D01*
X11509285Y-11056727D01*
X11510960Y-11053539D01*
X11594371Y-10771260D01*
X11630786Y-10771260D01*
X11645488Y-10765170D01*
X11656740Y-10753918D01*
X11662830Y-10739217D01*
X11662830Y-10723304D01*
X11662830Y-10633304D01*
X11656740Y-10618602D01*
X11645488Y-10607350D01*
X11630786Y-10601260D01*
X11614873Y-10601260D01*
X11534873Y-10601260D01*
X11520172Y-10607350D01*
X11508920Y-10618602D01*
X11502830Y-10633304D01*
X11502830Y-10649217D01*
X11502830Y-10721260D01*
X11502830Y-10728167D01*
X11453130Y-10896362D01*
X11445658Y-10888890D01*
X11430956Y-10882800D01*
X11415043Y-10882800D01*
X11381003Y-10882800D01*
X11305424Y-10730944D01*
X11307990Y-10728378D01*
X11312830Y-10716694D01*
X11312830Y-10739217D01*
X11318920Y-10753918D01*
X11330172Y-10765170D01*
X11344873Y-10771260D01*
X11360786Y-10771260D01*
X11440786Y-10771260D01*
X11455488Y-10765170D01*
X11466740Y-10753918D01*
X11472830Y-10739217D01*
X11472830Y-10723304D01*
X11472830Y-10633304D01*
X11466740Y-10618602D01*
X11455488Y-10607350D01*
X11440786Y-10601260D01*
X11424873Y-10601260D01*
X11344873Y-10601260D01*
X11330172Y-10607350D01*
X11328432Y-10609089D01*
X11312645Y-10607933D01*
X11313680Y-10602732D01*
X11449411Y-10571260D01*
X11455786Y-10571260D01*
X11457830Y-10571260D01*
X11535786Y-10571260D01*
X11550488Y-10565170D01*
X11561740Y-10553918D01*
X11567830Y-10539217D01*
X11567830Y-10523304D01*
X11567830Y-10514800D01*
X11910429Y-10514800D01*
X11916651Y-10529857D01*
X11948973Y-10562235D01*
X11991225Y-10579780D01*
X12036975Y-10579820D01*
X12079257Y-10562349D01*
X12111635Y-10530027D01*
X12129180Y-10487775D01*
X12129220Y-10442025D01*
X12111749Y-10399743D01*
X12079427Y-10367365D01*
X12037175Y-10349820D01*
X11991425Y-10349780D01*
X11949143Y-10367251D01*
X11916765Y-10399573D01*
X11910442Y-10414800D01*
X11724950Y-10414800D01*
X11724950Y-10309596D01*
X11724950Y-10289704D01*
X11724950Y-10277150D01*
X11724950Y-10222150D01*
X11724950Y-10209596D01*
X11724950Y-10189704D01*
X11717338Y-10171327D01*
X11703273Y-10157262D01*
X11684896Y-10149650D01*
X11657450Y-10149650D01*
X11644950Y-10162150D01*
X11644950Y-10234650D01*
X11712450Y-10234650D01*
X11724950Y-10222150D01*
X11724950Y-10277150D01*
X11712450Y-10264650D01*
X11644950Y-10264650D01*
X11644950Y-10337150D01*
X11657450Y-10349650D01*
X11684896Y-10349650D01*
X11703273Y-10342038D01*
X11717338Y-10327973D01*
X11724950Y-10309596D01*
X11724950Y-10414800D01*
X11557939Y-10414800D01*
X11550488Y-10407350D01*
X11535786Y-10401260D01*
X11533890Y-10401260D01*
X11533890Y-10339243D01*
X11547608Y-10333560D01*
X11547879Y-10333290D01*
X11556627Y-10342038D01*
X11575004Y-10349650D01*
X11602450Y-10349650D01*
X11614950Y-10337150D01*
X11614950Y-10264650D01*
X11612950Y-10264650D01*
X11612950Y-10234650D01*
X11614950Y-10234650D01*
X11614950Y-10162150D01*
X11602450Y-10149650D01*
X11575004Y-10149650D01*
X11556627Y-10157262D01*
X11547879Y-10166010D01*
X11547608Y-10165740D01*
X11532906Y-10159650D01*
X11516993Y-10159650D01*
X11426993Y-10159650D01*
X11412292Y-10165740D01*
X11401040Y-10176992D01*
X11394950Y-10191694D01*
X11394950Y-10207607D01*
X11394950Y-10307607D01*
X11401040Y-10322308D01*
X11412292Y-10333560D01*
X11426993Y-10339650D01*
X11433890Y-10339650D01*
X11433890Y-10403738D01*
X11425172Y-10407350D01*
X11413920Y-10418602D01*
X11407830Y-10433304D01*
X11407830Y-10449217D01*
X11407830Y-10478248D01*
X11313030Y-10500229D01*
X11307990Y-10488062D01*
X11296738Y-10476810D01*
X11282036Y-10470720D01*
X11266123Y-10470720D01*
X11156124Y-10470720D01*
X11141422Y-10476810D01*
X11130170Y-10488062D01*
X11124080Y-10502764D01*
X11124080Y-10518677D01*
X11124080Y-10570720D01*
X11124080Y-10578677D01*
X11124080Y-10597494D01*
X10919326Y-10559905D01*
X10984457Y-10532993D01*
X11066107Y-10451486D01*
X11110350Y-10344938D01*
X11110450Y-10229569D01*
X11066393Y-10122943D01*
X10998669Y-10055100D01*
X12144500Y-10055100D01*
X12144500Y-11357100D01*
G36*
X10399662Y-8918200D02*
X10349705Y-8918200D01*
X10344710Y-8906142D01*
X10333458Y-8894890D01*
X10318757Y-8888800D01*
X10302844Y-8888800D01*
X10233806Y-8888800D01*
X10290460Y-8761200D01*
X10299157Y-8761200D01*
X10299332Y-8761200D01*
X10299450Y-8761377D01*
X10301647Y-8766901D01*
X10399662Y-8918200D01*
X10399662Y-8918200D01*
G37*
X10399662Y-8918200D02*
X10349705Y-8918200D01*
X10344710Y-8906142D01*
X10333458Y-8894890D01*
X10318757Y-8888800D01*
X10302844Y-8888800D01*
X10233806Y-8888800D01*
X10290460Y-8761200D01*
X10299157Y-8761200D01*
X10299332Y-8761200D01*
X10299450Y-8761377D01*
X10301647Y-8766901D01*
X10399662Y-8918200D01*
G36*
X10532600Y-9160000D02*
X10530600Y-9160000D01*
X10530600Y-9162000D01*
X10500600Y-9162000D01*
X10500600Y-9160000D01*
X10427300Y-9160000D01*
X10414800Y-9172500D01*
X10414800Y-9199396D01*
X10422011Y-9216805D01*
X10328091Y-9238771D01*
X10345285Y-9222245D01*
X10358535Y-9191966D01*
X10358535Y-9135634D01*
X10345285Y-9105355D01*
X10321457Y-9082452D01*
X10303704Y-9073511D01*
X10290800Y-9082869D01*
X10290800Y-9148800D01*
X10347858Y-9148800D01*
X10358535Y-9135634D01*
X10358535Y-9191966D01*
X10347858Y-9178800D01*
X10290800Y-9178800D01*
X10290800Y-9180800D01*
X10260800Y-9180800D01*
X10260800Y-9178800D01*
X10258800Y-9178800D01*
X10258800Y-9148800D01*
X10260800Y-9148800D01*
X10260800Y-9082869D01*
X10247896Y-9073511D01*
X10230143Y-9082452D01*
X10206315Y-9105355D01*
X10205007Y-9108342D01*
X10198833Y-9099102D01*
X10174501Y-9082844D01*
X10151606Y-9078290D01*
X10163086Y-9057027D01*
X10174501Y-9054756D01*
X10198833Y-9038498D01*
X10203050Y-9032188D01*
X10206890Y-9041458D01*
X10218142Y-9052710D01*
X10232844Y-9058800D01*
X10248757Y-9058800D01*
X10318757Y-9058800D01*
X10333458Y-9052710D01*
X10337969Y-9048200D01*
X10426123Y-9048200D01*
X10430890Y-9059708D01*
X10432910Y-9061729D01*
X10422412Y-9072227D01*
X10414800Y-9090604D01*
X10414800Y-9117500D01*
X10427300Y-9130000D01*
X10500600Y-9130000D01*
X10500600Y-9128000D01*
X10530600Y-9128000D01*
X10530600Y-9130000D01*
X10532600Y-9130000D01*
X10532600Y-9160000D01*
X10532600Y-9160000D01*
G37*
X10532600Y-9160000D02*
X10530600Y-9160000D01*
X10530600Y-9162000D01*
X10500600Y-9162000D01*
X10500600Y-9160000D01*
X10427300Y-9160000D01*
X10414800Y-9172500D01*
X10414800Y-9199396D01*
X10422011Y-9216805D01*
X10328091Y-9238771D01*
X10345285Y-9222245D01*
X10358535Y-9191966D01*
X10358535Y-9135634D01*
X10345285Y-9105355D01*
X10321457Y-9082452D01*
X10303704Y-9073511D01*
X10290800Y-9082869D01*
X10290800Y-9148800D01*
X10347858Y-9148800D01*
X10358535Y-9135634D01*
X10358535Y-9191966D01*
X10347858Y-9178800D01*
X10290800Y-9178800D01*
X10290800Y-9180800D01*
X10260800Y-9180800D01*
X10260800Y-9178800D01*
X10258800Y-9178800D01*
X10258800Y-9148800D01*
X10260800Y-9148800D01*
X10260800Y-9082869D01*
X10247896Y-9073511D01*
X10230143Y-9082452D01*
X10206315Y-9105355D01*
X10205007Y-9108342D01*
X10198833Y-9099102D01*
X10174501Y-9082844D01*
X10151606Y-9078290D01*
X10163086Y-9057027D01*
X10174501Y-9054756D01*
X10198833Y-9038498D01*
X10203050Y-9032188D01*
X10206890Y-9041458D01*
X10218142Y-9052710D01*
X10232844Y-9058800D01*
X10248757Y-9058800D01*
X10318757Y-9058800D01*
X10333458Y-9052710D01*
X10337969Y-9048200D01*
X10426123Y-9048200D01*
X10430890Y-9059708D01*
X10432910Y-9061729D01*
X10422412Y-9072227D01*
X10414800Y-9090604D01*
X10414800Y-9117500D01*
X10427300Y-9130000D01*
X10500600Y-9130000D01*
X10500600Y-9128000D01*
X10530600Y-9128000D01*
X10530600Y-9130000D01*
X10532600Y-9130000D01*
X10532600Y-9160000D01*
G36*
X10642131Y-9707100D02*
X10055100Y-9707100D01*
X10055100Y-9502455D01*
X10055429Y-9505433D01*
X10057833Y-9509805D01*
X10059351Y-9514558D01*
X10062488Y-9518269D01*
X10064830Y-9522528D01*
X10100950Y-9565487D01*
X10100950Y-9660957D01*
X10107040Y-9675658D01*
X10118292Y-9686910D01*
X10132994Y-9693000D01*
X10148907Y-9693000D01*
X10237807Y-9693000D01*
X10252508Y-9686910D01*
X10261600Y-9677819D01*
X10270692Y-9686910D01*
X10285394Y-9693000D01*
X10301307Y-9693000D01*
X10390207Y-9693000D01*
X10404908Y-9686910D01*
X10416160Y-9675658D01*
X10422250Y-9660957D01*
X10422250Y-9645044D01*
X10422250Y-9543444D01*
X10416160Y-9528742D01*
X10404908Y-9517490D01*
X10393503Y-9512765D01*
X10404258Y-9508310D01*
X10415510Y-9497058D01*
X10421600Y-9482357D01*
X10421600Y-9466444D01*
X10421600Y-9366444D01*
X10415545Y-9351826D01*
X10572904Y-9315023D01*
X10530451Y-9417262D01*
X10530350Y-9532632D01*
X10574407Y-9639257D01*
X10642131Y-9707100D01*
X10642131Y-9707100D01*
G37*
X10642131Y-9707100D02*
X10055100Y-9707100D01*
X10055100Y-9502455D01*
X10055429Y-9505433D01*
X10057833Y-9509805D01*
X10059351Y-9514558D01*
X10062488Y-9518269D01*
X10064830Y-9522528D01*
X10100950Y-9565487D01*
X10100950Y-9660957D01*
X10107040Y-9675658D01*
X10118292Y-9686910D01*
X10132994Y-9693000D01*
X10148907Y-9693000D01*
X10237807Y-9693000D01*
X10252508Y-9686910D01*
X10261600Y-9677819D01*
X10270692Y-9686910D01*
X10285394Y-9693000D01*
X10301307Y-9693000D01*
X10390207Y-9693000D01*
X10404908Y-9686910D01*
X10416160Y-9675658D01*
X10422250Y-9660957D01*
X10422250Y-9645044D01*
X10422250Y-9543444D01*
X10416160Y-9528742D01*
X10404908Y-9517490D01*
X10393503Y-9512765D01*
X10404258Y-9508310D01*
X10415510Y-9497058D01*
X10421600Y-9482357D01*
X10421600Y-9466444D01*
X10421600Y-9366444D01*
X10415545Y-9351826D01*
X10572904Y-9315023D01*
X10530451Y-9417262D01*
X10530350Y-9532632D01*
X10574407Y-9639257D01*
X10642131Y-9707100D01*
G36*
X10642225Y-8405100D02*
X10574693Y-8472514D01*
X10530451Y-8579062D01*
X10530375Y-8665026D01*
X10421200Y-8518739D01*
X10421200Y-8443244D01*
X10415110Y-8428542D01*
X10403858Y-8417290D01*
X10389157Y-8411200D01*
X10373244Y-8411200D01*
X10283244Y-8411200D01*
X10268542Y-8417290D01*
X10257290Y-8428542D01*
X10251200Y-8443244D01*
X10251200Y-8459157D01*
X10251200Y-8521200D01*
X10251200Y-8522294D01*
X10231200Y-8558010D01*
X10231200Y-8536254D01*
X10223588Y-8517877D01*
X10209523Y-8503812D01*
X10191146Y-8496200D01*
X10171254Y-8496200D01*
X10163700Y-8496200D01*
X10151200Y-8508700D01*
X10151200Y-8571200D01*
X10153200Y-8571200D01*
X10153200Y-8601200D01*
X10151200Y-8601200D01*
X10151200Y-8663700D01*
X10163700Y-8676200D01*
X10171254Y-8676200D01*
X10191146Y-8676200D01*
X10201200Y-8672035D01*
X10201200Y-8715809D01*
X10123130Y-8891644D01*
X10117099Y-8892844D01*
X10092767Y-8909102D01*
X10076509Y-8933434D01*
X10070800Y-8962135D01*
X10070800Y-8985465D01*
X10075452Y-9008852D01*
X10055100Y-9046547D01*
X10055100Y-8660811D01*
X10062877Y-8668588D01*
X10081254Y-8676200D01*
X10101146Y-8676200D01*
X10108700Y-8676200D01*
X10121200Y-8663700D01*
X10121200Y-8601200D01*
X10119200Y-8601200D01*
X10119200Y-8571200D01*
X10121200Y-8571200D01*
X10121200Y-8508700D01*
X10108700Y-8496200D01*
X10101146Y-8496200D01*
X10081254Y-8496200D01*
X10062877Y-8503812D01*
X10055100Y-8511589D01*
X10055100Y-8405100D01*
X10642225Y-8405100D01*
X10642225Y-8405100D01*
G37*
X10642225Y-8405100D02*
X10574693Y-8472514D01*
X10530451Y-8579062D01*
X10530375Y-8665026D01*
X10421200Y-8518739D01*
X10421200Y-8443244D01*
X10415110Y-8428542D01*
X10403858Y-8417290D01*
X10389157Y-8411200D01*
X10373244Y-8411200D01*
X10283244Y-8411200D01*
X10268542Y-8417290D01*
X10257290Y-8428542D01*
X10251200Y-8443244D01*
X10251200Y-8459157D01*
X10251200Y-8521200D01*
X10251200Y-8522294D01*
X10231200Y-8558010D01*
X10231200Y-8536254D01*
X10223588Y-8517877D01*
X10209523Y-8503812D01*
X10191146Y-8496200D01*
X10171254Y-8496200D01*
X10163700Y-8496200D01*
X10151200Y-8508700D01*
X10151200Y-8571200D01*
X10153200Y-8571200D01*
X10153200Y-8601200D01*
X10151200Y-8601200D01*
X10151200Y-8663700D01*
X10163700Y-8676200D01*
X10171254Y-8676200D01*
X10191146Y-8676200D01*
X10201200Y-8672035D01*
X10201200Y-8715809D01*
X10123130Y-8891644D01*
X10117099Y-8892844D01*
X10092767Y-8909102D01*
X10076509Y-8933434D01*
X10070800Y-8962135D01*
X10070800Y-8985465D01*
X10075452Y-9008852D01*
X10055100Y-9046547D01*
X10055100Y-8660811D01*
X10062877Y-8668588D01*
X10081254Y-8676200D01*
X10101146Y-8676200D01*
X10108700Y-8676200D01*
X10121200Y-8663700D01*
X10121200Y-8601200D01*
X10119200Y-8601200D01*
X10119200Y-8571200D01*
X10121200Y-8571200D01*
X10121200Y-8508700D01*
X10108700Y-8496200D01*
X10101146Y-8496200D01*
X10081254Y-8496200D01*
X10062877Y-8503812D01*
X10055100Y-8511589D01*
X10055100Y-8405100D01*
X10642225Y-8405100D01*
G36*
X11269302Y-9232800D02*
X11265043Y-9232800D01*
X11208000Y-9232800D01*
X11188127Y-9232800D01*
X11003301Y-9139424D01*
X11000919Y-9138761D01*
X10998864Y-9137388D01*
X10933074Y-9110138D01*
X10922108Y-9107957D01*
X10911258Y-9105262D01*
X10698416Y-9095239D01*
X10681757Y-9053611D01*
X10679070Y-9049482D01*
X10677451Y-9044829D01*
X10647441Y-8993759D01*
X10641949Y-8987593D01*
X10637362Y-8980728D01*
X10622722Y-8966088D01*
X10606400Y-8955182D01*
X10606400Y-8940194D01*
X10600310Y-8925492D01*
X10589058Y-8914240D01*
X10574357Y-8908150D01*
X10558444Y-8908150D01*
X10546668Y-8908150D01*
X10546550Y-8907973D01*
X10544353Y-8902449D01*
X10421200Y-8712346D01*
X10421200Y-8696200D01*
X10421200Y-8685933D01*
X10515289Y-8812005D01*
X10517987Y-8814436D01*
X10520005Y-8817455D01*
X10639945Y-8937395D01*
X10639946Y-8937396D01*
X10639946Y-8937397D01*
X10648014Y-8942787D01*
X10656166Y-8948234D01*
X10656167Y-8948234D01*
X10656168Y-8948235D01*
X10716458Y-8973205D01*
X10721645Y-8974236D01*
X10726562Y-8976188D01*
X11124080Y-9049165D01*
X11124080Y-9063677D01*
X11130170Y-9078378D01*
X11141422Y-9089630D01*
X11156124Y-9095720D01*
X11172037Y-9095720D01*
X11201077Y-9095720D01*
X11269302Y-9232800D01*
X11269302Y-9232800D01*
G37*
X11269302Y-9232800D02*
X11265043Y-9232800D01*
X11208000Y-9232800D01*
X11188127Y-9232800D01*
X11003301Y-9139424D01*
X11000919Y-9138761D01*
X10998864Y-9137388D01*
X10933074Y-9110138D01*
X10922108Y-9107957D01*
X10911258Y-9105262D01*
X10698416Y-9095239D01*
X10681757Y-9053611D01*
X10679070Y-9049482D01*
X10677451Y-9044829D01*
X10647441Y-8993759D01*
X10641949Y-8987593D01*
X10637362Y-8980728D01*
X10622722Y-8966088D01*
X10606400Y-8955182D01*
X10606400Y-8940194D01*
X10600310Y-8925492D01*
X10589058Y-8914240D01*
X10574357Y-8908150D01*
X10558444Y-8908150D01*
X10546668Y-8908150D01*
X10546550Y-8907973D01*
X10544353Y-8902449D01*
X10421200Y-8712346D01*
X10421200Y-8696200D01*
X10421200Y-8685933D01*
X10515289Y-8812005D01*
X10517987Y-8814436D01*
X10520005Y-8817455D01*
X10639945Y-8937395D01*
X10639946Y-8937396D01*
X10639946Y-8937397D01*
X10648014Y-8942787D01*
X10656166Y-8948234D01*
X10656167Y-8948234D01*
X10656168Y-8948235D01*
X10716458Y-8973205D01*
X10721645Y-8974236D01*
X10726562Y-8976188D01*
X11124080Y-9049165D01*
X11124080Y-9063677D01*
X11130170Y-9078378D01*
X11141422Y-9089630D01*
X11156124Y-9095720D01*
X11172037Y-9095720D01*
X11201077Y-9095720D01*
X11269302Y-9232800D01*
G36*
X12144500Y-9707100D02*
X12140768Y-9707100D01*
X12140768Y-9083760D01*
X12136858Y-9034186D01*
X12125408Y-9006543D01*
X12105393Y-8998821D01*
X12084179Y-9020034D01*
X12084179Y-8977607D01*
X12076457Y-8957592D01*
X12029160Y-8942232D01*
X11979586Y-8946142D01*
X11951943Y-8957592D01*
X11944220Y-8977607D01*
X12014200Y-9047587D01*
X12084179Y-8977607D01*
X12084179Y-9020034D01*
X12035413Y-9068800D01*
X12105393Y-9138780D01*
X12125408Y-9131057D01*
X12140768Y-9083760D01*
X12140768Y-9707100D01*
X10998575Y-9707100D01*
X11066107Y-9639686D01*
X11110350Y-9533138D01*
X11110450Y-9417769D01*
X11069425Y-9318479D01*
X11143000Y-9355650D01*
X11143000Y-9380757D01*
X11149090Y-9395458D01*
X11160342Y-9406710D01*
X11163000Y-9407811D01*
X11163000Y-9415589D01*
X11160342Y-9416690D01*
X11149090Y-9427942D01*
X11143000Y-9442644D01*
X11143000Y-9458557D01*
X11143000Y-9558557D01*
X11149090Y-9573258D01*
X11160342Y-9584510D01*
X11175044Y-9590600D01*
X11190956Y-9590600D01*
X11191132Y-9590600D01*
X11202038Y-9606922D01*
X11216678Y-9621562D01*
X11222703Y-9625588D01*
X11227959Y-9630575D01*
X11275529Y-9660585D01*
X11280716Y-9662575D01*
X11285336Y-9665662D01*
X11292442Y-9667076D01*
X11299206Y-9669672D01*
X11304761Y-9669526D01*
X11310210Y-9670610D01*
X11400210Y-9670610D01*
X11445790Y-9670610D01*
X11447614Y-9670247D01*
X11449455Y-9670507D01*
X11459991Y-9667785D01*
X11470664Y-9665662D01*
X11472210Y-9664629D01*
X11474011Y-9664164D01*
X11943686Y-9437800D01*
X11947156Y-9437800D01*
X11964200Y-9437800D01*
X12097156Y-9437800D01*
X12111858Y-9431710D01*
X12123110Y-9420458D01*
X12129200Y-9405757D01*
X12129200Y-9389844D01*
X12129200Y-9239844D01*
X12123110Y-9225142D01*
X12111858Y-9213890D01*
X12097156Y-9207800D01*
X12084179Y-9207800D01*
X12084179Y-9159993D01*
X12014200Y-9090013D01*
X11992987Y-9111226D01*
X11992987Y-9068800D01*
X11923007Y-8998821D01*
X11902991Y-9006543D01*
X11887632Y-9053840D01*
X11891542Y-9103414D01*
X11902991Y-9131057D01*
X11923007Y-9138780D01*
X11992987Y-9068800D01*
X11992987Y-9111226D01*
X11944220Y-9159993D01*
X11951943Y-9180009D01*
X11999240Y-9195368D01*
X12048814Y-9191458D01*
X12076457Y-9180009D01*
X12084179Y-9159993D01*
X12084179Y-9207800D01*
X12081243Y-9207800D01*
X11931243Y-9207800D01*
X11916542Y-9213890D01*
X11905290Y-9225142D01*
X11899200Y-9239844D01*
X11899200Y-9255757D01*
X11899200Y-9314930D01*
X11463000Y-9525160D01*
X11463000Y-9495451D01*
X11468355Y-9490095D01*
X11473261Y-9482753D01*
X11478440Y-9475601D01*
X11508450Y-9410231D01*
X11509285Y-9406727D01*
X11510960Y-9403539D01*
X11594371Y-9121260D01*
X11630786Y-9121260D01*
X11645488Y-9115170D01*
X11656740Y-9103918D01*
X11662830Y-9089217D01*
X11662830Y-9073304D01*
X11662830Y-8983304D01*
X11656740Y-8968602D01*
X11645488Y-8957350D01*
X11630786Y-8951260D01*
X11614873Y-8951260D01*
X11534873Y-8951260D01*
X11520172Y-8957350D01*
X11508920Y-8968602D01*
X11502830Y-8983304D01*
X11502830Y-8999217D01*
X11502830Y-9071260D01*
X11502830Y-9078167D01*
X11453130Y-9246362D01*
X11445658Y-9238890D01*
X11430956Y-9232800D01*
X11415043Y-9232800D01*
X11381003Y-9232800D01*
X11305424Y-9080944D01*
X11307990Y-9078378D01*
X11312830Y-9066694D01*
X11312830Y-9089217D01*
X11318920Y-9103918D01*
X11330172Y-9115170D01*
X11344873Y-9121260D01*
X11360786Y-9121260D01*
X11440786Y-9121260D01*
X11455488Y-9115170D01*
X11466740Y-9103918D01*
X11472830Y-9089217D01*
X11472830Y-9073304D01*
X11472830Y-8983304D01*
X11466740Y-8968602D01*
X11455488Y-8957350D01*
X11440786Y-8951260D01*
X11424873Y-8951260D01*
X11344873Y-8951260D01*
X11330172Y-8957350D01*
X11328432Y-8959089D01*
X11312645Y-8957933D01*
X11313680Y-8952732D01*
X11449411Y-8921260D01*
X11455786Y-8921260D01*
X11457830Y-8921260D01*
X11535786Y-8921260D01*
X11550488Y-8915170D01*
X11561740Y-8903918D01*
X11567830Y-8889217D01*
X11567830Y-8873304D01*
X11567830Y-8864800D01*
X11910429Y-8864800D01*
X11916651Y-8879857D01*
X11948973Y-8912235D01*
X11991225Y-8929780D01*
X12036975Y-8929820D01*
X12079257Y-8912349D01*
X12111635Y-8880027D01*
X12129180Y-8837775D01*
X12129220Y-8792025D01*
X12111749Y-8749743D01*
X12079427Y-8717365D01*
X12037175Y-8699820D01*
X11991425Y-8699780D01*
X11949143Y-8717251D01*
X11916765Y-8749573D01*
X11910442Y-8764800D01*
X11724950Y-8764800D01*
X11724950Y-8659596D01*
X11724950Y-8639704D01*
X11724950Y-8627150D01*
X11724950Y-8572150D01*
X11724950Y-8559596D01*
X11724950Y-8539704D01*
X11717338Y-8521327D01*
X11703273Y-8507262D01*
X11684896Y-8499650D01*
X11657450Y-8499650D01*
X11644950Y-8512150D01*
X11644950Y-8584650D01*
X11712450Y-8584650D01*
X11724950Y-8572150D01*
X11724950Y-8627150D01*
X11712450Y-8614650D01*
X11644950Y-8614650D01*
X11644950Y-8687150D01*
X11657450Y-8699650D01*
X11684896Y-8699650D01*
X11703273Y-8692038D01*
X11717338Y-8677973D01*
X11724950Y-8659596D01*
X11724950Y-8764800D01*
X11557939Y-8764800D01*
X11550488Y-8757350D01*
X11535786Y-8751260D01*
X11533890Y-8751260D01*
X11533890Y-8689243D01*
X11547608Y-8683560D01*
X11547879Y-8683290D01*
X11556627Y-8692038D01*
X11575004Y-8699650D01*
X11602450Y-8699650D01*
X11614950Y-8687150D01*
X11614950Y-8614650D01*
X11612950Y-8614650D01*
X11612950Y-8584650D01*
X11614950Y-8584650D01*
X11614950Y-8512150D01*
X11602450Y-8499650D01*
X11575004Y-8499650D01*
X11556627Y-8507262D01*
X11547879Y-8516010D01*
X11547608Y-8515740D01*
X11532906Y-8509650D01*
X11516993Y-8509650D01*
X11426993Y-8509650D01*
X11412292Y-8515740D01*
X11401040Y-8526992D01*
X11394950Y-8541694D01*
X11394950Y-8557607D01*
X11394950Y-8657607D01*
X11401040Y-8672308D01*
X11412292Y-8683560D01*
X11426993Y-8689650D01*
X11433890Y-8689650D01*
X11433890Y-8753738D01*
X11425172Y-8757350D01*
X11413920Y-8768602D01*
X11407830Y-8783304D01*
X11407830Y-8799217D01*
X11407830Y-8828248D01*
X11313030Y-8850229D01*
X11307990Y-8838062D01*
X11296738Y-8826810D01*
X11282036Y-8820720D01*
X11266123Y-8820720D01*
X11156124Y-8820720D01*
X11141422Y-8826810D01*
X11130170Y-8838062D01*
X11124080Y-8852764D01*
X11124080Y-8868677D01*
X11124080Y-8920720D01*
X11124080Y-8928677D01*
X11124080Y-8947494D01*
X10919326Y-8909905D01*
X10984457Y-8882993D01*
X11066107Y-8801486D01*
X11110350Y-8694938D01*
X11110450Y-8579569D01*
X11066393Y-8472943D01*
X10998669Y-8405100D01*
X12144500Y-8405100D01*
X12144500Y-9707100D01*
X12144500Y-9707100D01*
G37*
X12144500Y-9707100D02*
X12140768Y-9707100D01*
X12140768Y-9083760D01*
X12136858Y-9034186D01*
X12125408Y-9006543D01*
X12105393Y-8998821D01*
X12084179Y-9020034D01*
X12084179Y-8977607D01*
X12076457Y-8957592D01*
X12029160Y-8942232D01*
X11979586Y-8946142D01*
X11951943Y-8957592D01*
X11944220Y-8977607D01*
X12014200Y-9047587D01*
X12084179Y-8977607D01*
X12084179Y-9020034D01*
X12035413Y-9068800D01*
X12105393Y-9138780D01*
X12125408Y-9131057D01*
X12140768Y-9083760D01*
X12140768Y-9707100D01*
X10998575Y-9707100D01*
X11066107Y-9639686D01*
X11110350Y-9533138D01*
X11110450Y-9417769D01*
X11069425Y-9318479D01*
X11143000Y-9355650D01*
X11143000Y-9380757D01*
X11149090Y-9395458D01*
X11160342Y-9406710D01*
X11163000Y-9407811D01*
X11163000Y-9415589D01*
X11160342Y-9416690D01*
X11149090Y-9427942D01*
X11143000Y-9442644D01*
X11143000Y-9458557D01*
X11143000Y-9558557D01*
X11149090Y-9573258D01*
X11160342Y-9584510D01*
X11175044Y-9590600D01*
X11190956Y-9590600D01*
X11191132Y-9590600D01*
X11202038Y-9606922D01*
X11216678Y-9621562D01*
X11222703Y-9625588D01*
X11227959Y-9630575D01*
X11275529Y-9660585D01*
X11280716Y-9662575D01*
X11285336Y-9665662D01*
X11292442Y-9667076D01*
X11299206Y-9669672D01*
X11304761Y-9669526D01*
X11310210Y-9670610D01*
X11400210Y-9670610D01*
X11445790Y-9670610D01*
X11447614Y-9670247D01*
X11449455Y-9670507D01*
X11459991Y-9667785D01*
X11470664Y-9665662D01*
X11472210Y-9664629D01*
X11474011Y-9664164D01*
X11943686Y-9437800D01*
X11947156Y-9437800D01*
X11964200Y-9437800D01*
X12097156Y-9437800D01*
X12111858Y-9431710D01*
X12123110Y-9420458D01*
X12129200Y-9405757D01*
X12129200Y-9389844D01*
X12129200Y-9239844D01*
X12123110Y-9225142D01*
X12111858Y-9213890D01*
X12097156Y-9207800D01*
X12084179Y-9207800D01*
X12084179Y-9159993D01*
X12014200Y-9090013D01*
X11992987Y-9111226D01*
X11992987Y-9068800D01*
X11923007Y-8998821D01*
X11902991Y-9006543D01*
X11887632Y-9053840D01*
X11891542Y-9103414D01*
X11902991Y-9131057D01*
X11923007Y-9138780D01*
X11992987Y-9068800D01*
X11992987Y-9111226D01*
X11944220Y-9159993D01*
X11951943Y-9180009D01*
X11999240Y-9195368D01*
X12048814Y-9191458D01*
X12076457Y-9180009D01*
X12084179Y-9159993D01*
X12084179Y-9207800D01*
X12081243Y-9207800D01*
X11931243Y-9207800D01*
X11916542Y-9213890D01*
X11905290Y-9225142D01*
X11899200Y-9239844D01*
X11899200Y-9255757D01*
X11899200Y-9314930D01*
X11463000Y-9525160D01*
X11463000Y-9495451D01*
X11468355Y-9490095D01*
X11473261Y-9482753D01*
X11478440Y-9475601D01*
X11508450Y-9410231D01*
X11509285Y-9406727D01*
X11510960Y-9403539D01*
X11594371Y-9121260D01*
X11630786Y-9121260D01*
X11645488Y-9115170D01*
X11656740Y-9103918D01*
X11662830Y-9089217D01*
X11662830Y-9073304D01*
X11662830Y-8983304D01*
X11656740Y-8968602D01*
X11645488Y-8957350D01*
X11630786Y-8951260D01*
X11614873Y-8951260D01*
X11534873Y-8951260D01*
X11520172Y-8957350D01*
X11508920Y-8968602D01*
X11502830Y-8983304D01*
X11502830Y-8999217D01*
X11502830Y-9071260D01*
X11502830Y-9078167D01*
X11453130Y-9246362D01*
X11445658Y-9238890D01*
X11430956Y-9232800D01*
X11415043Y-9232800D01*
X11381003Y-9232800D01*
X11305424Y-9080944D01*
X11307990Y-9078378D01*
X11312830Y-9066694D01*
X11312830Y-9089217D01*
X11318920Y-9103918D01*
X11330172Y-9115170D01*
X11344873Y-9121260D01*
X11360786Y-9121260D01*
X11440786Y-9121260D01*
X11455488Y-9115170D01*
X11466740Y-9103918D01*
X11472830Y-9089217D01*
X11472830Y-9073304D01*
X11472830Y-8983304D01*
X11466740Y-8968602D01*
X11455488Y-8957350D01*
X11440786Y-8951260D01*
X11424873Y-8951260D01*
X11344873Y-8951260D01*
X11330172Y-8957350D01*
X11328432Y-8959089D01*
X11312645Y-8957933D01*
X11313680Y-8952732D01*
X11449411Y-8921260D01*
X11455786Y-8921260D01*
X11457830Y-8921260D01*
X11535786Y-8921260D01*
X11550488Y-8915170D01*
X11561740Y-8903918D01*
X11567830Y-8889217D01*
X11567830Y-8873304D01*
X11567830Y-8864800D01*
X11910429Y-8864800D01*
X11916651Y-8879857D01*
X11948973Y-8912235D01*
X11991225Y-8929780D01*
X12036975Y-8929820D01*
X12079257Y-8912349D01*
X12111635Y-8880027D01*
X12129180Y-8837775D01*
X12129220Y-8792025D01*
X12111749Y-8749743D01*
X12079427Y-8717365D01*
X12037175Y-8699820D01*
X11991425Y-8699780D01*
X11949143Y-8717251D01*
X11916765Y-8749573D01*
X11910442Y-8764800D01*
X11724950Y-8764800D01*
X11724950Y-8659596D01*
X11724950Y-8639704D01*
X11724950Y-8627150D01*
X11724950Y-8572150D01*
X11724950Y-8559596D01*
X11724950Y-8539704D01*
X11717338Y-8521327D01*
X11703273Y-8507262D01*
X11684896Y-8499650D01*
X11657450Y-8499650D01*
X11644950Y-8512150D01*
X11644950Y-8584650D01*
X11712450Y-8584650D01*
X11724950Y-8572150D01*
X11724950Y-8627150D01*
X11712450Y-8614650D01*
X11644950Y-8614650D01*
X11644950Y-8687150D01*
X11657450Y-8699650D01*
X11684896Y-8699650D01*
X11703273Y-8692038D01*
X11717338Y-8677973D01*
X11724950Y-8659596D01*
X11724950Y-8764800D01*
X11557939Y-8764800D01*
X11550488Y-8757350D01*
X11535786Y-8751260D01*
X11533890Y-8751260D01*
X11533890Y-8689243D01*
X11547608Y-8683560D01*
X11547879Y-8683290D01*
X11556627Y-8692038D01*
X11575004Y-8699650D01*
X11602450Y-8699650D01*
X11614950Y-8687150D01*
X11614950Y-8614650D01*
X11612950Y-8614650D01*
X11612950Y-8584650D01*
X11614950Y-8584650D01*
X11614950Y-8512150D01*
X11602450Y-8499650D01*
X11575004Y-8499650D01*
X11556627Y-8507262D01*
X11547879Y-8516010D01*
X11547608Y-8515740D01*
X11532906Y-8509650D01*
X11516993Y-8509650D01*
X11426993Y-8509650D01*
X11412292Y-8515740D01*
X11401040Y-8526992D01*
X11394950Y-8541694D01*
X11394950Y-8557607D01*
X11394950Y-8657607D01*
X11401040Y-8672308D01*
X11412292Y-8683560D01*
X11426993Y-8689650D01*
X11433890Y-8689650D01*
X11433890Y-8753738D01*
X11425172Y-8757350D01*
X11413920Y-8768602D01*
X11407830Y-8783304D01*
X11407830Y-8799217D01*
X11407830Y-8828248D01*
X11313030Y-8850229D01*
X11307990Y-8838062D01*
X11296738Y-8826810D01*
X11282036Y-8820720D01*
X11266123Y-8820720D01*
X11156124Y-8820720D01*
X11141422Y-8826810D01*
X11130170Y-8838062D01*
X11124080Y-8852764D01*
X11124080Y-8868677D01*
X11124080Y-8920720D01*
X11124080Y-8928677D01*
X11124080Y-8947494D01*
X10919326Y-8909905D01*
X10984457Y-8882993D01*
X11066107Y-8801486D01*
X11110350Y-8694938D01*
X11110450Y-8579569D01*
X11066393Y-8472943D01*
X10998669Y-8405100D01*
X12144500Y-8405100D01*
X12144500Y-9707100D01*
M02*
