%FSLAX45Y45*%
G04 Gerber Fmt 4.5, Leading zero omitted, Abs format (unit mm)*
G04 Created by KiCad (PCBNEW (2014-07-12 BZR 4289 GOST-COMMITTERS)-product) date 15.03.2017 23:13:34*
%MOMM*%
G01*
G04 APERTURE LIST*
%ADD10C,0.150000*%
%ADD11C,0.250000*%
%ADD12C,0.100000*%
G04 APERTURE END LIST*
D10*
X11756238Y-9265667D02*
X11856238Y-9299000D01*
X11756238Y-9332333D01*
X11846714Y-9422810D02*
X11851476Y-9418048D01*
X11856238Y-9403762D01*
X11856238Y-9394238D01*
X11851476Y-9379952D01*
X11841952Y-9370429D01*
X11832429Y-9365667D01*
X11813381Y-9360905D01*
X11799095Y-9360905D01*
X11780048Y-9365667D01*
X11770524Y-9370429D01*
X11761000Y-9379952D01*
X11756238Y-9394238D01*
X11756238Y-9403762D01*
X11761000Y-9418048D01*
X11765762Y-9422810D01*
X11846714Y-9522810D02*
X11851476Y-9518048D01*
X11856238Y-9503762D01*
X11856238Y-9494238D01*
X11851476Y-9479952D01*
X11841952Y-9470429D01*
X11832429Y-9465667D01*
X11813381Y-9460905D01*
X11799095Y-9460905D01*
X11780048Y-9465667D01*
X11770524Y-9470429D01*
X11761000Y-9479952D01*
X11756238Y-9494238D01*
X11756238Y-9503762D01*
X11761000Y-9518048D01*
X11765762Y-9522810D01*
X11761000Y-8992610D02*
X11756238Y-8983086D01*
X11756238Y-8968800D01*
X11761000Y-8954514D01*
X11770524Y-8944991D01*
X11780048Y-8940229D01*
X11799095Y-8935467D01*
X11813381Y-8935467D01*
X11832429Y-8940229D01*
X11841952Y-8944991D01*
X11851476Y-8954514D01*
X11856238Y-8968800D01*
X11856238Y-8978324D01*
X11851476Y-8992610D01*
X11846714Y-8997372D01*
X11813381Y-8997372D01*
X11813381Y-8978324D01*
X11856238Y-9040229D02*
X11756238Y-9040229D01*
X11856238Y-9097372D01*
X11756238Y-9097372D01*
X11856238Y-9144991D02*
X11756238Y-9144991D01*
X11756238Y-9168800D01*
X11761000Y-9183086D01*
X11770524Y-9192610D01*
X11780048Y-9197372D01*
X11799095Y-9202133D01*
X11813381Y-9202133D01*
X11832429Y-9197372D01*
X11841952Y-9192610D01*
X11851476Y-9183086D01*
X11856238Y-9168800D01*
X11856238Y-9144991D01*
X11756238Y-8638600D02*
X11756238Y-8657648D01*
X11761000Y-8667172D01*
X11770524Y-8676695D01*
X11789571Y-8681457D01*
X11822905Y-8681457D01*
X11841952Y-8676695D01*
X11851476Y-8667172D01*
X11856238Y-8657648D01*
X11856238Y-8638600D01*
X11851476Y-8629076D01*
X11841952Y-8619552D01*
X11822905Y-8614791D01*
X11789571Y-8614791D01*
X11770524Y-8619552D01*
X11761000Y-8629076D01*
X11756238Y-8638600D01*
X11756238Y-8724314D02*
X11837190Y-8724314D01*
X11846714Y-8729076D01*
X11851476Y-8733838D01*
X11856238Y-8743362D01*
X11856238Y-8762410D01*
X11851476Y-8771933D01*
X11846714Y-8776695D01*
X11837190Y-8781457D01*
X11756238Y-8781457D01*
X11756238Y-8814791D02*
X11756238Y-8871933D01*
X11856238Y-8843362D02*
X11756238Y-8843362D01*
D11*
X10237357Y-8684872D02*
X10087357Y-8684872D01*
X10194500Y-8726538D01*
X10087357Y-8768205D01*
X10237357Y-8768205D01*
X10237357Y-8881300D02*
X10158786Y-8881300D01*
X10144500Y-8875348D01*
X10137357Y-8863443D01*
X10137357Y-8839633D01*
X10144500Y-8827729D01*
X10230214Y-8881300D02*
X10237357Y-8869395D01*
X10237357Y-8839633D01*
X10230214Y-8827729D01*
X10215929Y-8821776D01*
X10201643Y-8821776D01*
X10187357Y-8827729D01*
X10180214Y-8839633D01*
X10180214Y-8869395D01*
X10173071Y-8881300D01*
X10137357Y-8994395D02*
X10258786Y-8994395D01*
X10273071Y-8988443D01*
X10280214Y-8982491D01*
X10287357Y-8970586D01*
X10287357Y-8952729D01*
X10280214Y-8940824D01*
X10230214Y-8994395D02*
X10237357Y-8982491D01*
X10237357Y-8958681D01*
X10230214Y-8946776D01*
X10223071Y-8940824D01*
X10208786Y-8934871D01*
X10165929Y-8934871D01*
X10151643Y-8940824D01*
X10144500Y-8946776D01*
X10137357Y-8958681D01*
X10137357Y-8982491D01*
X10144500Y-8994395D01*
X10137357Y-9053919D02*
X10237357Y-9053919D01*
X10151643Y-9053919D02*
X10144500Y-9059871D01*
X10137357Y-9071776D01*
X10137357Y-9089633D01*
X10144500Y-9101538D01*
X10158786Y-9107490D01*
X10237357Y-9107490D01*
X10230214Y-9214633D02*
X10237357Y-9202729D01*
X10237357Y-9178919D01*
X10230214Y-9167014D01*
X10215929Y-9161062D01*
X10158786Y-9161062D01*
X10144500Y-9167014D01*
X10137357Y-9178919D01*
X10137357Y-9202729D01*
X10144500Y-9214633D01*
X10158786Y-9220586D01*
X10173071Y-9220586D01*
X10187357Y-9161062D01*
X10137357Y-9256300D02*
X10137357Y-9303919D01*
X10087357Y-9274157D02*
X10215929Y-9274157D01*
X10230214Y-9280110D01*
X10237357Y-9292014D01*
X10237357Y-9303919D01*
X10237357Y-9345586D02*
X10137357Y-9345586D01*
X10087357Y-9345586D02*
X10094500Y-9339633D01*
X10101643Y-9345586D01*
X10094500Y-9351538D01*
X10087357Y-9345586D01*
X10101643Y-9345586D01*
X10230214Y-9458681D02*
X10237357Y-9446776D01*
X10237357Y-9422967D01*
X10230214Y-9411062D01*
X10223071Y-9405110D01*
X10208786Y-9399157D01*
X10165929Y-9399157D01*
X10151643Y-9405110D01*
X10144500Y-9411062D01*
X10137357Y-9422967D01*
X10137357Y-9446776D01*
X10144500Y-9458681D01*
X10465214Y-8405110D02*
X10472357Y-8422967D01*
X10472357Y-8452729D01*
X10465214Y-8464633D01*
X10458071Y-8470586D01*
X10443786Y-8476538D01*
X10429500Y-8476538D01*
X10415214Y-8470586D01*
X10408071Y-8464633D01*
X10400929Y-8452729D01*
X10393786Y-8428919D01*
X10386643Y-8417014D01*
X10379500Y-8411062D01*
X10365214Y-8405110D01*
X10350929Y-8405110D01*
X10336643Y-8411062D01*
X10329500Y-8417014D01*
X10322357Y-8428919D01*
X10322357Y-8458681D01*
X10329500Y-8476538D01*
X10372357Y-8518205D02*
X10472357Y-8542014D01*
X10400929Y-8565824D01*
X10472357Y-8589633D01*
X10372357Y-8613443D01*
X10472357Y-8661062D02*
X10372357Y-8661062D01*
X10322357Y-8661062D02*
X10329500Y-8655110D01*
X10336643Y-8661062D01*
X10329500Y-8667014D01*
X10322357Y-8661062D01*
X10336643Y-8661062D01*
X10372357Y-8702729D02*
X10372357Y-8750348D01*
X10322357Y-8720586D02*
X10450929Y-8720586D01*
X10465214Y-8726538D01*
X10472357Y-8738443D01*
X10472357Y-8750348D01*
X10465214Y-8845586D02*
X10472357Y-8833681D01*
X10472357Y-8809871D01*
X10465214Y-8797967D01*
X10458071Y-8792014D01*
X10443786Y-8786062D01*
X10400929Y-8786062D01*
X10386643Y-8792014D01*
X10379500Y-8797967D01*
X10372357Y-8809871D01*
X10372357Y-8833681D01*
X10379500Y-8845586D01*
X10472357Y-8899157D02*
X10322357Y-8899157D01*
X10472357Y-8952729D02*
X10393786Y-8952729D01*
X10379500Y-8946776D01*
X10372357Y-8934872D01*
X10372357Y-8917014D01*
X10379500Y-8905110D01*
X10386643Y-8899157D01*
X10472357Y-9107491D02*
X10372357Y-9107491D01*
X10386643Y-9107491D02*
X10379500Y-9113443D01*
X10372357Y-9125348D01*
X10372357Y-9143205D01*
X10379500Y-9155110D01*
X10393786Y-9161062D01*
X10472357Y-9161062D01*
X10393786Y-9161062D02*
X10379500Y-9167014D01*
X10372357Y-9178919D01*
X10372357Y-9196776D01*
X10379500Y-9208681D01*
X10393786Y-9214633D01*
X10472357Y-9214633D01*
X10472357Y-9292014D02*
X10465214Y-9280110D01*
X10458071Y-9274157D01*
X10443786Y-9268205D01*
X10400929Y-9268205D01*
X10386643Y-9274157D01*
X10379500Y-9280110D01*
X10372357Y-9292014D01*
X10372357Y-9309872D01*
X10379500Y-9321776D01*
X10386643Y-9327729D01*
X10400929Y-9333681D01*
X10443786Y-9333681D01*
X10458071Y-9327729D01*
X10465214Y-9321776D01*
X10472357Y-9309872D01*
X10472357Y-9292014D01*
X10472357Y-9440824D02*
X10322357Y-9440824D01*
X10465214Y-9440824D02*
X10472357Y-9428919D01*
X10472357Y-9405110D01*
X10465214Y-9393205D01*
X10458071Y-9387252D01*
X10443786Y-9381300D01*
X10400929Y-9381300D01*
X10386643Y-9387252D01*
X10379500Y-9393205D01*
X10372357Y-9405110D01*
X10372357Y-9428919D01*
X10379500Y-9440824D01*
X10372357Y-9553919D02*
X10472357Y-9553919D01*
X10372357Y-9500348D02*
X10450929Y-9500348D01*
X10465214Y-9506300D01*
X10472357Y-9518205D01*
X10472357Y-9536062D01*
X10465214Y-9547967D01*
X10458071Y-9553919D01*
X10472357Y-9631300D02*
X10465214Y-9619395D01*
X10450929Y-9613443D01*
X10322357Y-9613443D01*
X10465214Y-9726538D02*
X10472357Y-9714633D01*
X10472357Y-9690824D01*
X10465214Y-9678919D01*
X10450929Y-9672967D01*
X10393786Y-9672967D01*
X10379500Y-9678919D01*
X10372357Y-9690824D01*
X10372357Y-9714633D01*
X10379500Y-9726538D01*
X10393786Y-9732490D01*
X10408071Y-9732490D01*
X10422357Y-9672967D01*
X10237357Y-10334872D02*
X10087357Y-10334872D01*
X10194500Y-10376538D01*
X10087357Y-10418205D01*
X10237357Y-10418205D01*
X10237357Y-10531300D02*
X10158786Y-10531300D01*
X10144500Y-10525348D01*
X10137357Y-10513443D01*
X10137357Y-10489633D01*
X10144500Y-10477729D01*
X10230214Y-10531300D02*
X10237357Y-10519395D01*
X10237357Y-10489633D01*
X10230214Y-10477729D01*
X10215929Y-10471776D01*
X10201643Y-10471776D01*
X10187357Y-10477729D01*
X10180214Y-10489633D01*
X10180214Y-10519395D01*
X10173071Y-10531300D01*
X10137357Y-10644395D02*
X10258786Y-10644395D01*
X10273071Y-10638443D01*
X10280214Y-10632491D01*
X10287357Y-10620586D01*
X10287357Y-10602729D01*
X10280214Y-10590824D01*
X10230214Y-10644395D02*
X10237357Y-10632491D01*
X10237357Y-10608681D01*
X10230214Y-10596776D01*
X10223071Y-10590824D01*
X10208786Y-10584871D01*
X10165929Y-10584871D01*
X10151643Y-10590824D01*
X10144500Y-10596776D01*
X10137357Y-10608681D01*
X10137357Y-10632491D01*
X10144500Y-10644395D01*
X10137357Y-10703919D02*
X10237357Y-10703919D01*
X10151643Y-10703919D02*
X10144500Y-10709871D01*
X10137357Y-10721776D01*
X10137357Y-10739633D01*
X10144500Y-10751538D01*
X10158786Y-10757490D01*
X10237357Y-10757490D01*
X10230214Y-10864633D02*
X10237357Y-10852729D01*
X10237357Y-10828919D01*
X10230214Y-10817014D01*
X10215929Y-10811062D01*
X10158786Y-10811062D01*
X10144500Y-10817014D01*
X10137357Y-10828919D01*
X10137357Y-10852729D01*
X10144500Y-10864633D01*
X10158786Y-10870586D01*
X10173071Y-10870586D01*
X10187357Y-10811062D01*
X10137357Y-10906300D02*
X10137357Y-10953919D01*
X10087357Y-10924157D02*
X10215929Y-10924157D01*
X10230214Y-10930110D01*
X10237357Y-10942014D01*
X10237357Y-10953919D01*
X10237357Y-10995586D02*
X10137357Y-10995586D01*
X10087357Y-10995586D02*
X10094500Y-10989633D01*
X10101643Y-10995586D01*
X10094500Y-11001538D01*
X10087357Y-10995586D01*
X10101643Y-10995586D01*
X10230214Y-11108681D02*
X10237357Y-11096776D01*
X10237357Y-11072967D01*
X10230214Y-11061062D01*
X10223071Y-11055110D01*
X10208786Y-11049157D01*
X10165929Y-11049157D01*
X10151643Y-11055110D01*
X10144500Y-11061062D01*
X10137357Y-11072967D01*
X10137357Y-11096776D01*
X10144500Y-11108681D01*
X10465214Y-10055110D02*
X10472357Y-10072967D01*
X10472357Y-10102729D01*
X10465214Y-10114633D01*
X10458071Y-10120586D01*
X10443786Y-10126538D01*
X10429500Y-10126538D01*
X10415214Y-10120586D01*
X10408071Y-10114633D01*
X10400929Y-10102729D01*
X10393786Y-10078919D01*
X10386643Y-10067014D01*
X10379500Y-10061062D01*
X10365214Y-10055110D01*
X10350929Y-10055110D01*
X10336643Y-10061062D01*
X10329500Y-10067014D01*
X10322357Y-10078919D01*
X10322357Y-10108681D01*
X10329500Y-10126538D01*
X10372357Y-10168205D02*
X10472357Y-10192014D01*
X10400929Y-10215824D01*
X10472357Y-10239633D01*
X10372357Y-10263443D01*
X10472357Y-10311062D02*
X10372357Y-10311062D01*
X10322357Y-10311062D02*
X10329500Y-10305110D01*
X10336643Y-10311062D01*
X10329500Y-10317014D01*
X10322357Y-10311062D01*
X10336643Y-10311062D01*
X10372357Y-10352729D02*
X10372357Y-10400348D01*
X10322357Y-10370586D02*
X10450929Y-10370586D01*
X10465214Y-10376538D01*
X10472357Y-10388443D01*
X10472357Y-10400348D01*
X10465214Y-10495586D02*
X10472357Y-10483681D01*
X10472357Y-10459871D01*
X10465214Y-10447967D01*
X10458071Y-10442014D01*
X10443786Y-10436062D01*
X10400929Y-10436062D01*
X10386643Y-10442014D01*
X10379500Y-10447967D01*
X10372357Y-10459871D01*
X10372357Y-10483681D01*
X10379500Y-10495586D01*
X10472357Y-10549157D02*
X10322357Y-10549157D01*
X10472357Y-10602729D02*
X10393786Y-10602729D01*
X10379500Y-10596776D01*
X10372357Y-10584872D01*
X10372357Y-10567014D01*
X10379500Y-10555110D01*
X10386643Y-10549157D01*
X10472357Y-10757491D02*
X10372357Y-10757491D01*
X10386643Y-10757491D02*
X10379500Y-10763443D01*
X10372357Y-10775348D01*
X10372357Y-10793205D01*
X10379500Y-10805110D01*
X10393786Y-10811062D01*
X10472357Y-10811062D01*
X10393786Y-10811062D02*
X10379500Y-10817014D01*
X10372357Y-10828919D01*
X10372357Y-10846776D01*
X10379500Y-10858681D01*
X10393786Y-10864633D01*
X10472357Y-10864633D01*
X10472357Y-10942014D02*
X10465214Y-10930110D01*
X10458071Y-10924157D01*
X10443786Y-10918205D01*
X10400929Y-10918205D01*
X10386643Y-10924157D01*
X10379500Y-10930110D01*
X10372357Y-10942014D01*
X10372357Y-10959872D01*
X10379500Y-10971776D01*
X10386643Y-10977729D01*
X10400929Y-10983681D01*
X10443786Y-10983681D01*
X10458071Y-10977729D01*
X10465214Y-10971776D01*
X10472357Y-10959872D01*
X10472357Y-10942014D01*
X10472357Y-11090824D02*
X10322357Y-11090824D01*
X10465214Y-11090824D02*
X10472357Y-11078919D01*
X10472357Y-11055110D01*
X10465214Y-11043205D01*
X10458071Y-11037252D01*
X10443786Y-11031300D01*
X10400929Y-11031300D01*
X10386643Y-11037252D01*
X10379500Y-11043205D01*
X10372357Y-11055110D01*
X10372357Y-11078919D01*
X10379500Y-11090824D01*
X10372357Y-11203919D02*
X10472357Y-11203919D01*
X10372357Y-11150348D02*
X10450929Y-11150348D01*
X10465214Y-11156300D01*
X10472357Y-11168205D01*
X10472357Y-11186062D01*
X10465214Y-11197967D01*
X10458071Y-11203919D01*
X10472357Y-11281300D02*
X10465214Y-11269395D01*
X10450929Y-11263443D01*
X10322357Y-11263443D01*
X10465214Y-11376538D02*
X10472357Y-11364633D01*
X10472357Y-11340824D01*
X10465214Y-11328919D01*
X10450929Y-11322967D01*
X10393786Y-11322967D01*
X10379500Y-11328919D01*
X10372357Y-11340824D01*
X10372357Y-11364633D01*
X10379500Y-11376538D01*
X10393786Y-11382490D01*
X10408071Y-11382490D01*
X10422357Y-11322967D01*
D10*
X11756238Y-10288600D02*
X11756238Y-10307648D01*
X11761000Y-10317172D01*
X11770524Y-10326695D01*
X11789571Y-10331457D01*
X11822905Y-10331457D01*
X11841952Y-10326695D01*
X11851476Y-10317172D01*
X11856238Y-10307648D01*
X11856238Y-10288600D01*
X11851476Y-10279076D01*
X11841952Y-10269552D01*
X11822905Y-10264791D01*
X11789571Y-10264791D01*
X11770524Y-10269552D01*
X11761000Y-10279076D01*
X11756238Y-10288600D01*
X11756238Y-10374314D02*
X11837190Y-10374314D01*
X11846714Y-10379076D01*
X11851476Y-10383838D01*
X11856238Y-10393362D01*
X11856238Y-10412410D01*
X11851476Y-10421933D01*
X11846714Y-10426695D01*
X11837190Y-10431457D01*
X11756238Y-10431457D01*
X11756238Y-10464791D02*
X11756238Y-10521933D01*
X11856238Y-10493362D02*
X11756238Y-10493362D01*
X11761000Y-10642610D02*
X11756238Y-10633086D01*
X11756238Y-10618800D01*
X11761000Y-10604514D01*
X11770524Y-10594991D01*
X11780048Y-10590229D01*
X11799095Y-10585467D01*
X11813381Y-10585467D01*
X11832429Y-10590229D01*
X11841952Y-10594991D01*
X11851476Y-10604514D01*
X11856238Y-10618800D01*
X11856238Y-10628324D01*
X11851476Y-10642610D01*
X11846714Y-10647372D01*
X11813381Y-10647372D01*
X11813381Y-10628324D01*
X11856238Y-10690229D02*
X11756238Y-10690229D01*
X11856238Y-10747372D01*
X11756238Y-10747372D01*
X11856238Y-10794991D02*
X11756238Y-10794991D01*
X11756238Y-10818800D01*
X11761000Y-10833086D01*
X11770524Y-10842610D01*
X11780048Y-10847372D01*
X11799095Y-10852133D01*
X11813381Y-10852133D01*
X11832429Y-10847372D01*
X11841952Y-10842610D01*
X11851476Y-10833086D01*
X11856238Y-10818800D01*
X11856238Y-10794991D01*
X11756238Y-10915667D02*
X11856238Y-10949000D01*
X11756238Y-10982333D01*
X11846714Y-11072810D02*
X11851476Y-11068048D01*
X11856238Y-11053762D01*
X11856238Y-11044238D01*
X11851476Y-11029952D01*
X11841952Y-11020429D01*
X11832429Y-11015667D01*
X11813381Y-11010905D01*
X11799095Y-11010905D01*
X11780048Y-11015667D01*
X11770524Y-11020429D01*
X11761000Y-11029952D01*
X11756238Y-11044238D01*
X11756238Y-11053762D01*
X11761000Y-11068048D01*
X11765762Y-11072810D01*
X11846714Y-11172810D02*
X11851476Y-11168048D01*
X11856238Y-11153762D01*
X11856238Y-11144238D01*
X11851476Y-11129952D01*
X11841952Y-11120429D01*
X11832429Y-11115667D01*
X11813381Y-11110905D01*
X11799095Y-11110905D01*
X11780048Y-11115667D01*
X11770524Y-11120429D01*
X11761000Y-11129952D01*
X11756238Y-11144238D01*
X11756238Y-11153762D01*
X11761000Y-11168048D01*
X11765762Y-11172810D01*
D12*
G36*
X10943986Y-9245715D02*
X10933645Y-9243028D01*
X10924967Y-9237077D01*
X10917897Y-9227805D01*
X10912382Y-9215154D01*
X10910682Y-9209441D01*
X10909521Y-9202645D01*
X10908749Y-9193045D01*
X10908361Y-9181577D01*
X10908350Y-9169178D01*
X10908712Y-9156785D01*
X10909441Y-9145335D01*
X10910530Y-9135767D01*
X10911141Y-9132300D01*
X10913315Y-9124179D01*
X10916543Y-9115202D01*
X10920530Y-9105900D01*
X10924979Y-9096803D01*
X10929593Y-9088441D01*
X10934076Y-9081345D01*
X10938131Y-9076044D01*
X10941462Y-9073070D01*
X10943773Y-9072951D01*
X10944108Y-9073350D01*
X10945728Y-9078573D01*
X10945528Y-9086407D01*
X10943480Y-9097026D01*
X10939554Y-9110604D01*
X10936444Y-9119793D01*
X10930422Y-9137695D01*
X10926063Y-9152739D01*
X10923312Y-9165415D01*
X10922115Y-9176215D01*
X10922416Y-9185628D01*
X10924162Y-9194144D01*
X10927246Y-9202147D01*
X10931170Y-9208887D01*
X10935683Y-9214209D01*
X10940129Y-9217537D01*
X10943852Y-9218300D01*
X10945043Y-9217717D01*
X10947719Y-9213658D01*
X10949448Y-9208397D01*
X10970675Y-9208397D01*
X10972943Y-9206922D01*
X10976714Y-9202656D01*
X10977688Y-9201440D01*
X10986131Y-9189222D01*
X10992301Y-9176332D01*
X10995667Y-9166259D01*
X10997566Y-9156958D01*
X10998207Y-9147200D01*
X10997709Y-9137693D01*
X10996194Y-9129144D01*
X10993783Y-9122261D01*
X10990597Y-9117752D01*
X10987136Y-9116307D01*
X10983515Y-9118101D01*
X10979978Y-9123134D01*
X10976669Y-9130883D01*
X10973733Y-9140823D01*
X10971312Y-9152431D01*
X10969551Y-9165183D01*
X10968593Y-9178557D01*
X10968464Y-9184357D01*
X10968512Y-9192931D01*
X10968746Y-9200286D01*
X10969125Y-9205490D01*
X10969472Y-9207401D01*
X10970675Y-9208397D01*
X10949448Y-9208397D01*
X10950224Y-9206035D01*
X10952570Y-9194796D01*
X10954768Y-9179884D01*
X10956083Y-9168581D01*
X10958895Y-9146960D01*
X10962317Y-9128900D01*
X10966337Y-9114440D01*
X10970947Y-9103614D01*
X10976133Y-9096460D01*
X10978132Y-9094795D01*
X10984986Y-9092022D01*
X10992192Y-9092534D01*
X10999127Y-9095981D01*
X11005170Y-9102012D01*
X11009698Y-9110277D01*
X11010645Y-9113063D01*
X11012913Y-9125883D01*
X11012976Y-9141047D01*
X11010907Y-9157904D01*
X11006778Y-9175800D01*
X11002122Y-9190200D01*
X10994520Y-9207942D01*
X10985903Y-9222401D01*
X10976364Y-9233488D01*
X10965997Y-9241114D01*
X10954894Y-9245189D01*
X10943986Y-9245715D01*
X10943986Y-9245715D01*
X10943986Y-9245715D01*
G37*
X10943986Y-9245715D02*
X10933645Y-9243028D01*
X10924967Y-9237077D01*
X10917897Y-9227805D01*
X10912382Y-9215154D01*
X10910682Y-9209441D01*
X10909521Y-9202645D01*
X10908749Y-9193045D01*
X10908361Y-9181577D01*
X10908350Y-9169178D01*
X10908712Y-9156785D01*
X10909441Y-9145335D01*
X10910530Y-9135767D01*
X10911141Y-9132300D01*
X10913315Y-9124179D01*
X10916543Y-9115202D01*
X10920530Y-9105900D01*
X10924979Y-9096803D01*
X10929593Y-9088441D01*
X10934076Y-9081345D01*
X10938131Y-9076044D01*
X10941462Y-9073070D01*
X10943773Y-9072951D01*
X10944108Y-9073350D01*
X10945728Y-9078573D01*
X10945528Y-9086407D01*
X10943480Y-9097026D01*
X10939554Y-9110604D01*
X10936444Y-9119793D01*
X10930422Y-9137695D01*
X10926063Y-9152739D01*
X10923312Y-9165415D01*
X10922115Y-9176215D01*
X10922416Y-9185628D01*
X10924162Y-9194144D01*
X10927246Y-9202147D01*
X10931170Y-9208887D01*
X10935683Y-9214209D01*
X10940129Y-9217537D01*
X10943852Y-9218300D01*
X10945043Y-9217717D01*
X10947719Y-9213658D01*
X10949448Y-9208397D01*
X10970675Y-9208397D01*
X10972943Y-9206922D01*
X10976714Y-9202656D01*
X10977688Y-9201440D01*
X10986131Y-9189222D01*
X10992301Y-9176332D01*
X10995667Y-9166259D01*
X10997566Y-9156958D01*
X10998207Y-9147200D01*
X10997709Y-9137693D01*
X10996194Y-9129144D01*
X10993783Y-9122261D01*
X10990597Y-9117752D01*
X10987136Y-9116307D01*
X10983515Y-9118101D01*
X10979978Y-9123134D01*
X10976669Y-9130883D01*
X10973733Y-9140823D01*
X10971312Y-9152431D01*
X10969551Y-9165183D01*
X10968593Y-9178557D01*
X10968464Y-9184357D01*
X10968512Y-9192931D01*
X10968746Y-9200286D01*
X10969125Y-9205490D01*
X10969472Y-9207401D01*
X10970675Y-9208397D01*
X10949448Y-9208397D01*
X10950224Y-9206035D01*
X10952570Y-9194796D01*
X10954768Y-9179884D01*
X10956083Y-9168581D01*
X10958895Y-9146960D01*
X10962317Y-9128900D01*
X10966337Y-9114440D01*
X10970947Y-9103614D01*
X10976133Y-9096460D01*
X10978132Y-9094795D01*
X10984986Y-9092022D01*
X10992192Y-9092534D01*
X10999127Y-9095981D01*
X11005170Y-9102012D01*
X11009698Y-9110277D01*
X11010645Y-9113063D01*
X11012913Y-9125883D01*
X11012976Y-9141047D01*
X11010907Y-9157904D01*
X11006778Y-9175800D01*
X11002122Y-9190200D01*
X10994520Y-9207942D01*
X10985903Y-9222401D01*
X10976364Y-9233488D01*
X10965997Y-9241114D01*
X10954894Y-9245189D01*
X10943986Y-9245715D01*
X10943986Y-9245715D01*
G36*
X11052616Y-9071150D02*
X11051159Y-9069585D01*
X11048915Y-9065594D01*
X11047548Y-9062685D01*
X11045319Y-9058223D01*
X11042885Y-9055345D01*
X11039628Y-9054004D01*
X11034933Y-9054155D01*
X11028183Y-9055753D01*
X11018763Y-9058751D01*
X11014428Y-9060223D01*
X10997150Y-9065099D01*
X10982036Y-9067081D01*
X10968811Y-9066138D01*
X10957198Y-9062239D01*
X10946922Y-9055354D01*
X10943826Y-9052470D01*
X10936690Y-9043787D01*
X10932071Y-9034860D01*
X10931957Y-9034532D01*
X10929871Y-9025028D01*
X10929032Y-9013364D01*
X10929429Y-9000926D01*
X10931049Y-8989102D01*
X10932370Y-8983663D01*
X10936677Y-8971187D01*
X10941268Y-8962387D01*
X10945006Y-8958126D01*
X10947088Y-8956688D01*
X10947661Y-8957622D01*
X10947033Y-8961547D01*
X10946936Y-8962026D01*
X10944958Y-8973264D01*
X10943500Y-8984496D01*
X10942661Y-8994693D01*
X10942535Y-9002829D01*
X10942812Y-9006099D01*
X10946328Y-9017290D01*
X10953067Y-9027171D01*
X10962542Y-9035071D01*
X10964705Y-9036345D01*
X10969590Y-9038900D01*
X10973807Y-9040537D01*
X10978424Y-9041452D01*
X10984508Y-9041844D01*
X10993130Y-9041912D01*
X10994672Y-9041907D01*
X11005225Y-9041622D01*
X11014695Y-9040728D01*
X11024020Y-9039018D01*
X11034136Y-9036286D01*
X11045980Y-9032328D01*
X11057215Y-9028183D01*
X11065058Y-9025287D01*
X11071501Y-9023047D01*
X11075803Y-9021711D01*
X11077217Y-9021471D01*
X11076744Y-9023307D01*
X11074875Y-9027749D01*
X11071970Y-9034073D01*
X11068385Y-9041556D01*
X11064480Y-9049472D01*
X11060612Y-9057100D01*
X11057141Y-9063715D01*
X11054424Y-9068594D01*
X11052821Y-9071012D01*
X11052616Y-9071150D01*
X11052616Y-9071150D01*
X11052616Y-9071150D01*
G37*
X11052616Y-9071150D02*
X11051159Y-9069585D01*
X11048915Y-9065594D01*
X11047548Y-9062685D01*
X11045319Y-9058223D01*
X11042885Y-9055345D01*
X11039628Y-9054004D01*
X11034933Y-9054155D01*
X11028183Y-9055753D01*
X11018763Y-9058751D01*
X11014428Y-9060223D01*
X10997150Y-9065099D01*
X10982036Y-9067081D01*
X10968811Y-9066138D01*
X10957198Y-9062239D01*
X10946922Y-9055354D01*
X10943826Y-9052470D01*
X10936690Y-9043787D01*
X10932071Y-9034860D01*
X10931957Y-9034532D01*
X10929871Y-9025028D01*
X10929032Y-9013364D01*
X10929429Y-9000926D01*
X10931049Y-8989102D01*
X10932370Y-8983663D01*
X10936677Y-8971187D01*
X10941268Y-8962387D01*
X10945006Y-8958126D01*
X10947088Y-8956688D01*
X10947661Y-8957622D01*
X10947033Y-8961547D01*
X10946936Y-8962026D01*
X10944958Y-8973264D01*
X10943500Y-8984496D01*
X10942661Y-8994693D01*
X10942535Y-9002829D01*
X10942812Y-9006099D01*
X10946328Y-9017290D01*
X10953067Y-9027171D01*
X10962542Y-9035071D01*
X10964705Y-9036345D01*
X10969590Y-9038900D01*
X10973807Y-9040537D01*
X10978424Y-9041452D01*
X10984508Y-9041844D01*
X10993130Y-9041912D01*
X10994672Y-9041907D01*
X11005225Y-9041622D01*
X11014695Y-9040728D01*
X11024020Y-9039018D01*
X11034136Y-9036286D01*
X11045980Y-9032328D01*
X11057215Y-9028183D01*
X11065058Y-9025287D01*
X11071501Y-9023047D01*
X11075803Y-9021711D01*
X11077217Y-9021471D01*
X11076744Y-9023307D01*
X11074875Y-9027749D01*
X11071970Y-9034073D01*
X11068385Y-9041556D01*
X11064480Y-9049472D01*
X11060612Y-9057100D01*
X11057141Y-9063715D01*
X11054424Y-9068594D01*
X11052821Y-9071012D01*
X11052616Y-9071150D01*
X11052616Y-9071150D01*
G36*
X11001251Y-8972863D02*
X10990151Y-8970348D01*
X10980291Y-8964773D01*
X10972201Y-8956365D01*
X10966413Y-8945350D01*
X10966369Y-8945216D01*
X11020569Y-8945216D01*
X11032179Y-8942777D01*
X11042935Y-8937184D01*
X11052451Y-8928635D01*
X11060342Y-8917331D01*
X11066105Y-8903839D01*
X11068507Y-8894328D01*
X11069962Y-8884379D01*
X11070361Y-8875231D01*
X11069598Y-8868122D01*
X11069283Y-8867011D01*
X11067057Y-8864466D01*
X11061857Y-8860617D01*
X11054115Y-8855758D01*
X11046079Y-8851176D01*
X11024123Y-8839104D01*
X11014039Y-8844384D01*
X11007148Y-8848812D01*
X10999889Y-8854730D01*
X10995399Y-8859180D01*
X10985322Y-8872314D01*
X10978579Y-8885459D01*
X10975227Y-8898348D01*
X10975323Y-8910713D01*
X10978925Y-8922288D01*
X10981015Y-8926089D01*
X10987326Y-8933747D01*
X10996113Y-8939723D01*
X10996327Y-8939835D01*
X11008490Y-8944301D01*
X11020569Y-8945216D01*
X10966369Y-8945216D01*
X10965467Y-8942482D01*
X10963406Y-8931387D01*
X10962963Y-8918541D01*
X10964128Y-8905584D01*
X10965697Y-8898056D01*
X10970211Y-8884906D01*
X10976607Y-8871408D01*
X10984300Y-8858514D01*
X10992706Y-8847175D01*
X11001241Y-8838342D01*
X11003474Y-8836524D01*
X11007356Y-8833357D01*
X11008508Y-8831502D01*
X11007302Y-8830142D01*
X11006562Y-8829722D01*
X11003487Y-8827998D01*
X11002499Y-8827367D01*
X11003076Y-8825651D01*
X11005142Y-8821665D01*
X11008163Y-8816311D01*
X11011604Y-8810494D01*
X11014932Y-8805116D01*
X11017614Y-8801080D01*
X11019083Y-8799308D01*
X11020847Y-8800109D01*
X11022785Y-8802837D01*
X11025890Y-8806619D01*
X11030677Y-8810551D01*
X11032006Y-8811416D01*
X11035352Y-8813464D01*
X11041434Y-8817188D01*
X11049778Y-8822298D01*
X11059912Y-8828505D01*
X11071362Y-8835519D01*
X11083655Y-8843050D01*
X11086619Y-8844866D01*
X11101256Y-8853774D01*
X11113091Y-8860830D01*
X11122480Y-8866226D01*
X11129781Y-8870154D01*
X11135349Y-8872806D01*
X11139543Y-8874375D01*
X11142636Y-8875043D01*
X11147841Y-8875892D01*
X11151220Y-8876933D01*
X11151764Y-8877340D01*
X11150717Y-8878882D01*
X11147142Y-8881489D01*
X11142978Y-8883943D01*
X11137308Y-8887612D01*
X11130174Y-8893057D01*
X11122741Y-8899362D01*
X11119327Y-8902504D01*
X11105305Y-8915824D01*
X11106652Y-8905037D01*
X11107127Y-8895814D01*
X11105526Y-8888978D01*
X11101351Y-8883498D01*
X11094100Y-8878343D01*
X11093519Y-8878000D01*
X11083375Y-8872055D01*
X11082078Y-8879881D01*
X11078351Y-8894947D01*
X11072326Y-8910379D01*
X11064458Y-8925475D01*
X11055201Y-8939536D01*
X11045010Y-8951861D01*
X11034339Y-8961749D01*
X11025044Y-8967812D01*
X11013059Y-8972093D01*
X11001251Y-8972863D01*
X11001251Y-8972863D01*
X11001251Y-8972863D01*
G37*
X11001251Y-8972863D02*
X10990151Y-8970348D01*
X10980291Y-8964773D01*
X10972201Y-8956365D01*
X10966413Y-8945350D01*
X10966369Y-8945216D01*
X11020569Y-8945216D01*
X11032179Y-8942777D01*
X11042935Y-8937184D01*
X11052451Y-8928635D01*
X11060342Y-8917331D01*
X11066105Y-8903839D01*
X11068507Y-8894328D01*
X11069962Y-8884379D01*
X11070361Y-8875231D01*
X11069598Y-8868122D01*
X11069283Y-8867011D01*
X11067057Y-8864466D01*
X11061857Y-8860617D01*
X11054115Y-8855758D01*
X11046079Y-8851176D01*
X11024123Y-8839104D01*
X11014039Y-8844384D01*
X11007148Y-8848812D01*
X10999889Y-8854730D01*
X10995399Y-8859180D01*
X10985322Y-8872314D01*
X10978579Y-8885459D01*
X10975227Y-8898348D01*
X10975323Y-8910713D01*
X10978925Y-8922288D01*
X10981015Y-8926089D01*
X10987326Y-8933747D01*
X10996113Y-8939723D01*
X10996327Y-8939835D01*
X11008490Y-8944301D01*
X11020569Y-8945216D01*
X10966369Y-8945216D01*
X10965467Y-8942482D01*
X10963406Y-8931387D01*
X10962963Y-8918541D01*
X10964128Y-8905584D01*
X10965697Y-8898056D01*
X10970211Y-8884906D01*
X10976607Y-8871408D01*
X10984300Y-8858514D01*
X10992706Y-8847175D01*
X11001241Y-8838342D01*
X11003474Y-8836524D01*
X11007356Y-8833357D01*
X11008508Y-8831502D01*
X11007302Y-8830142D01*
X11006562Y-8829722D01*
X11003487Y-8827998D01*
X11002499Y-8827367D01*
X11003076Y-8825651D01*
X11005142Y-8821665D01*
X11008163Y-8816311D01*
X11011604Y-8810494D01*
X11014932Y-8805116D01*
X11017614Y-8801080D01*
X11019083Y-8799308D01*
X11020847Y-8800109D01*
X11022785Y-8802837D01*
X11025890Y-8806619D01*
X11030677Y-8810551D01*
X11032006Y-8811416D01*
X11035352Y-8813464D01*
X11041434Y-8817188D01*
X11049778Y-8822298D01*
X11059912Y-8828505D01*
X11071362Y-8835519D01*
X11083655Y-8843050D01*
X11086619Y-8844866D01*
X11101256Y-8853774D01*
X11113091Y-8860830D01*
X11122480Y-8866226D01*
X11129781Y-8870154D01*
X11135349Y-8872806D01*
X11139543Y-8874375D01*
X11142636Y-8875043D01*
X11147841Y-8875892D01*
X11151220Y-8876933D01*
X11151764Y-8877340D01*
X11150717Y-8878882D01*
X11147142Y-8881489D01*
X11142978Y-8883943D01*
X11137308Y-8887612D01*
X11130174Y-8893057D01*
X11122741Y-8899362D01*
X11119327Y-8902504D01*
X11105305Y-8915824D01*
X11106652Y-8905037D01*
X11107127Y-8895814D01*
X11105526Y-8888978D01*
X11101351Y-8883498D01*
X11094100Y-8878343D01*
X11093519Y-8878000D01*
X11083375Y-8872055D01*
X11082078Y-8879881D01*
X11078351Y-8894947D01*
X11072326Y-8910379D01*
X11064458Y-8925475D01*
X11055201Y-8939536D01*
X11045010Y-8951861D01*
X11034339Y-8961749D01*
X11025044Y-8967812D01*
X11013059Y-8972093D01*
X11001251Y-8972863D01*
X11001251Y-8972863D01*
G36*
X11028854Y-9443409D02*
X11028117Y-9443352D01*
X11025706Y-9442798D01*
X11025872Y-9441756D01*
X11028913Y-9439622D01*
X11030420Y-9438685D01*
X11035100Y-9436049D01*
X11042004Y-9432458D01*
X11049939Y-9428526D01*
X11053366Y-9426885D01*
X11073535Y-9415268D01*
X11092086Y-9400292D01*
X11108978Y-9382015D01*
X11124167Y-9360496D01*
X11137614Y-9335793D01*
X11149276Y-9307964D01*
X11158282Y-9280046D01*
X11161907Y-9266596D01*
X11166108Y-9249931D01*
X11170773Y-9230534D01*
X11175792Y-9208888D01*
X11181054Y-9185478D01*
X11186447Y-9160787D01*
X11191862Y-9135300D01*
X11195991Y-9115367D01*
X11199859Y-9096621D01*
X11203158Y-9081035D01*
X11206021Y-9068073D01*
X11208580Y-9057199D01*
X11210971Y-9047877D01*
X11213325Y-9039569D01*
X11215777Y-9031740D01*
X11218460Y-9023854D01*
X11219480Y-9020978D01*
X11227037Y-9002593D01*
X11235908Y-8986692D01*
X11246881Y-8972034D01*
X11258361Y-8959711D01*
X11266601Y-8951051D01*
X11273556Y-8942805D01*
X11278557Y-8935786D01*
X11279930Y-8933370D01*
X11290814Y-8915980D01*
X11304668Y-8900817D01*
X11321310Y-8888057D01*
X11335470Y-8880188D01*
X11345941Y-8875747D01*
X11354196Y-8873730D01*
X11360895Y-8874133D01*
X11366698Y-8876952D01*
X11370216Y-8879993D01*
X11374078Y-8884723D01*
X11376349Y-8889195D01*
X11376613Y-8890688D01*
X11374887Y-8898625D01*
X11369784Y-8907841D01*
X11361416Y-8918207D01*
X11349896Y-8929595D01*
X11335335Y-8941876D01*
X11325493Y-8949392D01*
X11303536Y-8965623D01*
X11301268Y-8976525D01*
X11300182Y-8984834D01*
X11299721Y-8995708D01*
X11299934Y-9007993D01*
X11299940Y-9008122D01*
X11302855Y-9031488D01*
X11309325Y-9054115D01*
X11319152Y-9075539D01*
X11332139Y-9095294D01*
X11341923Y-9106747D01*
X11354923Y-9119038D01*
X11368586Y-9128733D01*
X11384019Y-9136526D01*
X11397309Y-9141504D01*
X11421618Y-9148126D01*
X11444519Y-9151288D01*
X11466167Y-9150954D01*
X11486713Y-9147086D01*
X11506310Y-9139650D01*
X11525113Y-9128609D01*
X11543273Y-9113926D01*
X11552565Y-9104785D01*
X11570936Y-9083084D01*
X11586417Y-9059314D01*
X11599142Y-9033232D01*
X11609245Y-9004594D01*
X11610875Y-8998861D01*
X11615475Y-8982074D01*
X11608848Y-8964379D01*
X11604057Y-8950765D01*
X11599091Y-8935228D01*
X11594332Y-8919077D01*
X11590165Y-8903617D01*
X11586970Y-8890155D01*
X11586621Y-8888495D01*
X11583598Y-8871703D01*
X11581545Y-8854867D01*
X11580389Y-8836997D01*
X11580059Y-8817102D01*
X11580274Y-8801698D01*
X11580652Y-8788230D01*
X11581122Y-8777698D01*
X11581771Y-8769274D01*
X11582686Y-8762130D01*
X11583955Y-8755440D01*
X11585665Y-8748375D01*
X11586069Y-8746838D01*
X11593200Y-8724968D01*
X11602492Y-8705551D01*
X11614362Y-8687955D01*
X11629226Y-8671545D01*
X11644387Y-8658169D01*
X11651204Y-8653026D01*
X11659442Y-8647375D01*
X11668418Y-8641621D01*
X11677452Y-8636166D01*
X11685864Y-8631414D01*
X11692973Y-8627768D01*
X11698098Y-8625631D01*
X11699966Y-8625241D01*
X11701908Y-8625797D01*
X11701297Y-8627596D01*
X11697946Y-8630834D01*
X11691669Y-8635708D01*
X11686587Y-8639382D01*
X11664536Y-8656869D01*
X11645935Y-8675568D01*
X11630750Y-8695580D01*
X11618945Y-8717004D01*
X11610486Y-8739941D01*
X11605338Y-8764491D01*
X11603466Y-8790754D01*
X11604835Y-8818830D01*
X11609411Y-8848820D01*
X11611060Y-8856663D01*
X11613670Y-8868087D01*
X11616275Y-8878461D01*
X11619055Y-8888219D01*
X11622193Y-8897795D01*
X11625870Y-8907623D01*
X11630268Y-8918137D01*
X11635568Y-8929770D01*
X11641952Y-8942958D01*
X11649601Y-8958133D01*
X11658698Y-8975729D01*
X11669424Y-8996181D01*
X11669629Y-8996570D01*
X11682662Y-9021758D01*
X11693776Y-9044265D01*
X11703155Y-9064532D01*
X11710982Y-9083002D01*
X11717439Y-9100115D01*
X11722708Y-9116312D01*
X11726974Y-9132036D01*
X11728602Y-9139019D01*
X11730556Y-9150284D01*
X11732093Y-9164047D01*
X11733188Y-9179410D01*
X11733819Y-9195475D01*
X11733964Y-9211345D01*
X11733600Y-9226122D01*
X11732703Y-9238908D01*
X11731379Y-9248184D01*
X11726027Y-9270122D01*
X11719120Y-9290865D01*
X11710898Y-9309941D01*
X11701605Y-9326877D01*
X11691481Y-9341200D01*
X11680769Y-9352438D01*
X11676208Y-9356084D01*
X11665974Y-9361989D01*
X11654654Y-9366018D01*
X11643548Y-9367793D01*
X11636687Y-9367507D01*
X11629438Y-9366234D01*
X11625237Y-9364920D01*
X11623376Y-9363273D01*
X11623087Y-9361857D01*
X11624800Y-9360213D01*
X11630017Y-9359493D01*
X11632296Y-9359453D01*
X11645376Y-9358089D01*
X11656929Y-9353861D01*
X11667228Y-9346561D01*
X11676545Y-9335983D01*
X11685151Y-9321921D01*
X11687326Y-9317626D01*
X11698184Y-9291438D01*
X11705444Y-9264570D01*
X11709140Y-9236813D01*
X11709305Y-9207955D01*
X11707676Y-9189636D01*
X11705301Y-9174557D01*
X11701780Y-9159309D01*
X11696943Y-9143452D01*
X11690619Y-9126548D01*
X11682637Y-9108158D01*
X11672826Y-9087843D01*
X11661016Y-9065164D01*
X11654569Y-9053278D01*
X11648863Y-9042860D01*
X11644702Y-9035429D01*
X11641773Y-9030700D01*
X11639761Y-9028387D01*
X11638353Y-9028207D01*
X11637234Y-9029873D01*
X11636091Y-9033102D01*
X11635242Y-9035737D01*
X11628995Y-9051955D01*
X11620660Y-9069413D01*
X11610900Y-9086784D01*
X11605036Y-9096015D01*
X11588321Y-9118261D01*
X11570062Y-9137177D01*
X11550361Y-9152715D01*
X11529325Y-9164826D01*
X11507058Y-9173462D01*
X11483664Y-9178573D01*
X11459248Y-9180111D01*
X11433915Y-9178027D01*
X11430011Y-9177394D01*
X11402175Y-9171038D01*
X11376954Y-9161999D01*
X11354265Y-9150214D01*
X11334025Y-9135622D01*
X11316149Y-9118160D01*
X11300554Y-9097768D01*
X11287156Y-9074383D01*
X11285249Y-9070442D01*
X11275782Y-9047025D01*
X11269903Y-9024453D01*
X11268087Y-9011100D01*
X11266882Y-8997145D01*
X11262498Y-9002634D01*
X11256337Y-9011834D01*
X11250014Y-9024024D01*
X11243891Y-9038467D01*
X11241212Y-9045752D01*
X11238860Y-9053113D01*
X11235820Y-9063655D01*
X11232217Y-9076884D01*
X11228175Y-9092306D01*
X11223816Y-9109429D01*
X11219265Y-9127758D01*
X11214645Y-9146800D01*
X11210080Y-9166061D01*
X11205694Y-9185048D01*
X11201610Y-9203266D01*
X11200670Y-9207559D01*
X11194526Y-9234552D01*
X11188553Y-9258272D01*
X11182601Y-9279195D01*
X11176521Y-9297796D01*
X11170163Y-9314553D01*
X11163378Y-9329941D01*
X11160199Y-9336441D01*
X11145638Y-9361581D01*
X11128830Y-9383710D01*
X11109780Y-9402821D01*
X11088496Y-9418908D01*
X11068991Y-9430032D01*
X11059975Y-9434142D01*
X11050555Y-9437827D01*
X11041630Y-9440795D01*
X11034097Y-9442753D01*
X11028854Y-9443409D01*
X11028854Y-9443409D01*
X11028854Y-9443409D01*
G37*
X11028854Y-9443409D02*
X11028117Y-9443352D01*
X11025706Y-9442798D01*
X11025872Y-9441756D01*
X11028913Y-9439622D01*
X11030420Y-9438685D01*
X11035100Y-9436049D01*
X11042004Y-9432458D01*
X11049939Y-9428526D01*
X11053366Y-9426885D01*
X11073535Y-9415268D01*
X11092086Y-9400292D01*
X11108978Y-9382015D01*
X11124167Y-9360496D01*
X11137614Y-9335793D01*
X11149276Y-9307964D01*
X11158282Y-9280046D01*
X11161907Y-9266596D01*
X11166108Y-9249931D01*
X11170773Y-9230534D01*
X11175792Y-9208888D01*
X11181054Y-9185478D01*
X11186447Y-9160787D01*
X11191862Y-9135300D01*
X11195991Y-9115367D01*
X11199859Y-9096621D01*
X11203158Y-9081035D01*
X11206021Y-9068073D01*
X11208580Y-9057199D01*
X11210971Y-9047877D01*
X11213325Y-9039569D01*
X11215777Y-9031740D01*
X11218460Y-9023854D01*
X11219480Y-9020978D01*
X11227037Y-9002593D01*
X11235908Y-8986692D01*
X11246881Y-8972034D01*
X11258361Y-8959711D01*
X11266601Y-8951051D01*
X11273556Y-8942805D01*
X11278557Y-8935786D01*
X11279930Y-8933370D01*
X11290814Y-8915980D01*
X11304668Y-8900817D01*
X11321310Y-8888057D01*
X11335470Y-8880188D01*
X11345941Y-8875747D01*
X11354196Y-8873730D01*
X11360895Y-8874133D01*
X11366698Y-8876952D01*
X11370216Y-8879993D01*
X11374078Y-8884723D01*
X11376349Y-8889195D01*
X11376613Y-8890688D01*
X11374887Y-8898625D01*
X11369784Y-8907841D01*
X11361416Y-8918207D01*
X11349896Y-8929595D01*
X11335335Y-8941876D01*
X11325493Y-8949392D01*
X11303536Y-8965623D01*
X11301268Y-8976525D01*
X11300182Y-8984834D01*
X11299721Y-8995708D01*
X11299934Y-9007993D01*
X11299940Y-9008122D01*
X11302855Y-9031488D01*
X11309325Y-9054115D01*
X11319152Y-9075539D01*
X11332139Y-9095294D01*
X11341923Y-9106747D01*
X11354923Y-9119038D01*
X11368586Y-9128733D01*
X11384019Y-9136526D01*
X11397309Y-9141504D01*
X11421618Y-9148126D01*
X11444519Y-9151288D01*
X11466167Y-9150954D01*
X11486713Y-9147086D01*
X11506310Y-9139650D01*
X11525113Y-9128609D01*
X11543273Y-9113926D01*
X11552565Y-9104785D01*
X11570936Y-9083084D01*
X11586417Y-9059314D01*
X11599142Y-9033232D01*
X11609245Y-9004594D01*
X11610875Y-8998861D01*
X11615475Y-8982074D01*
X11608848Y-8964379D01*
X11604057Y-8950765D01*
X11599091Y-8935228D01*
X11594332Y-8919077D01*
X11590165Y-8903617D01*
X11586970Y-8890155D01*
X11586621Y-8888495D01*
X11583598Y-8871703D01*
X11581545Y-8854867D01*
X11580389Y-8836997D01*
X11580059Y-8817102D01*
X11580274Y-8801698D01*
X11580652Y-8788230D01*
X11581122Y-8777698D01*
X11581771Y-8769274D01*
X11582686Y-8762130D01*
X11583955Y-8755440D01*
X11585665Y-8748375D01*
X11586069Y-8746838D01*
X11593200Y-8724968D01*
X11602492Y-8705551D01*
X11614362Y-8687955D01*
X11629226Y-8671545D01*
X11644387Y-8658169D01*
X11651204Y-8653026D01*
X11659442Y-8647375D01*
X11668418Y-8641621D01*
X11677452Y-8636166D01*
X11685864Y-8631414D01*
X11692973Y-8627768D01*
X11698098Y-8625631D01*
X11699966Y-8625241D01*
X11701908Y-8625797D01*
X11701297Y-8627596D01*
X11697946Y-8630834D01*
X11691669Y-8635708D01*
X11686587Y-8639382D01*
X11664536Y-8656869D01*
X11645935Y-8675568D01*
X11630750Y-8695580D01*
X11618945Y-8717004D01*
X11610486Y-8739941D01*
X11605338Y-8764491D01*
X11603466Y-8790754D01*
X11604835Y-8818830D01*
X11609411Y-8848820D01*
X11611060Y-8856663D01*
X11613670Y-8868087D01*
X11616275Y-8878461D01*
X11619055Y-8888219D01*
X11622193Y-8897795D01*
X11625870Y-8907623D01*
X11630268Y-8918137D01*
X11635568Y-8929770D01*
X11641952Y-8942958D01*
X11649601Y-8958133D01*
X11658698Y-8975729D01*
X11669424Y-8996181D01*
X11669629Y-8996570D01*
X11682662Y-9021758D01*
X11693776Y-9044265D01*
X11703155Y-9064532D01*
X11710982Y-9083002D01*
X11717439Y-9100115D01*
X11722708Y-9116312D01*
X11726974Y-9132036D01*
X11728602Y-9139019D01*
X11730556Y-9150284D01*
X11732093Y-9164047D01*
X11733188Y-9179410D01*
X11733819Y-9195475D01*
X11733964Y-9211345D01*
X11733600Y-9226122D01*
X11732703Y-9238908D01*
X11731379Y-9248184D01*
X11726027Y-9270122D01*
X11719120Y-9290865D01*
X11710898Y-9309941D01*
X11701605Y-9326877D01*
X11691481Y-9341200D01*
X11680769Y-9352438D01*
X11676208Y-9356084D01*
X11665974Y-9361989D01*
X11654654Y-9366018D01*
X11643548Y-9367793D01*
X11636687Y-9367507D01*
X11629438Y-9366234D01*
X11625237Y-9364920D01*
X11623376Y-9363273D01*
X11623087Y-9361857D01*
X11624800Y-9360213D01*
X11630017Y-9359493D01*
X11632296Y-9359453D01*
X11645376Y-9358089D01*
X11656929Y-9353861D01*
X11667228Y-9346561D01*
X11676545Y-9335983D01*
X11685151Y-9321921D01*
X11687326Y-9317626D01*
X11698184Y-9291438D01*
X11705444Y-9264570D01*
X11709140Y-9236813D01*
X11709305Y-9207955D01*
X11707676Y-9189636D01*
X11705301Y-9174557D01*
X11701780Y-9159309D01*
X11696943Y-9143452D01*
X11690619Y-9126548D01*
X11682637Y-9108158D01*
X11672826Y-9087843D01*
X11661016Y-9065164D01*
X11654569Y-9053278D01*
X11648863Y-9042860D01*
X11644702Y-9035429D01*
X11641773Y-9030700D01*
X11639761Y-9028387D01*
X11638353Y-9028207D01*
X11637234Y-9029873D01*
X11636091Y-9033102D01*
X11635242Y-9035737D01*
X11628995Y-9051955D01*
X11620660Y-9069413D01*
X11610900Y-9086784D01*
X11605036Y-9096015D01*
X11588321Y-9118261D01*
X11570062Y-9137177D01*
X11550361Y-9152715D01*
X11529325Y-9164826D01*
X11507058Y-9173462D01*
X11483664Y-9178573D01*
X11459248Y-9180111D01*
X11433915Y-9178027D01*
X11430011Y-9177394D01*
X11402175Y-9171038D01*
X11376954Y-9161999D01*
X11354265Y-9150214D01*
X11334025Y-9135622D01*
X11316149Y-9118160D01*
X11300554Y-9097768D01*
X11287156Y-9074383D01*
X11285249Y-9070442D01*
X11275782Y-9047025D01*
X11269903Y-9024453D01*
X11268087Y-9011100D01*
X11266882Y-8997145D01*
X11262498Y-9002634D01*
X11256337Y-9011834D01*
X11250014Y-9024024D01*
X11243891Y-9038467D01*
X11241212Y-9045752D01*
X11238860Y-9053113D01*
X11235820Y-9063655D01*
X11232217Y-9076884D01*
X11228175Y-9092306D01*
X11223816Y-9109429D01*
X11219265Y-9127758D01*
X11214645Y-9146800D01*
X11210080Y-9166061D01*
X11205694Y-9185048D01*
X11201610Y-9203266D01*
X11200670Y-9207559D01*
X11194526Y-9234552D01*
X11188553Y-9258272D01*
X11182601Y-9279195D01*
X11176521Y-9297796D01*
X11170163Y-9314553D01*
X11163378Y-9329941D01*
X11160199Y-9336441D01*
X11145638Y-9361581D01*
X11128830Y-9383710D01*
X11109780Y-9402821D01*
X11088496Y-9418908D01*
X11068991Y-9430032D01*
X11059975Y-9434142D01*
X11050555Y-9437827D01*
X11041630Y-9440795D01*
X11034097Y-9442753D01*
X11028854Y-9443409D01*
X11028854Y-9443409D01*
G36*
X11134535Y-8797960D02*
X11133602Y-8797158D01*
X11135476Y-8794260D01*
X11139190Y-8790039D01*
X11145350Y-8781742D01*
X11148073Y-8773561D01*
X11147568Y-8764688D01*
X11146672Y-8761282D01*
X11144250Y-8753391D01*
X11132020Y-8763945D01*
X11119352Y-8773979D01*
X11106452Y-8782553D01*
X11093940Y-8789346D01*
X11082434Y-8794034D01*
X11072550Y-8796296D01*
X11069703Y-8796456D01*
X11062268Y-8795243D01*
X11055422Y-8792073D01*
X11050510Y-8787646D01*
X11049496Y-8785928D01*
X11047403Y-8777581D01*
X11088023Y-8777581D01*
X11095607Y-8776363D01*
X11104868Y-8772933D01*
X11114859Y-8767778D01*
X11124634Y-8761385D01*
X11133073Y-8754406D01*
X11143308Y-8744715D01*
X11139774Y-8723463D01*
X11138286Y-8714945D01*
X11136913Y-8707863D01*
X11135817Y-8703000D01*
X11135197Y-8701168D01*
X11132608Y-8700968D01*
X11127457Y-8702323D01*
X11120482Y-8704971D01*
X11112418Y-8708653D01*
X11108577Y-8710605D01*
X11097105Y-8717805D01*
X11087249Y-8726289D01*
X11079322Y-8735557D01*
X11073636Y-8745111D01*
X11070502Y-8754452D01*
X11070234Y-8763083D01*
X11072120Y-8768827D01*
X11076269Y-8774258D01*
X11081968Y-8776980D01*
X11088023Y-8777581D01*
X11047403Y-8777581D01*
X11047377Y-8777477D01*
X11047483Y-8767271D01*
X11049702Y-8756501D01*
X11053061Y-8748007D01*
X11058784Y-8738985D01*
X11066919Y-8729337D01*
X11076477Y-8720048D01*
X11086470Y-8712100D01*
X11093570Y-8707659D01*
X11099977Y-8704683D01*
X11108406Y-8701398D01*
X11117236Y-8698427D01*
X11118915Y-8697923D01*
X11125963Y-8695677D01*
X11131331Y-8693618D01*
X11134222Y-8692068D01*
X11134502Y-8691624D01*
X11134208Y-8689106D01*
X11133722Y-8683819D01*
X11133133Y-8676750D01*
X11132922Y-8674078D01*
X11131683Y-8658167D01*
X11142153Y-8647929D01*
X11147173Y-8643213D01*
X11151111Y-8639876D01*
X11153269Y-8638496D01*
X11153446Y-8638521D01*
X11153882Y-8640576D01*
X11154580Y-8645754D01*
X11155466Y-8653428D01*
X11156466Y-8662973D01*
X11157307Y-8671609D01*
X11158732Y-8685370D01*
X11160533Y-8700786D01*
X11162509Y-8716218D01*
X11164456Y-8730026D01*
X11164999Y-8733573D01*
X11166644Y-8744914D01*
X11168034Y-8756082D01*
X11169055Y-8766043D01*
X11169594Y-8773766D01*
X11169650Y-8776105D01*
X11169650Y-8788930D01*
X11162595Y-8788948D01*
X11156860Y-8789778D01*
X11149788Y-8791886D01*
X11145474Y-8793652D01*
X11138438Y-8796760D01*
X11134535Y-8797960D01*
X11134535Y-8797960D01*
X11134535Y-8797960D01*
G37*
X11134535Y-8797960D02*
X11133602Y-8797158D01*
X11135476Y-8794260D01*
X11139190Y-8790039D01*
X11145350Y-8781742D01*
X11148073Y-8773561D01*
X11147568Y-8764688D01*
X11146672Y-8761282D01*
X11144250Y-8753391D01*
X11132020Y-8763945D01*
X11119352Y-8773979D01*
X11106452Y-8782553D01*
X11093940Y-8789346D01*
X11082434Y-8794034D01*
X11072550Y-8796296D01*
X11069703Y-8796456D01*
X11062268Y-8795243D01*
X11055422Y-8792073D01*
X11050510Y-8787646D01*
X11049496Y-8785928D01*
X11047403Y-8777581D01*
X11088023Y-8777581D01*
X11095607Y-8776363D01*
X11104868Y-8772933D01*
X11114859Y-8767778D01*
X11124634Y-8761385D01*
X11133073Y-8754406D01*
X11143308Y-8744715D01*
X11139774Y-8723463D01*
X11138286Y-8714945D01*
X11136913Y-8707863D01*
X11135817Y-8703000D01*
X11135197Y-8701168D01*
X11132608Y-8700968D01*
X11127457Y-8702323D01*
X11120482Y-8704971D01*
X11112418Y-8708653D01*
X11108577Y-8710605D01*
X11097105Y-8717805D01*
X11087249Y-8726289D01*
X11079322Y-8735557D01*
X11073636Y-8745111D01*
X11070502Y-8754452D01*
X11070234Y-8763083D01*
X11072120Y-8768827D01*
X11076269Y-8774258D01*
X11081968Y-8776980D01*
X11088023Y-8777581D01*
X11047403Y-8777581D01*
X11047377Y-8777477D01*
X11047483Y-8767271D01*
X11049702Y-8756501D01*
X11053061Y-8748007D01*
X11058784Y-8738985D01*
X11066919Y-8729337D01*
X11076477Y-8720048D01*
X11086470Y-8712100D01*
X11093570Y-8707659D01*
X11099977Y-8704683D01*
X11108406Y-8701398D01*
X11117236Y-8698427D01*
X11118915Y-8697923D01*
X11125963Y-8695677D01*
X11131331Y-8693618D01*
X11134222Y-8692068D01*
X11134502Y-8691624D01*
X11134208Y-8689106D01*
X11133722Y-8683819D01*
X11133133Y-8676750D01*
X11132922Y-8674078D01*
X11131683Y-8658167D01*
X11142153Y-8647929D01*
X11147173Y-8643213D01*
X11151111Y-8639876D01*
X11153269Y-8638496D01*
X11153446Y-8638521D01*
X11153882Y-8640576D01*
X11154580Y-8645754D01*
X11155466Y-8653428D01*
X11156466Y-8662973D01*
X11157307Y-8671609D01*
X11158732Y-8685370D01*
X11160533Y-8700786D01*
X11162509Y-8716218D01*
X11164456Y-8730026D01*
X11164999Y-8733573D01*
X11166644Y-8744914D01*
X11168034Y-8756082D01*
X11169055Y-8766043D01*
X11169594Y-8773766D01*
X11169650Y-8776105D01*
X11169650Y-8788930D01*
X11162595Y-8788948D01*
X11156860Y-8789778D01*
X11149788Y-8791886D01*
X11145474Y-8793652D01*
X11138438Y-8796760D01*
X11134535Y-8797960D01*
X11134535Y-8797960D01*
G36*
X11254653Y-8735330D02*
X11254551Y-8733110D01*
X11255443Y-8728718D01*
X11255897Y-8727105D01*
X11257292Y-8721969D01*
X11258040Y-8718284D01*
X11258080Y-8717759D01*
X11256275Y-8714116D01*
X11251044Y-8709980D01*
X11242664Y-8705533D01*
X11234677Y-8702181D01*
X11226933Y-8699118D01*
X11219869Y-8696185D01*
X11214740Y-8693908D01*
X11213865Y-8693480D01*
X11201575Y-8685357D01*
X11191949Y-8675060D01*
X11185175Y-8663118D01*
X11181444Y-8650061D01*
X11180946Y-8636416D01*
X11183870Y-8622713D01*
X11186303Y-8616774D01*
X11192108Y-8607165D01*
X11200022Y-8597690D01*
X11209252Y-8589029D01*
X11219005Y-8581862D01*
X11228489Y-8576869D01*
X11235067Y-8574940D01*
X11242087Y-8573806D01*
X11227663Y-8588101D01*
X11217778Y-8598458D01*
X11210701Y-8607308D01*
X11206099Y-8615212D01*
X11203639Y-8622734D01*
X11202979Y-8629690D01*
X11204844Y-8642465D01*
X11210402Y-8654832D01*
X11219596Y-8666705D01*
X11232371Y-8677999D01*
X11237383Y-8681599D01*
X11246619Y-8687582D01*
X11255604Y-8692563D01*
X11265503Y-8697111D01*
X11277483Y-8701798D01*
X11282359Y-8703567D01*
X11290262Y-8706396D01*
X11297017Y-8708819D01*
X11301718Y-8710510D01*
X11303235Y-8711060D01*
X11302732Y-8712205D01*
X11299144Y-8714645D01*
X11292834Y-8718170D01*
X11284165Y-8722565D01*
X11280825Y-8724182D01*
X11271934Y-8728353D01*
X11264287Y-8731773D01*
X11258499Y-8734180D01*
X11255183Y-8735313D01*
X11254653Y-8735330D01*
X11254653Y-8735330D01*
X11254653Y-8735330D01*
G37*
X11254653Y-8735330D02*
X11254551Y-8733110D01*
X11255443Y-8728718D01*
X11255897Y-8727105D01*
X11257292Y-8721969D01*
X11258040Y-8718284D01*
X11258080Y-8717759D01*
X11256275Y-8714116D01*
X11251044Y-8709980D01*
X11242664Y-8705533D01*
X11234677Y-8702181D01*
X11226933Y-8699118D01*
X11219869Y-8696185D01*
X11214740Y-8693908D01*
X11213865Y-8693480D01*
X11201575Y-8685357D01*
X11191949Y-8675060D01*
X11185175Y-8663118D01*
X11181444Y-8650061D01*
X11180946Y-8636416D01*
X11183870Y-8622713D01*
X11186303Y-8616774D01*
X11192108Y-8607165D01*
X11200022Y-8597690D01*
X11209252Y-8589029D01*
X11219005Y-8581862D01*
X11228489Y-8576869D01*
X11235067Y-8574940D01*
X11242087Y-8573806D01*
X11227663Y-8588101D01*
X11217778Y-8598458D01*
X11210701Y-8607308D01*
X11206099Y-8615212D01*
X11203639Y-8622734D01*
X11202979Y-8629690D01*
X11204844Y-8642465D01*
X11210402Y-8654832D01*
X11219596Y-8666705D01*
X11232371Y-8677999D01*
X11237383Y-8681599D01*
X11246619Y-8687582D01*
X11255604Y-8692563D01*
X11265503Y-8697111D01*
X11277483Y-8701798D01*
X11282359Y-8703567D01*
X11290262Y-8706396D01*
X11297017Y-8708819D01*
X11301718Y-8710510D01*
X11303235Y-8711060D01*
X11302732Y-8712205D01*
X11299144Y-8714645D01*
X11292834Y-8718170D01*
X11284165Y-8722565D01*
X11280825Y-8724182D01*
X11271934Y-8728353D01*
X11264287Y-8731773D01*
X11258499Y-8734180D01*
X11255183Y-8735313D01*
X11254653Y-8735330D01*
X11254653Y-8735330D01*
G36*
X11284266Y-8662870D02*
X11284089Y-8661578D01*
X11285890Y-8658322D01*
X11287131Y-8656599D01*
X11291718Y-8648602D01*
X11293329Y-8640909D01*
X11291867Y-8634408D01*
X11288157Y-8627810D01*
X11283226Y-8619726D01*
X11277482Y-8610752D01*
X11271335Y-8601487D01*
X11265193Y-8592530D01*
X11259466Y-8584477D01*
X11254562Y-8577928D01*
X11250890Y-8573480D01*
X11249066Y-8571810D01*
X11244151Y-8569235D01*
X11254408Y-8562699D01*
X11261983Y-8558034D01*
X11268874Y-8554081D01*
X11274302Y-8551264D01*
X11277486Y-8550009D01*
X11277742Y-8549982D01*
X11278501Y-8551605D01*
X11278776Y-8555017D01*
X11279761Y-8558345D01*
X11282599Y-8564505D01*
X11287114Y-8573162D01*
X11293129Y-8583977D01*
X11300468Y-8596616D01*
X11301354Y-8598112D01*
X11307734Y-8608950D01*
X11313415Y-8618758D01*
X11318129Y-8627060D01*
X11321607Y-8633379D01*
X11323581Y-8637240D01*
X11323931Y-8638184D01*
X11322412Y-8640284D01*
X11318671Y-8642865D01*
X11317817Y-8643321D01*
X11313238Y-8645875D01*
X11306810Y-8649724D01*
X11299826Y-8654092D01*
X11298943Y-8654658D01*
X11292751Y-8658499D01*
X11287681Y-8661380D01*
X11284623Y-8662801D01*
X11284266Y-8662870D01*
X11284266Y-8662870D01*
X11284266Y-8662870D01*
G37*
X11284266Y-8662870D02*
X11284089Y-8661578D01*
X11285890Y-8658322D01*
X11287131Y-8656599D01*
X11291718Y-8648602D01*
X11293329Y-8640909D01*
X11291867Y-8634408D01*
X11288157Y-8627810D01*
X11283226Y-8619726D01*
X11277482Y-8610752D01*
X11271335Y-8601487D01*
X11265193Y-8592530D01*
X11259466Y-8584477D01*
X11254562Y-8577928D01*
X11250890Y-8573480D01*
X11249066Y-8571810D01*
X11244151Y-8569235D01*
X11254408Y-8562699D01*
X11261983Y-8558034D01*
X11268874Y-8554081D01*
X11274302Y-8551264D01*
X11277486Y-8550009D01*
X11277742Y-8549982D01*
X11278501Y-8551605D01*
X11278776Y-8555017D01*
X11279761Y-8558345D01*
X11282599Y-8564505D01*
X11287114Y-8573162D01*
X11293129Y-8583977D01*
X11300468Y-8596616D01*
X11301354Y-8598112D01*
X11307734Y-8608950D01*
X11313415Y-8618758D01*
X11318129Y-8627060D01*
X11321607Y-8633379D01*
X11323581Y-8637240D01*
X11323931Y-8638184D01*
X11322412Y-8640284D01*
X11318671Y-8642865D01*
X11317817Y-8643321D01*
X11313238Y-8645875D01*
X11306810Y-8649724D01*
X11299826Y-8654092D01*
X11298943Y-8654658D01*
X11292751Y-8658499D01*
X11287681Y-8661380D01*
X11284623Y-8662801D01*
X11284266Y-8662870D01*
X11284266Y-8662870D01*
G36*
X11333957Y-8632130D02*
X11334401Y-8630245D01*
X11336248Y-8625999D01*
X11338941Y-8620617D01*
X11341920Y-8614340D01*
X11343967Y-8608852D01*
X11344597Y-8605765D01*
X11343694Y-8602338D01*
X11341253Y-8596427D01*
X11337628Y-8588694D01*
X11333176Y-8579805D01*
X11328251Y-8570424D01*
X11323207Y-8561214D01*
X11318401Y-8552840D01*
X11314188Y-8545966D01*
X11310922Y-8541257D01*
X11309138Y-8539443D01*
X11305500Y-8537382D01*
X11303881Y-8536203D01*
X11304977Y-8534989D01*
X11308858Y-8532625D01*
X11314867Y-8529484D01*
X11320377Y-8526840D01*
X11338043Y-8518648D01*
X11339096Y-8525378D01*
X11340412Y-8530077D01*
X11343092Y-8537034D01*
X11346799Y-8545575D01*
X11351200Y-8555028D01*
X11355961Y-8564721D01*
X11360746Y-8573980D01*
X11365221Y-8582132D01*
X11369051Y-8588506D01*
X11371902Y-8592428D01*
X11372853Y-8593257D01*
X11378902Y-8594994D01*
X11387211Y-8595421D01*
X11396535Y-8594599D01*
X11405629Y-8592585D01*
X11408598Y-8591582D01*
X11421373Y-8585205D01*
X11430916Y-8576911D01*
X11437218Y-8566712D01*
X11440272Y-8554620D01*
X11440583Y-8548741D01*
X11439219Y-8535768D01*
X11435453Y-8522365D01*
X11429774Y-8509817D01*
X11422670Y-8499410D01*
X11421216Y-8497799D01*
X11417960Y-8493949D01*
X11416411Y-8491262D01*
X11416454Y-8490699D01*
X11418647Y-8489724D01*
X11423466Y-8488111D01*
X11429904Y-8486196D01*
X11430436Y-8486046D01*
X11437254Y-8484210D01*
X11441814Y-8483643D01*
X11445040Y-8484811D01*
X11447852Y-8488181D01*
X11451173Y-8494218D01*
X11452780Y-8497348D01*
X11460365Y-8515797D01*
X11464240Y-8534459D01*
X11464693Y-8549992D01*
X11464354Y-8558379D01*
X11464734Y-8563798D01*
X11466474Y-8566897D01*
X11470221Y-8568328D01*
X11476616Y-8568740D01*
X11483294Y-8568771D01*
X11499535Y-8567496D01*
X11513493Y-8563664D01*
X11524944Y-8557376D01*
X11533666Y-8548736D01*
X11536514Y-8544337D01*
X11538851Y-8539669D01*
X11540246Y-8535180D01*
X11540911Y-8529683D01*
X11541056Y-8521990D01*
X11541028Y-8518937D01*
X11540303Y-8506219D01*
X11538238Y-8495839D01*
X11534453Y-8486500D01*
X11528908Y-8477392D01*
X11525810Y-8472564D01*
X11524007Y-8469107D01*
X11523812Y-8468008D01*
X11525943Y-8467474D01*
X11530843Y-8466799D01*
X11537529Y-8466113D01*
X11538815Y-8466002D01*
X11553013Y-8464802D01*
X11557734Y-8473055D01*
X11563896Y-8485739D01*
X11567639Y-8498530D01*
X11569303Y-8512780D01*
X11569463Y-8519878D01*
X11569355Y-8528618D01*
X11568884Y-8534724D01*
X11567833Y-8539323D01*
X11565987Y-8543541D01*
X11564348Y-8546456D01*
X11557114Y-8555348D01*
X11546580Y-8562938D01*
X11532615Y-8569314D01*
X11528072Y-8570894D01*
X11522068Y-8572680D01*
X11516201Y-8573923D01*
X11509552Y-8574724D01*
X11501200Y-8575185D01*
X11490228Y-8575408D01*
X11487097Y-8575438D01*
X11459292Y-8575662D01*
X11452202Y-8582585D01*
X11446110Y-8587470D01*
X11438511Y-8591466D01*
X11428856Y-8594753D01*
X11416599Y-8597514D01*
X11401191Y-8599931D01*
X11399216Y-8600192D01*
X11389115Y-8601569D01*
X11382237Y-8602698D01*
X11378061Y-8603716D01*
X11376066Y-8604760D01*
X11375732Y-8605965D01*
X11375853Y-8606321D01*
X11377981Y-8612832D01*
X11377731Y-8616663D01*
X11375637Y-8617715D01*
X11372598Y-8618390D01*
X11366966Y-8620213D01*
X11359621Y-8622886D01*
X11353500Y-8625274D01*
X11345785Y-8628283D01*
X11339462Y-8630589D01*
X11335274Y-8631930D01*
X11333957Y-8632130D01*
X11333957Y-8632130D01*
X11333957Y-8632130D01*
G37*
X11333957Y-8632130D02*
X11334401Y-8630245D01*
X11336248Y-8625999D01*
X11338941Y-8620617D01*
X11341920Y-8614340D01*
X11343967Y-8608852D01*
X11344597Y-8605765D01*
X11343694Y-8602338D01*
X11341253Y-8596427D01*
X11337628Y-8588694D01*
X11333176Y-8579805D01*
X11328251Y-8570424D01*
X11323207Y-8561214D01*
X11318401Y-8552840D01*
X11314188Y-8545966D01*
X11310922Y-8541257D01*
X11309138Y-8539443D01*
X11305500Y-8537382D01*
X11303881Y-8536203D01*
X11304977Y-8534989D01*
X11308858Y-8532625D01*
X11314867Y-8529484D01*
X11320377Y-8526840D01*
X11338043Y-8518648D01*
X11339096Y-8525378D01*
X11340412Y-8530077D01*
X11343092Y-8537034D01*
X11346799Y-8545575D01*
X11351200Y-8555028D01*
X11355961Y-8564721D01*
X11360746Y-8573980D01*
X11365221Y-8582132D01*
X11369051Y-8588506D01*
X11371902Y-8592428D01*
X11372853Y-8593257D01*
X11378902Y-8594994D01*
X11387211Y-8595421D01*
X11396535Y-8594599D01*
X11405629Y-8592585D01*
X11408598Y-8591582D01*
X11421373Y-8585205D01*
X11430916Y-8576911D01*
X11437218Y-8566712D01*
X11440272Y-8554620D01*
X11440583Y-8548741D01*
X11439219Y-8535768D01*
X11435453Y-8522365D01*
X11429774Y-8509817D01*
X11422670Y-8499410D01*
X11421216Y-8497799D01*
X11417960Y-8493949D01*
X11416411Y-8491262D01*
X11416454Y-8490699D01*
X11418647Y-8489724D01*
X11423466Y-8488111D01*
X11429904Y-8486196D01*
X11430436Y-8486046D01*
X11437254Y-8484210D01*
X11441814Y-8483643D01*
X11445040Y-8484811D01*
X11447852Y-8488181D01*
X11451173Y-8494218D01*
X11452780Y-8497348D01*
X11460365Y-8515797D01*
X11464240Y-8534459D01*
X11464693Y-8549992D01*
X11464354Y-8558379D01*
X11464734Y-8563798D01*
X11466474Y-8566897D01*
X11470221Y-8568328D01*
X11476616Y-8568740D01*
X11483294Y-8568771D01*
X11499535Y-8567496D01*
X11513493Y-8563664D01*
X11524944Y-8557376D01*
X11533666Y-8548736D01*
X11536514Y-8544337D01*
X11538851Y-8539669D01*
X11540246Y-8535180D01*
X11540911Y-8529683D01*
X11541056Y-8521990D01*
X11541028Y-8518937D01*
X11540303Y-8506219D01*
X11538238Y-8495839D01*
X11534453Y-8486500D01*
X11528908Y-8477392D01*
X11525810Y-8472564D01*
X11524007Y-8469107D01*
X11523812Y-8468008D01*
X11525943Y-8467474D01*
X11530843Y-8466799D01*
X11537529Y-8466113D01*
X11538815Y-8466002D01*
X11553013Y-8464802D01*
X11557734Y-8473055D01*
X11563896Y-8485739D01*
X11567639Y-8498530D01*
X11569303Y-8512780D01*
X11569463Y-8519878D01*
X11569355Y-8528618D01*
X11568884Y-8534724D01*
X11567833Y-8539323D01*
X11565987Y-8543541D01*
X11564348Y-8546456D01*
X11557114Y-8555348D01*
X11546580Y-8562938D01*
X11532615Y-8569314D01*
X11528072Y-8570894D01*
X11522068Y-8572680D01*
X11516201Y-8573923D01*
X11509552Y-8574724D01*
X11501200Y-8575185D01*
X11490228Y-8575408D01*
X11487097Y-8575438D01*
X11459292Y-8575662D01*
X11452202Y-8582585D01*
X11446110Y-8587470D01*
X11438511Y-8591466D01*
X11428856Y-8594753D01*
X11416599Y-8597514D01*
X11401191Y-8599931D01*
X11399216Y-8600192D01*
X11389115Y-8601569D01*
X11382237Y-8602698D01*
X11378061Y-8603716D01*
X11376066Y-8604760D01*
X11375732Y-8605965D01*
X11375853Y-8606321D01*
X11377981Y-8612832D01*
X11377731Y-8616663D01*
X11375637Y-8617715D01*
X11372598Y-8618390D01*
X11366966Y-8620213D01*
X11359621Y-8622886D01*
X11353500Y-8625274D01*
X11345785Y-8628283D01*
X11339462Y-8630589D01*
X11335274Y-8631930D01*
X11333957Y-8632130D01*
X11333957Y-8632130D01*
G36*
X11329242Y-8694856D02*
X11321651Y-8693489D01*
X11316660Y-8689846D01*
X11314547Y-8684610D01*
X11315589Y-8678465D01*
X11320024Y-8672133D01*
X11325968Y-8668065D01*
X11332580Y-8666381D01*
X11338985Y-8666905D01*
X11344307Y-8669464D01*
X11347670Y-8673883D01*
X11348391Y-8677788D01*
X11346774Y-8682805D01*
X11342660Y-8687937D01*
X11337147Y-8692204D01*
X11331338Y-8694624D01*
X11329242Y-8694856D01*
X11329242Y-8694856D01*
X11329242Y-8694856D01*
G37*
X11329242Y-8694856D02*
X11321651Y-8693489D01*
X11316660Y-8689846D01*
X11314547Y-8684610D01*
X11315589Y-8678465D01*
X11320024Y-8672133D01*
X11325968Y-8668065D01*
X11332580Y-8666381D01*
X11338985Y-8666905D01*
X11344307Y-8669464D01*
X11347670Y-8673883D01*
X11348391Y-8677788D01*
X11346774Y-8682805D01*
X11342660Y-8687937D01*
X11337147Y-8692204D01*
X11331338Y-8694624D01*
X11329242Y-8694856D01*
X11329242Y-8694856D01*
D10*
X12141200Y-8878300D02*
X12077700Y-8941800D01*
X11950700Y-8687800D02*
X11887200Y-8751300D01*
X11887200Y-8878300D02*
X11950700Y-8941800D01*
X12077700Y-8687800D02*
X12141200Y-8751300D01*
X11950700Y-8687800D02*
X12077700Y-8687800D01*
X11887200Y-8878300D02*
X11887200Y-8751300D01*
X12141200Y-8751300D02*
X12141200Y-8878300D01*
X12141200Y-9005300D02*
X12141200Y-9132300D01*
X11887200Y-9132300D02*
X11887200Y-9005300D01*
X12077700Y-8941800D02*
X12141200Y-9005300D01*
X11887200Y-9132300D02*
X11950700Y-9195800D01*
X11950700Y-8941800D02*
X11887200Y-9005300D01*
X12141200Y-9132300D02*
X12077700Y-9195800D01*
X12141200Y-9386300D02*
X12077700Y-9449800D01*
X11950700Y-9195800D02*
X11887200Y-9259300D01*
X11887200Y-9386300D02*
X11950700Y-9449800D01*
X12077700Y-9195800D02*
X12141200Y-9259300D01*
X12090400Y-9487900D02*
X12052300Y-9513300D01*
X11938000Y-9487900D02*
X12090400Y-9487900D01*
X11950700Y-9195800D02*
X12077700Y-9195800D01*
X11887200Y-9386300D02*
X11887200Y-9259300D01*
X12141200Y-9259300D02*
X12141200Y-9386300D01*
X12077700Y-9449800D02*
X11950700Y-9449800D01*
X12141200Y-10528300D02*
X12077700Y-10591800D01*
X11950700Y-10337800D02*
X11887200Y-10401300D01*
X11887200Y-10528300D02*
X11950700Y-10591800D01*
X12077700Y-10337800D02*
X12141200Y-10401300D01*
X11950700Y-10337800D02*
X12077700Y-10337800D01*
X11887200Y-10528300D02*
X11887200Y-10401300D01*
X12141200Y-10401300D02*
X12141200Y-10528300D01*
X12141200Y-10655300D02*
X12141200Y-10782300D01*
X11887200Y-10782300D02*
X11887200Y-10655300D01*
X12077700Y-10591800D02*
X12141200Y-10655300D01*
X11887200Y-10782300D02*
X11950700Y-10845800D01*
X11950700Y-10591800D02*
X11887200Y-10655300D01*
X12141200Y-10782300D02*
X12077700Y-10845800D01*
X12141200Y-11036300D02*
X12077700Y-11099800D01*
X11950700Y-10845800D02*
X11887200Y-10909300D01*
X11887200Y-11036300D02*
X11950700Y-11099800D01*
X12077700Y-10845800D02*
X12141200Y-10909300D01*
X12090400Y-11137900D02*
X12052300Y-11163300D01*
X11938000Y-11137900D02*
X12090400Y-11137900D01*
X11950700Y-10845800D02*
X12077700Y-10845800D01*
X11887200Y-11036300D02*
X11887200Y-10909300D01*
X12141200Y-10909300D02*
X12141200Y-11036300D01*
X12077700Y-11099800D02*
X11950700Y-11099800D01*
D12*
G36*
X10943986Y-10895715D02*
X10933645Y-10893028D01*
X10924967Y-10887077D01*
X10917897Y-10877805D01*
X10912382Y-10865154D01*
X10910682Y-10859441D01*
X10909521Y-10852645D01*
X10908749Y-10843045D01*
X10908361Y-10831577D01*
X10908350Y-10819178D01*
X10908712Y-10806785D01*
X10909441Y-10795335D01*
X10910530Y-10785767D01*
X10911141Y-10782300D01*
X10913315Y-10774179D01*
X10916543Y-10765202D01*
X10920530Y-10755900D01*
X10924979Y-10746803D01*
X10929593Y-10738441D01*
X10934076Y-10731345D01*
X10938131Y-10726044D01*
X10941462Y-10723070D01*
X10943773Y-10722951D01*
X10944108Y-10723350D01*
X10945728Y-10728573D01*
X10945528Y-10736407D01*
X10943480Y-10747026D01*
X10939554Y-10760604D01*
X10936444Y-10769793D01*
X10930422Y-10787695D01*
X10926063Y-10802739D01*
X10923312Y-10815415D01*
X10922115Y-10826215D01*
X10922416Y-10835628D01*
X10924162Y-10844144D01*
X10927246Y-10852147D01*
X10931170Y-10858887D01*
X10935683Y-10864209D01*
X10940129Y-10867537D01*
X10943852Y-10868300D01*
X10945043Y-10867717D01*
X10947719Y-10863658D01*
X10949448Y-10858397D01*
X10970675Y-10858397D01*
X10972943Y-10856922D01*
X10976714Y-10852656D01*
X10977688Y-10851440D01*
X10986131Y-10839222D01*
X10992301Y-10826332D01*
X10995667Y-10816259D01*
X10997566Y-10806958D01*
X10998207Y-10797200D01*
X10997709Y-10787693D01*
X10996194Y-10779144D01*
X10993783Y-10772261D01*
X10990597Y-10767752D01*
X10987136Y-10766307D01*
X10983515Y-10768101D01*
X10979978Y-10773134D01*
X10976669Y-10780883D01*
X10973733Y-10790823D01*
X10971312Y-10802431D01*
X10969551Y-10815183D01*
X10968593Y-10828557D01*
X10968464Y-10834357D01*
X10968512Y-10842931D01*
X10968746Y-10850286D01*
X10969125Y-10855490D01*
X10969472Y-10857401D01*
X10970675Y-10858397D01*
X10949448Y-10858397D01*
X10950224Y-10856035D01*
X10952570Y-10844796D01*
X10954768Y-10829884D01*
X10956083Y-10818581D01*
X10958895Y-10796960D01*
X10962317Y-10778900D01*
X10966337Y-10764440D01*
X10970947Y-10753614D01*
X10976133Y-10746460D01*
X10978132Y-10744795D01*
X10984986Y-10742022D01*
X10992192Y-10742534D01*
X10999127Y-10745981D01*
X11005170Y-10752012D01*
X11009698Y-10760277D01*
X11010645Y-10763063D01*
X11012913Y-10775883D01*
X11012976Y-10791047D01*
X11010907Y-10807904D01*
X11006778Y-10825800D01*
X11002122Y-10840200D01*
X10994520Y-10857942D01*
X10985903Y-10872401D01*
X10976364Y-10883488D01*
X10965997Y-10891114D01*
X10954894Y-10895189D01*
X10943986Y-10895715D01*
X10943986Y-10895715D01*
X10943986Y-10895715D01*
G37*
X10943986Y-10895715D02*
X10933645Y-10893028D01*
X10924967Y-10887077D01*
X10917897Y-10877805D01*
X10912382Y-10865154D01*
X10910682Y-10859441D01*
X10909521Y-10852645D01*
X10908749Y-10843045D01*
X10908361Y-10831577D01*
X10908350Y-10819178D01*
X10908712Y-10806785D01*
X10909441Y-10795335D01*
X10910530Y-10785767D01*
X10911141Y-10782300D01*
X10913315Y-10774179D01*
X10916543Y-10765202D01*
X10920530Y-10755900D01*
X10924979Y-10746803D01*
X10929593Y-10738441D01*
X10934076Y-10731345D01*
X10938131Y-10726044D01*
X10941462Y-10723070D01*
X10943773Y-10722951D01*
X10944108Y-10723350D01*
X10945728Y-10728573D01*
X10945528Y-10736407D01*
X10943480Y-10747026D01*
X10939554Y-10760604D01*
X10936444Y-10769793D01*
X10930422Y-10787695D01*
X10926063Y-10802739D01*
X10923312Y-10815415D01*
X10922115Y-10826215D01*
X10922416Y-10835628D01*
X10924162Y-10844144D01*
X10927246Y-10852147D01*
X10931170Y-10858887D01*
X10935683Y-10864209D01*
X10940129Y-10867537D01*
X10943852Y-10868300D01*
X10945043Y-10867717D01*
X10947719Y-10863658D01*
X10949448Y-10858397D01*
X10970675Y-10858397D01*
X10972943Y-10856922D01*
X10976714Y-10852656D01*
X10977688Y-10851440D01*
X10986131Y-10839222D01*
X10992301Y-10826332D01*
X10995667Y-10816259D01*
X10997566Y-10806958D01*
X10998207Y-10797200D01*
X10997709Y-10787693D01*
X10996194Y-10779144D01*
X10993783Y-10772261D01*
X10990597Y-10767752D01*
X10987136Y-10766307D01*
X10983515Y-10768101D01*
X10979978Y-10773134D01*
X10976669Y-10780883D01*
X10973733Y-10790823D01*
X10971312Y-10802431D01*
X10969551Y-10815183D01*
X10968593Y-10828557D01*
X10968464Y-10834357D01*
X10968512Y-10842931D01*
X10968746Y-10850286D01*
X10969125Y-10855490D01*
X10969472Y-10857401D01*
X10970675Y-10858397D01*
X10949448Y-10858397D01*
X10950224Y-10856035D01*
X10952570Y-10844796D01*
X10954768Y-10829884D01*
X10956083Y-10818581D01*
X10958895Y-10796960D01*
X10962317Y-10778900D01*
X10966337Y-10764440D01*
X10970947Y-10753614D01*
X10976133Y-10746460D01*
X10978132Y-10744795D01*
X10984986Y-10742022D01*
X10992192Y-10742534D01*
X10999127Y-10745981D01*
X11005170Y-10752012D01*
X11009698Y-10760277D01*
X11010645Y-10763063D01*
X11012913Y-10775883D01*
X11012976Y-10791047D01*
X11010907Y-10807904D01*
X11006778Y-10825800D01*
X11002122Y-10840200D01*
X10994520Y-10857942D01*
X10985903Y-10872401D01*
X10976364Y-10883488D01*
X10965997Y-10891114D01*
X10954894Y-10895189D01*
X10943986Y-10895715D01*
X10943986Y-10895715D01*
G36*
X11052616Y-10721150D02*
X11051159Y-10719585D01*
X11048915Y-10715594D01*
X11047548Y-10712685D01*
X11045319Y-10708223D01*
X11042885Y-10705345D01*
X11039628Y-10704004D01*
X11034933Y-10704155D01*
X11028183Y-10705753D01*
X11018763Y-10708751D01*
X11014428Y-10710223D01*
X10997150Y-10715099D01*
X10982036Y-10717081D01*
X10968811Y-10716138D01*
X10957198Y-10712239D01*
X10946922Y-10705354D01*
X10943826Y-10702470D01*
X10936690Y-10693787D01*
X10932071Y-10684860D01*
X10931957Y-10684532D01*
X10929871Y-10675028D01*
X10929032Y-10663364D01*
X10929429Y-10650926D01*
X10931049Y-10639102D01*
X10932370Y-10633663D01*
X10936677Y-10621187D01*
X10941268Y-10612387D01*
X10945006Y-10608126D01*
X10947088Y-10606688D01*
X10947661Y-10607622D01*
X10947033Y-10611547D01*
X10946936Y-10612026D01*
X10944958Y-10623264D01*
X10943500Y-10634496D01*
X10942661Y-10644693D01*
X10942535Y-10652829D01*
X10942812Y-10656099D01*
X10946328Y-10667290D01*
X10953067Y-10677171D01*
X10962542Y-10685071D01*
X10964705Y-10686345D01*
X10969590Y-10688900D01*
X10973807Y-10690537D01*
X10978424Y-10691452D01*
X10984508Y-10691844D01*
X10993130Y-10691912D01*
X10994672Y-10691907D01*
X11005225Y-10691622D01*
X11014695Y-10690728D01*
X11024020Y-10689018D01*
X11034136Y-10686286D01*
X11045980Y-10682328D01*
X11057215Y-10678183D01*
X11065058Y-10675287D01*
X11071501Y-10673047D01*
X11075803Y-10671711D01*
X11077217Y-10671471D01*
X11076744Y-10673307D01*
X11074875Y-10677749D01*
X11071970Y-10684073D01*
X11068385Y-10691556D01*
X11064480Y-10699472D01*
X11060612Y-10707100D01*
X11057141Y-10713715D01*
X11054424Y-10718594D01*
X11052821Y-10721012D01*
X11052616Y-10721150D01*
X11052616Y-10721150D01*
X11052616Y-10721150D01*
G37*
X11052616Y-10721150D02*
X11051159Y-10719585D01*
X11048915Y-10715594D01*
X11047548Y-10712685D01*
X11045319Y-10708223D01*
X11042885Y-10705345D01*
X11039628Y-10704004D01*
X11034933Y-10704155D01*
X11028183Y-10705753D01*
X11018763Y-10708751D01*
X11014428Y-10710223D01*
X10997150Y-10715099D01*
X10982036Y-10717081D01*
X10968811Y-10716138D01*
X10957198Y-10712239D01*
X10946922Y-10705354D01*
X10943826Y-10702470D01*
X10936690Y-10693787D01*
X10932071Y-10684860D01*
X10931957Y-10684532D01*
X10929871Y-10675028D01*
X10929032Y-10663364D01*
X10929429Y-10650926D01*
X10931049Y-10639102D01*
X10932370Y-10633663D01*
X10936677Y-10621187D01*
X10941268Y-10612387D01*
X10945006Y-10608126D01*
X10947088Y-10606688D01*
X10947661Y-10607622D01*
X10947033Y-10611547D01*
X10946936Y-10612026D01*
X10944958Y-10623264D01*
X10943500Y-10634496D01*
X10942661Y-10644693D01*
X10942535Y-10652829D01*
X10942812Y-10656099D01*
X10946328Y-10667290D01*
X10953067Y-10677171D01*
X10962542Y-10685071D01*
X10964705Y-10686345D01*
X10969590Y-10688900D01*
X10973807Y-10690537D01*
X10978424Y-10691452D01*
X10984508Y-10691844D01*
X10993130Y-10691912D01*
X10994672Y-10691907D01*
X11005225Y-10691622D01*
X11014695Y-10690728D01*
X11024020Y-10689018D01*
X11034136Y-10686286D01*
X11045980Y-10682328D01*
X11057215Y-10678183D01*
X11065058Y-10675287D01*
X11071501Y-10673047D01*
X11075803Y-10671711D01*
X11077217Y-10671471D01*
X11076744Y-10673307D01*
X11074875Y-10677749D01*
X11071970Y-10684073D01*
X11068385Y-10691556D01*
X11064480Y-10699472D01*
X11060612Y-10707100D01*
X11057141Y-10713715D01*
X11054424Y-10718594D01*
X11052821Y-10721012D01*
X11052616Y-10721150D01*
X11052616Y-10721150D01*
G36*
X11001251Y-10622863D02*
X10990151Y-10620348D01*
X10980291Y-10614773D01*
X10972201Y-10606365D01*
X10966413Y-10595350D01*
X10966369Y-10595216D01*
X11020569Y-10595216D01*
X11032179Y-10592777D01*
X11042935Y-10587184D01*
X11052451Y-10578635D01*
X11060342Y-10567331D01*
X11066105Y-10553839D01*
X11068507Y-10544328D01*
X11069962Y-10534379D01*
X11070361Y-10525231D01*
X11069598Y-10518122D01*
X11069283Y-10517011D01*
X11067057Y-10514466D01*
X11061857Y-10510617D01*
X11054115Y-10505758D01*
X11046079Y-10501176D01*
X11024123Y-10489104D01*
X11014039Y-10494384D01*
X11007148Y-10498812D01*
X10999889Y-10504730D01*
X10995399Y-10509180D01*
X10985322Y-10522314D01*
X10978579Y-10535459D01*
X10975227Y-10548348D01*
X10975323Y-10560713D01*
X10978925Y-10572288D01*
X10981015Y-10576089D01*
X10987326Y-10583747D01*
X10996113Y-10589723D01*
X10996327Y-10589835D01*
X11008490Y-10594301D01*
X11020569Y-10595216D01*
X10966369Y-10595216D01*
X10965467Y-10592482D01*
X10963406Y-10581387D01*
X10962963Y-10568541D01*
X10964128Y-10555584D01*
X10965697Y-10548056D01*
X10970211Y-10534906D01*
X10976607Y-10521408D01*
X10984300Y-10508514D01*
X10992706Y-10497175D01*
X11001241Y-10488342D01*
X11003474Y-10486524D01*
X11007356Y-10483357D01*
X11008508Y-10481502D01*
X11007302Y-10480142D01*
X11006562Y-10479722D01*
X11003487Y-10477998D01*
X11002499Y-10477367D01*
X11003076Y-10475651D01*
X11005142Y-10471665D01*
X11008163Y-10466311D01*
X11011604Y-10460494D01*
X11014932Y-10455116D01*
X11017614Y-10451080D01*
X11019083Y-10449308D01*
X11020847Y-10450109D01*
X11022785Y-10452837D01*
X11025890Y-10456619D01*
X11030677Y-10460551D01*
X11032006Y-10461416D01*
X11035352Y-10463464D01*
X11041434Y-10467188D01*
X11049778Y-10472298D01*
X11059912Y-10478505D01*
X11071362Y-10485519D01*
X11083655Y-10493050D01*
X11086619Y-10494866D01*
X11101256Y-10503774D01*
X11113091Y-10510830D01*
X11122480Y-10516226D01*
X11129781Y-10520154D01*
X11135349Y-10522806D01*
X11139543Y-10524375D01*
X11142636Y-10525043D01*
X11147841Y-10525892D01*
X11151220Y-10526933D01*
X11151764Y-10527340D01*
X11150717Y-10528882D01*
X11147142Y-10531489D01*
X11142978Y-10533943D01*
X11137308Y-10537612D01*
X11130174Y-10543057D01*
X11122741Y-10549362D01*
X11119327Y-10552504D01*
X11105305Y-10565824D01*
X11106652Y-10555037D01*
X11107127Y-10545814D01*
X11105526Y-10538978D01*
X11101351Y-10533498D01*
X11094100Y-10528343D01*
X11093519Y-10528000D01*
X11083375Y-10522055D01*
X11082078Y-10529881D01*
X11078351Y-10544947D01*
X11072326Y-10560379D01*
X11064458Y-10575475D01*
X11055201Y-10589536D01*
X11045010Y-10601861D01*
X11034339Y-10611749D01*
X11025044Y-10617812D01*
X11013059Y-10622093D01*
X11001251Y-10622863D01*
X11001251Y-10622863D01*
X11001251Y-10622863D01*
G37*
X11001251Y-10622863D02*
X10990151Y-10620348D01*
X10980291Y-10614773D01*
X10972201Y-10606365D01*
X10966413Y-10595350D01*
X10966369Y-10595216D01*
X11020569Y-10595216D01*
X11032179Y-10592777D01*
X11042935Y-10587184D01*
X11052451Y-10578635D01*
X11060342Y-10567331D01*
X11066105Y-10553839D01*
X11068507Y-10544328D01*
X11069962Y-10534379D01*
X11070361Y-10525231D01*
X11069598Y-10518122D01*
X11069283Y-10517011D01*
X11067057Y-10514466D01*
X11061857Y-10510617D01*
X11054115Y-10505758D01*
X11046079Y-10501176D01*
X11024123Y-10489104D01*
X11014039Y-10494384D01*
X11007148Y-10498812D01*
X10999889Y-10504730D01*
X10995399Y-10509180D01*
X10985322Y-10522314D01*
X10978579Y-10535459D01*
X10975227Y-10548348D01*
X10975323Y-10560713D01*
X10978925Y-10572288D01*
X10981015Y-10576089D01*
X10987326Y-10583747D01*
X10996113Y-10589723D01*
X10996327Y-10589835D01*
X11008490Y-10594301D01*
X11020569Y-10595216D01*
X10966369Y-10595216D01*
X10965467Y-10592482D01*
X10963406Y-10581387D01*
X10962963Y-10568541D01*
X10964128Y-10555584D01*
X10965697Y-10548056D01*
X10970211Y-10534906D01*
X10976607Y-10521408D01*
X10984300Y-10508514D01*
X10992706Y-10497175D01*
X11001241Y-10488342D01*
X11003474Y-10486524D01*
X11007356Y-10483357D01*
X11008508Y-10481502D01*
X11007302Y-10480142D01*
X11006562Y-10479722D01*
X11003487Y-10477998D01*
X11002499Y-10477367D01*
X11003076Y-10475651D01*
X11005142Y-10471665D01*
X11008163Y-10466311D01*
X11011604Y-10460494D01*
X11014932Y-10455116D01*
X11017614Y-10451080D01*
X11019083Y-10449308D01*
X11020847Y-10450109D01*
X11022785Y-10452837D01*
X11025890Y-10456619D01*
X11030677Y-10460551D01*
X11032006Y-10461416D01*
X11035352Y-10463464D01*
X11041434Y-10467188D01*
X11049778Y-10472298D01*
X11059912Y-10478505D01*
X11071362Y-10485519D01*
X11083655Y-10493050D01*
X11086619Y-10494866D01*
X11101256Y-10503774D01*
X11113091Y-10510830D01*
X11122480Y-10516226D01*
X11129781Y-10520154D01*
X11135349Y-10522806D01*
X11139543Y-10524375D01*
X11142636Y-10525043D01*
X11147841Y-10525892D01*
X11151220Y-10526933D01*
X11151764Y-10527340D01*
X11150717Y-10528882D01*
X11147142Y-10531489D01*
X11142978Y-10533943D01*
X11137308Y-10537612D01*
X11130174Y-10543057D01*
X11122741Y-10549362D01*
X11119327Y-10552504D01*
X11105305Y-10565824D01*
X11106652Y-10555037D01*
X11107127Y-10545814D01*
X11105526Y-10538978D01*
X11101351Y-10533498D01*
X11094100Y-10528343D01*
X11093519Y-10528000D01*
X11083375Y-10522055D01*
X11082078Y-10529881D01*
X11078351Y-10544947D01*
X11072326Y-10560379D01*
X11064458Y-10575475D01*
X11055201Y-10589536D01*
X11045010Y-10601861D01*
X11034339Y-10611749D01*
X11025044Y-10617812D01*
X11013059Y-10622093D01*
X11001251Y-10622863D01*
X11001251Y-10622863D01*
G36*
X11028854Y-11093409D02*
X11028117Y-11093352D01*
X11025706Y-11092798D01*
X11025872Y-11091756D01*
X11028913Y-11089622D01*
X11030420Y-11088685D01*
X11035100Y-11086049D01*
X11042004Y-11082458D01*
X11049939Y-11078526D01*
X11053366Y-11076885D01*
X11073535Y-11065268D01*
X11092086Y-11050292D01*
X11108978Y-11032015D01*
X11124167Y-11010496D01*
X11137614Y-10985793D01*
X11149276Y-10957964D01*
X11158282Y-10930046D01*
X11161907Y-10916596D01*
X11166108Y-10899931D01*
X11170773Y-10880534D01*
X11175792Y-10858888D01*
X11181054Y-10835478D01*
X11186447Y-10810787D01*
X11191862Y-10785300D01*
X11195991Y-10765367D01*
X11199859Y-10746621D01*
X11203158Y-10731035D01*
X11206021Y-10718073D01*
X11208580Y-10707199D01*
X11210971Y-10697877D01*
X11213325Y-10689569D01*
X11215777Y-10681740D01*
X11218460Y-10673854D01*
X11219480Y-10670978D01*
X11227037Y-10652593D01*
X11235908Y-10636692D01*
X11246881Y-10622034D01*
X11258361Y-10609711D01*
X11266601Y-10601051D01*
X11273556Y-10592805D01*
X11278557Y-10585786D01*
X11279930Y-10583370D01*
X11290814Y-10565980D01*
X11304668Y-10550817D01*
X11321310Y-10538057D01*
X11335470Y-10530188D01*
X11345941Y-10525747D01*
X11354196Y-10523730D01*
X11360895Y-10524133D01*
X11366698Y-10526952D01*
X11370216Y-10529993D01*
X11374078Y-10534723D01*
X11376349Y-10539195D01*
X11376613Y-10540688D01*
X11374887Y-10548625D01*
X11369784Y-10557841D01*
X11361416Y-10568207D01*
X11349896Y-10579595D01*
X11335335Y-10591876D01*
X11325493Y-10599392D01*
X11303536Y-10615623D01*
X11301268Y-10626525D01*
X11300182Y-10634834D01*
X11299721Y-10645708D01*
X11299934Y-10657993D01*
X11299940Y-10658122D01*
X11302855Y-10681488D01*
X11309325Y-10704115D01*
X11319152Y-10725539D01*
X11332139Y-10745294D01*
X11341923Y-10756747D01*
X11354923Y-10769038D01*
X11368586Y-10778733D01*
X11384019Y-10786526D01*
X11397309Y-10791504D01*
X11421618Y-10798126D01*
X11444519Y-10801288D01*
X11466167Y-10800954D01*
X11486713Y-10797086D01*
X11506310Y-10789650D01*
X11525113Y-10778609D01*
X11543273Y-10763926D01*
X11552565Y-10754785D01*
X11570936Y-10733084D01*
X11586417Y-10709314D01*
X11599142Y-10683232D01*
X11609245Y-10654594D01*
X11610875Y-10648861D01*
X11615475Y-10632074D01*
X11608848Y-10614379D01*
X11604057Y-10600765D01*
X11599091Y-10585228D01*
X11594332Y-10569077D01*
X11590165Y-10553617D01*
X11586970Y-10540155D01*
X11586621Y-10538495D01*
X11583598Y-10521703D01*
X11581545Y-10504867D01*
X11580389Y-10486997D01*
X11580059Y-10467102D01*
X11580274Y-10451698D01*
X11580652Y-10438230D01*
X11581122Y-10427698D01*
X11581771Y-10419274D01*
X11582686Y-10412130D01*
X11583955Y-10405440D01*
X11585665Y-10398375D01*
X11586069Y-10396838D01*
X11593200Y-10374968D01*
X11602492Y-10355551D01*
X11614362Y-10337955D01*
X11629226Y-10321545D01*
X11644387Y-10308169D01*
X11651204Y-10303026D01*
X11659442Y-10297375D01*
X11668418Y-10291621D01*
X11677452Y-10286166D01*
X11685864Y-10281414D01*
X11692973Y-10277768D01*
X11698098Y-10275631D01*
X11699966Y-10275241D01*
X11701908Y-10275797D01*
X11701297Y-10277596D01*
X11697946Y-10280834D01*
X11691669Y-10285708D01*
X11686587Y-10289382D01*
X11664536Y-10306869D01*
X11645935Y-10325568D01*
X11630750Y-10345580D01*
X11618945Y-10367004D01*
X11610486Y-10389941D01*
X11605338Y-10414491D01*
X11603466Y-10440754D01*
X11604835Y-10468830D01*
X11609411Y-10498820D01*
X11611060Y-10506663D01*
X11613670Y-10518087D01*
X11616275Y-10528461D01*
X11619055Y-10538219D01*
X11622193Y-10547795D01*
X11625870Y-10557623D01*
X11630268Y-10568137D01*
X11635568Y-10579770D01*
X11641952Y-10592958D01*
X11649601Y-10608133D01*
X11658698Y-10625729D01*
X11669424Y-10646181D01*
X11669629Y-10646570D01*
X11682662Y-10671758D01*
X11693776Y-10694265D01*
X11703155Y-10714532D01*
X11710982Y-10733002D01*
X11717439Y-10750115D01*
X11722708Y-10766312D01*
X11726974Y-10782036D01*
X11728602Y-10789019D01*
X11730556Y-10800284D01*
X11732093Y-10814047D01*
X11733188Y-10829410D01*
X11733819Y-10845475D01*
X11733964Y-10861345D01*
X11733600Y-10876122D01*
X11732703Y-10888908D01*
X11731379Y-10898184D01*
X11726027Y-10920122D01*
X11719120Y-10940865D01*
X11710898Y-10959941D01*
X11701605Y-10976877D01*
X11691481Y-10991200D01*
X11680769Y-11002438D01*
X11676208Y-11006084D01*
X11665974Y-11011989D01*
X11654654Y-11016018D01*
X11643548Y-11017793D01*
X11636687Y-11017507D01*
X11629438Y-11016234D01*
X11625237Y-11014920D01*
X11623376Y-11013273D01*
X11623087Y-11011857D01*
X11624800Y-11010213D01*
X11630017Y-11009493D01*
X11632296Y-11009453D01*
X11645376Y-11008089D01*
X11656929Y-11003861D01*
X11667228Y-10996561D01*
X11676545Y-10985983D01*
X11685151Y-10971921D01*
X11687326Y-10967626D01*
X11698184Y-10941438D01*
X11705444Y-10914570D01*
X11709140Y-10886813D01*
X11709305Y-10857955D01*
X11707676Y-10839636D01*
X11705301Y-10824557D01*
X11701780Y-10809309D01*
X11696943Y-10793452D01*
X11690619Y-10776548D01*
X11682637Y-10758158D01*
X11672826Y-10737843D01*
X11661016Y-10715164D01*
X11654569Y-10703278D01*
X11648863Y-10692860D01*
X11644702Y-10685429D01*
X11641773Y-10680700D01*
X11639761Y-10678387D01*
X11638353Y-10678207D01*
X11637234Y-10679873D01*
X11636091Y-10683102D01*
X11635242Y-10685737D01*
X11628995Y-10701955D01*
X11620660Y-10719413D01*
X11610900Y-10736784D01*
X11605036Y-10746015D01*
X11588321Y-10768261D01*
X11570062Y-10787177D01*
X11550361Y-10802715D01*
X11529325Y-10814826D01*
X11507058Y-10823462D01*
X11483664Y-10828573D01*
X11459248Y-10830111D01*
X11433915Y-10828027D01*
X11430011Y-10827394D01*
X11402175Y-10821038D01*
X11376954Y-10811999D01*
X11354265Y-10800214D01*
X11334025Y-10785622D01*
X11316149Y-10768160D01*
X11300554Y-10747768D01*
X11287156Y-10724383D01*
X11285249Y-10720442D01*
X11275782Y-10697025D01*
X11269903Y-10674453D01*
X11268087Y-10661100D01*
X11266882Y-10647145D01*
X11262498Y-10652634D01*
X11256337Y-10661834D01*
X11250014Y-10674024D01*
X11243891Y-10688467D01*
X11241212Y-10695752D01*
X11238860Y-10703113D01*
X11235820Y-10713655D01*
X11232217Y-10726884D01*
X11228175Y-10742306D01*
X11223816Y-10759429D01*
X11219265Y-10777758D01*
X11214645Y-10796800D01*
X11210080Y-10816061D01*
X11205694Y-10835048D01*
X11201610Y-10853266D01*
X11200670Y-10857559D01*
X11194526Y-10884552D01*
X11188553Y-10908272D01*
X11182601Y-10929195D01*
X11176521Y-10947796D01*
X11170163Y-10964553D01*
X11163378Y-10979941D01*
X11160199Y-10986441D01*
X11145638Y-11011581D01*
X11128830Y-11033710D01*
X11109780Y-11052821D01*
X11088496Y-11068908D01*
X11068991Y-11080032D01*
X11059975Y-11084142D01*
X11050555Y-11087827D01*
X11041630Y-11090795D01*
X11034097Y-11092753D01*
X11028854Y-11093409D01*
X11028854Y-11093409D01*
X11028854Y-11093409D01*
G37*
X11028854Y-11093409D02*
X11028117Y-11093352D01*
X11025706Y-11092798D01*
X11025872Y-11091756D01*
X11028913Y-11089622D01*
X11030420Y-11088685D01*
X11035100Y-11086049D01*
X11042004Y-11082458D01*
X11049939Y-11078526D01*
X11053366Y-11076885D01*
X11073535Y-11065268D01*
X11092086Y-11050292D01*
X11108978Y-11032015D01*
X11124167Y-11010496D01*
X11137614Y-10985793D01*
X11149276Y-10957964D01*
X11158282Y-10930046D01*
X11161907Y-10916596D01*
X11166108Y-10899931D01*
X11170773Y-10880534D01*
X11175792Y-10858888D01*
X11181054Y-10835478D01*
X11186447Y-10810787D01*
X11191862Y-10785300D01*
X11195991Y-10765367D01*
X11199859Y-10746621D01*
X11203158Y-10731035D01*
X11206021Y-10718073D01*
X11208580Y-10707199D01*
X11210971Y-10697877D01*
X11213325Y-10689569D01*
X11215777Y-10681740D01*
X11218460Y-10673854D01*
X11219480Y-10670978D01*
X11227037Y-10652593D01*
X11235908Y-10636692D01*
X11246881Y-10622034D01*
X11258361Y-10609711D01*
X11266601Y-10601051D01*
X11273556Y-10592805D01*
X11278557Y-10585786D01*
X11279930Y-10583370D01*
X11290814Y-10565980D01*
X11304668Y-10550817D01*
X11321310Y-10538057D01*
X11335470Y-10530188D01*
X11345941Y-10525747D01*
X11354196Y-10523730D01*
X11360895Y-10524133D01*
X11366698Y-10526952D01*
X11370216Y-10529993D01*
X11374078Y-10534723D01*
X11376349Y-10539195D01*
X11376613Y-10540688D01*
X11374887Y-10548625D01*
X11369784Y-10557841D01*
X11361416Y-10568207D01*
X11349896Y-10579595D01*
X11335335Y-10591876D01*
X11325493Y-10599392D01*
X11303536Y-10615623D01*
X11301268Y-10626525D01*
X11300182Y-10634834D01*
X11299721Y-10645708D01*
X11299934Y-10657993D01*
X11299940Y-10658122D01*
X11302855Y-10681488D01*
X11309325Y-10704115D01*
X11319152Y-10725539D01*
X11332139Y-10745294D01*
X11341923Y-10756747D01*
X11354923Y-10769038D01*
X11368586Y-10778733D01*
X11384019Y-10786526D01*
X11397309Y-10791504D01*
X11421618Y-10798126D01*
X11444519Y-10801288D01*
X11466167Y-10800954D01*
X11486713Y-10797086D01*
X11506310Y-10789650D01*
X11525113Y-10778609D01*
X11543273Y-10763926D01*
X11552565Y-10754785D01*
X11570936Y-10733084D01*
X11586417Y-10709314D01*
X11599142Y-10683232D01*
X11609245Y-10654594D01*
X11610875Y-10648861D01*
X11615475Y-10632074D01*
X11608848Y-10614379D01*
X11604057Y-10600765D01*
X11599091Y-10585228D01*
X11594332Y-10569077D01*
X11590165Y-10553617D01*
X11586970Y-10540155D01*
X11586621Y-10538495D01*
X11583598Y-10521703D01*
X11581545Y-10504867D01*
X11580389Y-10486997D01*
X11580059Y-10467102D01*
X11580274Y-10451698D01*
X11580652Y-10438230D01*
X11581122Y-10427698D01*
X11581771Y-10419274D01*
X11582686Y-10412130D01*
X11583955Y-10405440D01*
X11585665Y-10398375D01*
X11586069Y-10396838D01*
X11593200Y-10374968D01*
X11602492Y-10355551D01*
X11614362Y-10337955D01*
X11629226Y-10321545D01*
X11644387Y-10308169D01*
X11651204Y-10303026D01*
X11659442Y-10297375D01*
X11668418Y-10291621D01*
X11677452Y-10286166D01*
X11685864Y-10281414D01*
X11692973Y-10277768D01*
X11698098Y-10275631D01*
X11699966Y-10275241D01*
X11701908Y-10275797D01*
X11701297Y-10277596D01*
X11697946Y-10280834D01*
X11691669Y-10285708D01*
X11686587Y-10289382D01*
X11664536Y-10306869D01*
X11645935Y-10325568D01*
X11630750Y-10345580D01*
X11618945Y-10367004D01*
X11610486Y-10389941D01*
X11605338Y-10414491D01*
X11603466Y-10440754D01*
X11604835Y-10468830D01*
X11609411Y-10498820D01*
X11611060Y-10506663D01*
X11613670Y-10518087D01*
X11616275Y-10528461D01*
X11619055Y-10538219D01*
X11622193Y-10547795D01*
X11625870Y-10557623D01*
X11630268Y-10568137D01*
X11635568Y-10579770D01*
X11641952Y-10592958D01*
X11649601Y-10608133D01*
X11658698Y-10625729D01*
X11669424Y-10646181D01*
X11669629Y-10646570D01*
X11682662Y-10671758D01*
X11693776Y-10694265D01*
X11703155Y-10714532D01*
X11710982Y-10733002D01*
X11717439Y-10750115D01*
X11722708Y-10766312D01*
X11726974Y-10782036D01*
X11728602Y-10789019D01*
X11730556Y-10800284D01*
X11732093Y-10814047D01*
X11733188Y-10829410D01*
X11733819Y-10845475D01*
X11733964Y-10861345D01*
X11733600Y-10876122D01*
X11732703Y-10888908D01*
X11731379Y-10898184D01*
X11726027Y-10920122D01*
X11719120Y-10940865D01*
X11710898Y-10959941D01*
X11701605Y-10976877D01*
X11691481Y-10991200D01*
X11680769Y-11002438D01*
X11676208Y-11006084D01*
X11665974Y-11011989D01*
X11654654Y-11016018D01*
X11643548Y-11017793D01*
X11636687Y-11017507D01*
X11629438Y-11016234D01*
X11625237Y-11014920D01*
X11623376Y-11013273D01*
X11623087Y-11011857D01*
X11624800Y-11010213D01*
X11630017Y-11009493D01*
X11632296Y-11009453D01*
X11645376Y-11008089D01*
X11656929Y-11003861D01*
X11667228Y-10996561D01*
X11676545Y-10985983D01*
X11685151Y-10971921D01*
X11687326Y-10967626D01*
X11698184Y-10941438D01*
X11705444Y-10914570D01*
X11709140Y-10886813D01*
X11709305Y-10857955D01*
X11707676Y-10839636D01*
X11705301Y-10824557D01*
X11701780Y-10809309D01*
X11696943Y-10793452D01*
X11690619Y-10776548D01*
X11682637Y-10758158D01*
X11672826Y-10737843D01*
X11661016Y-10715164D01*
X11654569Y-10703278D01*
X11648863Y-10692860D01*
X11644702Y-10685429D01*
X11641773Y-10680700D01*
X11639761Y-10678387D01*
X11638353Y-10678207D01*
X11637234Y-10679873D01*
X11636091Y-10683102D01*
X11635242Y-10685737D01*
X11628995Y-10701955D01*
X11620660Y-10719413D01*
X11610900Y-10736784D01*
X11605036Y-10746015D01*
X11588321Y-10768261D01*
X11570062Y-10787177D01*
X11550361Y-10802715D01*
X11529325Y-10814826D01*
X11507058Y-10823462D01*
X11483664Y-10828573D01*
X11459248Y-10830111D01*
X11433915Y-10828027D01*
X11430011Y-10827394D01*
X11402175Y-10821038D01*
X11376954Y-10811999D01*
X11354265Y-10800214D01*
X11334025Y-10785622D01*
X11316149Y-10768160D01*
X11300554Y-10747768D01*
X11287156Y-10724383D01*
X11285249Y-10720442D01*
X11275782Y-10697025D01*
X11269903Y-10674453D01*
X11268087Y-10661100D01*
X11266882Y-10647145D01*
X11262498Y-10652634D01*
X11256337Y-10661834D01*
X11250014Y-10674024D01*
X11243891Y-10688467D01*
X11241212Y-10695752D01*
X11238860Y-10703113D01*
X11235820Y-10713655D01*
X11232217Y-10726884D01*
X11228175Y-10742306D01*
X11223816Y-10759429D01*
X11219265Y-10777758D01*
X11214645Y-10796800D01*
X11210080Y-10816061D01*
X11205694Y-10835048D01*
X11201610Y-10853266D01*
X11200670Y-10857559D01*
X11194526Y-10884552D01*
X11188553Y-10908272D01*
X11182601Y-10929195D01*
X11176521Y-10947796D01*
X11170163Y-10964553D01*
X11163378Y-10979941D01*
X11160199Y-10986441D01*
X11145638Y-11011581D01*
X11128830Y-11033710D01*
X11109780Y-11052821D01*
X11088496Y-11068908D01*
X11068991Y-11080032D01*
X11059975Y-11084142D01*
X11050555Y-11087827D01*
X11041630Y-11090795D01*
X11034097Y-11092753D01*
X11028854Y-11093409D01*
X11028854Y-11093409D01*
G36*
X11134535Y-10447960D02*
X11133602Y-10447158D01*
X11135476Y-10444260D01*
X11139190Y-10440039D01*
X11145350Y-10431742D01*
X11148073Y-10423561D01*
X11147568Y-10414688D01*
X11146672Y-10411282D01*
X11144250Y-10403391D01*
X11132020Y-10413945D01*
X11119352Y-10423979D01*
X11106452Y-10432553D01*
X11093940Y-10439346D01*
X11082434Y-10444034D01*
X11072550Y-10446296D01*
X11069703Y-10446456D01*
X11062268Y-10445243D01*
X11055422Y-10442073D01*
X11050510Y-10437646D01*
X11049496Y-10435928D01*
X11047403Y-10427581D01*
X11088023Y-10427581D01*
X11095607Y-10426363D01*
X11104868Y-10422933D01*
X11114859Y-10417778D01*
X11124634Y-10411385D01*
X11133073Y-10404406D01*
X11143308Y-10394715D01*
X11139774Y-10373463D01*
X11138286Y-10364945D01*
X11136913Y-10357863D01*
X11135817Y-10353000D01*
X11135197Y-10351168D01*
X11132608Y-10350968D01*
X11127457Y-10352323D01*
X11120482Y-10354971D01*
X11112418Y-10358653D01*
X11108577Y-10360605D01*
X11097105Y-10367805D01*
X11087249Y-10376289D01*
X11079322Y-10385557D01*
X11073636Y-10395111D01*
X11070502Y-10404452D01*
X11070234Y-10413083D01*
X11072120Y-10418827D01*
X11076269Y-10424258D01*
X11081968Y-10426980D01*
X11088023Y-10427581D01*
X11047403Y-10427581D01*
X11047377Y-10427477D01*
X11047483Y-10417271D01*
X11049702Y-10406501D01*
X11053061Y-10398007D01*
X11058784Y-10388985D01*
X11066919Y-10379337D01*
X11076477Y-10370048D01*
X11086470Y-10362100D01*
X11093570Y-10357659D01*
X11099977Y-10354683D01*
X11108406Y-10351398D01*
X11117236Y-10348427D01*
X11118915Y-10347923D01*
X11125963Y-10345677D01*
X11131331Y-10343618D01*
X11134222Y-10342068D01*
X11134502Y-10341624D01*
X11134208Y-10339106D01*
X11133722Y-10333819D01*
X11133133Y-10326750D01*
X11132922Y-10324078D01*
X11131683Y-10308167D01*
X11142153Y-10297929D01*
X11147173Y-10293213D01*
X11151111Y-10289876D01*
X11153269Y-10288496D01*
X11153446Y-10288521D01*
X11153882Y-10290576D01*
X11154580Y-10295754D01*
X11155466Y-10303428D01*
X11156466Y-10312973D01*
X11157307Y-10321609D01*
X11158732Y-10335370D01*
X11160533Y-10350786D01*
X11162509Y-10366218D01*
X11164456Y-10380026D01*
X11164999Y-10383573D01*
X11166644Y-10394914D01*
X11168034Y-10406082D01*
X11169055Y-10416043D01*
X11169594Y-10423766D01*
X11169650Y-10426105D01*
X11169650Y-10438930D01*
X11162595Y-10438948D01*
X11156860Y-10439778D01*
X11149788Y-10441886D01*
X11145474Y-10443652D01*
X11138438Y-10446760D01*
X11134535Y-10447960D01*
X11134535Y-10447960D01*
X11134535Y-10447960D01*
G37*
X11134535Y-10447960D02*
X11133602Y-10447158D01*
X11135476Y-10444260D01*
X11139190Y-10440039D01*
X11145350Y-10431742D01*
X11148073Y-10423561D01*
X11147568Y-10414688D01*
X11146672Y-10411282D01*
X11144250Y-10403391D01*
X11132020Y-10413945D01*
X11119352Y-10423979D01*
X11106452Y-10432553D01*
X11093940Y-10439346D01*
X11082434Y-10444034D01*
X11072550Y-10446296D01*
X11069703Y-10446456D01*
X11062268Y-10445243D01*
X11055422Y-10442073D01*
X11050510Y-10437646D01*
X11049496Y-10435928D01*
X11047403Y-10427581D01*
X11088023Y-10427581D01*
X11095607Y-10426363D01*
X11104868Y-10422933D01*
X11114859Y-10417778D01*
X11124634Y-10411385D01*
X11133073Y-10404406D01*
X11143308Y-10394715D01*
X11139774Y-10373463D01*
X11138286Y-10364945D01*
X11136913Y-10357863D01*
X11135817Y-10353000D01*
X11135197Y-10351168D01*
X11132608Y-10350968D01*
X11127457Y-10352323D01*
X11120482Y-10354971D01*
X11112418Y-10358653D01*
X11108577Y-10360605D01*
X11097105Y-10367805D01*
X11087249Y-10376289D01*
X11079322Y-10385557D01*
X11073636Y-10395111D01*
X11070502Y-10404452D01*
X11070234Y-10413083D01*
X11072120Y-10418827D01*
X11076269Y-10424258D01*
X11081968Y-10426980D01*
X11088023Y-10427581D01*
X11047403Y-10427581D01*
X11047377Y-10427477D01*
X11047483Y-10417271D01*
X11049702Y-10406501D01*
X11053061Y-10398007D01*
X11058784Y-10388985D01*
X11066919Y-10379337D01*
X11076477Y-10370048D01*
X11086470Y-10362100D01*
X11093570Y-10357659D01*
X11099977Y-10354683D01*
X11108406Y-10351398D01*
X11117236Y-10348427D01*
X11118915Y-10347923D01*
X11125963Y-10345677D01*
X11131331Y-10343618D01*
X11134222Y-10342068D01*
X11134502Y-10341624D01*
X11134208Y-10339106D01*
X11133722Y-10333819D01*
X11133133Y-10326750D01*
X11132922Y-10324078D01*
X11131683Y-10308167D01*
X11142153Y-10297929D01*
X11147173Y-10293213D01*
X11151111Y-10289876D01*
X11153269Y-10288496D01*
X11153446Y-10288521D01*
X11153882Y-10290576D01*
X11154580Y-10295754D01*
X11155466Y-10303428D01*
X11156466Y-10312973D01*
X11157307Y-10321609D01*
X11158732Y-10335370D01*
X11160533Y-10350786D01*
X11162509Y-10366218D01*
X11164456Y-10380026D01*
X11164999Y-10383573D01*
X11166644Y-10394914D01*
X11168034Y-10406082D01*
X11169055Y-10416043D01*
X11169594Y-10423766D01*
X11169650Y-10426105D01*
X11169650Y-10438930D01*
X11162595Y-10438948D01*
X11156860Y-10439778D01*
X11149788Y-10441886D01*
X11145474Y-10443652D01*
X11138438Y-10446760D01*
X11134535Y-10447960D01*
X11134535Y-10447960D01*
G36*
X11254653Y-10385330D02*
X11254551Y-10383110D01*
X11255443Y-10378718D01*
X11255897Y-10377105D01*
X11257292Y-10371969D01*
X11258040Y-10368284D01*
X11258080Y-10367759D01*
X11256275Y-10364116D01*
X11251044Y-10359980D01*
X11242664Y-10355533D01*
X11234677Y-10352181D01*
X11226933Y-10349118D01*
X11219869Y-10346185D01*
X11214740Y-10343908D01*
X11213865Y-10343480D01*
X11201575Y-10335357D01*
X11191949Y-10325060D01*
X11185175Y-10313118D01*
X11181444Y-10300061D01*
X11180946Y-10286416D01*
X11183870Y-10272713D01*
X11186303Y-10266774D01*
X11192108Y-10257165D01*
X11200022Y-10247690D01*
X11209252Y-10239029D01*
X11219005Y-10231862D01*
X11228489Y-10226869D01*
X11235067Y-10224940D01*
X11242087Y-10223806D01*
X11227663Y-10238101D01*
X11217778Y-10248458D01*
X11210701Y-10257308D01*
X11206099Y-10265212D01*
X11203639Y-10272734D01*
X11202979Y-10279690D01*
X11204844Y-10292465D01*
X11210402Y-10304832D01*
X11219596Y-10316705D01*
X11232371Y-10327999D01*
X11237383Y-10331599D01*
X11246619Y-10337582D01*
X11255604Y-10342563D01*
X11265503Y-10347111D01*
X11277483Y-10351798D01*
X11282359Y-10353567D01*
X11290262Y-10356396D01*
X11297017Y-10358819D01*
X11301718Y-10360510D01*
X11303235Y-10361060D01*
X11302732Y-10362205D01*
X11299144Y-10364645D01*
X11292834Y-10368170D01*
X11284165Y-10372565D01*
X11280825Y-10374182D01*
X11271934Y-10378353D01*
X11264287Y-10381773D01*
X11258499Y-10384180D01*
X11255183Y-10385313D01*
X11254653Y-10385330D01*
X11254653Y-10385330D01*
X11254653Y-10385330D01*
G37*
X11254653Y-10385330D02*
X11254551Y-10383110D01*
X11255443Y-10378718D01*
X11255897Y-10377105D01*
X11257292Y-10371969D01*
X11258040Y-10368284D01*
X11258080Y-10367759D01*
X11256275Y-10364116D01*
X11251044Y-10359980D01*
X11242664Y-10355533D01*
X11234677Y-10352181D01*
X11226933Y-10349118D01*
X11219869Y-10346185D01*
X11214740Y-10343908D01*
X11213865Y-10343480D01*
X11201575Y-10335357D01*
X11191949Y-10325060D01*
X11185175Y-10313118D01*
X11181444Y-10300061D01*
X11180946Y-10286416D01*
X11183870Y-10272713D01*
X11186303Y-10266774D01*
X11192108Y-10257165D01*
X11200022Y-10247690D01*
X11209252Y-10239029D01*
X11219005Y-10231862D01*
X11228489Y-10226869D01*
X11235067Y-10224940D01*
X11242087Y-10223806D01*
X11227663Y-10238101D01*
X11217778Y-10248458D01*
X11210701Y-10257308D01*
X11206099Y-10265212D01*
X11203639Y-10272734D01*
X11202979Y-10279690D01*
X11204844Y-10292465D01*
X11210402Y-10304832D01*
X11219596Y-10316705D01*
X11232371Y-10327999D01*
X11237383Y-10331599D01*
X11246619Y-10337582D01*
X11255604Y-10342563D01*
X11265503Y-10347111D01*
X11277483Y-10351798D01*
X11282359Y-10353567D01*
X11290262Y-10356396D01*
X11297017Y-10358819D01*
X11301718Y-10360510D01*
X11303235Y-10361060D01*
X11302732Y-10362205D01*
X11299144Y-10364645D01*
X11292834Y-10368170D01*
X11284165Y-10372565D01*
X11280825Y-10374182D01*
X11271934Y-10378353D01*
X11264287Y-10381773D01*
X11258499Y-10384180D01*
X11255183Y-10385313D01*
X11254653Y-10385330D01*
X11254653Y-10385330D01*
G36*
X11284266Y-10312870D02*
X11284089Y-10311578D01*
X11285890Y-10308322D01*
X11287131Y-10306599D01*
X11291718Y-10298602D01*
X11293329Y-10290909D01*
X11291867Y-10284408D01*
X11288157Y-10277810D01*
X11283226Y-10269726D01*
X11277482Y-10260752D01*
X11271335Y-10251487D01*
X11265193Y-10242530D01*
X11259466Y-10234477D01*
X11254562Y-10227928D01*
X11250890Y-10223480D01*
X11249066Y-10221810D01*
X11244151Y-10219235D01*
X11254408Y-10212699D01*
X11261983Y-10208034D01*
X11268874Y-10204081D01*
X11274302Y-10201264D01*
X11277486Y-10200009D01*
X11277742Y-10199982D01*
X11278501Y-10201605D01*
X11278776Y-10205017D01*
X11279761Y-10208345D01*
X11282599Y-10214505D01*
X11287114Y-10223162D01*
X11293129Y-10233977D01*
X11300468Y-10246616D01*
X11301354Y-10248112D01*
X11307734Y-10258950D01*
X11313415Y-10268758D01*
X11318129Y-10277060D01*
X11321607Y-10283379D01*
X11323581Y-10287240D01*
X11323931Y-10288184D01*
X11322412Y-10290284D01*
X11318671Y-10292865D01*
X11317817Y-10293321D01*
X11313238Y-10295875D01*
X11306810Y-10299724D01*
X11299826Y-10304092D01*
X11298943Y-10304658D01*
X11292751Y-10308499D01*
X11287681Y-10311380D01*
X11284623Y-10312801D01*
X11284266Y-10312870D01*
X11284266Y-10312870D01*
X11284266Y-10312870D01*
G37*
X11284266Y-10312870D02*
X11284089Y-10311578D01*
X11285890Y-10308322D01*
X11287131Y-10306599D01*
X11291718Y-10298602D01*
X11293329Y-10290909D01*
X11291867Y-10284408D01*
X11288157Y-10277810D01*
X11283226Y-10269726D01*
X11277482Y-10260752D01*
X11271335Y-10251487D01*
X11265193Y-10242530D01*
X11259466Y-10234477D01*
X11254562Y-10227928D01*
X11250890Y-10223480D01*
X11249066Y-10221810D01*
X11244151Y-10219235D01*
X11254408Y-10212699D01*
X11261983Y-10208034D01*
X11268874Y-10204081D01*
X11274302Y-10201264D01*
X11277486Y-10200009D01*
X11277742Y-10199982D01*
X11278501Y-10201605D01*
X11278776Y-10205017D01*
X11279761Y-10208345D01*
X11282599Y-10214505D01*
X11287114Y-10223162D01*
X11293129Y-10233977D01*
X11300468Y-10246616D01*
X11301354Y-10248112D01*
X11307734Y-10258950D01*
X11313415Y-10268758D01*
X11318129Y-10277060D01*
X11321607Y-10283379D01*
X11323581Y-10287240D01*
X11323931Y-10288184D01*
X11322412Y-10290284D01*
X11318671Y-10292865D01*
X11317817Y-10293321D01*
X11313238Y-10295875D01*
X11306810Y-10299724D01*
X11299826Y-10304092D01*
X11298943Y-10304658D01*
X11292751Y-10308499D01*
X11287681Y-10311380D01*
X11284623Y-10312801D01*
X11284266Y-10312870D01*
X11284266Y-10312870D01*
G36*
X11333957Y-10282130D02*
X11334401Y-10280245D01*
X11336248Y-10275999D01*
X11338941Y-10270617D01*
X11341920Y-10264340D01*
X11343967Y-10258852D01*
X11344597Y-10255765D01*
X11343694Y-10252338D01*
X11341253Y-10246427D01*
X11337628Y-10238694D01*
X11333176Y-10229805D01*
X11328251Y-10220424D01*
X11323207Y-10211214D01*
X11318401Y-10202840D01*
X11314188Y-10195966D01*
X11310922Y-10191257D01*
X11309138Y-10189443D01*
X11305500Y-10187382D01*
X11303881Y-10186203D01*
X11304977Y-10184989D01*
X11308858Y-10182625D01*
X11314867Y-10179484D01*
X11320377Y-10176840D01*
X11338043Y-10168648D01*
X11339096Y-10175378D01*
X11340412Y-10180077D01*
X11343092Y-10187034D01*
X11346799Y-10195575D01*
X11351200Y-10205028D01*
X11355961Y-10214721D01*
X11360746Y-10223980D01*
X11365221Y-10232132D01*
X11369051Y-10238506D01*
X11371902Y-10242428D01*
X11372853Y-10243257D01*
X11378902Y-10244994D01*
X11387211Y-10245421D01*
X11396535Y-10244599D01*
X11405629Y-10242585D01*
X11408598Y-10241582D01*
X11421373Y-10235205D01*
X11430916Y-10226911D01*
X11437218Y-10216712D01*
X11440272Y-10204620D01*
X11440583Y-10198741D01*
X11439219Y-10185768D01*
X11435453Y-10172365D01*
X11429774Y-10159817D01*
X11422670Y-10149410D01*
X11421216Y-10147799D01*
X11417960Y-10143949D01*
X11416411Y-10141262D01*
X11416454Y-10140699D01*
X11418647Y-10139724D01*
X11423466Y-10138111D01*
X11429904Y-10136196D01*
X11430436Y-10136046D01*
X11437254Y-10134210D01*
X11441814Y-10133643D01*
X11445040Y-10134811D01*
X11447852Y-10138181D01*
X11451173Y-10144218D01*
X11452780Y-10147348D01*
X11460365Y-10165797D01*
X11464240Y-10184459D01*
X11464693Y-10199992D01*
X11464354Y-10208379D01*
X11464734Y-10213798D01*
X11466474Y-10216897D01*
X11470221Y-10218328D01*
X11476616Y-10218740D01*
X11483294Y-10218771D01*
X11499535Y-10217496D01*
X11513493Y-10213664D01*
X11524944Y-10207376D01*
X11533666Y-10198736D01*
X11536514Y-10194337D01*
X11538851Y-10189669D01*
X11540246Y-10185180D01*
X11540911Y-10179683D01*
X11541056Y-10171990D01*
X11541028Y-10168937D01*
X11540303Y-10156219D01*
X11538238Y-10145839D01*
X11534453Y-10136500D01*
X11528908Y-10127392D01*
X11525810Y-10122564D01*
X11524007Y-10119107D01*
X11523812Y-10118008D01*
X11525943Y-10117474D01*
X11530843Y-10116799D01*
X11537529Y-10116113D01*
X11538815Y-10116002D01*
X11553013Y-10114802D01*
X11557734Y-10123055D01*
X11563896Y-10135739D01*
X11567639Y-10148530D01*
X11569303Y-10162780D01*
X11569463Y-10169878D01*
X11569355Y-10178618D01*
X11568884Y-10184724D01*
X11567833Y-10189323D01*
X11565987Y-10193541D01*
X11564348Y-10196456D01*
X11557114Y-10205348D01*
X11546580Y-10212938D01*
X11532615Y-10219314D01*
X11528072Y-10220894D01*
X11522068Y-10222680D01*
X11516201Y-10223923D01*
X11509552Y-10224724D01*
X11501200Y-10225185D01*
X11490228Y-10225408D01*
X11487097Y-10225438D01*
X11459292Y-10225662D01*
X11452202Y-10232585D01*
X11446110Y-10237470D01*
X11438511Y-10241466D01*
X11428856Y-10244753D01*
X11416599Y-10247514D01*
X11401191Y-10249931D01*
X11399216Y-10250192D01*
X11389115Y-10251569D01*
X11382237Y-10252698D01*
X11378061Y-10253716D01*
X11376066Y-10254760D01*
X11375732Y-10255965D01*
X11375853Y-10256321D01*
X11377981Y-10262832D01*
X11377731Y-10266663D01*
X11375637Y-10267715D01*
X11372598Y-10268390D01*
X11366966Y-10270213D01*
X11359621Y-10272886D01*
X11353500Y-10275274D01*
X11345785Y-10278283D01*
X11339462Y-10280589D01*
X11335274Y-10281930D01*
X11333957Y-10282130D01*
X11333957Y-10282130D01*
X11333957Y-10282130D01*
G37*
X11333957Y-10282130D02*
X11334401Y-10280245D01*
X11336248Y-10275999D01*
X11338941Y-10270617D01*
X11341920Y-10264340D01*
X11343967Y-10258852D01*
X11344597Y-10255765D01*
X11343694Y-10252338D01*
X11341253Y-10246427D01*
X11337628Y-10238694D01*
X11333176Y-10229805D01*
X11328251Y-10220424D01*
X11323207Y-10211214D01*
X11318401Y-10202840D01*
X11314188Y-10195966D01*
X11310922Y-10191257D01*
X11309138Y-10189443D01*
X11305500Y-10187382D01*
X11303881Y-10186203D01*
X11304977Y-10184989D01*
X11308858Y-10182625D01*
X11314867Y-10179484D01*
X11320377Y-10176840D01*
X11338043Y-10168648D01*
X11339096Y-10175378D01*
X11340412Y-10180077D01*
X11343092Y-10187034D01*
X11346799Y-10195575D01*
X11351200Y-10205028D01*
X11355961Y-10214721D01*
X11360746Y-10223980D01*
X11365221Y-10232132D01*
X11369051Y-10238506D01*
X11371902Y-10242428D01*
X11372853Y-10243257D01*
X11378902Y-10244994D01*
X11387211Y-10245421D01*
X11396535Y-10244599D01*
X11405629Y-10242585D01*
X11408598Y-10241582D01*
X11421373Y-10235205D01*
X11430916Y-10226911D01*
X11437218Y-10216712D01*
X11440272Y-10204620D01*
X11440583Y-10198741D01*
X11439219Y-10185768D01*
X11435453Y-10172365D01*
X11429774Y-10159817D01*
X11422670Y-10149410D01*
X11421216Y-10147799D01*
X11417960Y-10143949D01*
X11416411Y-10141262D01*
X11416454Y-10140699D01*
X11418647Y-10139724D01*
X11423466Y-10138111D01*
X11429904Y-10136196D01*
X11430436Y-10136046D01*
X11437254Y-10134210D01*
X11441814Y-10133643D01*
X11445040Y-10134811D01*
X11447852Y-10138181D01*
X11451173Y-10144218D01*
X11452780Y-10147348D01*
X11460365Y-10165797D01*
X11464240Y-10184459D01*
X11464693Y-10199992D01*
X11464354Y-10208379D01*
X11464734Y-10213798D01*
X11466474Y-10216897D01*
X11470221Y-10218328D01*
X11476616Y-10218740D01*
X11483294Y-10218771D01*
X11499535Y-10217496D01*
X11513493Y-10213664D01*
X11524944Y-10207376D01*
X11533666Y-10198736D01*
X11536514Y-10194337D01*
X11538851Y-10189669D01*
X11540246Y-10185180D01*
X11540911Y-10179683D01*
X11541056Y-10171990D01*
X11541028Y-10168937D01*
X11540303Y-10156219D01*
X11538238Y-10145839D01*
X11534453Y-10136500D01*
X11528908Y-10127392D01*
X11525810Y-10122564D01*
X11524007Y-10119107D01*
X11523812Y-10118008D01*
X11525943Y-10117474D01*
X11530843Y-10116799D01*
X11537529Y-10116113D01*
X11538815Y-10116002D01*
X11553013Y-10114802D01*
X11557734Y-10123055D01*
X11563896Y-10135739D01*
X11567639Y-10148530D01*
X11569303Y-10162780D01*
X11569463Y-10169878D01*
X11569355Y-10178618D01*
X11568884Y-10184724D01*
X11567833Y-10189323D01*
X11565987Y-10193541D01*
X11564348Y-10196456D01*
X11557114Y-10205348D01*
X11546580Y-10212938D01*
X11532615Y-10219314D01*
X11528072Y-10220894D01*
X11522068Y-10222680D01*
X11516201Y-10223923D01*
X11509552Y-10224724D01*
X11501200Y-10225185D01*
X11490228Y-10225408D01*
X11487097Y-10225438D01*
X11459292Y-10225662D01*
X11452202Y-10232585D01*
X11446110Y-10237470D01*
X11438511Y-10241466D01*
X11428856Y-10244753D01*
X11416599Y-10247514D01*
X11401191Y-10249931D01*
X11399216Y-10250192D01*
X11389115Y-10251569D01*
X11382237Y-10252698D01*
X11378061Y-10253716D01*
X11376066Y-10254760D01*
X11375732Y-10255965D01*
X11375853Y-10256321D01*
X11377981Y-10262832D01*
X11377731Y-10266663D01*
X11375637Y-10267715D01*
X11372598Y-10268390D01*
X11366966Y-10270213D01*
X11359621Y-10272886D01*
X11353500Y-10275274D01*
X11345785Y-10278283D01*
X11339462Y-10280589D01*
X11335274Y-10281930D01*
X11333957Y-10282130D01*
X11333957Y-10282130D01*
G36*
X11329242Y-10344856D02*
X11321651Y-10343489D01*
X11316660Y-10339846D01*
X11314547Y-10334610D01*
X11315589Y-10328465D01*
X11320024Y-10322133D01*
X11325968Y-10318065D01*
X11332580Y-10316381D01*
X11338985Y-10316905D01*
X11344307Y-10319464D01*
X11347670Y-10323883D01*
X11348391Y-10327788D01*
X11346774Y-10332805D01*
X11342660Y-10337937D01*
X11337147Y-10342204D01*
X11331338Y-10344624D01*
X11329242Y-10344856D01*
X11329242Y-10344856D01*
X11329242Y-10344856D01*
G37*
X11329242Y-10344856D02*
X11321651Y-10343489D01*
X11316660Y-10339846D01*
X11314547Y-10334610D01*
X11315589Y-10328465D01*
X11320024Y-10322133D01*
X11325968Y-10318065D01*
X11332580Y-10316381D01*
X11338985Y-10316905D01*
X11344307Y-10319464D01*
X11347670Y-10323883D01*
X11348391Y-10327788D01*
X11346774Y-10332805D01*
X11342660Y-10337937D01*
X11337147Y-10342204D01*
X11331338Y-10344624D01*
X11329242Y-10344856D01*
X11329242Y-10344856D01*
M02*
