%FSLAX45Y45*%
G04 Gerber Fmt 4.5, Leading zero omitted, Abs format (unit mm)*
G04 Created by KiCad (PCBNEW (2014-07-12 BZR 4289 GOST-COMMITTERS)-product) date 15.03.2017 23:13:34*
%MOMM*%
G01*
G04 APERTURE LIST*
%ADD10C,0.150000*%
%ADD11C,1.100000*%
%ADD12R,1.300000X1.400000*%
%ADD13R,1.289000X1.416000*%
%ADD14C,5.400000*%
%ADD15R,1.100000X1.300000*%
%ADD16O,1.100000X1.300000*%
%ADD17C,1.900000*%
%ADD18R,1.900000X1.900000*%
%ADD19R,1.200000X1.300000*%
%ADD20R,1.300000X1.200000*%
%ADD21R,1.416000X1.289000*%
G04 APERTURE END LIST*
D10*
D11*
X11219080Y-8925720D02*
X11219080Y-8985720D01*
X11219080Y-10575720D02*
X11219080Y-10635720D01*
D12*
X10186600Y-9424400D03*
X10336600Y-9424400D03*
D13*
X10337800Y-9602200D03*
X10185400Y-9602200D03*
D14*
X10820400Y-8637000D03*
X10820400Y-9475200D03*
D15*
X10275800Y-8973800D03*
D16*
X10145800Y-8973800D03*
X10145800Y-9163800D03*
X10275800Y-9163800D03*
D17*
X12014200Y-8814800D03*
D18*
X12014200Y-9322800D03*
D17*
X12014200Y-9068800D03*
D19*
X11582830Y-9036260D03*
X11392830Y-9036260D03*
X11487830Y-8836260D03*
D12*
X11479950Y-8599650D03*
X11629950Y-8599650D03*
X11228000Y-9322800D03*
X11378000Y-9322800D03*
X11228000Y-9500600D03*
X11378000Y-9500600D03*
D10*
G36*
X11144080Y-8940720D02*
X11169080Y-8840720D01*
X11269080Y-8840720D01*
X11294080Y-8940720D01*
X11144080Y-8940720D01*
X11144080Y-8940720D01*
G37*
G36*
X11294080Y-8975720D02*
X11269080Y-9075720D01*
X11169080Y-9075720D01*
X11144080Y-8975720D01*
X11294080Y-8975720D01*
X11294080Y-8975720D01*
G37*
D20*
X10336200Y-8491200D03*
X10336200Y-8681200D03*
X10136200Y-8586200D03*
D21*
X10515600Y-8992600D03*
X10515600Y-9145000D03*
X10515600Y-10642600D03*
X10515600Y-10795000D03*
D20*
X10336200Y-10141200D03*
X10336200Y-10331200D03*
X10136200Y-10236200D03*
D10*
G36*
X11144080Y-10590720D02*
X11169080Y-10490720D01*
X11269080Y-10490720D01*
X11294080Y-10590720D01*
X11144080Y-10590720D01*
X11144080Y-10590720D01*
G37*
G36*
X11294080Y-10625720D02*
X11269080Y-10725720D01*
X11169080Y-10725720D01*
X11144080Y-10625720D01*
X11294080Y-10625720D01*
X11294080Y-10625720D01*
G37*
D12*
X11228000Y-11150600D03*
X11378000Y-11150600D03*
X11228000Y-10972800D03*
X11378000Y-10972800D03*
X11479950Y-10249650D03*
X11629950Y-10249650D03*
D19*
X11582830Y-10686260D03*
X11392830Y-10686260D03*
X11487830Y-10486260D03*
D17*
X12014200Y-10464800D03*
D18*
X12014200Y-10972800D03*
D17*
X12014200Y-10718800D03*
D15*
X10275800Y-10623800D03*
D16*
X10145800Y-10623800D03*
X10145800Y-10813800D03*
X10275800Y-10813800D03*
D14*
X10820400Y-11125200D03*
X10820400Y-10287000D03*
D13*
X10337800Y-11252200D03*
X10185400Y-11252200D03*
D12*
X10186600Y-11074400D03*
X10336600Y-11074400D03*
M02*
